<?xml version="1.0" encoding="utf-8" standalone="no"?>
<!DOCTYPE svg PUBLIC "-//W3C//DTD SVG 1.1//EN"
  "http://www.w3.org/Graphics/SVG/1.1/DTD/svg11.dtd">
<svg xmlns:xlink="http://www.w3.org/1999/xlink" width="1144.46125pt" height="423.034375pt" viewBox="0 0 1144.46125 423.034375" xmlns="http://www.w3.org/2000/svg" version="1.1">
 <metadata>
  <rdf:RDF xmlns:dc="http://purl.org/dc/elements/1.1/" xmlns:cc="http://creativecommons.org/ns#" xmlns:rdf="http://www.w3.org/1999/02/22-rdf-syntax-ns#">
   <cc:Work>
    <dc:type rdf:resource="http://purl.org/dc/dcmitype/StillImage"/>
    <dc:date>2026-01-06T20:09:25.986853</dc:date>
    <dc:format>image/svg+xml</dc:format>
    <dc:creator>
     <cc:Agent>
      <dc:title>Matplotlib v3.9.4, https://matplotlib.org/</dc:title>
     </cc:Agent>
    </dc:creator>
   </cc:Work>
  </rdf:RDF>
 </metadata>
 <defs>
  <style type="text/css">*{stroke-linejoin: round; stroke-linecap: butt}</style>
 </defs>
 <g id="figure_1">
  <g id="patch_1">
   <path d="M 0 423.034375 
L 1144.46125 423.034375 
L 1144.46125 0 
L 0 0 
z
" style="fill: #ffffff"/>
  </g>
  <g id="axes_1">
   <g id="patch_2">
    <path d="M 43.78125 385.478125 
L 566.66125 385.478125 
L 566.66125 22.318125 
L 43.78125 22.318125 
z
" style="fill: #ffffff"/>
   </g>
   <g id="matplotlib.axis_1">
    <g id="xtick_1">
     <g id="line2d_1">
      <path d="M 62.747053 385.478125 
L 62.747053 22.318125 
" clip-path="url(#p6f814dde7e)" style="fill: none; stroke: #b0b0b0; stroke-opacity: 0.3; stroke-width: 0.8; stroke-linecap: square"/>
     </g>
     <g id="line2d_2">
      <defs>
       <path id="m1424360561" d="M 0 0 
L 0 3.5 
" style="stroke: #000000; stroke-width: 0.8"/>
      </defs>
      <g>
       <use xlink:href="#m1424360561" x="62.747053" y="385.478125" style="stroke: #000000; stroke-width: 0.8"/>
      </g>
     </g>
     <g id="text_1">
      <!-- 0 -->
      <g transform="translate(59.565803 400.076562) scale(0.1 -0.1)">
       <defs>
        <path id="DejaVuSans-30" d="M 2034 4250 
Q 1547 4250 1301 3770 
Q 1056 3291 1056 2328 
Q 1056 1369 1301 889 
Q 1547 409 2034 409 
Q 2525 409 2770 889 
Q 3016 1369 3016 2328 
Q 3016 3291 2770 3770 
Q 2525 4250 2034 4250 
z
M 2034 4750 
Q 2819 4750 3233 4129 
Q 3647 3509 3647 2328 
Q 3647 1150 3233 529 
Q 2819 -91 2034 -91 
Q 1250 -91 836 529 
Q 422 1150 422 2328 
Q 422 3509 836 4129 
Q 1250 4750 2034 4750 
z
" transform="scale(0.015625)"/>
       </defs>
       <use xlink:href="#DejaVuSans-30"/>
      </g>
     </g>
    </g>
    <g id="xtick_2">
     <g id="line2d_3">
      <path d="M 158.776438 385.478125 
L 158.776438 22.318125 
" clip-path="url(#p6f814dde7e)" style="fill: none; stroke: #b0b0b0; stroke-opacity: 0.3; stroke-width: 0.8; stroke-linecap: square"/>
     </g>
     <g id="line2d_4">
      <g>
       <use xlink:href="#m1424360561" x="158.776438" y="385.478125" style="stroke: #000000; stroke-width: 0.8"/>
      </g>
     </g>
     <g id="text_2">
      <!-- 20 -->
      <g transform="translate(152.413938 400.076562) scale(0.1 -0.1)">
       <defs>
        <path id="DejaVuSans-32" d="M 1228 531 
L 3431 531 
L 3431 0 
L 469 0 
L 469 531 
Q 828 903 1448 1529 
Q 2069 2156 2228 2338 
Q 2531 2678 2651 2914 
Q 2772 3150 2772 3378 
Q 2772 3750 2511 3984 
Q 2250 4219 1831 4219 
Q 1534 4219 1204 4116 
Q 875 4013 500 3803 
L 500 4441 
Q 881 4594 1212 4672 
Q 1544 4750 1819 4750 
Q 2544 4750 2975 4387 
Q 3406 4025 3406 3419 
Q 3406 3131 3298 2873 
Q 3191 2616 2906 2266 
Q 2828 2175 2409 1742 
Q 1991 1309 1228 531 
z
" transform="scale(0.015625)"/>
       </defs>
       <use xlink:href="#DejaVuSans-32"/>
       <use xlink:href="#DejaVuSans-30" x="63.623047"/>
      </g>
     </g>
    </g>
    <g id="xtick_3">
     <g id="line2d_5">
      <path d="M 254.805823 385.478125 
L 254.805823 22.318125 
" clip-path="url(#p6f814dde7e)" style="fill: none; stroke: #b0b0b0; stroke-opacity: 0.3; stroke-width: 0.8; stroke-linecap: square"/>
     </g>
     <g id="line2d_6">
      <g>
       <use xlink:href="#m1424360561" x="254.805823" y="385.478125" style="stroke: #000000; stroke-width: 0.8"/>
      </g>
     </g>
     <g id="text_3">
      <!-- 40 -->
      <g transform="translate(248.443323 400.076562) scale(0.1 -0.1)">
       <defs>
        <path id="DejaVuSans-34" d="M 2419 4116 
L 825 1625 
L 2419 1625 
L 2419 4116 
z
M 2253 4666 
L 3047 4666 
L 3047 1625 
L 3713 1625 
L 3713 1100 
L 3047 1100 
L 3047 0 
L 2419 0 
L 2419 1100 
L 313 1100 
L 313 1709 
L 2253 4666 
z
" transform="scale(0.015625)"/>
       </defs>
       <use xlink:href="#DejaVuSans-34"/>
       <use xlink:href="#DejaVuSans-30" x="63.623047"/>
      </g>
     </g>
    </g>
    <g id="xtick_4">
     <g id="line2d_7">
      <path d="M 350.835208 385.478125 
L 350.835208 22.318125 
" clip-path="url(#p6f814dde7e)" style="fill: none; stroke: #b0b0b0; stroke-opacity: 0.3; stroke-width: 0.8; stroke-linecap: square"/>
     </g>
     <g id="line2d_8">
      <g>
       <use xlink:href="#m1424360561" x="350.835208" y="385.478125" style="stroke: #000000; stroke-width: 0.8"/>
      </g>
     </g>
     <g id="text_4">
      <!-- 60 -->
      <g transform="translate(344.472708 400.076562) scale(0.1 -0.1)">
       <defs>
        <path id="DejaVuSans-36" d="M 2113 2584 
Q 1688 2584 1439 2293 
Q 1191 2003 1191 1497 
Q 1191 994 1439 701 
Q 1688 409 2113 409 
Q 2538 409 2786 701 
Q 3034 994 3034 1497 
Q 3034 2003 2786 2293 
Q 2538 2584 2113 2584 
z
M 3366 4563 
L 3366 3988 
Q 3128 4100 2886 4159 
Q 2644 4219 2406 4219 
Q 1781 4219 1451 3797 
Q 1122 3375 1075 2522 
Q 1259 2794 1537 2939 
Q 1816 3084 2150 3084 
Q 2853 3084 3261 2657 
Q 3669 2231 3669 1497 
Q 3669 778 3244 343 
Q 2819 -91 2113 -91 
Q 1303 -91 875 529 
Q 447 1150 447 2328 
Q 447 3434 972 4092 
Q 1497 4750 2381 4750 
Q 2619 4750 2861 4703 
Q 3103 4656 3366 4563 
z
" transform="scale(0.015625)"/>
       </defs>
       <use xlink:href="#DejaVuSans-36"/>
       <use xlink:href="#DejaVuSans-30" x="63.623047"/>
      </g>
     </g>
    </g>
    <g id="xtick_5">
     <g id="line2d_9">
      <path d="M 446.864593 385.478125 
L 446.864593 22.318125 
" clip-path="url(#p6f814dde7e)" style="fill: none; stroke: #b0b0b0; stroke-opacity: 0.3; stroke-width: 0.8; stroke-linecap: square"/>
     </g>
     <g id="line2d_10">
      <g>
       <use xlink:href="#m1424360561" x="446.864593" y="385.478125" style="stroke: #000000; stroke-width: 0.8"/>
      </g>
     </g>
     <g id="text_5">
      <!-- 80 -->
      <g transform="translate(440.502093 400.076562) scale(0.1 -0.1)">
       <defs>
        <path id="DejaVuSans-38" d="M 2034 2216 
Q 1584 2216 1326 1975 
Q 1069 1734 1069 1313 
Q 1069 891 1326 650 
Q 1584 409 2034 409 
Q 2484 409 2743 651 
Q 3003 894 3003 1313 
Q 3003 1734 2745 1975 
Q 2488 2216 2034 2216 
z
M 1403 2484 
Q 997 2584 770 2862 
Q 544 3141 544 3541 
Q 544 4100 942 4425 
Q 1341 4750 2034 4750 
Q 2731 4750 3128 4425 
Q 3525 4100 3525 3541 
Q 3525 3141 3298 2862 
Q 3072 2584 2669 2484 
Q 3125 2378 3379 2068 
Q 3634 1759 3634 1313 
Q 3634 634 3220 271 
Q 2806 -91 2034 -91 
Q 1263 -91 848 271 
Q 434 634 434 1313 
Q 434 1759 690 2068 
Q 947 2378 1403 2484 
z
M 1172 3481 
Q 1172 3119 1398 2916 
Q 1625 2713 2034 2713 
Q 2441 2713 2670 2916 
Q 2900 3119 2900 3481 
Q 2900 3844 2670 4047 
Q 2441 4250 2034 4250 
Q 1625 4250 1398 4047 
Q 1172 3844 1172 3481 
z
" transform="scale(0.015625)"/>
       </defs>
       <use xlink:href="#DejaVuSans-38"/>
       <use xlink:href="#DejaVuSans-30" x="63.623047"/>
      </g>
     </g>
    </g>
    <g id="xtick_6">
     <g id="line2d_11">
      <path d="M 542.893977 385.478125 
L 542.893977 22.318125 
" clip-path="url(#p6f814dde7e)" style="fill: none; stroke: #b0b0b0; stroke-opacity: 0.3; stroke-width: 0.8; stroke-linecap: square"/>
     </g>
     <g id="line2d_12">
      <g>
       <use xlink:href="#m1424360561" x="542.893977" y="385.478125" style="stroke: #000000; stroke-width: 0.8"/>
      </g>
     </g>
     <g id="text_6">
      <!-- 100 -->
      <g transform="translate(533.350227 400.076562) scale(0.1 -0.1)">
       <defs>
        <path id="DejaVuSans-31" d="M 794 531 
L 1825 531 
L 1825 4091 
L 703 3866 
L 703 4441 
L 1819 4666 
L 2450 4666 
L 2450 531 
L 3481 531 
L 3481 0 
L 794 0 
L 794 531 
z
" transform="scale(0.015625)"/>
       </defs>
       <use xlink:href="#DejaVuSans-31"/>
       <use xlink:href="#DejaVuSans-30" x="63.623047"/>
       <use xlink:href="#DejaVuSans-30" x="127.246094"/>
      </g>
     </g>
    </g>
    <g id="text_7">
     <!-- Communication Rounds -->
     <g transform="translate(245.798594 413.754687) scale(0.1 -0.1)">
      <defs>
       <path id="DejaVuSans-43" d="M 4122 4306 
L 4122 3641 
Q 3803 3938 3442 4084 
Q 3081 4231 2675 4231 
Q 1875 4231 1450 3742 
Q 1025 3253 1025 2328 
Q 1025 1406 1450 917 
Q 1875 428 2675 428 
Q 3081 428 3442 575 
Q 3803 722 4122 1019 
L 4122 359 
Q 3791 134 3420 21 
Q 3050 -91 2638 -91 
Q 1578 -91 968 557 
Q 359 1206 359 2328 
Q 359 3453 968 4101 
Q 1578 4750 2638 4750 
Q 3056 4750 3426 4639 
Q 3797 4528 4122 4306 
z
" transform="scale(0.015625)"/>
       <path id="DejaVuSans-6f" d="M 1959 3097 
Q 1497 3097 1228 2736 
Q 959 2375 959 1747 
Q 959 1119 1226 758 
Q 1494 397 1959 397 
Q 2419 397 2687 759 
Q 2956 1122 2956 1747 
Q 2956 2369 2687 2733 
Q 2419 3097 1959 3097 
z
M 1959 3584 
Q 2709 3584 3137 3096 
Q 3566 2609 3566 1747 
Q 3566 888 3137 398 
Q 2709 -91 1959 -91 
Q 1206 -91 779 398 
Q 353 888 353 1747 
Q 353 2609 779 3096 
Q 1206 3584 1959 3584 
z
" transform="scale(0.015625)"/>
       <path id="DejaVuSans-6d" d="M 3328 2828 
Q 3544 3216 3844 3400 
Q 4144 3584 4550 3584 
Q 5097 3584 5394 3201 
Q 5691 2819 5691 2113 
L 5691 0 
L 5113 0 
L 5113 2094 
Q 5113 2597 4934 2840 
Q 4756 3084 4391 3084 
Q 3944 3084 3684 2787 
Q 3425 2491 3425 1978 
L 3425 0 
L 2847 0 
L 2847 2094 
Q 2847 2600 2669 2842 
Q 2491 3084 2119 3084 
Q 1678 3084 1418 2786 
Q 1159 2488 1159 1978 
L 1159 0 
L 581 0 
L 581 3500 
L 1159 3500 
L 1159 2956 
Q 1356 3278 1631 3431 
Q 1906 3584 2284 3584 
Q 2666 3584 2933 3390 
Q 3200 3197 3328 2828 
z
" transform="scale(0.015625)"/>
       <path id="DejaVuSans-75" d="M 544 1381 
L 544 3500 
L 1119 3500 
L 1119 1403 
Q 1119 906 1312 657 
Q 1506 409 1894 409 
Q 2359 409 2629 706 
Q 2900 1003 2900 1516 
L 2900 3500 
L 3475 3500 
L 3475 0 
L 2900 0 
L 2900 538 
Q 2691 219 2414 64 
Q 2138 -91 1772 -91 
Q 1169 -91 856 284 
Q 544 659 544 1381 
z
M 1991 3584 
L 1991 3584 
z
" transform="scale(0.015625)"/>
       <path id="DejaVuSans-6e" d="M 3513 2113 
L 3513 0 
L 2938 0 
L 2938 2094 
Q 2938 2591 2744 2837 
Q 2550 3084 2163 3084 
Q 1697 3084 1428 2787 
Q 1159 2491 1159 1978 
L 1159 0 
L 581 0 
L 581 3500 
L 1159 3500 
L 1159 2956 
Q 1366 3272 1645 3428 
Q 1925 3584 2291 3584 
Q 2894 3584 3203 3211 
Q 3513 2838 3513 2113 
z
" transform="scale(0.015625)"/>
       <path id="DejaVuSans-69" d="M 603 3500 
L 1178 3500 
L 1178 0 
L 603 0 
L 603 3500 
z
M 603 4863 
L 1178 4863 
L 1178 4134 
L 603 4134 
L 603 4863 
z
" transform="scale(0.015625)"/>
       <path id="DejaVuSans-63" d="M 3122 3366 
L 3122 2828 
Q 2878 2963 2633 3030 
Q 2388 3097 2138 3097 
Q 1578 3097 1268 2742 
Q 959 2388 959 1747 
Q 959 1106 1268 751 
Q 1578 397 2138 397 
Q 2388 397 2633 464 
Q 2878 531 3122 666 
L 3122 134 
Q 2881 22 2623 -34 
Q 2366 -91 2075 -91 
Q 1284 -91 818 406 
Q 353 903 353 1747 
Q 353 2603 823 3093 
Q 1294 3584 2113 3584 
Q 2378 3584 2631 3529 
Q 2884 3475 3122 3366 
z
" transform="scale(0.015625)"/>
       <path id="DejaVuSans-61" d="M 2194 1759 
Q 1497 1759 1228 1600 
Q 959 1441 959 1056 
Q 959 750 1161 570 
Q 1363 391 1709 391 
Q 2188 391 2477 730 
Q 2766 1069 2766 1631 
L 2766 1759 
L 2194 1759 
z
M 3341 1997 
L 3341 0 
L 2766 0 
L 2766 531 
Q 2569 213 2275 61 
Q 1981 -91 1556 -91 
Q 1019 -91 701 211 
Q 384 513 384 1019 
Q 384 1609 779 1909 
Q 1175 2209 1959 2209 
L 2766 2209 
L 2766 2266 
Q 2766 2663 2505 2880 
Q 2244 3097 1772 3097 
Q 1472 3097 1187 3025 
Q 903 2953 641 2809 
L 641 3341 
Q 956 3463 1253 3523 
Q 1550 3584 1831 3584 
Q 2591 3584 2966 3190 
Q 3341 2797 3341 1997 
z
" transform="scale(0.015625)"/>
       <path id="DejaVuSans-74" d="M 1172 4494 
L 1172 3500 
L 2356 3500 
L 2356 3053 
L 1172 3053 
L 1172 1153 
Q 1172 725 1289 603 
Q 1406 481 1766 481 
L 2356 481 
L 2356 0 
L 1766 0 
Q 1100 0 847 248 
Q 594 497 594 1153 
L 594 3053 
L 172 3053 
L 172 3500 
L 594 3500 
L 594 4494 
L 1172 4494 
z
" transform="scale(0.015625)"/>
       <path id="DejaVuSans-20" transform="scale(0.015625)"/>
       <path id="DejaVuSans-52" d="M 2841 2188 
Q 3044 2119 3236 1894 
Q 3428 1669 3622 1275 
L 4263 0 
L 3584 0 
L 2988 1197 
Q 2756 1666 2539 1819 
Q 2322 1972 1947 1972 
L 1259 1972 
L 1259 0 
L 628 0 
L 628 4666 
L 2053 4666 
Q 2853 4666 3247 4331 
Q 3641 3997 3641 3322 
Q 3641 2881 3436 2590 
Q 3231 2300 2841 2188 
z
M 1259 4147 
L 1259 2491 
L 2053 2491 
Q 2509 2491 2742 2702 
Q 2975 2913 2975 3322 
Q 2975 3731 2742 3939 
Q 2509 4147 2053 4147 
L 1259 4147 
z
" transform="scale(0.015625)"/>
       <path id="DejaVuSans-64" d="M 2906 2969 
L 2906 4863 
L 3481 4863 
L 3481 0 
L 2906 0 
L 2906 525 
Q 2725 213 2448 61 
Q 2172 -91 1784 -91 
Q 1150 -91 751 415 
Q 353 922 353 1747 
Q 353 2572 751 3078 
Q 1150 3584 1784 3584 
Q 2172 3584 2448 3432 
Q 2725 3281 2906 2969 
z
M 947 1747 
Q 947 1113 1208 752 
Q 1469 391 1925 391 
Q 2381 391 2643 752 
Q 2906 1113 2906 1747 
Q 2906 2381 2643 2742 
Q 2381 3103 1925 3103 
Q 1469 3103 1208 2742 
Q 947 2381 947 1747 
z
" transform="scale(0.015625)"/>
       <path id="DejaVuSans-73" d="M 2834 3397 
L 2834 2853 
Q 2591 2978 2328 3040 
Q 2066 3103 1784 3103 
Q 1356 3103 1142 2972 
Q 928 2841 928 2578 
Q 928 2378 1081 2264 
Q 1234 2150 1697 2047 
L 1894 2003 
Q 2506 1872 2764 1633 
Q 3022 1394 3022 966 
Q 3022 478 2636 193 
Q 2250 -91 1575 -91 
Q 1294 -91 989 -36 
Q 684 19 347 128 
L 347 722 
Q 666 556 975 473 
Q 1284 391 1588 391 
Q 1994 391 2212 530 
Q 2431 669 2431 922 
Q 2431 1156 2273 1281 
Q 2116 1406 1581 1522 
L 1381 1569 
Q 847 1681 609 1914 
Q 372 2147 372 2553 
Q 372 3047 722 3315 
Q 1072 3584 1716 3584 
Q 2034 3584 2315 3537 
Q 2597 3491 2834 3397 
z
" transform="scale(0.015625)"/>
      </defs>
      <use xlink:href="#DejaVuSans-43"/>
      <use xlink:href="#DejaVuSans-6f" x="69.824219"/>
      <use xlink:href="#DejaVuSans-6d" x="131.005859"/>
      <use xlink:href="#DejaVuSans-6d" x="228.417969"/>
      <use xlink:href="#DejaVuSans-75" x="325.830078"/>
      <use xlink:href="#DejaVuSans-6e" x="389.208984"/>
      <use xlink:href="#DejaVuSans-69" x="452.587891"/>
      <use xlink:href="#DejaVuSans-63" x="480.371094"/>
      <use xlink:href="#DejaVuSans-61" x="535.351562"/>
      <use xlink:href="#DejaVuSans-74" x="596.630859"/>
      <use xlink:href="#DejaVuSans-69" x="635.839844"/>
      <use xlink:href="#DejaVuSans-6f" x="663.623047"/>
      <use xlink:href="#DejaVuSans-6e" x="724.804688"/>
      <use xlink:href="#DejaVuSans-20" x="788.183594"/>
      <use xlink:href="#DejaVuSans-52" x="819.970703"/>
      <use xlink:href="#DejaVuSans-6f" x="884.953125"/>
      <use xlink:href="#DejaVuSans-75" x="946.134766"/>
      <use xlink:href="#DejaVuSans-6e" x="1009.513672"/>
      <use xlink:href="#DejaVuSans-64" x="1072.892578"/>
      <use xlink:href="#DejaVuSans-73" x="1136.369141"/>
     </g>
    </g>
   </g>
   <g id="matplotlib.axis_2">
    <g id="ytick_1">
     <g id="line2d_13">
      <path d="M 43.78125 378.518218 
L 566.66125 378.518218 
" clip-path="url(#p6f814dde7e)" style="fill: none; stroke: #b0b0b0; stroke-opacity: 0.3; stroke-width: 0.8; stroke-linecap: square"/>
     </g>
     <g id="line2d_14">
      <defs>
       <path id="m48281283e5" d="M 0 0 
L -3.5 0 
" style="stroke: #000000; stroke-width: 0.8"/>
      </defs>
      <g>
       <use xlink:href="#m48281283e5" x="43.78125" y="378.518218" style="stroke: #000000; stroke-width: 0.8"/>
      </g>
     </g>
     <g id="text_8">
      <!-- 0.0 -->
      <g transform="translate(20.878125 382.317437) scale(0.1 -0.1)">
       <defs>
        <path id="DejaVuSans-2e" d="M 684 794 
L 1344 794 
L 1344 0 
L 684 0 
L 684 794 
z
" transform="scale(0.015625)"/>
       </defs>
       <use xlink:href="#DejaVuSans-30"/>
       <use xlink:href="#DejaVuSans-2e" x="63.623047"/>
       <use xlink:href="#DejaVuSans-30" x="95.410156"/>
      </g>
     </g>
    </g>
    <g id="ytick_2">
     <g id="line2d_15">
      <path d="M 43.78125 329.52545 
L 566.66125 329.52545 
" clip-path="url(#p6f814dde7e)" style="fill: none; stroke: #b0b0b0; stroke-opacity: 0.3; stroke-width: 0.8; stroke-linecap: square"/>
     </g>
     <g id="line2d_16">
      <g>
       <use xlink:href="#m48281283e5" x="43.78125" y="329.52545" style="stroke: #000000; stroke-width: 0.8"/>
      </g>
     </g>
     <g id="text_9">
      <!-- 0.1 -->
      <g transform="translate(20.878125 333.324669) scale(0.1 -0.1)">
       <use xlink:href="#DejaVuSans-30"/>
       <use xlink:href="#DejaVuSans-2e" x="63.623047"/>
       <use xlink:href="#DejaVuSans-31" x="95.410156"/>
      </g>
     </g>
    </g>
    <g id="ytick_3">
     <g id="line2d_17">
      <path d="M 43.78125 280.532683 
L 566.66125 280.532683 
" clip-path="url(#p6f814dde7e)" style="fill: none; stroke: #b0b0b0; stroke-opacity: 0.3; stroke-width: 0.8; stroke-linecap: square"/>
     </g>
     <g id="line2d_18">
      <g>
       <use xlink:href="#m48281283e5" x="43.78125" y="280.532683" style="stroke: #000000; stroke-width: 0.8"/>
      </g>
     </g>
     <g id="text_10">
      <!-- 0.2 -->
      <g transform="translate(20.878125 284.331902) scale(0.1 -0.1)">
       <use xlink:href="#DejaVuSans-30"/>
       <use xlink:href="#DejaVuSans-2e" x="63.623047"/>
       <use xlink:href="#DejaVuSans-32" x="95.410156"/>
      </g>
     </g>
    </g>
    <g id="ytick_4">
     <g id="line2d_19">
      <path d="M 43.78125 231.539916 
L 566.66125 231.539916 
" clip-path="url(#p6f814dde7e)" style="fill: none; stroke: #b0b0b0; stroke-opacity: 0.3; stroke-width: 0.8; stroke-linecap: square"/>
     </g>
     <g id="line2d_20">
      <g>
       <use xlink:href="#m48281283e5" x="43.78125" y="231.539916" style="stroke: #000000; stroke-width: 0.8"/>
      </g>
     </g>
     <g id="text_11">
      <!-- 0.3 -->
      <g transform="translate(20.878125 235.339134) scale(0.1 -0.1)">
       <defs>
        <path id="DejaVuSans-33" d="M 2597 2516 
Q 3050 2419 3304 2112 
Q 3559 1806 3559 1356 
Q 3559 666 3084 287 
Q 2609 -91 1734 -91 
Q 1441 -91 1130 -33 
Q 819 25 488 141 
L 488 750 
Q 750 597 1062 519 
Q 1375 441 1716 441 
Q 2309 441 2620 675 
Q 2931 909 2931 1356 
Q 2931 1769 2642 2001 
Q 2353 2234 1838 2234 
L 1294 2234 
L 1294 2753 
L 1863 2753 
Q 2328 2753 2575 2939 
Q 2822 3125 2822 3475 
Q 2822 3834 2567 4026 
Q 2313 4219 1838 4219 
Q 1578 4219 1281 4162 
Q 984 4106 628 3988 
L 628 4550 
Q 988 4650 1302 4700 
Q 1616 4750 1894 4750 
Q 2613 4750 3031 4423 
Q 3450 4097 3450 3541 
Q 3450 3153 3228 2886 
Q 3006 2619 2597 2516 
z
" transform="scale(0.015625)"/>
       </defs>
       <use xlink:href="#DejaVuSans-30"/>
       <use xlink:href="#DejaVuSans-2e" x="63.623047"/>
       <use xlink:href="#DejaVuSans-33" x="95.410156"/>
      </g>
     </g>
    </g>
    <g id="ytick_5">
     <g id="line2d_21">
      <path d="M 43.78125 182.547148 
L 566.66125 182.547148 
" clip-path="url(#p6f814dde7e)" style="fill: none; stroke: #b0b0b0; stroke-opacity: 0.3; stroke-width: 0.8; stroke-linecap: square"/>
     </g>
     <g id="line2d_22">
      <g>
       <use xlink:href="#m48281283e5" x="43.78125" y="182.547148" style="stroke: #000000; stroke-width: 0.8"/>
      </g>
     </g>
     <g id="text_12">
      <!-- 0.4 -->
      <g transform="translate(20.878125 186.346367) scale(0.1 -0.1)">
       <use xlink:href="#DejaVuSans-30"/>
       <use xlink:href="#DejaVuSans-2e" x="63.623047"/>
       <use xlink:href="#DejaVuSans-34" x="95.410156"/>
      </g>
     </g>
    </g>
    <g id="ytick_6">
     <g id="line2d_23">
      <path d="M 43.78125 133.554381 
L 566.66125 133.554381 
" clip-path="url(#p6f814dde7e)" style="fill: none; stroke: #b0b0b0; stroke-opacity: 0.3; stroke-width: 0.8; stroke-linecap: square"/>
     </g>
     <g id="line2d_24">
      <g>
       <use xlink:href="#m48281283e5" x="43.78125" y="133.554381" style="stroke: #000000; stroke-width: 0.8"/>
      </g>
     </g>
     <g id="text_13">
      <!-- 0.5 -->
      <g transform="translate(20.878125 137.353599) scale(0.1 -0.1)">
       <defs>
        <path id="DejaVuSans-35" d="M 691 4666 
L 3169 4666 
L 3169 4134 
L 1269 4134 
L 1269 2991 
Q 1406 3038 1543 3061 
Q 1681 3084 1819 3084 
Q 2600 3084 3056 2656 
Q 3513 2228 3513 1497 
Q 3513 744 3044 326 
Q 2575 -91 1722 -91 
Q 1428 -91 1123 -41 
Q 819 9 494 109 
L 494 744 
Q 775 591 1075 516 
Q 1375 441 1709 441 
Q 2250 441 2565 725 
Q 2881 1009 2881 1497 
Q 2881 1984 2565 2268 
Q 2250 2553 1709 2553 
Q 1456 2553 1204 2497 
Q 953 2441 691 2322 
L 691 4666 
z
" transform="scale(0.015625)"/>
       </defs>
       <use xlink:href="#DejaVuSans-30"/>
       <use xlink:href="#DejaVuSans-2e" x="63.623047"/>
       <use xlink:href="#DejaVuSans-35" x="95.410156"/>
      </g>
     </g>
    </g>
    <g id="ytick_7">
     <g id="line2d_25">
      <path d="M 43.78125 84.561613 
L 566.66125 84.561613 
" clip-path="url(#p6f814dde7e)" style="fill: none; stroke: #b0b0b0; stroke-opacity: 0.3; stroke-width: 0.8; stroke-linecap: square"/>
     </g>
     <g id="line2d_26">
      <g>
       <use xlink:href="#m48281283e5" x="43.78125" y="84.561613" style="stroke: #000000; stroke-width: 0.8"/>
      </g>
     </g>
     <g id="text_14">
      <!-- 0.6 -->
      <g transform="translate(20.878125 88.360832) scale(0.1 -0.1)">
       <use xlink:href="#DejaVuSans-30"/>
       <use xlink:href="#DejaVuSans-2e" x="63.623047"/>
       <use xlink:href="#DejaVuSans-36" x="95.410156"/>
      </g>
     </g>
    </g>
    <g id="ytick_8">
     <g id="line2d_27">
      <path d="M 43.78125 35.568846 
L 566.66125 35.568846 
" clip-path="url(#p6f814dde7e)" style="fill: none; stroke: #b0b0b0; stroke-opacity: 0.3; stroke-width: 0.8; stroke-linecap: square"/>
     </g>
     <g id="line2d_28">
      <g>
       <use xlink:href="#m48281283e5" x="43.78125" y="35.568846" style="stroke: #000000; stroke-width: 0.8"/>
      </g>
     </g>
     <g id="text_15">
      <!-- 0.7 -->
      <g transform="translate(20.878125 39.368065) scale(0.1 -0.1)">
       <defs>
        <path id="DejaVuSans-37" d="M 525 4666 
L 3525 4666 
L 3525 4397 
L 1831 0 
L 1172 0 
L 2766 4134 
L 525 4134 
L 525 4666 
z
" transform="scale(0.015625)"/>
       </defs>
       <use xlink:href="#DejaVuSans-30"/>
       <use xlink:href="#DejaVuSans-2e" x="63.623047"/>
       <use xlink:href="#DejaVuSans-37" x="95.410156"/>
      </g>
     </g>
    </g>
    <g id="text_16">
     <!-- Global Accuracy -->
     <g transform="translate(14.798438 244.265312) rotate(-90) scale(0.1 -0.1)">
      <defs>
       <path id="DejaVuSans-47" d="M 3809 666 
L 3809 1919 
L 2778 1919 
L 2778 2438 
L 4434 2438 
L 4434 434 
Q 4069 175 3628 42 
Q 3188 -91 2688 -91 
Q 1594 -91 976 548 
Q 359 1188 359 2328 
Q 359 3472 976 4111 
Q 1594 4750 2688 4750 
Q 3144 4750 3555 4637 
Q 3966 4525 4313 4306 
L 4313 3634 
Q 3963 3931 3569 4081 
Q 3175 4231 2741 4231 
Q 1884 4231 1454 3753 
Q 1025 3275 1025 2328 
Q 1025 1384 1454 906 
Q 1884 428 2741 428 
Q 3075 428 3337 486 
Q 3600 544 3809 666 
z
" transform="scale(0.015625)"/>
       <path id="DejaVuSans-6c" d="M 603 4863 
L 1178 4863 
L 1178 0 
L 603 0 
L 603 4863 
z
" transform="scale(0.015625)"/>
       <path id="DejaVuSans-62" d="M 3116 1747 
Q 3116 2381 2855 2742 
Q 2594 3103 2138 3103 
Q 1681 3103 1420 2742 
Q 1159 2381 1159 1747 
Q 1159 1113 1420 752 
Q 1681 391 2138 391 
Q 2594 391 2855 752 
Q 3116 1113 3116 1747 
z
M 1159 2969 
Q 1341 3281 1617 3432 
Q 1894 3584 2278 3584 
Q 2916 3584 3314 3078 
Q 3713 2572 3713 1747 
Q 3713 922 3314 415 
Q 2916 -91 2278 -91 
Q 1894 -91 1617 61 
Q 1341 213 1159 525 
L 1159 0 
L 581 0 
L 581 4863 
L 1159 4863 
L 1159 2969 
z
" transform="scale(0.015625)"/>
       <path id="DejaVuSans-41" d="M 2188 4044 
L 1331 1722 
L 3047 1722 
L 2188 4044 
z
M 1831 4666 
L 2547 4666 
L 4325 0 
L 3669 0 
L 3244 1197 
L 1141 1197 
L 716 0 
L 50 0 
L 1831 4666 
z
" transform="scale(0.015625)"/>
       <path id="DejaVuSans-72" d="M 2631 2963 
Q 2534 3019 2420 3045 
Q 2306 3072 2169 3072 
Q 1681 3072 1420 2755 
Q 1159 2438 1159 1844 
L 1159 0 
L 581 0 
L 581 3500 
L 1159 3500 
L 1159 2956 
Q 1341 3275 1631 3429 
Q 1922 3584 2338 3584 
Q 2397 3584 2469 3576 
Q 2541 3569 2628 3553 
L 2631 2963 
z
" transform="scale(0.015625)"/>
       <path id="DejaVuSans-79" d="M 2059 -325 
Q 1816 -950 1584 -1140 
Q 1353 -1331 966 -1331 
L 506 -1331 
L 506 -850 
L 844 -850 
Q 1081 -850 1212 -737 
Q 1344 -625 1503 -206 
L 1606 56 
L 191 3500 
L 800 3500 
L 1894 763 
L 2988 3500 
L 3597 3500 
L 2059 -325 
z
" transform="scale(0.015625)"/>
      </defs>
      <use xlink:href="#DejaVuSans-47"/>
      <use xlink:href="#DejaVuSans-6c" x="77.490234"/>
      <use xlink:href="#DejaVuSans-6f" x="105.273438"/>
      <use xlink:href="#DejaVuSans-62" x="166.455078"/>
      <use xlink:href="#DejaVuSans-61" x="229.931641"/>
      <use xlink:href="#DejaVuSans-6c" x="291.210938"/>
      <use xlink:href="#DejaVuSans-20" x="318.994141"/>
      <use xlink:href="#DejaVuSans-41" x="350.78125"/>
      <use xlink:href="#DejaVuSans-63" x="417.439453"/>
      <use xlink:href="#DejaVuSans-63" x="472.419922"/>
      <use xlink:href="#DejaVuSans-75" x="527.400391"/>
      <use xlink:href="#DejaVuSans-72" x="590.779297"/>
      <use xlink:href="#DejaVuSans-61" x="631.892578"/>
      <use xlink:href="#DejaVuSans-63" x="693.171875"/>
      <use xlink:href="#DejaVuSans-79" x="748.152344"/>
     </g>
    </g>
   </g>
   <g id="line2d_29">
    <path d="M 67.548523 368.970852 
L 72.349992 359.881405 
L 77.151461 344.574499 
L 81.95293 318.284233 
L 86.7544 300.689961 
L 91.555869 276.202469 
L 96.357338 255.096012 
L 101.158807 240.093644 
L 105.960277 226.940731 
L 110.761746 214.361326 
L 115.563215 202.857807 
L 120.364684 197.153839 
L 125.166154 189.969419 
L 129.967623 183.70528 
L 134.769092 175.987363 
L 139.570561 170.058883 
L 144.372031 166.093225 
L 149.1735 162.074218 
L 153.974969 157.784016 
L 158.776438 154.72308 
L 163.577907 150.239486 
L 168.379377 145.88482 
L 173.180846 140.741024 
L 177.982315 136.186297 
L 182.783784 130.346733 
L 187.585254 125.311859 
L 192.386723 120.772692 
L 197.188192 117.765105 
L 201.989661 114.721952 
L 206.791131 113.568266 
L 211.5926 112.37679 
L 216.394069 109.635952 
L 221.195538 107.655346 
L 225.997008 105.525805 
L 230.798477 105.143466 
L 235.599946 104.28098 
L 240.401415 102.287036 
L 245.202885 102.278145 
L 250.004354 102.676044 
L 254.805823 100.859933 
L 259.607292 99.410601 
L 264.408761 99.128292 
L 269.210231 97.332187 
L 274.0117 94.415739 
L 278.813169 91.817166 
L 283.614638 89.318624 
L 288.416108 88.033787 
L 293.217577 86.777847 
L 298.019046 84.663867 
L 302.820515 82.303144 
L 307.621985 79.61121 
L 312.423454 77.243819 
L 317.224923 75.578865 
L 322.026392 74.191774 
L 326.827862 72.282301 
L 331.629331 69.572583 
L 336.4308 66.938444 
L 341.232269 65.060091 
L 346.033739 64.23984 
L 350.835208 63.199522 
L 355.636677 61.852443 
L 360.438146 60.087459 
L 365.239615 58.833742 
L 370.041085 58.17354 
L 374.842554 57.713399 
L 379.644023 57.044305 
L 384.445492 56.741991 
L 389.246962 56.28185 
L 394.048431 55.850607 
L 398.8499 55.159284 
L 403.651369 54.725818 
L 408.452839 54.3746 
L 413.254308 54.025604 
L 418.055777 54.047833 
L 422.857246 53.938911 
L 427.658716 53.267594 
L 432.460185 52.073896 
L 437.261654 51.122493 
L 442.063123 50.635678 
L 446.864593 50.066615 
L 451.666062 49.646486 
L 456.467531 49.284153 
L 461.269 48.679524 
L 466.070469 48.130467 
L 470.871939 47.754796 
L 475.673408 47.399132 
L 480.474877 46.903425 
L 485.276346 46.252114 
L 490.077816 45.771968 
L 494.879285 45.416303 
L 499.680754 44.960608 
L 504.482223 44.669408 
L 509.283693 44.362647 
L 514.085162 43.962525 
L 518.886631 43.517945 
L 523.6881 43.244528 
L 528.48957 42.85552 
L 533.291039 42.488741 
L 538.092508 42.070835 
L 542.893977 41.719617 
" clip-path="url(#p6f814dde7e)" style="fill: none; stroke: #808080; stroke-width: 2; stroke-linecap: square"/>
   </g>
   <g id="line2d_30">
    <path d="M 67.548523 361.673064 
L 72.349992 359.547969 
L 77.151461 358.923334 
L 81.95293 356.853812 
L 86.7544 344.616734 
L 91.555869 355.57342 
L 96.357338 354.319703 
L 101.158807 350.282912 
L 105.960277 345.288051 
L 110.761746 342.558327 
L 115.563215 336.11191 
L 120.364684 329.950025 
L 125.166154 313.669488 
L 129.967623 313.055967 
L 134.769092 301.912558 
L 139.570561 279.665751 
L 144.372031 263.189599 
L 149.1735 254.209074 
L 153.974969 245.859852 
L 158.776438 230.617411 
L 163.577907 223.032868 
L 168.379377 214.901492 
L 173.180846 206.225504 
L 177.982315 190.316192 
L 182.783784 178.648177 
L 187.585254 154.972045 
L 192.386723 151.733276 
L 197.188192 138.458103 
L 201.989661 130.68906 
L 206.791131 121.079453 
L 211.5926 109.584825 
L 216.394069 121.995289 
L 221.195538 112.572406 
L 225.997008 94.631361 
L 230.798477 97.959046 
L 235.599946 93.38209 
L 240.401415 80.804908 
L 245.202885 79.951314 
L 250.004354 67.567525 
L 254.805823 79.191081 
L 259.607292 65.678058 
L 264.408761 65.773643 
L 269.210231 65.591365 
L 274.0117 60.86992 
L 278.813169 59.078261 
L 283.614638 62.005823 
L 288.416108 59.949639 
L 293.217577 57.448873 
L 298.019046 53.827766 
L 302.820515 50.455623 
L 307.621985 49.793198 
L 312.423454 51.860497 
L 317.224923 52.322861 
L 322.026392 50.837962 
L 326.827862 51.058029 
L 331.629331 47.679218 
L 336.4308 46.149861 
L 341.232269 46.761159 
L 346.033739 46.910094 
L 350.835208 49.117436 
L 355.636677 46.854521 
L 360.438146 46.349922 
L 365.239615 45.087314 
L 370.041085 45.165115 
L 374.842554 47.085703 
L 379.644023 45.751961 
L 384.445492 47.492494 
L 389.246962 45.5519 
L 394.048431 45.27626 
L 398.8499 44.342641 
L 403.651369 46.60111 
L 408.452839 45.065085 
L 413.254308 44.447118 
L 418.055777 44.21149 
L 422.857246 42.917761 
L 427.658716 41.777412 
L 432.460185 44.064779 
L 437.261654 46.507748 
L 442.063123 44.427112 
L 446.864593 45.58969 
L 451.666062 47.49694 
L 456.467531 46.163198 
L 461.269 45.016181 
L 466.070469 45.051747 
L 470.871939 45.178453 
L 475.673408 44.389322 
L 480.474877 45.118434 
L 485.276346 46.167644 
L 490.077816 43.97364 
L 494.879285 46.043162 
L 499.680754 45.209573 
L 504.482223 43.415691 
L 509.283693 45.609696 
L 514.085162 46.496634 
L 518.886631 44.711643 
L 523.6881 44.118128 
L 528.48957 42.80217 
L 533.291039 44.095899 
L 538.092508 44.309298 
L 542.893977 45.53634 
" clip-path="url(#p6f814dde7e)" style="fill: none; stroke: #0000ff; stroke-width: 2; stroke-linecap: square"/>
   </g>
   <g id="line2d_31">
    <path d="M 67.548523 361.673064 
L 72.349992 359.547969 
L 77.151461 358.923334 
L 81.95293 356.853812 
L 86.7544 344.616734 
L 91.555869 355.57342 
L 96.357338 354.319703 
L 101.158807 350.282912 
L 105.960277 345.288051 
L 110.761746 342.558327 
L 115.563215 336.11191 
L 120.364684 329.950025 
L 125.166154 313.669488 
L 129.967623 313.055967 
L 134.769092 301.912558 
L 139.570561 279.665751 
L 144.372031 263.189599 
L 149.1735 254.209074 
L 153.974969 245.859852 
L 158.776438 230.617411 
L 163.577907 223.032868 
L 168.379377 214.901492 
L 173.180846 206.225504 
L 177.982315 190.316192 
L 182.783784 178.648177 
L 187.585254 154.972045 
L 192.386723 151.733276 
L 197.188192 138.458103 
L 201.989661 130.68906 
L 206.791131 121.079453 
L 211.5926 109.584825 
L 216.394069 121.995289 
L 221.195538 112.572406 
L 225.997008 94.631361 
L 230.798477 97.959046 
L 235.599946 93.38209 
L 240.401415 80.804908 
L 245.202885 79.951314 
L 250.004354 67.567525 
L 254.805823 79.191081 
L 259.607292 65.678058 
L 264.408761 65.773643 
L 269.210231 65.591365 
L 274.0117 60.86992 
L 278.813169 59.078261 
L 283.614638 62.005823 
L 288.416108 59.949639 
L 293.217577 57.448873 
L 298.019046 53.827766 
L 302.820515 50.455623 
L 307.621985 49.793198 
L 312.423454 51.860497 
L 317.224923 52.322861 
L 322.026392 50.837962 
L 326.827862 51.058029 
L 331.629331 47.679218 
L 336.4308 46.149861 
L 341.232269 46.761159 
L 346.033739 46.910094 
L 350.835208 49.117436 
L 355.636677 46.854521 
L 360.438146 46.349922 
L 365.239615 45.087314 
L 370.041085 45.165115 
L 374.842554 47.085703 
L 379.644023 45.751961 
L 384.445492 47.492494 
L 389.246962 45.5519 
L 394.048431 45.27626 
L 398.8499 44.342641 
L 403.651369 46.60111 
L 408.452839 45.065085 
L 413.254308 44.447118 
L 418.055777 44.21149 
L 422.857246 42.917761 
L 427.658716 41.777412 
L 432.460185 44.064779 
L 437.261654 46.507748 
L 442.063123 44.427112 
L 446.864593 45.58969 
L 451.666062 47.49694 
L 456.467531 46.163198 
L 461.269 45.016181 
L 466.070469 45.051747 
L 470.871939 45.178453 
L 475.673408 44.389322 
L 480.474877 45.118434 
L 485.276346 46.167644 
L 490.077816 43.97364 
L 494.879285 46.043162 
L 499.680754 45.209573 
L 504.482223 43.415691 
L 509.283693 45.609696 
L 514.085162 46.496634 
L 518.886631 44.711643 
L 523.6881 44.118128 
L 528.48957 42.80217 
L 533.291039 44.095899 
L 538.092508 44.309298 
L 542.893977 45.53634 
" clip-path="url(#p6f814dde7e)" style="fill: none; stroke: #00ffff; stroke-width: 2; stroke-linecap: square"/>
   </g>
   <g id="line2d_32">
    <path d="M 67.548523 349.945031 
L 72.349992 340.433232 
L 77.151461 323.539174 
L 81.95293 302.430494 
L 86.7544 275.769003 
L 91.555869 256.398632 
L 96.357338 243.199038 
L 101.158807 229.739365 
L 105.960277 214.559165 
L 110.761746 197.356123 
L 115.563215 182.48713 
L 120.364684 167.051296 
L 125.166154 153.040343 
L 129.967623 142.139229 
L 134.769092 134.407975 
L 139.570561 128.24609 
L 144.372031 122.255368 
L 149.1735 118.874334 
L 153.974969 115.989006 
L 158.776438 112.083367 
L 163.577907 107.357477 
L 168.379377 103.356252 
L 173.180846 99.188311 
L 177.982315 94.735837 
L 182.783784 91.26811 
L 187.585254 88.309427 
L 192.386723 84.410456 
L 197.188192 80.244737 
L 201.989661 75.852282 
L 206.791131 71.908853 
L 211.5926 69.201358 
L 216.394069 65.237923 
L 221.195538 61.801316 
L 225.997008 59.193852 
L 230.798477 56.181819 
L 235.599946 55.586081 
L 240.401415 55.392689 
L 245.202885 56.308525 
L 250.004354 56.761997 
L 254.805823 56.484134 
L 259.607292 55.810594 
L 264.408761 54.712481 
L 269.210231 54.112297 
L 274.0117 53.434312 
L 278.813169 52.889701 
L 283.614638 52.27618 
L 288.416108 51.013571 
L 293.217577 49.188568 
L 298.019046 48.139359 
L 302.820515 46.974558 
L 307.621985 46.261006 
L 312.423454 45.778636 
L 317.224923 45.749738 
L 322.026392 45.169561 
L 326.827862 44.547148 
L 331.629331 44.062556 
L 336.4308 43.726897 
L 341.232269 43.471264 
L 346.033739 43.268979 
L 350.835208 42.884417 
L 355.636677 42.655458 
L 360.438146 42.419831 
L 365.239615 42.084173 
L 370.041085 41.69961 
L 374.842554 41.419525 
L 379.644023 41.046077 
L 384.445492 40.7571 
L 389.246962 40.499243 
L 394.048431 40.312519 
L 398.8499 40.223603 
L 403.651369 40.176922 
L 408.452839 40.134687 
L 413.254308 40.119127 
L 418.055777 40.123573 
L 422.857246 40.116904 
L 427.658716 40.085783 
L 432.460185 40.039102 
L 437.261654 40.005759 
L 442.063123 39.939072 
L 446.864593 39.823481 
L 451.666062 39.719004 
L 456.467531 39.607859 
L 461.269 39.536726 
L 466.070469 39.510052 
L 470.871939 39.50116 
L 475.673408 39.44781 
L 480.474877 39.401129 
L 485.276346 39.36334 
L 490.077816 39.338888 
L 494.879285 39.318882 
L 499.680754 39.263309 
L 504.482223 39.232189 
L 509.283693 39.1944 
L 514.085162 39.158833 
L 518.886631 39.149941 
L 523.6881 39.14105 
L 528.48957 39.134381 
L 533.291039 39.129935 
L 538.092508 39.12549 
L 542.893977 39.112152 
" clip-path="url(#p6f814dde7e)" style="fill: none; stroke: #008000; stroke-width: 2; stroke-linecap: square"/>
   </g>
   <g id="line2d_33">
    <path d="M 67.548523 349.04031 
L 72.349992 336.349761 
L 77.151461 320.438226 
L 81.95293 298.464836 
L 86.7544 277.714043 
L 91.555869 253.711143 
L 96.357338 235.034318 
L 101.158807 216.942116 
L 105.960277 199.792424 
L 110.761746 182.351533 
L 115.563215 163.492429 
L 120.364684 148.505622 
L 125.166154 132.309555 
L 129.967623 119.158865 
L 134.769092 110.38507 
L 139.570561 105.825897 
L 144.372031 100.246412 
L 149.1735 94.580234 
L 153.974969 90.045513 
L 158.776438 87.217982 
L 163.577907 86.651141 
L 168.379377 86.15988 
L 173.180846 84.163714 
L 177.982315 82.252018 
L 182.783784 80.669311 
L 187.585254 78.90655 
L 192.386723 77.75064 
L 197.188192 75.874511 
L 201.989661 73.038088 
L 206.791131 70.270574 
L 211.5926 67.563079 
L 216.394069 64.739993 
L 221.195538 62.04139 
L 225.997008 58.157979 
L 230.798477 54.732487 
L 235.599946 53.434312 
L 240.401415 52.467349 
L 245.202885 51.413694 
L 250.004354 50.769052 
L 254.805823 50.706811 
L 259.607292 50.266676 
L 264.408761 49.444202 
L 269.210231 48.675078 
L 274.0117 47.963749 
L 278.813169 47.116823 
L 283.614638 46.232108 
L 288.416108 45.616364 
L 293.217577 45.229579 
L 298.019046 44.822788 
L 302.820515 44.580492 
L 307.621985 44.162586 
L 312.423454 43.726897 
L 317.224923 43.651319 
L 322.026392 43.404577 
L 326.827862 43.16228 
L 331.629331 42.835514 
L 336.4308 42.559874 
L 341.232269 42.35759 
L 346.033739 42.084173 
L 350.835208 41.792972 
L 355.636677 41.346169 
L 360.438146 41.066083 
L 365.239615 40.806004 
L 370.041085 40.539255 
L 374.842554 40.345863 
L 379.644023 40.232495 
L 384.445492 40.143579 
L 389.246962 40.019096 
L 394.048431 39.89906 
L 398.8499 39.79236 
L 403.651369 39.712336 
L 408.452839 39.636757 
L 413.254308 39.527835 
L 418.055777 39.4856 
L 422.857246 39.467817 
L 427.658716 39.43225 
L 432.460185 39.392238 
L 437.261654 39.401129 
L 442.063123 39.443365 
L 446.864593 39.474485 
L 451.666062 39.494491 
L 456.467531 39.525612 
L 461.269 39.536726 
L 466.070469 39.518943 
L 470.871939 39.443365 
L 475.673408 39.367786 
L 480.474877 39.376678 
L 485.276346 39.403352 
L 490.077816 39.412244 
L 494.879285 39.436696 
L 499.680754 39.43225 
L 504.482223 39.423358 
L 509.283693 39.41669 
L 514.085162 39.414467 
L 518.886631 39.421136 
L 523.6881 39.467817 
L 528.48957 39.496714 
L 533.291039 39.498937 
L 538.092508 39.490046 
L 542.893977 39.43225 
" clip-path="url(#p6f814dde7e)" style="fill: none; stroke: #ffa500; stroke-width: 2; stroke-linecap: square"/>
   </g>
   <g id="line2d_34">
    <path d="M 67.548523 332.392994 
L 72.349992 294.992663 
L 77.151461 272.550241 
L 81.95293 258.410359 
L 86.7544 234.876492 
L 91.555869 227.489787 
L 96.357338 214.170157 
L 101.158807 202.319864 
L 105.960277 174.177921 
L 110.761746 146.958482 
L 115.563215 121.664076 
L 120.364684 103.187312 
L 125.166154 86.882323 
L 129.967623 75.578865 
L 134.769092 66.731714 
L 139.570561 62.503753 
L 144.372031 54.330142 
L 149.1735 44.273731 
L 153.974969 39.678992 
L 158.776438 38.854295 
L 163.577907 38.825398 
L 168.379377 38.825398 
L 173.180846 38.825398 
L 177.982315 38.825398 
L 182.783784 38.825398 
L 187.585254 38.825398 
L 192.386723 38.825398 
L 197.188192 38.825398 
L 201.989661 38.825398 
L 206.791131 38.825398 
L 211.5926 38.825398 
L 216.394069 38.825398 
L 221.195538 38.825398 
L 225.997008 38.825398 
L 230.798477 38.825398 
L 235.599946 38.825398 
L 240.401415 38.825398 
L 245.202885 38.825398 
L 250.004354 38.825398 
L 254.805823 38.825398 
L 259.607292 38.825398 
L 264.408761 38.825398 
L 269.210231 38.825398 
L 274.0117 38.825398 
L 278.813169 38.825398 
L 283.614638 38.825398 
L 288.416108 38.825398 
L 293.217577 38.825398 
L 298.019046 38.825398 
L 302.820515 38.825398 
L 307.621985 38.825398 
L 312.423454 38.825398 
L 317.224923 38.825398 
L 322.026392 38.825398 
L 326.827862 38.825398 
L 331.629331 38.825398 
L 336.4308 38.825398 
L 341.232269 38.825398 
L 346.033739 38.825398 
L 350.835208 38.825398 
L 355.636677 38.825398 
L 360.438146 38.825398 
L 365.239615 38.825398 
L 370.041085 38.825398 
L 374.842554 38.825398 
L 379.644023 38.825398 
L 384.445492 38.825398 
L 389.246962 38.825398 
L 394.048431 38.825398 
L 398.8499 38.825398 
L 403.651369 38.825398 
L 408.452839 38.825398 
L 413.254308 38.825398 
L 418.055777 38.825398 
L 422.857246 38.825398 
L 427.658716 38.825398 
L 432.460185 38.825398 
L 437.261654 38.825398 
L 442.063123 38.825398 
L 446.864593 38.825398 
L 451.666062 38.825398 
L 456.467531 38.825398 
L 461.269 38.825398 
L 466.070469 38.825398 
L 470.871939 38.825398 
L 475.673408 38.825398 
L 480.474877 38.825398 
L 485.276346 38.825398 
L 490.077816 38.825398 
L 494.879285 38.825398 
L 499.680754 38.825398 
L 504.482223 38.825398 
L 509.283693 38.825398 
L 514.085162 38.825398 
L 518.886631 38.825398 
L 523.6881 38.825398 
L 528.48957 38.825398 
L 533.291039 38.825398 
L 538.092508 38.825398 
L 542.893977 38.825398 
" clip-path="url(#p6f814dde7e)" style="fill: none; stroke: #ff0000; stroke-width: 2; stroke-linecap: square"/>
   </g>
   <g id="line2d_35">
    <path d="M 67.548523 363.122396 
L 72.349992 363.260216 
L 77.151461 362.055403 
L 81.95293 362.906775 
L 86.7544 357.078325 
L 91.555869 363.322457 
L 96.357338 363.602543 
L 101.158807 363.460277 
L 105.960277 363.65367 
L 110.761746 362.548887 
L 115.563215 361.090664 
L 120.364684 360.09258 
L 125.166154 359.703572 
L 129.967623 358.745502 
L 134.769092 355.604541 
L 139.570561 355.886849 
L 144.372031 353.970707 
L 149.1735 352.985962 
L 153.974969 347.4087 
L 158.776438 345.821547 
L 163.577907 343.70979 
L 168.379377 342.376049 
L 173.180846 335.13161 
L 177.982315 334.958224 
L 182.783784 327.098041 
L 187.585254 319.404576 
L 192.386723 310.012814 
L 197.188192 300.596599 
L 201.989661 284.636161 
L 206.791131 275.551159 
L 211.5926 273.486083 
L 216.394069 253.76227 
L 221.195538 241.016148 
L 225.997008 231.055323 
L 230.798477 216.388613 
L 235.599946 198.554268 
L 240.401415 193.441592 
L 245.202885 187.273038 
L 250.004354 181.913621 
L 254.805823 165.061798 
L 259.607292 164.637224 
L 264.408761 159.915779 
L 269.210231 145.793681 
L 274.0117 141.696872 
L 278.813169 140.236425 
L 283.614638 135.439402 
L 288.416108 125.065117 
L 293.217577 118.329723 
L 298.019046 117.264952 
L 302.820515 111.436502 
L 307.621985 104.263197 
L 312.423454 120.394799 
L 317.224923 109.904923 
L 322.026392 103.843068 
L 326.827862 103.200649 
L 331.629331 89.454221 
L 336.4308 88.167161 
L 341.232269 85.141791 
L 346.033739 80.931614 
L 350.835208 83.876959 
L 355.636677 78.933225 
L 360.438146 75.045368 
L 365.239615 81.829666 
L 370.041085 74.367383 
L 374.842554 64.748885 
L 379.644023 58.551433 
L 384.445492 56.790894 
L 389.246962 58.493638 
L 394.048431 53.123106 
L 398.8499 51.220301 
L 403.651369 51.487049 
L 408.452839 50.557876 
L 413.254308 51.022463 
L 418.055777 49.226358 
L 422.857246 50.504527 
L 427.658716 51.53373 
L 432.460185 52.260619 
L 437.261654 50.471183 
L 442.063123 46.603333 
L 446.864593 48.721759 
L 451.666062 50.24667 
L 456.467531 50.019934 
L 461.269 48.717313 
L 466.070469 49.839879 
L 470.871939 51.144722 
L 475.673408 49.822096 
L 480.474877 46.747822 
L 485.276346 46.492188 
L 490.077816 46.236554 
L 494.879285 48.068226 
L 499.680754 45.449647 
L 504.482223 45.047301 
L 509.283693 45.703058 
L 514.085162 48.859579 
L 518.886631 50.042163 
L 523.6881 46.934545 
L 528.48957 45.709726 
L 533.291039 47.585856 
L 538.092508 46.781165 
L 542.893977 47.301324 
" clip-path="url(#p6f814dde7e)" style="fill: none; stroke: #ff00ff; stroke-width: 2; stroke-linecap: square"/>
   </g>
   <g id="patch_3">
    <path d="M 43.78125 385.478125 
L 43.78125 22.318125 
" style="fill: none; stroke: #000000; stroke-width: 0.8; stroke-linejoin: miter; stroke-linecap: square"/>
   </g>
   <g id="patch_4">
    <path d="M 566.66125 385.478125 
L 566.66125 22.318125 
" style="fill: none; stroke: #000000; stroke-width: 0.8; stroke-linejoin: miter; stroke-linecap: square"/>
   </g>
   <g id="patch_5">
    <path d="M 43.78125 385.478125 
L 566.66125 385.478125 
" style="fill: none; stroke: #000000; stroke-width: 0.8; stroke-linejoin: miter; stroke-linecap: square"/>
   </g>
   <g id="patch_6">
    <path d="M 43.78125 22.318125 
L 566.66125 22.318125 
" style="fill: none; stroke: #000000; stroke-width: 0.8; stroke-linejoin: miter; stroke-linecap: square"/>
   </g>
   <g id="text_17">
    <!-- Accuracy Comparison - mhealth -->
    <g transform="translate(209.180937 16.318125) scale(0.12 -0.12)">
     <defs>
      <path id="DejaVuSans-70" d="M 1159 525 
L 1159 -1331 
L 581 -1331 
L 581 3500 
L 1159 3500 
L 1159 2969 
Q 1341 3281 1617 3432 
Q 1894 3584 2278 3584 
Q 2916 3584 3314 3078 
Q 3713 2572 3713 1747 
Q 3713 922 3314 415 
Q 2916 -91 2278 -91 
Q 1894 -91 1617 61 
Q 1341 213 1159 525 
z
M 3116 1747 
Q 3116 2381 2855 2742 
Q 2594 3103 2138 3103 
Q 1681 3103 1420 2742 
Q 1159 2381 1159 1747 
Q 1159 1113 1420 752 
Q 1681 391 2138 391 
Q 2594 391 2855 752 
Q 3116 1113 3116 1747 
z
" transform="scale(0.015625)"/>
      <path id="DejaVuSans-2d" d="M 313 2009 
L 1997 2009 
L 1997 1497 
L 313 1497 
L 313 2009 
z
" transform="scale(0.015625)"/>
      <path id="DejaVuSans-68" d="M 3513 2113 
L 3513 0 
L 2938 0 
L 2938 2094 
Q 2938 2591 2744 2837 
Q 2550 3084 2163 3084 
Q 1697 3084 1428 2787 
Q 1159 2491 1159 1978 
L 1159 0 
L 581 0 
L 581 4863 
L 1159 4863 
L 1159 2956 
Q 1366 3272 1645 3428 
Q 1925 3584 2291 3584 
Q 2894 3584 3203 3211 
Q 3513 2838 3513 2113 
z
" transform="scale(0.015625)"/>
      <path id="DejaVuSans-65" d="M 3597 1894 
L 3597 1613 
L 953 1613 
Q 991 1019 1311 708 
Q 1631 397 2203 397 
Q 2534 397 2845 478 
Q 3156 559 3463 722 
L 3463 178 
Q 3153 47 2828 -22 
Q 2503 -91 2169 -91 
Q 1331 -91 842 396 
Q 353 884 353 1716 
Q 353 2575 817 3079 
Q 1281 3584 2069 3584 
Q 2775 3584 3186 3129 
Q 3597 2675 3597 1894 
z
M 3022 2063 
Q 3016 2534 2758 2815 
Q 2500 3097 2075 3097 
Q 1594 3097 1305 2825 
Q 1016 2553 972 2059 
L 3022 2063 
z
" transform="scale(0.015625)"/>
     </defs>
     <use xlink:href="#DejaVuSans-41"/>
     <use xlink:href="#DejaVuSans-63" x="66.658203"/>
     <use xlink:href="#DejaVuSans-63" x="121.638672"/>
     <use xlink:href="#DejaVuSans-75" x="176.619141"/>
     <use xlink:href="#DejaVuSans-72" x="239.998047"/>
     <use xlink:href="#DejaVuSans-61" x="281.111328"/>
     <use xlink:href="#DejaVuSans-63" x="342.390625"/>
     <use xlink:href="#DejaVuSans-79" x="397.371094"/>
     <use xlink:href="#DejaVuSans-20" x="456.550781"/>
     <use xlink:href="#DejaVuSans-43" x="488.337891"/>
     <use xlink:href="#DejaVuSans-6f" x="558.162109"/>
     <use xlink:href="#DejaVuSans-6d" x="619.34375"/>
     <use xlink:href="#DejaVuSans-70" x="716.755859"/>
     <use xlink:href="#DejaVuSans-61" x="780.232422"/>
     <use xlink:href="#DejaVuSans-72" x="841.511719"/>
     <use xlink:href="#DejaVuSans-69" x="882.625"/>
     <use xlink:href="#DejaVuSans-73" x="910.408203"/>
     <use xlink:href="#DejaVuSans-6f" x="962.507812"/>
     <use xlink:href="#DejaVuSans-6e" x="1023.689453"/>
     <use xlink:href="#DejaVuSans-20" x="1087.068359"/>
     <use xlink:href="#DejaVuSans-2d" x="1118.855469"/>
     <use xlink:href="#DejaVuSans-20" x="1154.939453"/>
     <use xlink:href="#DejaVuSans-6d" x="1186.726562"/>
     <use xlink:href="#DejaVuSans-68" x="1284.138672"/>
     <use xlink:href="#DejaVuSans-65" x="1347.517578"/>
     <use xlink:href="#DejaVuSans-61" x="1409.041016"/>
     <use xlink:href="#DejaVuSans-6c" x="1470.320312"/>
     <use xlink:href="#DejaVuSans-74" x="1498.103516"/>
     <use xlink:href="#DejaVuSans-68" x="1537.3125"/>
    </g>
   </g>
   <g id="legend_1">
    <g id="patch_7">
     <path d="M 483.120625 380.478125 
L 559.66125 380.478125 
Q 561.66125 380.478125 561.66125 378.478125 
L 561.66125 276.73125 
Q 561.66125 274.73125 559.66125 274.73125 
L 483.120625 274.73125 
Q 481.120625 274.73125 481.120625 276.73125 
L 481.120625 378.478125 
Q 481.120625 380.478125 483.120625 380.478125 
z
" style="fill: #ffffff; opacity: 0.8; stroke: #cccccc; stroke-linejoin: miter"/>
    </g>
    <g id="line2d_36">
     <path d="M 485.120625 282.829687 
L 495.120625 282.829687 
L 505.120625 282.829687 
" style="fill: none; stroke: #808080; stroke-width: 2; stroke-linecap: square"/>
    </g>
    <g id="text_18">
     <!-- Single -->
     <g transform="translate(513.120625 286.329687) scale(0.1 -0.1)">
      <defs>
       <path id="DejaVuSans-53" d="M 3425 4513 
L 3425 3897 
Q 3066 4069 2747 4153 
Q 2428 4238 2131 4238 
Q 1616 4238 1336 4038 
Q 1056 3838 1056 3469 
Q 1056 3159 1242 3001 
Q 1428 2844 1947 2747 
L 2328 2669 
Q 3034 2534 3370 2195 
Q 3706 1856 3706 1288 
Q 3706 609 3251 259 
Q 2797 -91 1919 -91 
Q 1588 -91 1214 -16 
Q 841 59 441 206 
L 441 856 
Q 825 641 1194 531 
Q 1563 422 1919 422 
Q 2459 422 2753 634 
Q 3047 847 3047 1241 
Q 3047 1584 2836 1778 
Q 2625 1972 2144 2069 
L 1759 2144 
Q 1053 2284 737 2584 
Q 422 2884 422 3419 
Q 422 4038 858 4394 
Q 1294 4750 2059 4750 
Q 2388 4750 2728 4690 
Q 3069 4631 3425 4513 
z
" transform="scale(0.015625)"/>
       <path id="DejaVuSans-67" d="M 2906 1791 
Q 2906 2416 2648 2759 
Q 2391 3103 1925 3103 
Q 1463 3103 1205 2759 
Q 947 2416 947 1791 
Q 947 1169 1205 825 
Q 1463 481 1925 481 
Q 2391 481 2648 825 
Q 2906 1169 2906 1791 
z
M 3481 434 
Q 3481 -459 3084 -895 
Q 2688 -1331 1869 -1331 
Q 1566 -1331 1297 -1286 
Q 1028 -1241 775 -1147 
L 775 -588 
Q 1028 -725 1275 -790 
Q 1522 -856 1778 -856 
Q 2344 -856 2625 -561 
Q 2906 -266 2906 331 
L 2906 616 
Q 2728 306 2450 153 
Q 2172 0 1784 0 
Q 1141 0 747 490 
Q 353 981 353 1791 
Q 353 2603 747 3093 
Q 1141 3584 1784 3584 
Q 2172 3584 2450 3431 
Q 2728 3278 2906 2969 
L 2906 3500 
L 3481 3500 
L 3481 434 
z
" transform="scale(0.015625)"/>
      </defs>
      <use xlink:href="#DejaVuSans-53"/>
      <use xlink:href="#DejaVuSans-69" x="63.476562"/>
      <use xlink:href="#DejaVuSans-6e" x="91.259766"/>
      <use xlink:href="#DejaVuSans-67" x="154.638672"/>
      <use xlink:href="#DejaVuSans-6c" x="218.115234"/>
      <use xlink:href="#DejaVuSans-65" x="245.898438"/>
     </g>
    </g>
    <g id="line2d_37">
     <path d="M 485.120625 297.507812 
L 495.120625 297.507812 
L 505.120625 297.507812 
" style="fill: none; stroke: #0000ff; stroke-width: 2; stroke-linecap: square"/>
    </g>
    <g id="text_19">
     <!-- FedAvg -->
     <g transform="translate(513.120625 301.007812) scale(0.1 -0.1)">
      <defs>
       <path id="DejaVuSans-46" d="M 628 4666 
L 3309 4666 
L 3309 4134 
L 1259 4134 
L 1259 2759 
L 3109 2759 
L 3109 2228 
L 1259 2228 
L 1259 0 
L 628 0 
L 628 4666 
z
" transform="scale(0.015625)"/>
       <path id="DejaVuSans-76" d="M 191 3500 
L 800 3500 
L 1894 563 
L 2988 3500 
L 3597 3500 
L 2284 0 
L 1503 0 
L 191 3500 
z
" transform="scale(0.015625)"/>
      </defs>
      <use xlink:href="#DejaVuSans-46"/>
      <use xlink:href="#DejaVuSans-65" x="52.019531"/>
      <use xlink:href="#DejaVuSans-64" x="113.542969"/>
      <use xlink:href="#DejaVuSans-41" x="177.019531"/>
      <use xlink:href="#DejaVuSans-76" x="239.552734"/>
      <use xlink:href="#DejaVuSans-67" x="298.732422"/>
     </g>
    </g>
    <g id="line2d_38">
     <path d="M 485.120625 312.185937 
L 495.120625 312.185937 
L 505.120625 312.185937 
" style="fill: none; stroke: #00ffff; stroke-width: 2; stroke-linecap: square"/>
    </g>
    <g id="text_20">
     <!-- FedProx -->
     <g transform="translate(513.120625 315.685937) scale(0.1 -0.1)">
      <defs>
       <path id="DejaVuSans-50" d="M 1259 4147 
L 1259 2394 
L 2053 2394 
Q 2494 2394 2734 2622 
Q 2975 2850 2975 3272 
Q 2975 3691 2734 3919 
Q 2494 4147 2053 4147 
L 1259 4147 
z
M 628 4666 
L 2053 4666 
Q 2838 4666 3239 4311 
Q 3641 3956 3641 3272 
Q 3641 2581 3239 2228 
Q 2838 1875 2053 1875 
L 1259 1875 
L 1259 0 
L 628 0 
L 628 4666 
z
" transform="scale(0.015625)"/>
       <path id="DejaVuSans-78" d="M 3513 3500 
L 2247 1797 
L 3578 0 
L 2900 0 
L 1881 1375 
L 863 0 
L 184 0 
L 1544 1831 
L 300 3500 
L 978 3500 
L 1906 2253 
L 2834 3500 
L 3513 3500 
z
" transform="scale(0.015625)"/>
      </defs>
      <use xlink:href="#DejaVuSans-46"/>
      <use xlink:href="#DejaVuSans-65" x="52.019531"/>
      <use xlink:href="#DejaVuSans-64" x="113.542969"/>
      <use xlink:href="#DejaVuSans-50" x="177.019531"/>
      <use xlink:href="#DejaVuSans-72" x="235.572266"/>
      <use xlink:href="#DejaVuSans-6f" x="274.435547"/>
      <use xlink:href="#DejaVuSans-78" x="332.492188"/>
     </g>
    </g>
    <g id="line2d_39">
     <path d="M 485.120625 326.864062 
L 495.120625 326.864062 
L 505.120625 326.864062 
" style="fill: none; stroke: #008000; stroke-width: 2; stroke-linecap: square"/>
    </g>
    <g id="text_21">
     <!-- FedProto -->
     <g transform="translate(513.120625 330.364062) scale(0.1 -0.1)">
      <use xlink:href="#DejaVuSans-46"/>
      <use xlink:href="#DejaVuSans-65" x="52.019531"/>
      <use xlink:href="#DejaVuSans-64" x="113.542969"/>
      <use xlink:href="#DejaVuSans-50" x="177.019531"/>
      <use xlink:href="#DejaVuSans-72" x="235.572266"/>
      <use xlink:href="#DejaVuSans-6f" x="274.435547"/>
      <use xlink:href="#DejaVuSans-74" x="335.617188"/>
      <use xlink:href="#DejaVuSans-6f" x="374.826172"/>
     </g>
    </g>
    <g id="line2d_40">
     <path d="M 485.120625 341.542187 
L 495.120625 341.542187 
L 505.120625 341.542187 
" style="fill: none; stroke: #ffa500; stroke-width: 2; stroke-linecap: square"/>
    </g>
    <g id="text_22">
     <!-- FedMEKT -->
     <g transform="translate(513.120625 345.042187) scale(0.1 -0.1)">
      <defs>
       <path id="DejaVuSans-4d" d="M 628 4666 
L 1569 4666 
L 2759 1491 
L 3956 4666 
L 4897 4666 
L 4897 0 
L 4281 0 
L 4281 4097 
L 3078 897 
L 2444 897 
L 1241 4097 
L 1241 0 
L 628 0 
L 628 4666 
z
" transform="scale(0.015625)"/>
       <path id="DejaVuSans-45" d="M 628 4666 
L 3578 4666 
L 3578 4134 
L 1259 4134 
L 1259 2753 
L 3481 2753 
L 3481 2222 
L 1259 2222 
L 1259 531 
L 3634 531 
L 3634 0 
L 628 0 
L 628 4666 
z
" transform="scale(0.015625)"/>
       <path id="DejaVuSans-4b" d="M 628 4666 
L 1259 4666 
L 1259 2694 
L 3353 4666 
L 4166 4666 
L 1850 2491 
L 4331 0 
L 3500 0 
L 1259 2247 
L 1259 0 
L 628 0 
L 628 4666 
z
" transform="scale(0.015625)"/>
       <path id="DejaVuSans-54" d="M -19 4666 
L 3928 4666 
L 3928 4134 
L 2272 4134 
L 2272 0 
L 1638 0 
L 1638 4134 
L -19 4134 
L -19 4666 
z
" transform="scale(0.015625)"/>
      </defs>
      <use xlink:href="#DejaVuSans-46"/>
      <use xlink:href="#DejaVuSans-65" x="52.019531"/>
      <use xlink:href="#DejaVuSans-64" x="113.542969"/>
      <use xlink:href="#DejaVuSans-4d" x="177.019531"/>
      <use xlink:href="#DejaVuSans-45" x="263.298828"/>
      <use xlink:href="#DejaVuSans-4b" x="326.482422"/>
      <use xlink:href="#DejaVuSans-54" x="384.308594"/>
     </g>
    </g>
    <g id="line2d_41">
     <path d="M 485.120625 356.220312 
L 495.120625 356.220312 
L 505.120625 356.220312 
" style="fill: none; stroke: #ff0000; stroke-width: 2; stroke-linecap: square"/>
    </g>
    <g id="text_23">
     <!-- FedProp -->
     <g transform="translate(513.120625 359.720312) scale(0.1 -0.1)">
      <use xlink:href="#DejaVuSans-46"/>
      <use xlink:href="#DejaVuSans-65" x="52.019531"/>
      <use xlink:href="#DejaVuSans-64" x="113.542969"/>
      <use xlink:href="#DejaVuSans-50" x="177.019531"/>
      <use xlink:href="#DejaVuSans-72" x="235.572266"/>
      <use xlink:href="#DejaVuSans-6f" x="274.435547"/>
      <use xlink:href="#DejaVuSans-70" x="335.617188"/>
     </g>
    </g>
    <g id="line2d_42">
     <path d="M 485.120625 370.898438 
L 495.120625 370.898438 
L 505.120625 370.898438 
" style="fill: none; stroke: #ff00ff; stroke-width: 2; stroke-linecap: square"/>
    </g>
    <g id="text_24">
     <!-- FedDTG -->
     <g transform="translate(513.120625 374.398438) scale(0.1 -0.1)">
      <defs>
       <path id="DejaVuSans-44" d="M 1259 4147 
L 1259 519 
L 2022 519 
Q 2988 519 3436 956 
Q 3884 1394 3884 2338 
Q 3884 3275 3436 3711 
Q 2988 4147 2022 4147 
L 1259 4147 
z
M 628 4666 
L 1925 4666 
Q 3281 4666 3915 4102 
Q 4550 3538 4550 2338 
Q 4550 1131 3912 565 
Q 3275 0 1925 0 
L 628 0 
L 628 4666 
z
" transform="scale(0.015625)"/>
      </defs>
      <use xlink:href="#DejaVuSans-46"/>
      <use xlink:href="#DejaVuSans-65" x="52.019531"/>
      <use xlink:href="#DejaVuSans-64" x="113.542969"/>
      <use xlink:href="#DejaVuSans-44" x="177.019531"/>
      <use xlink:href="#DejaVuSans-54" x="254.021484"/>
      <use xlink:href="#DejaVuSans-47" x="315.105469"/>
     </g>
    </g>
   </g>
  </g>
  <g id="axes_2">
   <g id="patch_8">
    <path d="M 614.38125 385.478125 
L 1137.26125 385.478125 
L 1137.26125 22.318125 
L 614.38125 22.318125 
z
" style="fill: #ffffff"/>
   </g>
   <g id="matplotlib.axis_3">
    <g id="xtick_7">
     <g id="line2d_43">
      <path d="M 633.347053 385.478125 
L 633.347053 22.318125 
" clip-path="url(#p5749d1ecb5)" style="fill: none; stroke: #b0b0b0; stroke-opacity: 0.3; stroke-width: 0.8; stroke-linecap: square"/>
     </g>
     <g id="line2d_44">
      <g>
       <use xlink:href="#m1424360561" x="633.347053" y="385.478125" style="stroke: #000000; stroke-width: 0.8"/>
      </g>
     </g>
     <g id="text_25">
      <!-- 0 -->
      <g transform="translate(630.165803 400.076562) scale(0.1 -0.1)">
       <use xlink:href="#DejaVuSans-30"/>
      </g>
     </g>
    </g>
    <g id="xtick_8">
     <g id="line2d_45">
      <path d="M 729.376438 385.478125 
L 729.376438 22.318125 
" clip-path="url(#p5749d1ecb5)" style="fill: none; stroke: #b0b0b0; stroke-opacity: 0.3; stroke-width: 0.8; stroke-linecap: square"/>
     </g>
     <g id="line2d_46">
      <g>
       <use xlink:href="#m1424360561" x="729.376438" y="385.478125" style="stroke: #000000; stroke-width: 0.8"/>
      </g>
     </g>
     <g id="text_26">
      <!-- 20 -->
      <g transform="translate(723.013938 400.076562) scale(0.1 -0.1)">
       <use xlink:href="#DejaVuSans-32"/>
       <use xlink:href="#DejaVuSans-30" x="63.623047"/>
      </g>
     </g>
    </g>
    <g id="xtick_9">
     <g id="line2d_47">
      <path d="M 825.405823 385.478125 
L 825.405823 22.318125 
" clip-path="url(#p5749d1ecb5)" style="fill: none; stroke: #b0b0b0; stroke-opacity: 0.3; stroke-width: 0.8; stroke-linecap: square"/>
     </g>
     <g id="line2d_48">
      <g>
       <use xlink:href="#m1424360561" x="825.405823" y="385.478125" style="stroke: #000000; stroke-width: 0.8"/>
      </g>
     </g>
     <g id="text_27">
      <!-- 40 -->
      <g transform="translate(819.043323 400.076562) scale(0.1 -0.1)">
       <use xlink:href="#DejaVuSans-34"/>
       <use xlink:href="#DejaVuSans-30" x="63.623047"/>
      </g>
     </g>
    </g>
    <g id="xtick_10">
     <g id="line2d_49">
      <path d="M 921.435208 385.478125 
L 921.435208 22.318125 
" clip-path="url(#p5749d1ecb5)" style="fill: none; stroke: #b0b0b0; stroke-opacity: 0.3; stroke-width: 0.8; stroke-linecap: square"/>
     </g>
     <g id="line2d_50">
      <g>
       <use xlink:href="#m1424360561" x="921.435208" y="385.478125" style="stroke: #000000; stroke-width: 0.8"/>
      </g>
     </g>
     <g id="text_28">
      <!-- 60 -->
      <g transform="translate(915.072708 400.076562) scale(0.1 -0.1)">
       <use xlink:href="#DejaVuSans-36"/>
       <use xlink:href="#DejaVuSans-30" x="63.623047"/>
      </g>
     </g>
    </g>
    <g id="xtick_11">
     <g id="line2d_51">
      <path d="M 1017.464593 385.478125 
L 1017.464593 22.318125 
" clip-path="url(#p5749d1ecb5)" style="fill: none; stroke: #b0b0b0; stroke-opacity: 0.3; stroke-width: 0.8; stroke-linecap: square"/>
     </g>
     <g id="line2d_52">
      <g>
       <use xlink:href="#m1424360561" x="1017.464593" y="385.478125" style="stroke: #000000; stroke-width: 0.8"/>
      </g>
     </g>
     <g id="text_29">
      <!-- 80 -->
      <g transform="translate(1011.102093 400.076562) scale(0.1 -0.1)">
       <use xlink:href="#DejaVuSans-38"/>
       <use xlink:href="#DejaVuSans-30" x="63.623047"/>
      </g>
     </g>
    </g>
    <g id="xtick_12">
     <g id="line2d_53">
      <path d="M 1113.493977 385.478125 
L 1113.493977 22.318125 
" clip-path="url(#p5749d1ecb5)" style="fill: none; stroke: #b0b0b0; stroke-opacity: 0.3; stroke-width: 0.8; stroke-linecap: square"/>
     </g>
     <g id="line2d_54">
      <g>
       <use xlink:href="#m1424360561" x="1113.493977" y="385.478125" style="stroke: #000000; stroke-width: 0.8"/>
      </g>
     </g>
     <g id="text_30">
      <!-- 100 -->
      <g transform="translate(1103.950227 400.076562) scale(0.1 -0.1)">
       <use xlink:href="#DejaVuSans-31"/>
       <use xlink:href="#DejaVuSans-30" x="63.623047"/>
       <use xlink:href="#DejaVuSans-30" x="127.246094"/>
      </g>
     </g>
    </g>
    <g id="text_31">
     <!-- Communication Rounds -->
     <g transform="translate(816.398594 413.754687) scale(0.1 -0.1)">
      <use xlink:href="#DejaVuSans-43"/>
      <use xlink:href="#DejaVuSans-6f" x="69.824219"/>
      <use xlink:href="#DejaVuSans-6d" x="131.005859"/>
      <use xlink:href="#DejaVuSans-6d" x="228.417969"/>
      <use xlink:href="#DejaVuSans-75" x="325.830078"/>
      <use xlink:href="#DejaVuSans-6e" x="389.208984"/>
      <use xlink:href="#DejaVuSans-69" x="452.587891"/>
      <use xlink:href="#DejaVuSans-63" x="480.371094"/>
      <use xlink:href="#DejaVuSans-61" x="535.351562"/>
      <use xlink:href="#DejaVuSans-74" x="596.630859"/>
      <use xlink:href="#DejaVuSans-69" x="635.839844"/>
      <use xlink:href="#DejaVuSans-6f" x="663.623047"/>
      <use xlink:href="#DejaVuSans-6e" x="724.804688"/>
      <use xlink:href="#DejaVuSans-20" x="788.183594"/>
      <use xlink:href="#DejaVuSans-52" x="819.970703"/>
      <use xlink:href="#DejaVuSans-6f" x="884.953125"/>
      <use xlink:href="#DejaVuSans-75" x="946.134766"/>
      <use xlink:href="#DejaVuSans-6e" x="1009.513672"/>
      <use xlink:href="#DejaVuSans-64" x="1072.892578"/>
      <use xlink:href="#DejaVuSans-73" x="1136.369141"/>
     </g>
    </g>
   </g>
   <g id="matplotlib.axis_4">
    <g id="ytick_9">
     <g id="line2d_55">
      <path d="M 614.38125 380.046116 
L 1137.26125 380.046116 
" clip-path="url(#p5749d1ecb5)" style="fill: none; stroke: #b0b0b0; stroke-opacity: 0.3; stroke-width: 0.8; stroke-linecap: square"/>
     </g>
     <g id="line2d_56">
      <g>
       <use xlink:href="#m48281283e5" x="614.38125" y="380.046116" style="stroke: #000000; stroke-width: 0.8"/>
      </g>
     </g>
     <g id="text_32">
      <!-- 0.0 -->
      <g transform="translate(591.478125 383.845334) scale(0.1 -0.1)">
       <use xlink:href="#DejaVuSans-30"/>
       <use xlink:href="#DejaVuSans-2e" x="63.623047"/>
       <use xlink:href="#DejaVuSans-30" x="95.410156"/>
      </g>
     </g>
    </g>
    <g id="ytick_10">
     <g id="line2d_57">
      <path d="M 614.38125 320.595937 
L 1137.26125 320.595937 
" clip-path="url(#p5749d1ecb5)" style="fill: none; stroke: #b0b0b0; stroke-opacity: 0.3; stroke-width: 0.8; stroke-linecap: square"/>
     </g>
     <g id="line2d_58">
      <g>
       <use xlink:href="#m48281283e5" x="614.38125" y="320.595937" style="stroke: #000000; stroke-width: 0.8"/>
      </g>
     </g>
     <g id="text_33">
      <!-- 0.1 -->
      <g transform="translate(591.478125 324.395156) scale(0.1 -0.1)">
       <use xlink:href="#DejaVuSans-30"/>
       <use xlink:href="#DejaVuSans-2e" x="63.623047"/>
       <use xlink:href="#DejaVuSans-31" x="95.410156"/>
      </g>
     </g>
    </g>
    <g id="ytick_11">
     <g id="line2d_59">
      <path d="M 614.38125 261.145758 
L 1137.26125 261.145758 
" clip-path="url(#p5749d1ecb5)" style="fill: none; stroke: #b0b0b0; stroke-opacity: 0.3; stroke-width: 0.8; stroke-linecap: square"/>
     </g>
     <g id="line2d_60">
      <g>
       <use xlink:href="#m48281283e5" x="614.38125" y="261.145758" style="stroke: #000000; stroke-width: 0.8"/>
      </g>
     </g>
     <g id="text_34">
      <!-- 0.2 -->
      <g transform="translate(591.478125 264.944977) scale(0.1 -0.1)">
       <use xlink:href="#DejaVuSans-30"/>
       <use xlink:href="#DejaVuSans-2e" x="63.623047"/>
       <use xlink:href="#DejaVuSans-32" x="95.410156"/>
      </g>
     </g>
    </g>
    <g id="ytick_12">
     <g id="line2d_61">
      <path d="M 614.38125 201.69558 
L 1137.26125 201.69558 
" clip-path="url(#p5749d1ecb5)" style="fill: none; stroke: #b0b0b0; stroke-opacity: 0.3; stroke-width: 0.8; stroke-linecap: square"/>
     </g>
     <g id="line2d_62">
      <g>
       <use xlink:href="#m48281283e5" x="614.38125" y="201.69558" style="stroke: #000000; stroke-width: 0.8"/>
      </g>
     </g>
     <g id="text_35">
      <!-- 0.3 -->
      <g transform="translate(591.478125 205.494799) scale(0.1 -0.1)">
       <use xlink:href="#DejaVuSans-30"/>
       <use xlink:href="#DejaVuSans-2e" x="63.623047"/>
       <use xlink:href="#DejaVuSans-33" x="95.410156"/>
      </g>
     </g>
    </g>
    <g id="ytick_13">
     <g id="line2d_63">
      <path d="M 614.38125 142.245401 
L 1137.26125 142.245401 
" clip-path="url(#p5749d1ecb5)" style="fill: none; stroke: #b0b0b0; stroke-opacity: 0.3; stroke-width: 0.8; stroke-linecap: square"/>
     </g>
     <g id="line2d_64">
      <g>
       <use xlink:href="#m48281283e5" x="614.38125" y="142.245401" style="stroke: #000000; stroke-width: 0.8"/>
      </g>
     </g>
     <g id="text_36">
      <!-- 0.4 -->
      <g transform="translate(591.478125 146.04462) scale(0.1 -0.1)">
       <use xlink:href="#DejaVuSans-30"/>
       <use xlink:href="#DejaVuSans-2e" x="63.623047"/>
       <use xlink:href="#DejaVuSans-34" x="95.410156"/>
      </g>
     </g>
    </g>
    <g id="ytick_14">
     <g id="line2d_65">
      <path d="M 614.38125 82.795223 
L 1137.26125 82.795223 
" clip-path="url(#p5749d1ecb5)" style="fill: none; stroke: #b0b0b0; stroke-opacity: 0.3; stroke-width: 0.8; stroke-linecap: square"/>
     </g>
     <g id="line2d_66">
      <g>
       <use xlink:href="#m48281283e5" x="614.38125" y="82.795223" style="stroke: #000000; stroke-width: 0.8"/>
      </g>
     </g>
     <g id="text_37">
      <!-- 0.5 -->
      <g transform="translate(591.478125 86.594442) scale(0.1 -0.1)">
       <use xlink:href="#DejaVuSans-30"/>
       <use xlink:href="#DejaVuSans-2e" x="63.623047"/>
       <use xlink:href="#DejaVuSans-35" x="95.410156"/>
      </g>
     </g>
    </g>
    <g id="ytick_15">
     <g id="line2d_67">
      <path d="M 614.38125 23.345044 
L 1137.26125 23.345044 
" clip-path="url(#p5749d1ecb5)" style="fill: none; stroke: #b0b0b0; stroke-opacity: 0.3; stroke-width: 0.8; stroke-linecap: square"/>
     </g>
     <g id="line2d_68">
      <g>
       <use xlink:href="#m48281283e5" x="614.38125" y="23.345044" style="stroke: #000000; stroke-width: 0.8"/>
      </g>
     </g>
     <g id="text_38">
      <!-- 0.6 -->
      <g transform="translate(591.478125 27.144263) scale(0.1 -0.1)">
       <use xlink:href="#DejaVuSans-30"/>
       <use xlink:href="#DejaVuSans-2e" x="63.623047"/>
       <use xlink:href="#DejaVuSans-36" x="95.410156"/>
      </g>
     </g>
    </g>
    <g id="text_39">
     <!-- Global F1 Score -->
     <g transform="translate(585.398438 243.085625) rotate(-90) scale(0.1 -0.1)">
      <use xlink:href="#DejaVuSans-47"/>
      <use xlink:href="#DejaVuSans-6c" x="77.490234"/>
      <use xlink:href="#DejaVuSans-6f" x="105.273438"/>
      <use xlink:href="#DejaVuSans-62" x="166.455078"/>
      <use xlink:href="#DejaVuSans-61" x="229.931641"/>
      <use xlink:href="#DejaVuSans-6c" x="291.210938"/>
      <use xlink:href="#DejaVuSans-20" x="318.994141"/>
      <use xlink:href="#DejaVuSans-46" x="350.78125"/>
      <use xlink:href="#DejaVuSans-31" x="408.300781"/>
      <use xlink:href="#DejaVuSans-20" x="471.923828"/>
      <use xlink:href="#DejaVuSans-53" x="503.710938"/>
      <use xlink:href="#DejaVuSans-63" x="567.1875"/>
      <use xlink:href="#DejaVuSans-6f" x="622.167969"/>
      <use xlink:href="#DejaVuSans-72" x="683.349609"/>
      <use xlink:href="#DejaVuSans-65" x="722.212891"/>
     </g>
    </g>
   </g>
   <g id="line2d_69">
    <path d="M 638.148523 365.78922 
L 642.949992 345.539241 
L 647.751461 313.810148 
L 652.55293 267.540076 
L 657.3544 239.817154 
L 662.155869 207.545744 
L 666.957338 184.218593 
L 671.758807 168.25171 
L 676.560277 155.318741 
L 681.361746 144.292514 
L 686.163215 136.476479 
L 690.964684 131.900931 
L 695.766154 126.160199 
L 700.567623 121.170775 
L 705.369092 115.390513 
L 710.170561 111.054647 
L 714.972031 108.173052 
L 719.7735 105.187414 
L 724.574969 103.977436 
L 729.376438 101.892383 
L 734.177907 98.603667 
L 738.979377 95.46882 
L 743.780846 91.875862 
L 748.582315 88.776821 
L 753.383784 84.931824 
L 758.185254 81.567403 
L 762.986723 78.537378 
L 767.788192 76.587458 
L 772.589661 74.611876 
L 777.391131 73.811849 
L 782.1926 73.051877 
L 786.994069 71.359332 
L 791.795538 70.217448 
L 796.597008 68.928873 
L 801.398477 68.700565 
L 806.199946 68.190894 
L 811.001415 66.993921 
L 815.802885 66.973345 
L 820.604354 67.211368 
L 825.405823 66.163848 
L 830.207292 65.390832 
L 835.008761 65.2587 
L 839.810231 64.288696 
L 844.6117 62.701736 
L 849.413169 61.299257 
L 854.214638 59.97707 
L 859.016108 59.321808 
L 863.817577 58.714098 
L 868.619046 57.724206 
L 873.420515 56.639975 
L 878.221985 55.452491 
L 883.023454 54.447941 
L 887.824923 53.824057 
L 892.626392 53.301952 
L 897.427862 52.966675 
L 902.229331 52.405992 
L 907.0308 52.278356 
L 911.832269 51.500564 
L 916.633739 51.118652 
L 921.435208 50.656645 
L 926.236677 50.131712 
L 931.038146 49.485759 
L 935.839615 49.049624 
L 940.641085 48.810235 
L 945.442554 48.636117 
L 950.244023 48.347366 
L 955.045492 48.224989 
L 959.846962 48.015759 
L 964.648431 47.845059 
L 969.4499 47.565101 
L 974.251369 47.389632 
L 979.052839 47.242177 
L 983.854308 47.095573 
L 988.655777 47.116165 
L 993.457246 47.064463 
L 998.258716 46.791934 
L 1003.060185 46.342888 
L 1007.861654 45.994056 
L 1012.663123 45.81123 
L 1017.464593 45.599592 
L 1022.266062 45.453935 
L 1027.067531 45.336881 
L 1031.869 45.131754 
L 1036.670469 44.948453 
L 1041.471939 44.798105 
L 1046.273408 44.669509 
L 1051.074877 44.494373 
L 1055.876346 44.255762 
L 1060.677816 44.057557 
L 1065.479285 43.93846 
L 1070.280754 43.763502 
L 1075.082223 43.657878 
L 1079.883693 43.550153 
L 1084.685162 43.406084 
L 1089.486631 43.242005 
L 1094.2881 43.173694 
L 1099.08957 43.058035 
L 1103.891039 42.960245 
L 1108.692508 42.852255 
L 1113.493977 42.769574 
" clip-path="url(#p5749d1ecb5)" style="fill: none; stroke: #808080; stroke-width: 2; stroke-linecap: square"/>
   </g>
   <g id="line2d_70">
    <path d="M 638.148523 361.09471 
L 642.949992 357.932471 
L 647.751461 361.014077 
L 652.55293 360.445054 
L 657.3544 357.211323 
L 662.155869 357.597953 
L 666.957338 352.209675 
L 671.758807 341.751644 
L 676.560277 330.120625 
L 681.361746 324.308433 
L 686.163215 311.395948 
L 690.964684 299.365994 
L 695.766154 270.851556 
L 700.567623 270.25036 
L 705.369092 251.350525 
L 710.170561 217.966176 
L 714.972031 198.10127 
L 719.7735 186.728029 
L 724.574969 177.140901 
L 729.376438 160.225278 
L 734.177907 152.549352 
L 738.979377 145.011168 
L 743.780846 137.527492 
L 748.582315 126.074049 
L 753.383784 117.345093 
L 758.185254 101.852077 
L 762.986723 97.923906 
L 767.788192 90.626697 
L 772.589661 85.302244 
L 777.391131 79.449468 
L 782.1926 73.283344 
L 786.994069 81.47859 
L 791.795538 76.513192 
L 796.597008 65.961421 
L 801.398477 67.910439 
L 806.199946 65.254892 
L 811.001415 58.023379 
L 815.802885 58.720041 
L 820.604354 54.997958 
L 825.405823 60.51846 
L 830.207292 52.951072 
L 835.008761 53.636139 
L 839.810231 53.784187 
L 844.6117 50.821411 
L 849.413169 49.944585 
L 854.214638 51.691832 
L 859.016108 49.985912 
L 863.817577 49.159157 
L 868.619046 46.926592 
L 873.420515 45.124295 
L 878.221985 44.886964 
L 883.023454 45.981559 
L 887.824923 45.579661 
L 892.626392 44.746122 
L 897.427862 44.35749 
L 902.229331 43.045369 
L 907.0308 41.567875 
L 911.832269 42.455769 
L 916.633739 42.496385 
L 921.435208 43.336435 
L 926.236677 42.043428 
L 931.038146 42.160507 
L 935.839615 40.852473 
L 940.641085 41.416082 
L 945.442554 42.064984 
L 950.244023 42.154474 
L 955.045492 42.192883 
L 959.846962 41.440287 
L 964.648431 41.366215 
L 969.4499 41.119088 
L 974.251369 41.784712 
L 979.052839 40.381928 
L 983.854308 40.295301 
L 988.655777 40.232192 
L 993.457246 40.084752 
L 998.258716 41.645464 
L 1003.060185 40.565821 
L 1007.861654 40.969594 
L 1012.663123 40.225065 
L 1017.464593 40.599663 
L 1022.266062 41.141684 
L 1027.067531 40.970266 
L 1031.869 40.411666 
L 1036.670469 40.138181 
L 1041.471939 40.185971 
L 1046.273408 41.018133 
L 1051.074877 40.779965 
L 1055.876346 41.634143 
L 1060.677816 41.641277 
L 1065.479285 41.848525 
L 1070.280754 40.76352 
L 1075.082223 40.545538 
L 1079.883693 41.172139 
L 1084.685162 41.503331 
L 1089.486631 39.791772 
L 1094.2881 40.405716 
L 1099.08957 40.612375 
L 1103.891039 39.851635 
L 1108.692508 38.825398 
L 1113.493977 39.054519 
" clip-path="url(#p5749d1ecb5)" style="fill: none; stroke: #0000ff; stroke-width: 2; stroke-linecap: square"/>
   </g>
   <g id="line2d_71">
    <path d="M 638.148523 361.09471 
L 642.949992 357.932471 
L 647.751461 361.014077 
L 652.55293 360.445054 
L 657.3544 357.211323 
L 662.155869 357.597953 
L 666.957338 352.209675 
L 671.758807 341.751644 
L 676.560277 330.120625 
L 681.361746 324.308433 
L 686.163215 311.395948 
L 690.964684 299.365994 
L 695.766154 270.851556 
L 700.567623 270.25036 
L 705.369092 251.350525 
L 710.170561 217.966176 
L 714.972031 198.10127 
L 719.7735 186.728029 
L 724.574969 177.140901 
L 729.376438 160.225278 
L 734.177907 152.549352 
L 738.979377 145.011168 
L 743.780846 137.527492 
L 748.582315 126.074049 
L 753.383784 117.345093 
L 758.185254 101.852077 
L 762.986723 97.923906 
L 767.788192 90.626697 
L 772.589661 85.302244 
L 777.391131 79.449468 
L 782.1926 73.283344 
L 786.994069 81.47859 
L 791.795538 76.513192 
L 796.597008 65.961421 
L 801.398477 67.910439 
L 806.199946 65.254892 
L 811.001415 58.023379 
L 815.802885 58.720041 
L 820.604354 54.997958 
L 825.405823 60.51846 
L 830.207292 52.951072 
L 835.008761 53.636139 
L 839.810231 53.784187 
L 844.6117 50.821411 
L 849.413169 49.944585 
L 854.214638 51.691832 
L 859.016108 49.985912 
L 863.817577 49.159157 
L 868.619046 46.926592 
L 873.420515 45.124295 
L 878.221985 44.886964 
L 883.023454 45.981559 
L 887.824923 45.579661 
L 892.626392 44.746122 
L 897.427862 44.35749 
L 902.229331 43.045369 
L 907.0308 41.567875 
L 911.832269 42.455769 
L 916.633739 42.496385 
L 921.435208 43.336435 
L 926.236677 42.043428 
L 931.038146 42.160507 
L 935.839615 40.852473 
L 940.641085 41.416082 
L 945.442554 42.064984 
L 950.244023 42.154474 
L 955.045492 42.192883 
L 959.846962 41.440287 
L 964.648431 41.366215 
L 969.4499 41.119088 
L 974.251369 41.784712 
L 979.052839 40.381928 
L 983.854308 40.295301 
L 988.655777 40.232192 
L 993.457246 40.084752 
L 998.258716 41.645464 
L 1003.060185 40.565821 
L 1007.861654 40.969594 
L 1012.663123 40.225065 
L 1017.464593 40.599663 
L 1022.266062 41.141684 
L 1027.067531 40.970266 
L 1031.869 40.411666 
L 1036.670469 40.138181 
L 1041.471939 40.185971 
L 1046.273408 41.018133 
L 1051.074877 40.779965 
L 1055.876346 41.634143 
L 1060.677816 41.641277 
L 1065.479285 41.848525 
L 1070.280754 40.76352 
L 1075.082223 40.545538 
L 1079.883693 41.172139 
L 1084.685162 41.503331 
L 1089.486631 39.791772 
L 1094.2881 40.405716 
L 1099.08957 40.612375 
L 1103.891039 39.851635 
L 1108.692508 38.825398 
L 1113.493977 39.054519 
" clip-path="url(#p5749d1ecb5)" style="fill: none; stroke: #00ffff; stroke-width: 2; stroke-linecap: square"/>
   </g>
   <g id="line2d_72">
    <path d="M 638.148523 331.900196 
L 642.949992 312.839195 
L 647.751461 282.642326 
L 652.55293 248.169593 
L 657.3544 213.111714 
L 662.155869 189.805009 
L 666.957338 175.599515 
L 671.758807 162.451827 
L 676.560277 147.885312 
L 681.361746 132.21665 
L 686.163215 119.66739 
L 690.964684 107.29212 
L 695.766154 96.877315 
L 700.567623 89.306852 
L 705.369092 84.10675 
L 710.170561 80.189141 
L 714.972031 76.667577 
L 719.7735 74.331676 
L 724.574969 72.428133 
L 729.376438 70.250278 
L 734.177907 67.453911 
L 738.979377 65.053068 
L 743.780846 62.803604 
L 748.582315 60.43294 
L 753.383784 58.703257 
L 758.185254 57.285157 
L 762.986723 55.464836 
L 767.788192 53.644192 
L 772.589661 51.886482 
L 777.391131 50.265073 
L 782.1926 49.252239 
L 786.994069 48.390052 
L 791.795538 47.364379 
L 796.597008 48.010347 
L 801.398477 48.17047 
L 806.199946 47.942876 
L 811.001415 47.871904 
L 815.802885 48.288533 
L 820.604354 48.511175 
L 825.405823 48.438891 
L 830.207292 48.21941 
L 835.008761 47.842969 
L 839.810231 47.653451 
L 844.6117 47.470401 
L 849.413169 47.333666 
L 854.214638 47.131758 
L 859.016108 46.753238 
L 863.817577 46.0986 
L 868.619046 45.770447 
L 873.420515 45.354153 
L 878.221985 45.140101 
L 883.023454 44.992281 
L 887.824923 45.01442 
L 892.626392 44.783866 
L 897.427862 44.556583 
L 902.229331 44.421539 
L 907.0308 44.293748 
L 911.832269 44.17307 
L 916.633739 44.104802 
L 921.435208 43.987385 
L 926.236677 43.923113 
L 931.038146 43.829896 
L 935.839615 43.755918 
L 940.641085 43.610738 
L 945.442554 43.523001 
L 950.244023 43.405083 
L 955.045492 43.296591 
L 959.846962 43.180755 
L 964.648431 43.087528 
L 969.4499 43.040401 
L 974.251369 43.01643 
L 979.052839 42.994185 
L 983.854308 42.988599 
L 988.655777 42.98853 
L 993.457246 42.982789 
L 998.258716 42.965309 
L 1003.060185 42.940444 
L 1007.861654 42.92256 
L 1012.663123 42.88859 
L 1017.464593 42.848278 
L 1022.266062 42.805529 
L 1027.067531 42.766103 
L 1031.869 42.732269 
L 1036.670469 42.72285 
L 1041.471939 42.71941 
L 1046.273408 42.700693 
L 1051.074877 42.683251 
L 1055.876346 42.669283 
L 1060.677816 42.661385 
L 1065.479285 42.657934 
L 1070.280754 42.630712 
L 1075.082223 42.616048 
L 1079.883693 42.600184 
L 1084.685162 42.583817 
L 1089.486631 42.583118 
L 1094.2881 42.578801 
L 1099.08957 42.574884 
L 1103.891039 42.574083 
L 1108.692508 42.571472 
L 1113.493977 42.565448 
" clip-path="url(#p5749d1ecb5)" style="fill: none; stroke: #008000; stroke-width: 2; stroke-linecap: square"/>
   </g>
   <g id="line2d_73">
    <path d="M 638.148523 330.127388 
L 642.949992 304.912448 
L 647.751461 277.136312 
L 652.55293 242.395723 
L 657.3544 215.1088 
L 662.155869 186.651496 
L 666.957338 166.885149 
L 671.758807 149.90079 
L 676.560277 135.304935 
L 681.361746 121.549699 
L 686.163215 107.124681 
L 690.964684 95.927497 
L 695.766154 84.618775 
L 700.567623 75.944475 
L 705.369092 70.432472 
L 710.170561 67.664764 
L 714.972031 64.317223 
L 719.7735 61.128616 
L 724.574969 58.513214 
L 729.376438 56.81959 
L 734.177907 56.186425 
L 738.979377 55.845429 
L 743.780846 54.809768 
L 748.582315 53.798258 
L 753.383784 53.093471 
L 758.185254 52.337851 
L 762.986723 51.915183 
L 767.788192 51.282533 
L 772.589661 50.178294 
L 777.391131 49.107221 
L 782.1926 48.044281 
L 786.994069 47.542287 
L 791.795538 47.026907 
L 796.597008 48.046575 
L 801.398477 47.442095 
L 806.199946 46.992847 
L 811.001415 46.691755 
L 815.802885 46.478685 
L 820.604354 46.363317 
L 825.405823 46.400296 
L 830.207292 46.324213 
L 835.008761 46.110766 
L 839.810231 45.87592 
L 844.6117 45.664351 
L 849.413169 45.402138 
L 854.214638 45.064482 
L 859.016108 44.806686 
L 863.817577 44.650575 
L 868.619046 44.456456 
L 873.420515 44.355804 
L 878.221985 44.188269 
L 883.023454 44.006484 
L 887.824923 43.969173 
L 892.626392 43.873351 
L 897.427862 43.786848 
L 902.229331 43.679648 
L 907.0308 43.568184 
L 911.832269 43.488192 
L 916.633739 43.39893 
L 921.435208 43.293108 
L 926.236677 43.14781 
L 931.038146 43.064463 
L 935.839615 43.002045 
L 940.641085 42.938166 
L 945.442554 42.894786 
L 950.244023 42.877927 
L 955.045492 42.848862 
L 959.846962 42.813225 
L 964.648431 42.770307 
L 969.4499 42.728963 
L 974.251369 42.710577 
L 979.052839 42.686704 
L 983.854308 42.643164 
L 988.655777 42.640855 
L 993.457246 42.635797 
L 998.258716 42.622962 
L 1003.060185 42.612024 
L 1007.861654 42.611769 
L 1012.663123 42.62128 
L 1017.464593 42.630629 
L 1022.266062 42.634323 
L 1027.067531 42.652681 
L 1031.869 42.657437 
L 1036.670469 42.656855 
L 1041.471939 42.63299 
L 1046.273408 42.610143 
L 1051.074877 42.621693 
L 1055.876346 42.631107 
L 1060.677816 42.630043 
L 1065.479285 42.63995 
L 1070.280754 42.636428 
L 1075.082223 42.634792 
L 1079.883693 42.634466 
L 1084.685162 42.634057 
L 1089.486631 42.637087 
L 1094.2881 42.659198 
L 1099.08957 42.670826 
L 1103.891039 42.673038 
L 1108.692508 42.674106 
L 1113.493977 42.649948 
" clip-path="url(#p5749d1ecb5)" style="fill: none; stroke: #ffa500; stroke-width: 2; stroke-linecap: square"/>
   </g>
   <g id="line2d_74">
    <path d="M 638.148523 293.739552 
L 642.949992 240.271481 
L 647.751461 214.467245 
L 652.55293 197.46047 
L 657.3544 171.54732 
L 662.155869 164.39151 
L 666.957338 150.993262 
L 671.758807 140.294374 
L 676.560277 116.165172 
L 681.361746 94.654048 
L 686.163215 76.580025 
L 690.964684 65.310017 
L 695.766154 59.122919 
L 700.567623 53.92779 
L 705.369092 49.813765 
L 710.170561 48.151994 
L 714.972031 46.939456 
L 719.7735 45.198167 
L 724.574969 42.950123 
L 729.376438 42.508148 
L 734.177907 42.49119 
L 738.979377 42.49119 
L 743.780846 42.49119 
L 748.582315 42.49119 
L 753.383784 42.49119 
L 758.185254 42.49119 
L 762.986723 42.49119 
L 767.788192 42.49119 
L 772.589661 42.49119 
L 777.391131 42.49119 
L 782.1926 42.49119 
L 786.994069 42.49119 
L 791.795538 42.49119 
L 796.597008 42.49119 
L 801.398477 42.49119 
L 806.199946 42.49119 
L 811.001415 42.49119 
L 815.802885 42.49119 
L 820.604354 42.49119 
L 825.405823 42.49119 
L 830.207292 42.49119 
L 835.008761 42.49119 
L 839.810231 42.49119 
L 844.6117 42.49119 
L 849.413169 42.49119 
L 854.214638 42.49119 
L 859.016108 42.49119 
L 863.817577 42.49119 
L 868.619046 42.49119 
L 873.420515 42.49119 
L 878.221985 42.49119 
L 883.023454 42.49119 
L 887.824923 42.49119 
L 892.626392 42.49119 
L 897.427862 42.49119 
L 902.229331 42.49119 
L 907.0308 42.49119 
L 911.832269 42.49119 
L 916.633739 42.49119 
L 921.435208 42.49119 
L 926.236677 42.49119 
L 931.038146 42.49119 
L 935.839615 42.49119 
L 940.641085 42.49119 
L 945.442554 42.49119 
L 950.244023 42.49119 
L 955.045492 42.49119 
L 959.846962 42.49119 
L 964.648431 42.49119 
L 969.4499 42.49119 
L 974.251369 42.49119 
L 979.052839 42.49119 
L 983.854308 42.49119 
L 988.655777 42.49119 
L 993.457246 42.49119 
L 998.258716 42.49119 
L 1003.060185 42.49119 
L 1007.861654 42.49119 
L 1012.663123 42.49119 
L 1017.464593 42.49119 
L 1022.266062 42.49119 
L 1027.067531 42.49119 
L 1031.869 42.49119 
L 1036.670469 42.49119 
L 1041.471939 42.49119 
L 1046.273408 42.49119 
L 1051.074877 42.49119 
L 1055.876346 42.49119 
L 1060.677816 42.49119 
L 1065.479285 42.49119 
L 1070.280754 42.49119 
L 1075.082223 42.49119 
L 1079.883693 42.49119 
L 1084.685162 42.49119 
L 1089.486631 42.49119 
L 1094.2881 42.49119 
L 1099.08957 42.49119 
L 1103.891039 42.49119 
L 1108.692508 42.49119 
L 1113.493977 42.49119 
" clip-path="url(#p5749d1ecb5)" style="fill: none; stroke: #ff0000; stroke-width: 2; stroke-linecap: square"/>
   </g>
   <g id="line2d_75">
    <path d="M 638.148523 363.99076 
L 642.949992 366.050766 
L 647.751461 365.416087 
L 652.55293 368.628366 
L 657.3544 367.424059 
L 662.155869 368.970852 
L 666.957338 367.372459 
L 671.758807 366.235088 
L 676.560277 366.618031 
L 681.361746 363.32685 
L 686.163215 359.857006 
L 690.964684 358.026266 
L 695.766154 356.376327 
L 700.567623 352.798899 
L 705.369092 345.797592 
L 710.170561 345.220689 
L 714.972031 341.159674 
L 719.7735 338.532229 
L 724.574969 327.534922 
L 729.376438 323.359603 
L 734.177907 319.02957 
L 738.979377 316.725946 
L 743.780846 302.420825 
L 748.582315 302.178688 
L 753.383784 288.48863 
L 758.185254 275.589947 
L 762.986723 259.756759 
L 767.788192 245.443256 
L 772.589661 221.663139 
L 777.391131 209.969766 
L 782.1926 207.614695 
L 786.994069 183.157549 
L 791.795538 169.862577 
L 796.597008 160.585861 
L 801.398477 146.335983 
L 806.199946 130.456255 
L 811.001415 125.40751 
L 815.802885 120.898899 
L 820.604354 118.38069 
L 825.405823 107.578635 
L 830.207292 107.541708 
L 835.008761 104.199178 
L 839.810231 95.08602 
L 844.6117 92.642127 
L 849.413169 91.143963 
L 854.214638 89.116795 
L 859.016108 82.47318 
L 863.817577 78.566305 
L 868.619046 78.130896 
L 873.420515 74.816802 
L 878.221985 70.737081 
L 883.023454 80.964143 
L 887.824923 74.855478 
L 892.626392 71.7303 
L 897.427862 71.769253 
L 902.229331 63.261752 
L 907.0308 62.607994 
L 911.832269 61.004136 
L 916.633739 58.414511 
L 921.435208 60.015422 
L 926.236677 57.173302 
L 931.038146 55.327756 
L 935.839615 58.800928 
L 940.641085 54.600915 
L 945.442554 49.984633 
L 950.244023 46.707732 
L 955.045492 45.197975 
L 959.846962 45.47114 
L 964.648431 43.651179 
L 969.4499 42.469652 
L 974.251369 42.823352 
L 979.052839 42.267811 
L 983.854308 42.422542 
L 988.655777 42.042664 
L 993.457246 42.084205 
L 998.258716 43.358448 
L 1003.060185 42.809673 
L 1007.861654 42.363645 
L 1012.663123 41.325696 
L 1017.464593 42.302087 
L 1022.266062 41.844996 
L 1027.067531 42.048174 
L 1031.869 41.298984 
L 1036.670469 41.265334 
L 1041.471939 41.834151 
L 1046.273408 41.987682 
L 1051.074877 41.174106 
L 1055.876346 42.660501 
L 1060.677816 42.17245 
L 1065.479285 43.371878 
L 1070.280754 42.885623 
L 1075.082223 43.014864 
L 1079.883693 43.269731 
L 1084.685162 44.869532 
L 1089.486631 44.978042 
L 1094.2881 43.027683 
L 1099.08957 42.794865 
L 1103.891039 43.720751 
L 1108.692508 42.947079 
L 1113.493977 43.513277 
" clip-path="url(#p5749d1ecb5)" style="fill: none; stroke: #ff00ff; stroke-width: 2; stroke-linecap: square"/>
   </g>
   <g id="patch_9">
    <path d="M 614.38125 385.478125 
L 614.38125 22.318125 
" style="fill: none; stroke: #000000; stroke-width: 0.8; stroke-linejoin: miter; stroke-linecap: square"/>
   </g>
   <g id="patch_10">
    <path d="M 1137.26125 385.478125 
L 1137.26125 22.318125 
" style="fill: none; stroke: #000000; stroke-width: 0.8; stroke-linejoin: miter; stroke-linecap: square"/>
   </g>
   <g id="patch_11">
    <path d="M 614.38125 385.478125 
L 1137.26125 385.478125 
" style="fill: none; stroke: #000000; stroke-width: 0.8; stroke-linejoin: miter; stroke-linecap: square"/>
   </g>
   <g id="patch_12">
    <path d="M 614.38125 22.318125 
L 1137.26125 22.318125 
" style="fill: none; stroke: #000000; stroke-width: 0.8; stroke-linejoin: miter; stroke-linecap: square"/>
   </g>
   <g id="text_40">
    <!-- F1 Score Comparison - mhealth -->
    <g transform="translate(781.196563 16.318125) scale(0.12 -0.12)">
     <use xlink:href="#DejaVuSans-46"/>
     <use xlink:href="#DejaVuSans-31" x="57.519531"/>
     <use xlink:href="#DejaVuSans-20" x="121.142578"/>
     <use xlink:href="#DejaVuSans-53" x="152.929688"/>
     <use xlink:href="#DejaVuSans-63" x="216.40625"/>
     <use xlink:href="#DejaVuSans-6f" x="271.386719"/>
     <use xlink:href="#DejaVuSans-72" x="332.568359"/>
     <use xlink:href="#DejaVuSans-65" x="371.431641"/>
     <use xlink:href="#DejaVuSans-20" x="432.955078"/>
     <use xlink:href="#DejaVuSans-43" x="464.742188"/>
     <use xlink:href="#DejaVuSans-6f" x="534.566406"/>
     <use xlink:href="#DejaVuSans-6d" x="595.748047"/>
     <use xlink:href="#DejaVuSans-70" x="693.160156"/>
     <use xlink:href="#DejaVuSans-61" x="756.636719"/>
     <use xlink:href="#DejaVuSans-72" x="817.916016"/>
     <use xlink:href="#DejaVuSans-69" x="859.029297"/>
     <use xlink:href="#DejaVuSans-73" x="886.8125"/>
     <use xlink:href="#DejaVuSans-6f" x="938.912109"/>
     <use xlink:href="#DejaVuSans-6e" x="1000.09375"/>
     <use xlink:href="#DejaVuSans-20" x="1063.472656"/>
     <use xlink:href="#DejaVuSans-2d" x="1095.259766"/>
     <use xlink:href="#DejaVuSans-20" x="1131.34375"/>
     <use xlink:href="#DejaVuSans-6d" x="1163.130859"/>
     <use xlink:href="#DejaVuSans-68" x="1260.542969"/>
     <use xlink:href="#DejaVuSans-65" x="1323.921875"/>
     <use xlink:href="#DejaVuSans-61" x="1385.445312"/>
     <use xlink:href="#DejaVuSans-6c" x="1446.724609"/>
     <use xlink:href="#DejaVuSans-74" x="1474.507812"/>
     <use xlink:href="#DejaVuSans-68" x="1513.716797"/>
    </g>
   </g>
   <g id="legend_2">
    <g id="patch_13">
     <path d="M 1053.720625 380.478125 
L 1130.26125 380.478125 
Q 1132.26125 380.478125 1132.26125 378.478125 
L 1132.26125 276.73125 
Q 1132.26125 274.73125 1130.26125 274.73125 
L 1053.720625 274.73125 
Q 1051.720625 274.73125 1051.720625 276.73125 
L 1051.720625 378.478125 
Q 1051.720625 380.478125 1053.720625 380.478125 
z
" style="fill: #ffffff; opacity: 0.8; stroke: #cccccc; stroke-linejoin: miter"/>
    </g>
    <g id="line2d_76">
     <path d="M 1055.720625 282.829687 
L 1065.720625 282.829687 
L 1075.720625 282.829687 
" style="fill: none; stroke: #808080; stroke-width: 2; stroke-linecap: square"/>
    </g>
    <g id="text_41">
     <!-- Single -->
     <g transform="translate(1083.720625 286.329687) scale(0.1 -0.1)">
      <use xlink:href="#DejaVuSans-53"/>
      <use xlink:href="#DejaVuSans-69" x="63.476562"/>
      <use xlink:href="#DejaVuSans-6e" x="91.259766"/>
      <use xlink:href="#DejaVuSans-67" x="154.638672"/>
      <use xlink:href="#DejaVuSans-6c" x="218.115234"/>
      <use xlink:href="#DejaVuSans-65" x="245.898438"/>
     </g>
    </g>
    <g id="line2d_77">
     <path d="M 1055.720625 297.507812 
L 1065.720625 297.507812 
L 1075.720625 297.507812 
" style="fill: none; stroke: #0000ff; stroke-width: 2; stroke-linecap: square"/>
    </g>
    <g id="text_42">
     <!-- FedAvg -->
     <g transform="translate(1083.720625 301.007812) scale(0.1 -0.1)">
      <use xlink:href="#DejaVuSans-46"/>
      <use xlink:href="#DejaVuSans-65" x="52.019531"/>
      <use xlink:href="#DejaVuSans-64" x="113.542969"/>
      <use xlink:href="#DejaVuSans-41" x="177.019531"/>
      <use xlink:href="#DejaVuSans-76" x="239.552734"/>
      <use xlink:href="#DejaVuSans-67" x="298.732422"/>
     </g>
    </g>
    <g id="line2d_78">
     <path d="M 1055.720625 312.185937 
L 1065.720625 312.185937 
L 1075.720625 312.185937 
" style="fill: none; stroke: #00ffff; stroke-width: 2; stroke-linecap: square"/>
    </g>
    <g id="text_43">
     <!-- FedProx -->
     <g transform="translate(1083.720625 315.685937) scale(0.1 -0.1)">
      <use xlink:href="#DejaVuSans-46"/>
      <use xlink:href="#DejaVuSans-65" x="52.019531"/>
      <use xlink:href="#DejaVuSans-64" x="113.542969"/>
      <use xlink:href="#DejaVuSans-50" x="177.019531"/>
      <use xlink:href="#DejaVuSans-72" x="235.572266"/>
      <use xlink:href="#DejaVuSans-6f" x="274.435547"/>
      <use xlink:href="#DejaVuSans-78" x="332.492188"/>
     </g>
    </g>
    <g id="line2d_79">
     <path d="M 1055.720625 326.864062 
L 1065.720625 326.864062 
L 1075.720625 326.864062 
" style="fill: none; stroke: #008000; stroke-width: 2; stroke-linecap: square"/>
    </g>
    <g id="text_44">
     <!-- FedProto -->
     <g transform="translate(1083.720625 330.364062) scale(0.1 -0.1)">
      <use xlink:href="#DejaVuSans-46"/>
      <use xlink:href="#DejaVuSans-65" x="52.019531"/>
      <use xlink:href="#DejaVuSans-64" x="113.542969"/>
      <use xlink:href="#DejaVuSans-50" x="177.019531"/>
      <use xlink:href="#DejaVuSans-72" x="235.572266"/>
      <use xlink:href="#DejaVuSans-6f" x="274.435547"/>
      <use xlink:href="#DejaVuSans-74" x="335.617188"/>
      <use xlink:href="#DejaVuSans-6f" x="374.826172"/>
     </g>
    </g>
    <g id="line2d_80">
     <path d="M 1055.720625 341.542187 
L 1065.720625 341.542187 
L 1075.720625 341.542187 
" style="fill: none; stroke: #ffa500; stroke-width: 2; stroke-linecap: square"/>
    </g>
    <g id="text_45">
     <!-- FedMEKT -->
     <g transform="translate(1083.720625 345.042187) scale(0.1 -0.1)">
      <use xlink:href="#DejaVuSans-46"/>
      <use xlink:href="#DejaVuSans-65" x="52.019531"/>
      <use xlink:href="#DejaVuSans-64" x="113.542969"/>
      <use xlink:href="#DejaVuSans-4d" x="177.019531"/>
      <use xlink:href="#DejaVuSans-45" x="263.298828"/>
      <use xlink:href="#DejaVuSans-4b" x="326.482422"/>
      <use xlink:href="#DejaVuSans-54" x="384.308594"/>
     </g>
    </g>
    <g id="line2d_81">
     <path d="M 1055.720625 356.220312 
L 1065.720625 356.220312 
L 1075.720625 356.220312 
" style="fill: none; stroke: #ff0000; stroke-width: 2; stroke-linecap: square"/>
    </g>
    <g id="text_46">
     <!-- FedProp -->
     <g transform="translate(1083.720625 359.720312) scale(0.1 -0.1)">
      <use xlink:href="#DejaVuSans-46"/>
      <use xlink:href="#DejaVuSans-65" x="52.019531"/>
      <use xlink:href="#DejaVuSans-64" x="113.542969"/>
      <use xlink:href="#DejaVuSans-50" x="177.019531"/>
      <use xlink:href="#DejaVuSans-72" x="235.572266"/>
      <use xlink:href="#DejaVuSans-6f" x="274.435547"/>
      <use xlink:href="#DejaVuSans-70" x="335.617188"/>
     </g>
    </g>
    <g id="line2d_82">
     <path d="M 1055.720625 370.898438 
L 1065.720625 370.898438 
L 1075.720625 370.898438 
" style="fill: none; stroke: #ff00ff; stroke-width: 2; stroke-linecap: square"/>
    </g>
    <g id="text_47">
     <!-- FedDTG -->
     <g transform="translate(1083.720625 374.398438) scale(0.1 -0.1)">
      <use xlink:href="#DejaVuSans-46"/>
      <use xlink:href="#DejaVuSans-65" x="52.019531"/>
      <use xlink:href="#DejaVuSans-64" x="113.542969"/>
      <use xlink:href="#DejaVuSans-44" x="177.019531"/>
      <use xlink:href="#DejaVuSans-54" x="254.021484"/>
      <use xlink:href="#DejaVuSans-47" x="315.105469"/>
     </g>
    </g>
   </g>
  </g>
 </g>
 <defs>
  <clipPath id="p6f814dde7e">
   <rect x="43.78125" y="22.318125" width="522.88" height="363.16"/>
  </clipPath>
  <clipPath id="p5749d1ecb5">
   <rect x="614.38125" y="22.318125" width="522.88" height="363.16"/>
  </clipPath>
 </defs>
</svg>
