<?xml version="1.0" encoding="utf-8" standalone="no"?>
<!DOCTYPE svg PUBLIC "-//W3C//DTD SVG 1.1//EN"
  "http://www.w3.org/Graphics/SVG/1.1/DTD/svg11.dtd">
<svg xmlns:xlink="http://www.w3.org/1999/xlink" width="1144.37125pt" height="424.474375pt" viewBox="0 0 1144.37125 424.474375" xmlns="http://www.w3.org/2000/svg" version="1.1">
 <metadata>
  <rdf:RDF xmlns:dc="http://purl.org/dc/elements/1.1/" xmlns:cc="http://creativecommons.org/ns#" xmlns:rdf="http://www.w3.org/1999/02/22-rdf-syntax-ns#">
   <cc:Work>
    <dc:type rdf:resource="http://purl.org/dc/dcmitype/StillImage"/>
    <dc:date>2025-12-24T17:34:01.788880</dc:date>
    <dc:format>image/svg+xml</dc:format>
    <dc:creator>
     <cc:Agent>
      <dc:title>Matplotlib v3.7.1, https://matplotlib.org/</dc:title>
     </cc:Agent>
    </dc:creator>
   </cc:Work>
  </rdf:RDF>
 </metadata>
 <defs>
  <style type="text/css">*{stroke-linejoin: round; stroke-linecap: butt}</style>
 </defs>
 <g id="figure_1">
  <g id="patch_1">
   <path d="M 0 424.474375 
L 1144.37125 424.474375 
L 1144.37125 0 
L 0 0 
z
" style="fill: #ffffff"/>
  </g>
  <g id="axes_1">
   <g id="patch_2">
    <path d="M 43.78125 386.918125 
L 566.57125 386.918125 
L 566.57125 22.318125 
L 43.78125 22.318125 
z
" style="fill: #ffffff"/>
   </g>
   <g id="matplotlib.axis_1">
    <g id="xtick_1">
     <g id="line2d_1">
      <path d="M 62.743789 386.918125 
L 62.743789 22.318125 
" clip-path="url(#pcbfa93131a)" style="fill: none; stroke: #b0b0b0; stroke-opacity: 0.3; stroke-width: 0.8; stroke-linecap: square"/>
     </g>
     <g id="line2d_2">
      <defs>
       <path id="m29ad1d87d2" d="M 0 0 
L 0 3.5 
" style="stroke: #000000; stroke-width: 0.8"/>
      </defs>
      <g>
       <use xlink:href="#m29ad1d87d2" x="62.743789" y="386.918125" style="stroke: #000000; stroke-width: 0.8"/>
      </g>
     </g>
     <g id="text_1">
      <!-- 0 -->
      <g transform="translate(59.562539 401.516562) scale(0.1 -0.1)">
       <defs>
        <path id="DejaVuSans-30" d="M 2034 4250 
Q 1547 4250 1301 3770 
Q 1056 3291 1056 2328 
Q 1056 1369 1301 889 
Q 1547 409 2034 409 
Q 2525 409 2770 889 
Q 3016 1369 3016 2328 
Q 3016 3291 2770 3770 
Q 2525 4250 2034 4250 
z
M 2034 4750 
Q 2819 4750 3233 4129 
Q 3647 3509 3647 2328 
Q 3647 1150 3233 529 
Q 2819 -91 2034 -91 
Q 1250 -91 836 529 
Q 422 1150 422 2328 
Q 422 3509 836 4129 
Q 1250 4750 2034 4750 
z
" transform="scale(0.015625)"/>
       </defs>
       <use xlink:href="#DejaVuSans-30"/>
      </g>
     </g>
    </g>
    <g id="xtick_2">
     <g id="line2d_3">
      <path d="M 158.756645 386.918125 
L 158.756645 22.318125 
" clip-path="url(#pcbfa93131a)" style="fill: none; stroke: #b0b0b0; stroke-opacity: 0.3; stroke-width: 0.8; stroke-linecap: square"/>
     </g>
     <g id="line2d_4">
      <g>
       <use xlink:href="#m29ad1d87d2" x="158.756645" y="386.918125" style="stroke: #000000; stroke-width: 0.8"/>
      </g>
     </g>
     <g id="text_2">
      <!-- 20 -->
      <g transform="translate(152.394145 401.516562) scale(0.1 -0.1)">
       <defs>
        <path id="DejaVuSans-32" d="M 1228 531 
L 3431 531 
L 3431 0 
L 469 0 
L 469 531 
Q 828 903 1448 1529 
Q 2069 2156 2228 2338 
Q 2531 2678 2651 2914 
Q 2772 3150 2772 3378 
Q 2772 3750 2511 3984 
Q 2250 4219 1831 4219 
Q 1534 4219 1204 4116 
Q 875 4013 500 3803 
L 500 4441 
Q 881 4594 1212 4672 
Q 1544 4750 1819 4750 
Q 2544 4750 2975 4387 
Q 3406 4025 3406 3419 
Q 3406 3131 3298 2873 
Q 3191 2616 2906 2266 
Q 2828 2175 2409 1742 
Q 1991 1309 1228 531 
z
" transform="scale(0.015625)"/>
       </defs>
       <use xlink:href="#DejaVuSans-32"/>
       <use xlink:href="#DejaVuSans-30" x="63.623047"/>
      </g>
     </g>
    </g>
    <g id="xtick_3">
     <g id="line2d_5">
      <path d="M 254.769501 386.918125 
L 254.769501 22.318125 
" clip-path="url(#pcbfa93131a)" style="fill: none; stroke: #b0b0b0; stroke-opacity: 0.3; stroke-width: 0.8; stroke-linecap: square"/>
     </g>
     <g id="line2d_6">
      <g>
       <use xlink:href="#m29ad1d87d2" x="254.769501" y="386.918125" style="stroke: #000000; stroke-width: 0.8"/>
      </g>
     </g>
     <g id="text_3">
      <!-- 40 -->
      <g transform="translate(248.407001 401.516562) scale(0.1 -0.1)">
       <defs>
        <path id="DejaVuSans-34" d="M 2419 4116 
L 825 1625 
L 2419 1625 
L 2419 4116 
z
M 2253 4666 
L 3047 4666 
L 3047 1625 
L 3713 1625 
L 3713 1100 
L 3047 1100 
L 3047 0 
L 2419 0 
L 2419 1100 
L 313 1100 
L 313 1709 
L 2253 4666 
z
" transform="scale(0.015625)"/>
       </defs>
       <use xlink:href="#DejaVuSans-34"/>
       <use xlink:href="#DejaVuSans-30" x="63.623047"/>
      </g>
     </g>
    </g>
    <g id="xtick_4">
     <g id="line2d_7">
      <path d="M 350.782357 386.918125 
L 350.782357 22.318125 
" clip-path="url(#pcbfa93131a)" style="fill: none; stroke: #b0b0b0; stroke-opacity: 0.3; stroke-width: 0.8; stroke-linecap: square"/>
     </g>
     <g id="line2d_8">
      <g>
       <use xlink:href="#m29ad1d87d2" x="350.782357" y="386.918125" style="stroke: #000000; stroke-width: 0.8"/>
      </g>
     </g>
     <g id="text_4">
      <!-- 60 -->
      <g transform="translate(344.419857 401.516562) scale(0.1 -0.1)">
       <defs>
        <path id="DejaVuSans-36" d="M 2113 2584 
Q 1688 2584 1439 2293 
Q 1191 2003 1191 1497 
Q 1191 994 1439 701 
Q 1688 409 2113 409 
Q 2538 409 2786 701 
Q 3034 994 3034 1497 
Q 3034 2003 2786 2293 
Q 2538 2584 2113 2584 
z
M 3366 4563 
L 3366 3988 
Q 3128 4100 2886 4159 
Q 2644 4219 2406 4219 
Q 1781 4219 1451 3797 
Q 1122 3375 1075 2522 
Q 1259 2794 1537 2939 
Q 1816 3084 2150 3084 
Q 2853 3084 3261 2657 
Q 3669 2231 3669 1497 
Q 3669 778 3244 343 
Q 2819 -91 2113 -91 
Q 1303 -91 875 529 
Q 447 1150 447 2328 
Q 447 3434 972 4092 
Q 1497 4750 2381 4750 
Q 2619 4750 2861 4703 
Q 3103 4656 3366 4563 
z
" transform="scale(0.015625)"/>
       </defs>
       <use xlink:href="#DejaVuSans-36"/>
       <use xlink:href="#DejaVuSans-30" x="63.623047"/>
      </g>
     </g>
    </g>
    <g id="xtick_5">
     <g id="line2d_9">
      <path d="M 446.795212 386.918125 
L 446.795212 22.318125 
" clip-path="url(#pcbfa93131a)" style="fill: none; stroke: #b0b0b0; stroke-opacity: 0.3; stroke-width: 0.8; stroke-linecap: square"/>
     </g>
     <g id="line2d_10">
      <g>
       <use xlink:href="#m29ad1d87d2" x="446.795212" y="386.918125" style="stroke: #000000; stroke-width: 0.8"/>
      </g>
     </g>
     <g id="text_5">
      <!-- 80 -->
      <g transform="translate(440.432712 401.516562) scale(0.1 -0.1)">
       <defs>
        <path id="DejaVuSans-38" d="M 2034 2216 
Q 1584 2216 1326 1975 
Q 1069 1734 1069 1313 
Q 1069 891 1326 650 
Q 1584 409 2034 409 
Q 2484 409 2743 651 
Q 3003 894 3003 1313 
Q 3003 1734 2745 1975 
Q 2488 2216 2034 2216 
z
M 1403 2484 
Q 997 2584 770 2862 
Q 544 3141 544 3541 
Q 544 4100 942 4425 
Q 1341 4750 2034 4750 
Q 2731 4750 3128 4425 
Q 3525 4100 3525 3541 
Q 3525 3141 3298 2862 
Q 3072 2584 2669 2484 
Q 3125 2378 3379 2068 
Q 3634 1759 3634 1313 
Q 3634 634 3220 271 
Q 2806 -91 2034 -91 
Q 1263 -91 848 271 
Q 434 634 434 1313 
Q 434 1759 690 2068 
Q 947 2378 1403 2484 
z
M 1172 3481 
Q 1172 3119 1398 2916 
Q 1625 2713 2034 2713 
Q 2441 2713 2670 2916 
Q 2900 3119 2900 3481 
Q 2900 3844 2670 4047 
Q 2441 4250 2034 4250 
Q 1625 4250 1398 4047 
Q 1172 3844 1172 3481 
z
" transform="scale(0.015625)"/>
       </defs>
       <use xlink:href="#DejaVuSans-38"/>
       <use xlink:href="#DejaVuSans-30" x="63.623047"/>
      </g>
     </g>
    </g>
    <g id="xtick_6">
     <g id="line2d_11">
      <path d="M 542.808068 386.918125 
L 542.808068 22.318125 
" clip-path="url(#pcbfa93131a)" style="fill: none; stroke: #b0b0b0; stroke-opacity: 0.3; stroke-width: 0.8; stroke-linecap: square"/>
     </g>
     <g id="line2d_12">
      <g>
       <use xlink:href="#m29ad1d87d2" x="542.808068" y="386.918125" style="stroke: #000000; stroke-width: 0.8"/>
      </g>
     </g>
     <g id="text_6">
      <!-- 100 -->
      <g transform="translate(533.264318 401.516562) scale(0.1 -0.1)">
       <defs>
        <path id="DejaVuSans-31" d="M 794 531 
L 1825 531 
L 1825 4091 
L 703 3866 
L 703 4441 
L 1819 4666 
L 2450 4666 
L 2450 531 
L 3481 531 
L 3481 0 
L 794 0 
L 794 531 
z
" transform="scale(0.015625)"/>
       </defs>
       <use xlink:href="#DejaVuSans-31"/>
       <use xlink:href="#DejaVuSans-30" x="63.623047"/>
       <use xlink:href="#DejaVuSans-30" x="127.246094"/>
      </g>
     </g>
    </g>
    <g id="text_7">
     <!-- Communication Rounds -->
     <g transform="translate(245.753594 415.194687) scale(0.1 -0.1)">
      <defs>
       <path id="DejaVuSans-43" d="M 4122 4306 
L 4122 3641 
Q 3803 3938 3442 4084 
Q 3081 4231 2675 4231 
Q 1875 4231 1450 3742 
Q 1025 3253 1025 2328 
Q 1025 1406 1450 917 
Q 1875 428 2675 428 
Q 3081 428 3442 575 
Q 3803 722 4122 1019 
L 4122 359 
Q 3791 134 3420 21 
Q 3050 -91 2638 -91 
Q 1578 -91 968 557 
Q 359 1206 359 2328 
Q 359 3453 968 4101 
Q 1578 4750 2638 4750 
Q 3056 4750 3426 4639 
Q 3797 4528 4122 4306 
z
" transform="scale(0.015625)"/>
       <path id="DejaVuSans-6f" d="M 1959 3097 
Q 1497 3097 1228 2736 
Q 959 2375 959 1747 
Q 959 1119 1226 758 
Q 1494 397 1959 397 
Q 2419 397 2687 759 
Q 2956 1122 2956 1747 
Q 2956 2369 2687 2733 
Q 2419 3097 1959 3097 
z
M 1959 3584 
Q 2709 3584 3137 3096 
Q 3566 2609 3566 1747 
Q 3566 888 3137 398 
Q 2709 -91 1959 -91 
Q 1206 -91 779 398 
Q 353 888 353 1747 
Q 353 2609 779 3096 
Q 1206 3584 1959 3584 
z
" transform="scale(0.015625)"/>
       <path id="DejaVuSans-6d" d="M 3328 2828 
Q 3544 3216 3844 3400 
Q 4144 3584 4550 3584 
Q 5097 3584 5394 3201 
Q 5691 2819 5691 2113 
L 5691 0 
L 5113 0 
L 5113 2094 
Q 5113 2597 4934 2840 
Q 4756 3084 4391 3084 
Q 3944 3084 3684 2787 
Q 3425 2491 3425 1978 
L 3425 0 
L 2847 0 
L 2847 2094 
Q 2847 2600 2669 2842 
Q 2491 3084 2119 3084 
Q 1678 3084 1418 2786 
Q 1159 2488 1159 1978 
L 1159 0 
L 581 0 
L 581 3500 
L 1159 3500 
L 1159 2956 
Q 1356 3278 1631 3431 
Q 1906 3584 2284 3584 
Q 2666 3584 2933 3390 
Q 3200 3197 3328 2828 
z
" transform="scale(0.015625)"/>
       <path id="DejaVuSans-75" d="M 544 1381 
L 544 3500 
L 1119 3500 
L 1119 1403 
Q 1119 906 1312 657 
Q 1506 409 1894 409 
Q 2359 409 2629 706 
Q 2900 1003 2900 1516 
L 2900 3500 
L 3475 3500 
L 3475 0 
L 2900 0 
L 2900 538 
Q 2691 219 2414 64 
Q 2138 -91 1772 -91 
Q 1169 -91 856 284 
Q 544 659 544 1381 
z
M 1991 3584 
L 1991 3584 
z
" transform="scale(0.015625)"/>
       <path id="DejaVuSans-6e" d="M 3513 2113 
L 3513 0 
L 2938 0 
L 2938 2094 
Q 2938 2591 2744 2837 
Q 2550 3084 2163 3084 
Q 1697 3084 1428 2787 
Q 1159 2491 1159 1978 
L 1159 0 
L 581 0 
L 581 3500 
L 1159 3500 
L 1159 2956 
Q 1366 3272 1645 3428 
Q 1925 3584 2291 3584 
Q 2894 3584 3203 3211 
Q 3513 2838 3513 2113 
z
" transform="scale(0.015625)"/>
       <path id="DejaVuSans-69" d="M 603 3500 
L 1178 3500 
L 1178 0 
L 603 0 
L 603 3500 
z
M 603 4863 
L 1178 4863 
L 1178 4134 
L 603 4134 
L 603 4863 
z
" transform="scale(0.015625)"/>
       <path id="DejaVuSans-63" d="M 3122 3366 
L 3122 2828 
Q 2878 2963 2633 3030 
Q 2388 3097 2138 3097 
Q 1578 3097 1268 2742 
Q 959 2388 959 1747 
Q 959 1106 1268 751 
Q 1578 397 2138 397 
Q 2388 397 2633 464 
Q 2878 531 3122 666 
L 3122 134 
Q 2881 22 2623 -34 
Q 2366 -91 2075 -91 
Q 1284 -91 818 406 
Q 353 903 353 1747 
Q 353 2603 823 3093 
Q 1294 3584 2113 3584 
Q 2378 3584 2631 3529 
Q 2884 3475 3122 3366 
z
" transform="scale(0.015625)"/>
       <path id="DejaVuSans-61" d="M 2194 1759 
Q 1497 1759 1228 1600 
Q 959 1441 959 1056 
Q 959 750 1161 570 
Q 1363 391 1709 391 
Q 2188 391 2477 730 
Q 2766 1069 2766 1631 
L 2766 1759 
L 2194 1759 
z
M 3341 1997 
L 3341 0 
L 2766 0 
L 2766 531 
Q 2569 213 2275 61 
Q 1981 -91 1556 -91 
Q 1019 -91 701 211 
Q 384 513 384 1019 
Q 384 1609 779 1909 
Q 1175 2209 1959 2209 
L 2766 2209 
L 2766 2266 
Q 2766 2663 2505 2880 
Q 2244 3097 1772 3097 
Q 1472 3097 1187 3025 
Q 903 2953 641 2809 
L 641 3341 
Q 956 3463 1253 3523 
Q 1550 3584 1831 3584 
Q 2591 3584 2966 3190 
Q 3341 2797 3341 1997 
z
" transform="scale(0.015625)"/>
       <path id="DejaVuSans-74" d="M 1172 4494 
L 1172 3500 
L 2356 3500 
L 2356 3053 
L 1172 3053 
L 1172 1153 
Q 1172 725 1289 603 
Q 1406 481 1766 481 
L 2356 481 
L 2356 0 
L 1766 0 
Q 1100 0 847 248 
Q 594 497 594 1153 
L 594 3053 
L 172 3053 
L 172 3500 
L 594 3500 
L 594 4494 
L 1172 4494 
z
" transform="scale(0.015625)"/>
       <path id="DejaVuSans-20" transform="scale(0.015625)"/>
       <path id="DejaVuSans-52" d="M 2841 2188 
Q 3044 2119 3236 1894 
Q 3428 1669 3622 1275 
L 4263 0 
L 3584 0 
L 2988 1197 
Q 2756 1666 2539 1819 
Q 2322 1972 1947 1972 
L 1259 1972 
L 1259 0 
L 628 0 
L 628 4666 
L 2053 4666 
Q 2853 4666 3247 4331 
Q 3641 3997 3641 3322 
Q 3641 2881 3436 2590 
Q 3231 2300 2841 2188 
z
M 1259 4147 
L 1259 2491 
L 2053 2491 
Q 2509 2491 2742 2702 
Q 2975 2913 2975 3322 
Q 2975 3731 2742 3939 
Q 2509 4147 2053 4147 
L 1259 4147 
z
" transform="scale(0.015625)"/>
       <path id="DejaVuSans-64" d="M 2906 2969 
L 2906 4863 
L 3481 4863 
L 3481 0 
L 2906 0 
L 2906 525 
Q 2725 213 2448 61 
Q 2172 -91 1784 -91 
Q 1150 -91 751 415 
Q 353 922 353 1747 
Q 353 2572 751 3078 
Q 1150 3584 1784 3584 
Q 2172 3584 2448 3432 
Q 2725 3281 2906 2969 
z
M 947 1747 
Q 947 1113 1208 752 
Q 1469 391 1925 391 
Q 2381 391 2643 752 
Q 2906 1113 2906 1747 
Q 2906 2381 2643 2742 
Q 2381 3103 1925 3103 
Q 1469 3103 1208 2742 
Q 947 2381 947 1747 
z
" transform="scale(0.015625)"/>
       <path id="DejaVuSans-73" d="M 2834 3397 
L 2834 2853 
Q 2591 2978 2328 3040 
Q 2066 3103 1784 3103 
Q 1356 3103 1142 2972 
Q 928 2841 928 2578 
Q 928 2378 1081 2264 
Q 1234 2150 1697 2047 
L 1894 2003 
Q 2506 1872 2764 1633 
Q 3022 1394 3022 966 
Q 3022 478 2636 193 
Q 2250 -91 1575 -91 
Q 1294 -91 989 -36 
Q 684 19 347 128 
L 347 722 
Q 666 556 975 473 
Q 1284 391 1588 391 
Q 1994 391 2212 530 
Q 2431 669 2431 922 
Q 2431 1156 2273 1281 
Q 2116 1406 1581 1522 
L 1381 1569 
Q 847 1681 609 1914 
Q 372 2147 372 2553 
Q 372 3047 722 3315 
Q 1072 3584 1716 3584 
Q 2034 3584 2315 3537 
Q 2597 3491 2834 3397 
z
" transform="scale(0.015625)"/>
      </defs>
      <use xlink:href="#DejaVuSans-43"/>
      <use xlink:href="#DejaVuSans-6f" x="69.824219"/>
      <use xlink:href="#DejaVuSans-6d" x="131.005859"/>
      <use xlink:href="#DejaVuSans-6d" x="228.417969"/>
      <use xlink:href="#DejaVuSans-75" x="325.830078"/>
      <use xlink:href="#DejaVuSans-6e" x="389.208984"/>
      <use xlink:href="#DejaVuSans-69" x="452.587891"/>
      <use xlink:href="#DejaVuSans-63" x="480.371094"/>
      <use xlink:href="#DejaVuSans-61" x="535.351562"/>
      <use xlink:href="#DejaVuSans-74" x="596.630859"/>
      <use xlink:href="#DejaVuSans-69" x="635.839844"/>
      <use xlink:href="#DejaVuSans-6f" x="663.623047"/>
      <use xlink:href="#DejaVuSans-6e" x="724.804688"/>
      <use xlink:href="#DejaVuSans-20" x="788.183594"/>
      <use xlink:href="#DejaVuSans-52" x="819.970703"/>
      <use xlink:href="#DejaVuSans-6f" x="884.953125"/>
      <use xlink:href="#DejaVuSans-75" x="946.134766"/>
      <use xlink:href="#DejaVuSans-6e" x="1009.513672"/>
      <use xlink:href="#DejaVuSans-64" x="1072.892578"/>
      <use xlink:href="#DejaVuSans-73" x="1136.369141"/>
     </g>
    </g>
   </g>
   <g id="matplotlib.axis_2">
    <g id="ytick_1">
     <g id="line2d_13">
      <path d="M 43.78125 379.93062 
L 566.57125 379.93062 
" clip-path="url(#pcbfa93131a)" style="fill: none; stroke: #b0b0b0; stroke-opacity: 0.3; stroke-width: 0.8; stroke-linecap: square"/>
     </g>
     <g id="line2d_14">
      <defs>
       <path id="mb731376cc5" d="M 0 0 
L -3.5 0 
" style="stroke: #000000; stroke-width: 0.8"/>
      </defs>
      <g>
       <use xlink:href="#mb731376cc5" x="43.78125" y="379.93062" style="stroke: #000000; stroke-width: 0.8"/>
      </g>
     </g>
     <g id="text_8">
      <!-- 0.0 -->
      <g transform="translate(20.878125 383.729839) scale(0.1 -0.1)">
       <defs>
        <path id="DejaVuSans-2e" d="M 684 794 
L 1344 794 
L 1344 0 
L 684 0 
L 684 794 
z
" transform="scale(0.015625)"/>
       </defs>
       <use xlink:href="#DejaVuSans-30"/>
       <use xlink:href="#DejaVuSans-2e" x="63.623047"/>
       <use xlink:href="#DejaVuSans-30" x="95.410156"/>
      </g>
     </g>
    </g>
    <g id="ytick_2">
     <g id="line2d_15">
      <path d="M 43.78125 330.743587 
L 566.57125 330.743587 
" clip-path="url(#pcbfa93131a)" style="fill: none; stroke: #b0b0b0; stroke-opacity: 0.3; stroke-width: 0.8; stroke-linecap: square"/>
     </g>
     <g id="line2d_16">
      <g>
       <use xlink:href="#mb731376cc5" x="43.78125" y="330.743587" style="stroke: #000000; stroke-width: 0.8"/>
      </g>
     </g>
     <g id="text_9">
      <!-- 0.1 -->
      <g transform="translate(20.878125 334.542806) scale(0.1 -0.1)">
       <use xlink:href="#DejaVuSans-30"/>
       <use xlink:href="#DejaVuSans-2e" x="63.623047"/>
       <use xlink:href="#DejaVuSans-31" x="95.410156"/>
      </g>
     </g>
    </g>
    <g id="ytick_3">
     <g id="line2d_17">
      <path d="M 43.78125 281.556554 
L 566.57125 281.556554 
" clip-path="url(#pcbfa93131a)" style="fill: none; stroke: #b0b0b0; stroke-opacity: 0.3; stroke-width: 0.8; stroke-linecap: square"/>
     </g>
     <g id="line2d_18">
      <g>
       <use xlink:href="#mb731376cc5" x="43.78125" y="281.556554" style="stroke: #000000; stroke-width: 0.8"/>
      </g>
     </g>
     <g id="text_10">
      <!-- 0.2 -->
      <g transform="translate(20.878125 285.355773) scale(0.1 -0.1)">
       <use xlink:href="#DejaVuSans-30"/>
       <use xlink:href="#DejaVuSans-2e" x="63.623047"/>
       <use xlink:href="#DejaVuSans-32" x="95.410156"/>
      </g>
     </g>
    </g>
    <g id="ytick_4">
     <g id="line2d_19">
      <path d="M 43.78125 232.369521 
L 566.57125 232.369521 
" clip-path="url(#pcbfa93131a)" style="fill: none; stroke: #b0b0b0; stroke-opacity: 0.3; stroke-width: 0.8; stroke-linecap: square"/>
     </g>
     <g id="line2d_20">
      <g>
       <use xlink:href="#mb731376cc5" x="43.78125" y="232.369521" style="stroke: #000000; stroke-width: 0.8"/>
      </g>
     </g>
     <g id="text_11">
      <!-- 0.3 -->
      <g transform="translate(20.878125 236.168739) scale(0.1 -0.1)">
       <defs>
        <path id="DejaVuSans-33" d="M 2597 2516 
Q 3050 2419 3304 2112 
Q 3559 1806 3559 1356 
Q 3559 666 3084 287 
Q 2609 -91 1734 -91 
Q 1441 -91 1130 -33 
Q 819 25 488 141 
L 488 750 
Q 750 597 1062 519 
Q 1375 441 1716 441 
Q 2309 441 2620 675 
Q 2931 909 2931 1356 
Q 2931 1769 2642 2001 
Q 2353 2234 1838 2234 
L 1294 2234 
L 1294 2753 
L 1863 2753 
Q 2328 2753 2575 2939 
Q 2822 3125 2822 3475 
Q 2822 3834 2567 4026 
Q 2313 4219 1838 4219 
Q 1578 4219 1281 4162 
Q 984 4106 628 3988 
L 628 4550 
Q 988 4650 1302 4700 
Q 1616 4750 1894 4750 
Q 2613 4750 3031 4423 
Q 3450 4097 3450 3541 
Q 3450 3153 3228 2886 
Q 3006 2619 2597 2516 
z
" transform="scale(0.015625)"/>
       </defs>
       <use xlink:href="#DejaVuSans-30"/>
       <use xlink:href="#DejaVuSans-2e" x="63.623047"/>
       <use xlink:href="#DejaVuSans-33" x="95.410156"/>
      </g>
     </g>
    </g>
    <g id="ytick_5">
     <g id="line2d_21">
      <path d="M 43.78125 183.182487 
L 566.57125 183.182487 
" clip-path="url(#pcbfa93131a)" style="fill: none; stroke: #b0b0b0; stroke-opacity: 0.3; stroke-width: 0.8; stroke-linecap: square"/>
     </g>
     <g id="line2d_22">
      <g>
       <use xlink:href="#mb731376cc5" x="43.78125" y="183.182487" style="stroke: #000000; stroke-width: 0.8"/>
      </g>
     </g>
     <g id="text_12">
      <!-- 0.4 -->
      <g transform="translate(20.878125 186.981706) scale(0.1 -0.1)">
       <use xlink:href="#DejaVuSans-30"/>
       <use xlink:href="#DejaVuSans-2e" x="63.623047"/>
       <use xlink:href="#DejaVuSans-34" x="95.410156"/>
      </g>
     </g>
    </g>
    <g id="ytick_6">
     <g id="line2d_23">
      <path d="M 43.78125 133.995454 
L 566.57125 133.995454 
" clip-path="url(#pcbfa93131a)" style="fill: none; stroke: #b0b0b0; stroke-opacity: 0.3; stroke-width: 0.8; stroke-linecap: square"/>
     </g>
     <g id="line2d_24">
      <g>
       <use xlink:href="#mb731376cc5" x="43.78125" y="133.995454" style="stroke: #000000; stroke-width: 0.8"/>
      </g>
     </g>
     <g id="text_13">
      <!-- 0.5 -->
      <g transform="translate(20.878125 137.794673) scale(0.1 -0.1)">
       <defs>
        <path id="DejaVuSans-35" d="M 691 4666 
L 3169 4666 
L 3169 4134 
L 1269 4134 
L 1269 2991 
Q 1406 3038 1543 3061 
Q 1681 3084 1819 3084 
Q 2600 3084 3056 2656 
Q 3513 2228 3513 1497 
Q 3513 744 3044 326 
Q 2575 -91 1722 -91 
Q 1428 -91 1123 -41 
Q 819 9 494 109 
L 494 744 
Q 775 591 1075 516 
Q 1375 441 1709 441 
Q 2250 441 2565 725 
Q 2881 1009 2881 1497 
Q 2881 1984 2565 2268 
Q 2250 2553 1709 2553 
Q 1456 2553 1204 2497 
Q 953 2441 691 2322 
L 691 4666 
z
" transform="scale(0.015625)"/>
       </defs>
       <use xlink:href="#DejaVuSans-30"/>
       <use xlink:href="#DejaVuSans-2e" x="63.623047"/>
       <use xlink:href="#DejaVuSans-35" x="95.410156"/>
      </g>
     </g>
    </g>
    <g id="ytick_7">
     <g id="line2d_25">
      <path d="M 43.78125 84.808421 
L 566.57125 84.808421 
" clip-path="url(#pcbfa93131a)" style="fill: none; stroke: #b0b0b0; stroke-opacity: 0.3; stroke-width: 0.8; stroke-linecap: square"/>
     </g>
     <g id="line2d_26">
      <g>
       <use xlink:href="#mb731376cc5" x="43.78125" y="84.808421" style="stroke: #000000; stroke-width: 0.8"/>
      </g>
     </g>
     <g id="text_14">
      <!-- 0.6 -->
      <g transform="translate(20.878125 88.60764) scale(0.1 -0.1)">
       <use xlink:href="#DejaVuSans-30"/>
       <use xlink:href="#DejaVuSans-2e" x="63.623047"/>
       <use xlink:href="#DejaVuSans-36" x="95.410156"/>
      </g>
     </g>
    </g>
    <g id="ytick_8">
     <g id="line2d_27">
      <path d="M 43.78125 35.621387 
L 566.57125 35.621387 
" clip-path="url(#pcbfa93131a)" style="fill: none; stroke: #b0b0b0; stroke-opacity: 0.3; stroke-width: 0.8; stroke-linecap: square"/>
     </g>
     <g id="line2d_28">
      <g>
       <use xlink:href="#mb731376cc5" x="43.78125" y="35.621387" style="stroke: #000000; stroke-width: 0.8"/>
      </g>
     </g>
     <g id="text_15">
      <!-- 0.7 -->
      <g transform="translate(20.878125 39.420606) scale(0.1 -0.1)">
       <defs>
        <path id="DejaVuSans-37" d="M 525 4666 
L 3525 4666 
L 3525 4397 
L 1831 0 
L 1172 0 
L 2766 4134 
L 525 4134 
L 525 4666 
z
" transform="scale(0.015625)"/>
       </defs>
       <use xlink:href="#DejaVuSans-30"/>
       <use xlink:href="#DejaVuSans-2e" x="63.623047"/>
       <use xlink:href="#DejaVuSans-37" x="95.410156"/>
      </g>
     </g>
    </g>
    <g id="text_16">
     <!-- Global Accuracy -->
     <g transform="translate(14.798438 244.985312) rotate(-90) scale(0.1 -0.1)">
      <defs>
       <path id="DejaVuSans-47" d="M 3809 666 
L 3809 1919 
L 2778 1919 
L 2778 2438 
L 4434 2438 
L 4434 434 
Q 4069 175 3628 42 
Q 3188 -91 2688 -91 
Q 1594 -91 976 548 
Q 359 1188 359 2328 
Q 359 3472 976 4111 
Q 1594 4750 2688 4750 
Q 3144 4750 3555 4637 
Q 3966 4525 4313 4306 
L 4313 3634 
Q 3963 3931 3569 4081 
Q 3175 4231 2741 4231 
Q 1884 4231 1454 3753 
Q 1025 3275 1025 2328 
Q 1025 1384 1454 906 
Q 1884 428 2741 428 
Q 3075 428 3337 486 
Q 3600 544 3809 666 
z
" transform="scale(0.015625)"/>
       <path id="DejaVuSans-6c" d="M 603 4863 
L 1178 4863 
L 1178 0 
L 603 0 
L 603 4863 
z
" transform="scale(0.015625)"/>
       <path id="DejaVuSans-62" d="M 3116 1747 
Q 3116 2381 2855 2742 
Q 2594 3103 2138 3103 
Q 1681 3103 1420 2742 
Q 1159 2381 1159 1747 
Q 1159 1113 1420 752 
Q 1681 391 2138 391 
Q 2594 391 2855 752 
Q 3116 1113 3116 1747 
z
M 1159 2969 
Q 1341 3281 1617 3432 
Q 1894 3584 2278 3584 
Q 2916 3584 3314 3078 
Q 3713 2572 3713 1747 
Q 3713 922 3314 415 
Q 2916 -91 2278 -91 
Q 1894 -91 1617 61 
Q 1341 213 1159 525 
L 1159 0 
L 581 0 
L 581 4863 
L 1159 4863 
L 1159 2969 
z
" transform="scale(0.015625)"/>
       <path id="DejaVuSans-41" d="M 2188 4044 
L 1331 1722 
L 3047 1722 
L 2188 4044 
z
M 1831 4666 
L 2547 4666 
L 4325 0 
L 3669 0 
L 3244 1197 
L 1141 1197 
L 716 0 
L 50 0 
L 1831 4666 
z
" transform="scale(0.015625)"/>
       <path id="DejaVuSans-72" d="M 2631 2963 
Q 2534 3019 2420 3045 
Q 2306 3072 2169 3072 
Q 1681 3072 1420 2755 
Q 1159 2438 1159 1844 
L 1159 0 
L 581 0 
L 581 3500 
L 1159 3500 
L 1159 2956 
Q 1341 3275 1631 3429 
Q 1922 3584 2338 3584 
Q 2397 3584 2469 3576 
Q 2541 3569 2628 3553 
L 2631 2963 
z
" transform="scale(0.015625)"/>
       <path id="DejaVuSans-79" d="M 2059 -325 
Q 1816 -950 1584 -1140 
Q 1353 -1331 966 -1331 
L 506 -1331 
L 506 -850 
L 844 -850 
Q 1081 -850 1212 -737 
Q 1344 -625 1503 -206 
L 1606 56 
L 191 3500 
L 800 3500 
L 1894 763 
L 2988 3500 
L 3597 3500 
L 2059 -325 
z
" transform="scale(0.015625)"/>
      </defs>
      <use xlink:href="#DejaVuSans-47"/>
      <use xlink:href="#DejaVuSans-6c" x="77.490234"/>
      <use xlink:href="#DejaVuSans-6f" x="105.273438"/>
      <use xlink:href="#DejaVuSans-62" x="166.455078"/>
      <use xlink:href="#DejaVuSans-61" x="229.931641"/>
      <use xlink:href="#DejaVuSans-6c" x="291.210938"/>
      <use xlink:href="#DejaVuSans-20" x="318.994141"/>
      <use xlink:href="#DejaVuSans-41" x="350.78125"/>
      <use xlink:href="#DejaVuSans-63" x="417.439453"/>
      <use xlink:href="#DejaVuSans-63" x="472.419922"/>
      <use xlink:href="#DejaVuSans-75" x="527.400391"/>
      <use xlink:href="#DejaVuSans-72" x="590.779297"/>
      <use xlink:href="#DejaVuSans-61" x="631.892578"/>
      <use xlink:href="#DejaVuSans-63" x="693.171875"/>
      <use xlink:href="#DejaVuSans-79" x="748.152344"/>
     </g>
    </g>
   </g>
   <g id="line2d_29">
    <path d="M 67.544432 370.345398 
L 72.345075 361.219909 
L 77.145717 345.852308 
L 81.94636 319.457796 
L 86.747003 301.79376 
L 91.547646 277.20917 
L 96.348289 256.019021 
L 101.148931 240.957166 
L 105.949574 227.752099 
L 110.750217 215.122815 
L 115.55086 203.573682 
L 120.351503 197.847097 
L 125.152145 190.634189 
L 129.952788 184.345212 
L 134.753431 176.596692 
L 139.554074 170.644704 
L 144.354716 166.663321 
L 149.155359 162.628378 
L 153.956002 158.321165 
L 158.756645 155.248091 
L 163.557288 150.746719 
L 168.35793 146.374786 
L 173.158573 141.210594 
L 177.959216 136.637806 
L 182.759859 130.775087 
L 187.560502 125.720249 
L 192.361144 121.163084 
L 197.161787 118.143571 
L 201.96243 115.088351 
L 206.763073 113.93009 
L 211.563716 112.73389 
L 216.364358 109.982184 
L 221.165001 107.993724 
L 225.965644 105.85574 
L 230.766287 105.471885 
L 235.56693 104.605978 
L 240.367572 102.604129 
L 245.168215 102.595202 
L 249.968858 102.994679 
L 254.769501 101.171367 
L 259.570143 99.716287 
L 264.370786 99.432859 
L 269.171429 97.629632 
L 273.972072 94.70162 
L 278.772715 92.092744 
L 283.573357 89.584294 
L 288.374 88.294362 
L 293.174643 87.033442 
L 297.975286 84.91108 
L 302.775929 82.540997 
L 307.576571 79.838388 
L 312.377214 77.46161 
L 317.177857 75.790054 
L 321.9785 74.397463 
L 326.779143 72.480418 
L 331.579785 69.759956 
L 336.380428 67.115372 
L 341.181071 65.229571 
L 345.981714 64.406068 
L 350.782357 63.361624 
L 355.582999 62.009204 
L 360.383642 60.237221 
L 365.184285 58.978533 
L 369.984928 58.315713 
L 374.78557 57.853748 
L 379.586213 57.182001 
L 384.386856 56.878488 
L 389.187499 56.416523 
L 393.988142 55.98357 
L 398.788784 55.289506 
L 403.589427 54.854321 
L 408.39007 54.50171 
L 413.190713 54.15133 
L 417.991356 54.173647 
L 422.791998 54.064293 
L 427.592641 53.390315 
L 432.393284 52.191883 
L 437.193927 51.236708 
L 441.99457 50.747962 
L 446.795212 50.176643 
L 451.595855 49.754849 
L 456.396498 49.391079 
L 461.197141 48.784052 
L 465.997784 48.232818 
L 470.798426 47.855658 
L 475.599069 47.498583 
L 480.399712 47.00091 
L 485.200355 46.347017 
L 490.000997 45.864967 
L 494.80164 45.507892 
L 499.602283 45.05039 
L 504.402926 44.758035 
L 509.203569 44.450058 
L 514.004211 44.048349 
L 518.804854 43.602006 
L 523.605497 43.327505 
L 528.40614 42.936954 
L 533.206783 42.568721 
L 538.007425 42.149158 
L 542.808068 41.796547 
" clip-path="url(#pcbfa93131a)" style="fill: none; stroke: #808080; stroke-width: 2; stroke-linecap: square"/>
   </g>
   <g id="line2d_30">
    <path d="M 67.544432 363.018672 
L 72.345075 360.885151 
L 77.145717 360.258039 
L 81.94636 358.180311 
L 86.747003 345.894711 
L 91.547646 356.894842 
L 96.348289 355.636154 
L 101.148931 351.583356 
L 105.949574 346.568689 
L 110.750217 343.828141 
L 115.55086 337.356163 
L 120.351503 331.169845 
L 125.152145 314.824753 
L 129.952788 314.208799 
L 134.753431 303.021204 
L 139.554074 280.686184 
L 144.354716 264.144701 
L 149.155359 255.128566 
L 153.956002 246.746239 
L 158.756645 231.443358 
L 163.557288 223.828741 
L 168.35793 215.665122 
L 173.158573 206.954732 
L 177.959216 190.982337 
L 182.759859 179.268056 
L 187.560502 155.498043 
L 192.361144 152.246432 
L 197.161787 138.918621 
L 201.96243 131.118771 
L 206.763073 121.471061 
L 211.563716 109.930854 
L 216.364358 122.390528 
L 221.165001 112.930281 
L 225.965644 94.918097 
L 230.766287 98.258977 
L 235.56693 93.663872 
L 240.367572 81.03682 
L 245.168215 80.179841 
L 249.968858 67.746948 
L 254.769501 79.416594 
L 259.570143 65.849988 
L 264.370786 65.945952 
L 269.171429 65.762952 
L 273.972072 61.022786 
L 278.772715 59.224022 
L 283.573357 62.163193 
L 288.374 60.098855 
L 293.174643 57.588174 
L 297.975286 53.952707 
L 302.775929 50.567193 
L 307.576571 49.902142 
L 312.377214 51.977638 
L 317.177857 52.441835 
L 321.9785 50.951049 
L 326.779143 51.171989 
L 331.579785 47.779779 
L 336.380428 46.244358 
L 341.181071 46.85808 
L 345.981714 47.007605 
L 350.782357 49.2237 
L 355.582999 46.951813 
L 360.383642 46.445213 
L 365.184285 45.177598 
L 369.984928 45.255708 
L 374.78557 47.183911 
L 379.586213 45.844881 
L 384.386856 47.592315 
L 389.187499 45.644027 
L 393.988142 45.367294 
L 398.788784 44.429973 
L 403.589427 46.697397 
L 408.39007 45.155281 
L 413.190713 44.534863 
L 417.991356 44.298302 
L 422.791998 42.999442 
L 427.592641 41.854572 
L 432.393284 44.151008 
L 437.193927 46.603665 
L 441.99457 44.514778 
L 446.795212 45.681966 
L 451.595855 47.596779 
L 456.396498 46.257749 
L 461.197141 45.106183 
L 465.997784 45.14189 
L 470.798426 45.269098 
L 475.599069 44.476839 
L 480.399712 45.208842 
L 485.200355 46.262212 
L 490.000997 44.059508 
L 494.80164 46.137236 
L 499.602283 45.300342 
L 504.402926 43.499347 
L 509.203569 45.702051 
L 514.004211 46.592506 
L 518.804854 44.800438 
L 523.605497 44.204569 
L 528.40614 42.883393 
L 533.206783 44.182252 
L 538.007425 44.396497 
L 542.808068 45.628405 
" clip-path="url(#pcbfa93131a)" style="fill: none; stroke: #0000ff; stroke-width: 2; stroke-linecap: square"/>
   </g>
   <g id="line2d_31">
    <path d="M 67.544432 363.018672 
L 72.345075 360.885151 
L 77.145717 360.258039 
L 81.94636 358.180311 
L 86.747003 345.894711 
L 91.547646 356.894842 
L 96.348289 355.636154 
L 101.148931 351.583356 
L 105.949574 346.568689 
L 110.750217 343.828141 
L 115.55086 337.356163 
L 120.351503 331.169845 
L 125.152145 314.824753 
L 129.952788 314.208799 
L 134.753431 303.021204 
L 139.554074 280.686184 
L 144.354716 264.144701 
L 149.155359 255.128566 
L 153.956002 246.746239 
L 158.756645 231.443358 
L 163.557288 223.828741 
L 168.35793 215.665122 
L 173.158573 206.954732 
L 177.959216 190.982337 
L 182.759859 179.268056 
L 187.560502 155.498043 
L 192.361144 152.246432 
L 197.161787 138.918621 
L 201.96243 131.118771 
L 206.763073 121.471061 
L 211.563716 109.930854 
L 216.364358 122.390528 
L 221.165001 112.930281 
L 225.965644 94.918097 
L 230.766287 98.258977 
L 235.56693 93.663872 
L 240.367572 81.03682 
L 245.168215 80.179841 
L 249.968858 67.746948 
L 254.769501 79.416594 
L 259.570143 65.849988 
L 264.370786 65.945952 
L 269.171429 65.762952 
L 273.972072 61.022786 
L 278.772715 59.224022 
L 283.573357 62.163193 
L 288.374 60.098855 
L 293.174643 57.588174 
L 297.975286 53.952707 
L 302.775929 50.567193 
L 307.576571 49.902142 
L 312.377214 51.977638 
L 317.177857 52.441835 
L 321.9785 50.951049 
L 326.779143 51.171989 
L 331.579785 47.779779 
L 336.380428 46.244358 
L 341.181071 46.85808 
L 345.981714 47.007605 
L 350.782357 49.2237 
L 355.582999 46.951813 
L 360.383642 46.445213 
L 365.184285 45.177598 
L 369.984928 45.255708 
L 374.78557 47.183911 
L 379.586213 45.844881 
L 384.386856 47.592315 
L 389.187499 45.644027 
L 393.988142 45.367294 
L 398.788784 44.429973 
L 403.589427 46.697397 
L 408.39007 45.155281 
L 413.190713 44.534863 
L 417.991356 44.298302 
L 422.791998 42.999442 
L 427.592641 41.854572 
L 432.393284 44.151008 
L 437.193927 46.603665 
L 441.99457 44.514778 
L 446.795212 45.681966 
L 451.595855 47.596779 
L 456.396498 46.257749 
L 461.197141 45.106183 
L 465.997784 45.14189 
L 470.798426 45.269098 
L 475.599069 44.476839 
L 480.399712 45.208842 
L 485.200355 46.262212 
L 490.000997 44.059508 
L 494.80164 46.137236 
L 499.602283 45.300342 
L 504.402926 43.499347 
L 509.203569 45.702051 
L 514.004211 46.592506 
L 518.804854 44.800438 
L 523.605497 44.204569 
L 528.40614 42.883393 
L 533.206783 44.182252 
L 538.007425 44.396497 
L 542.808068 45.628405 
" clip-path="url(#pcbfa93131a)" style="fill: none; stroke: #00ffff; stroke-width: 2; stroke-linecap: square"/>
   </g>
   <g id="line2d_32">
    <path d="M 67.544432 351.244136 
L 72.345075 341.69462 
L 77.145717 324.733574 
L 81.94636 303.541194 
L 86.747003 276.773985 
L 91.547646 257.326807 
L 96.348289 244.074874 
L 101.148931 230.56183 
L 105.949574 215.321438 
L 110.750217 198.050183 
L 115.55086 183.122231 
L 120.351503 167.625191 
L 125.152145 153.558682 
L 129.952788 142.614343 
L 134.753431 134.852433 
L 139.554074 128.666115 
L 144.354716 122.651639 
L 149.155359 119.257198 
L 153.956002 116.36043 
L 158.756645 112.439304 
L 163.557288 107.694674 
L 168.35793 103.677584 
L 173.158573 99.493116 
L 177.959216 95.022988 
L 182.759859 91.54151 
L 187.560502 88.571095 
L 192.361144 84.656664 
L 197.161787 80.474427 
L 201.96243 76.064555 
L 206.763073 72.10549 
L 211.563716 69.387259 
L 216.364358 65.408109 
L 221.165001 61.957875 
L 225.965644 59.340071 
L 230.766287 56.316095 
L 235.56693 55.717995 
L 240.367572 55.523836 
L 245.168215 56.443303 
L 249.968858 56.898573 
L 254.769501 56.619609 
L 259.570143 55.943399 
L 264.370786 54.840931 
L 269.171429 54.238367 
L 273.972072 53.557694 
L 278.772715 53.010923 
L 283.573357 52.394969 
L 288.374 51.127354 
L 293.174643 49.295115 
L 297.975286 48.241745 
L 302.775929 47.072325 
L 307.576571 46.355944 
L 312.377214 45.871662 
L 317.177857 45.842649 
L 321.9785 45.260171 
L 326.779143 44.635291 
L 331.579785 44.148777 
L 336.380428 43.811787 
L 341.181071 43.55514 
L 345.981714 43.352054 
L 350.782357 42.965967 
L 355.582999 42.7361 
L 360.383642 42.499538 
L 365.184285 42.162549 
L 369.984928 41.776462 
L 374.78557 41.495266 
L 379.586213 41.120337 
L 384.386856 40.830214 
L 389.187499 40.571335 
L 393.988142 40.383871 
L 398.788784 40.294602 
L 403.589427 40.247736 
L 408.39007 40.205333 
L 413.190713 40.189711 
L 417.991356 40.194175 
L 422.791998 40.18748 
L 427.592641 40.156236 
L 432.393284 40.10937 
L 437.193927 40.075894 
L 441.99457 40.008942 
L 446.795212 39.892893 
L 451.595855 39.788002 
L 456.396498 39.676417 
L 461.197141 39.605002 
L 465.997784 39.578221 
L 470.798426 39.569294 
L 475.599069 39.515733 
L 480.399712 39.468867 
L 485.200355 39.430928 
L 490.000997 39.406379 
L 494.80164 39.386293 
L 499.602283 39.3305 
L 504.402926 39.299256 
L 509.203569 39.261317 
L 514.004211 39.22561 
L 518.804854 39.216683 
L 523.605497 39.207756 
L 528.40614 39.201061 
L 533.206783 39.196597 
L 538.007425 39.192134 
L 542.808068 39.178744 
" clip-path="url(#pcbfa93131a)" style="fill: none; stroke: #008000; stroke-width: 2; stroke-linecap: square"/>
   </g>
   <g id="line2d_33">
    <path d="M 67.544432 350.335827 
L 72.345075 337.594957 
L 77.145717 321.62033 
L 81.94636 299.559811 
L 86.747003 278.726737 
L 91.547646 254.628662 
L 96.348289 235.877779 
L 101.148931 217.713838 
L 105.949574 200.496144 
L 110.750217 182.986096 
L 115.55086 164.052213 
L 120.351503 149.00598 
L 125.152145 132.745693 
L 129.952788 119.542858 
L 134.753431 110.734272 
L 139.554074 106.157022 
L 144.354716 100.555413 
L 149.155359 94.866767 
L 153.956002 90.314066 
L 158.756645 87.475322 
L 163.557288 86.906234 
L 168.35793 86.413025 
L 173.158573 84.408944 
L 177.959216 82.489667 
L 182.759859 80.900685 
L 187.560502 79.130934 
L 192.361144 77.970441 
L 197.161787 76.086872 
L 201.96243 73.239202 
L 206.763073 70.460715 
L 211.563716 67.742484 
L 216.364358 64.908204 
L 221.165001 62.1989 
L 225.965644 58.300091 
L 230.766287 54.861016 
L 235.56693 53.557694 
L 240.367572 52.586897 
L 245.168215 51.529063 
L 249.968858 50.881865 
L 254.769501 50.819377 
L 259.570143 50.377497 
L 264.370786 49.551762 
L 269.171429 48.779588 
L 273.972072 48.065439 
L 278.772715 47.215155 
L 283.573357 46.326932 
L 288.374 45.708746 
L 293.174643 45.320428 
L 297.975286 44.912024 
L 302.775929 44.668766 
L 307.576571 44.249204 
L 312.377214 43.811787 
L 317.177857 43.735909 
L 321.9785 43.488188 
L 326.779143 43.244931 
L 331.579785 42.916869 
L 336.380428 42.640136 
L 341.181071 42.43705 
L 345.981714 42.162549 
L 350.782357 41.870194 
L 355.582999 41.421619 
L 360.383642 41.140423 
L 365.184285 40.879312 
L 369.984928 40.611506 
L 374.78557 40.417346 
L 379.586213 40.303529 
L 384.386856 40.21426 
L 389.187499 40.089284 
L 393.988142 39.968771 
L 398.788784 39.861649 
L 403.589427 39.781307 
L 408.39007 39.705429 
L 413.190713 39.596075 
L 417.991356 39.553672 
L 422.791998 39.535818 
L 427.592641 39.500111 
L 432.393284 39.45994 
L 437.193927 39.468867 
L 441.99457 39.511269 
L 446.795212 39.542514 
L 451.595855 39.562599 
L 456.396498 39.593843 
L 461.197141 39.605002 
L 465.997784 39.587148 
L 470.798426 39.511269 
L 475.599069 39.435391 
L 480.399712 39.444318 
L 485.200355 39.471099 
L 490.000997 39.480025 
L 494.80164 39.504574 
L 499.602283 39.500111 
L 504.402926 39.491184 
L 509.203569 39.484489 
L 514.004211 39.482257 
L 518.804854 39.488952 
L 523.605497 39.535818 
L 528.40614 39.564831 
L 533.206783 39.567062 
L 538.007425 39.558136 
L 542.808068 39.500111 
" clip-path="url(#pcbfa93131a)" style="fill: none; stroke: #ffa500; stroke-width: 2; stroke-linecap: square"/>
   </g>
   <g id="line2d_34">
    <path d="M 67.544432 333.622502 
L 72.345075 296.07387 
L 77.145717 273.54246 
L 81.94636 259.346511 
L 86.747003 235.719327 
L 91.547646 228.303333 
L 96.348289 214.930887 
L 101.148931 203.033606 
L 105.949574 174.780074 
L 110.750217 147.452705 
L 115.55086 122.058002 
L 120.351503 103.507974 
L 125.152145 87.138333 
L 129.952788 75.790054 
L 134.753431 66.907822 
L 139.554074 62.663097 
L 144.354716 54.457075 
L 149.155359 44.36079 
L 153.956002 39.747831 
L 158.756645 38.919865 
L 163.557288 38.890852 
L 168.35793 38.890852 
L 173.158573 38.890852 
L 177.959216 38.890852 
L 182.759859 38.890852 
L 187.560502 38.890852 
L 192.361144 38.890852 
L 197.161787 38.890852 
L 201.96243 38.890852 
L 206.763073 38.890852 
L 211.563716 38.890852 
L 216.364358 38.890852 
L 221.165001 38.890852 
L 225.965644 38.890852 
L 230.766287 38.890852 
L 235.56693 38.890852 
L 240.367572 38.890852 
L 245.168215 38.890852 
L 249.968858 38.890852 
L 254.769501 38.890852 
L 259.570143 38.890852 
L 264.370786 38.890852 
L 269.171429 38.890852 
L 273.972072 38.890852 
L 278.772715 38.890852 
L 283.573357 38.890852 
L 288.374 38.890852 
L 293.174643 38.890852 
L 297.975286 38.890852 
L 302.775929 38.890852 
L 307.576571 38.890852 
L 312.377214 38.890852 
L 317.177857 38.890852 
L 321.9785 38.890852 
L 326.779143 38.890852 
L 331.579785 38.890852 
L 336.380428 38.890852 
L 341.181071 38.890852 
L 345.981714 38.890852 
L 350.782357 38.890852 
L 355.582999 38.890852 
L 360.383642 38.890852 
L 365.184285 38.890852 
L 369.984928 38.890852 
L 374.78557 38.890852 
L 379.586213 38.890852 
L 384.386856 38.890852 
L 389.187499 38.890852 
L 393.988142 38.890852 
L 398.788784 38.890852 
L 403.589427 38.890852 
L 408.39007 38.890852 
L 413.190713 38.890852 
L 417.991356 38.890852 
L 422.791998 38.890852 
L 427.592641 38.890852 
L 432.393284 38.890852 
L 437.193927 38.890852 
L 441.99457 38.890852 
L 446.795212 38.890852 
L 451.595855 38.890852 
L 456.396498 38.890852 
L 461.197141 38.890852 
L 465.997784 38.890852 
L 470.798426 38.890852 
L 475.599069 38.890852 
L 480.399712 38.890852 
L 485.200355 38.890852 
L 490.000997 38.890852 
L 494.80164 38.890852 
L 499.602283 38.890852 
L 504.402926 38.890852 
L 509.203569 38.890852 
L 514.004211 38.890852 
L 518.804854 38.890852 
L 523.605497 38.890852 
L 528.40614 38.890852 
L 533.206783 38.890852 
L 538.007425 38.890852 
L 542.808068 38.890852 
" clip-path="url(#pcbfa93131a)" style="fill: none; stroke: #ff0000; stroke-width: 2; stroke-linecap: square"/>
   </g>
   <g id="line2d_35">
    <path d="M 67.544432 364.473751 
L 72.345075 364.612118 
L 77.145717 363.402527 
L 81.94636 364.257275 
L 86.747003 358.405714 
L 91.547646 364.674606 
L 96.348289 364.955802 
L 101.148931 364.812972 
L 105.949574 365.007132 
L 110.750217 363.897969 
L 115.55086 362.433962 
L 120.351503 361.431922 
L 125.152145 361.041371 
L 129.952788 360.079501 
L 134.753431 356.926086 
L 139.554074 357.209514 
L 144.354716 355.285774 
L 149.155359 354.297124 
L 153.956002 348.697747 
L 158.756645 347.104301 
L 163.557288 344.984171 
L 168.35793 343.645141 
L 173.158573 336.371976 
L 177.959216 336.197902 
L 182.759859 328.306553 
L 187.560502 320.582582 
L 192.361144 311.153579 
L 197.161787 301.700028 
L 201.96243 285.676303 
L 206.763073 276.555277 
L 211.563716 274.482012 
L 216.364358 254.679991 
L 221.165001 241.883328 
L 225.965644 231.883006 
L 230.766287 217.15814 
L 235.56693 199.253078 
L 240.367572 194.12013 
L 245.168215 187.927117 
L 249.968858 182.546448 
L 254.769501 165.627805 
L 259.570143 165.201547 
L 264.370786 160.461381 
L 269.171429 146.283285 
L 273.972072 142.170232 
L 278.772715 140.703994 
L 283.573357 135.88795 
L 288.374 125.472528 
L 293.174643 118.710427 
L 297.975286 117.641435 
L 302.775929 111.789874 
L 307.576571 104.588125 
L 312.377214 120.783692 
L 317.177857 110.252221 
L 321.9785 104.16633 
L 326.779143 103.521364 
L 331.579785 89.720429 
L 336.380428 88.428265 
L 341.181071 85.390899 
L 345.981714 81.164028 
L 350.782357 84.121052 
L 355.582999 79.157714 
L 360.383642 75.254442 
L 365.184285 82.065641 
L 369.984928 74.573769 
L 374.78557 64.917131 
L 379.586213 58.695105 
L 384.386856 56.927586 
L 389.187499 58.637081 
L 393.988142 53.245253 
L 398.788784 51.334904 
L 403.589427 51.60271 
L 408.39007 50.669852 
L 413.190713 51.136281 
L 417.991356 49.333054 
L 422.791998 50.616291 
L 427.592641 51.649576 
L 432.393284 52.379347 
L 437.193927 50.582815 
L 441.99457 46.699629 
L 446.795212 48.826454 
L 451.595855 50.357412 
L 456.396498 50.129777 
L 461.197141 48.821991 
L 465.997784 49.949008 
L 470.798426 51.259026 
L 475.599069 49.931154 
L 480.399712 46.84469 
L 485.200355 46.588043 
L 490.000997 46.331395 
L 494.80164 48.17033 
L 499.602283 45.541368 
L 504.402926 45.137427 
L 509.203569 45.795783 
L 514.004211 48.964821 
L 518.804854 50.152094 
L 523.605497 47.032154 
L 528.40614 45.802478 
L 533.206783 47.686047 
L 538.007425 46.878166 
L 542.808068 47.400388 
" clip-path="url(#pcbfa93131a)" style="fill: none; stroke: #ff00ff; stroke-width: 2; stroke-linecap: square"/>
   </g>
   <g id="patch_3">
    <path d="M 43.78125 386.918125 
L 43.78125 22.318125 
" style="fill: none; stroke: #000000; stroke-width: 0.8; stroke-linejoin: miter; stroke-linecap: square"/>
   </g>
   <g id="patch_4">
    <path d="M 566.57125 386.918125 
L 566.57125 22.318125 
" style="fill: none; stroke: #000000; stroke-width: 0.8; stroke-linejoin: miter; stroke-linecap: square"/>
   </g>
   <g id="patch_5">
    <path d="M 43.78125 386.918125 
L 566.57125 386.918125 
" style="fill: none; stroke: #000000; stroke-width: 0.8; stroke-linejoin: miter; stroke-linecap: square"/>
   </g>
   <g id="patch_6">
    <path d="M 43.78125 22.318125 
L 566.57125 22.318125 
" style="fill: none; stroke: #000000; stroke-width: 0.8; stroke-linejoin: miter; stroke-linecap: square"/>
   </g>
   <g id="text_17">
    <!-- Accuracy Comparison - mhealth -->
    <g transform="translate(209.135938 16.318125) scale(0.12 -0.12)">
     <defs>
      <path id="DejaVuSans-70" d="M 1159 525 
L 1159 -1331 
L 581 -1331 
L 581 3500 
L 1159 3500 
L 1159 2969 
Q 1341 3281 1617 3432 
Q 1894 3584 2278 3584 
Q 2916 3584 3314 3078 
Q 3713 2572 3713 1747 
Q 3713 922 3314 415 
Q 2916 -91 2278 -91 
Q 1894 -91 1617 61 
Q 1341 213 1159 525 
z
M 3116 1747 
Q 3116 2381 2855 2742 
Q 2594 3103 2138 3103 
Q 1681 3103 1420 2742 
Q 1159 2381 1159 1747 
Q 1159 1113 1420 752 
Q 1681 391 2138 391 
Q 2594 391 2855 752 
Q 3116 1113 3116 1747 
z
" transform="scale(0.015625)"/>
      <path id="DejaVuSans-2d" d="M 313 2009 
L 1997 2009 
L 1997 1497 
L 313 1497 
L 313 2009 
z
" transform="scale(0.015625)"/>
      <path id="DejaVuSans-68" d="M 3513 2113 
L 3513 0 
L 2938 0 
L 2938 2094 
Q 2938 2591 2744 2837 
Q 2550 3084 2163 3084 
Q 1697 3084 1428 2787 
Q 1159 2491 1159 1978 
L 1159 0 
L 581 0 
L 581 4863 
L 1159 4863 
L 1159 2956 
Q 1366 3272 1645 3428 
Q 1925 3584 2291 3584 
Q 2894 3584 3203 3211 
Q 3513 2838 3513 2113 
z
" transform="scale(0.015625)"/>
      <path id="DejaVuSans-65" d="M 3597 1894 
L 3597 1613 
L 953 1613 
Q 991 1019 1311 708 
Q 1631 397 2203 397 
Q 2534 397 2845 478 
Q 3156 559 3463 722 
L 3463 178 
Q 3153 47 2828 -22 
Q 2503 -91 2169 -91 
Q 1331 -91 842 396 
Q 353 884 353 1716 
Q 353 2575 817 3079 
Q 1281 3584 2069 3584 
Q 2775 3584 3186 3129 
Q 3597 2675 3597 1894 
z
M 3022 2063 
Q 3016 2534 2758 2815 
Q 2500 3097 2075 3097 
Q 1594 3097 1305 2825 
Q 1016 2553 972 2059 
L 3022 2063 
z
" transform="scale(0.015625)"/>
     </defs>
     <use xlink:href="#DejaVuSans-41"/>
     <use xlink:href="#DejaVuSans-63" x="66.658203"/>
     <use xlink:href="#DejaVuSans-63" x="121.638672"/>
     <use xlink:href="#DejaVuSans-75" x="176.619141"/>
     <use xlink:href="#DejaVuSans-72" x="239.998047"/>
     <use xlink:href="#DejaVuSans-61" x="281.111328"/>
     <use xlink:href="#DejaVuSans-63" x="342.390625"/>
     <use xlink:href="#DejaVuSans-79" x="397.371094"/>
     <use xlink:href="#DejaVuSans-20" x="456.550781"/>
     <use xlink:href="#DejaVuSans-43" x="488.337891"/>
     <use xlink:href="#DejaVuSans-6f" x="558.162109"/>
     <use xlink:href="#DejaVuSans-6d" x="619.34375"/>
     <use xlink:href="#DejaVuSans-70" x="716.755859"/>
     <use xlink:href="#DejaVuSans-61" x="780.232422"/>
     <use xlink:href="#DejaVuSans-72" x="841.511719"/>
     <use xlink:href="#DejaVuSans-69" x="882.625"/>
     <use xlink:href="#DejaVuSans-73" x="910.408203"/>
     <use xlink:href="#DejaVuSans-6f" x="962.507812"/>
     <use xlink:href="#DejaVuSans-6e" x="1023.689453"/>
     <use xlink:href="#DejaVuSans-20" x="1087.068359"/>
     <use xlink:href="#DejaVuSans-2d" x="1118.855469"/>
     <use xlink:href="#DejaVuSans-20" x="1154.939453"/>
     <use xlink:href="#DejaVuSans-6d" x="1186.726562"/>
     <use xlink:href="#DejaVuSans-68" x="1284.138672"/>
     <use xlink:href="#DejaVuSans-65" x="1347.517578"/>
     <use xlink:href="#DejaVuSans-61" x="1409.041016"/>
     <use xlink:href="#DejaVuSans-6c" x="1470.320312"/>
     <use xlink:href="#DejaVuSans-74" x="1498.103516"/>
     <use xlink:href="#DejaVuSans-68" x="1537.3125"/>
    </g>
   </g>
   <g id="legend_1">
    <g id="patch_7">
     <path d="M 483.030625 381.918125 
L 559.57125 381.918125 
Q 561.57125 381.918125 561.57125 379.918125 
L 561.57125 278.17125 
Q 561.57125 276.17125 559.57125 276.17125 
L 483.030625 276.17125 
Q 481.030625 276.17125 481.030625 278.17125 
L 481.030625 379.918125 
Q 481.030625 381.918125 483.030625 381.918125 
z
" style="fill: #ffffff; opacity: 0.8; stroke: #cccccc; stroke-linejoin: miter"/>
    </g>
    <g id="line2d_36">
     <path d="M 485.030625 284.269687 
L 495.030625 284.269687 
L 505.030625 284.269687 
" style="fill: none; stroke: #808080; stroke-width: 2; stroke-linecap: square"/>
    </g>
    <g id="text_18">
     <!-- Single -->
     <g transform="translate(513.030625 287.769687) scale(0.1 -0.1)">
      <defs>
       <path id="DejaVuSans-53" d="M 3425 4513 
L 3425 3897 
Q 3066 4069 2747 4153 
Q 2428 4238 2131 4238 
Q 1616 4238 1336 4038 
Q 1056 3838 1056 3469 
Q 1056 3159 1242 3001 
Q 1428 2844 1947 2747 
L 2328 2669 
Q 3034 2534 3370 2195 
Q 3706 1856 3706 1288 
Q 3706 609 3251 259 
Q 2797 -91 1919 -91 
Q 1588 -91 1214 -16 
Q 841 59 441 206 
L 441 856 
Q 825 641 1194 531 
Q 1563 422 1919 422 
Q 2459 422 2753 634 
Q 3047 847 3047 1241 
Q 3047 1584 2836 1778 
Q 2625 1972 2144 2069 
L 1759 2144 
Q 1053 2284 737 2584 
Q 422 2884 422 3419 
Q 422 4038 858 4394 
Q 1294 4750 2059 4750 
Q 2388 4750 2728 4690 
Q 3069 4631 3425 4513 
z
" transform="scale(0.015625)"/>
       <path id="DejaVuSans-67" d="M 2906 1791 
Q 2906 2416 2648 2759 
Q 2391 3103 1925 3103 
Q 1463 3103 1205 2759 
Q 947 2416 947 1791 
Q 947 1169 1205 825 
Q 1463 481 1925 481 
Q 2391 481 2648 825 
Q 2906 1169 2906 1791 
z
M 3481 434 
Q 3481 -459 3084 -895 
Q 2688 -1331 1869 -1331 
Q 1566 -1331 1297 -1286 
Q 1028 -1241 775 -1147 
L 775 -588 
Q 1028 -725 1275 -790 
Q 1522 -856 1778 -856 
Q 2344 -856 2625 -561 
Q 2906 -266 2906 331 
L 2906 616 
Q 2728 306 2450 153 
Q 2172 0 1784 0 
Q 1141 0 747 490 
Q 353 981 353 1791 
Q 353 2603 747 3093 
Q 1141 3584 1784 3584 
Q 2172 3584 2450 3431 
Q 2728 3278 2906 2969 
L 2906 3500 
L 3481 3500 
L 3481 434 
z
" transform="scale(0.015625)"/>
      </defs>
      <use xlink:href="#DejaVuSans-53"/>
      <use xlink:href="#DejaVuSans-69" x="63.476562"/>
      <use xlink:href="#DejaVuSans-6e" x="91.259766"/>
      <use xlink:href="#DejaVuSans-67" x="154.638672"/>
      <use xlink:href="#DejaVuSans-6c" x="218.115234"/>
      <use xlink:href="#DejaVuSans-65" x="245.898438"/>
     </g>
    </g>
    <g id="line2d_37">
     <path d="M 485.030625 298.947812 
L 495.030625 298.947812 
L 505.030625 298.947812 
" style="fill: none; stroke: #0000ff; stroke-width: 2; stroke-linecap: square"/>
    </g>
    <g id="text_19">
     <!-- FedAvg -->
     <g transform="translate(513.030625 302.447812) scale(0.1 -0.1)">
      <defs>
       <path id="DejaVuSans-46" d="M 628 4666 
L 3309 4666 
L 3309 4134 
L 1259 4134 
L 1259 2759 
L 3109 2759 
L 3109 2228 
L 1259 2228 
L 1259 0 
L 628 0 
L 628 4666 
z
" transform="scale(0.015625)"/>
       <path id="DejaVuSans-76" d="M 191 3500 
L 800 3500 
L 1894 563 
L 2988 3500 
L 3597 3500 
L 2284 0 
L 1503 0 
L 191 3500 
z
" transform="scale(0.015625)"/>
      </defs>
      <use xlink:href="#DejaVuSans-46"/>
      <use xlink:href="#DejaVuSans-65" x="52.019531"/>
      <use xlink:href="#DejaVuSans-64" x="113.542969"/>
      <use xlink:href="#DejaVuSans-41" x="177.019531"/>
      <use xlink:href="#DejaVuSans-76" x="239.552734"/>
      <use xlink:href="#DejaVuSans-67" x="298.732422"/>
     </g>
    </g>
    <g id="line2d_38">
     <path d="M 485.030625 313.625937 
L 495.030625 313.625937 
L 505.030625 313.625937 
" style="fill: none; stroke: #00ffff; stroke-width: 2; stroke-linecap: square"/>
    </g>
    <g id="text_20">
     <!-- FedProx -->
     <g transform="translate(513.030625 317.125937) scale(0.1 -0.1)">
      <defs>
       <path id="DejaVuSans-50" d="M 1259 4147 
L 1259 2394 
L 2053 2394 
Q 2494 2394 2734 2622 
Q 2975 2850 2975 3272 
Q 2975 3691 2734 3919 
Q 2494 4147 2053 4147 
L 1259 4147 
z
M 628 4666 
L 2053 4666 
Q 2838 4666 3239 4311 
Q 3641 3956 3641 3272 
Q 3641 2581 3239 2228 
Q 2838 1875 2053 1875 
L 1259 1875 
L 1259 0 
L 628 0 
L 628 4666 
z
" transform="scale(0.015625)"/>
       <path id="DejaVuSans-78" d="M 3513 3500 
L 2247 1797 
L 3578 0 
L 2900 0 
L 1881 1375 
L 863 0 
L 184 0 
L 1544 1831 
L 300 3500 
L 978 3500 
L 1906 2253 
L 2834 3500 
L 3513 3500 
z
" transform="scale(0.015625)"/>
      </defs>
      <use xlink:href="#DejaVuSans-46"/>
      <use xlink:href="#DejaVuSans-65" x="52.019531"/>
      <use xlink:href="#DejaVuSans-64" x="113.542969"/>
      <use xlink:href="#DejaVuSans-50" x="177.019531"/>
      <use xlink:href="#DejaVuSans-72" x="235.572266"/>
      <use xlink:href="#DejaVuSans-6f" x="274.435547"/>
      <use xlink:href="#DejaVuSans-78" x="332.492188"/>
     </g>
    </g>
    <g id="line2d_39">
     <path d="M 485.030625 328.304062 
L 495.030625 328.304062 
L 505.030625 328.304062 
" style="fill: none; stroke: #008000; stroke-width: 2; stroke-linecap: square"/>
    </g>
    <g id="text_21">
     <!-- FedProto -->
     <g transform="translate(513.030625 331.804062) scale(0.1 -0.1)">
      <use xlink:href="#DejaVuSans-46"/>
      <use xlink:href="#DejaVuSans-65" x="52.019531"/>
      <use xlink:href="#DejaVuSans-64" x="113.542969"/>
      <use xlink:href="#DejaVuSans-50" x="177.019531"/>
      <use xlink:href="#DejaVuSans-72" x="235.572266"/>
      <use xlink:href="#DejaVuSans-6f" x="274.435547"/>
      <use xlink:href="#DejaVuSans-74" x="335.617188"/>
      <use xlink:href="#DejaVuSans-6f" x="374.826172"/>
     </g>
    </g>
    <g id="line2d_40">
     <path d="M 485.030625 342.982187 
L 495.030625 342.982187 
L 505.030625 342.982187 
" style="fill: none; stroke: #ffa500; stroke-width: 2; stroke-linecap: square"/>
    </g>
    <g id="text_22">
     <!-- FedMEKT -->
     <g transform="translate(513.030625 346.482187) scale(0.1 -0.1)">
      <defs>
       <path id="DejaVuSans-4d" d="M 628 4666 
L 1569 4666 
L 2759 1491 
L 3956 4666 
L 4897 4666 
L 4897 0 
L 4281 0 
L 4281 4097 
L 3078 897 
L 2444 897 
L 1241 4097 
L 1241 0 
L 628 0 
L 628 4666 
z
" transform="scale(0.015625)"/>
       <path id="DejaVuSans-45" d="M 628 4666 
L 3578 4666 
L 3578 4134 
L 1259 4134 
L 1259 2753 
L 3481 2753 
L 3481 2222 
L 1259 2222 
L 1259 531 
L 3634 531 
L 3634 0 
L 628 0 
L 628 4666 
z
" transform="scale(0.015625)"/>
       <path id="DejaVuSans-4b" d="M 628 4666 
L 1259 4666 
L 1259 2694 
L 3353 4666 
L 4166 4666 
L 1850 2491 
L 4331 0 
L 3500 0 
L 1259 2247 
L 1259 0 
L 628 0 
L 628 4666 
z
" transform="scale(0.015625)"/>
       <path id="DejaVuSans-54" d="M -19 4666 
L 3928 4666 
L 3928 4134 
L 2272 4134 
L 2272 0 
L 1638 0 
L 1638 4134 
L -19 4134 
L -19 4666 
z
" transform="scale(0.015625)"/>
      </defs>
      <use xlink:href="#DejaVuSans-46"/>
      <use xlink:href="#DejaVuSans-65" x="52.019531"/>
      <use xlink:href="#DejaVuSans-64" x="113.542969"/>
      <use xlink:href="#DejaVuSans-4d" x="177.019531"/>
      <use xlink:href="#DejaVuSans-45" x="263.298828"/>
      <use xlink:href="#DejaVuSans-4b" x="326.482422"/>
      <use xlink:href="#DejaVuSans-54" x="384.308594"/>
     </g>
    </g>
    <g id="line2d_41">
     <path d="M 485.030625 357.660312 
L 495.030625 357.660312 
L 505.030625 357.660312 
" style="fill: none; stroke: #ff0000; stroke-width: 2; stroke-linecap: square"/>
    </g>
    <g id="text_23">
     <!-- FedProp -->
     <g transform="translate(513.030625 361.160312) scale(0.1 -0.1)">
      <use xlink:href="#DejaVuSans-46"/>
      <use xlink:href="#DejaVuSans-65" x="52.019531"/>
      <use xlink:href="#DejaVuSans-64" x="113.542969"/>
      <use xlink:href="#DejaVuSans-50" x="177.019531"/>
      <use xlink:href="#DejaVuSans-72" x="235.572266"/>
      <use xlink:href="#DejaVuSans-6f" x="274.435547"/>
      <use xlink:href="#DejaVuSans-70" x="335.617188"/>
     </g>
    </g>
    <g id="line2d_42">
     <path d="M 485.030625 372.338437 
L 495.030625 372.338437 
L 505.030625 372.338437 
" style="fill: none; stroke: #ff00ff; stroke-width: 2; stroke-linecap: square"/>
    </g>
    <g id="text_24">
     <!-- FedDTG -->
     <g transform="translate(513.030625 375.838437) scale(0.1 -0.1)">
      <defs>
       <path id="DejaVuSans-44" d="M 1259 4147 
L 1259 519 
L 2022 519 
Q 2988 519 3436 956 
Q 3884 1394 3884 2338 
Q 3884 3275 3436 3711 
Q 2988 4147 2022 4147 
L 1259 4147 
z
M 628 4666 
L 1925 4666 
Q 3281 4666 3915 4102 
Q 4550 3538 4550 2338 
Q 4550 1131 3912 565 
Q 3275 0 1925 0 
L 628 0 
L 628 4666 
z
" transform="scale(0.015625)"/>
      </defs>
      <use xlink:href="#DejaVuSans-46"/>
      <use xlink:href="#DejaVuSans-65" x="52.019531"/>
      <use xlink:href="#DejaVuSans-64" x="113.542969"/>
      <use xlink:href="#DejaVuSans-44" x="177.019531"/>
      <use xlink:href="#DejaVuSans-54" x="254.021484"/>
      <use xlink:href="#DejaVuSans-47" x="315.105469"/>
     </g>
    </g>
   </g>
  </g>
  <g id="axes_2">
   <g id="patch_8">
    <path d="M 614.38125 386.918125 
L 1137.17125 386.918125 
L 1137.17125 22.318125 
L 614.38125 22.318125 
z
" style="fill: #ffffff"/>
   </g>
   <g id="matplotlib.axis_3">
    <g id="xtick_7">
     <g id="line2d_43">
      <path d="M 633.343789 386.918125 
L 633.343789 22.318125 
" clip-path="url(#pd7592f7ee0)" style="fill: none; stroke: #b0b0b0; stroke-opacity: 0.3; stroke-width: 0.8; stroke-linecap: square"/>
     </g>
     <g id="line2d_44">
      <g>
       <use xlink:href="#m29ad1d87d2" x="633.343789" y="386.918125" style="stroke: #000000; stroke-width: 0.8"/>
      </g>
     </g>
     <g id="text_25">
      <!-- 0 -->
      <g transform="translate(630.162539 401.516562) scale(0.1 -0.1)">
       <use xlink:href="#DejaVuSans-30"/>
      </g>
     </g>
    </g>
    <g id="xtick_8">
     <g id="line2d_45">
      <path d="M 729.356645 386.918125 
L 729.356645 22.318125 
" clip-path="url(#pd7592f7ee0)" style="fill: none; stroke: #b0b0b0; stroke-opacity: 0.3; stroke-width: 0.8; stroke-linecap: square"/>
     </g>
     <g id="line2d_46">
      <g>
       <use xlink:href="#m29ad1d87d2" x="729.356645" y="386.918125" style="stroke: #000000; stroke-width: 0.8"/>
      </g>
     </g>
     <g id="text_26">
      <!-- 20 -->
      <g transform="translate(722.994145 401.516562) scale(0.1 -0.1)">
       <use xlink:href="#DejaVuSans-32"/>
       <use xlink:href="#DejaVuSans-30" x="63.623047"/>
      </g>
     </g>
    </g>
    <g id="xtick_9">
     <g id="line2d_47">
      <path d="M 825.369501 386.918125 
L 825.369501 22.318125 
" clip-path="url(#pd7592f7ee0)" style="fill: none; stroke: #b0b0b0; stroke-opacity: 0.3; stroke-width: 0.8; stroke-linecap: square"/>
     </g>
     <g id="line2d_48">
      <g>
       <use xlink:href="#m29ad1d87d2" x="825.369501" y="386.918125" style="stroke: #000000; stroke-width: 0.8"/>
      </g>
     </g>
     <g id="text_27">
      <!-- 40 -->
      <g transform="translate(819.007001 401.516562) scale(0.1 -0.1)">
       <use xlink:href="#DejaVuSans-34"/>
       <use xlink:href="#DejaVuSans-30" x="63.623047"/>
      </g>
     </g>
    </g>
    <g id="xtick_10">
     <g id="line2d_49">
      <path d="M 921.382357 386.918125 
L 921.382357 22.318125 
" clip-path="url(#pd7592f7ee0)" style="fill: none; stroke: #b0b0b0; stroke-opacity: 0.3; stroke-width: 0.8; stroke-linecap: square"/>
     </g>
     <g id="line2d_50">
      <g>
       <use xlink:href="#m29ad1d87d2" x="921.382357" y="386.918125" style="stroke: #000000; stroke-width: 0.8"/>
      </g>
     </g>
     <g id="text_28">
      <!-- 60 -->
      <g transform="translate(915.019857 401.516562) scale(0.1 -0.1)">
       <use xlink:href="#DejaVuSans-36"/>
       <use xlink:href="#DejaVuSans-30" x="63.623047"/>
      </g>
     </g>
    </g>
    <g id="xtick_11">
     <g id="line2d_51">
      <path d="M 1017.395212 386.918125 
L 1017.395212 22.318125 
" clip-path="url(#pd7592f7ee0)" style="fill: none; stroke: #b0b0b0; stroke-opacity: 0.3; stroke-width: 0.8; stroke-linecap: square"/>
     </g>
     <g id="line2d_52">
      <g>
       <use xlink:href="#m29ad1d87d2" x="1017.395212" y="386.918125" style="stroke: #000000; stroke-width: 0.8"/>
      </g>
     </g>
     <g id="text_29">
      <!-- 80 -->
      <g transform="translate(1011.032712 401.516562) scale(0.1 -0.1)">
       <use xlink:href="#DejaVuSans-38"/>
       <use xlink:href="#DejaVuSans-30" x="63.623047"/>
      </g>
     </g>
    </g>
    <g id="xtick_12">
     <g id="line2d_53">
      <path d="M 1113.408068 386.918125 
L 1113.408068 22.318125 
" clip-path="url(#pd7592f7ee0)" style="fill: none; stroke: #b0b0b0; stroke-opacity: 0.3; stroke-width: 0.8; stroke-linecap: square"/>
     </g>
     <g id="line2d_54">
      <g>
       <use xlink:href="#m29ad1d87d2" x="1113.408068" y="386.918125" style="stroke: #000000; stroke-width: 0.8"/>
      </g>
     </g>
     <g id="text_30">
      <!-- 100 -->
      <g transform="translate(1103.864318 401.516562) scale(0.1 -0.1)">
       <use xlink:href="#DejaVuSans-31"/>
       <use xlink:href="#DejaVuSans-30" x="63.623047"/>
       <use xlink:href="#DejaVuSans-30" x="127.246094"/>
      </g>
     </g>
    </g>
    <g id="text_31">
     <!-- Communication Rounds -->
     <g transform="translate(816.353594 415.194687) scale(0.1 -0.1)">
      <use xlink:href="#DejaVuSans-43"/>
      <use xlink:href="#DejaVuSans-6f" x="69.824219"/>
      <use xlink:href="#DejaVuSans-6d" x="131.005859"/>
      <use xlink:href="#DejaVuSans-6d" x="228.417969"/>
      <use xlink:href="#DejaVuSans-75" x="325.830078"/>
      <use xlink:href="#DejaVuSans-6e" x="389.208984"/>
      <use xlink:href="#DejaVuSans-69" x="452.587891"/>
      <use xlink:href="#DejaVuSans-63" x="480.371094"/>
      <use xlink:href="#DejaVuSans-61" x="535.351562"/>
      <use xlink:href="#DejaVuSans-74" x="596.630859"/>
      <use xlink:href="#DejaVuSans-69" x="635.839844"/>
      <use xlink:href="#DejaVuSans-6f" x="663.623047"/>
      <use xlink:href="#DejaVuSans-6e" x="724.804688"/>
      <use xlink:href="#DejaVuSans-20" x="788.183594"/>
      <use xlink:href="#DejaVuSans-52" x="819.970703"/>
      <use xlink:href="#DejaVuSans-6f" x="884.953125"/>
      <use xlink:href="#DejaVuSans-75" x="946.134766"/>
      <use xlink:href="#DejaVuSans-6e" x="1009.513672"/>
      <use xlink:href="#DejaVuSans-64" x="1072.892578"/>
      <use xlink:href="#DejaVuSans-73" x="1136.369141"/>
     </g>
    </g>
   </g>
   <g id="matplotlib.axis_4">
    <g id="ytick_9">
     <g id="line2d_55">
      <path d="M 614.38125 381.464577 
L 1137.17125 381.464577 
" clip-path="url(#pd7592f7ee0)" style="fill: none; stroke: #b0b0b0; stroke-opacity: 0.3; stroke-width: 0.8; stroke-linecap: square"/>
     </g>
     <g id="line2d_56">
      <g>
       <use xlink:href="#mb731376cc5" x="614.38125" y="381.464577" style="stroke: #000000; stroke-width: 0.8"/>
      </g>
     </g>
     <g id="text_32">
      <!-- 0.0 -->
      <g transform="translate(591.478125 385.263795) scale(0.1 -0.1)">
       <use xlink:href="#DejaVuSans-30"/>
       <use xlink:href="#DejaVuSans-2e" x="63.623047"/>
       <use xlink:href="#DejaVuSans-30" x="95.410156"/>
      </g>
     </g>
    </g>
    <g id="ytick_10">
     <g id="line2d_57">
      <path d="M 614.38125 321.778666 
L 1137.17125 321.778666 
" clip-path="url(#pd7592f7ee0)" style="fill: none; stroke: #b0b0b0; stroke-opacity: 0.3; stroke-width: 0.8; stroke-linecap: square"/>
     </g>
     <g id="line2d_58">
      <g>
       <use xlink:href="#mb731376cc5" x="614.38125" y="321.778666" style="stroke: #000000; stroke-width: 0.8"/>
      </g>
     </g>
     <g id="text_33">
      <!-- 0.1 -->
      <g transform="translate(591.478125 325.577885) scale(0.1 -0.1)">
       <use xlink:href="#DejaVuSans-30"/>
       <use xlink:href="#DejaVuSans-2e" x="63.623047"/>
       <use xlink:href="#DejaVuSans-31" x="95.410156"/>
      </g>
     </g>
    </g>
    <g id="ytick_11">
     <g id="line2d_59">
      <path d="M 614.38125 262.092756 
L 1137.17125 262.092756 
" clip-path="url(#pd7592f7ee0)" style="fill: none; stroke: #b0b0b0; stroke-opacity: 0.3; stroke-width: 0.8; stroke-linecap: square"/>
     </g>
     <g id="line2d_60">
      <g>
       <use xlink:href="#mb731376cc5" x="614.38125" y="262.092756" style="stroke: #000000; stroke-width: 0.8"/>
      </g>
     </g>
     <g id="text_34">
      <!-- 0.2 -->
      <g transform="translate(591.478125 265.891975) scale(0.1 -0.1)">
       <use xlink:href="#DejaVuSans-30"/>
       <use xlink:href="#DejaVuSans-2e" x="63.623047"/>
       <use xlink:href="#DejaVuSans-32" x="95.410156"/>
      </g>
     </g>
    </g>
    <g id="ytick_12">
     <g id="line2d_61">
      <path d="M 614.38125 202.406846 
L 1137.17125 202.406846 
" clip-path="url(#pd7592f7ee0)" style="fill: none; stroke: #b0b0b0; stroke-opacity: 0.3; stroke-width: 0.8; stroke-linecap: square"/>
     </g>
     <g id="line2d_62">
      <g>
       <use xlink:href="#mb731376cc5" x="614.38125" y="202.406846" style="stroke: #000000; stroke-width: 0.8"/>
      </g>
     </g>
     <g id="text_35">
      <!-- 0.3 -->
      <g transform="translate(591.478125 206.206065) scale(0.1 -0.1)">
       <use xlink:href="#DejaVuSans-30"/>
       <use xlink:href="#DejaVuSans-2e" x="63.623047"/>
       <use xlink:href="#DejaVuSans-33" x="95.410156"/>
      </g>
     </g>
    </g>
    <g id="ytick_13">
     <g id="line2d_63">
      <path d="M 614.38125 142.720936 
L 1137.17125 142.720936 
" clip-path="url(#pd7592f7ee0)" style="fill: none; stroke: #b0b0b0; stroke-opacity: 0.3; stroke-width: 0.8; stroke-linecap: square"/>
     </g>
     <g id="line2d_64">
      <g>
       <use xlink:href="#mb731376cc5" x="614.38125" y="142.720936" style="stroke: #000000; stroke-width: 0.8"/>
      </g>
     </g>
     <g id="text_36">
      <!-- 0.4 -->
      <g transform="translate(591.478125 146.520155) scale(0.1 -0.1)">
       <use xlink:href="#DejaVuSans-30"/>
       <use xlink:href="#DejaVuSans-2e" x="63.623047"/>
       <use xlink:href="#DejaVuSans-34" x="95.410156"/>
      </g>
     </g>
    </g>
    <g id="ytick_14">
     <g id="line2d_65">
      <path d="M 614.38125 83.035026 
L 1137.17125 83.035026 
" clip-path="url(#pd7592f7ee0)" style="fill: none; stroke: #b0b0b0; stroke-opacity: 0.3; stroke-width: 0.8; stroke-linecap: square"/>
     </g>
     <g id="line2d_66">
      <g>
       <use xlink:href="#mb731376cc5" x="614.38125" y="83.035026" style="stroke: #000000; stroke-width: 0.8"/>
      </g>
     </g>
     <g id="text_37">
      <!-- 0.5 -->
      <g transform="translate(591.478125 86.834245) scale(0.1 -0.1)">
       <use xlink:href="#DejaVuSans-30"/>
       <use xlink:href="#DejaVuSans-2e" x="63.623047"/>
       <use xlink:href="#DejaVuSans-35" x="95.410156"/>
      </g>
     </g>
    </g>
    <g id="ytick_15">
     <g id="line2d_67">
      <path d="M 614.38125 23.349116 
L 1137.17125 23.349116 
" clip-path="url(#pd7592f7ee0)" style="fill: none; stroke: #b0b0b0; stroke-opacity: 0.3; stroke-width: 0.8; stroke-linecap: square"/>
     </g>
     <g id="line2d_68">
      <g>
       <use xlink:href="#mb731376cc5" x="614.38125" y="23.349116" style="stroke: #000000; stroke-width: 0.8"/>
      </g>
     </g>
     <g id="text_38">
      <!-- 0.6 -->
      <g transform="translate(591.478125 27.148335) scale(0.1 -0.1)">
       <use xlink:href="#DejaVuSans-30"/>
       <use xlink:href="#DejaVuSans-2e" x="63.623047"/>
       <use xlink:href="#DejaVuSans-36" x="95.410156"/>
      </g>
     </g>
    </g>
    <g id="text_39">
     <!-- Global F1 Score -->
     <g transform="translate(585.398438 243.805625) rotate(-90) scale(0.1 -0.1)">
      <use xlink:href="#DejaVuSans-47"/>
      <use xlink:href="#DejaVuSans-6c" x="77.490234"/>
      <use xlink:href="#DejaVuSans-6f" x="105.273438"/>
      <use xlink:href="#DejaVuSans-62" x="166.455078"/>
      <use xlink:href="#DejaVuSans-61" x="229.931641"/>
      <use xlink:href="#DejaVuSans-6c" x="291.210938"/>
      <use xlink:href="#DejaVuSans-20" x="318.994141"/>
      <use xlink:href="#DejaVuSans-46" x="350.78125"/>
      <use xlink:href="#DejaVuSans-31" x="408.300781"/>
      <use xlink:href="#DejaVuSans-20" x="471.923828"/>
      <use xlink:href="#DejaVuSans-53" x="503.710938"/>
      <use xlink:href="#DejaVuSans-63" x="567.1875"/>
      <use xlink:href="#DejaVuSans-6f" x="622.167969"/>
      <use xlink:href="#DejaVuSans-72" x="683.349609"/>
      <use xlink:href="#DejaVuSans-65" x="722.212891"/>
     </g>
    </g>
   </g>
   <g id="line2d_69">
    <path d="M 638.144432 367.151149 
L 642.945075 346.820875 
L 647.745717 314.96597 
L 652.54636 268.512428 
L 657.347003 240.67958 
L 662.147646 208.280207 
L 666.948289 184.860559 
L 671.748931 168.830365 
L 676.549574 155.846114 
L 681.350217 144.776166 
L 686.15086 136.929139 
L 690.951503 132.335448 
L 695.752145 126.571953 
L 700.552788 121.562745 
L 705.353431 115.759563 
L 710.154074 111.406505 
L 714.954716 108.513483 
L 719.755359 105.516007 
L 724.556002 104.301231 
L 729.356645 102.207911 
L 734.157288 98.906154 
L 738.95793 95.758877 
L 743.758573 92.151672 
L 748.559216 89.040343 
L 753.359859 85.180099 
L 758.160502 81.802338 
L 762.961144 78.760298 
L 767.761787 76.802646 
L 772.56243 74.819231 
L 777.363073 74.016032 
L 782.163716 73.253046 
L 786.964358 71.55379 
L 791.765001 70.407378 
L 796.565644 69.113693 
L 801.366287 68.88448 
L 806.16693 68.372788 
L 810.967572 67.171069 
L 815.768215 67.150412 
L 820.568858 67.389378 
L 825.369501 66.337705 
L 830.170143 65.561624 
L 834.970786 65.428968 
L 839.771429 64.455117 
L 844.572072 62.861865 
L 849.372715 61.453825 
L 854.173357 60.126396 
L 858.974 59.468535 
L 863.774643 58.858415 
L 868.575286 57.864598 
L 873.375929 56.776068 
L 878.176571 55.583875 
L 882.977214 54.575342 
L 887.777857 53.948984 
L 892.5785 53.424809 
L 897.379143 53.088202 
L 902.179785 52.525296 
L 906.980428 52.397154 
L 911.781071 51.616278 
L 916.581714 51.232851 
L 921.382357 50.769012 
L 926.182999 50.241998 
L 930.983642 49.593484 
L 935.784285 49.15562 
L 940.584928 48.915281 
L 945.38557 48.740473 
L 950.186213 48.450577 
L 954.986856 48.327715 
L 959.787499 48.117655 
L 964.588142 47.946278 
L 969.388784 47.66521 
L 974.189427 47.489045 
L 978.99007 47.341006 
L 983.790713 47.19382 
L 988.591356 47.214494 
L 993.391998 47.162587 
L 998.192641 46.888977 
L 1002.993284 46.438151 
L 1007.793927 46.087936 
L 1012.59457 45.904385 
L 1017.395212 45.691907 
L 1022.195855 45.545673 
L 1026.996498 45.428155 
L 1031.797141 45.222214 
L 1036.597784 45.038187 
L 1041.398426 44.887242 
L 1046.199069 44.758136 
L 1050.999712 44.582306 
L 1055.800355 44.342749 
L 1060.600997 44.143759 
L 1065.40164 44.024189 
L 1070.202283 43.848537 
L 1075.002926 43.742495 
L 1079.803569 43.634342 
L 1084.604211 43.489702 
L 1089.404854 43.324972 
L 1094.205497 43.256391 
L 1099.00614 43.140273 
L 1103.806783 43.042095 
L 1108.607425 42.933677 
L 1113.408068 42.850668 
" clip-path="url(#pd7592f7ee0)" style="fill: none; stroke: #808080; stroke-width: 2; stroke-linecap: square"/>
   </g>
   <g id="line2d_70">
    <path d="M 638.144432 362.438025 
L 642.945075 359.263247 
L 647.745717 362.357073 
L 652.54636 361.785793 
L 657.347003 358.53924 
L 662.147646 358.927403 
L 666.948289 353.517759 
L 671.748931 343.01826 
L 676.549574 331.341122 
L 681.350217 325.505883 
L 686.15086 312.542198 
L 690.951503 300.464543 
L 695.752145 271.83704 
L 700.552788 271.23346 
L 705.353431 252.258683 
L 710.154074 218.741959 
L 714.954716 198.798284 
L 719.755359 187.379946 
L 724.556002 177.754804 
L 729.356645 160.772106 
L 734.157288 153.065744 
L 738.95793 145.49767 
L 743.758573 137.98432 
L 748.559216 126.485462 
L 753.359859 117.721893 
L 758.160502 102.167444 
L 762.961144 98.223698 
L 767.761787 90.897553 
L 772.56243 85.551989 
L 777.363073 79.676005 
L 782.163716 73.485431 
L 786.964358 81.713173 
L 791.765001 76.728086 
L 796.565644 66.134475 
L 801.366287 68.091221 
L 806.16693 65.425145 
L 810.967572 58.164958 
L 815.768215 58.864381 
L 820.568858 55.12754 
L 825.369501 60.669931 
L 830.170143 53.072537 
L 834.970786 53.760321 
L 839.771429 53.908956 
L 844.572072 50.934432 
L 849.372715 50.05413 
L 854.173357 51.808305 
L 858.974 50.09562 
L 863.774643 49.265587 
L 868.575286 47.024169 
L 873.375929 45.214726 
L 878.176571 44.976454 
L 882.977214 46.075389 
L 887.777857 45.671898 
L 892.5785 44.835054 
L 897.379143 44.44488 
L 902.179785 43.127556 
L 906.980428 41.644204 
L 911.781071 42.535619 
L 916.581714 42.576396 
L 921.382357 43.419777 
L 926.182999 42.121643 
L 930.983642 42.239186 
L 935.784285 40.925965 
L 940.584928 41.491809 
L 945.38557 42.143284 
L 950.186213 42.233129 
L 954.986856 42.27169 
L 959.787499 41.51611 
L 964.588142 41.441744 
L 969.388784 41.193638 
L 974.189427 41.861901 
L 978.99007 40.453554 
L 983.790713 40.366584 
L 988.591356 40.303224 
L 993.391998 40.1552 
L 998.192641 41.722101 
L 1002.993284 40.638176 
L 1007.793927 41.043551 
L 1012.59457 40.296069 
L 1017.395212 40.672153 
L 1022.195855 41.216323 
L 1026.996498 41.044225 
L 1031.797141 40.48341 
L 1036.597784 40.208841 
L 1041.398426 40.256821 
L 1046.199069 41.092282 
L 1050.999712 40.853169 
L 1055.800355 41.710734 
L 1060.600997 41.717897 
L 1065.40164 41.925966 
L 1070.202283 40.83666 
L 1075.002926 40.617813 
L 1079.803569 41.246899 
L 1084.604211 41.579404 
L 1089.404854 39.861058 
L 1094.205497 40.477437 
L 1099.00614 40.684916 
L 1103.806783 39.921159 
L 1108.607425 38.890852 
L 1113.408068 39.120882 
" clip-path="url(#pd7592f7ee0)" style="fill: none; stroke: #0000ff; stroke-width: 2; stroke-linecap: square"/>
   </g>
   <g id="line2d_71">
    <path d="M 638.144432 362.438025 
L 642.945075 359.263247 
L 647.745717 362.357073 
L 652.54636 361.785793 
L 657.347003 358.53924 
L 662.147646 358.927403 
L 666.948289 353.517759 
L 671.748931 343.01826 
L 676.549574 331.341122 
L 681.350217 325.505883 
L 686.15086 312.542198 
L 690.951503 300.464543 
L 695.752145 271.83704 
L 700.552788 271.23346 
L 705.353431 252.258683 
L 710.154074 218.741959 
L 714.954716 198.798284 
L 719.755359 187.379946 
L 724.556002 177.754804 
L 729.356645 160.772106 
L 734.157288 153.065744 
L 738.95793 145.49767 
L 743.758573 137.98432 
L 748.559216 126.485462 
L 753.359859 117.721893 
L 758.160502 102.167444 
L 762.961144 98.223698 
L 767.761787 90.897553 
L 772.56243 85.551989 
L 777.363073 79.676005 
L 782.163716 73.485431 
L 786.964358 81.713173 
L 791.765001 76.728086 
L 796.565644 66.134475 
L 801.366287 68.091221 
L 806.16693 65.425145 
L 810.967572 58.164958 
L 815.768215 58.864381 
L 820.568858 55.12754 
L 825.369501 60.669931 
L 830.170143 53.072537 
L 834.970786 53.760321 
L 839.771429 53.908956 
L 844.572072 50.934432 
L 849.372715 50.05413 
L 854.173357 51.808305 
L 858.974 50.09562 
L 863.774643 49.265587 
L 868.575286 47.024169 
L 873.375929 45.214726 
L 878.176571 44.976454 
L 882.977214 46.075389 
L 887.777857 45.671898 
L 892.5785 44.835054 
L 897.379143 44.44488 
L 902.179785 43.127556 
L 906.980428 41.644204 
L 911.781071 42.535619 
L 916.581714 42.576396 
L 921.382357 43.419777 
L 926.182999 42.121643 
L 930.983642 42.239186 
L 935.784285 40.925965 
L 940.584928 41.491809 
L 945.38557 42.143284 
L 950.186213 42.233129 
L 954.986856 42.27169 
L 959.787499 41.51611 
L 964.588142 41.441744 
L 969.388784 41.193638 
L 974.189427 41.861901 
L 978.99007 40.453554 
L 983.790713 40.366584 
L 988.591356 40.303224 
L 993.391998 40.1552 
L 998.192641 41.722101 
L 1002.993284 40.638176 
L 1007.793927 41.043551 
L 1012.59457 40.296069 
L 1017.395212 40.672153 
L 1022.195855 41.216323 
L 1026.996498 41.044225 
L 1031.797141 40.48341 
L 1036.597784 40.208841 
L 1041.398426 40.256821 
L 1046.199069 41.092282 
L 1050.999712 40.853169 
L 1055.800355 41.710734 
L 1060.600997 41.717897 
L 1065.40164 41.925966 
L 1070.202283 40.83666 
L 1075.002926 40.617813 
L 1079.803569 41.246899 
L 1084.604211 41.579404 
L 1089.404854 39.861058 
L 1094.205497 40.477437 
L 1099.00614 40.684916 
L 1103.806783 39.921159 
L 1108.607425 38.890852 
L 1113.408068 39.120882 
" clip-path="url(#pd7592f7ee0)" style="fill: none; stroke: #00ffff; stroke-width: 2; stroke-linecap: square"/>
   </g>
   <g id="line2d_72">
    <path d="M 638.144432 333.127749 
L 642.945075 313.991168 
L 647.745717 283.674562 
L 652.54636 249.065137 
L 657.347003 213.868248 
L 662.147646 190.469127 
L 666.948289 176.207306 
L 671.748931 163.007485 
L 676.549574 148.38321 
L 681.350217 132.652419 
L 686.15086 120.053399 
L 690.951503 107.629058 
L 695.752145 97.172956 
L 700.552788 89.572476 
L 705.353431 84.351754 
L 710.154074 80.418611 
L 714.954716 76.883083 
L 719.755359 74.53792 
L 724.556002 72.626829 
L 729.356645 70.440338 
L 734.157288 67.632883 
L 738.95793 65.22252 
L 743.758573 62.964137 
L 748.559216 60.584072 
L 753.359859 58.847531 
L 758.160502 57.423808 
L 762.961144 55.59627 
L 767.761787 53.768406 
L 772.56243 52.003726 
L 777.363073 50.375888 
L 782.163716 49.359038 
L 786.964358 48.493432 
L 791.765001 47.463693 
L 796.565644 48.112221 
L 801.366287 48.27298 
L 806.16693 48.044483 
L 810.967572 47.97323 
L 815.768215 48.391511 
L 820.568858 48.615036 
L 825.369501 48.542465 
L 830.170143 48.322114 
L 834.970786 47.94418 
L 839.771429 47.753911 
L 844.572072 47.570135 
L 849.372715 47.432858 
L 854.173357 47.230149 
L 858.974 46.850128 
L 863.774643 46.192894 
L 868.575286 45.86344 
L 873.375929 45.445495 
L 878.176571 45.230595 
L 882.977214 45.082189 
L 887.777857 45.104415 
L 892.5785 44.872947 
L 897.379143 44.644763 
L 902.179785 44.509184 
L 906.980428 44.380886 
L 911.781071 44.259729 
L 916.581714 44.19119 
L 921.382357 44.073308 
L 926.182999 44.008781 
L 930.983642 43.915195 
L 935.784285 43.840923 
L 940.584928 43.695167 
L 945.38557 43.607083 
L 950.186213 43.488697 
L 954.986856 43.379775 
L 959.787499 43.263479 
L 964.588142 43.169882 
L 969.388784 43.122569 
L 974.189427 43.098502 
L 978.99007 43.07617 
L 983.790713 43.070561 
L 988.591356 43.070492 
L 993.391998 43.064728 
L 998.192641 43.04718 
L 1002.993284 43.022216 
L 1007.793927 43.004261 
L 1012.59457 42.970156 
L 1017.395212 42.929684 
L 1022.195855 42.886765 
L 1026.996498 42.847183 
L 1031.797141 42.813215 
L 1036.597784 42.803758 
L 1041.398426 42.800305 
L 1046.199069 42.781514 
L 1050.999712 42.764003 
L 1055.800355 42.749979 
L 1060.600997 42.74205 
L 1065.40164 42.738586 
L 1070.202283 42.711255 
L 1075.002926 42.696534 
L 1079.803569 42.680606 
L 1084.604211 42.664174 
L 1089.404854 42.663473 
L 1094.205497 42.659138 
L 1099.00614 42.655206 
L 1103.806783 42.654402 
L 1108.607425 42.65178 
L 1113.408068 42.645733 
" clip-path="url(#pd7592f7ee0)" style="fill: none; stroke: #008000; stroke-width: 2; stroke-linecap: square"/>
   </g>
   <g id="line2d_73">
    <path d="M 638.144432 331.347911 
L 642.945075 306.032989 
L 647.745717 278.146716 
L 652.54636 243.268373 
L 657.347003 215.873252 
L 662.147646 187.30311 
L 666.948289 167.458386 
L 671.748931 150.40668 
L 676.549574 135.752949 
L 681.350217 121.943172 
L 686.15086 107.460956 
L 690.951503 96.219373 
L 695.752145 84.865809 
L 700.552788 76.157114 
L 705.353431 70.623255 
L 710.154074 67.844572 
L 714.954716 64.483758 
L 719.755359 61.282507 
L 724.556002 58.656734 
L 729.356645 56.956395 
L 734.157288 56.32072 
L 738.95793 55.978371 
L 743.758573 54.938603 
L 748.559216 53.923083 
L 753.359859 53.215501 
L 758.160502 52.456885 
L 762.961144 52.032541 
L 767.761787 51.397383 
L 772.56243 50.288765 
L 777.363073 49.213445 
L 782.163716 48.146291 
L 786.964358 47.642306 
L 791.765001 47.124882 
L 796.565644 48.148593 
L 801.366287 47.541716 
L 806.16693 47.090687 
L 810.967572 46.788401 
L 815.768215 46.574486 
L 820.568858 46.458661 
L 825.369501 46.495787 
L 830.170143 46.419402 
L 834.970786 46.205109 
L 839.771429 45.969331 
L 844.572072 45.756923 
L 849.372715 45.493671 
L 854.173357 45.154676 
L 858.974 44.895857 
L 863.774643 44.739128 
L 868.575286 44.544239 
L 873.375929 44.443187 
L 878.176571 44.274988 
L 882.977214 44.092483 
L 887.777857 44.055023 
L 892.5785 43.958821 
L 897.379143 43.871975 
L 902.179785 43.76435 
L 906.980428 43.652444 
L 911.781071 43.572136 
L 916.581714 43.482519 
L 921.382357 43.376278 
L 926.182999 43.230404 
L 930.983642 43.146726 
L 935.784285 43.08406 
L 940.584928 43.019929 
L 945.38557 42.976377 
L 950.186213 42.95945 
L 954.986856 42.93027 
L 959.787499 42.894492 
L 964.588142 42.851404 
L 969.388784 42.809896 
L 974.189427 42.791437 
L 978.99007 42.76747 
L 983.790713 42.723756 
L 988.591356 42.721438 
L 993.391998 42.71636 
L 998.192641 42.703475 
L 1002.993284 42.692493 
L 1007.793927 42.692237 
L 1012.59457 42.701786 
L 1017.395212 42.711172 
L 1022.195855 42.71488 
L 1026.996498 42.733312 
L 1031.797141 42.738086 
L 1036.597784 42.737502 
L 1041.398426 42.713542 
L 1046.199069 42.690605 
L 1050.999712 42.702201 
L 1055.800355 42.711652 
L 1060.600997 42.710584 
L 1065.40164 42.72053 
L 1070.202283 42.716994 
L 1075.002926 42.715351 
L 1079.803569 42.715025 
L 1084.604211 42.714614 
L 1089.404854 42.717656 
L 1094.205497 42.739854 
L 1099.00614 42.751529 
L 1103.806783 42.753749 
L 1108.607425 42.754821 
L 1113.408068 42.730568 
" clip-path="url(#pd7592f7ee0)" style="fill: none; stroke: #ffa500; stroke-width: 2; stroke-linecap: square"/>
   </g>
   <g id="line2d_74">
    <path d="M 638.144432 294.815791 
L 642.945075 241.135709 
L 647.745717 215.229154 
L 652.54636 198.154944 
L 657.347003 172.139043 
L 662.147646 164.954859 
L 666.948289 151.503484 
L 671.748931 140.762172 
L 676.549574 116.537294 
L 681.350217 94.940874 
L 686.15086 76.795184 
L 690.951503 65.480488 
L 695.752145 59.268858 
L 700.552788 54.053128 
L 705.353431 49.922791 
L 710.154074 48.25443 
L 714.954716 47.037084 
L 719.755359 45.288891 
L 724.556002 43.031933 
L 729.356645 42.588206 
L 734.157288 42.57118 
L 738.95793 42.57118 
L 743.758573 42.57118 
L 748.559216 42.57118 
L 753.359859 42.57118 
L 758.160502 42.57118 
L 762.961144 42.57118 
L 767.761787 42.57118 
L 772.56243 42.57118 
L 777.363073 42.57118 
L 782.163716 42.57118 
L 786.964358 42.57118 
L 791.765001 42.57118 
L 796.565644 42.57118 
L 801.366287 42.57118 
L 806.16693 42.57118 
L 810.967572 42.57118 
L 815.768215 42.57118 
L 820.568858 42.57118 
L 825.369501 42.57118 
L 830.170143 42.57118 
L 834.970786 42.57118 
L 839.771429 42.57118 
L 844.572072 42.57118 
L 849.372715 42.57118 
L 854.173357 42.57118 
L 858.974 42.57118 
L 863.774643 42.57118 
L 868.575286 42.57118 
L 873.375929 42.57118 
L 878.176571 42.57118 
L 882.977214 42.57118 
L 887.777857 42.57118 
L 892.5785 42.57118 
L 897.379143 42.57118 
L 902.179785 42.57118 
L 906.980428 42.57118 
L 911.781071 42.57118 
L 916.581714 42.57118 
L 921.382357 42.57118 
L 926.182999 42.57118 
L 930.983642 42.57118 
L 935.784285 42.57118 
L 940.584928 42.57118 
L 945.38557 42.57118 
L 950.186213 42.57118 
L 954.986856 42.57118 
L 959.787499 42.57118 
L 964.588142 42.57118 
L 969.388784 42.57118 
L 974.189427 42.57118 
L 978.99007 42.57118 
L 983.790713 42.57118 
L 988.591356 42.57118 
L 993.391998 42.57118 
L 998.192641 42.57118 
L 1002.993284 42.57118 
L 1007.793927 42.57118 
L 1012.59457 42.57118 
L 1017.395212 42.57118 
L 1022.195855 42.57118 
L 1026.996498 42.57118 
L 1031.797141 42.57118 
L 1036.597784 42.57118 
L 1041.398426 42.57118 
L 1046.199069 42.57118 
L 1050.999712 42.57118 
L 1055.800355 42.57118 
L 1060.600997 42.57118 
L 1065.40164 42.57118 
L 1070.202283 42.57118 
L 1075.002926 42.57118 
L 1079.803569 42.57118 
L 1084.604211 42.57118 
L 1089.404854 42.57118 
L 1094.205497 42.57118 
L 1099.00614 42.57118 
L 1103.806783 42.57118 
L 1108.607425 42.57118 
L 1113.408068 42.57118 
" clip-path="url(#pd7592f7ee0)" style="fill: none; stroke: #ff0000; stroke-width: 2; stroke-linecap: square"/>
   </g>
   <g id="line2d_75">
    <path d="M 638.144432 365.345559 
L 642.945075 367.413733 
L 647.745717 366.776537 
L 652.54636 370.001553 
L 657.347003 368.792471 
L 662.147646 370.345398 
L 666.948289 368.740667 
L 671.748931 367.598786 
L 676.549574 367.983247 
L 681.350217 364.679016 
L 686.15086 361.195413 
L 690.951503 359.357414 
L 695.752145 357.700932 
L 700.552788 354.109319 
L 705.353431 347.080251 
L 710.154074 346.501061 
L 714.954716 342.423942 
L 719.755359 339.786079 
L 724.556002 328.745166 
L 729.356645 324.553291 
L 734.157288 320.206089 
L 738.95793 317.89333 
L 743.758573 303.531487 
L 748.559216 303.28839 
L 753.359859 289.544048 
L 758.160502 276.594219 
L 762.961144 260.698249 
L 767.761787 246.32799 
L 772.56243 222.453581 
L 777.363073 210.713841 
L 782.163716 208.349432 
L 786.964358 183.795308 
L 791.765001 170.447619 
L 796.565644 161.13412 
L 801.366287 146.827738 
L 806.16693 130.885043 
L 810.967572 125.816279 
L 815.768215 121.289791 
L 820.568858 118.761597 
L 825.369501 107.91671 
L 830.170143 107.879636 
L 834.970786 104.523853 
L 839.771429 95.374559 
L 844.572072 92.920975 
L 849.372715 91.416871 
L 854.173357 89.381665 
L 858.974 82.711706 
L 863.774643 78.78934 
L 868.575286 78.352204 
L 873.375929 75.024969 
L 878.176571 70.929072 
L 882.977214 81.196685 
L 887.777857 75.063799 
L 892.5785 71.926229 
L 897.379143 71.965336 
L 902.179785 63.424101 
L 906.980428 62.767752 
L 911.781071 61.157533 
L 916.581714 58.55764 
L 921.382357 60.1649 
L 926.182999 57.31151 
L 930.983642 55.458646 
L 935.784285 58.94559 
L 940.584928 54.728922 
L 945.38557 50.094336 
L 950.186213 46.804442 
L 954.986856 45.288698 
L 959.787499 45.562946 
L 964.588142 43.735768 
L 969.388784 42.549557 
L 974.189427 42.904659 
L 978.99007 42.346916 
L 983.790713 42.50226 
L 988.591356 42.120876 
L 993.391998 42.162581 
L 998.192641 43.441877 
L 1002.993284 42.890926 
L 1007.793927 42.443129 
L 1012.59457 41.401065 
L 1017.395212 42.381327 
L 1022.195855 41.922424 
L 1026.996498 42.126407 
L 1031.797141 41.374247 
L 1036.597784 41.340464 
L 1041.398426 41.911536 
L 1046.199069 42.065676 
L 1050.999712 41.248874 
L 1055.800355 42.741163 
L 1060.600997 42.251176 
L 1065.40164 43.455361 
L 1070.202283 42.967177 
L 1075.002926 43.096931 
L 1079.803569 43.352808 
L 1084.604211 44.958952 
L 1089.404854 45.067893 
L 1094.205497 43.1098 
L 1099.00614 42.876059 
L 1103.806783 43.805617 
L 1108.607425 43.028877 
L 1113.408068 43.59732 
" clip-path="url(#pd7592f7ee0)" style="fill: none; stroke: #ff00ff; stroke-width: 2; stroke-linecap: square"/>
   </g>
   <g id="patch_9">
    <path d="M 614.38125 386.918125 
L 614.38125 22.318125 
" style="fill: none; stroke: #000000; stroke-width: 0.8; stroke-linejoin: miter; stroke-linecap: square"/>
   </g>
   <g id="patch_10">
    <path d="M 1137.17125 386.918125 
L 1137.17125 22.318125 
" style="fill: none; stroke: #000000; stroke-width: 0.8; stroke-linejoin: miter; stroke-linecap: square"/>
   </g>
   <g id="patch_11">
    <path d="M 614.38125 386.918125 
L 1137.17125 386.918125 
" style="fill: none; stroke: #000000; stroke-width: 0.8; stroke-linejoin: miter; stroke-linecap: square"/>
   </g>
   <g id="patch_12">
    <path d="M 614.38125 22.318125 
L 1137.17125 22.318125 
" style="fill: none; stroke: #000000; stroke-width: 0.8; stroke-linejoin: miter; stroke-linecap: square"/>
   </g>
   <g id="text_40">
    <!-- F1 Score Comparison - mhealth -->
    <g transform="translate(781.151563 16.318125) scale(0.12 -0.12)">
     <use xlink:href="#DejaVuSans-46"/>
     <use xlink:href="#DejaVuSans-31" x="57.519531"/>
     <use xlink:href="#DejaVuSans-20" x="121.142578"/>
     <use xlink:href="#DejaVuSans-53" x="152.929688"/>
     <use xlink:href="#DejaVuSans-63" x="216.40625"/>
     <use xlink:href="#DejaVuSans-6f" x="271.386719"/>
     <use xlink:href="#DejaVuSans-72" x="332.568359"/>
     <use xlink:href="#DejaVuSans-65" x="371.431641"/>
     <use xlink:href="#DejaVuSans-20" x="432.955078"/>
     <use xlink:href="#DejaVuSans-43" x="464.742188"/>
     <use xlink:href="#DejaVuSans-6f" x="534.566406"/>
     <use xlink:href="#DejaVuSans-6d" x="595.748047"/>
     <use xlink:href="#DejaVuSans-70" x="693.160156"/>
     <use xlink:href="#DejaVuSans-61" x="756.636719"/>
     <use xlink:href="#DejaVuSans-72" x="817.916016"/>
     <use xlink:href="#DejaVuSans-69" x="859.029297"/>
     <use xlink:href="#DejaVuSans-73" x="886.8125"/>
     <use xlink:href="#DejaVuSans-6f" x="938.912109"/>
     <use xlink:href="#DejaVuSans-6e" x="1000.09375"/>
     <use xlink:href="#DejaVuSans-20" x="1063.472656"/>
     <use xlink:href="#DejaVuSans-2d" x="1095.259766"/>
     <use xlink:href="#DejaVuSans-20" x="1131.34375"/>
     <use xlink:href="#DejaVuSans-6d" x="1163.130859"/>
     <use xlink:href="#DejaVuSans-68" x="1260.542969"/>
     <use xlink:href="#DejaVuSans-65" x="1323.921875"/>
     <use xlink:href="#DejaVuSans-61" x="1385.445312"/>
     <use xlink:href="#DejaVuSans-6c" x="1446.724609"/>
     <use xlink:href="#DejaVuSans-74" x="1474.507812"/>
     <use xlink:href="#DejaVuSans-68" x="1513.716797"/>
    </g>
   </g>
   <g id="legend_2">
    <g id="patch_13">
     <path d="M 1053.630625 381.918125 
L 1130.17125 381.918125 
Q 1132.17125 381.918125 1132.17125 379.918125 
L 1132.17125 278.17125 
Q 1132.17125 276.17125 1130.17125 276.17125 
L 1053.630625 276.17125 
Q 1051.630625 276.17125 1051.630625 278.17125 
L 1051.630625 379.918125 
Q 1051.630625 381.918125 1053.630625 381.918125 
z
" style="fill: #ffffff; opacity: 0.8; stroke: #cccccc; stroke-linejoin: miter"/>
    </g>
    <g id="line2d_76">
     <path d="M 1055.630625 284.269687 
L 1065.630625 284.269687 
L 1075.630625 284.269687 
" style="fill: none; stroke: #808080; stroke-width: 2; stroke-linecap: square"/>
    </g>
    <g id="text_41">
     <!-- Single -->
     <g transform="translate(1083.630625 287.769687) scale(0.1 -0.1)">
      <use xlink:href="#DejaVuSans-53"/>
      <use xlink:href="#DejaVuSans-69" x="63.476562"/>
      <use xlink:href="#DejaVuSans-6e" x="91.259766"/>
      <use xlink:href="#DejaVuSans-67" x="154.638672"/>
      <use xlink:href="#DejaVuSans-6c" x="218.115234"/>
      <use xlink:href="#DejaVuSans-65" x="245.898438"/>
     </g>
    </g>
    <g id="line2d_77">
     <path d="M 1055.630625 298.947812 
L 1065.630625 298.947812 
L 1075.630625 298.947812 
" style="fill: none; stroke: #0000ff; stroke-width: 2; stroke-linecap: square"/>
    </g>
    <g id="text_42">
     <!-- FedAvg -->
     <g transform="translate(1083.630625 302.447812) scale(0.1 -0.1)">
      <use xlink:href="#DejaVuSans-46"/>
      <use xlink:href="#DejaVuSans-65" x="52.019531"/>
      <use xlink:href="#DejaVuSans-64" x="113.542969"/>
      <use xlink:href="#DejaVuSans-41" x="177.019531"/>
      <use xlink:href="#DejaVuSans-76" x="239.552734"/>
      <use xlink:href="#DejaVuSans-67" x="298.732422"/>
     </g>
    </g>
    <g id="line2d_78">
     <path d="M 1055.630625 313.625937 
L 1065.630625 313.625937 
L 1075.630625 313.625937 
" style="fill: none; stroke: #00ffff; stroke-width: 2; stroke-linecap: square"/>
    </g>
    <g id="text_43">
     <!-- FedProx -->
     <g transform="translate(1083.630625 317.125937) scale(0.1 -0.1)">
      <use xlink:href="#DejaVuSans-46"/>
      <use xlink:href="#DejaVuSans-65" x="52.019531"/>
      <use xlink:href="#DejaVuSans-64" x="113.542969"/>
      <use xlink:href="#DejaVuSans-50" x="177.019531"/>
      <use xlink:href="#DejaVuSans-72" x="235.572266"/>
      <use xlink:href="#DejaVuSans-6f" x="274.435547"/>
      <use xlink:href="#DejaVuSans-78" x="332.492188"/>
     </g>
    </g>
    <g id="line2d_79">
     <path d="M 1055.630625 328.304062 
L 1065.630625 328.304062 
L 1075.630625 328.304062 
" style="fill: none; stroke: #008000; stroke-width: 2; stroke-linecap: square"/>
    </g>
    <g id="text_44">
     <!-- FedProto -->
     <g transform="translate(1083.630625 331.804062) scale(0.1 -0.1)">
      <use xlink:href="#DejaVuSans-46"/>
      <use xlink:href="#DejaVuSans-65" x="52.019531"/>
      <use xlink:href="#DejaVuSans-64" x="113.542969"/>
      <use xlink:href="#DejaVuSans-50" x="177.019531"/>
      <use xlink:href="#DejaVuSans-72" x="235.572266"/>
      <use xlink:href="#DejaVuSans-6f" x="274.435547"/>
      <use xlink:href="#DejaVuSans-74" x="335.617188"/>
      <use xlink:href="#DejaVuSans-6f" x="374.826172"/>
     </g>
    </g>
    <g id="line2d_80">
     <path d="M 1055.630625 342.982187 
L 1065.630625 342.982187 
L 1075.630625 342.982187 
" style="fill: none; stroke: #ffa500; stroke-width: 2; stroke-linecap: square"/>
    </g>
    <g id="text_45">
     <!-- FedMEKT -->
     <g transform="translate(1083.630625 346.482187) scale(0.1 -0.1)">
      <use xlink:href="#DejaVuSans-46"/>
      <use xlink:href="#DejaVuSans-65" x="52.019531"/>
      <use xlink:href="#DejaVuSans-64" x="113.542969"/>
      <use xlink:href="#DejaVuSans-4d" x="177.019531"/>
      <use xlink:href="#DejaVuSans-45" x="263.298828"/>
      <use xlink:href="#DejaVuSans-4b" x="326.482422"/>
      <use xlink:href="#DejaVuSans-54" x="384.308594"/>
     </g>
    </g>
    <g id="line2d_81">
     <path d="M 1055.630625 357.660312 
L 1065.630625 357.660312 
L 1075.630625 357.660312 
" style="fill: none; stroke: #ff0000; stroke-width: 2; stroke-linecap: square"/>
    </g>
    <g id="text_46">
     <!-- FedProp -->
     <g transform="translate(1083.630625 361.160312) scale(0.1 -0.1)">
      <use xlink:href="#DejaVuSans-46"/>
      <use xlink:href="#DejaVuSans-65" x="52.019531"/>
      <use xlink:href="#DejaVuSans-64" x="113.542969"/>
      <use xlink:href="#DejaVuSans-50" x="177.019531"/>
      <use xlink:href="#DejaVuSans-72" x="235.572266"/>
      <use xlink:href="#DejaVuSans-6f" x="274.435547"/>
      <use xlink:href="#DejaVuSans-70" x="335.617188"/>
     </g>
    </g>
    <g id="line2d_82">
     <path d="M 1055.630625 372.338437 
L 1065.630625 372.338437 
L 1075.630625 372.338437 
" style="fill: none; stroke: #ff00ff; stroke-width: 2; stroke-linecap: square"/>
    </g>
    <g id="text_47">
     <!-- FedDTG -->
     <g transform="translate(1083.630625 375.838437) scale(0.1 -0.1)">
      <use xlink:href="#DejaVuSans-46"/>
      <use xlink:href="#DejaVuSans-65" x="52.019531"/>
      <use xlink:href="#DejaVuSans-64" x="113.542969"/>
      <use xlink:href="#DejaVuSans-44" x="177.019531"/>
      <use xlink:href="#DejaVuSans-54" x="254.021484"/>
      <use xlink:href="#DejaVuSans-47" x="315.105469"/>
     </g>
    </g>
   </g>
  </g>
 </g>
 <defs>
  <clipPath id="pcbfa93131a">
   <rect x="43.78125" y="22.318125" width="522.79" height="364.6"/>
  </clipPath>
  <clipPath id="pd7592f7ee0">
   <rect x="614.38125" y="22.318125" width="522.79" height="364.6"/>
  </clipPath>
 </defs>
</svg>
