<?xml version="1.0" encoding="utf-8" standalone="no"?>
<!DOCTYPE svg PUBLIC "-//W3C//DTD SVG 1.1//EN"
  "http://www.w3.org/Graphics/SVG/1.1/DTD/svg11.dtd">
<svg xmlns:xlink="http://www.w3.org/1999/xlink" width="1130.962812pt" height="410.529063pt" viewBox="0 0 1130.962812 410.529063" xmlns="http://www.w3.org/2000/svg" version="1.1">
 <metadata>
  <rdf:RDF xmlns:dc="http://purl.org/dc/elements/1.1/" xmlns:cc="http://creativecommons.org/ns#" xmlns:rdf="http://www.w3.org/1999/02/22-rdf-syntax-ns#">
   <cc:Work>
    <dc:type rdf:resource="http://purl.org/dc/dcmitype/StillImage"/>
    <dc:date>2026-01-19T17:06:05.243465</dc:date>
    <dc:format>image/svg+xml</dc:format>
    <dc:creator>
     <cc:Agent>
      <dc:title>Matplotlib v3.9.4, https://matplotlib.org/</dc:title>
     </cc:Agent>
    </dc:creator>
   </cc:Work>
  </rdf:RDF>
 </metadata>
 <defs>
  <style type="text/css">*{stroke-linejoin: round; stroke-linecap: butt}</style>
 </defs>
 <g id="figure_1">
  <g id="patch_1">
   <path d="M 0 410.529063 
L 1130.962812 410.529063 
L 1130.962812 0 
L 0 0 
z
" style="fill: #ffffff"/>
  </g>
  <g id="axes_1">
   <g id="patch_2">
    <path d="M 54.582813 361.4475 
L 556.402812 361.4475 
L 556.402812 27.0875 
L 54.582813 27.0875 
z
" style="fill: #ffffff"/>
   </g>
   <g id="matplotlib.axis_1">
    <g id="xtick_1">
     <g id="line2d_1">
      <path d="M 72.784732 361.4475 
L 72.784732 27.0875 
" clip-path="url(#p4d3e576318)" style="fill: none; stroke: #b0b0b0; stroke-opacity: 0.3; stroke-width: 0.8; stroke-linecap: square"/>
     </g>
     <g id="line2d_2">
      <defs>
       <path id="mc326052159" d="M 0 0 
L 0 3.5 
" style="stroke: #000000; stroke-width: 0.8"/>
      </defs>
      <g>
       <use xlink:href="#mc326052159" x="72.784732" y="361.4475" style="stroke: #000000; stroke-width: 0.8"/>
      </g>
     </g>
     <g id="text_1">
      <!-- 0 -->
      <g transform="translate(68.784732 379.5575) scale(0.16 -0.16)">
       <defs>
        <path id="TimesNewRomanPSMT-30" d="M 231 2094 
Q 231 2819 450 3342 
Q 669 3866 1031 4122 
Q 1313 4325 1613 4325 
Q 2100 4325 2488 3828 
Q 2972 3213 2972 2159 
Q 2972 1422 2759 906 
Q 2547 391 2217 158 
Q 1888 -75 1581 -75 
Q 975 -75 572 641 
Q 231 1244 231 2094 
z
M 844 2016 
Q 844 1141 1059 588 
Q 1238 122 1591 122 
Q 1759 122 1940 273 
Q 2122 425 2216 781 
Q 2359 1319 2359 2297 
Q 2359 3022 2209 3506 
Q 2097 3866 1919 4016 
Q 1791 4119 1609 4119 
Q 1397 4119 1231 3928 
Q 1006 3669 925 3112 
Q 844 2556 844 2016 
z
" transform="scale(0.015625)"/>
       </defs>
       <use xlink:href="#TimesNewRomanPSMT-30"/>
      </g>
     </g>
    </g>
    <g id="xtick_2">
     <g id="line2d_3">
      <path d="M 164.946348 361.4475 
L 164.946348 27.0875 
" clip-path="url(#p4d3e576318)" style="fill: none; stroke: #b0b0b0; stroke-opacity: 0.3; stroke-width: 0.8; stroke-linecap: square"/>
     </g>
     <g id="line2d_4">
      <g>
       <use xlink:href="#mc326052159" x="164.946348" y="361.4475" style="stroke: #000000; stroke-width: 0.8"/>
      </g>
     </g>
     <g id="text_2">
      <!-- 20 -->
      <g transform="translate(156.946348 379.5575) scale(0.16 -0.16)">
       <defs>
        <path id="TimesNewRomanPSMT-32" d="M 2934 816 
L 2638 0 
L 138 0 
L 138 116 
Q 1241 1122 1691 1759 
Q 2141 2397 2141 2925 
Q 2141 3328 1894 3587 
Q 1647 3847 1303 3847 
Q 991 3847 742 3664 
Q 494 3481 375 3128 
L 259 3128 
Q 338 3706 661 4015 
Q 984 4325 1469 4325 
Q 1984 4325 2329 3994 
Q 2675 3663 2675 3213 
Q 2675 2891 2525 2569 
Q 2294 2063 1775 1497 
Q 997 647 803 472 
L 1909 472 
Q 2247 472 2383 497 
Q 2519 522 2628 598 
Q 2738 675 2819 816 
L 2934 816 
z
" transform="scale(0.015625)"/>
       </defs>
       <use xlink:href="#TimesNewRomanPSMT-32"/>
       <use xlink:href="#TimesNewRomanPSMT-30" x="50"/>
      </g>
     </g>
    </g>
    <g id="xtick_3">
     <g id="line2d_5">
      <path d="M 257.107964 361.4475 
L 257.107964 27.0875 
" clip-path="url(#p4d3e576318)" style="fill: none; stroke: #b0b0b0; stroke-opacity: 0.3; stroke-width: 0.8; stroke-linecap: square"/>
     </g>
     <g id="line2d_6">
      <g>
       <use xlink:href="#mc326052159" x="257.107964" y="361.4475" style="stroke: #000000; stroke-width: 0.8"/>
      </g>
     </g>
     <g id="text_3">
      <!-- 40 -->
      <g transform="translate(249.107964 379.5575) scale(0.16 -0.16)">
       <defs>
        <path id="TimesNewRomanPSMT-34" d="M 2978 1563 
L 2978 1119 
L 2409 1119 
L 2409 0 
L 1894 0 
L 1894 1119 
L 100 1119 
L 100 1519 
L 2066 4325 
L 2409 4325 
L 2409 1563 
L 2978 1563 
z
M 1894 1563 
L 1894 3666 
L 406 1563 
L 1894 1563 
z
" transform="scale(0.015625)"/>
       </defs>
       <use xlink:href="#TimesNewRomanPSMT-34"/>
       <use xlink:href="#TimesNewRomanPSMT-30" x="50"/>
      </g>
     </g>
    </g>
    <g id="xtick_4">
     <g id="line2d_7">
      <path d="M 349.26958 361.4475 
L 349.26958 27.0875 
" clip-path="url(#p4d3e576318)" style="fill: none; stroke: #b0b0b0; stroke-opacity: 0.3; stroke-width: 0.8; stroke-linecap: square"/>
     </g>
     <g id="line2d_8">
      <g>
       <use xlink:href="#mc326052159" x="349.26958" y="361.4475" style="stroke: #000000; stroke-width: 0.8"/>
      </g>
     </g>
     <g id="text_4">
      <!-- 60 -->
      <g transform="translate(341.26958 379.5575) scale(0.16 -0.16)">
       <defs>
        <path id="TimesNewRomanPSMT-36" d="M 2869 4325 
L 2869 4209 
Q 2456 4169 2195 4045 
Q 1934 3922 1679 3669 
Q 1425 3416 1258 3105 
Q 1091 2794 978 2366 
Q 1428 2675 1881 2675 
Q 2316 2675 2634 2325 
Q 2953 1975 2953 1425 
Q 2953 894 2631 456 
Q 2244 -75 1606 -75 
Q 1172 -75 869 213 
Q 275 772 275 1663 
Q 275 2231 503 2743 
Q 731 3256 1154 3653 
Q 1578 4050 1965 4187 
Q 2353 4325 2688 4325 
L 2869 4325 
z
M 925 2138 
Q 869 1716 869 1456 
Q 869 1156 980 804 
Q 1091 453 1309 247 
Q 1469 100 1697 100 
Q 1969 100 2183 356 
Q 2397 613 2397 1088 
Q 2397 1622 2184 2012 
Q 1972 2403 1581 2403 
Q 1463 2403 1327 2353 
Q 1191 2303 925 2138 
z
" transform="scale(0.015625)"/>
       </defs>
       <use xlink:href="#TimesNewRomanPSMT-36"/>
       <use xlink:href="#TimesNewRomanPSMT-30" x="50"/>
      </g>
     </g>
    </g>
    <g id="xtick_5">
     <g id="line2d_9">
      <path d="M 441.431196 361.4475 
L 441.431196 27.0875 
" clip-path="url(#p4d3e576318)" style="fill: none; stroke: #b0b0b0; stroke-opacity: 0.3; stroke-width: 0.8; stroke-linecap: square"/>
     </g>
     <g id="line2d_10">
      <g>
       <use xlink:href="#mc326052159" x="441.431196" y="361.4475" style="stroke: #000000; stroke-width: 0.8"/>
      </g>
     </g>
     <g id="text_5">
      <!-- 80 -->
      <g transform="translate(433.431196 379.5575) scale(0.16 -0.16)">
       <defs>
        <path id="TimesNewRomanPSMT-38" d="M 1228 2134 
Q 725 2547 579 2797 
Q 434 3047 434 3316 
Q 434 3728 753 4026 
Q 1072 4325 1600 4325 
Q 2113 4325 2425 4047 
Q 2738 3769 2738 3413 
Q 2738 3175 2569 2928 
Q 2400 2681 1866 2347 
Q 2416 1922 2594 1678 
Q 2831 1359 2831 1006 
Q 2831 559 2490 242 
Q 2150 -75 1597 -75 
Q 994 -75 656 303 
Q 388 606 388 966 
Q 388 1247 577 1523 
Q 766 1800 1228 2134 
z
M 1719 2469 
Q 2094 2806 2194 3001 
Q 2294 3197 2294 3444 
Q 2294 3772 2109 3958 
Q 1925 4144 1606 4144 
Q 1288 4144 1088 3959 
Q 888 3775 888 3528 
Q 888 3366 970 3203 
Q 1053 3041 1206 2894 
L 1719 2469 
z
M 1375 2016 
Q 1116 1797 991 1539 
Q 866 1281 866 981 
Q 866 578 1086 336 
Q 1306 94 1647 94 
Q 1984 94 2187 284 
Q 2391 475 2391 747 
Q 2391 972 2272 1150 
Q 2050 1481 1375 2016 
z
" transform="scale(0.015625)"/>
       </defs>
       <use xlink:href="#TimesNewRomanPSMT-38"/>
       <use xlink:href="#TimesNewRomanPSMT-30" x="50"/>
      </g>
     </g>
    </g>
    <g id="xtick_6">
     <g id="line2d_11">
      <path d="M 533.592812 361.4475 
L 533.592812 27.0875 
" clip-path="url(#p4d3e576318)" style="fill: none; stroke: #b0b0b0; stroke-opacity: 0.3; stroke-width: 0.8; stroke-linecap: square"/>
     </g>
     <g id="line2d_12">
      <g>
       <use xlink:href="#mc326052159" x="533.592812" y="361.4475" style="stroke: #000000; stroke-width: 0.8"/>
      </g>
     </g>
     <g id="text_6">
      <!-- 100 -->
      <g transform="translate(521.592812 379.5575) scale(0.16 -0.16)">
       <defs>
        <path id="TimesNewRomanPSMT-31" d="M 750 3822 
L 1781 4325 
L 1884 4325 
L 1884 747 
Q 1884 391 1914 303 
Q 1944 216 2037 169 
Q 2131 122 2419 116 
L 2419 0 
L 825 0 
L 825 116 
Q 1125 122 1212 167 
Q 1300 213 1334 289 
Q 1369 366 1369 747 
L 1369 3034 
Q 1369 3497 1338 3628 
Q 1316 3728 1258 3775 
Q 1200 3822 1119 3822 
Q 1003 3822 797 3725 
L 750 3822 
z
" transform="scale(0.015625)"/>
       </defs>
       <use xlink:href="#TimesNewRomanPSMT-31"/>
       <use xlink:href="#TimesNewRomanPSMT-30" x="50"/>
       <use xlink:href="#TimesNewRomanPSMT-30" x="100"/>
      </g>
     </g>
    </g>
    <g id="text_7">
     <!-- Communication Rounds -->
     <g transform="translate(217.741406 399.47875) scale(0.18 -0.18)">
      <defs>
       <path id="TimesNewRomanPSMT-43" d="M 3853 4334 
L 3950 2894 
L 3853 2894 
Q 3659 3541 3300 3825 
Q 2941 4109 2438 4109 
Q 2016 4109 1675 3895 
Q 1334 3681 1139 3212 
Q 944 2744 944 2047 
Q 944 1472 1128 1050 
Q 1313 628 1683 403 
Q 2053 178 2528 178 
Q 2941 178 3256 354 
Q 3572 531 3950 1056 
L 4047 994 
Q 3728 428 3303 165 
Q 2878 -97 2294 -97 
Q 1241 -97 663 684 
Q 231 1266 231 2053 
Q 231 2688 515 3219 
Q 800 3750 1298 4042 
Q 1797 4334 2388 4334 
Q 2847 4334 3294 4109 
Q 3425 4041 3481 4041 
Q 3566 4041 3628 4100 
Q 3709 4184 3744 4334 
L 3853 4334 
z
" transform="scale(0.015625)"/>
       <path id="TimesNewRomanPSMT-6f" d="M 1600 2947 
Q 2250 2947 2644 2453 
Q 2978 2031 2978 1484 
Q 2978 1100 2793 706 
Q 2609 313 2286 112 
Q 1963 -88 1566 -88 
Q 919 -88 538 428 
Q 216 863 216 1403 
Q 216 1797 411 2186 
Q 606 2575 925 2761 
Q 1244 2947 1600 2947 
z
M 1503 2744 
Q 1338 2744 1170 2645 
Q 1003 2547 900 2300 
Q 797 2053 797 1666 
Q 797 1041 1045 587 
Q 1294 134 1700 134 
Q 2003 134 2200 384 
Q 2397 634 2397 1244 
Q 2397 2006 2069 2444 
Q 1847 2744 1503 2744 
z
" transform="scale(0.015625)"/>
       <path id="TimesNewRomanPSMT-6d" d="M 1050 2338 
Q 1363 2650 1419 2697 
Q 1559 2816 1721 2881 
Q 1884 2947 2044 2947 
Q 2313 2947 2506 2790 
Q 2700 2634 2766 2338 
Q 3088 2713 3309 2830 
Q 3531 2947 3766 2947 
Q 3994 2947 4170 2830 
Q 4347 2713 4450 2447 
Q 4519 2266 4519 1878 
L 4519 647 
Q 4519 378 4559 278 
Q 4591 209 4675 161 
Q 4759 113 4950 113 
L 4950 0 
L 3538 0 
L 3538 113 
L 3597 113 
Q 3781 113 3884 184 
Q 3956 234 3988 344 
Q 4000 397 4000 647 
L 4000 1878 
Q 4000 2228 3916 2372 
Q 3794 2572 3525 2572 
Q 3359 2572 3192 2489 
Q 3025 2406 2788 2181 
L 2781 2147 
L 2788 2013 
L 2788 647 
Q 2788 353 2820 281 
Q 2853 209 2943 161 
Q 3034 113 3253 113 
L 3253 0 
L 1806 0 
L 1806 113 
Q 2044 113 2133 169 
Q 2222 225 2256 338 
Q 2272 391 2272 647 
L 2272 1878 
Q 2272 2228 2169 2381 
Q 2031 2581 1784 2581 
Q 1616 2581 1450 2491 
Q 1191 2353 1050 2181 
L 1050 647 
Q 1050 366 1089 281 
Q 1128 197 1204 155 
Q 1281 113 1516 113 
L 1516 0 
L 100 0 
L 100 113 
Q 297 113 375 155 
Q 453 197 493 289 
Q 534 381 534 647 
L 534 1741 
Q 534 2213 506 2350 
Q 484 2453 437 2492 
Q 391 2531 309 2531 
Q 222 2531 100 2484 
L 53 2597 
L 916 2947 
L 1050 2947 
L 1050 2338 
z
" transform="scale(0.015625)"/>
       <path id="TimesNewRomanPSMT-75" d="M 2709 2863 
L 2709 1128 
Q 2709 631 2732 520 
Q 2756 409 2807 365 
Q 2859 322 2928 322 
Q 3025 322 3147 375 
L 3191 266 
L 2334 -88 
L 2194 -88 
L 2194 519 
Q 1825 119 1631 15 
Q 1438 -88 1222 -88 
Q 981 -88 804 51 
Q 628 191 559 409 
Q 491 628 491 1028 
L 491 2306 
Q 491 2509 447 2587 
Q 403 2666 317 2708 
Q 231 2750 6 2747 
L 6 2863 
L 1009 2863 
L 1009 947 
Q 1009 547 1148 422 
Q 1288 297 1484 297 
Q 1619 297 1789 381 
Q 1959 466 2194 703 
L 2194 2325 
Q 2194 2569 2105 2655 
Q 2016 2741 1734 2747 
L 1734 2863 
L 2709 2863 
z
" transform="scale(0.015625)"/>
       <path id="TimesNewRomanPSMT-6e" d="M 1034 2341 
Q 1538 2947 1994 2947 
Q 2228 2947 2397 2830 
Q 2566 2713 2666 2444 
Q 2734 2256 2734 1869 
L 2734 647 
Q 2734 375 2778 278 
Q 2813 200 2889 156 
Q 2966 113 3172 113 
L 3172 0 
L 1756 0 
L 1756 113 
L 1816 113 
Q 2016 113 2095 173 
Q 2175 234 2206 353 
Q 2219 400 2219 647 
L 2219 1819 
Q 2219 2209 2117 2386 
Q 2016 2563 1775 2563 
Q 1403 2563 1034 2156 
L 1034 647 
Q 1034 356 1069 288 
Q 1113 197 1189 155 
Q 1266 113 1500 113 
L 1500 0 
L 84 0 
L 84 113 
L 147 113 
Q 366 113 442 223 
Q 519 334 519 647 
L 519 1709 
Q 519 2225 495 2337 
Q 472 2450 423 2490 
Q 375 2531 294 2531 
Q 206 2531 84 2484 
L 38 2597 
L 900 2947 
L 1034 2947 
L 1034 2341 
z
" transform="scale(0.015625)"/>
       <path id="TimesNewRomanPSMT-69" d="M 928 4444 
Q 1059 4444 1151 4351 
Q 1244 4259 1244 4128 
Q 1244 3997 1151 3903 
Q 1059 3809 928 3809 
Q 797 3809 703 3903 
Q 609 3997 609 4128 
Q 609 4259 701 4351 
Q 794 4444 928 4444 
z
M 1188 2947 
L 1188 647 
Q 1188 378 1227 289 
Q 1266 200 1342 156 
Q 1419 113 1622 113 
L 1622 0 
L 231 0 
L 231 113 
Q 441 113 512 153 
Q 584 194 626 287 
Q 669 381 669 647 
L 669 1750 
Q 669 2216 641 2353 
Q 619 2453 572 2492 
Q 525 2531 444 2531 
Q 356 2531 231 2484 
L 188 2597 
L 1050 2947 
L 1188 2947 
z
" transform="scale(0.015625)"/>
       <path id="TimesNewRomanPSMT-63" d="M 2631 1088 
Q 2516 522 2178 217 
Q 1841 -88 1431 -88 
Q 944 -88 581 321 
Q 219 731 219 1428 
Q 219 2103 620 2525 
Q 1022 2947 1584 2947 
Q 2006 2947 2278 2723 
Q 2550 2500 2550 2259 
Q 2550 2141 2473 2067 
Q 2397 1994 2259 1994 
Q 2075 1994 1981 2113 
Q 1928 2178 1911 2362 
Q 1894 2547 1784 2644 
Q 1675 2738 1481 2738 
Q 1169 2738 978 2506 
Q 725 2200 725 1697 
Q 725 1184 976 792 
Q 1228 400 1656 400 
Q 1963 400 2206 609 
Q 2378 753 2541 1131 
L 2631 1088 
z
" transform="scale(0.015625)"/>
       <path id="TimesNewRomanPSMT-61" d="M 1822 413 
Q 1381 72 1269 19 
Q 1100 -59 909 -59 
Q 613 -59 420 144 
Q 228 347 228 678 
Q 228 888 322 1041 
Q 450 1253 767 1440 
Q 1084 1628 1822 1897 
L 1822 2009 
Q 1822 2438 1686 2597 
Q 1550 2756 1291 2756 
Q 1094 2756 978 2650 
Q 859 2544 859 2406 
L 866 2225 
Q 866 2081 792 2003 
Q 719 1925 600 1925 
Q 484 1925 411 2006 
Q 338 2088 338 2228 
Q 338 2497 613 2722 
Q 888 2947 1384 2947 
Q 1766 2947 2009 2819 
Q 2194 2722 2281 2516 
Q 2338 2381 2338 1966 
L 2338 994 
Q 2338 584 2353 492 
Q 2369 400 2405 369 
Q 2441 338 2488 338 
Q 2538 338 2575 359 
Q 2641 400 2828 588 
L 2828 413 
Q 2478 -56 2159 -56 
Q 2006 -56 1915 50 
Q 1825 156 1822 413 
z
M 1822 616 
L 1822 1706 
Q 1350 1519 1213 1441 
Q 966 1303 859 1153 
Q 753 1003 753 825 
Q 753 600 887 451 
Q 1022 303 1197 303 
Q 1434 303 1822 616 
z
" transform="scale(0.015625)"/>
       <path id="TimesNewRomanPSMT-74" d="M 1031 3803 
L 1031 2863 
L 1700 2863 
L 1700 2644 
L 1031 2644 
L 1031 788 
Q 1031 509 1111 412 
Q 1191 316 1316 316 
Q 1419 316 1516 380 
Q 1613 444 1666 569 
L 1788 569 
Q 1678 263 1478 108 
Q 1278 -47 1066 -47 
Q 922 -47 784 33 
Q 647 113 581 261 
Q 516 409 516 719 
L 516 2644 
L 63 2644 
L 63 2747 
Q 234 2816 414 2980 
Q 594 3144 734 3369 
Q 806 3488 934 3803 
L 1031 3803 
z
" transform="scale(0.015625)"/>
       <path id="TimesNewRomanPSMT-20" transform="scale(0.015625)"/>
       <path id="TimesNewRomanPSMT-52" d="M 4325 0 
L 3194 0 
L 1759 1981 
Q 1600 1975 1500 1975 
Q 1459 1975 1412 1976 
Q 1366 1978 1316 1981 
L 1316 750 
Q 1316 350 1403 253 
Q 1522 116 1759 116 
L 1925 116 
L 1925 0 
L 109 0 
L 109 116 
L 269 116 
Q 538 116 653 291 
Q 719 388 719 750 
L 719 3488 
Q 719 3888 631 3984 
Q 509 4122 269 4122 
L 109 4122 
L 109 4238 
L 1653 4238 
Q 2328 4238 2648 4139 
Q 2969 4041 3192 3777 
Q 3416 3513 3416 3147 
Q 3416 2756 3161 2468 
Q 2906 2181 2372 2063 
L 3247 847 
Q 3547 428 3762 290 
Q 3978 153 4325 116 
L 4325 0 
z
M 1316 2178 
Q 1375 2178 1419 2176 
Q 1463 2175 1491 2175 
Q 2097 2175 2405 2437 
Q 2713 2700 2713 3106 
Q 2713 3503 2464 3751 
Q 2216 4000 1806 4000 
Q 1625 4000 1316 3941 
L 1316 2178 
z
" transform="scale(0.015625)"/>
       <path id="TimesNewRomanPSMT-64" d="M 2222 322 
Q 2013 103 1813 7 
Q 1613 -88 1381 -88 
Q 913 -88 563 304 
Q 213 697 213 1313 
Q 213 1928 600 2439 
Q 988 2950 1597 2950 
Q 1975 2950 2222 2709 
L 2222 3238 
Q 2222 3728 2198 3840 
Q 2175 3953 2125 3993 
Q 2075 4034 2000 4034 
Q 1919 4034 1784 3984 
L 1744 4094 
L 2597 4444 
L 2738 4444 
L 2738 1134 
Q 2738 631 2761 520 
Q 2784 409 2836 365 
Q 2888 322 2956 322 
Q 3041 322 3181 375 
L 3216 266 
L 2366 -88 
L 2222 -88 
L 2222 322 
z
M 2222 541 
L 2222 2016 
Q 2203 2228 2109 2403 
Q 2016 2578 1861 2667 
Q 1706 2756 1559 2756 
Q 1284 2756 1069 2509 
Q 784 2184 784 1559 
Q 784 928 1059 592 
Q 1334 256 1672 256 
Q 1956 256 2222 541 
z
" transform="scale(0.015625)"/>
       <path id="TimesNewRomanPSMT-73" d="M 2050 2947 
L 2050 1972 
L 1947 1972 
Q 1828 2431 1642 2597 
Q 1456 2763 1169 2763 
Q 950 2763 815 2647 
Q 681 2531 681 2391 
Q 681 2216 781 2091 
Q 878 1963 1175 1819 
L 1631 1597 
Q 2266 1288 2266 781 
Q 2266 391 1970 151 
Q 1675 -88 1309 -88 
Q 1047 -88 709 6 
Q 606 38 541 38 
Q 469 38 428 -44 
L 325 -44 
L 325 978 
L 428 978 
Q 516 541 762 319 
Q 1009 97 1316 97 
Q 1531 97 1667 223 
Q 1803 350 1803 528 
Q 1803 744 1651 891 
Q 1500 1038 1047 1263 
Q 594 1488 453 1669 
Q 313 1847 313 2119 
Q 313 2472 555 2709 
Q 797 2947 1181 2947 
Q 1350 2947 1591 2875 
Q 1750 2828 1803 2828 
Q 1853 2828 1881 2850 
Q 1909 2872 1947 2947 
L 2050 2947 
z
" transform="scale(0.015625)"/>
      </defs>
      <use xlink:href="#TimesNewRomanPSMT-43"/>
      <use xlink:href="#TimesNewRomanPSMT-6f" x="66.699219"/>
      <use xlink:href="#TimesNewRomanPSMT-6d" x="116.699219"/>
      <use xlink:href="#TimesNewRomanPSMT-6d" x="194.482422"/>
      <use xlink:href="#TimesNewRomanPSMT-75" x="272.265625"/>
      <use xlink:href="#TimesNewRomanPSMT-6e" x="322.265625"/>
      <use xlink:href="#TimesNewRomanPSMT-69" x="372.265625"/>
      <use xlink:href="#TimesNewRomanPSMT-63" x="400.048828"/>
      <use xlink:href="#TimesNewRomanPSMT-61" x="444.433594"/>
      <use xlink:href="#TimesNewRomanPSMT-74" x="488.818359"/>
      <use xlink:href="#TimesNewRomanPSMT-69" x="516.601562"/>
      <use xlink:href="#TimesNewRomanPSMT-6f" x="544.384766"/>
      <use xlink:href="#TimesNewRomanPSMT-6e" x="594.384766"/>
      <use xlink:href="#TimesNewRomanPSMT-20" x="644.384766"/>
      <use xlink:href="#TimesNewRomanPSMT-52" x="669.384766"/>
      <use xlink:href="#TimesNewRomanPSMT-6f" x="736.083984"/>
      <use xlink:href="#TimesNewRomanPSMT-75" x="786.083984"/>
      <use xlink:href="#TimesNewRomanPSMT-6e" x="836.083984"/>
      <use xlink:href="#TimesNewRomanPSMT-64" x="886.083984"/>
      <use xlink:href="#TimesNewRomanPSMT-73" x="936.083984"/>
     </g>
    </g>
   </g>
   <g id="matplotlib.axis_2">
    <g id="ytick_1">
     <g id="line2d_13">
      <path d="M 54.582813 355.03954 
L 556.402812 355.03954 
" clip-path="url(#p4d3e576318)" style="fill: none; stroke: #b0b0b0; stroke-opacity: 0.3; stroke-width: 0.8; stroke-linecap: square"/>
     </g>
     <g id="line2d_14">
      <defs>
       <path id="m3677a7c7d5" d="M 0 0 
L -3.5 0 
" style="stroke: #000000; stroke-width: 0.8"/>
      </defs>
      <g>
       <use xlink:href="#m3677a7c7d5" x="54.582813" y="355.03954" style="stroke: #000000; stroke-width: 0.8"/>
      </g>
     </g>
     <g id="text_8">
      <!-- 0.0 -->
      <g transform="translate(27.582813 360.59454) scale(0.16 -0.16)">
       <defs>
        <path id="TimesNewRomanPSMT-2e" d="M 800 606 
Q 947 606 1047 504 
Q 1147 403 1147 259 
Q 1147 116 1045 14 
Q 944 -88 800 -88 
Q 656 -88 554 14 
Q 453 116 453 259 
Q 453 406 554 506 
Q 656 606 800 606 
z
" transform="scale(0.015625)"/>
       </defs>
       <use xlink:href="#TimesNewRomanPSMT-30"/>
       <use xlink:href="#TimesNewRomanPSMT-2e" x="50"/>
       <use xlink:href="#TimesNewRomanPSMT-30" x="75"/>
      </g>
     </g>
    </g>
    <g id="ytick_2">
     <g id="line2d_15">
      <path d="M 54.582813 309.93209 
L 556.402812 309.93209 
" clip-path="url(#p4d3e576318)" style="fill: none; stroke: #b0b0b0; stroke-opacity: 0.3; stroke-width: 0.8; stroke-linecap: square"/>
     </g>
     <g id="line2d_16">
      <g>
       <use xlink:href="#m3677a7c7d5" x="54.582813" y="309.93209" style="stroke: #000000; stroke-width: 0.8"/>
      </g>
     </g>
     <g id="text_9">
      <!-- 0.1 -->
      <g transform="translate(27.582813 315.48709) scale(0.16 -0.16)">
       <use xlink:href="#TimesNewRomanPSMT-30"/>
       <use xlink:href="#TimesNewRomanPSMT-2e" x="50"/>
       <use xlink:href="#TimesNewRomanPSMT-31" x="75"/>
      </g>
     </g>
    </g>
    <g id="ytick_3">
     <g id="line2d_17">
      <path d="M 54.582813 264.82464 
L 556.402812 264.82464 
" clip-path="url(#p4d3e576318)" style="fill: none; stroke: #b0b0b0; stroke-opacity: 0.3; stroke-width: 0.8; stroke-linecap: square"/>
     </g>
     <g id="line2d_18">
      <g>
       <use xlink:href="#m3677a7c7d5" x="54.582813" y="264.82464" style="stroke: #000000; stroke-width: 0.8"/>
      </g>
     </g>
     <g id="text_10">
      <!-- 0.2 -->
      <g transform="translate(27.582813 270.37964) scale(0.16 -0.16)">
       <use xlink:href="#TimesNewRomanPSMT-30"/>
       <use xlink:href="#TimesNewRomanPSMT-2e" x="50"/>
       <use xlink:href="#TimesNewRomanPSMT-32" x="75"/>
      </g>
     </g>
    </g>
    <g id="ytick_4">
     <g id="line2d_19">
      <path d="M 54.582813 219.717189 
L 556.402812 219.717189 
" clip-path="url(#p4d3e576318)" style="fill: none; stroke: #b0b0b0; stroke-opacity: 0.3; stroke-width: 0.8; stroke-linecap: square"/>
     </g>
     <g id="line2d_20">
      <g>
       <use xlink:href="#m3677a7c7d5" x="54.582813" y="219.717189" style="stroke: #000000; stroke-width: 0.8"/>
      </g>
     </g>
     <g id="text_11">
      <!-- 0.3 -->
      <g transform="translate(27.582813 225.272189) scale(0.16 -0.16)">
       <defs>
        <path id="TimesNewRomanPSMT-33" d="M 325 3431 
Q 506 3859 782 4092 
Q 1059 4325 1472 4325 
Q 1981 4325 2253 3994 
Q 2459 3747 2459 3466 
Q 2459 3003 1878 2509 
Q 2269 2356 2469 2072 
Q 2669 1788 2669 1403 
Q 2669 853 2319 450 
Q 1863 -75 997 -75 
Q 569 -75 414 31 
Q 259 138 259 259 
Q 259 350 332 419 
Q 406 488 509 488 
Q 588 488 669 463 
Q 722 447 909 348 
Q 1097 250 1169 231 
Q 1284 197 1416 197 
Q 1734 197 1970 444 
Q 2206 691 2206 1028 
Q 2206 1275 2097 1509 
Q 2016 1684 1919 1775 
Q 1784 1900 1550 2001 
Q 1316 2103 1072 2103 
L 972 2103 
L 972 2197 
Q 1219 2228 1467 2375 
Q 1716 2522 1828 2728 
Q 1941 2934 1941 3181 
Q 1941 3503 1739 3701 
Q 1538 3900 1238 3900 
Q 753 3900 428 3381 
L 325 3431 
z
" transform="scale(0.015625)"/>
       </defs>
       <use xlink:href="#TimesNewRomanPSMT-30"/>
       <use xlink:href="#TimesNewRomanPSMT-2e" x="50"/>
       <use xlink:href="#TimesNewRomanPSMT-33" x="75"/>
      </g>
     </g>
    </g>
    <g id="ytick_5">
     <g id="line2d_21">
      <path d="M 54.582813 174.609739 
L 556.402812 174.609739 
" clip-path="url(#p4d3e576318)" style="fill: none; stroke: #b0b0b0; stroke-opacity: 0.3; stroke-width: 0.8; stroke-linecap: square"/>
     </g>
     <g id="line2d_22">
      <g>
       <use xlink:href="#m3677a7c7d5" x="54.582813" y="174.609739" style="stroke: #000000; stroke-width: 0.8"/>
      </g>
     </g>
     <g id="text_12">
      <!-- 0.4 -->
      <g transform="translate(27.582813 180.164739) scale(0.16 -0.16)">
       <use xlink:href="#TimesNewRomanPSMT-30"/>
       <use xlink:href="#TimesNewRomanPSMT-2e" x="50"/>
       <use xlink:href="#TimesNewRomanPSMT-34" x="75"/>
      </g>
     </g>
    </g>
    <g id="ytick_6">
     <g id="line2d_23">
      <path d="M 54.582813 129.502288 
L 556.402812 129.502288 
" clip-path="url(#p4d3e576318)" style="fill: none; stroke: #b0b0b0; stroke-opacity: 0.3; stroke-width: 0.8; stroke-linecap: square"/>
     </g>
     <g id="line2d_24">
      <g>
       <use xlink:href="#m3677a7c7d5" x="54.582813" y="129.502288" style="stroke: #000000; stroke-width: 0.8"/>
      </g>
     </g>
     <g id="text_13">
      <!-- 0.5 -->
      <g transform="translate(27.582813 135.057288) scale(0.16 -0.16)">
       <defs>
        <path id="TimesNewRomanPSMT-35" d="M 2778 4238 
L 2534 3706 
L 1259 3706 
L 981 3138 
Q 1809 3016 2294 2522 
Q 2709 2097 2709 1522 
Q 2709 1188 2573 903 
Q 2438 619 2231 419 
Q 2025 219 1772 97 
Q 1413 -75 1034 -75 
Q 653 -75 479 54 
Q 306 184 306 341 
Q 306 428 378 495 
Q 450 563 559 563 
Q 641 563 702 538 
Q 763 513 909 409 
Q 1144 247 1384 247 
Q 1750 247 2026 523 
Q 2303 800 2303 1197 
Q 2303 1581 2056 1914 
Q 1809 2247 1375 2428 
Q 1034 2569 447 2591 
L 1259 4238 
L 2778 4238 
z
" transform="scale(0.015625)"/>
       </defs>
       <use xlink:href="#TimesNewRomanPSMT-30"/>
       <use xlink:href="#TimesNewRomanPSMT-2e" x="50"/>
       <use xlink:href="#TimesNewRomanPSMT-35" x="75"/>
      </g>
     </g>
    </g>
    <g id="ytick_7">
     <g id="line2d_25">
      <path d="M 54.582813 84.394838 
L 556.402812 84.394838 
" clip-path="url(#p4d3e576318)" style="fill: none; stroke: #b0b0b0; stroke-opacity: 0.3; stroke-width: 0.8; stroke-linecap: square"/>
     </g>
     <g id="line2d_26">
      <g>
       <use xlink:href="#m3677a7c7d5" x="54.582813" y="84.394838" style="stroke: #000000; stroke-width: 0.8"/>
      </g>
     </g>
     <g id="text_14">
      <!-- 0.6 -->
      <g transform="translate(27.582813 89.949838) scale(0.16 -0.16)">
       <use xlink:href="#TimesNewRomanPSMT-30"/>
       <use xlink:href="#TimesNewRomanPSMT-2e" x="50"/>
       <use xlink:href="#TimesNewRomanPSMT-36" x="75"/>
      </g>
     </g>
    </g>
    <g id="ytick_8">
     <g id="line2d_27">
      <path d="M 54.582813 39.287387 
L 556.402812 39.287387 
" clip-path="url(#p4d3e576318)" style="fill: none; stroke: #b0b0b0; stroke-opacity: 0.3; stroke-width: 0.8; stroke-linecap: square"/>
     </g>
     <g id="line2d_28">
      <g>
       <use xlink:href="#m3677a7c7d5" x="54.582813" y="39.287387" style="stroke: #000000; stroke-width: 0.8"/>
      </g>
     </g>
     <g id="text_15">
      <!-- 0.7 -->
      <g transform="translate(27.582813 44.842387) scale(0.16 -0.16)">
       <defs>
        <path id="TimesNewRomanPSMT-37" d="M 644 4238 
L 2916 4238 
L 2916 4119 
L 1503 -88 
L 1153 -88 
L 2419 3728 
L 1253 3728 
Q 900 3728 750 3644 
Q 488 3500 328 3200 
L 238 3234 
L 644 4238 
z
" transform="scale(0.015625)"/>
       </defs>
       <use xlink:href="#TimesNewRomanPSMT-30"/>
       <use xlink:href="#TimesNewRomanPSMT-2e" x="50"/>
       <use xlink:href="#TimesNewRomanPSMT-37" x="75"/>
      </g>
     </g>
    </g>
    <g id="text_16">
     <!-- Global Accuracy -->
     <g transform="translate(19.69875 254.995) rotate(-90) scale(0.18 -0.18)">
      <defs>
       <path id="TimesNewRomanPSMT-47" d="M 3928 4334 
L 4038 2997 
L 3928 2997 
Q 3763 3497 3500 3750 
Q 3122 4116 2528 4116 
Q 1719 4116 1297 3475 
Q 944 2934 944 2188 
Q 944 1581 1178 1081 
Q 1413 581 1792 348 
Q 2172 116 2572 116 
Q 2806 116 3025 175 
Q 3244 234 3447 350 
L 3447 1575 
Q 3447 1894 3398 1992 
Q 3350 2091 3248 2142 
Q 3147 2194 2891 2194 
L 2891 2313 
L 4531 2313 
L 4531 2194 
L 4453 2194 
Q 4209 2194 4119 2031 
Q 4056 1916 4056 1575 
L 4056 278 
Q 3697 84 3347 -6 
Q 2997 -97 2569 -97 
Q 1341 -97 703 691 
Q 225 1281 225 2053 
Q 225 2613 494 3125 
Q 813 3734 1369 4063 
Q 1834 4334 2469 4334 
Q 2700 4334 2889 4296 
Q 3078 4259 3425 4131 
Q 3600 4066 3659 4066 
Q 3719 4066 3761 4120 
Q 3803 4175 3813 4334 
L 3928 4334 
z
" transform="scale(0.015625)"/>
       <path id="TimesNewRomanPSMT-6c" d="M 1184 4444 
L 1184 647 
Q 1184 378 1223 290 
Q 1263 203 1344 158 
Q 1425 113 1647 113 
L 1647 0 
L 244 0 
L 244 113 
Q 441 113 512 153 
Q 584 194 625 287 
Q 666 381 666 647 
L 666 3247 
Q 666 3731 644 3842 
Q 622 3953 573 3993 
Q 525 4034 450 4034 
Q 369 4034 244 3984 
L 191 4094 
L 1044 4444 
L 1184 4444 
z
" transform="scale(0.015625)"/>
       <path id="TimesNewRomanPSMT-62" d="M 984 2369 
Q 1400 2947 1881 2947 
Q 2322 2947 2650 2570 
Q 2978 2194 2978 1541 
Q 2978 778 2472 313 
Q 2038 -88 1503 -88 
Q 1253 -88 995 3 
Q 738 94 469 275 
L 469 3241 
Q 469 3728 445 3840 
Q 422 3953 372 3993 
Q 322 4034 247 4034 
Q 159 4034 28 3984 
L -16 4094 
L 844 4444 
L 984 4444 
L 984 2369 
z
M 984 2169 
L 984 456 
Q 1144 300 1314 220 
Q 1484 141 1663 141 
Q 1947 141 2192 453 
Q 2438 766 2438 1363 
Q 2438 1913 2192 2208 
Q 1947 2503 1634 2503 
Q 1469 2503 1303 2419 
Q 1178 2356 984 2169 
z
" transform="scale(0.015625)"/>
       <path id="TimesNewRomanPSMT-41" d="M 2928 1419 
L 1288 1419 
L 1000 750 
Q 894 503 894 381 
Q 894 284 986 211 
Q 1078 138 1384 116 
L 1384 0 
L 50 0 
L 50 116 
Q 316 163 394 238 
Q 553 388 747 847 
L 2238 4334 
L 2347 4334 
L 3822 809 
Q 4000 384 4145 257 
Q 4291 131 4550 116 
L 4550 0 
L 2878 0 
L 2878 116 
Q 3131 128 3220 200 
Q 3309 272 3309 375 
Q 3309 513 3184 809 
L 2928 1419 
z
M 2841 1650 
L 2122 3363 
L 1384 1650 
L 2841 1650 
z
" transform="scale(0.015625)"/>
       <path id="TimesNewRomanPSMT-72" d="M 1038 2947 
L 1038 2303 
Q 1397 2947 1775 2947 
Q 1947 2947 2059 2842 
Q 2172 2738 2172 2600 
Q 2172 2478 2090 2393 
Q 2009 2309 1897 2309 
Q 1788 2309 1652 2417 
Q 1516 2525 1450 2525 
Q 1394 2525 1328 2463 
Q 1188 2334 1038 2041 
L 1038 669 
Q 1038 431 1097 309 
Q 1138 225 1241 169 
Q 1344 113 1538 113 
L 1538 0 
L 72 0 
L 72 113 
Q 291 113 397 181 
Q 475 231 506 341 
Q 522 394 522 644 
L 522 1753 
Q 522 2253 501 2348 
Q 481 2444 426 2487 
Q 372 2531 291 2531 
Q 194 2531 72 2484 
L 41 2597 
L 906 2947 
L 1038 2947 
z
" transform="scale(0.015625)"/>
       <path id="TimesNewRomanPSMT-79" d="M 38 2863 
L 1372 2863 
L 1372 2747 
L 1306 2747 
Q 1166 2747 1095 2686 
Q 1025 2625 1025 2534 
Q 1025 2413 1128 2197 
L 1825 753 
L 2466 2334 
Q 2519 2463 2519 2588 
Q 2519 2644 2497 2672 
Q 2472 2706 2419 2726 
Q 2366 2747 2231 2747 
L 2231 2863 
L 3163 2863 
L 3163 2747 
Q 3047 2734 2984 2696 
Q 2922 2659 2847 2556 
Q 2819 2513 2741 2316 
L 1575 -541 
Q 1406 -956 1132 -1168 
Q 859 -1381 606 -1381 
Q 422 -1381 303 -1275 
Q 184 -1169 184 -1031 
Q 184 -900 270 -820 
Q 356 -741 506 -741 
Q 609 -741 788 -809 
Q 913 -856 944 -856 
Q 1038 -856 1148 -759 
Q 1259 -663 1372 -384 
L 1575 113 
L 547 2272 
Q 500 2369 397 2513 
Q 319 2622 269 2659 
Q 197 2709 38 2747 
L 38 2863 
z
" transform="scale(0.015625)"/>
      </defs>
      <use xlink:href="#TimesNewRomanPSMT-47"/>
      <use xlink:href="#TimesNewRomanPSMT-6c" x="72.216797"/>
      <use xlink:href="#TimesNewRomanPSMT-6f" x="100"/>
      <use xlink:href="#TimesNewRomanPSMT-62" x="150"/>
      <use xlink:href="#TimesNewRomanPSMT-61" x="200"/>
      <use xlink:href="#TimesNewRomanPSMT-6c" x="244.384766"/>
      <use xlink:href="#TimesNewRomanPSMT-20" x="272.167969"/>
      <use xlink:href="#TimesNewRomanPSMT-41" x="291.667969"/>
      <use xlink:href="#TimesNewRomanPSMT-63" x="363.884766"/>
      <use xlink:href="#TimesNewRomanPSMT-63" x="408.269531"/>
      <use xlink:href="#TimesNewRomanPSMT-75" x="452.654297"/>
      <use xlink:href="#TimesNewRomanPSMT-72" x="502.654297"/>
      <use xlink:href="#TimesNewRomanPSMT-61" x="535.955078"/>
      <use xlink:href="#TimesNewRomanPSMT-63" x="580.339844"/>
      <use xlink:href="#TimesNewRomanPSMT-79" x="624.724609"/>
     </g>
    </g>
   </g>
   <g id="line2d_29">
    <path d="M 77.392813 346.249318 
L 82.000893 337.880699 
L 86.608974 323.787691 
L 91.217055 299.582345 
L 95.825136 283.383367 
L 100.433217 260.837829 
L 105.041297 241.405195 
L 109.649378 227.592573 
L 114.257459 215.482737 
L 118.86554 203.900929 
L 123.473621 193.309683 
L 128.081701 188.058062 
L 132.689782 181.443395 
L 137.297863 175.676026 
L 141.905944 168.57017 
L 146.514025 163.111841 
L 151.122105 159.460676 
L 155.730186 155.760391 
L 160.338267 151.810419 
L 164.946348 148.992227 
L 169.554429 144.864199 
L 174.162509 140.854876 
L 178.77059 136.119003 
L 183.378671 131.925483 
L 187.986752 126.549019 
L 192.594833 121.91343 
L 197.202914 117.734237 
L 201.810994 114.965164 
L 206.419075 112.163344 
L 211.027156 111.10115 
L 215.635237 110.004163 
L 220.243318 107.480683 
L 224.851398 105.657147 
L 229.459479 103.696488 
L 234.06756 103.344469 
L 238.675641 102.550382 
L 243.283722 100.714566 
L 247.891802 100.706379 
L 252.499883 101.072724 
L 257.107964 99.400637 
L 261.716045 98.066243 
L 266.324126 97.806322 
L 270.932206 96.152655 
L 275.540287 93.467493 
L 280.148368 91.074997 
L 284.756449 88.774599 
L 289.36453 87.591654 
L 293.97261 86.435315 
L 298.580691 84.488982 
L 303.188772 82.315474 
L 307.796853 79.83702 
L 312.404934 77.657373 
L 317.013015 76.124456 
L 321.621095 74.847367 
L 326.229176 73.089322 
L 330.837257 70.594496 
L 335.445338 68.169254 
L 340.053419 66.439862 
L 344.661499 65.68466 
L 349.26958 64.726843 
L 353.877661 63.486593 
L 358.485742 61.861579 
L 363.093823 60.707286 
L 367.701903 60.099441 
L 372.309984 59.675791 
L 376.918065 59.059759 
L 381.526146 58.781419 
L 386.134227 58.357769 
L 390.742307 57.960726 
L 395.350388 57.324227 
L 399.958469 56.925137 
L 404.56655 56.601771 
L 409.174631 56.280453 
L 413.782711 56.300919 
L 418.390792 56.200634 
L 422.998873 55.582556 
L 427.606954 54.483522 
L 432.215035 53.60757 
L 436.823116 53.159361 
L 441.431196 52.635427 
L 446.039277 52.248616 
L 450.647358 51.915017 
L 455.255439 51.358337 
L 459.86352 50.852823 
L 464.4716 50.506944 
L 469.079681 50.179486 
L 473.687762 49.72309 
L 478.295843 49.123431 
L 482.903924 48.681362 
L 487.512004 48.353903 
L 492.120085 47.934346 
L 496.728166 47.666239 
L 501.336247 47.383806 
L 505.944328 47.015415 
L 510.552408 46.606091 
L 515.160489 46.354357 
L 519.76857 45.996199 
L 524.376651 45.658508 
L 528.984732 45.273743 
L 533.592812 44.950378 
" clip-path="url(#p4d3e576318)" style="fill: none; stroke: #808080; stroke-width: 2; stroke-linecap: square"/>
   </g>
   <g id="line2d_30">
    <path d="M 77.392813 339.843405 
L 82.000893 338.721859 
L 86.608974 337.219642 
L 91.217055 331.85341 
L 95.825136 322.41441 
L 100.433217 330.811682 
L 105.041297 325.691045 
L 109.649378 325.379959 
L 114.257459 324.231807 
L 118.86554 323.662847 
L 123.473621 322.962904 
L 128.081701 314.876718 
L 132.689782 310.234989 
L 137.297863 308.661141 
L 141.905944 305.949372 
L 146.514025 297.144824 
L 151.122105 287.722197 
L 155.730186 283.29127 
L 160.338267 275.935726 
L 164.946348 267.29286 
L 169.554429 250.058294 
L 174.162509 227.199623 
L 178.77059 204.67455 
L 183.378671 187.495243 
L 187.986752 167.243962 
L 192.594833 150.201778 
L 197.202914 139.886825 
L 201.810994 119.152543 
L 206.419075 112.865334 
L 211.027156 113.487506 
L 215.635237 105.495464 
L 220.243318 101.142309 
L 224.851398 87.137305 
L 229.459479 84.010074 
L 234.06756 75.682387 
L 238.675641 72.20109 
L 243.283722 65.776758 
L 247.891802 63.091596 
L 252.499883 58.052823 
L 257.107964 58.777326 
L 261.716045 57.35902 
L 266.324126 56.654984 
L 270.932206 56.66317 
L 275.540287 55.038156 
L 280.148368 56.425762 
L 284.756449 55.740145 
L 289.36453 54.313653 
L 293.97261 52.895347 
L 298.580691 52.619054 
L 303.188772 52.103306 
L 307.796853 52.465557 
L 312.404934 52.50649 
L 317.013015 51.837246 
L 321.621095 50.832357 
L 326.229176 50.437359 
L 330.837257 50.461919 
L 335.445338 50.762772 
L 340.053419 51.628491 
L 344.661499 51.468855 
L 349.26958 50.69114 
L 353.877661 50.856916 
L 358.485742 50.711606 
L 363.093823 49.510242 
L 367.701903 49.454983 
L 372.309984 49.485682 
L 376.918065 48.619963 
L 381.526146 49.604386 
L 386.134227 48.484886 
L 390.742307 48.611777 
L 395.350388 46.456688 
L 399.958469 47.854528 
L 404.56655 47.766524 
L 409.174631 48.783692 
L 413.782711 48.611777 
L 418.390792 47.752197 
L 422.998873 47.725591 
L 427.606954 46.174255 
L 432.215035 45.922521 
L 436.823116 45.721953 
L 441.431196 45.247137 
L 446.039277 44.211549 
L 450.647358 43.986421 
L 455.255439 44.152197 
L 459.86352 44.878746 
L 464.4716 43.949582 
L 469.079681 44.5738 
L 473.687762 44.381418 
L 478.295843 44.491936 
L 482.903924 44.493982 
L 487.512004 44.086705 
L 492.120085 43.802225 
L 496.728166 43.986421 
L 501.336247 43.622123 
L 505.944328 43.595517 
L 510.552408 43.4543 
L 515.160489 43.882043 
L 519.76857 43.832925 
L 524.376651 43.869764 
L 528.984732 43.394949 
L 533.592812 43.589377 
" clip-path="url(#p4d3e576318)" style="fill: none; stroke: #0000ff; stroke-width: 2; stroke-linecap: square"/>
   </g>
   <g id="line2d_31">
    <path d="M 77.392813 330.310261 
L 82.000893 316.624529 
L 86.608974 301.508212 
L 91.217055 280.522196 
L 95.825136 259.861592 
L 100.433217 234.628844 
L 105.041297 218.055336 
L 109.649378 203.262384 
L 114.257459 188.639302 
L 118.86554 173.230318 
L 123.473621 157.422245 
L 128.081701 145.566189 
L 132.689782 134.254534 
L 137.297863 122.732077 
L 141.905944 115.579149 
L 146.514025 111.543219 
L 151.122105 109.995976 
L 155.730186 107.875681 
L 160.338267 106.033725 
L 164.946348 104.944924 
L 169.554429 104.785288 
L 174.162509 105.206891 
L 178.77059 104.461923 
L 183.378671 101.387903 
L 187.986752 98.9995 
L 192.594833 95.917294 
L 197.202914 93.127755 
L 201.810994 91.187561 
L 206.419075 90.172439 
L 211.027156 88.948562 
L 215.635237 85.831563 
L 220.243318 81.893871 
L 224.851398 77.491597 
L 229.459479 71.061124 
L 234.06756 68.826218 
L 238.675641 67.115246 
L 243.283722 65.355155 
L 247.891802 63.388355 
L 252.499883 61.220987 
L 257.107964 59.620532 
L 261.716045 58.273858 
L 266.324126 56.616098 
L 270.932206 54.819168 
L 275.540287 53.388582 
L 280.148368 52.37346 
L 284.756449 51.642817 
L 289.36453 50.584716 
L 293.97261 50.351402 
L 298.580691 50.596996 
L 303.188772 50.701373 
L 307.796853 50.40666 
L 312.404934 50.042362 
L 317.013015 49.360839 
L 321.621095 49.059986 
L 326.229176 48.752993 
L 330.837257 48.423488 
L 335.445338 48.562658 
L 340.053419 48.60359 
L 344.661499 48.290458 
L 349.26958 48.093982 
L 353.877661 47.832015 
L 358.485742 47.465671 
L 363.093823 47.20575 
L 367.701903 46.829173 
L 372.309984 46.708422 
L 376.918065 46.814846 
L 381.526146 46.520133 
L 386.134227 45.861123 
L 390.742307 45.351515 
L 395.350388 44.981077 
L 399.958469 44.753903 
L 404.56655 44.620872 
L 409.174631 44.463283 
L 413.782711 44.360952 
L 418.390792 44.266808 
L 422.998873 44.119451 
L 427.606954 44.068286 
L 432.215035 44.04168 
L 436.823116 44.027353 
L 441.431196 43.972095 
L 446.039277 43.951628 
L 450.647358 43.906603 
L 455.255439 43.88409 
L 459.86352 43.861577 
L 464.4716 43.734687 
L 469.079681 43.554585 
L 473.687762 43.427694 
L 478.295843 43.331503 
L 482.903924 43.272151 
L 487.512004 43.259872 
L 492.120085 43.19438 
L 496.728166 43.147308 
L 501.336247 43.114562 
L 505.944328 43.047024 
L 510.552408 42.993811 
L 515.160489 42.913993 
L 519.76857 42.828035 
L 524.376651 42.75845 
L 528.984732 42.705238 
L 533.592812 42.676586 
" clip-path="url(#p4d3e576318)" style="fill: none; stroke: #008000; stroke-width: 2; stroke-linecap: square"/>
   </g>
   <g id="line2d_32">
    <path d="M 77.392813 340.864667 
L 82.000893 340.991558 
L 86.608974 339.882291 
L 91.217055 340.666146 
L 95.825136 335.299914 
L 100.433217 341.048863 
L 105.041297 341.306737 
L 109.649378 341.175753 
L 114.257459 341.353809 
L 118.86554 340.33664 
L 123.473621 338.994059 
L 128.081701 338.075128 
L 132.689782 337.71697 
L 137.297863 336.834878 
L 141.905944 333.943007 
L 146.514025 334.202927 
L 151.122105 332.438743 
L 155.730186 331.532091 
L 160.338267 326.397128 
L 164.946348 324.935843 
L 169.554429 322.991557 
L 174.162509 321.763586 
L 178.77059 315.095706 
L 183.378671 314.92993 
L 187.986752 307.691044 
L 192.594833 300.607701 
L 197.202914 292.069212 
L 201.810994 283.242151 
L 206.419075 268.295703 
L 211.027156 260.477624 
L 215.635237 257.186663 
L 220.243318 241.552552 
L 224.851398 224.966763 
L 229.459479 217.637826 
L 234.06756 204.821907 
L 238.675641 191.142315 
L 243.283722 184.797801 
L 247.891802 181.61531 
L 252.499883 173.989613 
L 257.107964 161.054991 
L 261.716045 160.320255 
L 266.324126 156.881937 
L 270.932206 142.18313 
L 275.540287 137.453397 
L 280.148368 138.380515 
L 284.756449 132.946745 
L 289.36453 126.145835 
L 293.97261 117.947085 
L 298.580691 116.500127 
L 303.188772 113.376989 
L 307.796853 102.76323 
L 312.404934 114.551747 
L 317.013015 107.329234 
L 321.621095 103.438614 
L 326.229176 96.770734 
L 330.837257 88.588357 
L 335.445338 87.865901 
L 340.053419 85.256464 
L 344.661499 81.998248 
L 349.26958 82.278635 
L 353.877661 79.124797 
L 358.485742 76.990175 
L 363.093823 82.902853 
L 367.701903 78.017577 
L 372.309984 69.515928 
L 376.918065 63.265558 
L 381.526146 61.693756 
L 386.134227 60.97744 
L 390.742307 57.0684 
L 395.350388 53.861351 
L 399.958469 56.014392 
L 404.56655 54.260441 
L 409.174631 55.083181 
L 413.782711 53.042704 
L 418.390792 54.573574 
L 422.998873 55.467945 
L 427.606954 56.636564 
L 432.215035 53.777439 
L 436.823116 49.925705 
L 441.431196 51.597792 
L 446.039277 51.763568 
L 450.647358 52.381646 
L 455.255439 50.785284 
L 459.86352 52.522863 
L 464.4716 53.61371 
L 469.079681 53.128662 
L 473.687762 49.878633 
L 478.295843 47.711265 
L 482.903924 49.637132 
L 487.512004 51.540486 
L 492.120085 48.632243 
L 496.728166 49.338326 
L 501.336247 49.504102 
L 505.944328 51.992789 
L 510.552408 52.985398 
L 515.160489 50.515131 
L 519.76857 49.424284 
L 524.376651 50.079201 
L 528.984732 49.252368 
L 533.592812 50.234744 
" clip-path="url(#p4d3e576318)" style="fill: none; stroke: #ff00ff; stroke-width: 2; stroke-linecap: square"/>
   </g>
   <g id="line2d_33">
    <path d="M 77.392813 327.899345 
L 82.000893 316.215206 
L 86.608974 301.565518 
L 91.217055 281.334703 
L 95.825136 262.229528 
L 100.433217 240.130152 
L 105.041297 222.934472 
L 109.649378 206.277052 
L 114.257459 190.487397 
L 118.86554 174.429636 
L 123.473621 157.066133 
L 128.081701 143.267838 
L 132.689782 128.356182 
L 137.297863 116.248393 
L 141.905944 108.170394 
L 146.514025 103.972781 
L 151.122105 98.835771 
L 155.730186 93.618943 
L 160.338267 89.443843 
L 164.946348 86.840546 
L 169.554429 86.318658 
L 174.162509 85.866356 
L 178.77059 84.028493 
L 183.378671 82.268402 
L 187.986752 80.81121 
L 192.594833 79.188243 
L 197.202914 78.124001 
L 201.810994 76.396656 
L 206.419075 73.785172 
L 211.027156 71.237133 
L 215.635237 68.744353 
L 220.243318 66.145149 
L 224.851398 63.660555 
L 229.459479 60.085115 
L 234.06756 56.931277 
L 238.675641 55.736052 
L 243.283722 54.845774 
L 247.891802 53.875677 
L 252.499883 53.282158 
L 257.107964 53.224853 
L 261.716045 52.819622 
L 266.324126 52.062374 
L 270.932206 51.354244 
L 275.540287 50.699327 
L 280.148368 49.919565 
L 284.756449 49.105011 
L 289.36453 48.538098 
L 293.97261 48.181987 
L 298.580691 47.807456 
L 303.188772 47.584375 
L 307.796853 47.199611 
L 312.404934 46.798473 
L 317.013015 46.728888 
L 321.621095 46.501714 
L 326.229176 46.278633 
L 330.837257 45.97778 
L 335.445338 45.723999 
L 340.053419 45.537757 
L 344.661499 45.286023 
L 349.26958 45.017916 
L 353.877661 44.606546 
L 358.485742 44.348672 
L 363.093823 44.109218 
L 367.701903 43.863624 
L 372.309984 43.685568 
L 376.918065 43.581191 
L 381.526146 43.499326 
L 386.134227 43.384715 
L 390.742307 43.274198 
L 395.350388 43.17596 
L 399.958469 43.102282 
L 404.56655 43.032697 
L 409.174631 42.932413 
L 413.782711 42.893527 
L 418.390792 42.877154 
L 422.998873 42.844408 
L 427.606954 42.807569 
L 432.215035 42.815756 
L 436.823116 42.854641 
L 441.431196 42.883294 
L 446.039277 42.901714 
L 450.647358 42.930366 
L 455.255439 42.940599 
L 459.86352 42.924226 
L 464.4716 42.854641 
L 469.079681 42.785056 
L 473.687762 42.793243 
L 478.295843 42.817802 
L 482.903924 42.825989 
L 487.512004 42.848502 
L 492.120085 42.844408 
L 496.728166 42.836222 
L 501.336247 42.830082 
L 505.944328 42.828035 
L 510.552408 42.834175 
L 515.160489 42.877154 
L 519.76857 42.90376 
L 524.376651 42.905807 
L 528.984732 42.89762 
L 533.592812 42.844408 
" clip-path="url(#p4d3e576318)" style="fill: none; stroke: #ffa500; stroke-width: 2; stroke-linecap: square"/>
   </g>
   <g id="line2d_34">
    <path d="M 77.392813 318.194285 
L 82.000893 301.44272 
L 86.608974 292.337319 
L 91.217055 282.116511 
L 95.825136 268.340728 
L 100.433217 270.000535 
L 105.041297 267.765629 
L 109.649378 256.304571 
L 114.257459 230.185638 
L 118.86554 221.176427 
L 123.473621 229.076371 
L 128.081701 229.80292 
L 132.689782 213.622362 
L 137.297863 188.021223 
L 141.905944 162.252262 
L 146.514025 142.357093 
L 151.122105 131.143675 
L 155.730186 119.985517 
L 160.338267 105.638728 
L 164.946348 95.172326 
L 169.554429 86.468061 
L 174.162509 76.537873 
L 178.77059 70.066468 
L 183.378671 61.178008 
L 187.986752 51.258053 
L 192.594833 45.437473 
L 197.202914 43.458394 
L 201.810994 42.801429 
L 206.419075 42.488297 
L 211.027156 42.336847 
L 215.635237 42.297962 
L 220.243318 42.285682 
L 224.851398 42.285682 
L 229.459479 42.285682 
L 234.06756 42.285682 
L 238.675641 42.285682 
L 243.283722 42.285682 
L 247.891802 42.285682 
L 252.499883 42.285682 
L 257.107964 42.285682 
L 261.716045 42.285682 
L 266.324126 42.285682 
L 270.932206 42.285682 
L 275.540287 42.285682 
L 280.148368 42.285682 
L 284.756449 42.285682 
L 289.36453 42.285682 
L 293.97261 42.285682 
L 298.580691 42.285682 
L 303.188772 42.285682 
L 307.796853 42.285682 
L 312.404934 42.285682 
L 317.013015 42.285682 
L 321.621095 42.285682 
L 326.229176 42.285682 
L 330.837257 42.285682 
L 335.445338 42.285682 
L 340.053419 42.285682 
L 344.661499 42.285682 
L 349.26958 42.285682 
L 353.877661 42.285682 
L 358.485742 42.285682 
L 363.093823 42.285682 
L 367.701903 42.285682 
L 372.309984 42.285682 
L 376.918065 42.285682 
L 381.526146 42.285682 
L 386.134227 42.285682 
L 390.742307 42.285682 
L 395.350388 42.285682 
L 399.958469 42.285682 
L 404.56655 42.285682 
L 409.174631 42.285682 
L 413.782711 42.285682 
L 418.390792 42.285682 
L 422.998873 42.285682 
L 427.606954 42.285682 
L 432.215035 42.285682 
L 436.823116 42.285682 
L 441.431196 42.285682 
L 446.039277 42.285682 
L 450.647358 42.285682 
L 455.255439 42.285682 
L 459.86352 42.285682 
L 464.4716 42.285682 
L 469.079681 42.285682 
L 473.687762 42.285682 
L 478.295843 42.285682 
L 482.903924 42.285682 
L 487.512004 42.285682 
L 492.120085 42.285682 
L 496.728166 42.285682 
L 501.336247 42.285682 
L 505.944328 42.285682 
L 510.552408 42.285682 
L 515.160489 42.285682 
L 519.76857 42.285682 
L 524.376651 42.285682 
L 528.984732 42.285682 
L 533.592812 42.285682 
" clip-path="url(#p4d3e576318)" style="fill: none; stroke: #ff0000; stroke-width: 2; stroke-linecap: square"/>
   </g>
   <g id="patch_3">
    <path d="M 54.582813 361.4475 
L 54.582813 27.0875 
" style="fill: none; stroke: #000000; stroke-width: 0.8; stroke-linejoin: miter; stroke-linecap: square"/>
   </g>
   <g id="patch_4">
    <path d="M 556.402812 361.4475 
L 556.402812 27.0875 
" style="fill: none; stroke: #000000; stroke-width: 0.8; stroke-linejoin: miter; stroke-linecap: square"/>
   </g>
   <g id="patch_5">
    <path d="M 54.582813 361.4475 
L 556.402812 361.4475 
" style="fill: none; stroke: #000000; stroke-width: 0.8; stroke-linejoin: miter; stroke-linecap: square"/>
   </g>
   <g id="patch_6">
    <path d="M 54.582813 27.0875 
L 556.402812 27.0875 
" style="fill: none; stroke: #000000; stroke-width: 0.8; stroke-linejoin: miter; stroke-linecap: square"/>
   </g>
   <g id="text_17">
    <!-- Accuracy - MHEALTH -->
    <g transform="translate(210.886563 21.0875) scale(0.2 -0.2)">
     <defs>
      <path id="TimesNewRomanPSMT-2d" d="M 259 1672 
L 1875 1672 
L 1875 1200 
L 259 1200 
L 259 1672 
z
" transform="scale(0.015625)"/>
      <path id="TimesNewRomanPSMT-4d" d="M 2619 0 
L 981 3566 
L 981 734 
Q 981 344 1066 247 
Q 1181 116 1431 116 
L 1581 116 
L 1581 0 
L 106 0 
L 106 116 
L 256 116 
Q 525 116 638 278 
Q 706 378 706 734 
L 706 3503 
Q 706 3784 644 3909 
Q 600 4000 483 4061 
Q 366 4122 106 4122 
L 106 4238 
L 1306 4238 
L 2844 922 
L 4356 4238 
L 5556 4238 
L 5556 4122 
L 5409 4122 
Q 5138 4122 5025 3959 
Q 4956 3859 4956 3503 
L 4956 734 
Q 4956 344 5044 247 
Q 5159 116 5409 116 
L 5556 116 
L 5556 0 
L 3756 0 
L 3756 116 
L 3906 116 
Q 4178 116 4288 278 
Q 4356 378 4356 734 
L 4356 3566 
L 2722 0 
L 2619 0 
z
" transform="scale(0.015625)"/>
      <path id="TimesNewRomanPSMT-48" d="M 1316 2272 
L 3284 2272 
L 3284 3484 
Q 3284 3809 3244 3913 
Q 3213 3991 3113 4047 
Q 2978 4122 2828 4122 
L 2678 4122 
L 2678 4238 
L 4491 4238 
L 4491 4122 
L 4341 4122 
Q 4191 4122 4056 4050 
Q 3956 4000 3920 3898 
Q 3884 3797 3884 3484 
L 3884 750 
Q 3884 428 3925 325 
Q 3956 247 4053 191 
Q 4191 116 4341 116 
L 4491 116 
L 4491 0 
L 2678 0 
L 2678 116 
L 2828 116 
Q 3088 116 3206 269 
Q 3284 369 3284 750 
L 3284 2041 
L 1316 2041 
L 1316 750 
Q 1316 428 1356 325 
Q 1388 247 1488 191 
Q 1622 116 1772 116 
L 1925 116 
L 1925 0 
L 109 0 
L 109 116 
L 259 116 
Q 522 116 641 269 
Q 716 369 716 750 
L 716 3484 
Q 716 3809 675 3913 
Q 644 3991 547 4047 
Q 409 4122 259 4122 
L 109 4122 
L 109 4238 
L 1925 4238 
L 1925 4122 
L 1772 4122 
Q 1622 4122 1488 4050 
Q 1391 4000 1353 3898 
Q 1316 3797 1316 3484 
L 1316 2272 
z
" transform="scale(0.015625)"/>
      <path id="TimesNewRomanPSMT-45" d="M 1338 4006 
L 1338 2331 
L 2269 2331 
Q 2631 2331 2753 2441 
Q 2916 2584 2934 2947 
L 3050 2947 
L 3050 1472 
L 2934 1472 
Q 2891 1781 2847 1869 
Q 2791 1978 2662 2040 
Q 2534 2103 2269 2103 
L 1338 2103 
L 1338 706 
Q 1338 425 1363 364 
Q 1388 303 1450 267 
Q 1513 231 1688 231 
L 2406 231 
Q 2766 231 2928 281 
Q 3091 331 3241 478 
Q 3434 672 3638 1063 
L 3763 1063 
L 3397 0 
L 131 0 
L 131 116 
L 281 116 
Q 431 116 566 188 
Q 666 238 702 338 
Q 738 438 738 747 
L 738 3500 
Q 738 3903 656 3997 
Q 544 4122 281 4122 
L 131 4122 
L 131 4238 
L 3397 4238 
L 3444 3309 
L 3322 3309 
Q 3256 3644 3176 3769 
Q 3097 3894 2941 3959 
Q 2816 4006 2500 4006 
L 1338 4006 
z
" transform="scale(0.015625)"/>
      <path id="TimesNewRomanPSMT-4c" d="M 3669 1172 
L 3772 1150 
L 3409 0 
L 128 0 
L 128 116 
L 288 116 
Q 556 116 672 291 
Q 738 391 738 753 
L 738 3488 
Q 738 3884 650 3984 
Q 528 4122 288 4122 
L 128 4122 
L 128 4238 
L 2047 4238 
L 2047 4122 
Q 1709 4125 1573 4059 
Q 1438 3994 1388 3894 
Q 1338 3794 1338 3416 
L 1338 753 
Q 1338 494 1388 397 
Q 1425 331 1503 300 
Q 1581 269 1991 269 
L 2300 269 
Q 2788 269 2984 341 
Q 3181 413 3343 595 
Q 3506 778 3669 1172 
z
" transform="scale(0.015625)"/>
      <path id="TimesNewRomanPSMT-54" d="M 3703 4238 
L 3750 3244 
L 3631 3244 
Q 3597 3506 3538 3619 
Q 3441 3800 3280 3886 
Q 3119 3972 2856 3972 
L 2259 3972 
L 2259 734 
Q 2259 344 2344 247 
Q 2463 116 2709 116 
L 2856 116 
L 2856 0 
L 1059 0 
L 1059 116 
L 1209 116 
Q 1478 116 1591 278 
Q 1659 378 1659 734 
L 1659 3972 
L 1150 3972 
Q 853 3972 728 3928 
Q 566 3869 450 3700 
Q 334 3531 313 3244 
L 194 3244 
L 244 4238 
L 3703 4238 
z
" transform="scale(0.015625)"/>
     </defs>
     <use xlink:href="#TimesNewRomanPSMT-41"/>
     <use xlink:href="#TimesNewRomanPSMT-63" x="72.216797"/>
     <use xlink:href="#TimesNewRomanPSMT-63" x="116.601562"/>
     <use xlink:href="#TimesNewRomanPSMT-75" x="160.986328"/>
     <use xlink:href="#TimesNewRomanPSMT-72" x="210.986328"/>
     <use xlink:href="#TimesNewRomanPSMT-61" x="244.287109"/>
     <use xlink:href="#TimesNewRomanPSMT-63" x="288.671875"/>
     <use xlink:href="#TimesNewRomanPSMT-79" x="333.056641"/>
     <use xlink:href="#TimesNewRomanPSMT-20" x="383.056641"/>
     <use xlink:href="#TimesNewRomanPSMT-2d" x="408.056641"/>
     <use xlink:href="#TimesNewRomanPSMT-20" x="441.357422"/>
     <use xlink:href="#TimesNewRomanPSMT-4d" x="466.357422"/>
     <use xlink:href="#TimesNewRomanPSMT-48" x="555.273438"/>
     <use xlink:href="#TimesNewRomanPSMT-45" x="627.490234"/>
     <use xlink:href="#TimesNewRomanPSMT-41" x="688.574219"/>
     <use xlink:href="#TimesNewRomanPSMT-4c" x="760.791016"/>
     <use xlink:href="#TimesNewRomanPSMT-54" x="812.75"/>
     <use xlink:href="#TimesNewRomanPSMT-48" x="873.833984"/>
    </g>
   </g>
   <g id="legend_1">
    <g id="patch_7">
     <path d="M 408.209375 352.4475 
L 543.802812 352.4475 
Q 547.402812 352.4475 547.402812 348.8475 
L 547.402812 197.878125 
Q 547.402812 194.278125 543.802812 194.278125 
L 408.209375 194.278125 
Q 404.609375 194.278125 404.609375 197.878125 
L 404.609375 348.8475 
Q 404.609375 352.4475 408.209375 352.4475 
z
" style="fill: #ffffff; opacity: 0.8; stroke: #cccccc; stroke-linejoin: miter"/>
    </g>
    <g id="line2d_35">
     <path d="M 411.809375 207.778125 
L 429.809375 207.778125 
L 447.809375 207.778125 
" style="fill: none; stroke: #808080; stroke-width: 2; stroke-linecap: square"/>
    </g>
    <g id="text_18">
     <!-- Single -->
     <g transform="translate(462.209375 214.078125) scale(0.18 -0.18)">
      <defs>
       <path id="TimesNewRomanPSMT-53" d="M 2934 4334 
L 2934 2869 
L 2819 2869 
Q 2763 3291 2617 3541 
Q 2472 3791 2203 3937 
Q 1934 4084 1647 4084 
Q 1322 4084 1109 3886 
Q 897 3688 897 3434 
Q 897 3241 1031 3081 
Q 1225 2847 1953 2456 
Q 2547 2138 2764 1967 
Q 2981 1797 3098 1565 
Q 3216 1334 3216 1081 
Q 3216 600 2842 251 
Q 2469 -97 1881 -97 
Q 1697 -97 1534 -69 
Q 1438 -53 1133 45 
Q 828 144 747 144 
Q 669 144 623 97 
Q 578 50 556 -97 
L 441 -97 
L 441 1356 
L 556 1356 
Q 638 900 775 673 
Q 913 447 1195 297 
Q 1478 147 1816 147 
Q 2206 147 2432 353 
Q 2659 559 2659 841 
Q 2659 997 2573 1156 
Q 2488 1316 2306 1453 
Q 2184 1547 1640 1851 
Q 1097 2156 867 2337 
Q 638 2519 519 2737 
Q 400 2956 400 3219 
Q 400 3675 750 4004 
Q 1100 4334 1641 4334 
Q 1978 4334 2356 4169 
Q 2531 4091 2603 4091 
Q 2684 4091 2736 4139 
Q 2788 4188 2819 4334 
L 2934 4334 
z
" transform="scale(0.015625)"/>
       <path id="TimesNewRomanPSMT-67" d="M 966 1044 
Q 703 1172 562 1401 
Q 422 1631 422 1909 
Q 422 2334 742 2640 
Q 1063 2947 1563 2947 
Q 1972 2947 2272 2747 
L 2878 2747 
Q 3013 2747 3034 2739 
Q 3056 2731 3066 2713 
Q 3084 2684 3084 2613 
Q 3084 2531 3069 2500 
Q 3059 2484 3036 2475 
Q 3013 2466 2878 2466 
L 2506 2466 
Q 2681 2241 2681 1891 
Q 2681 1491 2375 1206 
Q 2069 922 1553 922 
Q 1341 922 1119 984 
Q 981 866 932 777 
Q 884 688 884 625 
Q 884 572 936 522 
Q 988 472 1138 450 
Q 1225 438 1575 428 
Q 2219 413 2409 384 
Q 2700 344 2873 169 
Q 3047 -6 3047 -263 
Q 3047 -616 2716 -925 
Q 2228 -1381 1444 -1381 
Q 841 -1381 425 -1109 
Q 191 -953 191 -784 
Q 191 -709 225 -634 
Q 278 -519 444 -313 
Q 466 -284 763 25 
Q 600 122 533 198 
Q 466 275 466 372 
Q 466 481 555 628 
Q 644 775 966 1044 
z
M 1509 2797 
Q 1278 2797 1122 2612 
Q 966 2428 966 2047 
Q 966 1553 1178 1281 
Q 1341 1075 1591 1075 
Q 1828 1075 1981 1253 
Q 2134 1431 2134 1813 
Q 2134 2309 1919 2591 
Q 1759 2797 1509 2797 
z
M 934 0 
Q 788 -159 713 -296 
Q 638 -434 638 -550 
Q 638 -700 819 -813 
Q 1131 -1006 1722 -1006 
Q 2284 -1006 2551 -807 
Q 2819 -609 2819 -384 
Q 2819 -222 2659 -153 
Q 2497 -84 2016 -72 
Q 1313 -53 934 0 
z
" transform="scale(0.015625)"/>
       <path id="TimesNewRomanPSMT-65" d="M 681 1784 
Q 678 1147 991 784 
Q 1303 422 1725 422 
Q 2006 422 2214 576 
Q 2422 731 2563 1106 
L 2659 1044 
Q 2594 616 2278 264 
Q 1963 -88 1488 -88 
Q 972 -88 605 314 
Q 238 716 238 1394 
Q 238 2128 614 2539 
Q 991 2950 1559 2950 
Q 2041 2950 2350 2633 
Q 2659 2316 2659 1784 
L 681 1784 
z
M 681 1966 
L 2006 1966 
Q 1991 2241 1941 2353 
Q 1863 2528 1708 2628 
Q 1553 2728 1384 2728 
Q 1125 2728 920 2526 
Q 716 2325 681 1966 
z
" transform="scale(0.015625)"/>
      </defs>
      <use xlink:href="#TimesNewRomanPSMT-53"/>
      <use xlink:href="#TimesNewRomanPSMT-69" x="55.615234"/>
      <use xlink:href="#TimesNewRomanPSMT-6e" x="83.398438"/>
      <use xlink:href="#TimesNewRomanPSMT-67" x="133.398438"/>
      <use xlink:href="#TimesNewRomanPSMT-6c" x="183.398438"/>
      <use xlink:href="#TimesNewRomanPSMT-65" x="211.181641"/>
     </g>
    </g>
    <g id="line2d_36">
     <path d="M 411.809375 233.262188 
L 429.809375 233.262188 
L 447.809375 233.262188 
" style="fill: none; stroke: #0000ff; stroke-width: 2; stroke-linecap: square"/>
    </g>
    <g id="text_19">
     <!-- FedAvg -->
     <g transform="translate(462.209375 239.562188) scale(0.18 -0.18)">
      <defs>
       <path id="TimesNewRomanPSMT-46" d="M 1309 4006 
L 1309 2341 
L 2081 2341 
Q 2347 2341 2470 2458 
Q 2594 2575 2634 2922 
L 2750 2922 
L 2750 1488 
L 2634 1488 
Q 2631 1734 2570 1850 
Q 2509 1966 2401 2023 
Q 2294 2081 2081 2081 
L 1309 2081 
L 1309 750 
Q 1309 428 1350 325 
Q 1381 247 1481 191 
Q 1619 116 1769 116 
L 1922 116 
L 1922 0 
L 103 0 
L 103 116 
L 253 116 
Q 516 116 634 269 
Q 709 369 709 750 
L 709 3488 
Q 709 3809 669 3913 
Q 638 3991 541 4047 
Q 406 4122 253 4122 
L 103 4122 
L 103 4238 
L 3256 4238 
L 3297 3306 
L 3188 3306 
Q 3106 3603 2998 3742 
Q 2891 3881 2733 3943 
Q 2575 4006 2244 4006 
L 1309 4006 
z
" transform="scale(0.015625)"/>
       <path id="TimesNewRomanPSMT-76" d="M 53 2863 
L 1400 2863 
L 1400 2747 
L 1313 2747 
Q 1191 2747 1127 2687 
Q 1063 2628 1063 2528 
Q 1063 2419 1128 2269 
L 1794 688 
L 2463 2328 
Q 2534 2503 2534 2594 
Q 2534 2638 2509 2666 
Q 2475 2713 2422 2730 
Q 2369 2747 2206 2747 
L 2206 2863 
L 3141 2863 
L 3141 2747 
Q 2978 2734 2916 2681 
Q 2806 2588 2719 2369 
L 1703 -88 
L 1575 -88 
L 553 2328 
Q 484 2497 421 2570 
Q 359 2644 263 2694 
Q 209 2722 53 2747 
L 53 2863 
z
" transform="scale(0.015625)"/>
      </defs>
      <use xlink:href="#TimesNewRomanPSMT-46"/>
      <use xlink:href="#TimesNewRomanPSMT-65" x="55.615234"/>
      <use xlink:href="#TimesNewRomanPSMT-64" x="100"/>
      <use xlink:href="#TimesNewRomanPSMT-41" x="150"/>
      <use xlink:href="#TimesNewRomanPSMT-76" x="214.841797"/>
      <use xlink:href="#TimesNewRomanPSMT-67" x="264.841797"/>
     </g>
    </g>
    <g id="line2d_37">
     <path d="M 411.809375 258.74625 
L 429.809375 258.74625 
L 447.809375 258.74625 
" style="fill: none; stroke: #008000; stroke-width: 2; stroke-linecap: square"/>
    </g>
    <g id="text_20">
     <!-- FedProto -->
     <g transform="translate(462.209375 265.04625) scale(0.18 -0.18)">
      <defs>
       <path id="TimesNewRomanPSMT-50" d="M 1313 1984 
L 1313 750 
Q 1313 350 1400 253 
Q 1519 116 1759 116 
L 1922 116 
L 1922 0 
L 106 0 
L 106 116 
L 266 116 
Q 534 116 650 291 
Q 713 388 713 750 
L 713 3488 
Q 713 3888 628 3984 
Q 506 4122 266 4122 
L 106 4122 
L 106 4238 
L 1659 4238 
Q 2228 4238 2556 4120 
Q 2884 4003 3109 3725 
Q 3334 3447 3334 3066 
Q 3334 2547 2992 2222 
Q 2650 1897 2025 1897 
Q 1872 1897 1694 1919 
Q 1516 1941 1313 1984 
z
M 1313 2163 
Q 1478 2131 1606 2115 
Q 1734 2100 1825 2100 
Q 2150 2100 2386 2351 
Q 2622 2603 2622 3003 
Q 2622 3278 2509 3514 
Q 2397 3750 2190 3867 
Q 1984 3984 1722 3984 
Q 1563 3984 1313 3925 
L 1313 2163 
z
" transform="scale(0.015625)"/>
      </defs>
      <use xlink:href="#TimesNewRomanPSMT-46"/>
      <use xlink:href="#TimesNewRomanPSMT-65" x="55.615234"/>
      <use xlink:href="#TimesNewRomanPSMT-64" x="100"/>
      <use xlink:href="#TimesNewRomanPSMT-50" x="150"/>
      <use xlink:href="#TimesNewRomanPSMT-72" x="205.615234"/>
      <use xlink:href="#TimesNewRomanPSMT-6f" x="238.916016"/>
      <use xlink:href="#TimesNewRomanPSMT-74" x="288.916016"/>
      <use xlink:href="#TimesNewRomanPSMT-6f" x="316.699219"/>
     </g>
    </g>
    <g id="line2d_38">
     <path d="M 411.809375 284.196563 
L 429.809375 284.196563 
L 447.809375 284.196563 
" style="fill: none; stroke: #ff00ff; stroke-width: 2; stroke-linecap: square"/>
    </g>
    <g id="text_21">
     <!-- FedDTG -->
     <g transform="translate(462.209375 290.496563) scale(0.18 -0.18)">
      <defs>
       <path id="TimesNewRomanPSMT-44" d="M 109 0 
L 109 116 
L 269 116 
Q 538 116 650 288 
Q 719 391 719 750 
L 719 3488 
Q 719 3884 631 3984 
Q 509 4122 269 4122 
L 109 4122 
L 109 4238 
L 1834 4238 
Q 2784 4238 3279 4022 
Q 3775 3806 4076 3303 
Q 4378 2800 4378 2141 
Q 4378 1256 3841 663 
Q 3238 0 2003 0 
L 109 0 
z
M 1319 306 
Q 1716 219 1984 219 
Q 2709 219 3187 728 
Q 3666 1238 3666 2109 
Q 3666 2988 3187 3494 
Q 2709 4000 1959 4000 
Q 1678 4000 1319 3909 
L 1319 306 
z
" transform="scale(0.015625)"/>
      </defs>
      <use xlink:href="#TimesNewRomanPSMT-46"/>
      <use xlink:href="#TimesNewRomanPSMT-65" x="55.615234"/>
      <use xlink:href="#TimesNewRomanPSMT-64" x="100"/>
      <use xlink:href="#TimesNewRomanPSMT-44" x="150"/>
      <use xlink:href="#TimesNewRomanPSMT-54" x="222.216797"/>
      <use xlink:href="#TimesNewRomanPSMT-47" x="283.300781"/>
     </g>
    </g>
    <g id="line2d_39">
     <path d="M 411.809375 309.646875 
L 429.809375 309.646875 
L 447.809375 309.646875 
" style="fill: none; stroke: #ffa500; stroke-width: 2; stroke-linecap: square"/>
    </g>
    <g id="text_22">
     <!-- FedMEKT -->
     <g transform="translate(462.209375 315.946875) scale(0.18 -0.18)">
      <defs>
       <path id="TimesNewRomanPSMT-4b" d="M 1913 2350 
L 3475 797 
Q 3859 413 4131 273 
Q 4403 134 4675 116 
L 4675 0 
L 2659 0 
L 2659 116 
Q 2841 116 2920 177 
Q 3000 238 3000 313 
Q 3000 388 2970 447 
Q 2941 506 2775 669 
L 1313 2116 
L 1313 750 
Q 1313 428 1353 325 
Q 1384 247 1484 191 
Q 1619 116 1769 116 
L 1913 116 
L 1913 0 
L 106 0 
L 106 116 
L 256 116 
Q 519 116 638 269 
Q 713 369 713 750 
L 713 3488 
Q 713 3809 672 3916 
Q 641 3991 544 4047 
Q 406 4122 256 4122 
L 106 4122 
L 106 4238 
L 1913 4238 
L 1913 4122 
L 1769 4122 
Q 1622 4122 1484 4050 
Q 1388 4000 1350 3900 
Q 1313 3800 1313 3488 
L 1313 2191 
Q 1375 2250 1741 2588 
Q 2669 3438 2863 3722 
Q 2947 3847 2947 3941 
Q 2947 4013 2881 4067 
Q 2816 4122 2659 4122 
L 2563 4122 
L 2563 4238 
L 4119 4238 
L 4119 4122 
Q 3981 4119 3868 4084 
Q 3756 4050 3593 3951 
Q 3431 3853 3194 3634 
Q 3125 3572 2559 2994 
L 1913 2350 
z
" transform="scale(0.015625)"/>
      </defs>
      <use xlink:href="#TimesNewRomanPSMT-46"/>
      <use xlink:href="#TimesNewRomanPSMT-65" x="55.615234"/>
      <use xlink:href="#TimesNewRomanPSMT-64" x="100"/>
      <use xlink:href="#TimesNewRomanPSMT-4d" x="150"/>
      <use xlink:href="#TimesNewRomanPSMT-45" x="238.916016"/>
      <use xlink:href="#TimesNewRomanPSMT-4b" x="300"/>
      <use xlink:href="#TimesNewRomanPSMT-54" x="372.216797"/>
     </g>
    </g>
    <g id="line2d_40">
     <path d="M 411.809375 335.097188 
L 429.809375 335.097188 
L 447.809375 335.097188 
" style="fill: none; stroke: #ff0000; stroke-width: 2; stroke-linecap: square"/>
    </g>
    <g id="text_23">
     <!-- FedBiKD -->
     <g transform="translate(462.209375 341.397188) scale(0.18 -0.18)">
      <defs>
       <path id="TimesNewRomanPSMT-42" d="M 2956 2163 
Q 3397 2069 3616 1863 
Q 3919 1575 3919 1159 
Q 3919 844 3719 555 
Q 3519 266 3170 133 
Q 2822 0 2106 0 
L 106 0 
L 106 116 
L 266 116 
Q 531 116 647 284 
Q 719 394 719 750 
L 719 3488 
Q 719 3881 628 3984 
Q 506 4122 266 4122 
L 106 4122 
L 106 4238 
L 1938 4238 
Q 2450 4238 2759 4163 
Q 3228 4050 3475 3764 
Q 3722 3478 3722 3106 
Q 3722 2788 3528 2536 
Q 3334 2284 2956 2163 
z
M 1319 2331 
Q 1434 2309 1582 2298 
Q 1731 2288 1909 2288 
Q 2366 2288 2595 2386 
Q 2825 2484 2947 2687 
Q 3069 2891 3069 3131 
Q 3069 3503 2766 3765 
Q 2463 4028 1881 4028 
Q 1569 4028 1319 3959 
L 1319 2331 
z
M 1319 306 
Q 1681 222 2034 222 
Q 2600 222 2897 476 
Q 3194 731 3194 1106 
Q 3194 1353 3059 1581 
Q 2925 1809 2622 1940 
Q 2319 2072 1872 2072 
Q 1678 2072 1540 2065 
Q 1403 2059 1319 2044 
L 1319 306 
z
" transform="scale(0.015625)"/>
      </defs>
      <use xlink:href="#TimesNewRomanPSMT-46"/>
      <use xlink:href="#TimesNewRomanPSMT-65" x="55.615234"/>
      <use xlink:href="#TimesNewRomanPSMT-64" x="100"/>
      <use xlink:href="#TimesNewRomanPSMT-42" x="150"/>
      <use xlink:href="#TimesNewRomanPSMT-69" x="216.699219"/>
      <use xlink:href="#TimesNewRomanPSMT-4b" x="244.482422"/>
      <use xlink:href="#TimesNewRomanPSMT-44" x="316.699219"/>
     </g>
    </g>
   </g>
  </g>
  <g id="axes_2">
   <g id="patch_8">
    <path d="M 621.942812 361.4475 
L 1123.762813 361.4475 
L 1123.762813 27.0875 
L 621.942812 27.0875 
z
" style="fill: #ffffff"/>
   </g>
   <g id="matplotlib.axis_3">
    <g id="xtick_7">
     <g id="line2d_41">
      <path d="M 640.144732 361.4475 
L 640.144732 27.0875 
" clip-path="url(#p4d481b974c)" style="fill: none; stroke: #b0b0b0; stroke-opacity: 0.3; stroke-width: 0.8; stroke-linecap: square"/>
     </g>
     <g id="line2d_42">
      <g>
       <use xlink:href="#mc326052159" x="640.144732" y="361.4475" style="stroke: #000000; stroke-width: 0.8"/>
      </g>
     </g>
     <g id="text_24">
      <!-- 0 -->
      <g transform="translate(636.144732 379.5575) scale(0.16 -0.16)">
       <use xlink:href="#TimesNewRomanPSMT-30"/>
      </g>
     </g>
    </g>
    <g id="xtick_8">
     <g id="line2d_43">
      <path d="M 732.306348 361.4475 
L 732.306348 27.0875 
" clip-path="url(#p4d481b974c)" style="fill: none; stroke: #b0b0b0; stroke-opacity: 0.3; stroke-width: 0.8; stroke-linecap: square"/>
     </g>
     <g id="line2d_44">
      <g>
       <use xlink:href="#mc326052159" x="732.306348" y="361.4475" style="stroke: #000000; stroke-width: 0.8"/>
      </g>
     </g>
     <g id="text_25">
      <!-- 20 -->
      <g transform="translate(724.306348 379.5575) scale(0.16 -0.16)">
       <use xlink:href="#TimesNewRomanPSMT-32"/>
       <use xlink:href="#TimesNewRomanPSMT-30" x="50"/>
      </g>
     </g>
    </g>
    <g id="xtick_9">
     <g id="line2d_45">
      <path d="M 824.467964 361.4475 
L 824.467964 27.0875 
" clip-path="url(#p4d481b974c)" style="fill: none; stroke: #b0b0b0; stroke-opacity: 0.3; stroke-width: 0.8; stroke-linecap: square"/>
     </g>
     <g id="line2d_46">
      <g>
       <use xlink:href="#mc326052159" x="824.467964" y="361.4475" style="stroke: #000000; stroke-width: 0.8"/>
      </g>
     </g>
     <g id="text_26">
      <!-- 40 -->
      <g transform="translate(816.467964 379.5575) scale(0.16 -0.16)">
       <use xlink:href="#TimesNewRomanPSMT-34"/>
       <use xlink:href="#TimesNewRomanPSMT-30" x="50"/>
      </g>
     </g>
    </g>
    <g id="xtick_10">
     <g id="line2d_47">
      <path d="M 916.62958 361.4475 
L 916.62958 27.0875 
" clip-path="url(#p4d481b974c)" style="fill: none; stroke: #b0b0b0; stroke-opacity: 0.3; stroke-width: 0.8; stroke-linecap: square"/>
     </g>
     <g id="line2d_48">
      <g>
       <use xlink:href="#mc326052159" x="916.62958" y="361.4475" style="stroke: #000000; stroke-width: 0.8"/>
      </g>
     </g>
     <g id="text_27">
      <!-- 60 -->
      <g transform="translate(908.62958 379.5575) scale(0.16 -0.16)">
       <use xlink:href="#TimesNewRomanPSMT-36"/>
       <use xlink:href="#TimesNewRomanPSMT-30" x="50"/>
      </g>
     </g>
    </g>
    <g id="xtick_11">
     <g id="line2d_49">
      <path d="M 1008.791196 361.4475 
L 1008.791196 27.0875 
" clip-path="url(#p4d481b974c)" style="fill: none; stroke: #b0b0b0; stroke-opacity: 0.3; stroke-width: 0.8; stroke-linecap: square"/>
     </g>
     <g id="line2d_50">
      <g>
       <use xlink:href="#mc326052159" x="1008.791196" y="361.4475" style="stroke: #000000; stroke-width: 0.8"/>
      </g>
     </g>
     <g id="text_28">
      <!-- 80 -->
      <g transform="translate(1000.791196 379.5575) scale(0.16 -0.16)">
       <use xlink:href="#TimesNewRomanPSMT-38"/>
       <use xlink:href="#TimesNewRomanPSMT-30" x="50"/>
      </g>
     </g>
    </g>
    <g id="xtick_12">
     <g id="line2d_51">
      <path d="M 1100.952813 361.4475 
L 1100.952813 27.0875 
" clip-path="url(#p4d481b974c)" style="fill: none; stroke: #b0b0b0; stroke-opacity: 0.3; stroke-width: 0.8; stroke-linecap: square"/>
     </g>
     <g id="line2d_52">
      <g>
       <use xlink:href="#mc326052159" x="1100.952813" y="361.4475" style="stroke: #000000; stroke-width: 0.8"/>
      </g>
     </g>
     <g id="text_29">
      <!-- 100 -->
      <g transform="translate(1088.952813 379.5575) scale(0.16 -0.16)">
       <use xlink:href="#TimesNewRomanPSMT-31"/>
       <use xlink:href="#TimesNewRomanPSMT-30" x="50"/>
       <use xlink:href="#TimesNewRomanPSMT-30" x="100"/>
      </g>
     </g>
    </g>
    <g id="text_30">
     <!-- Communication Rounds -->
     <g transform="translate(785.101406 399.47875) scale(0.18 -0.18)">
      <use xlink:href="#TimesNewRomanPSMT-43"/>
      <use xlink:href="#TimesNewRomanPSMT-6f" x="66.699219"/>
      <use xlink:href="#TimesNewRomanPSMT-6d" x="116.699219"/>
      <use xlink:href="#TimesNewRomanPSMT-6d" x="194.482422"/>
      <use xlink:href="#TimesNewRomanPSMT-75" x="272.265625"/>
      <use xlink:href="#TimesNewRomanPSMT-6e" x="322.265625"/>
      <use xlink:href="#TimesNewRomanPSMT-69" x="372.265625"/>
      <use xlink:href="#TimesNewRomanPSMT-63" x="400.048828"/>
      <use xlink:href="#TimesNewRomanPSMT-61" x="444.433594"/>
      <use xlink:href="#TimesNewRomanPSMT-74" x="488.818359"/>
      <use xlink:href="#TimesNewRomanPSMT-69" x="516.601562"/>
      <use xlink:href="#TimesNewRomanPSMT-6f" x="544.384766"/>
      <use xlink:href="#TimesNewRomanPSMT-6e" x="594.384766"/>
      <use xlink:href="#TimesNewRomanPSMT-20" x="644.384766"/>
      <use xlink:href="#TimesNewRomanPSMT-52" x="669.384766"/>
      <use xlink:href="#TimesNewRomanPSMT-6f" x="736.083984"/>
      <use xlink:href="#TimesNewRomanPSMT-75" x="786.083984"/>
      <use xlink:href="#TimesNewRomanPSMT-6e" x="836.083984"/>
      <use xlink:href="#TimesNewRomanPSMT-64" x="886.083984"/>
      <use xlink:href="#TimesNewRomanPSMT-73" x="936.083984"/>
     </g>
    </g>
   </g>
   <g id="matplotlib.axis_4">
    <g id="ytick_9">
     <g id="line2d_53">
      <path d="M 621.942812 356.378029 
L 1123.762813 356.378029 
" clip-path="url(#p4d481b974c)" style="fill: none; stroke: #b0b0b0; stroke-opacity: 0.3; stroke-width: 0.8; stroke-linecap: square"/>
     </g>
     <g id="line2d_54">
      <g>
       <use xlink:href="#m3677a7c7d5" x="621.942812" y="356.378029" style="stroke: #000000; stroke-width: 0.8"/>
      </g>
     </g>
     <g id="text_31">
      <!-- 0.0 -->
      <g transform="translate(594.942812 361.933029) scale(0.16 -0.16)">
       <use xlink:href="#TimesNewRomanPSMT-30"/>
       <use xlink:href="#TimesNewRomanPSMT-2e" x="50"/>
       <use xlink:href="#TimesNewRomanPSMT-30" x="75"/>
      </g>
     </g>
    </g>
    <g id="ytick_10">
     <g id="line2d_55">
      <path d="M 621.942812 302.008785 
L 1123.762813 302.008785 
" clip-path="url(#p4d481b974c)" style="fill: none; stroke: #b0b0b0; stroke-opacity: 0.3; stroke-width: 0.8; stroke-linecap: square"/>
     </g>
     <g id="line2d_56">
      <g>
       <use xlink:href="#m3677a7c7d5" x="621.942812" y="302.008785" style="stroke: #000000; stroke-width: 0.8"/>
      </g>
     </g>
     <g id="text_32">
      <!-- 0.1 -->
      <g transform="translate(594.942812 307.563785) scale(0.16 -0.16)">
       <use xlink:href="#TimesNewRomanPSMT-30"/>
       <use xlink:href="#TimesNewRomanPSMT-2e" x="50"/>
       <use xlink:href="#TimesNewRomanPSMT-31" x="75"/>
      </g>
     </g>
    </g>
    <g id="ytick_11">
     <g id="line2d_57">
      <path d="M 621.942812 247.639541 
L 1123.762813 247.639541 
" clip-path="url(#p4d481b974c)" style="fill: none; stroke: #b0b0b0; stroke-opacity: 0.3; stroke-width: 0.8; stroke-linecap: square"/>
     </g>
     <g id="line2d_58">
      <g>
       <use xlink:href="#m3677a7c7d5" x="621.942812" y="247.639541" style="stroke: #000000; stroke-width: 0.8"/>
      </g>
     </g>
     <g id="text_33">
      <!-- 0.2 -->
      <g transform="translate(594.942812 253.194541) scale(0.16 -0.16)">
       <use xlink:href="#TimesNewRomanPSMT-30"/>
       <use xlink:href="#TimesNewRomanPSMT-2e" x="50"/>
       <use xlink:href="#TimesNewRomanPSMT-32" x="75"/>
      </g>
     </g>
    </g>
    <g id="ytick_12">
     <g id="line2d_59">
      <path d="M 621.942812 193.270297 
L 1123.762813 193.270297 
" clip-path="url(#p4d481b974c)" style="fill: none; stroke: #b0b0b0; stroke-opacity: 0.3; stroke-width: 0.8; stroke-linecap: square"/>
     </g>
     <g id="line2d_60">
      <g>
       <use xlink:href="#m3677a7c7d5" x="621.942812" y="193.270297" style="stroke: #000000; stroke-width: 0.8"/>
      </g>
     </g>
     <g id="text_34">
      <!-- 0.3 -->
      <g transform="translate(594.942812 198.825297) scale(0.16 -0.16)">
       <use xlink:href="#TimesNewRomanPSMT-30"/>
       <use xlink:href="#TimesNewRomanPSMT-2e" x="50"/>
       <use xlink:href="#TimesNewRomanPSMT-33" x="75"/>
      </g>
     </g>
    </g>
    <g id="ytick_13">
     <g id="line2d_61">
      <path d="M 621.942812 138.901053 
L 1123.762813 138.901053 
" clip-path="url(#p4d481b974c)" style="fill: none; stroke: #b0b0b0; stroke-opacity: 0.3; stroke-width: 0.8; stroke-linecap: square"/>
     </g>
     <g id="line2d_62">
      <g>
       <use xlink:href="#m3677a7c7d5" x="621.942812" y="138.901053" style="stroke: #000000; stroke-width: 0.8"/>
      </g>
     </g>
     <g id="text_35">
      <!-- 0.4 -->
      <g transform="translate(594.942812 144.456053) scale(0.16 -0.16)">
       <use xlink:href="#TimesNewRomanPSMT-30"/>
       <use xlink:href="#TimesNewRomanPSMT-2e" x="50"/>
       <use xlink:href="#TimesNewRomanPSMT-34" x="75"/>
      </g>
     </g>
    </g>
    <g id="ytick_14">
     <g id="line2d_63">
      <path d="M 621.942812 84.531808 
L 1123.762813 84.531808 
" clip-path="url(#p4d481b974c)" style="fill: none; stroke: #b0b0b0; stroke-opacity: 0.3; stroke-width: 0.8; stroke-linecap: square"/>
     </g>
     <g id="line2d_64">
      <g>
       <use xlink:href="#m3677a7c7d5" x="621.942812" y="84.531808" style="stroke: #000000; stroke-width: 0.8"/>
      </g>
     </g>
     <g id="text_36">
      <!-- 0.5 -->
      <g transform="translate(594.942812 90.086808) scale(0.16 -0.16)">
       <use xlink:href="#TimesNewRomanPSMT-30"/>
       <use xlink:href="#TimesNewRomanPSMT-2e" x="50"/>
       <use xlink:href="#TimesNewRomanPSMT-35" x="75"/>
      </g>
     </g>
    </g>
    <g id="ytick_15">
     <g id="line2d_65">
      <path d="M 621.942812 30.162564 
L 1123.762813 30.162564 
" clip-path="url(#p4d481b974c)" style="fill: none; stroke: #b0b0b0; stroke-opacity: 0.3; stroke-width: 0.8; stroke-linecap: square"/>
     </g>
     <g id="line2d_66">
      <g>
       <use xlink:href="#m3677a7c7d5" x="621.942812" y="30.162564" style="stroke: #000000; stroke-width: 0.8"/>
      </g>
     </g>
     <g id="text_37">
      <!-- 0.6 -->
      <g transform="translate(594.942812 35.717564) scale(0.16 -0.16)">
       <use xlink:href="#TimesNewRomanPSMT-30"/>
       <use xlink:href="#TimesNewRomanPSMT-2e" x="50"/>
       <use xlink:href="#TimesNewRomanPSMT-36" x="75"/>
      </g>
     </g>
    </g>
    <g id="text_38">
     <!-- Global F1 Score -->
     <g transform="translate(587.0925 253.259688) rotate(-90) scale(0.18 -0.18)">
      <use xlink:href="#TimesNewRomanPSMT-47"/>
      <use xlink:href="#TimesNewRomanPSMT-6c" x="72.216797"/>
      <use xlink:href="#TimesNewRomanPSMT-6f" x="100"/>
      <use xlink:href="#TimesNewRomanPSMT-62" x="150"/>
      <use xlink:href="#TimesNewRomanPSMT-61" x="200"/>
      <use xlink:href="#TimesNewRomanPSMT-6c" x="244.384766"/>
      <use xlink:href="#TimesNewRomanPSMT-20" x="272.167969"/>
      <use xlink:href="#TimesNewRomanPSMT-46" x="297.167969"/>
      <use xlink:href="#TimesNewRomanPSMT-31" x="352.783203"/>
      <use xlink:href="#TimesNewRomanPSMT-20" x="402.783203"/>
      <use xlink:href="#TimesNewRomanPSMT-53" x="427.783203"/>
      <use xlink:href="#TimesNewRomanPSMT-63" x="483.398438"/>
      <use xlink:href="#TimesNewRomanPSMT-6f" x="527.783203"/>
      <use xlink:href="#TimesNewRomanPSMT-72" x="577.783203"/>
      <use xlink:href="#TimesNewRomanPSMT-65" x="611.083984"/>
     </g>
    </g>
   </g>
   <g id="line2d_67">
    <path d="M 644.752812 343.339605 
L 649.360893 324.820299 
L 653.968974 295.802946 
L 658.577055 253.487365 
L 663.185136 228.133795 
L 667.793217 198.620474 
L 672.401297 177.286988 
L 677.009378 162.684721 
L 681.617459 150.857074 
L 686.22554 140.773208 
L 690.833621 133.625174 
L 695.441701 129.440677 
L 700.049782 124.190578 
L 704.657863 119.627578 
L 709.265944 114.341328 
L 713.874025 110.376029 
L 718.482105 107.74071 
L 723.090186 105.010241 
L 727.698267 103.903675 
L 732.306348 101.996822 
L 736.914429 98.989177 
L 741.522509 96.122252 
L 746.13059 92.836367 
L 750.738671 90.002187 
L 755.346752 86.485804 
L 759.954833 83.408924 
L 764.562914 80.637862 
L 769.170994 78.854593 
L 773.779075 77.047855 
L 778.387156 76.316202 
L 782.995237 75.621182 
L 787.603318 74.07329 
L 792.211398 73.028998 
L 796.819479 71.850552 
L 801.42756 71.641756 
L 806.035641 71.175644 
L 810.643722 70.080971 
L 815.251802 70.062154 
L 819.859883 70.279834 
L 824.467964 69.321841 
L 829.076045 68.614891 
L 833.684126 68.494052 
L 838.292206 67.606949 
L 842.900287 66.15562 
L 847.508368 64.873004 
L 852.116449 63.663819 
L 856.72453 63.064559 
L 861.33261 62.508787 
L 865.940691 61.603496 
L 870.548772 60.61193 
L 875.156853 59.525934 
L 879.764934 58.607239 
L 884.373015 58.036675 
L 888.981095 57.559193 
L 893.589176 57.252569 
L 898.197257 56.739806 
L 902.805338 56.623078 
L 907.413419 55.91176 
L 912.021499 55.562488 
L 916.62958 55.139967 
L 921.237661 54.659898 
L 925.845742 54.069152 
L 930.453823 53.670292 
L 935.061903 53.451361 
L 939.669984 53.292125 
L 944.278065 53.028052 
L 948.886146 52.916134 
L 953.494227 52.724786 
L 958.102307 52.568675 
L 962.710388 52.312644 
L 967.318469 52.152171 
L 971.92655 52.017319 
L 976.534631 51.883244 
L 981.142711 51.902076 
L 985.750792 51.854793 
L 990.358873 51.605556 
L 994.966954 51.194888 
L 999.575035 50.875869 
L 1004.183116 50.708668 
L 1008.791196 50.515118 
L 1013.399277 50.381909 
L 1018.007358 50.274859 
L 1022.615439 50.087263 
L 1027.22352 49.919629 
L 1031.8316 49.78213 
L 1036.439681 49.664524 
L 1041.047762 49.504357 
L 1045.655843 49.286139 
L 1050.263924 49.104874 
L 1054.872004 48.995955 
L 1059.480085 48.83595 
L 1064.088166 48.739353 
L 1068.696247 48.640835 
L 1073.304328 48.509079 
L 1077.912408 48.359023 
L 1082.520489 48.29655 
L 1087.12857 48.190776 
L 1091.736651 48.101344 
L 1096.344732 48.002583 
L 1100.952813 47.926968 
" clip-path="url(#p4d481b974c)" style="fill: none; stroke: #808080; stroke-width: 2; stroke-linecap: square"/>
   </g>
   <g id="line2d_68">
    <path d="M 644.752812 339.569198 
L 649.360893 338.442218 
L 653.968974 336.803433 
L 658.577055 334.111829 
L 663.185136 325.854173 
L 667.793217 322.102911 
L 672.401297 313.538184 
L 677.009378 314.118787 
L 681.617459 310.684037 
L 686.22554 308.726308 
L 690.833621 305.664849 
L 695.441701 289.126123 
L 700.049782 279.802645 
L 704.657863 276.815729 
L 709.265944 272.668678 
L 713.874025 259.19804 
L 718.482105 244.388985 
L 723.090186 237.81988 
L 727.698267 227.02839 
L 732.306348 215.174547 
L 736.914429 192.318991 
L 741.522509 165.176657 
L 746.13059 146.171419 
L 750.738671 129.712653 
L 755.346752 112.300343 
L 759.954833 98.501594 
L 764.562914 90.728761 
L 769.170994 75.143673 
L 773.779075 72.245495 
L 778.387156 73.448316 
L 782.995237 67.690709 
L 787.603318 64.861481 
L 792.211398 58.418342 
L 796.819479 56.968572 
L 801.42756 53.360772 
L 806.035641 52.246919 
L 810.643722 51.747487 
L 815.251802 50.321063 
L 819.859883 48.567119 
L 824.467964 48.295365 
L 829.076045 48.529057 
L 833.684126 48.831239 
L 838.292206 48.638065 
L 842.900287 48.501766 
L 847.508368 48.696853 
L 852.116449 48.35805 
L 856.72453 48.093702 
L 861.33261 47.900883 
L 865.940691 47.871488 
L 870.548772 47.908362 
L 875.156853 48.011216 
L 879.764934 47.879624 
L 884.373015 47.439478 
L 888.981095 47.096904 
L 893.589176 46.665075 
L 898.197257 46.820372 
L 902.805338 46.861297 
L 907.413419 46.491537 
L 912.021499 46.524837 
L 916.62958 46.240635 
L 921.237661 46.609453 
L 925.845742 46.251743 
L 930.453823 45.9668 
L 935.061903 46.461206 
L 939.669984 46.119569 
L 944.278065 46.201272 
L 948.886146 45.701971 
L 953.494227 45.878979 
L 958.102307 45.759453 
L 962.710388 45.414129 
L 967.318469 45.525986 
L 971.92655 45.463606 
L 976.534631 45.934789 
L 981.142711 45.59171 
L 985.750792 45.18209 
L 990.358873 44.547646 
L 994.966954 44.463481 
L 999.575035 44.397285 
L 1004.183116 44.10776 
L 1008.791196 44.141777 
L 1013.399277 44.662178 
L 1018.007358 45.226285 
L 1022.615439 45.02189 
L 1027.22352 44.156435 
L 1031.8316 44.730517 
L 1036.439681 44.540564 
L 1041.047762 44.012013 
L 1045.655843 43.984753 
L 1050.263924 43.512407 
L 1054.872004 43.262548 
L 1059.480085 42.945286 
L 1064.088166 42.838187 
L 1068.696247 42.925422 
L 1073.304328 43.015962 
L 1077.912408 43.187404 
L 1082.520489 42.902989 
L 1087.12857 43.029878 
L 1091.736651 42.498907 
L 1096.344732 42.411227 
L 1100.952813 42.285682 
" clip-path="url(#p4d481b974c)" style="fill: none; stroke: #0000ff; stroke-width: 2; stroke-linecap: square"/>
   </g>
   <g id="line2d_69">
    <path d="M 644.752812 315.409035 
L 649.360893 288.508475 
L 653.968974 262.196552 
L 658.577055 228.908961 
L 663.185136 202.985791 
L 667.793217 173.066239 
L 672.401297 156.296096 
L 677.009378 142.943338 
L 681.617459 130.387538 
L 686.22554 118.56089 
L 690.833621 106.742889 
L 695.441701 97.986693 
L 700.049782 90.098252 
L 704.657863 82.474214 
L 709.265944 77.851455 
L 713.874025 75.211657 
L 718.482105 74.162102 
L 723.090186 72.889765 
L 727.698267 71.82768 
L 732.306348 71.181358 
L 736.914429 70.99278 
L 741.522509 71.083353 
L 746.13059 70.426684 
L 750.738671 68.455338 
L 755.346752 67.152548 
L 759.954833 65.629327 
L 764.562914 64.229092 
L 769.170994 63.342477 
L 773.779075 62.974328 
L 778.387156 62.431805 
L 782.995237 61.02534 
L 787.603318 59.655346 
L 792.211398 58.172484 
L 796.819479 58.201035 
L 801.42756 57.2909 
L 806.035641 56.584506 
L 810.643722 55.885678 
L 815.251802 55.096106 
L 819.859883 54.22608 
L 824.467964 53.581231 
L 829.076045 53.053739 
L 833.684126 52.441243 
L 838.292206 51.800543 
L 842.900287 51.253078 
L 847.508368 50.89253 
L 852.116449 50.695766 
L 856.72453 50.382858 
L 861.33261 50.332892 
L 865.940691 50.437422 
L 870.548772 50.484178 
L 875.156853 50.408036 
L 879.764934 50.330958 
L 884.373015 50.098641 
L 888.981095 49.989997 
L 893.589176 49.875778 
L 898.197257 49.770081 
L 902.805338 49.827917 
L 907.413419 49.859768 
L 912.021499 49.722771 
L 916.62958 49.654096 
L 921.237661 49.544585 
L 925.845742 49.396254 
L 930.453823 49.298466 
L 935.061903 49.155079 
L 939.669984 49.092456 
L 944.278065 49.146741 
L 948.886146 49.019914 
L 953.494227 48.774867 
L 958.102307 48.592967 
L 962.710388 48.450865 
L 967.318469 48.370658 
L 971.92655 48.327199 
L 976.534631 48.288884 
L 981.142711 48.26026 
L 985.750792 48.252071 
L 990.358873 48.220773 
L 994.966954 48.222303 
L 999.575035 48.209876 
L 1004.183116 48.209143 
L 1008.791196 48.179803 
L 1013.399277 48.17384 
L 1018.007358 48.157089 
L 1022.615439 48.147104 
L 1027.22352 48.146565 
L 1031.8316 48.140302 
L 1036.439681 48.08497 
L 1041.047762 48.050669 
L 1045.655843 48.014031 
L 1050.263924 47.989938 
L 1054.872004 47.984385 
L 1059.480085 47.956696 
L 1064.088166 47.941458 
L 1068.696247 47.927205 
L 1073.304328 47.901621 
L 1077.912408 47.881143 
L 1082.520489 47.850841 
L 1087.12857 47.821168 
L 1091.736651 47.797733 
L 1096.344732 47.778286 
L 1100.952813 47.775544 
" clip-path="url(#p4d481b974c)" style="fill: none; stroke: #008000; stroke-width: 2; stroke-linecap: square"/>
   </g>
   <g id="line2d_70">
    <path d="M 644.752812 341.694852 
L 649.360893 343.578798 
L 653.968974 342.998362 
L 658.577055 345.936103 
L 663.185136 344.834722 
L 667.793217 346.249318 
L 672.401297 344.787532 
L 677.009378 343.747367 
L 681.617459 344.097582 
L 686.22554 341.087683 
L 690.833621 337.914391 
L 695.441701 336.240116 
L 700.049782 334.731189 
L 704.657863 331.459507 
L 709.265944 325.05657 
L 713.874025 324.528973 
L 718.482105 320.815034 
L 723.090186 318.412144 
L 727.698267 308.354727 
L 732.306348 304.536253 
L 736.914429 300.576289 
L 741.522509 298.469558 
L 746.13059 285.390639 
L 750.738671 285.157166 
L 755.346752 272.634903 
L 759.954833 260.840236 
L 764.562914 246.528459 
L 769.170994 233.192561 
L 773.779075 211.061541 
L 778.387156 201.169905 
L 782.995237 197.28226 
L 787.603318 177.857274 
L 792.211398 160.543185 
L 796.819479 154.530512 
L 801.42756 141.398548 
L 806.035641 129.335211 
L 810.643722 124.177845 
L 815.251802 121.635361 
L 819.859883 116.983298 
L 824.467964 107.331319 
L 829.076045 108.996201 
L 833.684126 106.896371 
L 838.292206 97.130747 
L 842.900287 93.661816 
L 847.508368 94.292769 
L 852.116449 91.540112 
L 856.72453 87.720311 
L 861.33261 82.906894 
L 865.940691 82.089489 
L 870.548772 80.212484 
L 875.156853 73.991645 
L 879.764934 81.201978 
L 884.373015 77.295959 
L 888.981095 74.783657 
L 893.589176 71.367308 
L 898.197257 66.491088 
L 902.805338 66.513304 
L 907.413419 65.018533 
L 912.021499 63.06152 
L 916.62958 63.08653 
L 921.237661 61.279425 
L 925.845742 60.325828 
L 930.453823 63.464592 
L 935.061903 60.635425 
L 939.669984 56.188619 
L 944.278065 52.730063 
L 948.886146 51.795007 
L 953.494227 50.760326 
L 958.102307 49.497042 
L 962.710388 47.898519 
L 967.318469 48.869012 
L 971.92655 47.968723 
L 976.534631 48.219477 
L 981.142711 47.523384 
L 985.750792 48.12194 
L 990.358873 48.996433 
L 994.966954 48.303633 
L 999.575035 47.485197 
L 1004.183116 46.468739 
L 1008.791196 47.172084 
L 1013.399277 46.927575 
L 1018.007358 47.304909 
L 1022.615439 46.38449 
L 1027.22352 46.606958 
L 1031.8316 47.837071 
L 1036.439681 48.127288 
L 1041.047762 47.2046 
L 1045.655843 46.862901 
L 1050.263924 48.055129 
L 1054.872004 48.801936 
L 1059.480085 48.013368 
L 1064.088166 48.717795 
L 1068.696247 48.546692 
L 1073.304328 49.814676 
L 1077.912408 50.156401 
L 1082.520489 48.611858 
L 1087.12857 48.307579 
L 1091.736651 48.424791 
L 1096.344732 47.788784 
L 1100.952813 48.446403 
" clip-path="url(#p4d481b974c)" style="fill: none; stroke: #ff00ff; stroke-width: 2; stroke-linecap: square"/>
   </g>
   <g id="line2d_71">
    <path d="M 644.752812 310.725626 
L 649.360893 287.665692 
L 653.968974 262.263456 
L 658.577055 230.491985 
L 663.185136 205.53715 
L 667.793217 179.511962 
L 672.401297 161.434954 
L 677.009378 145.90217 
L 681.617459 132.553756 
L 686.22554 119.974117 
L 690.833621 106.78194 
L 695.441701 96.541727 
L 700.049782 86.19951 
L 704.657863 78.266562 
L 709.265944 73.225645 
L 713.874025 70.694481 
L 718.482105 67.633039 
L 723.090186 64.716947 
L 727.698267 62.325071 
L 732.306348 60.776194 
L 736.914429 60.197143 
L 741.522509 59.88529 
L 746.13059 58.938142 
L 750.738671 58.013082 
L 755.346752 57.368529 
L 759.954833 56.677488 
L 764.562914 56.290944 
L 769.170994 55.712364 
L 773.779075 54.702499 
L 778.387156 53.722966 
L 782.995237 52.750871 
L 787.603318 52.291779 
L 792.211398 51.820447 
L 796.819479 52.752968 
L 801.42756 52.20015 
L 806.035641 51.789298 
L 810.643722 51.513938 
L 815.251802 51.319079 
L 819.859883 51.21357 
L 824.467964 51.247389 
L 829.076045 51.177809 
L 833.684126 50.982604 
L 838.292206 50.767829 
L 842.900287 50.574342 
L 847.508368 50.334539 
L 852.116449 50.025741 
L 856.72453 49.789977 
L 861.33261 49.647209 
L 865.940691 49.46968 
L 870.548772 49.37763 
L 875.156853 49.224414 
L 879.764934 49.058166 
L 884.373015 49.024043 
L 888.981095 48.93641 
L 893.589176 48.8573 
L 898.197257 48.759262 
L 902.805338 48.657325 
L 907.413419 48.58417 
L 912.021499 48.502536 
L 916.62958 48.405759 
L 921.237661 48.272878 
L 925.845742 48.196654 
L 930.453823 48.139571 
L 935.061903 48.081152 
L 939.669984 48.041479 
L 944.278065 48.026061 
L 948.886146 47.99948 
L 953.494227 47.966889 
L 958.102307 47.927639 
L 962.710388 47.889828 
L 967.318469 47.873013 
L 971.92655 47.851181 
L 976.534631 47.811362 
L 981.142711 47.80925 
L 985.750792 47.804624 
L 990.358873 47.792887 
L 994.966954 47.782884 
L 999.575035 47.78265 
L 1004.183116 47.791348 
L 1008.791196 47.799898 
L 1013.399277 47.803276 
L 1018.007358 47.820066 
L 1022.615439 47.824415 
L 1027.22352 47.823883 
L 1031.8316 47.802057 
L 1036.439681 47.781163 
L 1041.047762 47.791726 
L 1045.655843 47.800336 
L 1050.263924 47.799362 
L 1054.872004 47.808423 
L 1059.480085 47.805202 
L 1064.088166 47.803705 
L 1068.696247 47.803408 
L 1073.304328 47.803034 
L 1077.912408 47.805804 
L 1082.520489 47.826025 
L 1087.12857 47.83666 
L 1091.736651 47.838683 
L 1096.344732 47.839659 
L 1100.952813 47.817567 
" clip-path="url(#p4d481b974c)" style="fill: none; stroke: #ffa500; stroke-width: 2; stroke-linecap: square"/>
   </g>
   <g id="line2d_72">
    <path d="M 644.752812 287.687266 
L 649.360893 265.512139 
L 653.968974 254.892967 
L 658.577055 236.721792 
L 663.185136 220.58892 
L 667.793217 223.86078 
L 672.401297 220.851483 
L 677.009378 205.512228 
L 681.617459 173.376858 
L 686.22554 163.753742 
L 690.833621 172.386936 
L 695.441701 173.37048 
L 700.049782 158.496508 
L 704.657863 133.645458 
L 709.265944 111.134066 
L 713.874025 95.580787 
L 718.482105 87.64381 
L 723.090186 80.027869 
L 727.698267 73.347579 
L 732.306348 67.494579 
L 736.914429 62.991159 
L 741.522509 57.741106 
L 746.13059 54.754203 
L 750.738671 52.393679 
L 755.346752 50.532231 
L 759.954833 48.778889 
L 764.562914 48.013844 
L 769.170994 47.811878 
L 773.779075 47.742535 
L 778.387156 47.693931 
L 782.995237 47.679534 
L 787.603318 47.672376 
L 792.211398 47.672376 
L 796.819479 47.672376 
L 801.42756 47.672376 
L 806.035641 47.672376 
L 810.643722 47.672376 
L 815.251802 47.672376 
L 819.859883 47.672376 
L 824.467964 47.672376 
L 829.076045 47.672376 
L 833.684126 47.672376 
L 838.292206 47.672376 
L 842.900287 47.672376 
L 847.508368 47.672376 
L 852.116449 47.672376 
L 856.72453 47.672376 
L 861.33261 47.672376 
L 865.940691 47.672376 
L 870.548772 47.672376 
L 875.156853 47.672376 
L 879.764934 47.672376 
L 884.373015 47.672376 
L 888.981095 47.672376 
L 893.589176 47.672376 
L 898.197257 47.672376 
L 902.805338 47.672376 
L 907.413419 47.672376 
L 912.021499 47.672376 
L 916.62958 47.672376 
L 921.237661 47.672376 
L 925.845742 47.672376 
L 930.453823 47.672376 
L 935.061903 47.672376 
L 939.669984 47.672376 
L 944.278065 47.672376 
L 948.886146 47.672376 
L 953.494227 47.672376 
L 958.102307 47.672376 
L 962.710388 47.672376 
L 967.318469 47.672376 
L 971.92655 47.672376 
L 976.534631 47.672376 
L 981.142711 47.672376 
L 985.750792 47.672376 
L 990.358873 47.672376 
L 994.966954 47.672376 
L 999.575035 47.672376 
L 1004.183116 47.672376 
L 1008.791196 47.672376 
L 1013.399277 47.672376 
L 1018.007358 47.672376 
L 1022.615439 47.672376 
L 1027.22352 47.672376 
L 1031.8316 47.672376 
L 1036.439681 47.672376 
L 1041.047762 47.672376 
L 1045.655843 47.672376 
L 1050.263924 47.672376 
L 1054.872004 47.672376 
L 1059.480085 47.672376 
L 1064.088166 47.672376 
L 1068.696247 47.672376 
L 1073.304328 47.672376 
L 1077.912408 47.672376 
L 1082.520489 47.672376 
L 1087.12857 47.672376 
L 1091.736651 47.672376 
L 1096.344732 47.672376 
L 1100.952813 47.672376 
" clip-path="url(#p4d481b974c)" style="fill: none; stroke: #ff0000; stroke-width: 2; stroke-linecap: square"/>
   </g>
   <g id="patch_9">
    <path d="M 621.942812 361.4475 
L 621.942812 27.0875 
" style="fill: none; stroke: #000000; stroke-width: 0.8; stroke-linejoin: miter; stroke-linecap: square"/>
   </g>
   <g id="patch_10">
    <path d="M 1123.762813 361.4475 
L 1123.762813 27.0875 
" style="fill: none; stroke: #000000; stroke-width: 0.8; stroke-linejoin: miter; stroke-linecap: square"/>
   </g>
   <g id="patch_11">
    <path d="M 621.942812 361.4475 
L 1123.762813 361.4475 
" style="fill: none; stroke: #000000; stroke-width: 0.8; stroke-linejoin: miter; stroke-linecap: square"/>
   </g>
   <g id="patch_12">
    <path d="M 621.942812 27.0875 
L 1123.762813 27.0875 
" style="fill: none; stroke: #000000; stroke-width: 0.8; stroke-linejoin: miter; stroke-linecap: square"/>
   </g>
   <g id="text_39">
    <!-- F1 Score - MHEALTH -->
    <g transform="translate(780.724688 21.0875) scale(0.2 -0.2)">
     <use xlink:href="#TimesNewRomanPSMT-46"/>
     <use xlink:href="#TimesNewRomanPSMT-31" x="55.615234"/>
     <use xlink:href="#TimesNewRomanPSMT-20" x="105.615234"/>
     <use xlink:href="#TimesNewRomanPSMT-53" x="130.615234"/>
     <use xlink:href="#TimesNewRomanPSMT-63" x="186.230469"/>
     <use xlink:href="#TimesNewRomanPSMT-6f" x="230.615234"/>
     <use xlink:href="#TimesNewRomanPSMT-72" x="280.615234"/>
     <use xlink:href="#TimesNewRomanPSMT-65" x="313.916016"/>
     <use xlink:href="#TimesNewRomanPSMT-20" x="358.300781"/>
     <use xlink:href="#TimesNewRomanPSMT-2d" x="383.300781"/>
     <use xlink:href="#TimesNewRomanPSMT-20" x="416.601562"/>
     <use xlink:href="#TimesNewRomanPSMT-4d" x="441.601562"/>
     <use xlink:href="#TimesNewRomanPSMT-48" x="530.517578"/>
     <use xlink:href="#TimesNewRomanPSMT-45" x="602.734375"/>
     <use xlink:href="#TimesNewRomanPSMT-41" x="663.818359"/>
     <use xlink:href="#TimesNewRomanPSMT-4c" x="736.035156"/>
     <use xlink:href="#TimesNewRomanPSMT-54" x="787.994141"/>
     <use xlink:href="#TimesNewRomanPSMT-48" x="849.078125"/>
    </g>
   </g>
   <g id="legend_2">
    <g id="patch_13">
     <path d="M 975.569375 352.4475 
L 1111.162813 352.4475 
Q 1114.762813 352.4475 1114.762813 348.8475 
L 1114.762813 197.878125 
Q 1114.762813 194.278125 1111.162813 194.278125 
L 975.569375 194.278125 
Q 971.969375 194.278125 971.969375 197.878125 
L 971.969375 348.8475 
Q 971.969375 352.4475 975.569375 352.4475 
z
" style="fill: #ffffff; opacity: 0.8; stroke: #cccccc; stroke-linejoin: miter"/>
    </g>
    <g id="line2d_73">
     <path d="M 979.169375 207.778125 
L 997.169375 207.778125 
L 1015.169375 207.778125 
" style="fill: none; stroke: #808080; stroke-width: 2; stroke-linecap: square"/>
    </g>
    <g id="text_40">
     <!-- Single -->
     <g transform="translate(1029.569375 214.078125) scale(0.18 -0.18)">
      <use xlink:href="#TimesNewRomanPSMT-53"/>
      <use xlink:href="#TimesNewRomanPSMT-69" x="55.615234"/>
      <use xlink:href="#TimesNewRomanPSMT-6e" x="83.398438"/>
      <use xlink:href="#TimesNewRomanPSMT-67" x="133.398438"/>
      <use xlink:href="#TimesNewRomanPSMT-6c" x="183.398438"/>
      <use xlink:href="#TimesNewRomanPSMT-65" x="211.181641"/>
     </g>
    </g>
    <g id="line2d_74">
     <path d="M 979.169375 233.262188 
L 997.169375 233.262188 
L 1015.169375 233.262188 
" style="fill: none; stroke: #0000ff; stroke-width: 2; stroke-linecap: square"/>
    </g>
    <g id="text_41">
     <!-- FedAvg -->
     <g transform="translate(1029.569375 239.562188) scale(0.18 -0.18)">
      <use xlink:href="#TimesNewRomanPSMT-46"/>
      <use xlink:href="#TimesNewRomanPSMT-65" x="55.615234"/>
      <use xlink:href="#TimesNewRomanPSMT-64" x="100"/>
      <use xlink:href="#TimesNewRomanPSMT-41" x="150"/>
      <use xlink:href="#TimesNewRomanPSMT-76" x="214.841797"/>
      <use xlink:href="#TimesNewRomanPSMT-67" x="264.841797"/>
     </g>
    </g>
    <g id="line2d_75">
     <path d="M 979.169375 258.74625 
L 997.169375 258.74625 
L 1015.169375 258.74625 
" style="fill: none; stroke: #008000; stroke-width: 2; stroke-linecap: square"/>
    </g>
    <g id="text_42">
     <!-- FedProto -->
     <g transform="translate(1029.569375 265.04625) scale(0.18 -0.18)">
      <use xlink:href="#TimesNewRomanPSMT-46"/>
      <use xlink:href="#TimesNewRomanPSMT-65" x="55.615234"/>
      <use xlink:href="#TimesNewRomanPSMT-64" x="100"/>
      <use xlink:href="#TimesNewRomanPSMT-50" x="150"/>
      <use xlink:href="#TimesNewRomanPSMT-72" x="205.615234"/>
      <use xlink:href="#TimesNewRomanPSMT-6f" x="238.916016"/>
      <use xlink:href="#TimesNewRomanPSMT-74" x="288.916016"/>
      <use xlink:href="#TimesNewRomanPSMT-6f" x="316.699219"/>
     </g>
    </g>
    <g id="line2d_76">
     <path d="M 979.169375 284.196563 
L 997.169375 284.196563 
L 1015.169375 284.196563 
" style="fill: none; stroke: #ff00ff; stroke-width: 2; stroke-linecap: square"/>
    </g>
    <g id="text_43">
     <!-- FedDTG -->
     <g transform="translate(1029.569375 290.496563) scale(0.18 -0.18)">
      <use xlink:href="#TimesNewRomanPSMT-46"/>
      <use xlink:href="#TimesNewRomanPSMT-65" x="55.615234"/>
      <use xlink:href="#TimesNewRomanPSMT-64" x="100"/>
      <use xlink:href="#TimesNewRomanPSMT-44" x="150"/>
      <use xlink:href="#TimesNewRomanPSMT-54" x="222.216797"/>
      <use xlink:href="#TimesNewRomanPSMT-47" x="283.300781"/>
     </g>
    </g>
    <g id="line2d_77">
     <path d="M 979.169375 309.646875 
L 997.169375 309.646875 
L 1015.169375 309.646875 
" style="fill: none; stroke: #ffa500; stroke-width: 2; stroke-linecap: square"/>
    </g>
    <g id="text_44">
     <!-- FedMEKT -->
     <g transform="translate(1029.569375 315.946875) scale(0.18 -0.18)">
      <use xlink:href="#TimesNewRomanPSMT-46"/>
      <use xlink:href="#TimesNewRomanPSMT-65" x="55.615234"/>
      <use xlink:href="#TimesNewRomanPSMT-64" x="100"/>
      <use xlink:href="#TimesNewRomanPSMT-4d" x="150"/>
      <use xlink:href="#TimesNewRomanPSMT-45" x="238.916016"/>
      <use xlink:href="#TimesNewRomanPSMT-4b" x="300"/>
      <use xlink:href="#TimesNewRomanPSMT-54" x="372.216797"/>
     </g>
    </g>
    <g id="line2d_78">
     <path d="M 979.169375 335.097188 
L 997.169375 335.097188 
L 1015.169375 335.097188 
" style="fill: none; stroke: #ff0000; stroke-width: 2; stroke-linecap: square"/>
    </g>
    <g id="text_45">
     <!-- FedBiKD -->
     <g transform="translate(1029.569375 341.397188) scale(0.18 -0.18)">
      <use xlink:href="#TimesNewRomanPSMT-46"/>
      <use xlink:href="#TimesNewRomanPSMT-65" x="55.615234"/>
      <use xlink:href="#TimesNewRomanPSMT-64" x="100"/>
      <use xlink:href="#TimesNewRomanPSMT-42" x="150"/>
      <use xlink:href="#TimesNewRomanPSMT-69" x="216.699219"/>
      <use xlink:href="#TimesNewRomanPSMT-4b" x="244.482422"/>
      <use xlink:href="#TimesNewRomanPSMT-44" x="316.699219"/>
     </g>
    </g>
   </g>
  </g>
 </g>
 <defs>
  <clipPath id="p4d3e576318">
   <rect x="54.582813" y="27.0875" width="501.82" height="334.36"/>
  </clipPath>
  <clipPath id="p4d481b974c">
   <rect x="621.942812" y="27.0875" width="501.82" height="334.36"/>
  </clipPath>
 </defs>
</svg>
