<?xml version="1.0" encoding="utf-8" standalone="no"?>
<!DOCTYPE svg PUBLIC "-//W3C//DTD SVG 1.1//EN"
  "http://www.w3.org/Graphics/SVG/1.1/DTD/svg11.dtd">
<svg xmlns:xlink="http://www.w3.org/1999/xlink" width="1130.962812pt" height="410.529063pt" viewBox="0 0 1130.962812 410.529063" xmlns="http://www.w3.org/2000/svg" version="1.1">
 <metadata>
  <rdf:RDF xmlns:dc="http://purl.org/dc/elements/1.1/" xmlns:cc="http://creativecommons.org/ns#" xmlns:rdf="http://www.w3.org/1999/02/22-rdf-syntax-ns#">
   <cc:Work>
    <dc:type rdf:resource="http://purl.org/dc/dcmitype/StillImage"/>
    <dc:date>2026-01-19T17:06:05.465955</dc:date>
    <dc:format>image/svg+xml</dc:format>
    <dc:creator>
     <cc:Agent>
      <dc:title>Matplotlib v3.9.4, https://matplotlib.org/</dc:title>
     </cc:Agent>
    </dc:creator>
   </cc:Work>
  </rdf:RDF>
 </metadata>
 <defs>
  <style type="text/css">*{stroke-linejoin: round; stroke-linecap: butt}</style>
 </defs>
 <g id="figure_1">
  <g id="patch_1">
   <path d="M 0 410.529063 
L 1130.962812 410.529063 
L 1130.962812 0 
L 0 0 
z
" style="fill: #ffffff"/>
  </g>
  <g id="axes_1">
   <g id="patch_2">
    <path d="M 54.582813 361.4475 
L 556.402812 361.4475 
L 556.402812 27.0875 
L 54.582813 27.0875 
z
" style="fill: #ffffff"/>
   </g>
   <g id="matplotlib.axis_1">
    <g id="xtick_1">
     <g id="line2d_1">
      <path d="M 72.784732 361.4475 
L 72.784732 27.0875 
" clip-path="url(#p0b5f0236d3)" style="fill: none; stroke: #b0b0b0; stroke-opacity: 0.3; stroke-width: 0.8; stroke-linecap: square"/>
     </g>
     <g id="line2d_2">
      <defs>
       <path id="m2889ee0096" d="M 0 0 
L 0 3.5 
" style="stroke: #000000; stroke-width: 0.8"/>
      </defs>
      <g>
       <use xlink:href="#m2889ee0096" x="72.784732" y="361.4475" style="stroke: #000000; stroke-width: 0.8"/>
      </g>
     </g>
     <g id="text_1">
      <!-- 0 -->
      <g transform="translate(68.784732 379.5575) scale(0.16 -0.16)">
       <defs>
        <path id="TimesNewRomanPSMT-30" d="M 231 2094 
Q 231 2819 450 3342 
Q 669 3866 1031 4122 
Q 1313 4325 1613 4325 
Q 2100 4325 2488 3828 
Q 2972 3213 2972 2159 
Q 2972 1422 2759 906 
Q 2547 391 2217 158 
Q 1888 -75 1581 -75 
Q 975 -75 572 641 
Q 231 1244 231 2094 
z
M 844 2016 
Q 844 1141 1059 588 
Q 1238 122 1591 122 
Q 1759 122 1940 273 
Q 2122 425 2216 781 
Q 2359 1319 2359 2297 
Q 2359 3022 2209 3506 
Q 2097 3866 1919 4016 
Q 1791 4119 1609 4119 
Q 1397 4119 1231 3928 
Q 1006 3669 925 3112 
Q 844 2556 844 2016 
z
" transform="scale(0.015625)"/>
       </defs>
       <use xlink:href="#TimesNewRomanPSMT-30"/>
      </g>
     </g>
    </g>
    <g id="xtick_2">
     <g id="line2d_3">
      <path d="M 164.946348 361.4475 
L 164.946348 27.0875 
" clip-path="url(#p0b5f0236d3)" style="fill: none; stroke: #b0b0b0; stroke-opacity: 0.3; stroke-width: 0.8; stroke-linecap: square"/>
     </g>
     <g id="line2d_4">
      <g>
       <use xlink:href="#m2889ee0096" x="164.946348" y="361.4475" style="stroke: #000000; stroke-width: 0.8"/>
      </g>
     </g>
     <g id="text_2">
      <!-- 20 -->
      <g transform="translate(156.946348 379.5575) scale(0.16 -0.16)">
       <defs>
        <path id="TimesNewRomanPSMT-32" d="M 2934 816 
L 2638 0 
L 138 0 
L 138 116 
Q 1241 1122 1691 1759 
Q 2141 2397 2141 2925 
Q 2141 3328 1894 3587 
Q 1647 3847 1303 3847 
Q 991 3847 742 3664 
Q 494 3481 375 3128 
L 259 3128 
Q 338 3706 661 4015 
Q 984 4325 1469 4325 
Q 1984 4325 2329 3994 
Q 2675 3663 2675 3213 
Q 2675 2891 2525 2569 
Q 2294 2063 1775 1497 
Q 997 647 803 472 
L 1909 472 
Q 2247 472 2383 497 
Q 2519 522 2628 598 
Q 2738 675 2819 816 
L 2934 816 
z
" transform="scale(0.015625)"/>
       </defs>
       <use xlink:href="#TimesNewRomanPSMT-32"/>
       <use xlink:href="#TimesNewRomanPSMT-30" x="50"/>
      </g>
     </g>
    </g>
    <g id="xtick_3">
     <g id="line2d_5">
      <path d="M 257.107964 361.4475 
L 257.107964 27.0875 
" clip-path="url(#p0b5f0236d3)" style="fill: none; stroke: #b0b0b0; stroke-opacity: 0.3; stroke-width: 0.8; stroke-linecap: square"/>
     </g>
     <g id="line2d_6">
      <g>
       <use xlink:href="#m2889ee0096" x="257.107964" y="361.4475" style="stroke: #000000; stroke-width: 0.8"/>
      </g>
     </g>
     <g id="text_3">
      <!-- 40 -->
      <g transform="translate(249.107964 379.5575) scale(0.16 -0.16)">
       <defs>
        <path id="TimesNewRomanPSMT-34" d="M 2978 1563 
L 2978 1119 
L 2409 1119 
L 2409 0 
L 1894 0 
L 1894 1119 
L 100 1119 
L 100 1519 
L 2066 4325 
L 2409 4325 
L 2409 1563 
L 2978 1563 
z
M 1894 1563 
L 1894 3666 
L 406 1563 
L 1894 1563 
z
" transform="scale(0.015625)"/>
       </defs>
       <use xlink:href="#TimesNewRomanPSMT-34"/>
       <use xlink:href="#TimesNewRomanPSMT-30" x="50"/>
      </g>
     </g>
    </g>
    <g id="xtick_4">
     <g id="line2d_7">
      <path d="M 349.26958 361.4475 
L 349.26958 27.0875 
" clip-path="url(#p0b5f0236d3)" style="fill: none; stroke: #b0b0b0; stroke-opacity: 0.3; stroke-width: 0.8; stroke-linecap: square"/>
     </g>
     <g id="line2d_8">
      <g>
       <use xlink:href="#m2889ee0096" x="349.26958" y="361.4475" style="stroke: #000000; stroke-width: 0.8"/>
      </g>
     </g>
     <g id="text_4">
      <!-- 60 -->
      <g transform="translate(341.26958 379.5575) scale(0.16 -0.16)">
       <defs>
        <path id="TimesNewRomanPSMT-36" d="M 2869 4325 
L 2869 4209 
Q 2456 4169 2195 4045 
Q 1934 3922 1679 3669 
Q 1425 3416 1258 3105 
Q 1091 2794 978 2366 
Q 1428 2675 1881 2675 
Q 2316 2675 2634 2325 
Q 2953 1975 2953 1425 
Q 2953 894 2631 456 
Q 2244 -75 1606 -75 
Q 1172 -75 869 213 
Q 275 772 275 1663 
Q 275 2231 503 2743 
Q 731 3256 1154 3653 
Q 1578 4050 1965 4187 
Q 2353 4325 2688 4325 
L 2869 4325 
z
M 925 2138 
Q 869 1716 869 1456 
Q 869 1156 980 804 
Q 1091 453 1309 247 
Q 1469 100 1697 100 
Q 1969 100 2183 356 
Q 2397 613 2397 1088 
Q 2397 1622 2184 2012 
Q 1972 2403 1581 2403 
Q 1463 2403 1327 2353 
Q 1191 2303 925 2138 
z
" transform="scale(0.015625)"/>
       </defs>
       <use xlink:href="#TimesNewRomanPSMT-36"/>
       <use xlink:href="#TimesNewRomanPSMT-30" x="50"/>
      </g>
     </g>
    </g>
    <g id="xtick_5">
     <g id="line2d_9">
      <path d="M 441.431196 361.4475 
L 441.431196 27.0875 
" clip-path="url(#p0b5f0236d3)" style="fill: none; stroke: #b0b0b0; stroke-opacity: 0.3; stroke-width: 0.8; stroke-linecap: square"/>
     </g>
     <g id="line2d_10">
      <g>
       <use xlink:href="#m2889ee0096" x="441.431196" y="361.4475" style="stroke: #000000; stroke-width: 0.8"/>
      </g>
     </g>
     <g id="text_5">
      <!-- 80 -->
      <g transform="translate(433.431196 379.5575) scale(0.16 -0.16)">
       <defs>
        <path id="TimesNewRomanPSMT-38" d="M 1228 2134 
Q 725 2547 579 2797 
Q 434 3047 434 3316 
Q 434 3728 753 4026 
Q 1072 4325 1600 4325 
Q 2113 4325 2425 4047 
Q 2738 3769 2738 3413 
Q 2738 3175 2569 2928 
Q 2400 2681 1866 2347 
Q 2416 1922 2594 1678 
Q 2831 1359 2831 1006 
Q 2831 559 2490 242 
Q 2150 -75 1597 -75 
Q 994 -75 656 303 
Q 388 606 388 966 
Q 388 1247 577 1523 
Q 766 1800 1228 2134 
z
M 1719 2469 
Q 2094 2806 2194 3001 
Q 2294 3197 2294 3444 
Q 2294 3772 2109 3958 
Q 1925 4144 1606 4144 
Q 1288 4144 1088 3959 
Q 888 3775 888 3528 
Q 888 3366 970 3203 
Q 1053 3041 1206 2894 
L 1719 2469 
z
M 1375 2016 
Q 1116 1797 991 1539 
Q 866 1281 866 981 
Q 866 578 1086 336 
Q 1306 94 1647 94 
Q 1984 94 2187 284 
Q 2391 475 2391 747 
Q 2391 972 2272 1150 
Q 2050 1481 1375 2016 
z
" transform="scale(0.015625)"/>
       </defs>
       <use xlink:href="#TimesNewRomanPSMT-38"/>
       <use xlink:href="#TimesNewRomanPSMT-30" x="50"/>
      </g>
     </g>
    </g>
    <g id="xtick_6">
     <g id="line2d_11">
      <path d="M 533.592812 361.4475 
L 533.592812 27.0875 
" clip-path="url(#p0b5f0236d3)" style="fill: none; stroke: #b0b0b0; stroke-opacity: 0.3; stroke-width: 0.8; stroke-linecap: square"/>
     </g>
     <g id="line2d_12">
      <g>
       <use xlink:href="#m2889ee0096" x="533.592812" y="361.4475" style="stroke: #000000; stroke-width: 0.8"/>
      </g>
     </g>
     <g id="text_6">
      <!-- 100 -->
      <g transform="translate(521.592812 379.5575) scale(0.16 -0.16)">
       <defs>
        <path id="TimesNewRomanPSMT-31" d="M 750 3822 
L 1781 4325 
L 1884 4325 
L 1884 747 
Q 1884 391 1914 303 
Q 1944 216 2037 169 
Q 2131 122 2419 116 
L 2419 0 
L 825 0 
L 825 116 
Q 1125 122 1212 167 
Q 1300 213 1334 289 
Q 1369 366 1369 747 
L 1369 3034 
Q 1369 3497 1338 3628 
Q 1316 3728 1258 3775 
Q 1200 3822 1119 3822 
Q 1003 3822 797 3725 
L 750 3822 
z
" transform="scale(0.015625)"/>
       </defs>
       <use xlink:href="#TimesNewRomanPSMT-31"/>
       <use xlink:href="#TimesNewRomanPSMT-30" x="50"/>
       <use xlink:href="#TimesNewRomanPSMT-30" x="100"/>
      </g>
     </g>
    </g>
    <g id="text_7">
     <!-- Communication Rounds -->
     <g transform="translate(217.741406 399.47875) scale(0.18 -0.18)">
      <defs>
       <path id="TimesNewRomanPSMT-43" d="M 3853 4334 
L 3950 2894 
L 3853 2894 
Q 3659 3541 3300 3825 
Q 2941 4109 2438 4109 
Q 2016 4109 1675 3895 
Q 1334 3681 1139 3212 
Q 944 2744 944 2047 
Q 944 1472 1128 1050 
Q 1313 628 1683 403 
Q 2053 178 2528 178 
Q 2941 178 3256 354 
Q 3572 531 3950 1056 
L 4047 994 
Q 3728 428 3303 165 
Q 2878 -97 2294 -97 
Q 1241 -97 663 684 
Q 231 1266 231 2053 
Q 231 2688 515 3219 
Q 800 3750 1298 4042 
Q 1797 4334 2388 4334 
Q 2847 4334 3294 4109 
Q 3425 4041 3481 4041 
Q 3566 4041 3628 4100 
Q 3709 4184 3744 4334 
L 3853 4334 
z
" transform="scale(0.015625)"/>
       <path id="TimesNewRomanPSMT-6f" d="M 1600 2947 
Q 2250 2947 2644 2453 
Q 2978 2031 2978 1484 
Q 2978 1100 2793 706 
Q 2609 313 2286 112 
Q 1963 -88 1566 -88 
Q 919 -88 538 428 
Q 216 863 216 1403 
Q 216 1797 411 2186 
Q 606 2575 925 2761 
Q 1244 2947 1600 2947 
z
M 1503 2744 
Q 1338 2744 1170 2645 
Q 1003 2547 900 2300 
Q 797 2053 797 1666 
Q 797 1041 1045 587 
Q 1294 134 1700 134 
Q 2003 134 2200 384 
Q 2397 634 2397 1244 
Q 2397 2006 2069 2444 
Q 1847 2744 1503 2744 
z
" transform="scale(0.015625)"/>
       <path id="TimesNewRomanPSMT-6d" d="M 1050 2338 
Q 1363 2650 1419 2697 
Q 1559 2816 1721 2881 
Q 1884 2947 2044 2947 
Q 2313 2947 2506 2790 
Q 2700 2634 2766 2338 
Q 3088 2713 3309 2830 
Q 3531 2947 3766 2947 
Q 3994 2947 4170 2830 
Q 4347 2713 4450 2447 
Q 4519 2266 4519 1878 
L 4519 647 
Q 4519 378 4559 278 
Q 4591 209 4675 161 
Q 4759 113 4950 113 
L 4950 0 
L 3538 0 
L 3538 113 
L 3597 113 
Q 3781 113 3884 184 
Q 3956 234 3988 344 
Q 4000 397 4000 647 
L 4000 1878 
Q 4000 2228 3916 2372 
Q 3794 2572 3525 2572 
Q 3359 2572 3192 2489 
Q 3025 2406 2788 2181 
L 2781 2147 
L 2788 2013 
L 2788 647 
Q 2788 353 2820 281 
Q 2853 209 2943 161 
Q 3034 113 3253 113 
L 3253 0 
L 1806 0 
L 1806 113 
Q 2044 113 2133 169 
Q 2222 225 2256 338 
Q 2272 391 2272 647 
L 2272 1878 
Q 2272 2228 2169 2381 
Q 2031 2581 1784 2581 
Q 1616 2581 1450 2491 
Q 1191 2353 1050 2181 
L 1050 647 
Q 1050 366 1089 281 
Q 1128 197 1204 155 
Q 1281 113 1516 113 
L 1516 0 
L 100 0 
L 100 113 
Q 297 113 375 155 
Q 453 197 493 289 
Q 534 381 534 647 
L 534 1741 
Q 534 2213 506 2350 
Q 484 2453 437 2492 
Q 391 2531 309 2531 
Q 222 2531 100 2484 
L 53 2597 
L 916 2947 
L 1050 2947 
L 1050 2338 
z
" transform="scale(0.015625)"/>
       <path id="TimesNewRomanPSMT-75" d="M 2709 2863 
L 2709 1128 
Q 2709 631 2732 520 
Q 2756 409 2807 365 
Q 2859 322 2928 322 
Q 3025 322 3147 375 
L 3191 266 
L 2334 -88 
L 2194 -88 
L 2194 519 
Q 1825 119 1631 15 
Q 1438 -88 1222 -88 
Q 981 -88 804 51 
Q 628 191 559 409 
Q 491 628 491 1028 
L 491 2306 
Q 491 2509 447 2587 
Q 403 2666 317 2708 
Q 231 2750 6 2747 
L 6 2863 
L 1009 2863 
L 1009 947 
Q 1009 547 1148 422 
Q 1288 297 1484 297 
Q 1619 297 1789 381 
Q 1959 466 2194 703 
L 2194 2325 
Q 2194 2569 2105 2655 
Q 2016 2741 1734 2747 
L 1734 2863 
L 2709 2863 
z
" transform="scale(0.015625)"/>
       <path id="TimesNewRomanPSMT-6e" d="M 1034 2341 
Q 1538 2947 1994 2947 
Q 2228 2947 2397 2830 
Q 2566 2713 2666 2444 
Q 2734 2256 2734 1869 
L 2734 647 
Q 2734 375 2778 278 
Q 2813 200 2889 156 
Q 2966 113 3172 113 
L 3172 0 
L 1756 0 
L 1756 113 
L 1816 113 
Q 2016 113 2095 173 
Q 2175 234 2206 353 
Q 2219 400 2219 647 
L 2219 1819 
Q 2219 2209 2117 2386 
Q 2016 2563 1775 2563 
Q 1403 2563 1034 2156 
L 1034 647 
Q 1034 356 1069 288 
Q 1113 197 1189 155 
Q 1266 113 1500 113 
L 1500 0 
L 84 0 
L 84 113 
L 147 113 
Q 366 113 442 223 
Q 519 334 519 647 
L 519 1709 
Q 519 2225 495 2337 
Q 472 2450 423 2490 
Q 375 2531 294 2531 
Q 206 2531 84 2484 
L 38 2597 
L 900 2947 
L 1034 2947 
L 1034 2341 
z
" transform="scale(0.015625)"/>
       <path id="TimesNewRomanPSMT-69" d="M 928 4444 
Q 1059 4444 1151 4351 
Q 1244 4259 1244 4128 
Q 1244 3997 1151 3903 
Q 1059 3809 928 3809 
Q 797 3809 703 3903 
Q 609 3997 609 4128 
Q 609 4259 701 4351 
Q 794 4444 928 4444 
z
M 1188 2947 
L 1188 647 
Q 1188 378 1227 289 
Q 1266 200 1342 156 
Q 1419 113 1622 113 
L 1622 0 
L 231 0 
L 231 113 
Q 441 113 512 153 
Q 584 194 626 287 
Q 669 381 669 647 
L 669 1750 
Q 669 2216 641 2353 
Q 619 2453 572 2492 
Q 525 2531 444 2531 
Q 356 2531 231 2484 
L 188 2597 
L 1050 2947 
L 1188 2947 
z
" transform="scale(0.015625)"/>
       <path id="TimesNewRomanPSMT-63" d="M 2631 1088 
Q 2516 522 2178 217 
Q 1841 -88 1431 -88 
Q 944 -88 581 321 
Q 219 731 219 1428 
Q 219 2103 620 2525 
Q 1022 2947 1584 2947 
Q 2006 2947 2278 2723 
Q 2550 2500 2550 2259 
Q 2550 2141 2473 2067 
Q 2397 1994 2259 1994 
Q 2075 1994 1981 2113 
Q 1928 2178 1911 2362 
Q 1894 2547 1784 2644 
Q 1675 2738 1481 2738 
Q 1169 2738 978 2506 
Q 725 2200 725 1697 
Q 725 1184 976 792 
Q 1228 400 1656 400 
Q 1963 400 2206 609 
Q 2378 753 2541 1131 
L 2631 1088 
z
" transform="scale(0.015625)"/>
       <path id="TimesNewRomanPSMT-61" d="M 1822 413 
Q 1381 72 1269 19 
Q 1100 -59 909 -59 
Q 613 -59 420 144 
Q 228 347 228 678 
Q 228 888 322 1041 
Q 450 1253 767 1440 
Q 1084 1628 1822 1897 
L 1822 2009 
Q 1822 2438 1686 2597 
Q 1550 2756 1291 2756 
Q 1094 2756 978 2650 
Q 859 2544 859 2406 
L 866 2225 
Q 866 2081 792 2003 
Q 719 1925 600 1925 
Q 484 1925 411 2006 
Q 338 2088 338 2228 
Q 338 2497 613 2722 
Q 888 2947 1384 2947 
Q 1766 2947 2009 2819 
Q 2194 2722 2281 2516 
Q 2338 2381 2338 1966 
L 2338 994 
Q 2338 584 2353 492 
Q 2369 400 2405 369 
Q 2441 338 2488 338 
Q 2538 338 2575 359 
Q 2641 400 2828 588 
L 2828 413 
Q 2478 -56 2159 -56 
Q 2006 -56 1915 50 
Q 1825 156 1822 413 
z
M 1822 616 
L 1822 1706 
Q 1350 1519 1213 1441 
Q 966 1303 859 1153 
Q 753 1003 753 825 
Q 753 600 887 451 
Q 1022 303 1197 303 
Q 1434 303 1822 616 
z
" transform="scale(0.015625)"/>
       <path id="TimesNewRomanPSMT-74" d="M 1031 3803 
L 1031 2863 
L 1700 2863 
L 1700 2644 
L 1031 2644 
L 1031 788 
Q 1031 509 1111 412 
Q 1191 316 1316 316 
Q 1419 316 1516 380 
Q 1613 444 1666 569 
L 1788 569 
Q 1678 263 1478 108 
Q 1278 -47 1066 -47 
Q 922 -47 784 33 
Q 647 113 581 261 
Q 516 409 516 719 
L 516 2644 
L 63 2644 
L 63 2747 
Q 234 2816 414 2980 
Q 594 3144 734 3369 
Q 806 3488 934 3803 
L 1031 3803 
z
" transform="scale(0.015625)"/>
       <path id="TimesNewRomanPSMT-20" transform="scale(0.015625)"/>
       <path id="TimesNewRomanPSMT-52" d="M 4325 0 
L 3194 0 
L 1759 1981 
Q 1600 1975 1500 1975 
Q 1459 1975 1412 1976 
Q 1366 1978 1316 1981 
L 1316 750 
Q 1316 350 1403 253 
Q 1522 116 1759 116 
L 1925 116 
L 1925 0 
L 109 0 
L 109 116 
L 269 116 
Q 538 116 653 291 
Q 719 388 719 750 
L 719 3488 
Q 719 3888 631 3984 
Q 509 4122 269 4122 
L 109 4122 
L 109 4238 
L 1653 4238 
Q 2328 4238 2648 4139 
Q 2969 4041 3192 3777 
Q 3416 3513 3416 3147 
Q 3416 2756 3161 2468 
Q 2906 2181 2372 2063 
L 3247 847 
Q 3547 428 3762 290 
Q 3978 153 4325 116 
L 4325 0 
z
M 1316 2178 
Q 1375 2178 1419 2176 
Q 1463 2175 1491 2175 
Q 2097 2175 2405 2437 
Q 2713 2700 2713 3106 
Q 2713 3503 2464 3751 
Q 2216 4000 1806 4000 
Q 1625 4000 1316 3941 
L 1316 2178 
z
" transform="scale(0.015625)"/>
       <path id="TimesNewRomanPSMT-64" d="M 2222 322 
Q 2013 103 1813 7 
Q 1613 -88 1381 -88 
Q 913 -88 563 304 
Q 213 697 213 1313 
Q 213 1928 600 2439 
Q 988 2950 1597 2950 
Q 1975 2950 2222 2709 
L 2222 3238 
Q 2222 3728 2198 3840 
Q 2175 3953 2125 3993 
Q 2075 4034 2000 4034 
Q 1919 4034 1784 3984 
L 1744 4094 
L 2597 4444 
L 2738 4444 
L 2738 1134 
Q 2738 631 2761 520 
Q 2784 409 2836 365 
Q 2888 322 2956 322 
Q 3041 322 3181 375 
L 3216 266 
L 2366 -88 
L 2222 -88 
L 2222 322 
z
M 2222 541 
L 2222 2016 
Q 2203 2228 2109 2403 
Q 2016 2578 1861 2667 
Q 1706 2756 1559 2756 
Q 1284 2756 1069 2509 
Q 784 2184 784 1559 
Q 784 928 1059 592 
Q 1334 256 1672 256 
Q 1956 256 2222 541 
z
" transform="scale(0.015625)"/>
       <path id="TimesNewRomanPSMT-73" d="M 2050 2947 
L 2050 1972 
L 1947 1972 
Q 1828 2431 1642 2597 
Q 1456 2763 1169 2763 
Q 950 2763 815 2647 
Q 681 2531 681 2391 
Q 681 2216 781 2091 
Q 878 1963 1175 1819 
L 1631 1597 
Q 2266 1288 2266 781 
Q 2266 391 1970 151 
Q 1675 -88 1309 -88 
Q 1047 -88 709 6 
Q 606 38 541 38 
Q 469 38 428 -44 
L 325 -44 
L 325 978 
L 428 978 
Q 516 541 762 319 
Q 1009 97 1316 97 
Q 1531 97 1667 223 
Q 1803 350 1803 528 
Q 1803 744 1651 891 
Q 1500 1038 1047 1263 
Q 594 1488 453 1669 
Q 313 1847 313 2119 
Q 313 2472 555 2709 
Q 797 2947 1181 2947 
Q 1350 2947 1591 2875 
Q 1750 2828 1803 2828 
Q 1853 2828 1881 2850 
Q 1909 2872 1947 2947 
L 2050 2947 
z
" transform="scale(0.015625)"/>
      </defs>
      <use xlink:href="#TimesNewRomanPSMT-43"/>
      <use xlink:href="#TimesNewRomanPSMT-6f" x="66.699219"/>
      <use xlink:href="#TimesNewRomanPSMT-6d" x="116.699219"/>
      <use xlink:href="#TimesNewRomanPSMT-6d" x="194.482422"/>
      <use xlink:href="#TimesNewRomanPSMT-75" x="272.265625"/>
      <use xlink:href="#TimesNewRomanPSMT-6e" x="322.265625"/>
      <use xlink:href="#TimesNewRomanPSMT-69" x="372.265625"/>
      <use xlink:href="#TimesNewRomanPSMT-63" x="400.048828"/>
      <use xlink:href="#TimesNewRomanPSMT-61" x="444.433594"/>
      <use xlink:href="#TimesNewRomanPSMT-74" x="488.818359"/>
      <use xlink:href="#TimesNewRomanPSMT-69" x="516.601562"/>
      <use xlink:href="#TimesNewRomanPSMT-6f" x="544.384766"/>
      <use xlink:href="#TimesNewRomanPSMT-6e" x="594.384766"/>
      <use xlink:href="#TimesNewRomanPSMT-20" x="644.384766"/>
      <use xlink:href="#TimesNewRomanPSMT-52" x="669.384766"/>
      <use xlink:href="#TimesNewRomanPSMT-6f" x="736.083984"/>
      <use xlink:href="#TimesNewRomanPSMT-75" x="786.083984"/>
      <use xlink:href="#TimesNewRomanPSMT-6e" x="836.083984"/>
      <use xlink:href="#TimesNewRomanPSMT-64" x="886.083984"/>
      <use xlink:href="#TimesNewRomanPSMT-73" x="936.083984"/>
     </g>
    </g>
   </g>
   <g id="matplotlib.axis_2">
    <g id="ytick_1">
     <g id="line2d_13">
      <path d="M 54.582813 351.041486 
L 556.402812 351.041486 
" clip-path="url(#p0b5f0236d3)" style="fill: none; stroke: #b0b0b0; stroke-opacity: 0.3; stroke-width: 0.8; stroke-linecap: square"/>
     </g>
     <g id="line2d_14">
      <defs>
       <path id="mf2482540d8" d="M 0 0 
L -3.5 0 
" style="stroke: #000000; stroke-width: 0.8"/>
      </defs>
      <g>
       <use xlink:href="#mf2482540d8" x="54.582813" y="351.041486" style="stroke: #000000; stroke-width: 0.8"/>
      </g>
     </g>
     <g id="text_8">
      <!-- 0.0 -->
      <g transform="translate(27.582813 356.596486) scale(0.16 -0.16)">
       <defs>
        <path id="TimesNewRomanPSMT-2e" d="M 800 606 
Q 947 606 1047 504 
Q 1147 403 1147 259 
Q 1147 116 1045 14 
Q 944 -88 800 -88 
Q 656 -88 554 14 
Q 453 116 453 259 
Q 453 406 554 506 
Q 656 606 800 606 
z
" transform="scale(0.015625)"/>
       </defs>
       <use xlink:href="#TimesNewRomanPSMT-30"/>
       <use xlink:href="#TimesNewRomanPSMT-2e" x="50"/>
       <use xlink:href="#TimesNewRomanPSMT-30" x="75"/>
      </g>
     </g>
    </g>
    <g id="ytick_2">
     <g id="line2d_15">
      <path d="M 54.582813 312.258665 
L 556.402812 312.258665 
" clip-path="url(#p0b5f0236d3)" style="fill: none; stroke: #b0b0b0; stroke-opacity: 0.3; stroke-width: 0.8; stroke-linecap: square"/>
     </g>
     <g id="line2d_16">
      <g>
       <use xlink:href="#mf2482540d8" x="54.582813" y="312.258665" style="stroke: #000000; stroke-width: 0.8"/>
      </g>
     </g>
     <g id="text_9">
      <!-- 0.1 -->
      <g transform="translate(27.582813 317.813665) scale(0.16 -0.16)">
       <use xlink:href="#TimesNewRomanPSMT-30"/>
       <use xlink:href="#TimesNewRomanPSMT-2e" x="50"/>
       <use xlink:href="#TimesNewRomanPSMT-31" x="75"/>
      </g>
     </g>
    </g>
    <g id="ytick_3">
     <g id="line2d_17">
      <path d="M 54.582813 273.475844 
L 556.402812 273.475844 
" clip-path="url(#p0b5f0236d3)" style="fill: none; stroke: #b0b0b0; stroke-opacity: 0.3; stroke-width: 0.8; stroke-linecap: square"/>
     </g>
     <g id="line2d_18">
      <g>
       <use xlink:href="#mf2482540d8" x="54.582813" y="273.475844" style="stroke: #000000; stroke-width: 0.8"/>
      </g>
     </g>
     <g id="text_10">
      <!-- 0.2 -->
      <g transform="translate(27.582813 279.030844) scale(0.16 -0.16)">
       <use xlink:href="#TimesNewRomanPSMT-30"/>
       <use xlink:href="#TimesNewRomanPSMT-2e" x="50"/>
       <use xlink:href="#TimesNewRomanPSMT-32" x="75"/>
      </g>
     </g>
    </g>
    <g id="ytick_4">
     <g id="line2d_19">
      <path d="M 54.582813 234.693023 
L 556.402812 234.693023 
" clip-path="url(#p0b5f0236d3)" style="fill: none; stroke: #b0b0b0; stroke-opacity: 0.3; stroke-width: 0.8; stroke-linecap: square"/>
     </g>
     <g id="line2d_20">
      <g>
       <use xlink:href="#mf2482540d8" x="54.582813" y="234.693023" style="stroke: #000000; stroke-width: 0.8"/>
      </g>
     </g>
     <g id="text_11">
      <!-- 0.3 -->
      <g transform="translate(27.582813 240.248023) scale(0.16 -0.16)">
       <defs>
        <path id="TimesNewRomanPSMT-33" d="M 325 3431 
Q 506 3859 782 4092 
Q 1059 4325 1472 4325 
Q 1981 4325 2253 3994 
Q 2459 3747 2459 3466 
Q 2459 3003 1878 2509 
Q 2269 2356 2469 2072 
Q 2669 1788 2669 1403 
Q 2669 853 2319 450 
Q 1863 -75 997 -75 
Q 569 -75 414 31 
Q 259 138 259 259 
Q 259 350 332 419 
Q 406 488 509 488 
Q 588 488 669 463 
Q 722 447 909 348 
Q 1097 250 1169 231 
Q 1284 197 1416 197 
Q 1734 197 1970 444 
Q 2206 691 2206 1028 
Q 2206 1275 2097 1509 
Q 2016 1684 1919 1775 
Q 1784 1900 1550 2001 
Q 1316 2103 1072 2103 
L 972 2103 
L 972 2197 
Q 1219 2228 1467 2375 
Q 1716 2522 1828 2728 
Q 1941 2934 1941 3181 
Q 1941 3503 1739 3701 
Q 1538 3900 1238 3900 
Q 753 3900 428 3381 
L 325 3431 
z
" transform="scale(0.015625)"/>
       </defs>
       <use xlink:href="#TimesNewRomanPSMT-30"/>
       <use xlink:href="#TimesNewRomanPSMT-2e" x="50"/>
       <use xlink:href="#TimesNewRomanPSMT-33" x="75"/>
      </g>
     </g>
    </g>
    <g id="ytick_5">
     <g id="line2d_21">
      <path d="M 54.582813 195.910201 
L 556.402812 195.910201 
" clip-path="url(#p0b5f0236d3)" style="fill: none; stroke: #b0b0b0; stroke-opacity: 0.3; stroke-width: 0.8; stroke-linecap: square"/>
     </g>
     <g id="line2d_22">
      <g>
       <use xlink:href="#mf2482540d8" x="54.582813" y="195.910201" style="stroke: #000000; stroke-width: 0.8"/>
      </g>
     </g>
     <g id="text_12">
      <!-- 0.4 -->
      <g transform="translate(27.582813 201.465201) scale(0.16 -0.16)">
       <use xlink:href="#TimesNewRomanPSMT-30"/>
       <use xlink:href="#TimesNewRomanPSMT-2e" x="50"/>
       <use xlink:href="#TimesNewRomanPSMT-34" x="75"/>
      </g>
     </g>
    </g>
    <g id="ytick_6">
     <g id="line2d_23">
      <path d="M 54.582813 157.12738 
L 556.402812 157.12738 
" clip-path="url(#p0b5f0236d3)" style="fill: none; stroke: #b0b0b0; stroke-opacity: 0.3; stroke-width: 0.8; stroke-linecap: square"/>
     </g>
     <g id="line2d_24">
      <g>
       <use xlink:href="#mf2482540d8" x="54.582813" y="157.12738" style="stroke: #000000; stroke-width: 0.8"/>
      </g>
     </g>
     <g id="text_13">
      <!-- 0.5 -->
      <g transform="translate(27.582813 162.68238) scale(0.16 -0.16)">
       <defs>
        <path id="TimesNewRomanPSMT-35" d="M 2778 4238 
L 2534 3706 
L 1259 3706 
L 981 3138 
Q 1809 3016 2294 2522 
Q 2709 2097 2709 1522 
Q 2709 1188 2573 903 
Q 2438 619 2231 419 
Q 2025 219 1772 97 
Q 1413 -75 1034 -75 
Q 653 -75 479 54 
Q 306 184 306 341 
Q 306 428 378 495 
Q 450 563 559 563 
Q 641 563 702 538 
Q 763 513 909 409 
Q 1144 247 1384 247 
Q 1750 247 2026 523 
Q 2303 800 2303 1197 
Q 2303 1581 2056 1914 
Q 1809 2247 1375 2428 
Q 1034 2569 447 2591 
L 1259 4238 
L 2778 4238 
z
" transform="scale(0.015625)"/>
       </defs>
       <use xlink:href="#TimesNewRomanPSMT-30"/>
       <use xlink:href="#TimesNewRomanPSMT-2e" x="50"/>
       <use xlink:href="#TimesNewRomanPSMT-35" x="75"/>
      </g>
     </g>
    </g>
    <g id="ytick_7">
     <g id="line2d_25">
      <path d="M 54.582813 118.344559 
L 556.402812 118.344559 
" clip-path="url(#p0b5f0236d3)" style="fill: none; stroke: #b0b0b0; stroke-opacity: 0.3; stroke-width: 0.8; stroke-linecap: square"/>
     </g>
     <g id="line2d_26">
      <g>
       <use xlink:href="#mf2482540d8" x="54.582813" y="118.344559" style="stroke: #000000; stroke-width: 0.8"/>
      </g>
     </g>
     <g id="text_14">
      <!-- 0.6 -->
      <g transform="translate(27.582813 123.899559) scale(0.16 -0.16)">
       <use xlink:href="#TimesNewRomanPSMT-30"/>
       <use xlink:href="#TimesNewRomanPSMT-2e" x="50"/>
       <use xlink:href="#TimesNewRomanPSMT-36" x="75"/>
      </g>
     </g>
    </g>
    <g id="ytick_8">
     <g id="line2d_27">
      <path d="M 54.582813 79.561738 
L 556.402812 79.561738 
" clip-path="url(#p0b5f0236d3)" style="fill: none; stroke: #b0b0b0; stroke-opacity: 0.3; stroke-width: 0.8; stroke-linecap: square"/>
     </g>
     <g id="line2d_28">
      <g>
       <use xlink:href="#mf2482540d8" x="54.582813" y="79.561738" style="stroke: #000000; stroke-width: 0.8"/>
      </g>
     </g>
     <g id="text_15">
      <!-- 0.7 -->
      <g transform="translate(27.582813 85.116738) scale(0.16 -0.16)">
       <defs>
        <path id="TimesNewRomanPSMT-37" d="M 644 4238 
L 2916 4238 
L 2916 4119 
L 1503 -88 
L 1153 -88 
L 2419 3728 
L 1253 3728 
Q 900 3728 750 3644 
Q 488 3500 328 3200 
L 238 3234 
L 644 4238 
z
" transform="scale(0.015625)"/>
       </defs>
       <use xlink:href="#TimesNewRomanPSMT-30"/>
       <use xlink:href="#TimesNewRomanPSMT-2e" x="50"/>
       <use xlink:href="#TimesNewRomanPSMT-37" x="75"/>
      </g>
     </g>
    </g>
    <g id="ytick_9">
     <g id="line2d_29">
      <path d="M 54.582813 40.778917 
L 556.402812 40.778917 
" clip-path="url(#p0b5f0236d3)" style="fill: none; stroke: #b0b0b0; stroke-opacity: 0.3; stroke-width: 0.8; stroke-linecap: square"/>
     </g>
     <g id="line2d_30">
      <g>
       <use xlink:href="#mf2482540d8" x="54.582813" y="40.778917" style="stroke: #000000; stroke-width: 0.8"/>
      </g>
     </g>
     <g id="text_16">
      <!-- 0.8 -->
      <g transform="translate(27.582813 46.333917) scale(0.16 -0.16)">
       <use xlink:href="#TimesNewRomanPSMT-30"/>
       <use xlink:href="#TimesNewRomanPSMT-2e" x="50"/>
       <use xlink:href="#TimesNewRomanPSMT-38" x="75"/>
      </g>
     </g>
    </g>
    <g id="text_17">
     <!-- Global Accuracy -->
     <g transform="translate(19.69875 254.995) rotate(-90) scale(0.18 -0.18)">
      <defs>
       <path id="TimesNewRomanPSMT-47" d="M 3928 4334 
L 4038 2997 
L 3928 2997 
Q 3763 3497 3500 3750 
Q 3122 4116 2528 4116 
Q 1719 4116 1297 3475 
Q 944 2934 944 2188 
Q 944 1581 1178 1081 
Q 1413 581 1792 348 
Q 2172 116 2572 116 
Q 2806 116 3025 175 
Q 3244 234 3447 350 
L 3447 1575 
Q 3447 1894 3398 1992 
Q 3350 2091 3248 2142 
Q 3147 2194 2891 2194 
L 2891 2313 
L 4531 2313 
L 4531 2194 
L 4453 2194 
Q 4209 2194 4119 2031 
Q 4056 1916 4056 1575 
L 4056 278 
Q 3697 84 3347 -6 
Q 2997 -97 2569 -97 
Q 1341 -97 703 691 
Q 225 1281 225 2053 
Q 225 2613 494 3125 
Q 813 3734 1369 4063 
Q 1834 4334 2469 4334 
Q 2700 4334 2889 4296 
Q 3078 4259 3425 4131 
Q 3600 4066 3659 4066 
Q 3719 4066 3761 4120 
Q 3803 4175 3813 4334 
L 3928 4334 
z
" transform="scale(0.015625)"/>
       <path id="TimesNewRomanPSMT-6c" d="M 1184 4444 
L 1184 647 
Q 1184 378 1223 290 
Q 1263 203 1344 158 
Q 1425 113 1647 113 
L 1647 0 
L 244 0 
L 244 113 
Q 441 113 512 153 
Q 584 194 625 287 
Q 666 381 666 647 
L 666 3247 
Q 666 3731 644 3842 
Q 622 3953 573 3993 
Q 525 4034 450 4034 
Q 369 4034 244 3984 
L 191 4094 
L 1044 4444 
L 1184 4444 
z
" transform="scale(0.015625)"/>
       <path id="TimesNewRomanPSMT-62" d="M 984 2369 
Q 1400 2947 1881 2947 
Q 2322 2947 2650 2570 
Q 2978 2194 2978 1541 
Q 2978 778 2472 313 
Q 2038 -88 1503 -88 
Q 1253 -88 995 3 
Q 738 94 469 275 
L 469 3241 
Q 469 3728 445 3840 
Q 422 3953 372 3993 
Q 322 4034 247 4034 
Q 159 4034 28 3984 
L -16 4094 
L 844 4444 
L 984 4444 
L 984 2369 
z
M 984 2169 
L 984 456 
Q 1144 300 1314 220 
Q 1484 141 1663 141 
Q 1947 141 2192 453 
Q 2438 766 2438 1363 
Q 2438 1913 2192 2208 
Q 1947 2503 1634 2503 
Q 1469 2503 1303 2419 
Q 1178 2356 984 2169 
z
" transform="scale(0.015625)"/>
       <path id="TimesNewRomanPSMT-41" d="M 2928 1419 
L 1288 1419 
L 1000 750 
Q 894 503 894 381 
Q 894 284 986 211 
Q 1078 138 1384 116 
L 1384 0 
L 50 0 
L 50 116 
Q 316 163 394 238 
Q 553 388 747 847 
L 2238 4334 
L 2347 4334 
L 3822 809 
Q 4000 384 4145 257 
Q 4291 131 4550 116 
L 4550 0 
L 2878 0 
L 2878 116 
Q 3131 128 3220 200 
Q 3309 272 3309 375 
Q 3309 513 3184 809 
L 2928 1419 
z
M 2841 1650 
L 2122 3363 
L 1384 1650 
L 2841 1650 
z
" transform="scale(0.015625)"/>
       <path id="TimesNewRomanPSMT-72" d="M 1038 2947 
L 1038 2303 
Q 1397 2947 1775 2947 
Q 1947 2947 2059 2842 
Q 2172 2738 2172 2600 
Q 2172 2478 2090 2393 
Q 2009 2309 1897 2309 
Q 1788 2309 1652 2417 
Q 1516 2525 1450 2525 
Q 1394 2525 1328 2463 
Q 1188 2334 1038 2041 
L 1038 669 
Q 1038 431 1097 309 
Q 1138 225 1241 169 
Q 1344 113 1538 113 
L 1538 0 
L 72 0 
L 72 113 
Q 291 113 397 181 
Q 475 231 506 341 
Q 522 394 522 644 
L 522 1753 
Q 522 2253 501 2348 
Q 481 2444 426 2487 
Q 372 2531 291 2531 
Q 194 2531 72 2484 
L 41 2597 
L 906 2947 
L 1038 2947 
z
" transform="scale(0.015625)"/>
       <path id="TimesNewRomanPSMT-79" d="M 38 2863 
L 1372 2863 
L 1372 2747 
L 1306 2747 
Q 1166 2747 1095 2686 
Q 1025 2625 1025 2534 
Q 1025 2413 1128 2197 
L 1825 753 
L 2466 2334 
Q 2519 2463 2519 2588 
Q 2519 2644 2497 2672 
Q 2472 2706 2419 2726 
Q 2366 2747 2231 2747 
L 2231 2863 
L 3163 2863 
L 3163 2747 
Q 3047 2734 2984 2696 
Q 2922 2659 2847 2556 
Q 2819 2513 2741 2316 
L 1575 -541 
Q 1406 -956 1132 -1168 
Q 859 -1381 606 -1381 
Q 422 -1381 303 -1275 
Q 184 -1169 184 -1031 
Q 184 -900 270 -820 
Q 356 -741 506 -741 
Q 609 -741 788 -809 
Q 913 -856 944 -856 
Q 1038 -856 1148 -759 
Q 1259 -663 1372 -384 
L 1575 113 
L 547 2272 
Q 500 2369 397 2513 
Q 319 2622 269 2659 
Q 197 2709 38 2747 
L 38 2863 
z
" transform="scale(0.015625)"/>
      </defs>
      <use xlink:href="#TimesNewRomanPSMT-47"/>
      <use xlink:href="#TimesNewRomanPSMT-6c" x="72.216797"/>
      <use xlink:href="#TimesNewRomanPSMT-6f" x="100"/>
      <use xlink:href="#TimesNewRomanPSMT-62" x="150"/>
      <use xlink:href="#TimesNewRomanPSMT-61" x="200"/>
      <use xlink:href="#TimesNewRomanPSMT-6c" x="244.384766"/>
      <use xlink:href="#TimesNewRomanPSMT-20" x="272.167969"/>
      <use xlink:href="#TimesNewRomanPSMT-41" x="291.667969"/>
      <use xlink:href="#TimesNewRomanPSMT-63" x="363.884766"/>
      <use xlink:href="#TimesNewRomanPSMT-63" x="408.269531"/>
      <use xlink:href="#TimesNewRomanPSMT-75" x="452.654297"/>
      <use xlink:href="#TimesNewRomanPSMT-72" x="502.654297"/>
      <use xlink:href="#TimesNewRomanPSMT-61" x="535.955078"/>
      <use xlink:href="#TimesNewRomanPSMT-63" x="580.339844"/>
      <use xlink:href="#TimesNewRomanPSMT-79" x="624.724609"/>
     </g>
    </g>
   </g>
   <g id="line2d_31">
    <path d="M 77.392813 325.852306 
L 82.000893 320.077465 
L 86.608974 313.339605 
L 91.217055 306.215227 
L 95.825136 297.348242 
L 100.433217 285.99182 
L 105.041297 274.284911 
L 109.649378 261.788588 
L 114.257459 252.797132 
L 118.86554 243.297961 
L 123.473621 230.628033 
L 128.081701 219.094729 
L 132.689782 207.312482 
L 137.297863 197.983641 
L 141.905944 186.935123 
L 146.514025 176.45983 
L 151.122105 166.633102 
L 155.730186 154.677249 
L 160.338267 145.210834 
L 164.946348 136.85484 
L 169.554429 130.824504 
L 174.162509 123.847527 
L 178.77059 117.666515 
L 183.378671 112.016146 
L 187.986752 106.647477 
L 192.594833 100.75144 
L 197.202914 95.648092 
L 201.810994 91.242442 
L 206.419075 87.413294 
L 211.027156 84.530787 
L 215.635237 80.619749 
L 220.243318 77.331071 
L 224.851398 74.373225 
L 229.459479 70.884737 
L 234.06756 68.40185 
L 238.675641 66.321859 
L 243.283722 64.159979 
L 247.891802 62.898882 
L 252.499883 61.932587 
L 257.107964 60.838545 
L 261.716045 59.698644 
L 266.324126 58.699594 
L 270.932206 57.736574 
L 275.540287 56.789933 
L 280.148368 55.810536 
L 284.756449 54.89665 
L 289.36453 54.107236 
L 293.97261 53.596246 
L 298.580691 53.000091 
L 303.188772 52.426865 
L 307.796853 51.879844 
L 312.404934 51.424539 
L 317.013015 50.936478 
L 321.621095 50.530307 
L 326.229176 50.052073 
L 330.837257 49.573839 
L 335.445338 49.105431 
L 340.053419 48.666504 
L 344.661499 48.24723 
L 349.26958 47.680556 
L 353.877661 46.805977 
L 358.485742 46.370325 
L 363.093823 46.101728 
L 367.701903 45.878989 
L 372.309984 45.708659 
L 376.918065 45.492471 
L 381.526146 45.351621 
L 386.134227 45.148535 
L 390.742307 45.007686 
L 395.350388 44.896316 
L 399.958469 44.801324 
L 404.56655 44.680128 
L 409.174631 44.578585 
L 413.782711 44.467216 
L 418.390792 44.385326 
L 422.998873 44.273957 
L 427.606954 44.192067 
L 432.215035 44.133107 
L 436.823116 44.015186 
L 441.431196 43.962777 
L 446.039277 43.861234 
L 450.647358 43.818651 
L 455.255439 43.726935 
L 459.86352 43.664699 
L 464.4716 43.615566 
L 469.079681 43.572983 
L 473.687762 43.530401 
L 478.295843 43.481267 
L 482.903924 43.438685 
L 487.512004 43.386275 
L 492.120085 43.356795 
L 496.728166 43.327315 
L 501.336247 43.30111 
L 505.944328 43.281457 
L 510.552408 43.268355 
L 515.160489 43.245426 
L 519.76857 43.209394 
L 524.376651 43.18319 
L 528.984732 43.166812 
L 533.592812 43.137332 
" clip-path="url(#p0b5f0236d3)" style="fill: none; stroke: #808080; stroke-width: 2; stroke-linecap: square"/>
   </g>
   <g id="line2d_32">
    <path d="M 77.392813 344.975119 
L 82.000893 345.846422 
L 86.608974 345.918485 
L 91.217055 343.933486 
L 95.825136 343.298024 
L 100.433217 341.322852 
L 105.041297 339.852118 
L 109.649378 336.848415 
L 114.257459 328.731537 
L 118.86554 321.577679 
L 123.473621 314.282971 
L 128.081701 309.336851 
L 132.689782 305.52408 
L 137.297863 302.228851 
L 141.905944 298.118003 
L 146.514025 287.462554 
L 151.122105 279.332574 
L 155.730186 275.880117 
L 160.338267 274.356974 
L 164.946348 272.611092 
L 169.554429 269.970977 
L 174.162509 263.947193 
L 178.77059 262.558349 
L 183.378671 254.811611 
L 187.986752 255.391388 
L 192.594833 253.835489 
L 197.202914 251.663782 
L 201.810994 249.511729 
L 206.419075 246.118232 
L 211.027156 244.490271 
L 215.635237 240.153408 
L 220.243318 235.318658 
L 224.851398 232.475458 
L 229.459479 226.140493 
L 234.06756 225.518134 
L 238.675641 223.19575 
L 243.283722 214.869236 
L 247.891802 206.663918 
L 252.499883 201.373862 
L 257.107964 196.709442 
L 261.716045 196.535836 
L 266.324126 196.604624 
L 270.932206 183.580933 
L 275.540287 170.124866 
L 280.148368 172.555344 
L 284.756449 161.84421 
L 289.36453 166.063152 
L 293.97261 158.883089 
L 298.580691 152.269701 
L 303.188772 147.562698 
L 307.796853 132.632622 
L 312.404934 119.399295 
L 317.013015 109.654456 
L 321.621095 111.551014 
L 326.229176 104.282511 
L 330.837257 99.752389 
L 335.445338 103.306389 
L 340.053419 103.689632 
L 344.661499 101.629294 
L 349.26958 95.110898 
L 353.877661 91.691196 
L 358.485742 88.628533 
L 363.093823 89.650512 
L 367.701903 86.515786 
L 372.309984 81.435367 
L 376.918065 87.590175 
L 381.526146 83.574319 
L 386.134227 83.004368 
L 390.742307 86.171851 
L 395.350388 85.899978 
L 399.958469 85.877049 
L 404.56655 82.280466 
L 409.174631 83.587421 
L 413.782711 77.704486 
L 418.390792 76.037218 
L 422.998873 75.719487 
L 427.606954 75.447614 
L 432.215035 74.622169 
L 436.823116 75.260907 
L 441.431196 72.227723 
L 446.039277 71.566057 
L 450.647358 71.005933 
L 455.255439 70.661998 
L 459.86352 68.699928 
L 464.4716 70.085496 
L 469.079681 67.107998 
L 473.687762 65.656917 
L 478.295843 64.520292 
L 482.903924 63.560549 
L 487.512004 62.37479 
L 492.120085 61.431424 
L 496.728166 60.759931 
L 501.336247 60.10154 
L 505.944328 57.101113 
L 510.552408 56.750626 
L 515.160489 55.859669 
L 519.76857 55.443671 
L 524.376651 55.152145 
L 528.984732 55.270066 
L 533.592812 54.176023 
" clip-path="url(#p0b5f0236d3)" style="fill: none; stroke: #0000ff; stroke-width: 2; stroke-linecap: square"/>
   </g>
   <g id="line2d_33">
    <path d="M 77.392813 342.122092 
L 82.000893 339.521285 
L 86.608974 335.810057 
L 91.217055 330.863937 
L 95.825136 325.102199 
L 100.433217 317.152376 
L 105.041297 305.871291 
L 109.649378 294.177485 
L 114.257459 281.196377 
L 118.86554 266.472662 
L 123.473621 251.965135 
L 128.081701 237.01213 
L 132.689782 222.272038 
L 137.297863 212.491168 
L 141.905944 201.406618 
L 146.514025 191.026317 
L 151.122105 180.508443 
L 155.730186 174.235714 
L 160.338267 167.065478 
L 164.946348 159.344945 
L 169.554429 154.628116 
L 174.162509 149.695098 
L 178.77059 145.181354 
L 183.378671 141.296521 
L 187.986752 138.397636 
L 192.594833 135.544609 
L 197.202914 132.979833 
L 201.810994 130.863811 
L 206.419075 129.389802 
L 211.027156 127.666849 
L 215.635237 126.048714 
L 220.243318 124.807271 
L 224.851398 123.415151 
L 229.459479 122.078716 
L 234.06756 120.96502 
L 238.675641 120.028205 
L 243.283722 119.006225 
L 247.891802 117.915459 
L 252.499883 117.093289 
L 257.107964 116.202332 
L 261.716045 115.547217 
L 266.324126 114.823315 
L 270.932206 114.043728 
L 275.540287 113.159322 
L 280.148368 112.310948 
L 284.756449 111.577219 
L 289.36453 110.787805 
L 293.97261 109.529984 
L 298.580691 108.393359 
L 303.188772 107.076577 
L 307.796853 105.49775 
L 312.404934 104.688682 
L 317.013015 104.053221 
L 321.621095 103.529128 
L 326.229176 103.060721 
L 330.837257 102.520251 
L 335.445338 101.927372 
L 340.053419 101.377075 
L 344.661499 100.902116 
L 349.26958 100.512323 
L 353.877661 99.896514 
L 358.485742 99.47069 
L 363.093823 99.15951 
L 367.701903 98.81885 
L 372.309984 98.442159 
L 376.918065 97.934444 
L 381.526146 97.583958 
L 386.134227 97.357943 
L 390.742307 97.213818 
L 395.350388 96.968149 
L 399.958469 96.627489 
L 404.56655 96.299932 
L 409.174631 95.982201 
L 413.782711 95.608785 
L 418.390792 95.35329 
L 422.998873 95.091244 
L 427.606954 94.839025 
L 432.215035 94.675246 
L 436.823116 94.452507 
L 441.431196 94.164256 
L 446.039277 93.869454 
L 450.647358 93.233993 
L 455.255439 92.618184 
L 459.86352 92.25132 
L 464.4716 91.995825 
L 469.079681 91.619134 
L 473.687762 91.291576 
L 478.295843 90.931263 
L 482.903924 90.71835 
L 487.512004 90.574225 
L 492.120085 90.397344 
L 496.728166 90.125471 
L 501.336247 89.886354 
L 505.944328 89.585001 
L 510.552408 89.103491 
L 515.160489 88.811965 
L 519.76857 88.431998 
L 524.376651 88.088063 
L 528.984732 87.799812 
L 533.592812 87.426396 
" clip-path="url(#p0b5f0236d3)" style="fill: none; stroke: #008000; stroke-width: 2; stroke-linecap: square"/>
   </g>
   <g id="line2d_34">
    <path d="M 77.392813 345.161827 
L 82.000893 345.777635 
L 86.608974 346.249318 
L 91.217055 345.52214 
L 95.825136 345.125796 
L 100.433217 344.925985 
L 105.041297 344.234839 
L 109.649378 344.166052 
L 114.257459 342.354658 
L 118.86554 341.404741 
L 123.473621 341.001845 
L 128.081701 340.874098 
L 132.689782 340.31725 
L 137.297863 340.137093 
L 141.905944 338.879272 
L 146.514025 334.729117 
L 151.122105 334.591543 
L 155.730186 333.110982 
L 160.338267 331.053921 
L 164.946348 331.171841 
L 169.554429 329.99591 
L 174.162509 326.209344 
L 178.77059 318.416748 
L 183.378671 318.469157 
L 187.986752 311.786982 
L 192.594833 312.474853 
L 197.202914 305.831985 
L 201.810994 306.984987 
L 206.419075 299.035164 
L 211.027156 296.984653 
L 215.635237 294.63279 
L 220.243318 292.18921 
L 224.851398 289.309979 
L 229.459479 287.35446 
L 234.06756 282.922605 
L 238.675641 279.522557 
L 243.283722 278.985363 
L 247.891802 276.112682 
L 252.499883 275.582039 
L 257.107964 273.39723 
L 261.716045 274.389729 
L 266.324126 272.362148 
L 270.932206 267.533949 
L 275.540287 265.568603 
L 280.148368 265.447407 
L 284.756449 264.009429 
L 289.36453 262.122697 
L 293.97261 258.480256 
L 298.580691 261.782037 
L 303.188772 259.060033 
L 307.796853 254.081158 
L 312.404934 257.10779 
L 317.013015 253.950135 
L 321.621095 253.15417 
L 326.229176 242.698531 
L 330.837257 243.854809 
L 335.445338 242.344768 
L 340.053419 246.471994 
L 344.661499 243.176765 
L 349.26958 247.513627 
L 353.877661 245.784123 
L 358.485742 246.84541 
L 363.093823 246.599742 
L 367.701903 248.483198 
L 372.309984 248.316144 
L 376.918065 245.495873 
L 381.526146 241.47019 
L 386.134227 240.913342 
L 390.742307 241.548803 
L 395.350388 242.233399 
L 399.958469 241.424331 
L 404.56655 242.066344 
L 409.174631 241.706031 
L 413.782711 238.40425 
L 418.390792 233.79879 
L 422.998873 231.790862 
L 427.606954 232.79974 
L 432.215035 234.106694 
L 436.823116 234.827321 
L 441.431196 231.571399 
L 446.039277 243.828604 
L 450.647358 240.910066 
L 455.255439 242.659224 
L 459.86352 240.562855 
L 464.4716 236.44218 
L 469.079681 235.233493 
L 473.687762 229.383314 
L 478.295843 219.327295 
L 482.903924 219.340397 
L 487.512004 213.575383 
L 492.120085 217.361949 
L 496.728166 213.313337 
L 501.336247 212.386349 
L 505.944328 209.356441 
L 510.552408 200.64996 
L 515.160489 204.239991 
L 519.76857 193.94158 
L 524.376651 199.293872 
L 528.984732 195.87417 
L 533.592812 194.672034 
" clip-path="url(#p0b5f0236d3)" style="fill: none; stroke: #ff00ff; stroke-width: 2; stroke-linecap: square"/>
   </g>
   <g id="line2d_35">
    <path d="M 77.392813 341.673338 
L 82.000893 338.928406 
L 86.608974 334.31967 
L 91.217055 328.738088 
L 95.825136 320.336236 
L 100.433217 310.077131 
L 105.041297 299.66735 
L 109.649378 287.266019 
L 114.257459 272.620918 
L 118.86554 258.385265 
L 123.473621 243.494496 
L 128.081701 229.543817 
L 132.689782 218.475645 
L 137.297863 206.798216 
L 141.905944 195.834863 
L 146.514025 186.397928 
L 151.122105 179.38492 
L 155.730186 172.915657 
L 160.338267 165.676634 
L 164.946348 159.387528 
L 169.554429 154.831201 
L 174.162509 149.891633 
L 178.77059 146.232814 
L 183.378671 143.274969 
L 187.986752 140.00922 
L 192.594833 137.280665 
L 197.202914 135.344799 
L 201.810994 133.431863 
L 206.419075 131.351872 
L 211.027156 129.474967 
L 215.635237 127.850281 
L 220.243318 126.268178 
L 224.851398 125.016908 
L 229.459479 123.80822 
L 234.06756 122.920539 
L 238.675641 121.937866 
L 243.283722 120.797966 
L 247.891802 119.749781 
L 252.499883 118.636085 
L 257.107964 117.794262 
L 261.716045 116.955715 
L 266.324126 116.04838 
L 270.932206 115.242589 
L 275.540287 114.214058 
L 280.148368 113.300172 
L 284.756449 112.825213 
L 289.36453 112.219232 
L 293.97261 111.701691 
L 298.580691 111.226732 
L 303.188772 110.601097 
L 307.796853 109.785479 
L 312.404934 109.035372 
L 317.013015 107.865991 
L 321.621095 106.247857 
L 326.229176 105.533781 
L 330.837257 104.885217 
L 335.445338 104.30544 
L 340.053419 103.702734 
L 344.661499 102.916596 
L 349.26958 102.333543 
L 353.877661 101.776695 
L 358.485742 100.856258 
L 363.093823 100.273206 
L 367.701903 99.749114 
L 372.309984 99.372422 
L 376.918065 98.999007 
L 381.526146 98.625591 
L 386.134227 98.085121 
L 390.742307 97.590509 
L 395.350388 97.030385 
L 399.958469 96.588183 
L 404.56655 96.211491 
L 409.174631 95.903587 
L 413.782711 95.500691 
L 418.390792 94.973324 
L 422.998873 94.498365 
L 427.606954 94.065989 
L 432.215035 93.607408 
L 436.823116 93.158654 
L 441.431196 92.631287 
L 446.039277 92.369241 
L 450.647358 92.113746 
L 455.255439 91.612582 
L 459.86352 91.173655 
L 464.4716 90.869027 
L 469.079681 90.685594 
L 473.687762 90.446477 
L 478.295843 90.416997 
L 482.903924 90.400619 
L 487.512004 90.187707 
L 492.120085 89.840496 
L 496.728166 89.49656 
L 501.336247 89.106767 
L 505.944328 88.671115 
L 510.552408 88.271495 
L 515.160489 87.891528 
L 519.76857 87.521388 
L 524.376651 87.069358 
L 528.984732 86.600951 
L 533.592812 86.257016 
" clip-path="url(#p0b5f0236d3)" style="fill: none; stroke: #ffa500; stroke-width: 2; stroke-linecap: square"/>
   </g>
   <g id="line2d_36">
    <path d="M 77.392813 313.205306 
L 82.000893 290.603831 
L 86.608974 264.510592 
L 91.217055 227.365559 
L 95.825136 192.333272 
L 100.433217 152.141953 
L 105.041297 123.025357 
L 109.649378 94.960221 
L 114.257459 72.168763 
L 118.86554 59.043529 
L 123.473621 52.302394 
L 128.081701 49.121809 
L 132.689782 46.943551 
L 137.297863 44.860285 
L 141.905944 43.907092 
L 146.514025 43.117678 
L 151.122105 42.469114 
L 155.730186 42.30206 
L 160.338267 42.285682 
L 164.946348 42.285682 
L 169.554429 42.285682 
L 174.162509 42.285682 
L 178.77059 42.285682 
L 183.378671 42.285682 
L 187.986752 42.285682 
L 192.594833 42.285682 
L 197.202914 42.285682 
L 201.810994 42.285682 
L 206.419075 42.285682 
L 211.027156 42.285682 
L 215.635237 42.285682 
L 220.243318 42.285682 
L 224.851398 42.285682 
L 229.459479 42.285682 
L 234.06756 42.295509 
L 238.675641 42.30206 
L 243.283722 42.305335 
L 247.891802 42.298784 
L 252.499883 42.298784 
L 257.107964 42.315162 
L 261.716045 42.321713 
L 266.324126 42.321713 
L 270.932206 42.311886 
L 275.540287 42.295509 
L 280.148368 42.295509 
L 284.756449 42.295509 
L 289.36453 42.288957 
L 293.97261 42.285682 
L 298.580691 42.285682 
L 303.188772 42.285682 
L 307.796853 42.285682 
L 312.404934 42.285682 
L 317.013015 42.292233 
L 321.621095 42.298784 
L 326.229176 42.311886 
L 330.837257 42.321713 
L 335.445338 42.33154 
L 340.053419 42.321713 
L 344.661499 42.298784 
L 349.26958 42.298784 
L 353.877661 42.295509 
L 358.485742 42.298784 
L 363.093823 42.298784 
L 367.701903 42.298784 
L 372.309984 42.308611 
L 376.918065 42.321713 
L 381.526146 42.33154 
L 386.134227 42.338091 
L 390.742307 42.338091 
L 395.350388 42.344642 
L 399.958469 42.357744 
L 404.56655 42.370847 
L 409.174631 42.397051 
L 413.782711 42.400327 
L 418.390792 42.393776 
L 422.998873 42.377398 
L 427.606954 42.387225 
L 432.215035 42.403603 
L 436.823116 42.410154 
L 441.431196 42.413429 
L 446.039277 42.416705 
L 450.647358 42.416705 
L 455.255439 42.406878 
L 459.86352 42.410154 
L 464.4716 42.416705 
L 469.079681 42.423256 
L 473.687762 42.436358 
L 478.295843 42.452736 
L 482.903924 42.47239 
L 487.512004 42.488768 
L 492.120085 42.534626 
L 496.728166 42.600137 
L 501.336247 42.613239 
L 505.944328 42.616515 
L 510.552408 42.577208 
L 515.160489 42.554279 
L 519.76857 42.544452 
L 524.376651 42.564106 
L 528.984732 42.557555 
L 533.592812 42.547728 
" clip-path="url(#p0b5f0236d3)" style="fill: none; stroke: #ff0000; stroke-width: 2; stroke-linecap: square"/>
   </g>
   <g id="patch_3">
    <path d="M 54.582813 361.4475 
L 54.582813 27.0875 
" style="fill: none; stroke: #000000; stroke-width: 0.8; stroke-linejoin: miter; stroke-linecap: square"/>
   </g>
   <g id="patch_4">
    <path d="M 556.402812 361.4475 
L 556.402812 27.0875 
" style="fill: none; stroke: #000000; stroke-width: 0.8; stroke-linejoin: miter; stroke-linecap: square"/>
   </g>
   <g id="patch_5">
    <path d="M 54.582813 361.4475 
L 556.402812 361.4475 
" style="fill: none; stroke: #000000; stroke-width: 0.8; stroke-linejoin: miter; stroke-linecap: square"/>
   </g>
   <g id="patch_6">
    <path d="M 54.582813 27.0875 
L 556.402812 27.0875 
" style="fill: none; stroke: #000000; stroke-width: 0.8; stroke-linejoin: miter; stroke-linecap: square"/>
   </g>
   <g id="text_18">
    <!-- Accuracy - OPP -->
    <g transform="translate(240.511563 21.0875) scale(0.2 -0.2)">
     <defs>
      <path id="TimesNewRomanPSMT-2d" d="M 259 1672 
L 1875 1672 
L 1875 1200 
L 259 1200 
L 259 1672 
z
" transform="scale(0.015625)"/>
      <path id="TimesNewRomanPSMT-4f" d="M 2341 4334 
Q 3166 4334 3770 3707 
Q 4375 3081 4375 2144 
Q 4375 1178 3765 540 
Q 3156 -97 2291 -97 
Q 1416 -97 820 525 
Q 225 1147 225 2134 
Q 225 3144 913 3781 
Q 1509 4334 2341 4334 
z
M 2281 4106 
Q 1713 4106 1369 3684 
Q 941 3159 941 2147 
Q 941 1109 1384 550 
Q 1725 125 2284 125 
Q 2881 125 3270 590 
Q 3659 1056 3659 2059 
Q 3659 3147 3231 3681 
Q 2888 4106 2281 4106 
z
" transform="scale(0.015625)"/>
      <path id="TimesNewRomanPSMT-50" d="M 1313 1984 
L 1313 750 
Q 1313 350 1400 253 
Q 1519 116 1759 116 
L 1922 116 
L 1922 0 
L 106 0 
L 106 116 
L 266 116 
Q 534 116 650 291 
Q 713 388 713 750 
L 713 3488 
Q 713 3888 628 3984 
Q 506 4122 266 4122 
L 106 4122 
L 106 4238 
L 1659 4238 
Q 2228 4238 2556 4120 
Q 2884 4003 3109 3725 
Q 3334 3447 3334 3066 
Q 3334 2547 2992 2222 
Q 2650 1897 2025 1897 
Q 1872 1897 1694 1919 
Q 1516 1941 1313 1984 
z
M 1313 2163 
Q 1478 2131 1606 2115 
Q 1734 2100 1825 2100 
Q 2150 2100 2386 2351 
Q 2622 2603 2622 3003 
Q 2622 3278 2509 3514 
Q 2397 3750 2190 3867 
Q 1984 3984 1722 3984 
Q 1563 3984 1313 3925 
L 1313 2163 
z
" transform="scale(0.015625)"/>
     </defs>
     <use xlink:href="#TimesNewRomanPSMT-41"/>
     <use xlink:href="#TimesNewRomanPSMT-63" x="72.216797"/>
     <use xlink:href="#TimesNewRomanPSMT-63" x="116.601562"/>
     <use xlink:href="#TimesNewRomanPSMT-75" x="160.986328"/>
     <use xlink:href="#TimesNewRomanPSMT-72" x="210.986328"/>
     <use xlink:href="#TimesNewRomanPSMT-61" x="244.287109"/>
     <use xlink:href="#TimesNewRomanPSMT-63" x="288.671875"/>
     <use xlink:href="#TimesNewRomanPSMT-79" x="333.056641"/>
     <use xlink:href="#TimesNewRomanPSMT-20" x="383.056641"/>
     <use xlink:href="#TimesNewRomanPSMT-2d" x="408.056641"/>
     <use xlink:href="#TimesNewRomanPSMT-20" x="441.357422"/>
     <use xlink:href="#TimesNewRomanPSMT-4f" x="466.357422"/>
     <use xlink:href="#TimesNewRomanPSMT-50" x="538.574219"/>
     <use xlink:href="#TimesNewRomanPSMT-50" x="594.189453"/>
    </g>
   </g>
   <g id="legend_1">
    <g id="patch_7">
     <path d="M 408.209375 352.4475 
L 543.802812 352.4475 
Q 547.402812 352.4475 547.402812 348.8475 
L 547.402812 197.878125 
Q 547.402812 194.278125 543.802812 194.278125 
L 408.209375 194.278125 
Q 404.609375 194.278125 404.609375 197.878125 
L 404.609375 348.8475 
Q 404.609375 352.4475 408.209375 352.4475 
z
" style="fill: #ffffff; opacity: 0.8; stroke: #cccccc; stroke-linejoin: miter"/>
    </g>
    <g id="line2d_37">
     <path d="M 411.809375 207.778125 
L 429.809375 207.778125 
L 447.809375 207.778125 
" style="fill: none; stroke: #808080; stroke-width: 2; stroke-linecap: square"/>
    </g>
    <g id="text_19">
     <!-- Single -->
     <g transform="translate(462.209375 214.078125) scale(0.18 -0.18)">
      <defs>
       <path id="TimesNewRomanPSMT-53" d="M 2934 4334 
L 2934 2869 
L 2819 2869 
Q 2763 3291 2617 3541 
Q 2472 3791 2203 3937 
Q 1934 4084 1647 4084 
Q 1322 4084 1109 3886 
Q 897 3688 897 3434 
Q 897 3241 1031 3081 
Q 1225 2847 1953 2456 
Q 2547 2138 2764 1967 
Q 2981 1797 3098 1565 
Q 3216 1334 3216 1081 
Q 3216 600 2842 251 
Q 2469 -97 1881 -97 
Q 1697 -97 1534 -69 
Q 1438 -53 1133 45 
Q 828 144 747 144 
Q 669 144 623 97 
Q 578 50 556 -97 
L 441 -97 
L 441 1356 
L 556 1356 
Q 638 900 775 673 
Q 913 447 1195 297 
Q 1478 147 1816 147 
Q 2206 147 2432 353 
Q 2659 559 2659 841 
Q 2659 997 2573 1156 
Q 2488 1316 2306 1453 
Q 2184 1547 1640 1851 
Q 1097 2156 867 2337 
Q 638 2519 519 2737 
Q 400 2956 400 3219 
Q 400 3675 750 4004 
Q 1100 4334 1641 4334 
Q 1978 4334 2356 4169 
Q 2531 4091 2603 4091 
Q 2684 4091 2736 4139 
Q 2788 4188 2819 4334 
L 2934 4334 
z
" transform="scale(0.015625)"/>
       <path id="TimesNewRomanPSMT-67" d="M 966 1044 
Q 703 1172 562 1401 
Q 422 1631 422 1909 
Q 422 2334 742 2640 
Q 1063 2947 1563 2947 
Q 1972 2947 2272 2747 
L 2878 2747 
Q 3013 2747 3034 2739 
Q 3056 2731 3066 2713 
Q 3084 2684 3084 2613 
Q 3084 2531 3069 2500 
Q 3059 2484 3036 2475 
Q 3013 2466 2878 2466 
L 2506 2466 
Q 2681 2241 2681 1891 
Q 2681 1491 2375 1206 
Q 2069 922 1553 922 
Q 1341 922 1119 984 
Q 981 866 932 777 
Q 884 688 884 625 
Q 884 572 936 522 
Q 988 472 1138 450 
Q 1225 438 1575 428 
Q 2219 413 2409 384 
Q 2700 344 2873 169 
Q 3047 -6 3047 -263 
Q 3047 -616 2716 -925 
Q 2228 -1381 1444 -1381 
Q 841 -1381 425 -1109 
Q 191 -953 191 -784 
Q 191 -709 225 -634 
Q 278 -519 444 -313 
Q 466 -284 763 25 
Q 600 122 533 198 
Q 466 275 466 372 
Q 466 481 555 628 
Q 644 775 966 1044 
z
M 1509 2797 
Q 1278 2797 1122 2612 
Q 966 2428 966 2047 
Q 966 1553 1178 1281 
Q 1341 1075 1591 1075 
Q 1828 1075 1981 1253 
Q 2134 1431 2134 1813 
Q 2134 2309 1919 2591 
Q 1759 2797 1509 2797 
z
M 934 0 
Q 788 -159 713 -296 
Q 638 -434 638 -550 
Q 638 -700 819 -813 
Q 1131 -1006 1722 -1006 
Q 2284 -1006 2551 -807 
Q 2819 -609 2819 -384 
Q 2819 -222 2659 -153 
Q 2497 -84 2016 -72 
Q 1313 -53 934 0 
z
" transform="scale(0.015625)"/>
       <path id="TimesNewRomanPSMT-65" d="M 681 1784 
Q 678 1147 991 784 
Q 1303 422 1725 422 
Q 2006 422 2214 576 
Q 2422 731 2563 1106 
L 2659 1044 
Q 2594 616 2278 264 
Q 1963 -88 1488 -88 
Q 972 -88 605 314 
Q 238 716 238 1394 
Q 238 2128 614 2539 
Q 991 2950 1559 2950 
Q 2041 2950 2350 2633 
Q 2659 2316 2659 1784 
L 681 1784 
z
M 681 1966 
L 2006 1966 
Q 1991 2241 1941 2353 
Q 1863 2528 1708 2628 
Q 1553 2728 1384 2728 
Q 1125 2728 920 2526 
Q 716 2325 681 1966 
z
" transform="scale(0.015625)"/>
      </defs>
      <use xlink:href="#TimesNewRomanPSMT-53"/>
      <use xlink:href="#TimesNewRomanPSMT-69" x="55.615234"/>
      <use xlink:href="#TimesNewRomanPSMT-6e" x="83.398438"/>
      <use xlink:href="#TimesNewRomanPSMT-67" x="133.398438"/>
      <use xlink:href="#TimesNewRomanPSMT-6c" x="183.398438"/>
      <use xlink:href="#TimesNewRomanPSMT-65" x="211.181641"/>
     </g>
    </g>
    <g id="line2d_38">
     <path d="M 411.809375 233.262188 
L 429.809375 233.262188 
L 447.809375 233.262188 
" style="fill: none; stroke: #0000ff; stroke-width: 2; stroke-linecap: square"/>
    </g>
    <g id="text_20">
     <!-- FedAvg -->
     <g transform="translate(462.209375 239.562188) scale(0.18 -0.18)">
      <defs>
       <path id="TimesNewRomanPSMT-46" d="M 1309 4006 
L 1309 2341 
L 2081 2341 
Q 2347 2341 2470 2458 
Q 2594 2575 2634 2922 
L 2750 2922 
L 2750 1488 
L 2634 1488 
Q 2631 1734 2570 1850 
Q 2509 1966 2401 2023 
Q 2294 2081 2081 2081 
L 1309 2081 
L 1309 750 
Q 1309 428 1350 325 
Q 1381 247 1481 191 
Q 1619 116 1769 116 
L 1922 116 
L 1922 0 
L 103 0 
L 103 116 
L 253 116 
Q 516 116 634 269 
Q 709 369 709 750 
L 709 3488 
Q 709 3809 669 3913 
Q 638 3991 541 4047 
Q 406 4122 253 4122 
L 103 4122 
L 103 4238 
L 3256 4238 
L 3297 3306 
L 3188 3306 
Q 3106 3603 2998 3742 
Q 2891 3881 2733 3943 
Q 2575 4006 2244 4006 
L 1309 4006 
z
" transform="scale(0.015625)"/>
       <path id="TimesNewRomanPSMT-76" d="M 53 2863 
L 1400 2863 
L 1400 2747 
L 1313 2747 
Q 1191 2747 1127 2687 
Q 1063 2628 1063 2528 
Q 1063 2419 1128 2269 
L 1794 688 
L 2463 2328 
Q 2534 2503 2534 2594 
Q 2534 2638 2509 2666 
Q 2475 2713 2422 2730 
Q 2369 2747 2206 2747 
L 2206 2863 
L 3141 2863 
L 3141 2747 
Q 2978 2734 2916 2681 
Q 2806 2588 2719 2369 
L 1703 -88 
L 1575 -88 
L 553 2328 
Q 484 2497 421 2570 
Q 359 2644 263 2694 
Q 209 2722 53 2747 
L 53 2863 
z
" transform="scale(0.015625)"/>
      </defs>
      <use xlink:href="#TimesNewRomanPSMT-46"/>
      <use xlink:href="#TimesNewRomanPSMT-65" x="55.615234"/>
      <use xlink:href="#TimesNewRomanPSMT-64" x="100"/>
      <use xlink:href="#TimesNewRomanPSMT-41" x="150"/>
      <use xlink:href="#TimesNewRomanPSMT-76" x="214.841797"/>
      <use xlink:href="#TimesNewRomanPSMT-67" x="264.841797"/>
     </g>
    </g>
    <g id="line2d_39">
     <path d="M 411.809375 258.74625 
L 429.809375 258.74625 
L 447.809375 258.74625 
" style="fill: none; stroke: #008000; stroke-width: 2; stroke-linecap: square"/>
    </g>
    <g id="text_21">
     <!-- FedProto -->
     <g transform="translate(462.209375 265.04625) scale(0.18 -0.18)">
      <use xlink:href="#TimesNewRomanPSMT-46"/>
      <use xlink:href="#TimesNewRomanPSMT-65" x="55.615234"/>
      <use xlink:href="#TimesNewRomanPSMT-64" x="100"/>
      <use xlink:href="#TimesNewRomanPSMT-50" x="150"/>
      <use xlink:href="#TimesNewRomanPSMT-72" x="205.615234"/>
      <use xlink:href="#TimesNewRomanPSMT-6f" x="238.916016"/>
      <use xlink:href="#TimesNewRomanPSMT-74" x="288.916016"/>
      <use xlink:href="#TimesNewRomanPSMT-6f" x="316.699219"/>
     </g>
    </g>
    <g id="line2d_40">
     <path d="M 411.809375 284.196563 
L 429.809375 284.196563 
L 447.809375 284.196563 
" style="fill: none; stroke: #ff00ff; stroke-width: 2; stroke-linecap: square"/>
    </g>
    <g id="text_22">
     <!-- FedDTG -->
     <g transform="translate(462.209375 290.496563) scale(0.18 -0.18)">
      <defs>
       <path id="TimesNewRomanPSMT-44" d="M 109 0 
L 109 116 
L 269 116 
Q 538 116 650 288 
Q 719 391 719 750 
L 719 3488 
Q 719 3884 631 3984 
Q 509 4122 269 4122 
L 109 4122 
L 109 4238 
L 1834 4238 
Q 2784 4238 3279 4022 
Q 3775 3806 4076 3303 
Q 4378 2800 4378 2141 
Q 4378 1256 3841 663 
Q 3238 0 2003 0 
L 109 0 
z
M 1319 306 
Q 1716 219 1984 219 
Q 2709 219 3187 728 
Q 3666 1238 3666 2109 
Q 3666 2988 3187 3494 
Q 2709 4000 1959 4000 
Q 1678 4000 1319 3909 
L 1319 306 
z
" transform="scale(0.015625)"/>
       <path id="TimesNewRomanPSMT-54" d="M 3703 4238 
L 3750 3244 
L 3631 3244 
Q 3597 3506 3538 3619 
Q 3441 3800 3280 3886 
Q 3119 3972 2856 3972 
L 2259 3972 
L 2259 734 
Q 2259 344 2344 247 
Q 2463 116 2709 116 
L 2856 116 
L 2856 0 
L 1059 0 
L 1059 116 
L 1209 116 
Q 1478 116 1591 278 
Q 1659 378 1659 734 
L 1659 3972 
L 1150 3972 
Q 853 3972 728 3928 
Q 566 3869 450 3700 
Q 334 3531 313 3244 
L 194 3244 
L 244 4238 
L 3703 4238 
z
" transform="scale(0.015625)"/>
      </defs>
      <use xlink:href="#TimesNewRomanPSMT-46"/>
      <use xlink:href="#TimesNewRomanPSMT-65" x="55.615234"/>
      <use xlink:href="#TimesNewRomanPSMT-64" x="100"/>
      <use xlink:href="#TimesNewRomanPSMT-44" x="150"/>
      <use xlink:href="#TimesNewRomanPSMT-54" x="222.216797"/>
      <use xlink:href="#TimesNewRomanPSMT-47" x="283.300781"/>
     </g>
    </g>
    <g id="line2d_41">
     <path d="M 411.809375 309.646875 
L 429.809375 309.646875 
L 447.809375 309.646875 
" style="fill: none; stroke: #ffa500; stroke-width: 2; stroke-linecap: square"/>
    </g>
    <g id="text_23">
     <!-- FedMEKT -->
     <g transform="translate(462.209375 315.946875) scale(0.18 -0.18)">
      <defs>
       <path id="TimesNewRomanPSMT-4d" d="M 2619 0 
L 981 3566 
L 981 734 
Q 981 344 1066 247 
Q 1181 116 1431 116 
L 1581 116 
L 1581 0 
L 106 0 
L 106 116 
L 256 116 
Q 525 116 638 278 
Q 706 378 706 734 
L 706 3503 
Q 706 3784 644 3909 
Q 600 4000 483 4061 
Q 366 4122 106 4122 
L 106 4238 
L 1306 4238 
L 2844 922 
L 4356 4238 
L 5556 4238 
L 5556 4122 
L 5409 4122 
Q 5138 4122 5025 3959 
Q 4956 3859 4956 3503 
L 4956 734 
Q 4956 344 5044 247 
Q 5159 116 5409 116 
L 5556 116 
L 5556 0 
L 3756 0 
L 3756 116 
L 3906 116 
Q 4178 116 4288 278 
Q 4356 378 4356 734 
L 4356 3566 
L 2722 0 
L 2619 0 
z
" transform="scale(0.015625)"/>
       <path id="TimesNewRomanPSMT-45" d="M 1338 4006 
L 1338 2331 
L 2269 2331 
Q 2631 2331 2753 2441 
Q 2916 2584 2934 2947 
L 3050 2947 
L 3050 1472 
L 2934 1472 
Q 2891 1781 2847 1869 
Q 2791 1978 2662 2040 
Q 2534 2103 2269 2103 
L 1338 2103 
L 1338 706 
Q 1338 425 1363 364 
Q 1388 303 1450 267 
Q 1513 231 1688 231 
L 2406 231 
Q 2766 231 2928 281 
Q 3091 331 3241 478 
Q 3434 672 3638 1063 
L 3763 1063 
L 3397 0 
L 131 0 
L 131 116 
L 281 116 
Q 431 116 566 188 
Q 666 238 702 338 
Q 738 438 738 747 
L 738 3500 
Q 738 3903 656 3997 
Q 544 4122 281 4122 
L 131 4122 
L 131 4238 
L 3397 4238 
L 3444 3309 
L 3322 3309 
Q 3256 3644 3176 3769 
Q 3097 3894 2941 3959 
Q 2816 4006 2500 4006 
L 1338 4006 
z
" transform="scale(0.015625)"/>
       <path id="TimesNewRomanPSMT-4b" d="M 1913 2350 
L 3475 797 
Q 3859 413 4131 273 
Q 4403 134 4675 116 
L 4675 0 
L 2659 0 
L 2659 116 
Q 2841 116 2920 177 
Q 3000 238 3000 313 
Q 3000 388 2970 447 
Q 2941 506 2775 669 
L 1313 2116 
L 1313 750 
Q 1313 428 1353 325 
Q 1384 247 1484 191 
Q 1619 116 1769 116 
L 1913 116 
L 1913 0 
L 106 0 
L 106 116 
L 256 116 
Q 519 116 638 269 
Q 713 369 713 750 
L 713 3488 
Q 713 3809 672 3916 
Q 641 3991 544 4047 
Q 406 4122 256 4122 
L 106 4122 
L 106 4238 
L 1913 4238 
L 1913 4122 
L 1769 4122 
Q 1622 4122 1484 4050 
Q 1388 4000 1350 3900 
Q 1313 3800 1313 3488 
L 1313 2191 
Q 1375 2250 1741 2588 
Q 2669 3438 2863 3722 
Q 2947 3847 2947 3941 
Q 2947 4013 2881 4067 
Q 2816 4122 2659 4122 
L 2563 4122 
L 2563 4238 
L 4119 4238 
L 4119 4122 
Q 3981 4119 3868 4084 
Q 3756 4050 3593 3951 
Q 3431 3853 3194 3634 
Q 3125 3572 2559 2994 
L 1913 2350 
z
" transform="scale(0.015625)"/>
      </defs>
      <use xlink:href="#TimesNewRomanPSMT-46"/>
      <use xlink:href="#TimesNewRomanPSMT-65" x="55.615234"/>
      <use xlink:href="#TimesNewRomanPSMT-64" x="100"/>
      <use xlink:href="#TimesNewRomanPSMT-4d" x="150"/>
      <use xlink:href="#TimesNewRomanPSMT-45" x="238.916016"/>
      <use xlink:href="#TimesNewRomanPSMT-4b" x="300"/>
      <use xlink:href="#TimesNewRomanPSMT-54" x="372.216797"/>
     </g>
    </g>
    <g id="line2d_42">
     <path d="M 411.809375 335.097188 
L 429.809375 335.097188 
L 447.809375 335.097188 
" style="fill: none; stroke: #ff0000; stroke-width: 2; stroke-linecap: square"/>
    </g>
    <g id="text_24">
     <!-- FedBiKD -->
     <g transform="translate(462.209375 341.397188) scale(0.18 -0.18)">
      <defs>
       <path id="TimesNewRomanPSMT-42" d="M 2956 2163 
Q 3397 2069 3616 1863 
Q 3919 1575 3919 1159 
Q 3919 844 3719 555 
Q 3519 266 3170 133 
Q 2822 0 2106 0 
L 106 0 
L 106 116 
L 266 116 
Q 531 116 647 284 
Q 719 394 719 750 
L 719 3488 
Q 719 3881 628 3984 
Q 506 4122 266 4122 
L 106 4122 
L 106 4238 
L 1938 4238 
Q 2450 4238 2759 4163 
Q 3228 4050 3475 3764 
Q 3722 3478 3722 3106 
Q 3722 2788 3528 2536 
Q 3334 2284 2956 2163 
z
M 1319 2331 
Q 1434 2309 1582 2298 
Q 1731 2288 1909 2288 
Q 2366 2288 2595 2386 
Q 2825 2484 2947 2687 
Q 3069 2891 3069 3131 
Q 3069 3503 2766 3765 
Q 2463 4028 1881 4028 
Q 1569 4028 1319 3959 
L 1319 2331 
z
M 1319 306 
Q 1681 222 2034 222 
Q 2600 222 2897 476 
Q 3194 731 3194 1106 
Q 3194 1353 3059 1581 
Q 2925 1809 2622 1940 
Q 2319 2072 1872 2072 
Q 1678 2072 1540 2065 
Q 1403 2059 1319 2044 
L 1319 306 
z
" transform="scale(0.015625)"/>
      </defs>
      <use xlink:href="#TimesNewRomanPSMT-46"/>
      <use xlink:href="#TimesNewRomanPSMT-65" x="55.615234"/>
      <use xlink:href="#TimesNewRomanPSMT-64" x="100"/>
      <use xlink:href="#TimesNewRomanPSMT-42" x="150"/>
      <use xlink:href="#TimesNewRomanPSMT-69" x="216.699219"/>
      <use xlink:href="#TimesNewRomanPSMT-4b" x="244.482422"/>
      <use xlink:href="#TimesNewRomanPSMT-44" x="316.699219"/>
     </g>
    </g>
   </g>
  </g>
  <g id="axes_2">
   <g id="patch_8">
    <path d="M 621.942812 361.4475 
L 1123.762813 361.4475 
L 1123.762813 27.0875 
L 621.942812 27.0875 
z
" style="fill: #ffffff"/>
   </g>
   <g id="matplotlib.axis_3">
    <g id="xtick_7">
     <g id="line2d_43">
      <path d="M 640.144732 361.4475 
L 640.144732 27.0875 
" clip-path="url(#pab22a3afc1)" style="fill: none; stroke: #b0b0b0; stroke-opacity: 0.3; stroke-width: 0.8; stroke-linecap: square"/>
     </g>
     <g id="line2d_44">
      <g>
       <use xlink:href="#m2889ee0096" x="640.144732" y="361.4475" style="stroke: #000000; stroke-width: 0.8"/>
      </g>
     </g>
     <g id="text_25">
      <!-- 0 -->
      <g transform="translate(636.144732 379.5575) scale(0.16 -0.16)">
       <use xlink:href="#TimesNewRomanPSMT-30"/>
      </g>
     </g>
    </g>
    <g id="xtick_8">
     <g id="line2d_45">
      <path d="M 732.306348 361.4475 
L 732.306348 27.0875 
" clip-path="url(#pab22a3afc1)" style="fill: none; stroke: #b0b0b0; stroke-opacity: 0.3; stroke-width: 0.8; stroke-linecap: square"/>
     </g>
     <g id="line2d_46">
      <g>
       <use xlink:href="#m2889ee0096" x="732.306348" y="361.4475" style="stroke: #000000; stroke-width: 0.8"/>
      </g>
     </g>
     <g id="text_26">
      <!-- 20 -->
      <g transform="translate(724.306348 379.5575) scale(0.16 -0.16)">
       <use xlink:href="#TimesNewRomanPSMT-32"/>
       <use xlink:href="#TimesNewRomanPSMT-30" x="50"/>
      </g>
     </g>
    </g>
    <g id="xtick_9">
     <g id="line2d_47">
      <path d="M 824.467964 361.4475 
L 824.467964 27.0875 
" clip-path="url(#pab22a3afc1)" style="fill: none; stroke: #b0b0b0; stroke-opacity: 0.3; stroke-width: 0.8; stroke-linecap: square"/>
     </g>
     <g id="line2d_48">
      <g>
       <use xlink:href="#m2889ee0096" x="824.467964" y="361.4475" style="stroke: #000000; stroke-width: 0.8"/>
      </g>
     </g>
     <g id="text_27">
      <!-- 40 -->
      <g transform="translate(816.467964 379.5575) scale(0.16 -0.16)">
       <use xlink:href="#TimesNewRomanPSMT-34"/>
       <use xlink:href="#TimesNewRomanPSMT-30" x="50"/>
      </g>
     </g>
    </g>
    <g id="xtick_10">
     <g id="line2d_49">
      <path d="M 916.62958 361.4475 
L 916.62958 27.0875 
" clip-path="url(#pab22a3afc1)" style="fill: none; stroke: #b0b0b0; stroke-opacity: 0.3; stroke-width: 0.8; stroke-linecap: square"/>
     </g>
     <g id="line2d_50">
      <g>
       <use xlink:href="#m2889ee0096" x="916.62958" y="361.4475" style="stroke: #000000; stroke-width: 0.8"/>
      </g>
     </g>
     <g id="text_28">
      <!-- 60 -->
      <g transform="translate(908.62958 379.5575) scale(0.16 -0.16)">
       <use xlink:href="#TimesNewRomanPSMT-36"/>
       <use xlink:href="#TimesNewRomanPSMT-30" x="50"/>
      </g>
     </g>
    </g>
    <g id="xtick_11">
     <g id="line2d_51">
      <path d="M 1008.791196 361.4475 
L 1008.791196 27.0875 
" clip-path="url(#pab22a3afc1)" style="fill: none; stroke: #b0b0b0; stroke-opacity: 0.3; stroke-width: 0.8; stroke-linecap: square"/>
     </g>
     <g id="line2d_52">
      <g>
       <use xlink:href="#m2889ee0096" x="1008.791196" y="361.4475" style="stroke: #000000; stroke-width: 0.8"/>
      </g>
     </g>
     <g id="text_29">
      <!-- 80 -->
      <g transform="translate(1000.791196 379.5575) scale(0.16 -0.16)">
       <use xlink:href="#TimesNewRomanPSMT-38"/>
       <use xlink:href="#TimesNewRomanPSMT-30" x="50"/>
      </g>
     </g>
    </g>
    <g id="xtick_12">
     <g id="line2d_53">
      <path d="M 1100.952813 361.4475 
L 1100.952813 27.0875 
" clip-path="url(#pab22a3afc1)" style="fill: none; stroke: #b0b0b0; stroke-opacity: 0.3; stroke-width: 0.8; stroke-linecap: square"/>
     </g>
     <g id="line2d_54">
      <g>
       <use xlink:href="#m2889ee0096" x="1100.952813" y="361.4475" style="stroke: #000000; stroke-width: 0.8"/>
      </g>
     </g>
     <g id="text_30">
      <!-- 100 -->
      <g transform="translate(1088.952813 379.5575) scale(0.16 -0.16)">
       <use xlink:href="#TimesNewRomanPSMT-31"/>
       <use xlink:href="#TimesNewRomanPSMT-30" x="50"/>
       <use xlink:href="#TimesNewRomanPSMT-30" x="100"/>
      </g>
     </g>
    </g>
    <g id="text_31">
     <!-- Communication Rounds -->
     <g transform="translate(785.101406 399.47875) scale(0.18 -0.18)">
      <use xlink:href="#TimesNewRomanPSMT-43"/>
      <use xlink:href="#TimesNewRomanPSMT-6f" x="66.699219"/>
      <use xlink:href="#TimesNewRomanPSMT-6d" x="116.699219"/>
      <use xlink:href="#TimesNewRomanPSMT-6d" x="194.482422"/>
      <use xlink:href="#TimesNewRomanPSMT-75" x="272.265625"/>
      <use xlink:href="#TimesNewRomanPSMT-6e" x="322.265625"/>
      <use xlink:href="#TimesNewRomanPSMT-69" x="372.265625"/>
      <use xlink:href="#TimesNewRomanPSMT-63" x="400.048828"/>
      <use xlink:href="#TimesNewRomanPSMT-61" x="444.433594"/>
      <use xlink:href="#TimesNewRomanPSMT-74" x="488.818359"/>
      <use xlink:href="#TimesNewRomanPSMT-69" x="516.601562"/>
      <use xlink:href="#TimesNewRomanPSMT-6f" x="544.384766"/>
      <use xlink:href="#TimesNewRomanPSMT-6e" x="594.384766"/>
      <use xlink:href="#TimesNewRomanPSMT-20" x="644.384766"/>
      <use xlink:href="#TimesNewRomanPSMT-52" x="669.384766"/>
      <use xlink:href="#TimesNewRomanPSMT-6f" x="736.083984"/>
      <use xlink:href="#TimesNewRomanPSMT-75" x="786.083984"/>
      <use xlink:href="#TimesNewRomanPSMT-6e" x="836.083984"/>
      <use xlink:href="#TimesNewRomanPSMT-64" x="886.083984"/>
      <use xlink:href="#TimesNewRomanPSMT-73" x="936.083984"/>
     </g>
    </g>
   </g>
   <g id="matplotlib.axis_4">
    <g id="ytick_10">
     <g id="line2d_55">
      <path d="M 621.942812 351.994364 
L 1123.762813 351.994364 
" clip-path="url(#pab22a3afc1)" style="fill: none; stroke: #b0b0b0; stroke-opacity: 0.3; stroke-width: 0.8; stroke-linecap: square"/>
     </g>
     <g id="line2d_56">
      <g>
       <use xlink:href="#mf2482540d8" x="621.942812" y="351.994364" style="stroke: #000000; stroke-width: 0.8"/>
      </g>
     </g>
     <g id="text_32">
      <!-- 0.0 -->
      <g transform="translate(594.942812 357.549364) scale(0.16 -0.16)">
       <use xlink:href="#TimesNewRomanPSMT-30"/>
       <use xlink:href="#TimesNewRomanPSMT-2e" x="50"/>
       <use xlink:href="#TimesNewRomanPSMT-30" x="75"/>
      </g>
     </g>
    </g>
    <g id="ytick_11">
     <g id="line2d_57">
      <path d="M 621.942812 308.111804 
L 1123.762813 308.111804 
" clip-path="url(#pab22a3afc1)" style="fill: none; stroke: #b0b0b0; stroke-opacity: 0.3; stroke-width: 0.8; stroke-linecap: square"/>
     </g>
     <g id="line2d_58">
      <g>
       <use xlink:href="#mf2482540d8" x="621.942812" y="308.111804" style="stroke: #000000; stroke-width: 0.8"/>
      </g>
     </g>
     <g id="text_33">
      <!-- 0.1 -->
      <g transform="translate(594.942812 313.666804) scale(0.16 -0.16)">
       <use xlink:href="#TimesNewRomanPSMT-30"/>
       <use xlink:href="#TimesNewRomanPSMT-2e" x="50"/>
       <use xlink:href="#TimesNewRomanPSMT-31" x="75"/>
      </g>
     </g>
    </g>
    <g id="ytick_12">
     <g id="line2d_59">
      <path d="M 621.942812 264.229244 
L 1123.762813 264.229244 
" clip-path="url(#pab22a3afc1)" style="fill: none; stroke: #b0b0b0; stroke-opacity: 0.3; stroke-width: 0.8; stroke-linecap: square"/>
     </g>
     <g id="line2d_60">
      <g>
       <use xlink:href="#mf2482540d8" x="621.942812" y="264.229244" style="stroke: #000000; stroke-width: 0.8"/>
      </g>
     </g>
     <g id="text_34">
      <!-- 0.2 -->
      <g transform="translate(594.942812 269.784244) scale(0.16 -0.16)">
       <use xlink:href="#TimesNewRomanPSMT-30"/>
       <use xlink:href="#TimesNewRomanPSMT-2e" x="50"/>
       <use xlink:href="#TimesNewRomanPSMT-32" x="75"/>
      </g>
     </g>
    </g>
    <g id="ytick_13">
     <g id="line2d_61">
      <path d="M 621.942812 220.346684 
L 1123.762813 220.346684 
" clip-path="url(#pab22a3afc1)" style="fill: none; stroke: #b0b0b0; stroke-opacity: 0.3; stroke-width: 0.8; stroke-linecap: square"/>
     </g>
     <g id="line2d_62">
      <g>
       <use xlink:href="#mf2482540d8" x="621.942812" y="220.346684" style="stroke: #000000; stroke-width: 0.8"/>
      </g>
     </g>
     <g id="text_35">
      <!-- 0.3 -->
      <g transform="translate(594.942812 225.901684) scale(0.16 -0.16)">
       <use xlink:href="#TimesNewRomanPSMT-30"/>
       <use xlink:href="#TimesNewRomanPSMT-2e" x="50"/>
       <use xlink:href="#TimesNewRomanPSMT-33" x="75"/>
      </g>
     </g>
    </g>
    <g id="ytick_14">
     <g id="line2d_63">
      <path d="M 621.942812 176.464124 
L 1123.762813 176.464124 
" clip-path="url(#pab22a3afc1)" style="fill: none; stroke: #b0b0b0; stroke-opacity: 0.3; stroke-width: 0.8; stroke-linecap: square"/>
     </g>
     <g id="line2d_64">
      <g>
       <use xlink:href="#mf2482540d8" x="621.942812" y="176.464124" style="stroke: #000000; stroke-width: 0.8"/>
      </g>
     </g>
     <g id="text_36">
      <!-- 0.4 -->
      <g transform="translate(594.942812 182.019124) scale(0.16 -0.16)">
       <use xlink:href="#TimesNewRomanPSMT-30"/>
       <use xlink:href="#TimesNewRomanPSMT-2e" x="50"/>
       <use xlink:href="#TimesNewRomanPSMT-34" x="75"/>
      </g>
     </g>
    </g>
    <g id="ytick_15">
     <g id="line2d_65">
      <path d="M 621.942812 132.581565 
L 1123.762813 132.581565 
" clip-path="url(#pab22a3afc1)" style="fill: none; stroke: #b0b0b0; stroke-opacity: 0.3; stroke-width: 0.8; stroke-linecap: square"/>
     </g>
     <g id="line2d_66">
      <g>
       <use xlink:href="#mf2482540d8" x="621.942812" y="132.581565" style="stroke: #000000; stroke-width: 0.8"/>
      </g>
     </g>
     <g id="text_37">
      <!-- 0.5 -->
      <g transform="translate(594.942812 138.136565) scale(0.16 -0.16)">
       <use xlink:href="#TimesNewRomanPSMT-30"/>
       <use xlink:href="#TimesNewRomanPSMT-2e" x="50"/>
       <use xlink:href="#TimesNewRomanPSMT-35" x="75"/>
      </g>
     </g>
    </g>
    <g id="ytick_16">
     <g id="line2d_67">
      <path d="M 621.942812 88.699005 
L 1123.762813 88.699005 
" clip-path="url(#pab22a3afc1)" style="fill: none; stroke: #b0b0b0; stroke-opacity: 0.3; stroke-width: 0.8; stroke-linecap: square"/>
     </g>
     <g id="line2d_68">
      <g>
       <use xlink:href="#mf2482540d8" x="621.942812" y="88.699005" style="stroke: #000000; stroke-width: 0.8"/>
      </g>
     </g>
     <g id="text_38">
      <!-- 0.6 -->
      <g transform="translate(594.942812 94.254005) scale(0.16 -0.16)">
       <use xlink:href="#TimesNewRomanPSMT-30"/>
       <use xlink:href="#TimesNewRomanPSMT-2e" x="50"/>
       <use xlink:href="#TimesNewRomanPSMT-36" x="75"/>
      </g>
     </g>
    </g>
    <g id="ytick_17">
     <g id="line2d_69">
      <path d="M 621.942812 44.816445 
L 1123.762813 44.816445 
" clip-path="url(#pab22a3afc1)" style="fill: none; stroke: #b0b0b0; stroke-opacity: 0.3; stroke-width: 0.8; stroke-linecap: square"/>
     </g>
     <g id="line2d_70">
      <g>
       <use xlink:href="#mf2482540d8" x="621.942812" y="44.816445" style="stroke: #000000; stroke-width: 0.8"/>
      </g>
     </g>
     <g id="text_39">
      <!-- 0.7 -->
      <g transform="translate(594.942812 50.371445) scale(0.16 -0.16)">
       <use xlink:href="#TimesNewRomanPSMT-30"/>
       <use xlink:href="#TimesNewRomanPSMT-2e" x="50"/>
       <use xlink:href="#TimesNewRomanPSMT-37" x="75"/>
      </g>
     </g>
    </g>
    <g id="text_40">
     <!-- Global F1 Score -->
     <g transform="translate(587.0925 253.259688) rotate(-90) scale(0.18 -0.18)">
      <use xlink:href="#TimesNewRomanPSMT-47"/>
      <use xlink:href="#TimesNewRomanPSMT-6c" x="72.216797"/>
      <use xlink:href="#TimesNewRomanPSMT-6f" x="100"/>
      <use xlink:href="#TimesNewRomanPSMT-62" x="150"/>
      <use xlink:href="#TimesNewRomanPSMT-61" x="200"/>
      <use xlink:href="#TimesNewRomanPSMT-6c" x="244.384766"/>
      <use xlink:href="#TimesNewRomanPSMT-20" x="272.167969"/>
      <use xlink:href="#TimesNewRomanPSMT-46" x="297.167969"/>
      <use xlink:href="#TimesNewRomanPSMT-31" x="352.783203"/>
      <use xlink:href="#TimesNewRomanPSMT-20" x="402.783203"/>
      <use xlink:href="#TimesNewRomanPSMT-53" x="427.783203"/>
      <use xlink:href="#TimesNewRomanPSMT-63" x="483.398438"/>
      <use xlink:href="#TimesNewRomanPSMT-6f" x="527.783203"/>
      <use xlink:href="#TimesNewRomanPSMT-72" x="577.783203"/>
      <use xlink:href="#TimesNewRomanPSMT-65" x="611.083984"/>
     </g>
    </g>
   </g>
   <g id="line2d_71">
    <path d="M 644.752812 306.149034 
L 649.360893 295.402546 
L 653.968974 283.445674 
L 658.577055 271.494765 
L 663.185136 257.320615 
L 667.793217 240.25947 
L 672.401297 224.029799 
L 677.009378 207.996317 
L 681.617459 197.275377 
L 686.22554 186.68519 
L 690.833621 173.21067 
L 695.441701 161.793951 
L 700.049782 150.626267 
L 704.657863 142.228969 
L 709.265944 132.764083 
L 713.874025 124.434562 
L 718.482105 116.978654 
L 723.090186 107.975482 
L 727.698267 101.173708 
L 732.306348 95.564861 
L 736.914429 91.710244 
L 741.522509 87.326142 
L 746.13059 83.652453 
L 750.738671 80.303754 
L 755.346752 77.160806 
L 759.954833 73.599009 
L 764.562914 70.588073 
L 769.170994 68.009885 
L 773.779075 65.862902 
L 778.387156 64.226741 
L 782.995237 62.034051 
L 787.603318 60.205737 
L 792.211398 58.529848 
L 796.819479 56.592695 
L 801.42756 55.254979 
L 806.035641 54.137663 
L 810.643722 52.985243 
L 815.251802 52.395502 
L 819.859883 51.951338 
L 824.467964 51.424655 
L 829.076045 50.855216 
L 833.684126 50.36072 
L 838.292206 49.890768 
L 842.900287 49.406856 
L 847.508368 48.94799 
L 852.116449 48.502957 
L 856.72453 48.137454 
L 861.33261 47.908908 
L 865.940691 47.640731 
L 870.548772 47.353891 
L 875.156853 47.088918 
L 879.764934 46.873823 
L 884.373015 46.625263 
L 888.981095 46.412483 
L 893.589176 46.165401 
L 898.197257 45.922073 
L 902.805338 45.678232 
L 907.413419 45.470006 
L 912.021499 45.251034 
L 916.62958 44.9503 
L 921.237661 44.4821 
L 925.845742 44.262365 
L 930.453823 44.133211 
L 935.061903 44.027495 
L 939.669984 43.969485 
L 944.278065 43.873455 
L 948.886146 43.802177 
L 953.494227 43.705745 
L 958.102307 43.633525 
L 962.710388 43.576531 
L 967.318469 43.534644 
L 971.92655 43.470831 
L 976.534631 43.41519 
L 981.142711 43.35401 
L 985.750792 43.313784 
L 990.358873 43.255579 
L 994.966954 43.212493 
L 999.575035 43.186651 
L 1004.183116 43.129163 
L 1008.791196 43.10702 
L 1013.399277 43.054405 
L 1018.007358 43.041591 
L 1022.615439 42.997431 
L 1027.22352 42.963987 
L 1031.8316 42.940809 
L 1036.439681 42.916937 
L 1041.047762 42.894525 
L 1045.655843 42.877184 
L 1050.263924 42.859147 
L 1054.872004 42.832695 
L 1059.480085 42.817636 
L 1064.088166 42.804035 
L 1068.696247 42.796639 
L 1073.304328 42.787087 
L 1077.912408 42.781205 
L 1082.520489 42.771277 
L 1087.12857 42.754012 
L 1091.736651 42.742252 
L 1096.344732 42.733082 
L 1100.952813 42.718033 
" clip-path="url(#pab22a3afc1)" style="fill: none; stroke: #808080; stroke-width: 2; stroke-linecap: square"/>
   </g>
   <g id="line2d_72">
    <path d="M 644.752812 343.751814 
L 649.360893 345.485291 
L 653.968974 345.729944 
L 658.577055 341.267204 
L 663.185136 339.924001 
L 667.793217 335.654115 
L 672.401297 332.458193 
L 677.009378 325.936336 
L 681.617459 309.240128 
L 686.22554 296.021082 
L 690.833621 283.207195 
L 695.441701 274.810968 
L 700.049782 268.726873 
L 704.657863 263.506749 
L 709.265944 257.038436 
L 713.874025 241.848288 
L 718.482105 231.277555 
L 723.090186 227.023512 
L 727.698267 225.103779 
L 732.306348 222.993551 
L 736.914429 219.901379 
L 741.522509 212.582439 
L 746.13059 211.074679 
L 750.738671 202.191645 
L 755.346752 203.107177 
L 759.954833 201.302484 
L 764.562914 198.958563 
L 769.170994 196.713988 
L 773.779075 192.882086 
L 778.387156 190.949182 
L 782.995237 186.397099 
L 787.603318 181.334017 
L 792.211398 178.443713 
L 796.819479 171.873977 
L 801.42756 171.243973 
L 806.035641 169.199764 
L 810.643722 160.901654 
L 815.251802 153.045802 
L 819.859883 147.787237 
L 824.467964 143.68418 
L 829.076045 143.605078 
L 833.684126 143.520774 
L 838.292206 132.024017 
L 842.900287 120.799677 
L 847.508368 123.082869 
L 852.116449 114.375432 
L 856.72453 118.02836 
L 861.33261 112.422768 
L 865.940691 107.266748 
L 870.548772 103.540298 
L 875.156853 92.670958 
L 879.764934 83.657488 
L 884.373015 77.657577 
L 888.981095 78.624408 
L 893.589176 73.912223 
L 898.197257 71.400928 
L 902.805338 74.096084 
L 907.413419 74.299444 
L 912.021499 73.118022 
L 916.62958 69.583094 
L 921.237661 67.597328 
L 925.845742 66.130214 
L 930.453823 66.768764 
L 935.061903 64.953243 
L 939.669984 62.142849 
L 944.278065 66.027539 
L 948.886146 63.894179 
L 953.494227 63.406584 
L 958.102307 65.404592 
L 962.710388 65.293872 
L 967.318469 65.203797 
L 971.92655 63.238233 
L 976.534631 64.20487 
L 981.142711 60.689087 
L 985.750792 59.849041 
L 990.358873 59.709283 
L 994.966954 59.493389 
L 999.575035 59.160357 
L 1004.183116 59.790955 
L 1008.791196 58.195945 
L 1013.399277 57.986585 
L 1018.007358 57.73836 
L 1022.615439 57.629994 
L 1027.22352 56.515436 
L 1031.8316 57.289 
L 1036.439681 55.684446 
L 1041.047762 54.860426 
L 1045.655843 54.261348 
L 1050.263924 53.77105 
L 1054.872004 53.187836 
L 1059.480085 52.656146 
L 1064.088166 52.26779 
L 1068.696247 51.942666 
L 1073.304328 50.228777 
L 1077.912408 49.996094 
L 1082.520489 49.545569 
L 1087.12857 49.351542 
L 1091.736651 49.163831 
L 1096.344732 49.238372 
L 1100.952813 48.681291 
" clip-path="url(#pab22a3afc1)" style="fill: none; stroke: #0000ff; stroke-width: 2; stroke-linecap: square"/>
   </g>
   <g id="line2d_73">
    <path d="M 644.752812 336.94916 
L 649.360893 331.426299 
L 653.968974 323.782515 
L 658.577055 313.906665 
L 663.185136 302.839331 
L 667.793217 288.383568 
L 672.401297 269.093386 
L 677.009378 250.793338 
L 681.617459 232.061007 
L 686.22554 212.493653 
L 690.833621 194.85391 
L 695.441701 178.186165 
L 700.049782 163.025913 
L 704.657863 153.779176 
L 709.265944 143.90377 
L 713.874025 135.092998 
L 718.482105 126.709343 
L 723.090186 121.989519 
L 727.698267 116.868261 
L 732.306348 111.575093 
L 736.914429 108.524547 
L 741.522509 105.464072 
L 746.13059 102.669905 
L 750.738671 100.319787 
L 755.346752 98.678418 
L 759.954833 97.066628 
L 764.562914 95.557078 
L 769.170994 94.31407 
L 773.779075 93.445135 
L 778.387156 92.46376 
L 782.995237 91.540334 
L 787.603318 90.891333 
L 792.211398 90.044831 
L 796.819479 89.263891 
L 801.42756 88.611723 
L 806.035641 88.046641 
L 810.643722 87.432177 
L 815.251802 86.774444 
L 819.859883 86.29276 
L 824.467964 85.77324 
L 829.076045 85.406702 
L 833.684126 85.000728 
L 838.292206 84.542221 
L 842.900287 84.043521 
L 847.508368 83.544603 
L 852.116449 83.120181 
L 856.72453 82.641428 
L 861.33261 81.833952 
L 865.940691 81.116641 
L 870.548772 80.27388 
L 875.156853 79.26296 
L 879.764934 78.796444 
L 884.373015 78.429353 
L 888.981095 78.117143 
L 893.589176 77.856648 
L 898.197257 77.548645 
L 902.805338 77.203445 
L 907.413419 76.874802 
L 912.021499 76.585633 
L 916.62958 76.335588 
L 921.237661 75.946793 
L 925.845742 75.703294 
L 930.453823 75.519272 
L 935.061903 75.324512 
L 939.669984 75.087801 
L 944.278065 74.784747 
L 948.886146 74.570335 
L 953.494227 74.445426 
L 958.102307 74.388713 
L 962.710388 74.251264 
L 967.318469 74.069695 
L 971.92655 73.892757 
L 976.534631 73.701233 
L 981.142711 73.477648 
L 985.750792 73.328737 
L 990.358873 73.177088 
L 994.966954 73.02631 
L 999.575035 72.929292 
L 1004.183116 72.800891 
L 1008.791196 72.621238 
L 1013.399277 72.441787 
L 1018.007358 72.042176 
L 1022.615439 71.661882 
L 1027.22352 71.440998 
L 1031.8316 71.291736 
L 1036.439681 71.056238 
L 1041.047762 70.861368 
L 1045.655843 70.645554 
L 1050.263924 70.518023 
L 1054.872004 70.437828 
L 1059.480085 70.33084 
L 1064.088166 70.176958 
L 1068.696247 70.037185 
L 1073.304328 69.856059 
L 1077.912408 69.567919 
L 1082.520489 69.396436 
L 1087.12857 69.169851 
L 1091.736651 68.955205 
L 1096.344732 68.779276 
L 1100.952813 68.551939 
" clip-path="url(#pab22a3afc1)" style="fill: none; stroke: #008000; stroke-width: 2; stroke-linecap: square"/>
   </g>
   <g id="line2d_74">
    <path d="M 644.752812 344.174437 
L 649.360893 345.654624 
L 653.968974 346.249318 
L 658.577055 344.526354 
L 663.185136 343.259745 
L 667.793217 342.841697 
L 672.401297 341.253299 
L 677.009378 341.253661 
L 681.617459 337.321235 
L 686.22554 335.359674 
L 690.833621 334.403538 
L 695.441701 333.909573 
L 700.049782 333.033757 
L 704.657863 332.342424 
L 709.265944 329.736892 
L 713.874025 321.235532 
L 718.482105 320.803994 
L 723.090186 317.844724 
L 727.698267 313.680889 
L 732.306348 314.071297 
L 736.914429 311.707372 
L 741.522509 304.828975 
L 746.13059 290.233559 
L 750.738671 290.71505 
L 755.346752 279.120429 
L 759.954833 280.691699 
L 764.562914 269.601238 
L 769.170994 271.729901 
L 773.779075 259.3405 
L 778.387156 256.205492 
L 782.995237 252.790761 
L 787.603318 249.286884 
L 792.211398 245.450905 
L 796.819479 242.562945 
L 801.42756 236.518366 
L 806.035641 231.905862 
L 810.643722 231.123109 
L 815.251802 227.500894 
L 819.859883 226.798969 
L 824.467964 224.133752 
L 829.076045 225.40062 
L 833.684126 222.740513 
L 838.292206 216.929433 
L 842.900287 214.668826 
L 847.508368 214.962937 
L 852.116449 213.35733 
L 856.72453 211.287825 
L 861.33261 207.050194 
L 865.940691 211.186217 
L 870.548772 207.75933 
L 875.156853 202.368319 
L 879.764934 205.983842 
L 884.373015 202.355796 
L 888.981095 201.551344 
L 893.589176 189.814018 
L 898.197257 191.425728 
L 902.805338 189.764663 
L 907.413419 194.45524 
L 912.021499 190.727085 
L 916.62958 195.563603 
L 921.237661 194.201231 
L 925.845742 195.659854 
L 930.453823 195.24097 
L 935.061903 197.554156 
L 939.669984 197.261797 
L 944.278065 194.505965 
L 948.886146 190.228747 
L 953.494227 189.280602 
L 958.102307 189.624579 
L 962.710388 189.967449 
L 967.318469 189.553945 
L 971.92655 190.236916 
L 976.534631 190.081677 
L 981.142711 186.132644 
L 985.750792 181.414143 
L 990.358873 178.790202 
L 994.966954 180.47144 
L 999.575035 182.066518 
L 1004.183116 182.350079 
L 1008.791196 179.416115 
L 1013.399277 192.28037 
L 1018.007358 189.153209 
L 1022.615439 191.15682 
L 1027.22352 189.407768 
L 1031.8316 185.337458 
L 1036.439681 183.946209 
L 1041.047762 177.427614 
L 1045.655843 167.325826 
L 1050.263924 167.403612 
L 1054.872004 161.898796 
L 1059.480085 165.465583 
L 1064.088166 161.344282 
L 1068.696247 160.277704 
L 1073.304328 157.383972 
L 1077.912408 149.082496 
L 1082.520489 152.463209 
L 1087.12857 143.149727 
L 1091.736651 147.826929 
L 1096.344732 144.886274 
L 1100.952813 143.446993 
" clip-path="url(#pab22a3afc1)" style="fill: none; stroke: #ff00ff; stroke-width: 2; stroke-linecap: square"/>
   </g>
   <g id="line2d_75">
    <path d="M 644.752812 336.078901 
L 649.360893 330.335947 
L 653.968974 320.896389 
L 658.577055 309.921896 
L 663.185136 294.244484 
L 667.793217 276.196942 
L 672.401297 259.355546 
L 677.009378 240.733274 
L 681.617459 220.498775 
L 686.22554 202.49643 
L 690.833621 185.268739 
L 695.441701 170.4625 
L 700.049782 159.436414 
L 704.657863 148.658053 
L 709.265944 139.097659 
L 713.874025 131.377658 
L 718.482105 125.864812 
L 723.090186 121.040496 
L 727.698267 115.958107 
L 732.306348 111.609582 
L 736.914429 108.716235 
L 741.522509 105.618962 
L 746.13059 103.289723 
L 750.738671 101.56823 
L 755.346752 99.569136 
L 759.954833 98.044845 
L 764.562914 96.955026 
L 769.170994 95.831124 
L 773.779075 94.62124 
L 778.387156 93.513914 
L 782.995237 92.552198 
L 787.603318 91.640938 
L 792.211398 90.967342 
L 796.819479 90.294913 
L 801.42756 89.781415 
L 806.035641 89.194521 
L 810.643722 88.534426 
L 815.251802 87.922476 
L 819.859883 87.249638 
L 824.467964 86.7635 
L 829.076045 86.273979 
L 833.684126 85.715287 
L 838.292206 85.258821 
L 842.900287 84.610639 
L 847.508368 84.067465 
L 852.116449 83.801723 
L 856.72453 83.45905 
L 861.33261 83.141952 
L 865.940691 82.856688 
L 870.548772 82.492243 
L 875.156853 81.974834 
L 879.764934 81.517036 
L 884.373015 80.786451 
L 888.981095 79.748397 
L 893.589176 79.308774 
L 898.197257 78.911054 
L 902.805338 78.579806 
L 907.413419 78.227682 
L 912.021499 77.752002 
L 916.62958 77.396261 
L 921.237661 77.084468 
L 925.845742 76.518437 
L 930.453823 76.165746 
L 935.061903 75.846535 
L 939.669984 75.610781 
L 944.278065 75.376018 
L 948.886146 75.162918 
L 953.494227 74.836009 
L 958.102307 74.547676 
L 962.710388 74.197669 
L 967.318469 73.927364 
L 971.92655 73.72106 
L 976.534631 73.537487 
L 981.142711 73.296211 
L 985.750792 72.979341 
L 990.358873 72.720486 
L 994.966954 72.472283 
L 999.575035 72.200266 
L 1004.183116 71.943662 
L 1008.791196 71.619349 
L 1013.399277 71.466407 
L 1018.007358 71.309261 
L 1022.615439 71.004537 
L 1027.22352 70.733448 
L 1031.8316 70.569504 
L 1036.439681 70.476816 
L 1041.047762 70.338289 
L 1045.655843 70.332147 
L 1050.263924 70.328719 
L 1054.872004 70.209935 
L 1059.480085 70.004802 
L 1064.088166 69.812014 
L 1068.696247 69.575734 
L 1073.304328 69.313197 
L 1077.912408 69.075557 
L 1082.520489 68.845104 
L 1087.12857 68.61408 
L 1091.736651 68.336765 
L 1096.344732 68.042272 
L 1100.952813 67.826021 
" clip-path="url(#pab22a3afc1)" style="fill: none; stroke: #ffa500; stroke-width: 2; stroke-linecap: square"/>
   </g>
   <g id="line2d_76">
    <path d="M 644.752812 280.076925 
L 649.360893 243.298504 
L 653.968974 207.454278 
L 658.577055 165.59456 
L 663.185136 134.805474 
L 667.793217 105.274487 
L 672.401297 86.596979 
L 677.009378 69.731208 
L 681.617459 56.990522 
L 686.22554 50.325324 
L 690.833621 46.89408 
L 695.441701 45.370749 
L 700.049782 44.423764 
L 704.657863 43.419904 
L 709.265944 43.07373 
L 713.874025 42.695379 
L 718.482105 42.371969 
L 723.090186 42.294669 
L 727.698267 42.286979 
L 732.306348 42.289891 
L 736.914429 42.295717 
L 741.522509 42.295717 
L 746.13059 42.295717 
L 750.738671 42.295717 
L 755.346752 42.295717 
L 759.954833 42.295717 
L 764.562914 42.295717 
L 769.170994 42.295717 
L 773.779075 42.295717 
L 778.387156 42.295717 
L 782.995237 42.295717 
L 787.603318 42.295717 
L 792.211398 42.295717 
L 796.819479 42.295717 
L 801.42756 42.301205 
L 806.035641 42.304863 
L 810.643722 42.306693 
L 815.251802 42.303034 
L 819.859883 42.303034 
L 824.467964 42.312181 
L 829.076045 42.31584 
L 833.684126 42.31584 
L 838.292206 42.310351 
L 842.900287 42.301205 
L 847.508368 42.301205 
L 852.116449 42.301205 
L 856.72453 42.297546 
L 861.33261 42.295717 
L 865.940691 42.295717 
L 870.548772 42.295717 
L 875.156853 42.295717 
L 879.764934 42.295717 
L 884.373015 42.299375 
L 888.981095 42.303034 
L 893.589176 42.310351 
L 898.197257 42.31584 
L 902.805338 42.321328 
L 907.413419 42.31584 
L 912.021499 42.303034 
L 916.62958 42.303034 
L 921.237661 42.301205 
L 925.845742 42.303034 
L 930.453823 42.303034 
L 935.061903 42.303034 
L 939.669984 42.308522 
L 944.278065 42.31584 
L 948.886146 42.321328 
L 953.494227 42.324987 
L 958.102307 42.324987 
L 962.710388 42.328646 
L 967.318469 42.335965 
L 971.92655 42.343284 
L 976.534631 42.356466 
L 981.142711 42.356839 
L 985.750792 42.354636 
L 990.358873 42.346943 
L 994.966954 42.350976 
L 999.575035 42.358669 
L 1004.183116 42.363785 
L 1008.791196 42.365615 
L 1013.399277 42.367445 
L 1018.007358 42.367445 
L 1022.615439 42.363412 
L 1027.22352 42.365241 
L 1031.8316 42.365989 
L 1036.439681 42.369649 
L 1041.047762 42.376969 
L 1045.655843 42.384663 
L 1050.263924 42.391276 
L 1054.872004 42.384407 
L 1059.480085 42.398382 
L 1064.088166 42.423346 
L 1068.696247 42.398479 
L 1073.304328 42.376606 
L 1077.912408 42.352373 
L 1082.520489 42.392505 
L 1087.12857 42.361761 
L 1091.736651 42.333395 
L 1096.344732 42.318468 
L 1100.952813 42.285682 
" clip-path="url(#pab22a3afc1)" style="fill: none; stroke: #ff0000; stroke-width: 2; stroke-linecap: square"/>
   </g>
   <g id="patch_9">
    <path d="M 621.942812 361.4475 
L 621.942812 27.0875 
" style="fill: none; stroke: #000000; stroke-width: 0.8; stroke-linejoin: miter; stroke-linecap: square"/>
   </g>
   <g id="patch_10">
    <path d="M 1123.762813 361.4475 
L 1123.762813 27.0875 
" style="fill: none; stroke: #000000; stroke-width: 0.8; stroke-linejoin: miter; stroke-linecap: square"/>
   </g>
   <g id="patch_11">
    <path d="M 621.942812 361.4475 
L 1123.762813 361.4475 
" style="fill: none; stroke: #000000; stroke-width: 0.8; stroke-linejoin: miter; stroke-linecap: square"/>
   </g>
   <g id="patch_12">
    <path d="M 621.942812 27.0875 
L 1123.762813 27.0875 
" style="fill: none; stroke: #000000; stroke-width: 0.8; stroke-linejoin: miter; stroke-linecap: square"/>
   </g>
   <g id="text_41">
    <!-- F1 Score - OPP -->
    <g transform="translate(810.349688 21.0875) scale(0.2 -0.2)">
     <use xlink:href="#TimesNewRomanPSMT-46"/>
     <use xlink:href="#TimesNewRomanPSMT-31" x="55.615234"/>
     <use xlink:href="#TimesNewRomanPSMT-20" x="105.615234"/>
     <use xlink:href="#TimesNewRomanPSMT-53" x="130.615234"/>
     <use xlink:href="#TimesNewRomanPSMT-63" x="186.230469"/>
     <use xlink:href="#TimesNewRomanPSMT-6f" x="230.615234"/>
     <use xlink:href="#TimesNewRomanPSMT-72" x="280.615234"/>
     <use xlink:href="#TimesNewRomanPSMT-65" x="313.916016"/>
     <use xlink:href="#TimesNewRomanPSMT-20" x="358.300781"/>
     <use xlink:href="#TimesNewRomanPSMT-2d" x="383.300781"/>
     <use xlink:href="#TimesNewRomanPSMT-20" x="416.601562"/>
     <use xlink:href="#TimesNewRomanPSMT-4f" x="441.601562"/>
     <use xlink:href="#TimesNewRomanPSMT-50" x="513.818359"/>
     <use xlink:href="#TimesNewRomanPSMT-50" x="569.433594"/>
    </g>
   </g>
   <g id="legend_2">
    <g id="patch_13">
     <path d="M 975.569375 352.4475 
L 1111.162813 352.4475 
Q 1114.762813 352.4475 1114.762813 348.8475 
L 1114.762813 197.878125 
Q 1114.762813 194.278125 1111.162813 194.278125 
L 975.569375 194.278125 
Q 971.969375 194.278125 971.969375 197.878125 
L 971.969375 348.8475 
Q 971.969375 352.4475 975.569375 352.4475 
z
" style="fill: #ffffff; opacity: 0.8; stroke: #cccccc; stroke-linejoin: miter"/>
    </g>
    <g id="line2d_77">
     <path d="M 979.169375 207.778125 
L 997.169375 207.778125 
L 1015.169375 207.778125 
" style="fill: none; stroke: #808080; stroke-width: 2; stroke-linecap: square"/>
    </g>
    <g id="text_42">
     <!-- Single -->
     <g transform="translate(1029.569375 214.078125) scale(0.18 -0.18)">
      <use xlink:href="#TimesNewRomanPSMT-53"/>
      <use xlink:href="#TimesNewRomanPSMT-69" x="55.615234"/>
      <use xlink:href="#TimesNewRomanPSMT-6e" x="83.398438"/>
      <use xlink:href="#TimesNewRomanPSMT-67" x="133.398438"/>
      <use xlink:href="#TimesNewRomanPSMT-6c" x="183.398438"/>
      <use xlink:href="#TimesNewRomanPSMT-65" x="211.181641"/>
     </g>
    </g>
    <g id="line2d_78">
     <path d="M 979.169375 233.262188 
L 997.169375 233.262188 
L 1015.169375 233.262188 
" style="fill: none; stroke: #0000ff; stroke-width: 2; stroke-linecap: square"/>
    </g>
    <g id="text_43">
     <!-- FedAvg -->
     <g transform="translate(1029.569375 239.562188) scale(0.18 -0.18)">
      <use xlink:href="#TimesNewRomanPSMT-46"/>
      <use xlink:href="#TimesNewRomanPSMT-65" x="55.615234"/>
      <use xlink:href="#TimesNewRomanPSMT-64" x="100"/>
      <use xlink:href="#TimesNewRomanPSMT-41" x="150"/>
      <use xlink:href="#TimesNewRomanPSMT-76" x="214.841797"/>
      <use xlink:href="#TimesNewRomanPSMT-67" x="264.841797"/>
     </g>
    </g>
    <g id="line2d_79">
     <path d="M 979.169375 258.74625 
L 997.169375 258.74625 
L 1015.169375 258.74625 
" style="fill: none; stroke: #008000; stroke-width: 2; stroke-linecap: square"/>
    </g>
    <g id="text_44">
     <!-- FedProto -->
     <g transform="translate(1029.569375 265.04625) scale(0.18 -0.18)">
      <use xlink:href="#TimesNewRomanPSMT-46"/>
      <use xlink:href="#TimesNewRomanPSMT-65" x="55.615234"/>
      <use xlink:href="#TimesNewRomanPSMT-64" x="100"/>
      <use xlink:href="#TimesNewRomanPSMT-50" x="150"/>
      <use xlink:href="#TimesNewRomanPSMT-72" x="205.615234"/>
      <use xlink:href="#TimesNewRomanPSMT-6f" x="238.916016"/>
      <use xlink:href="#TimesNewRomanPSMT-74" x="288.916016"/>
      <use xlink:href="#TimesNewRomanPSMT-6f" x="316.699219"/>
     </g>
    </g>
    <g id="line2d_80">
     <path d="M 979.169375 284.196563 
L 997.169375 284.196563 
L 1015.169375 284.196563 
" style="fill: none; stroke: #ff00ff; stroke-width: 2; stroke-linecap: square"/>
    </g>
    <g id="text_45">
     <!-- FedDTG -->
     <g transform="translate(1029.569375 290.496563) scale(0.18 -0.18)">
      <use xlink:href="#TimesNewRomanPSMT-46"/>
      <use xlink:href="#TimesNewRomanPSMT-65" x="55.615234"/>
      <use xlink:href="#TimesNewRomanPSMT-64" x="100"/>
      <use xlink:href="#TimesNewRomanPSMT-44" x="150"/>
      <use xlink:href="#TimesNewRomanPSMT-54" x="222.216797"/>
      <use xlink:href="#TimesNewRomanPSMT-47" x="283.300781"/>
     </g>
    </g>
    <g id="line2d_81">
     <path d="M 979.169375 309.646875 
L 997.169375 309.646875 
L 1015.169375 309.646875 
" style="fill: none; stroke: #ffa500; stroke-width: 2; stroke-linecap: square"/>
    </g>
    <g id="text_46">
     <!-- FedMEKT -->
     <g transform="translate(1029.569375 315.946875) scale(0.18 -0.18)">
      <use xlink:href="#TimesNewRomanPSMT-46"/>
      <use xlink:href="#TimesNewRomanPSMT-65" x="55.615234"/>
      <use xlink:href="#TimesNewRomanPSMT-64" x="100"/>
      <use xlink:href="#TimesNewRomanPSMT-4d" x="150"/>
      <use xlink:href="#TimesNewRomanPSMT-45" x="238.916016"/>
      <use xlink:href="#TimesNewRomanPSMT-4b" x="300"/>
      <use xlink:href="#TimesNewRomanPSMT-54" x="372.216797"/>
     </g>
    </g>
    <g id="line2d_82">
     <path d="M 979.169375 335.097188 
L 997.169375 335.097188 
L 1015.169375 335.097188 
" style="fill: none; stroke: #ff0000; stroke-width: 2; stroke-linecap: square"/>
    </g>
    <g id="text_47">
     <!-- FedBiKD -->
     <g transform="translate(1029.569375 341.397188) scale(0.18 -0.18)">
      <use xlink:href="#TimesNewRomanPSMT-46"/>
      <use xlink:href="#TimesNewRomanPSMT-65" x="55.615234"/>
      <use xlink:href="#TimesNewRomanPSMT-64" x="100"/>
      <use xlink:href="#TimesNewRomanPSMT-42" x="150"/>
      <use xlink:href="#TimesNewRomanPSMT-69" x="216.699219"/>
      <use xlink:href="#TimesNewRomanPSMT-4b" x="244.482422"/>
      <use xlink:href="#TimesNewRomanPSMT-44" x="316.699219"/>
     </g>
    </g>
   </g>
  </g>
 </g>
 <defs>
  <clipPath id="p0b5f0236d3">
   <rect x="54.582813" y="27.0875" width="501.82" height="334.36"/>
  </clipPath>
  <clipPath id="pab22a3afc1">
   <rect x="621.942812" y="27.0875" width="501.82" height="334.36"/>
  </clipPath>
 </defs>
</svg>
