<?xml version="1.0" encoding="utf-8" standalone="no"?>
<!DOCTYPE svg PUBLIC "-//W3C//DTD SVG 1.1//EN"
  "http://www.w3.org/Graphics/SVG/1.1/DTD/svg11.dtd">
<svg xmlns:xlink="http://www.w3.org/1999/xlink" width="1144.37125pt" height="424.474375pt" viewBox="0 0 1144.37125 424.474375" xmlns="http://www.w3.org/2000/svg" version="1.1">
 <metadata>
  <rdf:RDF xmlns:dc="http://purl.org/dc/elements/1.1/" xmlns:cc="http://creativecommons.org/ns#" xmlns:rdf="http://www.w3.org/1999/02/22-rdf-syntax-ns#">
   <cc:Work>
    <dc:type rdf:resource="http://purl.org/dc/dcmitype/StillImage"/>
    <dc:date>2025-12-24T17:34:02.110550</dc:date>
    <dc:format>image/svg+xml</dc:format>
    <dc:creator>
     <cc:Agent>
      <dc:title>Matplotlib v3.7.1, https://matplotlib.org/</dc:title>
     </cc:Agent>
    </dc:creator>
   </cc:Work>
  </rdf:RDF>
 </metadata>
 <defs>
  <style type="text/css">*{stroke-linejoin: round; stroke-linecap: butt}</style>
 </defs>
 <g id="figure_1">
  <g id="patch_1">
   <path d="M 0 424.474375 
L 1144.37125 424.474375 
L 1144.37125 0 
L 0 0 
z
" style="fill: #ffffff"/>
  </g>
  <g id="axes_1">
   <g id="patch_2">
    <path d="M 43.78125 386.918125 
L 566.57125 386.918125 
L 566.57125 22.318125 
L 43.78125 22.318125 
z
" style="fill: #ffffff"/>
   </g>
   <g id="matplotlib.axis_1">
    <g id="xtick_1">
     <g id="line2d_1">
      <path d="M 62.743789 386.918125 
L 62.743789 22.318125 
" clip-path="url(#p80b6523edf)" style="fill: none; stroke: #b0b0b0; stroke-opacity: 0.3; stroke-width: 0.8; stroke-linecap: square"/>
     </g>
     <g id="line2d_2">
      <defs>
       <path id="mcb3b91dd87" d="M 0 0 
L 0 3.5 
" style="stroke: #000000; stroke-width: 0.8"/>
      </defs>
      <g>
       <use xlink:href="#mcb3b91dd87" x="62.743789" y="386.918125" style="stroke: #000000; stroke-width: 0.8"/>
      </g>
     </g>
     <g id="text_1">
      <!-- 0 -->
      <g transform="translate(59.562539 401.516562) scale(0.1 -0.1)">
       <defs>
        <path id="DejaVuSans-30" d="M 2034 4250 
Q 1547 4250 1301 3770 
Q 1056 3291 1056 2328 
Q 1056 1369 1301 889 
Q 1547 409 2034 409 
Q 2525 409 2770 889 
Q 3016 1369 3016 2328 
Q 3016 3291 2770 3770 
Q 2525 4250 2034 4250 
z
M 2034 4750 
Q 2819 4750 3233 4129 
Q 3647 3509 3647 2328 
Q 3647 1150 3233 529 
Q 2819 -91 2034 -91 
Q 1250 -91 836 529 
Q 422 1150 422 2328 
Q 422 3509 836 4129 
Q 1250 4750 2034 4750 
z
" transform="scale(0.015625)"/>
       </defs>
       <use xlink:href="#DejaVuSans-30"/>
      </g>
     </g>
    </g>
    <g id="xtick_2">
     <g id="line2d_3">
      <path d="M 158.756645 386.918125 
L 158.756645 22.318125 
" clip-path="url(#p80b6523edf)" style="fill: none; stroke: #b0b0b0; stroke-opacity: 0.3; stroke-width: 0.8; stroke-linecap: square"/>
     </g>
     <g id="line2d_4">
      <g>
       <use xlink:href="#mcb3b91dd87" x="158.756645" y="386.918125" style="stroke: #000000; stroke-width: 0.8"/>
      </g>
     </g>
     <g id="text_2">
      <!-- 20 -->
      <g transform="translate(152.394145 401.516562) scale(0.1 -0.1)">
       <defs>
        <path id="DejaVuSans-32" d="M 1228 531 
L 3431 531 
L 3431 0 
L 469 0 
L 469 531 
Q 828 903 1448 1529 
Q 2069 2156 2228 2338 
Q 2531 2678 2651 2914 
Q 2772 3150 2772 3378 
Q 2772 3750 2511 3984 
Q 2250 4219 1831 4219 
Q 1534 4219 1204 4116 
Q 875 4013 500 3803 
L 500 4441 
Q 881 4594 1212 4672 
Q 1544 4750 1819 4750 
Q 2544 4750 2975 4387 
Q 3406 4025 3406 3419 
Q 3406 3131 3298 2873 
Q 3191 2616 2906 2266 
Q 2828 2175 2409 1742 
Q 1991 1309 1228 531 
z
" transform="scale(0.015625)"/>
       </defs>
       <use xlink:href="#DejaVuSans-32"/>
       <use xlink:href="#DejaVuSans-30" x="63.623047"/>
      </g>
     </g>
    </g>
    <g id="xtick_3">
     <g id="line2d_5">
      <path d="M 254.769501 386.918125 
L 254.769501 22.318125 
" clip-path="url(#p80b6523edf)" style="fill: none; stroke: #b0b0b0; stroke-opacity: 0.3; stroke-width: 0.8; stroke-linecap: square"/>
     </g>
     <g id="line2d_6">
      <g>
       <use xlink:href="#mcb3b91dd87" x="254.769501" y="386.918125" style="stroke: #000000; stroke-width: 0.8"/>
      </g>
     </g>
     <g id="text_3">
      <!-- 40 -->
      <g transform="translate(248.407001 401.516562) scale(0.1 -0.1)">
       <defs>
        <path id="DejaVuSans-34" d="M 2419 4116 
L 825 1625 
L 2419 1625 
L 2419 4116 
z
M 2253 4666 
L 3047 4666 
L 3047 1625 
L 3713 1625 
L 3713 1100 
L 3047 1100 
L 3047 0 
L 2419 0 
L 2419 1100 
L 313 1100 
L 313 1709 
L 2253 4666 
z
" transform="scale(0.015625)"/>
       </defs>
       <use xlink:href="#DejaVuSans-34"/>
       <use xlink:href="#DejaVuSans-30" x="63.623047"/>
      </g>
     </g>
    </g>
    <g id="xtick_4">
     <g id="line2d_7">
      <path d="M 350.782357 386.918125 
L 350.782357 22.318125 
" clip-path="url(#p80b6523edf)" style="fill: none; stroke: #b0b0b0; stroke-opacity: 0.3; stroke-width: 0.8; stroke-linecap: square"/>
     </g>
     <g id="line2d_8">
      <g>
       <use xlink:href="#mcb3b91dd87" x="350.782357" y="386.918125" style="stroke: #000000; stroke-width: 0.8"/>
      </g>
     </g>
     <g id="text_4">
      <!-- 60 -->
      <g transform="translate(344.419857 401.516562) scale(0.1 -0.1)">
       <defs>
        <path id="DejaVuSans-36" d="M 2113 2584 
Q 1688 2584 1439 2293 
Q 1191 2003 1191 1497 
Q 1191 994 1439 701 
Q 1688 409 2113 409 
Q 2538 409 2786 701 
Q 3034 994 3034 1497 
Q 3034 2003 2786 2293 
Q 2538 2584 2113 2584 
z
M 3366 4563 
L 3366 3988 
Q 3128 4100 2886 4159 
Q 2644 4219 2406 4219 
Q 1781 4219 1451 3797 
Q 1122 3375 1075 2522 
Q 1259 2794 1537 2939 
Q 1816 3084 2150 3084 
Q 2853 3084 3261 2657 
Q 3669 2231 3669 1497 
Q 3669 778 3244 343 
Q 2819 -91 2113 -91 
Q 1303 -91 875 529 
Q 447 1150 447 2328 
Q 447 3434 972 4092 
Q 1497 4750 2381 4750 
Q 2619 4750 2861 4703 
Q 3103 4656 3366 4563 
z
" transform="scale(0.015625)"/>
       </defs>
       <use xlink:href="#DejaVuSans-36"/>
       <use xlink:href="#DejaVuSans-30" x="63.623047"/>
      </g>
     </g>
    </g>
    <g id="xtick_5">
     <g id="line2d_9">
      <path d="M 446.795212 386.918125 
L 446.795212 22.318125 
" clip-path="url(#p80b6523edf)" style="fill: none; stroke: #b0b0b0; stroke-opacity: 0.3; stroke-width: 0.8; stroke-linecap: square"/>
     </g>
     <g id="line2d_10">
      <g>
       <use xlink:href="#mcb3b91dd87" x="446.795212" y="386.918125" style="stroke: #000000; stroke-width: 0.8"/>
      </g>
     </g>
     <g id="text_5">
      <!-- 80 -->
      <g transform="translate(440.432712 401.516562) scale(0.1 -0.1)">
       <defs>
        <path id="DejaVuSans-38" d="M 2034 2216 
Q 1584 2216 1326 1975 
Q 1069 1734 1069 1313 
Q 1069 891 1326 650 
Q 1584 409 2034 409 
Q 2484 409 2743 651 
Q 3003 894 3003 1313 
Q 3003 1734 2745 1975 
Q 2488 2216 2034 2216 
z
M 1403 2484 
Q 997 2584 770 2862 
Q 544 3141 544 3541 
Q 544 4100 942 4425 
Q 1341 4750 2034 4750 
Q 2731 4750 3128 4425 
Q 3525 4100 3525 3541 
Q 3525 3141 3298 2862 
Q 3072 2584 2669 2484 
Q 3125 2378 3379 2068 
Q 3634 1759 3634 1313 
Q 3634 634 3220 271 
Q 2806 -91 2034 -91 
Q 1263 -91 848 271 
Q 434 634 434 1313 
Q 434 1759 690 2068 
Q 947 2378 1403 2484 
z
M 1172 3481 
Q 1172 3119 1398 2916 
Q 1625 2713 2034 2713 
Q 2441 2713 2670 2916 
Q 2900 3119 2900 3481 
Q 2900 3844 2670 4047 
Q 2441 4250 2034 4250 
Q 1625 4250 1398 4047 
Q 1172 3844 1172 3481 
z
" transform="scale(0.015625)"/>
       </defs>
       <use xlink:href="#DejaVuSans-38"/>
       <use xlink:href="#DejaVuSans-30" x="63.623047"/>
      </g>
     </g>
    </g>
    <g id="xtick_6">
     <g id="line2d_11">
      <path d="M 542.808068 386.918125 
L 542.808068 22.318125 
" clip-path="url(#p80b6523edf)" style="fill: none; stroke: #b0b0b0; stroke-opacity: 0.3; stroke-width: 0.8; stroke-linecap: square"/>
     </g>
     <g id="line2d_12">
      <g>
       <use xlink:href="#mcb3b91dd87" x="542.808068" y="386.918125" style="stroke: #000000; stroke-width: 0.8"/>
      </g>
     </g>
     <g id="text_6">
      <!-- 100 -->
      <g transform="translate(533.264318 401.516562) scale(0.1 -0.1)">
       <defs>
        <path id="DejaVuSans-31" d="M 794 531 
L 1825 531 
L 1825 4091 
L 703 3866 
L 703 4441 
L 1819 4666 
L 2450 4666 
L 2450 531 
L 3481 531 
L 3481 0 
L 794 0 
L 794 531 
z
" transform="scale(0.015625)"/>
       </defs>
       <use xlink:href="#DejaVuSans-31"/>
       <use xlink:href="#DejaVuSans-30" x="63.623047"/>
       <use xlink:href="#DejaVuSans-30" x="127.246094"/>
      </g>
     </g>
    </g>
    <g id="text_7">
     <!-- Communication Rounds -->
     <g transform="translate(245.753594 415.194687) scale(0.1 -0.1)">
      <defs>
       <path id="DejaVuSans-43" d="M 4122 4306 
L 4122 3641 
Q 3803 3938 3442 4084 
Q 3081 4231 2675 4231 
Q 1875 4231 1450 3742 
Q 1025 3253 1025 2328 
Q 1025 1406 1450 917 
Q 1875 428 2675 428 
Q 3081 428 3442 575 
Q 3803 722 4122 1019 
L 4122 359 
Q 3791 134 3420 21 
Q 3050 -91 2638 -91 
Q 1578 -91 968 557 
Q 359 1206 359 2328 
Q 359 3453 968 4101 
Q 1578 4750 2638 4750 
Q 3056 4750 3426 4639 
Q 3797 4528 4122 4306 
z
" transform="scale(0.015625)"/>
       <path id="DejaVuSans-6f" d="M 1959 3097 
Q 1497 3097 1228 2736 
Q 959 2375 959 1747 
Q 959 1119 1226 758 
Q 1494 397 1959 397 
Q 2419 397 2687 759 
Q 2956 1122 2956 1747 
Q 2956 2369 2687 2733 
Q 2419 3097 1959 3097 
z
M 1959 3584 
Q 2709 3584 3137 3096 
Q 3566 2609 3566 1747 
Q 3566 888 3137 398 
Q 2709 -91 1959 -91 
Q 1206 -91 779 398 
Q 353 888 353 1747 
Q 353 2609 779 3096 
Q 1206 3584 1959 3584 
z
" transform="scale(0.015625)"/>
       <path id="DejaVuSans-6d" d="M 3328 2828 
Q 3544 3216 3844 3400 
Q 4144 3584 4550 3584 
Q 5097 3584 5394 3201 
Q 5691 2819 5691 2113 
L 5691 0 
L 5113 0 
L 5113 2094 
Q 5113 2597 4934 2840 
Q 4756 3084 4391 3084 
Q 3944 3084 3684 2787 
Q 3425 2491 3425 1978 
L 3425 0 
L 2847 0 
L 2847 2094 
Q 2847 2600 2669 2842 
Q 2491 3084 2119 3084 
Q 1678 3084 1418 2786 
Q 1159 2488 1159 1978 
L 1159 0 
L 581 0 
L 581 3500 
L 1159 3500 
L 1159 2956 
Q 1356 3278 1631 3431 
Q 1906 3584 2284 3584 
Q 2666 3584 2933 3390 
Q 3200 3197 3328 2828 
z
" transform="scale(0.015625)"/>
       <path id="DejaVuSans-75" d="M 544 1381 
L 544 3500 
L 1119 3500 
L 1119 1403 
Q 1119 906 1312 657 
Q 1506 409 1894 409 
Q 2359 409 2629 706 
Q 2900 1003 2900 1516 
L 2900 3500 
L 3475 3500 
L 3475 0 
L 2900 0 
L 2900 538 
Q 2691 219 2414 64 
Q 2138 -91 1772 -91 
Q 1169 -91 856 284 
Q 544 659 544 1381 
z
M 1991 3584 
L 1991 3584 
z
" transform="scale(0.015625)"/>
       <path id="DejaVuSans-6e" d="M 3513 2113 
L 3513 0 
L 2938 0 
L 2938 2094 
Q 2938 2591 2744 2837 
Q 2550 3084 2163 3084 
Q 1697 3084 1428 2787 
Q 1159 2491 1159 1978 
L 1159 0 
L 581 0 
L 581 3500 
L 1159 3500 
L 1159 2956 
Q 1366 3272 1645 3428 
Q 1925 3584 2291 3584 
Q 2894 3584 3203 3211 
Q 3513 2838 3513 2113 
z
" transform="scale(0.015625)"/>
       <path id="DejaVuSans-69" d="M 603 3500 
L 1178 3500 
L 1178 0 
L 603 0 
L 603 3500 
z
M 603 4863 
L 1178 4863 
L 1178 4134 
L 603 4134 
L 603 4863 
z
" transform="scale(0.015625)"/>
       <path id="DejaVuSans-63" d="M 3122 3366 
L 3122 2828 
Q 2878 2963 2633 3030 
Q 2388 3097 2138 3097 
Q 1578 3097 1268 2742 
Q 959 2388 959 1747 
Q 959 1106 1268 751 
Q 1578 397 2138 397 
Q 2388 397 2633 464 
Q 2878 531 3122 666 
L 3122 134 
Q 2881 22 2623 -34 
Q 2366 -91 2075 -91 
Q 1284 -91 818 406 
Q 353 903 353 1747 
Q 353 2603 823 3093 
Q 1294 3584 2113 3584 
Q 2378 3584 2631 3529 
Q 2884 3475 3122 3366 
z
" transform="scale(0.015625)"/>
       <path id="DejaVuSans-61" d="M 2194 1759 
Q 1497 1759 1228 1600 
Q 959 1441 959 1056 
Q 959 750 1161 570 
Q 1363 391 1709 391 
Q 2188 391 2477 730 
Q 2766 1069 2766 1631 
L 2766 1759 
L 2194 1759 
z
M 3341 1997 
L 3341 0 
L 2766 0 
L 2766 531 
Q 2569 213 2275 61 
Q 1981 -91 1556 -91 
Q 1019 -91 701 211 
Q 384 513 384 1019 
Q 384 1609 779 1909 
Q 1175 2209 1959 2209 
L 2766 2209 
L 2766 2266 
Q 2766 2663 2505 2880 
Q 2244 3097 1772 3097 
Q 1472 3097 1187 3025 
Q 903 2953 641 2809 
L 641 3341 
Q 956 3463 1253 3523 
Q 1550 3584 1831 3584 
Q 2591 3584 2966 3190 
Q 3341 2797 3341 1997 
z
" transform="scale(0.015625)"/>
       <path id="DejaVuSans-74" d="M 1172 4494 
L 1172 3500 
L 2356 3500 
L 2356 3053 
L 1172 3053 
L 1172 1153 
Q 1172 725 1289 603 
Q 1406 481 1766 481 
L 2356 481 
L 2356 0 
L 1766 0 
Q 1100 0 847 248 
Q 594 497 594 1153 
L 594 3053 
L 172 3053 
L 172 3500 
L 594 3500 
L 594 4494 
L 1172 4494 
z
" transform="scale(0.015625)"/>
       <path id="DejaVuSans-20" transform="scale(0.015625)"/>
       <path id="DejaVuSans-52" d="M 2841 2188 
Q 3044 2119 3236 1894 
Q 3428 1669 3622 1275 
L 4263 0 
L 3584 0 
L 2988 1197 
Q 2756 1666 2539 1819 
Q 2322 1972 1947 1972 
L 1259 1972 
L 1259 0 
L 628 0 
L 628 4666 
L 2053 4666 
Q 2853 4666 3247 4331 
Q 3641 3997 3641 3322 
Q 3641 2881 3436 2590 
Q 3231 2300 2841 2188 
z
M 1259 4147 
L 1259 2491 
L 2053 2491 
Q 2509 2491 2742 2702 
Q 2975 2913 2975 3322 
Q 2975 3731 2742 3939 
Q 2509 4147 2053 4147 
L 1259 4147 
z
" transform="scale(0.015625)"/>
       <path id="DejaVuSans-64" d="M 2906 2969 
L 2906 4863 
L 3481 4863 
L 3481 0 
L 2906 0 
L 2906 525 
Q 2725 213 2448 61 
Q 2172 -91 1784 -91 
Q 1150 -91 751 415 
Q 353 922 353 1747 
Q 353 2572 751 3078 
Q 1150 3584 1784 3584 
Q 2172 3584 2448 3432 
Q 2725 3281 2906 2969 
z
M 947 1747 
Q 947 1113 1208 752 
Q 1469 391 1925 391 
Q 2381 391 2643 752 
Q 2906 1113 2906 1747 
Q 2906 2381 2643 2742 
Q 2381 3103 1925 3103 
Q 1469 3103 1208 2742 
Q 947 2381 947 1747 
z
" transform="scale(0.015625)"/>
       <path id="DejaVuSans-73" d="M 2834 3397 
L 2834 2853 
Q 2591 2978 2328 3040 
Q 2066 3103 1784 3103 
Q 1356 3103 1142 2972 
Q 928 2841 928 2578 
Q 928 2378 1081 2264 
Q 1234 2150 1697 2047 
L 1894 2003 
Q 2506 1872 2764 1633 
Q 3022 1394 3022 966 
Q 3022 478 2636 193 
Q 2250 -91 1575 -91 
Q 1294 -91 989 -36 
Q 684 19 347 128 
L 347 722 
Q 666 556 975 473 
Q 1284 391 1588 391 
Q 1994 391 2212 530 
Q 2431 669 2431 922 
Q 2431 1156 2273 1281 
Q 2116 1406 1581 1522 
L 1381 1569 
Q 847 1681 609 1914 
Q 372 2147 372 2553 
Q 372 3047 722 3315 
Q 1072 3584 1716 3584 
Q 2034 3584 2315 3537 
Q 2597 3491 2834 3397 
z
" transform="scale(0.015625)"/>
      </defs>
      <use xlink:href="#DejaVuSans-43"/>
      <use xlink:href="#DejaVuSans-6f" x="69.824219"/>
      <use xlink:href="#DejaVuSans-6d" x="131.005859"/>
      <use xlink:href="#DejaVuSans-6d" x="228.417969"/>
      <use xlink:href="#DejaVuSans-75" x="325.830078"/>
      <use xlink:href="#DejaVuSans-6e" x="389.208984"/>
      <use xlink:href="#DejaVuSans-69" x="452.587891"/>
      <use xlink:href="#DejaVuSans-63" x="480.371094"/>
      <use xlink:href="#DejaVuSans-61" x="535.351562"/>
      <use xlink:href="#DejaVuSans-74" x="596.630859"/>
      <use xlink:href="#DejaVuSans-69" x="635.839844"/>
      <use xlink:href="#DejaVuSans-6f" x="663.623047"/>
      <use xlink:href="#DejaVuSans-6e" x="724.804688"/>
      <use xlink:href="#DejaVuSans-20" x="788.183594"/>
      <use xlink:href="#DejaVuSans-52" x="819.970703"/>
      <use xlink:href="#DejaVuSans-6f" x="884.953125"/>
      <use xlink:href="#DejaVuSans-75" x="946.134766"/>
      <use xlink:href="#DejaVuSans-6e" x="1009.513672"/>
      <use xlink:href="#DejaVuSans-64" x="1072.892578"/>
      <use xlink:href="#DejaVuSans-73" x="1136.369141"/>
     </g>
    </g>
   </g>
   <g id="matplotlib.axis_2">
    <g id="ytick_1">
     <g id="line2d_13">
      <path d="M 43.78125 375.570976 
L 566.57125 375.570976 
" clip-path="url(#p80b6523edf)" style="fill: none; stroke: #b0b0b0; stroke-opacity: 0.3; stroke-width: 0.8; stroke-linecap: square"/>
     </g>
     <g id="line2d_14">
      <defs>
       <path id="meb529d478b" d="M 0 0 
L -3.5 0 
" style="stroke: #000000; stroke-width: 0.8"/>
      </defs>
      <g>
       <use xlink:href="#meb529d478b" x="43.78125" y="375.570976" style="stroke: #000000; stroke-width: 0.8"/>
      </g>
     </g>
     <g id="text_8">
      <!-- 0.0 -->
      <g transform="translate(20.878125 379.370195) scale(0.1 -0.1)">
       <defs>
        <path id="DejaVuSans-2e" d="M 684 794 
L 1344 794 
L 1344 0 
L 684 0 
L 684 794 
z
" transform="scale(0.015625)"/>
       </defs>
       <use xlink:href="#DejaVuSans-30"/>
       <use xlink:href="#DejaVuSans-2e" x="63.623047"/>
       <use xlink:href="#DejaVuSans-30" x="95.410156"/>
      </g>
     </g>
    </g>
    <g id="ytick_2">
     <g id="line2d_15">
      <path d="M 43.78125 333.280581 
L 566.57125 333.280581 
" clip-path="url(#p80b6523edf)" style="fill: none; stroke: #b0b0b0; stroke-opacity: 0.3; stroke-width: 0.8; stroke-linecap: square"/>
     </g>
     <g id="line2d_16">
      <g>
       <use xlink:href="#meb529d478b" x="43.78125" y="333.280581" style="stroke: #000000; stroke-width: 0.8"/>
      </g>
     </g>
     <g id="text_9">
      <!-- 0.1 -->
      <g transform="translate(20.878125 337.0798) scale(0.1 -0.1)">
       <use xlink:href="#DejaVuSans-30"/>
       <use xlink:href="#DejaVuSans-2e" x="63.623047"/>
       <use xlink:href="#DejaVuSans-31" x="95.410156"/>
      </g>
     </g>
    </g>
    <g id="ytick_3">
     <g id="line2d_17">
      <path d="M 43.78125 290.990185 
L 566.57125 290.990185 
" clip-path="url(#p80b6523edf)" style="fill: none; stroke: #b0b0b0; stroke-opacity: 0.3; stroke-width: 0.8; stroke-linecap: square"/>
     </g>
     <g id="line2d_18">
      <g>
       <use xlink:href="#meb529d478b" x="43.78125" y="290.990185" style="stroke: #000000; stroke-width: 0.8"/>
      </g>
     </g>
     <g id="text_10">
      <!-- 0.2 -->
      <g transform="translate(20.878125 294.789404) scale(0.1 -0.1)">
       <use xlink:href="#DejaVuSans-30"/>
       <use xlink:href="#DejaVuSans-2e" x="63.623047"/>
       <use xlink:href="#DejaVuSans-32" x="95.410156"/>
      </g>
     </g>
    </g>
    <g id="ytick_4">
     <g id="line2d_19">
      <path d="M 43.78125 248.69979 
L 566.57125 248.69979 
" clip-path="url(#p80b6523edf)" style="fill: none; stroke: #b0b0b0; stroke-opacity: 0.3; stroke-width: 0.8; stroke-linecap: square"/>
     </g>
     <g id="line2d_20">
      <g>
       <use xlink:href="#meb529d478b" x="43.78125" y="248.69979" style="stroke: #000000; stroke-width: 0.8"/>
      </g>
     </g>
     <g id="text_11">
      <!-- 0.3 -->
      <g transform="translate(20.878125 252.499009) scale(0.1 -0.1)">
       <defs>
        <path id="DejaVuSans-33" d="M 2597 2516 
Q 3050 2419 3304 2112 
Q 3559 1806 3559 1356 
Q 3559 666 3084 287 
Q 2609 -91 1734 -91 
Q 1441 -91 1130 -33 
Q 819 25 488 141 
L 488 750 
Q 750 597 1062 519 
Q 1375 441 1716 441 
Q 2309 441 2620 675 
Q 2931 909 2931 1356 
Q 2931 1769 2642 2001 
Q 2353 2234 1838 2234 
L 1294 2234 
L 1294 2753 
L 1863 2753 
Q 2328 2753 2575 2939 
Q 2822 3125 2822 3475 
Q 2822 3834 2567 4026 
Q 2313 4219 1838 4219 
Q 1578 4219 1281 4162 
Q 984 4106 628 3988 
L 628 4550 
Q 988 4650 1302 4700 
Q 1616 4750 1894 4750 
Q 2613 4750 3031 4423 
Q 3450 4097 3450 3541 
Q 3450 3153 3228 2886 
Q 3006 2619 2597 2516 
z
" transform="scale(0.015625)"/>
       </defs>
       <use xlink:href="#DejaVuSans-30"/>
       <use xlink:href="#DejaVuSans-2e" x="63.623047"/>
       <use xlink:href="#DejaVuSans-33" x="95.410156"/>
      </g>
     </g>
    </g>
    <g id="ytick_5">
     <g id="line2d_21">
      <path d="M 43.78125 206.409395 
L 566.57125 206.409395 
" clip-path="url(#p80b6523edf)" style="fill: none; stroke: #b0b0b0; stroke-opacity: 0.3; stroke-width: 0.8; stroke-linecap: square"/>
     </g>
     <g id="line2d_22">
      <g>
       <use xlink:href="#meb529d478b" x="43.78125" y="206.409395" style="stroke: #000000; stroke-width: 0.8"/>
      </g>
     </g>
     <g id="text_12">
      <!-- 0.4 -->
      <g transform="translate(20.878125 210.208613) scale(0.1 -0.1)">
       <use xlink:href="#DejaVuSans-30"/>
       <use xlink:href="#DejaVuSans-2e" x="63.623047"/>
       <use xlink:href="#DejaVuSans-34" x="95.410156"/>
      </g>
     </g>
    </g>
    <g id="ytick_6">
     <g id="line2d_23">
      <path d="M 43.78125 164.118999 
L 566.57125 164.118999 
" clip-path="url(#p80b6523edf)" style="fill: none; stroke: #b0b0b0; stroke-opacity: 0.3; stroke-width: 0.8; stroke-linecap: square"/>
     </g>
     <g id="line2d_24">
      <g>
       <use xlink:href="#meb529d478b" x="43.78125" y="164.118999" style="stroke: #000000; stroke-width: 0.8"/>
      </g>
     </g>
     <g id="text_13">
      <!-- 0.5 -->
      <g transform="translate(20.878125 167.918218) scale(0.1 -0.1)">
       <defs>
        <path id="DejaVuSans-35" d="M 691 4666 
L 3169 4666 
L 3169 4134 
L 1269 4134 
L 1269 2991 
Q 1406 3038 1543 3061 
Q 1681 3084 1819 3084 
Q 2600 3084 3056 2656 
Q 3513 2228 3513 1497 
Q 3513 744 3044 326 
Q 2575 -91 1722 -91 
Q 1428 -91 1123 -41 
Q 819 9 494 109 
L 494 744 
Q 775 591 1075 516 
Q 1375 441 1709 441 
Q 2250 441 2565 725 
Q 2881 1009 2881 1497 
Q 2881 1984 2565 2268 
Q 2250 2553 1709 2553 
Q 1456 2553 1204 2497 
Q 953 2441 691 2322 
L 691 4666 
z
" transform="scale(0.015625)"/>
       </defs>
       <use xlink:href="#DejaVuSans-30"/>
       <use xlink:href="#DejaVuSans-2e" x="63.623047"/>
       <use xlink:href="#DejaVuSans-35" x="95.410156"/>
      </g>
     </g>
    </g>
    <g id="ytick_7">
     <g id="line2d_25">
      <path d="M 43.78125 121.828604 
L 566.57125 121.828604 
" clip-path="url(#p80b6523edf)" style="fill: none; stroke: #b0b0b0; stroke-opacity: 0.3; stroke-width: 0.8; stroke-linecap: square"/>
     </g>
     <g id="line2d_26">
      <g>
       <use xlink:href="#meb529d478b" x="43.78125" y="121.828604" style="stroke: #000000; stroke-width: 0.8"/>
      </g>
     </g>
     <g id="text_14">
      <!-- 0.6 -->
      <g transform="translate(20.878125 125.627823) scale(0.1 -0.1)">
       <use xlink:href="#DejaVuSans-30"/>
       <use xlink:href="#DejaVuSans-2e" x="63.623047"/>
       <use xlink:href="#DejaVuSans-36" x="95.410156"/>
      </g>
     </g>
    </g>
    <g id="ytick_8">
     <g id="line2d_27">
      <path d="M 43.78125 79.538209 
L 566.57125 79.538209 
" clip-path="url(#p80b6523edf)" style="fill: none; stroke: #b0b0b0; stroke-opacity: 0.3; stroke-width: 0.8; stroke-linecap: square"/>
     </g>
     <g id="line2d_28">
      <g>
       <use xlink:href="#meb529d478b" x="43.78125" y="79.538209" style="stroke: #000000; stroke-width: 0.8"/>
      </g>
     </g>
     <g id="text_15">
      <!-- 0.7 -->
      <g transform="translate(20.878125 83.337427) scale(0.1 -0.1)">
       <defs>
        <path id="DejaVuSans-37" d="M 525 4666 
L 3525 4666 
L 3525 4397 
L 1831 0 
L 1172 0 
L 2766 4134 
L 525 4134 
L 525 4666 
z
" transform="scale(0.015625)"/>
       </defs>
       <use xlink:href="#DejaVuSans-30"/>
       <use xlink:href="#DejaVuSans-2e" x="63.623047"/>
       <use xlink:href="#DejaVuSans-37" x="95.410156"/>
      </g>
     </g>
    </g>
    <g id="ytick_9">
     <g id="line2d_29">
      <path d="M 43.78125 37.247813 
L 566.57125 37.247813 
" clip-path="url(#p80b6523edf)" style="fill: none; stroke: #b0b0b0; stroke-opacity: 0.3; stroke-width: 0.8; stroke-linecap: square"/>
     </g>
     <g id="line2d_30">
      <g>
       <use xlink:href="#meb529d478b" x="43.78125" y="37.247813" style="stroke: #000000; stroke-width: 0.8"/>
      </g>
     </g>
     <g id="text_16">
      <!-- 0.8 -->
      <g transform="translate(20.878125 41.047032) scale(0.1 -0.1)">
       <use xlink:href="#DejaVuSans-30"/>
       <use xlink:href="#DejaVuSans-2e" x="63.623047"/>
       <use xlink:href="#DejaVuSans-38" x="95.410156"/>
      </g>
     </g>
    </g>
    <g id="text_17">
     <!-- Global Accuracy -->
     <g transform="translate(14.798438 244.985312) rotate(-90) scale(0.1 -0.1)">
      <defs>
       <path id="DejaVuSans-47" d="M 3809 666 
L 3809 1919 
L 2778 1919 
L 2778 2438 
L 4434 2438 
L 4434 434 
Q 4069 175 3628 42 
Q 3188 -91 2688 -91 
Q 1594 -91 976 548 
Q 359 1188 359 2328 
Q 359 3472 976 4111 
Q 1594 4750 2688 4750 
Q 3144 4750 3555 4637 
Q 3966 4525 4313 4306 
L 4313 3634 
Q 3963 3931 3569 4081 
Q 3175 4231 2741 4231 
Q 1884 4231 1454 3753 
Q 1025 3275 1025 2328 
Q 1025 1384 1454 906 
Q 1884 428 2741 428 
Q 3075 428 3337 486 
Q 3600 544 3809 666 
z
" transform="scale(0.015625)"/>
       <path id="DejaVuSans-6c" d="M 603 4863 
L 1178 4863 
L 1178 0 
L 603 0 
L 603 4863 
z
" transform="scale(0.015625)"/>
       <path id="DejaVuSans-62" d="M 3116 1747 
Q 3116 2381 2855 2742 
Q 2594 3103 2138 3103 
Q 1681 3103 1420 2742 
Q 1159 2381 1159 1747 
Q 1159 1113 1420 752 
Q 1681 391 2138 391 
Q 2594 391 2855 752 
Q 3116 1113 3116 1747 
z
M 1159 2969 
Q 1341 3281 1617 3432 
Q 1894 3584 2278 3584 
Q 2916 3584 3314 3078 
Q 3713 2572 3713 1747 
Q 3713 922 3314 415 
Q 2916 -91 2278 -91 
Q 1894 -91 1617 61 
Q 1341 213 1159 525 
L 1159 0 
L 581 0 
L 581 4863 
L 1159 4863 
L 1159 2969 
z
" transform="scale(0.015625)"/>
       <path id="DejaVuSans-41" d="M 2188 4044 
L 1331 1722 
L 3047 1722 
L 2188 4044 
z
M 1831 4666 
L 2547 4666 
L 4325 0 
L 3669 0 
L 3244 1197 
L 1141 1197 
L 716 0 
L 50 0 
L 1831 4666 
z
" transform="scale(0.015625)"/>
       <path id="DejaVuSans-72" d="M 2631 2963 
Q 2534 3019 2420 3045 
Q 2306 3072 2169 3072 
Q 1681 3072 1420 2755 
Q 1159 2438 1159 1844 
L 1159 0 
L 581 0 
L 581 3500 
L 1159 3500 
L 1159 2956 
Q 1341 3275 1631 3429 
Q 1922 3584 2338 3584 
Q 2397 3584 2469 3576 
Q 2541 3569 2628 3553 
L 2631 2963 
z
" transform="scale(0.015625)"/>
       <path id="DejaVuSans-79" d="M 2059 -325 
Q 1816 -950 1584 -1140 
Q 1353 -1331 966 -1331 
L 506 -1331 
L 506 -850 
L 844 -850 
Q 1081 -850 1212 -737 
Q 1344 -625 1503 -206 
L 1606 56 
L 191 3500 
L 800 3500 
L 1894 763 
L 2988 3500 
L 3597 3500 
L 2059 -325 
z
" transform="scale(0.015625)"/>
      </defs>
      <use xlink:href="#DejaVuSans-47"/>
      <use xlink:href="#DejaVuSans-6c" x="77.490234"/>
      <use xlink:href="#DejaVuSans-6f" x="105.273438"/>
      <use xlink:href="#DejaVuSans-62" x="166.455078"/>
      <use xlink:href="#DejaVuSans-61" x="229.931641"/>
      <use xlink:href="#DejaVuSans-6c" x="291.210938"/>
      <use xlink:href="#DejaVuSans-20" x="318.994141"/>
      <use xlink:href="#DejaVuSans-41" x="350.78125"/>
      <use xlink:href="#DejaVuSans-63" x="417.439453"/>
      <use xlink:href="#DejaVuSans-63" x="472.419922"/>
      <use xlink:href="#DejaVuSans-75" x="527.400391"/>
      <use xlink:href="#DejaVuSans-72" x="590.779297"/>
      <use xlink:href="#DejaVuSans-61" x="631.892578"/>
      <use xlink:href="#DejaVuSans-63" x="693.171875"/>
      <use xlink:href="#DejaVuSans-79" x="748.152344"/>
     </g>
    </g>
   </g>
   <g id="line2d_31">
    <path d="M 67.544432 348.10365 
L 72.345075 341.806525 
L 77.145717 334.459283 
L 81.94636 326.690566 
L 86.747003 317.021638 
L 91.547646 304.638125 
L 96.348289 291.872426 
L 101.148931 278.245918 
L 105.949574 268.441261 
L 110.750217 258.082972 
L 115.55086 244.267157 
L 120.351503 231.690764 
L 125.152145 218.842914 
L 129.952788 208.670359 
L 134.753431 196.622597 
L 139.554074 185.199904 
L 144.354716 174.484432 
L 149.155359 161.447275 
L 153.956002 151.124704 
L 158.756645 142.012981 
L 163.557288 135.437253 
L 168.35793 127.829268 
L 173.158573 121.089236 
L 177.959216 114.92784 
L 182.759859 109.073621 
L 187.560502 102.644338 
L 192.361144 97.079436 
L 197.161787 92.275333 
L 201.96243 88.099871 
L 206.763073 84.953094 
L 211.563716 80.691908 
L 216.364358 77.105797 
L 221.165001 73.88044 
L 225.965644 70.076447 
L 230.766287 67.369004 
L 235.56693 65.100896 
L 240.367572 62.743492 
L 245.168215 61.36834 
L 249.968858 60.314652 
L 254.769501 59.121663 
L 259.570143 57.878668 
L 264.370786 56.789262 
L 269.171429 55.739146 
L 273.972072 54.706889 
L 278.772715 53.638913 
L 283.573357 52.642374 
L 288.374 51.781565 
L 293.174643 51.22436 
L 297.975286 50.574288 
L 302.775929 49.949219 
L 307.576571 49.352725 
L 312.377214 48.856241 
L 317.177857 48.324039 
L 321.9785 47.881133 
L 326.779143 47.359647 
L 331.579785 46.838161 
L 336.380428 46.32739 
L 341.181071 45.848765 
L 345.981714 45.391572 
L 350.782357 44.773646 
L 355.582999 43.819969 
L 360.383642 43.344917 
L 365.184285 43.052027 
L 369.984928 42.809143 
L 374.78557 42.623408 
L 379.586213 42.387668 
L 384.386856 42.234079 
L 389.187499 42.012626 
L 393.988142 41.859038 
L 398.788784 41.737596 
L 403.589427 41.634013 
L 408.39007 41.501856 
L 413.190713 41.391129 
L 417.991356 41.269687 
L 422.791998 41.180391 
L 427.592641 41.058949 
L 432.393284 40.969654 
L 437.193927 40.905361 
L 441.99457 40.776775 
L 446.795212 40.719626 
L 451.595855 40.6089 
L 456.396498 40.562466 
L 461.197141 40.462455 
L 465.997784 40.39459 
L 470.798426 40.341013 
L 475.599069 40.294579 
L 480.399712 40.248145 
L 485.200355 40.194568 
L 490.000997 40.148134 
L 494.80164 40.090985 
L 499.602283 40.058839 
L 504.402926 40.026692 
L 509.203569 39.998118 
L 514.004211 39.976687 
L 518.804854 39.962399 
L 523.605497 39.937397 
L 528.40614 39.898107 
L 533.206783 39.869532 
L 538.007425 39.851673 
L 542.808068 39.819526 
" clip-path="url(#p80b6523edf)" style="fill: none; stroke: #808080; stroke-width: 2; stroke-linecap: square"/>
   </g>
   <g id="line2d_32">
    <path d="M 67.544432 369.145265 
L 72.345075 369.884632 
L 77.145717 370.05608 
L 81.94636 368.245165 
L 86.747003 368.541627 
L 91.547646 366.423535 
L 96.348289 362.544534 
L 101.148931 360.544313 
L 105.949574 356.511724 
L 110.750217 349.80741 
L 115.55086 345.653379 
L 120.351503 343.181677 
L 125.152145 336.695244 
L 129.952788 325.801181 
L 134.753431 318.821838 
L 139.554074 309.202916 
L 144.354716 299.516129 
L 149.155359 291.015188 
L 153.956002 283.357198 
L 158.756645 285.193115 
L 163.557288 284.946659 
L 168.35793 282.632117 
L 173.158573 282.457098 
L 177.959216 275.745641 
L 182.759859 273.109635 
L 187.560502 265.801683 
L 192.361144 269.059186 
L 197.161787 269.505664 
L 201.96243 273.952585 
L 206.763073 266.751788 
L 211.563716 267.769758 
L 216.364358 262.762061 
L 221.165001 256.897126 
L 225.965644 251.95015 
L 230.766287 252.035874 
L 235.56693 244.710063 
L 240.367572 247.867555 
L 245.168215 241.502565 
L 249.968858 240.084551 
L 254.769501 236.373426 
L 259.570143 227.56888 
L 264.370786 228.708292 
L 269.171429 218.860773 
L 273.972072 217.717789 
L 278.772715 215.317524 
L 283.573357 214.70317 
L 288.374 214.092388 
L 293.174643 201.244537 
L 297.975286 191.236287 
L 302.775929 190.375477 
L 307.576571 196.41186 
L 312.377214 189.350364 
L 317.177857 177.156157 
L 321.9785 170.537567 
L 326.779143 166.797867 
L 331.579785 152.299834 
L 336.380428 160.743626 
L 341.181071 145.413357 
L 345.981714 145.863407 
L 350.782357 139.401978 
L 355.582999 132.090454 
L 360.383642 125.83619 
L 365.184285 126.818442 
L 369.984928 117.72815 
L 374.78557 110.523781 
L 379.586213 109.027187 
L 384.386856 98.543884 
L 389.187499 93.579049 
L 393.988142 95.69714 
L 398.788784 93.246869 
L 403.589427 88.749943 
L 408.39007 91.439526 
L 413.190713 93.854079 
L 417.991356 88.849954 
L 422.791998 93.218294 
L 427.592641 93.279015 
L 432.393284 90.178672 
L 437.193927 80.870499 
L 441.99457 76.66289 
L 446.795212 75.62349 
L 451.595855 83.895834 
L 456.396498 83.39935 
L 461.197141 84.785218 
L 465.997784 84.020848 
L 470.798426 81.124098 
L 475.599069 78.073761 
L 480.399712 76.695037 
L 485.200355 76.266418 
L 490.000997 75.591343 
L 494.80164 72.323124 
L 499.602283 75.184155 
L 504.402926 76.255702 
L 509.203569 75.923523 
L 514.004211 70.862248 
L 518.804854 77.002214 
L 523.605497 71.987373 
L 528.40614 71.348016 
L 533.206783 65.436648 
L 538.007425 62.025556 
L 542.808068 61.968407 
" clip-path="url(#p80b6523edf)" style="fill: none; stroke: #0000ff; stroke-width: 2; stroke-linecap: square"/>
   </g>
   <g id="line2d_33">
    <path d="M 67.544432 369.145265 
L 72.345075 369.884632 
L 77.145717 370.05608 
L 81.94636 368.245165 
L 86.747003 368.541627 
L 91.547646 366.423535 
L 96.348289 362.544534 
L 101.148931 360.544313 
L 105.949574 356.511724 
L 110.750217 349.80741 
L 115.55086 345.653379 
L 120.351503 343.181677 
L 125.152145 336.695244 
L 129.952788 325.801181 
L 134.753431 318.821838 
L 139.554074 309.202916 
L 144.354716 299.516129 
L 149.155359 291.015188 
L 153.956002 283.357198 
L 158.756645 285.193115 
L 163.557288 284.946659 
L 168.35793 282.632117 
L 173.158573 282.457098 
L 177.959216 275.745641 
L 182.759859 273.109635 
L 187.560502 265.801683 
L 192.361144 269.059186 
L 197.161787 269.505664 
L 201.96243 273.952585 
L 206.763073 266.751788 
L 211.563716 267.769758 
L 216.364358 262.762061 
L 221.165001 256.897126 
L 225.965644 251.95015 
L 230.766287 252.035874 
L 235.56693 244.710063 
L 240.367572 247.867555 
L 245.168215 241.502565 
L 249.968858 240.084551 
L 254.769501 236.373426 
L 259.570143 227.56888 
L 264.370786 228.708292 
L 269.171429 218.860773 
L 273.972072 217.717789 
L 278.772715 215.317524 
L 283.573357 214.70317 
L 288.374 214.092388 
L 293.174643 201.244537 
L 297.975286 191.236287 
L 302.775929 190.375477 
L 307.576571 196.41186 
L 312.377214 189.350364 
L 317.177857 177.156157 
L 321.9785 170.537567 
L 326.779143 166.797867 
L 331.579785 152.299834 
L 336.380428 160.743626 
L 341.181071 145.413357 
L 345.981714 145.863407 
L 350.782357 139.401978 
L 355.582999 132.090454 
L 360.383642 125.83619 
L 365.184285 126.818442 
L 369.984928 117.72815 
L 374.78557 110.523781 
L 379.586213 109.027187 
L 384.386856 98.543884 
L 389.187499 93.579049 
L 393.988142 95.69714 
L 398.788784 93.246869 
L 403.589427 88.749943 
L 408.39007 91.439526 
L 413.190713 93.854079 
L 417.991356 88.849954 
L 422.791998 93.218294 
L 427.592641 93.279015 
L 432.393284 90.178672 
L 437.193927 80.870499 
L 441.99457 76.66289 
L 446.795212 75.62349 
L 451.595855 83.895834 
L 456.396498 83.39935 
L 461.197141 84.785218 
L 465.997784 84.020848 
L 470.798426 81.124098 
L 475.599069 78.073761 
L 480.399712 76.695037 
L 485.200355 76.266418 
L 490.000997 75.591343 
L 494.80164 72.323124 
L 499.602283 75.184155 
L 504.402926 76.255702 
L 509.203569 75.923523 
L 514.004211 70.862248 
L 518.804854 77.002214 
L 523.605497 71.987373 
L 528.40614 71.348016 
L 533.206783 65.436648 
L 538.007425 62.025556 
L 542.808068 61.968407 
" clip-path="url(#p80b6523edf)" style="fill: none; stroke: #00ffff; stroke-width: 2; stroke-linecap: square"/>
   </g>
   <g id="line2d_34">
    <path d="M 67.544432 365.580585 
L 72.345075 362.648117 
L 77.145717 358.486942 
L 81.94636 353.064914 
L 86.747003 346.92852 
L 91.547646 338.97764 
L 96.348289 329.690898 
L 101.148931 317.878876 
L 105.949574 307.274131 
L 110.750217 291.747412 
L 115.55086 277.527981 
L 120.351503 260.2725 
L 125.152145 244.034988 
L 129.952788 231.965795 
L 134.753431 216.842692 
L 139.554074 205.062817 
L 144.354716 194.858116 
L 149.155359 187.275134 
L 153.956002 177.477621 
L 158.756645 170.237534 
L 163.557288 163.98327 
L 168.35793 158.493377 
L 173.158573 154.464359 
L 177.959216 150.092447 
L 182.759859 147.067112 
L 187.560502 143.784606 
L 192.361144 141.241467 
L 197.161787 138.666182 
L 201.96243 136.655245 
L 206.763073 134.594303 
L 211.563716 133.040559 
L 216.364358 131.179639 
L 221.165001 129.636611 
L 225.965644 128.590067 
L 230.766287 127.482801 
L 235.56693 126.561271 
L 240.367572 125.386141 
L 245.168215 124.085997 
L 249.968858 122.817999 
L 254.769501 121.746452 
L 259.570143 120.682049 
L 264.370786 119.914106 
L 269.171429 119.174739 
L 273.972072 118.271067 
L 278.772715 117.345965 
L 283.573357 116.538733 
L 288.374 115.835083 
L 293.174643 115.281451 
L 297.975286 114.742105 
L 302.775929 113.98845 
L 307.576571 113.024058 
L 312.377214 112.045378 
L 317.177857 110.891679 
L 321.9785 109.387941 
L 326.779143 108.591424 
L 331.579785 108.048507 
L 336.380428 107.362717 
L 341.181071 106.698358 
L 345.981714 106.123294 
L 350.782357 105.580377 
L 355.582999 104.973167 
L 360.383642 104.194509 
L 365.184285 103.555153 
L 369.984928 102.762208 
L 374.78557 102.272868 
L 379.586213 101.812103 
L 384.386856 101.487067 
L 389.187499 101.06202 
L 393.988142 100.654832 
L 398.788784 100.129774 
L 403.589427 99.658293 
L 408.39007 99.179668 
L 413.190713 98.715331 
L 417.991356 98.26171 
L 422.791998 97.750939 
L 427.592641 97.290174 
L 432.393284 96.761544 
L 437.193927 96.165049 
L 441.99457 95.768577 
L 446.795212 95.329242 
L 451.595855 94.807756 
L 456.396498 94.396996 
L 461.197141 94.021955 
L 465.997784 93.532615 
L 470.798426 93.11114 
L 475.599069 92.650374 
L 480.399712 92.168178 
L 485.200355 91.7217 
L 490.000997 91.253791 
L 494.80164 90.875178 
L 499.602283 90.450131 
L 504.402926 90.014368 
L 509.203569 89.710763 
L 514.004211 89.425017 
L 518.804854 89.110697 
L 523.605497 88.674934 
L 528.40614 88.453481 
L 533.206783 88.371329 
L 538.007425 88.267746 
L 542.808068 87.871274 
" clip-path="url(#p80b6523edf)" style="fill: none; stroke: #008000; stroke-width: 2; stroke-linecap: square"/>
   </g>
   <g id="line2d_35">
    <path d="M 67.544432 365.35556 
L 72.345075 362.362371 
L 77.145717 357.336815 
L 81.94636 351.250427 
L 86.747003 342.088699 
L 91.547646 330.901746 
L 96.348289 319.55049 
L 101.148931 306.027564 
L 105.949574 290.057939 
L 110.750217 274.534793 
L 115.55086 258.297281 
L 120.351503 243.084883 
L 125.152145 231.01569 
L 129.952788 218.282137 
L 134.753431 206.327243 
L 139.554074 196.036818 
L 144.354716 188.389543 
L 149.155359 181.335191 
L 153.956002 173.44146 
L 158.756645 166.583558 
L 163.557288 161.615151 
L 168.35793 156.22884 
L 173.158573 152.239113 
L 177.959216 149.013756 
L 182.759859 145.452647 
L 187.560502 142.477318 
L 192.361144 140.36637 
L 197.161787 138.280425 
L 201.96243 136.012317 
L 206.763073 133.965662 
L 211.563716 132.194037 
L 216.364358 130.468846 
L 221.165001 129.104409 
L 225.965644 127.786406 
L 230.766287 126.818442 
L 235.56693 125.746895 
L 240.367572 124.5039 
L 245.168215 123.360916 
L 249.968858 122.146496 
L 254.769501 121.228538 
L 259.570143 120.314151 
L 264.370786 119.324755 
L 269.171429 118.446087 
L 273.972072 117.324534 
L 278.772715 116.327995 
L 283.573357 115.810081 
L 288.374 115.149293 
L 293.174643 114.584945 
L 297.975286 114.067031 
L 302.775929 113.384812 
L 307.576571 112.495428 
L 312.377214 111.67748 
L 317.177857 110.402339 
L 321.9785 108.637858 
L 326.779143 107.859201 
L 331.579785 107.151979 
L 336.380428 106.519767 
L 341.181071 105.862551 
L 345.981714 105.005313 
L 350.782357 104.369529 
L 355.582999 103.762319 
L 360.383642 102.758636 
L 365.184285 102.122851 
L 369.984928 101.55136 
L 374.78557 101.1406 
L 379.586213 100.733412 
L 384.386856 100.326224 
L 389.187499 99.736873 
L 393.988142 99.197528 
L 398.788784 98.586746 
L 403.589427 98.104549 
L 408.39007 97.69379 
L 413.190713 97.358038 
L 417.991356 96.918704 
L 422.791998 96.34364 
L 427.592641 95.825726 
L 432.393284 95.354245 
L 437.193927 94.85419 
L 441.99457 94.36485 
L 446.795212 93.789786 
L 451.595855 93.50404 
L 456.396498 93.225438 
L 461.197141 92.678949 
L 465.997784 92.200324 
L 470.798426 91.868145 
L 475.599069 91.668123 
L 480.399712 91.40738 
L 485.200355 91.375233 
L 490.000997 91.357374 
L 494.80164 91.125205 
L 499.602283 90.746592 
L 504.402926 90.371551 
L 509.203569 89.946504 
L 514.004211 89.471451 
L 518.804854 89.035688 
L 523.605497 88.621357 
L 528.40614 88.217741 
L 533.206783 87.724829 
L 538.007425 87.214058 
L 542.808068 86.839017 
" clip-path="url(#p80b6523edf)" style="fill: none; stroke: #ffa500; stroke-width: 2; stroke-linecap: square"/>
   </g>
   <g id="line2d_36">
    <path d="M 67.544432 323.875968 
L 72.345075 299.473267 
L 77.145717 267.976924 
L 81.94636 232.858751 
L 86.747003 198.494233 
L 91.547646 147.413579 
L 96.348289 101.462064 
L 101.148931 70.626508 
L 105.949574 53.2603 
L 110.750217 46.241666 
L 115.55086 44.069997 
L 120.351503 42.362665 
L 125.152145 39.948112 
L 129.952788 39.21946 
L 134.753431 38.955145 
L 139.554074 38.890852 
L 144.354716 38.890852 
L 149.155359 38.890852 
L 153.956002 38.890852 
L 158.756645 38.890852 
L 163.557288 38.890852 
L 168.35793 38.890852 
L 173.158573 38.890852 
L 177.959216 38.890852 
L 182.759859 38.890852 
L 187.560502 38.890852 
L 192.361144 38.890852 
L 197.161787 38.890852 
L 201.96243 38.890852 
L 206.763073 38.890852 
L 211.563716 38.890852 
L 216.364358 38.890852 
L 221.165001 38.890852 
L 225.965644 38.890852 
L 230.766287 38.890852 
L 235.56693 38.890852 
L 240.367572 38.890852 
L 245.168215 38.890852 
L 249.968858 38.890852 
L 254.769501 38.890852 
L 259.570143 38.890852 
L 264.370786 38.890852 
L 269.171429 38.890852 
L 273.972072 38.890852 
L 278.772715 38.890852 
L 283.573357 38.890852 
L 288.374 38.890852 
L 293.174643 38.890852 
L 297.975286 38.890852 
L 302.775929 38.890852 
L 307.576571 38.890852 
L 312.377214 38.890852 
L 317.177857 38.890852 
L 321.9785 38.890852 
L 326.779143 38.890852 
L 331.579785 38.890852 
L 336.380428 38.890852 
L 341.181071 38.890852 
L 345.981714 38.890852 
L 350.782357 38.890852 
L 355.582999 38.890852 
L 360.383642 38.890852 
L 365.184285 38.890852 
L 369.984928 38.890852 
L 374.78557 38.890852 
L 379.586213 38.890852 
L 384.386856 38.890852 
L 389.187499 38.890852 
L 393.988142 38.890852 
L 398.788784 38.890852 
L 403.589427 38.890852 
L 408.39007 38.890852 
L 413.190713 38.890852 
L 417.991356 38.890852 
L 422.791998 38.890852 
L 427.592641 38.890852 
L 432.393284 38.890852 
L 437.193927 38.890852 
L 441.99457 38.890852 
L 446.795212 38.890852 
L 451.595855 38.890852 
L 456.396498 38.890852 
L 461.197141 38.890852 
L 465.997784 38.890852 
L 470.798426 38.890852 
L 475.599069 38.890852 
L 480.399712 38.890852 
L 485.200355 38.890852 
L 490.000997 38.890852 
L 494.80164 38.890852 
L 499.602283 38.890852 
L 504.402926 38.890852 
L 509.203569 38.890852 
L 514.004211 38.890852 
L 518.804854 38.894424 
L 523.605497 38.894424 
L 528.40614 38.897996 
L 533.206783 38.897996 
L 538.007425 38.897996 
L 542.808068 38.897996 
" clip-path="url(#p80b6523edf)" style="fill: none; stroke: #ff0000; stroke-width: 2; stroke-linecap: square"/>
   </g>
   <g id="line2d_37">
    <path d="M 67.544432 369.159552 
L 72.345075 369.831055 
L 77.145717 370.345398 
L 81.94636 369.552453 
L 86.747003 369.120262 
L 91.547646 368.902381 
L 96.348289 368.148726 
L 101.148931 368.073718 
L 105.949574 366.098499 
L 110.750217 365.06267 
L 115.55086 364.641195 
L 120.351503 364.548327 
L 125.152145 363.862537 
L 129.952788 363.88754 
L 134.753431 362.398089 
L 139.554074 357.994031 
L 144.354716 358.040464 
L 149.155359 356.350992 
L 153.956002 354.27219 
L 158.756645 354.175751 
L 163.557288 352.868463 
L 168.35793 349.971714 
L 173.158573 341.245748 
L 177.959216 341.01358 
L 182.759859 333.541324 
L 187.560502 334.344984 
L 192.361144 327.765685 
L 197.161787 328.75508 
L 201.96243 321.143523 
L 206.763073 318.946851 
L 211.563716 315.92866 
L 216.364358 314.035593 
L 221.165001 311.528173 
L 225.965644 309.667253 
L 230.766287 305.820398 
L 235.56693 301.112734 
L 240.367572 300.409085 
L 245.168215 296.476507 
L 249.968858 296.369352 
L 254.769501 293.472603 
L 259.570143 295.065637 
L 264.370786 293.322586 
L 269.171429 287.171906 
L 273.972072 284.232295 
L 278.772715 286.539693 
L 283.573357 284.960947 
L 288.374 284.039416 
L 293.174643 280.392584 
L 297.975286 282.582112 
L 302.775929 280.714048 
L 307.576571 277.081503 
L 312.377214 278.478086 
L 317.177857 272.43456 
L 321.9785 265.16947 
L 326.779143 263.204967 
L 331.579785 266.494617 
L 336.380428 266.30531 
L 341.181071 269.912852 
L 345.981714 264.655128 
L 350.782357 269.802126 
L 355.582999 268.216236 
L 360.383642 268.644855 
L 365.184285 268.219808 
L 369.984928 271.091554 
L 374.78557 271.341582 
L 379.586213 266.580341 
L 384.386856 263.68002 
L 389.187499 257.14001 
L 393.988142 258.111546 
L 398.788784 257.097148 
L 403.589427 256.164902 
L 408.39007 256.661386 
L 413.190713 257.568629 
L 417.991356 250.817882 
L 422.791998 249.692757 
L 427.592641 250.44284 
L 432.393284 251.632258 
L 437.193927 251.285791 
L 441.99457 246.103074 
L 446.795212 247.131759 
L 451.595855 252.268042 
L 456.396498 250.099945 
L 461.197141 252.982407 
L 465.997784 241.438272 
L 470.798426 245.042242 
L 475.599069 249.153412 
L 480.399712 237.362821 
L 485.200355 232.805174 
L 490.000997 241.059659 
L 494.80164 234.848257 
L 499.602283 238.51652 
L 504.402926 231.169278 
L 509.203569 228.886883 
L 514.004211 222.993373 
L 518.804854 217.442759 
L 523.605497 217.66064 
L 528.40614 206.298668 
L 533.206783 209.356149 
L 538.007425 201.958902 
L 542.808068 198.940711 
" clip-path="url(#p80b6523edf)" style="fill: none; stroke: #ff00ff; stroke-width: 2; stroke-linecap: square"/>
   </g>
   <g id="patch_3">
    <path d="M 43.78125 386.918125 
L 43.78125 22.318125 
" style="fill: none; stroke: #000000; stroke-width: 0.8; stroke-linejoin: miter; stroke-linecap: square"/>
   </g>
   <g id="patch_4">
    <path d="M 566.57125 386.918125 
L 566.57125 22.318125 
" style="fill: none; stroke: #000000; stroke-width: 0.8; stroke-linejoin: miter; stroke-linecap: square"/>
   </g>
   <g id="patch_5">
    <path d="M 43.78125 386.918125 
L 566.57125 386.918125 
" style="fill: none; stroke: #000000; stroke-width: 0.8; stroke-linejoin: miter; stroke-linecap: square"/>
   </g>
   <g id="patch_6">
    <path d="M 43.78125 22.318125 
L 566.57125 22.318125 
" style="fill: none; stroke: #000000; stroke-width: 0.8; stroke-linejoin: miter; stroke-linecap: square"/>
   </g>
   <g id="text_18">
    <!-- Accuracy Comparison - opp -->
    <g transform="translate(222.68375 16.318125) scale(0.12 -0.12)">
     <defs>
      <path id="DejaVuSans-70" d="M 1159 525 
L 1159 -1331 
L 581 -1331 
L 581 3500 
L 1159 3500 
L 1159 2969 
Q 1341 3281 1617 3432 
Q 1894 3584 2278 3584 
Q 2916 3584 3314 3078 
Q 3713 2572 3713 1747 
Q 3713 922 3314 415 
Q 2916 -91 2278 -91 
Q 1894 -91 1617 61 
Q 1341 213 1159 525 
z
M 3116 1747 
Q 3116 2381 2855 2742 
Q 2594 3103 2138 3103 
Q 1681 3103 1420 2742 
Q 1159 2381 1159 1747 
Q 1159 1113 1420 752 
Q 1681 391 2138 391 
Q 2594 391 2855 752 
Q 3116 1113 3116 1747 
z
" transform="scale(0.015625)"/>
      <path id="DejaVuSans-2d" d="M 313 2009 
L 1997 2009 
L 1997 1497 
L 313 1497 
L 313 2009 
z
" transform="scale(0.015625)"/>
     </defs>
     <use xlink:href="#DejaVuSans-41"/>
     <use xlink:href="#DejaVuSans-63" x="66.658203"/>
     <use xlink:href="#DejaVuSans-63" x="121.638672"/>
     <use xlink:href="#DejaVuSans-75" x="176.619141"/>
     <use xlink:href="#DejaVuSans-72" x="239.998047"/>
     <use xlink:href="#DejaVuSans-61" x="281.111328"/>
     <use xlink:href="#DejaVuSans-63" x="342.390625"/>
     <use xlink:href="#DejaVuSans-79" x="397.371094"/>
     <use xlink:href="#DejaVuSans-20" x="456.550781"/>
     <use xlink:href="#DejaVuSans-43" x="488.337891"/>
     <use xlink:href="#DejaVuSans-6f" x="558.162109"/>
     <use xlink:href="#DejaVuSans-6d" x="619.34375"/>
     <use xlink:href="#DejaVuSans-70" x="716.755859"/>
     <use xlink:href="#DejaVuSans-61" x="780.232422"/>
     <use xlink:href="#DejaVuSans-72" x="841.511719"/>
     <use xlink:href="#DejaVuSans-69" x="882.625"/>
     <use xlink:href="#DejaVuSans-73" x="910.408203"/>
     <use xlink:href="#DejaVuSans-6f" x="962.507812"/>
     <use xlink:href="#DejaVuSans-6e" x="1023.689453"/>
     <use xlink:href="#DejaVuSans-20" x="1087.068359"/>
     <use xlink:href="#DejaVuSans-2d" x="1118.855469"/>
     <use xlink:href="#DejaVuSans-20" x="1154.939453"/>
     <use xlink:href="#DejaVuSans-6f" x="1186.726562"/>
     <use xlink:href="#DejaVuSans-70" x="1247.908203"/>
     <use xlink:href="#DejaVuSans-70" x="1311.384766"/>
    </g>
   </g>
   <g id="legend_1">
    <g id="patch_7">
     <path d="M 483.030625 381.918125 
L 559.57125 381.918125 
Q 561.57125 381.918125 561.57125 379.918125 
L 561.57125 278.17125 
Q 561.57125 276.17125 559.57125 276.17125 
L 483.030625 276.17125 
Q 481.030625 276.17125 481.030625 278.17125 
L 481.030625 379.918125 
Q 481.030625 381.918125 483.030625 381.918125 
z
" style="fill: #ffffff; opacity: 0.8; stroke: #cccccc; stroke-linejoin: miter"/>
    </g>
    <g id="line2d_38">
     <path d="M 485.030625 284.269687 
L 495.030625 284.269687 
L 505.030625 284.269687 
" style="fill: none; stroke: #808080; stroke-width: 2; stroke-linecap: square"/>
    </g>
    <g id="text_19">
     <!-- Single -->
     <g transform="translate(513.030625 287.769687) scale(0.1 -0.1)">
      <defs>
       <path id="DejaVuSans-53" d="M 3425 4513 
L 3425 3897 
Q 3066 4069 2747 4153 
Q 2428 4238 2131 4238 
Q 1616 4238 1336 4038 
Q 1056 3838 1056 3469 
Q 1056 3159 1242 3001 
Q 1428 2844 1947 2747 
L 2328 2669 
Q 3034 2534 3370 2195 
Q 3706 1856 3706 1288 
Q 3706 609 3251 259 
Q 2797 -91 1919 -91 
Q 1588 -91 1214 -16 
Q 841 59 441 206 
L 441 856 
Q 825 641 1194 531 
Q 1563 422 1919 422 
Q 2459 422 2753 634 
Q 3047 847 3047 1241 
Q 3047 1584 2836 1778 
Q 2625 1972 2144 2069 
L 1759 2144 
Q 1053 2284 737 2584 
Q 422 2884 422 3419 
Q 422 4038 858 4394 
Q 1294 4750 2059 4750 
Q 2388 4750 2728 4690 
Q 3069 4631 3425 4513 
z
" transform="scale(0.015625)"/>
       <path id="DejaVuSans-67" d="M 2906 1791 
Q 2906 2416 2648 2759 
Q 2391 3103 1925 3103 
Q 1463 3103 1205 2759 
Q 947 2416 947 1791 
Q 947 1169 1205 825 
Q 1463 481 1925 481 
Q 2391 481 2648 825 
Q 2906 1169 2906 1791 
z
M 3481 434 
Q 3481 -459 3084 -895 
Q 2688 -1331 1869 -1331 
Q 1566 -1331 1297 -1286 
Q 1028 -1241 775 -1147 
L 775 -588 
Q 1028 -725 1275 -790 
Q 1522 -856 1778 -856 
Q 2344 -856 2625 -561 
Q 2906 -266 2906 331 
L 2906 616 
Q 2728 306 2450 153 
Q 2172 0 1784 0 
Q 1141 0 747 490 
Q 353 981 353 1791 
Q 353 2603 747 3093 
Q 1141 3584 1784 3584 
Q 2172 3584 2450 3431 
Q 2728 3278 2906 2969 
L 2906 3500 
L 3481 3500 
L 3481 434 
z
" transform="scale(0.015625)"/>
       <path id="DejaVuSans-65" d="M 3597 1894 
L 3597 1613 
L 953 1613 
Q 991 1019 1311 708 
Q 1631 397 2203 397 
Q 2534 397 2845 478 
Q 3156 559 3463 722 
L 3463 178 
Q 3153 47 2828 -22 
Q 2503 -91 2169 -91 
Q 1331 -91 842 396 
Q 353 884 353 1716 
Q 353 2575 817 3079 
Q 1281 3584 2069 3584 
Q 2775 3584 3186 3129 
Q 3597 2675 3597 1894 
z
M 3022 2063 
Q 3016 2534 2758 2815 
Q 2500 3097 2075 3097 
Q 1594 3097 1305 2825 
Q 1016 2553 972 2059 
L 3022 2063 
z
" transform="scale(0.015625)"/>
      </defs>
      <use xlink:href="#DejaVuSans-53"/>
      <use xlink:href="#DejaVuSans-69" x="63.476562"/>
      <use xlink:href="#DejaVuSans-6e" x="91.259766"/>
      <use xlink:href="#DejaVuSans-67" x="154.638672"/>
      <use xlink:href="#DejaVuSans-6c" x="218.115234"/>
      <use xlink:href="#DejaVuSans-65" x="245.898438"/>
     </g>
    </g>
    <g id="line2d_39">
     <path d="M 485.030625 298.947812 
L 495.030625 298.947812 
L 505.030625 298.947812 
" style="fill: none; stroke: #0000ff; stroke-width: 2; stroke-linecap: square"/>
    </g>
    <g id="text_20">
     <!-- FedAvg -->
     <g transform="translate(513.030625 302.447812) scale(0.1 -0.1)">
      <defs>
       <path id="DejaVuSans-46" d="M 628 4666 
L 3309 4666 
L 3309 4134 
L 1259 4134 
L 1259 2759 
L 3109 2759 
L 3109 2228 
L 1259 2228 
L 1259 0 
L 628 0 
L 628 4666 
z
" transform="scale(0.015625)"/>
       <path id="DejaVuSans-76" d="M 191 3500 
L 800 3500 
L 1894 563 
L 2988 3500 
L 3597 3500 
L 2284 0 
L 1503 0 
L 191 3500 
z
" transform="scale(0.015625)"/>
      </defs>
      <use xlink:href="#DejaVuSans-46"/>
      <use xlink:href="#DejaVuSans-65" x="52.019531"/>
      <use xlink:href="#DejaVuSans-64" x="113.542969"/>
      <use xlink:href="#DejaVuSans-41" x="177.019531"/>
      <use xlink:href="#DejaVuSans-76" x="239.552734"/>
      <use xlink:href="#DejaVuSans-67" x="298.732422"/>
     </g>
    </g>
    <g id="line2d_40">
     <path d="M 485.030625 313.625937 
L 495.030625 313.625937 
L 505.030625 313.625937 
" style="fill: none; stroke: #00ffff; stroke-width: 2; stroke-linecap: square"/>
    </g>
    <g id="text_21">
     <!-- FedProx -->
     <g transform="translate(513.030625 317.125937) scale(0.1 -0.1)">
      <defs>
       <path id="DejaVuSans-50" d="M 1259 4147 
L 1259 2394 
L 2053 2394 
Q 2494 2394 2734 2622 
Q 2975 2850 2975 3272 
Q 2975 3691 2734 3919 
Q 2494 4147 2053 4147 
L 1259 4147 
z
M 628 4666 
L 2053 4666 
Q 2838 4666 3239 4311 
Q 3641 3956 3641 3272 
Q 3641 2581 3239 2228 
Q 2838 1875 2053 1875 
L 1259 1875 
L 1259 0 
L 628 0 
L 628 4666 
z
" transform="scale(0.015625)"/>
       <path id="DejaVuSans-78" d="M 3513 3500 
L 2247 1797 
L 3578 0 
L 2900 0 
L 1881 1375 
L 863 0 
L 184 0 
L 1544 1831 
L 300 3500 
L 978 3500 
L 1906 2253 
L 2834 3500 
L 3513 3500 
z
" transform="scale(0.015625)"/>
      </defs>
      <use xlink:href="#DejaVuSans-46"/>
      <use xlink:href="#DejaVuSans-65" x="52.019531"/>
      <use xlink:href="#DejaVuSans-64" x="113.542969"/>
      <use xlink:href="#DejaVuSans-50" x="177.019531"/>
      <use xlink:href="#DejaVuSans-72" x="235.572266"/>
      <use xlink:href="#DejaVuSans-6f" x="274.435547"/>
      <use xlink:href="#DejaVuSans-78" x="332.492188"/>
     </g>
    </g>
    <g id="line2d_41">
     <path d="M 485.030625 328.304062 
L 495.030625 328.304062 
L 505.030625 328.304062 
" style="fill: none; stroke: #008000; stroke-width: 2; stroke-linecap: square"/>
    </g>
    <g id="text_22">
     <!-- FedProto -->
     <g transform="translate(513.030625 331.804062) scale(0.1 -0.1)">
      <use xlink:href="#DejaVuSans-46"/>
      <use xlink:href="#DejaVuSans-65" x="52.019531"/>
      <use xlink:href="#DejaVuSans-64" x="113.542969"/>
      <use xlink:href="#DejaVuSans-50" x="177.019531"/>
      <use xlink:href="#DejaVuSans-72" x="235.572266"/>
      <use xlink:href="#DejaVuSans-6f" x="274.435547"/>
      <use xlink:href="#DejaVuSans-74" x="335.617188"/>
      <use xlink:href="#DejaVuSans-6f" x="374.826172"/>
     </g>
    </g>
    <g id="line2d_42">
     <path d="M 485.030625 342.982187 
L 495.030625 342.982187 
L 505.030625 342.982187 
" style="fill: none; stroke: #ffa500; stroke-width: 2; stroke-linecap: square"/>
    </g>
    <g id="text_23">
     <!-- FedMEKT -->
     <g transform="translate(513.030625 346.482187) scale(0.1 -0.1)">
      <defs>
       <path id="DejaVuSans-4d" d="M 628 4666 
L 1569 4666 
L 2759 1491 
L 3956 4666 
L 4897 4666 
L 4897 0 
L 4281 0 
L 4281 4097 
L 3078 897 
L 2444 897 
L 1241 4097 
L 1241 0 
L 628 0 
L 628 4666 
z
" transform="scale(0.015625)"/>
       <path id="DejaVuSans-45" d="M 628 4666 
L 3578 4666 
L 3578 4134 
L 1259 4134 
L 1259 2753 
L 3481 2753 
L 3481 2222 
L 1259 2222 
L 1259 531 
L 3634 531 
L 3634 0 
L 628 0 
L 628 4666 
z
" transform="scale(0.015625)"/>
       <path id="DejaVuSans-4b" d="M 628 4666 
L 1259 4666 
L 1259 2694 
L 3353 4666 
L 4166 4666 
L 1850 2491 
L 4331 0 
L 3500 0 
L 1259 2247 
L 1259 0 
L 628 0 
L 628 4666 
z
" transform="scale(0.015625)"/>
       <path id="DejaVuSans-54" d="M -19 4666 
L 3928 4666 
L 3928 4134 
L 2272 4134 
L 2272 0 
L 1638 0 
L 1638 4134 
L -19 4134 
L -19 4666 
z
" transform="scale(0.015625)"/>
      </defs>
      <use xlink:href="#DejaVuSans-46"/>
      <use xlink:href="#DejaVuSans-65" x="52.019531"/>
      <use xlink:href="#DejaVuSans-64" x="113.542969"/>
      <use xlink:href="#DejaVuSans-4d" x="177.019531"/>
      <use xlink:href="#DejaVuSans-45" x="263.298828"/>
      <use xlink:href="#DejaVuSans-4b" x="326.482422"/>
      <use xlink:href="#DejaVuSans-54" x="384.308594"/>
     </g>
    </g>
    <g id="line2d_43">
     <path d="M 485.030625 357.660312 
L 495.030625 357.660312 
L 505.030625 357.660312 
" style="fill: none; stroke: #ff0000; stroke-width: 2; stroke-linecap: square"/>
    </g>
    <g id="text_24">
     <!-- FedProp -->
     <g transform="translate(513.030625 361.160312) scale(0.1 -0.1)">
      <use xlink:href="#DejaVuSans-46"/>
      <use xlink:href="#DejaVuSans-65" x="52.019531"/>
      <use xlink:href="#DejaVuSans-64" x="113.542969"/>
      <use xlink:href="#DejaVuSans-50" x="177.019531"/>
      <use xlink:href="#DejaVuSans-72" x="235.572266"/>
      <use xlink:href="#DejaVuSans-6f" x="274.435547"/>
      <use xlink:href="#DejaVuSans-70" x="335.617188"/>
     </g>
    </g>
    <g id="line2d_44">
     <path d="M 485.030625 372.338437 
L 495.030625 372.338437 
L 505.030625 372.338437 
" style="fill: none; stroke: #ff00ff; stroke-width: 2; stroke-linecap: square"/>
    </g>
    <g id="text_25">
     <!-- FedDTG -->
     <g transform="translate(513.030625 375.838437) scale(0.1 -0.1)">
      <defs>
       <path id="DejaVuSans-44" d="M 1259 4147 
L 1259 519 
L 2022 519 
Q 2988 519 3436 956 
Q 3884 1394 3884 2338 
Q 3884 3275 3436 3711 
Q 2988 4147 2022 4147 
L 1259 4147 
z
M 628 4666 
L 1925 4666 
Q 3281 4666 3915 4102 
Q 4550 3538 4550 2338 
Q 4550 1131 3912 565 
Q 3275 0 1925 0 
L 628 0 
L 628 4666 
z
" transform="scale(0.015625)"/>
      </defs>
      <use xlink:href="#DejaVuSans-46"/>
      <use xlink:href="#DejaVuSans-65" x="52.019531"/>
      <use xlink:href="#DejaVuSans-64" x="113.542969"/>
      <use xlink:href="#DejaVuSans-44" x="177.019531"/>
      <use xlink:href="#DejaVuSans-54" x="254.021484"/>
      <use xlink:href="#DejaVuSans-47" x="315.105469"/>
     </g>
    </g>
   </g>
  </g>
  <g id="axes_2">
   <g id="patch_8">
    <path d="M 614.38125 386.918125 
L 1137.17125 386.918125 
L 1137.17125 22.318125 
L 614.38125 22.318125 
z
" style="fill: #ffffff"/>
   </g>
   <g id="matplotlib.axis_3">
    <g id="xtick_7">
     <g id="line2d_45">
      <path d="M 633.343789 386.918125 
L 633.343789 22.318125 
" clip-path="url(#p36adbe7a55)" style="fill: none; stroke: #b0b0b0; stroke-opacity: 0.3; stroke-width: 0.8; stroke-linecap: square"/>
     </g>
     <g id="line2d_46">
      <g>
       <use xlink:href="#mcb3b91dd87" x="633.343789" y="386.918125" style="stroke: #000000; stroke-width: 0.8"/>
      </g>
     </g>
     <g id="text_26">
      <!-- 0 -->
      <g transform="translate(630.162539 401.516562) scale(0.1 -0.1)">
       <use xlink:href="#DejaVuSans-30"/>
      </g>
     </g>
    </g>
    <g id="xtick_8">
     <g id="line2d_47">
      <path d="M 729.356645 386.918125 
L 729.356645 22.318125 
" clip-path="url(#p36adbe7a55)" style="fill: none; stroke: #b0b0b0; stroke-opacity: 0.3; stroke-width: 0.8; stroke-linecap: square"/>
     </g>
     <g id="line2d_48">
      <g>
       <use xlink:href="#mcb3b91dd87" x="729.356645" y="386.918125" style="stroke: #000000; stroke-width: 0.8"/>
      </g>
     </g>
     <g id="text_27">
      <!-- 20 -->
      <g transform="translate(722.994145 401.516562) scale(0.1 -0.1)">
       <use xlink:href="#DejaVuSans-32"/>
       <use xlink:href="#DejaVuSans-30" x="63.623047"/>
      </g>
     </g>
    </g>
    <g id="xtick_9">
     <g id="line2d_49">
      <path d="M 825.369501 386.918125 
L 825.369501 22.318125 
" clip-path="url(#p36adbe7a55)" style="fill: none; stroke: #b0b0b0; stroke-opacity: 0.3; stroke-width: 0.8; stroke-linecap: square"/>
     </g>
     <g id="line2d_50">
      <g>
       <use xlink:href="#mcb3b91dd87" x="825.369501" y="386.918125" style="stroke: #000000; stroke-width: 0.8"/>
      </g>
     </g>
     <g id="text_28">
      <!-- 40 -->
      <g transform="translate(819.007001 401.516562) scale(0.1 -0.1)">
       <use xlink:href="#DejaVuSans-34"/>
       <use xlink:href="#DejaVuSans-30" x="63.623047"/>
      </g>
     </g>
    </g>
    <g id="xtick_10">
     <g id="line2d_51">
      <path d="M 921.382357 386.918125 
L 921.382357 22.318125 
" clip-path="url(#p36adbe7a55)" style="fill: none; stroke: #b0b0b0; stroke-opacity: 0.3; stroke-width: 0.8; stroke-linecap: square"/>
     </g>
     <g id="line2d_52">
      <g>
       <use xlink:href="#mcb3b91dd87" x="921.382357" y="386.918125" style="stroke: #000000; stroke-width: 0.8"/>
      </g>
     </g>
     <g id="text_29">
      <!-- 60 -->
      <g transform="translate(915.019857 401.516562) scale(0.1 -0.1)">
       <use xlink:href="#DejaVuSans-36"/>
       <use xlink:href="#DejaVuSans-30" x="63.623047"/>
      </g>
     </g>
    </g>
    <g id="xtick_11">
     <g id="line2d_53">
      <path d="M 1017.395212 386.918125 
L 1017.395212 22.318125 
" clip-path="url(#p36adbe7a55)" style="fill: none; stroke: #b0b0b0; stroke-opacity: 0.3; stroke-width: 0.8; stroke-linecap: square"/>
     </g>
     <g id="line2d_54">
      <g>
       <use xlink:href="#mcb3b91dd87" x="1017.395212" y="386.918125" style="stroke: #000000; stroke-width: 0.8"/>
      </g>
     </g>
     <g id="text_30">
      <!-- 80 -->
      <g transform="translate(1011.032712 401.516562) scale(0.1 -0.1)">
       <use xlink:href="#DejaVuSans-38"/>
       <use xlink:href="#DejaVuSans-30" x="63.623047"/>
      </g>
     </g>
    </g>
    <g id="xtick_12">
     <g id="line2d_55">
      <path d="M 1113.408068 386.918125 
L 1113.408068 22.318125 
" clip-path="url(#p36adbe7a55)" style="fill: none; stroke: #b0b0b0; stroke-opacity: 0.3; stroke-width: 0.8; stroke-linecap: square"/>
     </g>
     <g id="line2d_56">
      <g>
       <use xlink:href="#mcb3b91dd87" x="1113.408068" y="386.918125" style="stroke: #000000; stroke-width: 0.8"/>
      </g>
     </g>
     <g id="text_31">
      <!-- 100 -->
      <g transform="translate(1103.864318 401.516562) scale(0.1 -0.1)">
       <use xlink:href="#DejaVuSans-31"/>
       <use xlink:href="#DejaVuSans-30" x="63.623047"/>
       <use xlink:href="#DejaVuSans-30" x="127.246094"/>
      </g>
     </g>
    </g>
    <g id="text_32">
     <!-- Communication Rounds -->
     <g transform="translate(816.353594 415.194687) scale(0.1 -0.1)">
      <use xlink:href="#DejaVuSans-43"/>
      <use xlink:href="#DejaVuSans-6f" x="69.824219"/>
      <use xlink:href="#DejaVuSans-6d" x="131.005859"/>
      <use xlink:href="#DejaVuSans-6d" x="228.417969"/>
      <use xlink:href="#DejaVuSans-75" x="325.830078"/>
      <use xlink:href="#DejaVuSans-6e" x="389.208984"/>
      <use xlink:href="#DejaVuSans-69" x="452.587891"/>
      <use xlink:href="#DejaVuSans-63" x="480.371094"/>
      <use xlink:href="#DejaVuSans-61" x="535.351562"/>
      <use xlink:href="#DejaVuSans-74" x="596.630859"/>
      <use xlink:href="#DejaVuSans-69" x="635.839844"/>
      <use xlink:href="#DejaVuSans-6f" x="663.623047"/>
      <use xlink:href="#DejaVuSans-6e" x="724.804688"/>
      <use xlink:href="#DejaVuSans-20" x="788.183594"/>
      <use xlink:href="#DejaVuSans-52" x="819.970703"/>
      <use xlink:href="#DejaVuSans-6f" x="884.953125"/>
      <use xlink:href="#DejaVuSans-75" x="946.134766"/>
      <use xlink:href="#DejaVuSans-6e" x="1009.513672"/>
      <use xlink:href="#DejaVuSans-64" x="1072.892578"/>
      <use xlink:href="#DejaVuSans-73" x="1136.369141"/>
     </g>
    </g>
   </g>
   <g id="matplotlib.axis_4">
    <g id="ytick_10">
     <g id="line2d_57">
      <path d="M 614.38125 376.61024 
L 1137.17125 376.61024 
" clip-path="url(#p36adbe7a55)" style="fill: none; stroke: #b0b0b0; stroke-opacity: 0.3; stroke-width: 0.8; stroke-linecap: square"/>
     </g>
     <g id="line2d_58">
      <g>
       <use xlink:href="#meb529d478b" x="614.38125" y="376.61024" style="stroke: #000000; stroke-width: 0.8"/>
      </g>
     </g>
     <g id="text_33">
      <!-- 0.0 -->
      <g transform="translate(591.478125 380.409459) scale(0.1 -0.1)">
       <use xlink:href="#DejaVuSans-30"/>
       <use xlink:href="#DejaVuSans-2e" x="63.623047"/>
       <use xlink:href="#DejaVuSans-30" x="95.410156"/>
      </g>
     </g>
    </g>
    <g id="ytick_11">
     <g id="line2d_59">
      <path d="M 614.38125 328.757299 
L 1137.17125 328.757299 
" clip-path="url(#p36adbe7a55)" style="fill: none; stroke: #b0b0b0; stroke-opacity: 0.3; stroke-width: 0.8; stroke-linecap: square"/>
     </g>
     <g id="line2d_60">
      <g>
       <use xlink:href="#meb529d478b" x="614.38125" y="328.757299" style="stroke: #000000; stroke-width: 0.8"/>
      </g>
     </g>
     <g id="text_34">
      <!-- 0.1 -->
      <g transform="translate(591.478125 332.556518) scale(0.1 -0.1)">
       <use xlink:href="#DejaVuSans-30"/>
       <use xlink:href="#DejaVuSans-2e" x="63.623047"/>
       <use xlink:href="#DejaVuSans-31" x="95.410156"/>
      </g>
     </g>
    </g>
    <g id="ytick_12">
     <g id="line2d_61">
      <path d="M 614.38125 280.904357 
L 1137.17125 280.904357 
" clip-path="url(#p36adbe7a55)" style="fill: none; stroke: #b0b0b0; stroke-opacity: 0.3; stroke-width: 0.8; stroke-linecap: square"/>
     </g>
     <g id="line2d_62">
      <g>
       <use xlink:href="#meb529d478b" x="614.38125" y="280.904357" style="stroke: #000000; stroke-width: 0.8"/>
      </g>
     </g>
     <g id="text_35">
      <!-- 0.2 -->
      <g transform="translate(591.478125 284.703576) scale(0.1 -0.1)">
       <use xlink:href="#DejaVuSans-30"/>
       <use xlink:href="#DejaVuSans-2e" x="63.623047"/>
       <use xlink:href="#DejaVuSans-32" x="95.410156"/>
      </g>
     </g>
    </g>
    <g id="ytick_13">
     <g id="line2d_63">
      <path d="M 614.38125 233.051416 
L 1137.17125 233.051416 
" clip-path="url(#p36adbe7a55)" style="fill: none; stroke: #b0b0b0; stroke-opacity: 0.3; stroke-width: 0.8; stroke-linecap: square"/>
     </g>
     <g id="line2d_64">
      <g>
       <use xlink:href="#meb529d478b" x="614.38125" y="233.051416" style="stroke: #000000; stroke-width: 0.8"/>
      </g>
     </g>
     <g id="text_36">
      <!-- 0.3 -->
      <g transform="translate(591.478125 236.850634) scale(0.1 -0.1)">
       <use xlink:href="#DejaVuSans-30"/>
       <use xlink:href="#DejaVuSans-2e" x="63.623047"/>
       <use xlink:href="#DejaVuSans-33" x="95.410156"/>
      </g>
     </g>
    </g>
    <g id="ytick_14">
     <g id="line2d_65">
      <path d="M 614.38125 185.198474 
L 1137.17125 185.198474 
" clip-path="url(#p36adbe7a55)" style="fill: none; stroke: #b0b0b0; stroke-opacity: 0.3; stroke-width: 0.8; stroke-linecap: square"/>
     </g>
     <g id="line2d_66">
      <g>
       <use xlink:href="#meb529d478b" x="614.38125" y="185.198474" style="stroke: #000000; stroke-width: 0.8"/>
      </g>
     </g>
     <g id="text_37">
      <!-- 0.4 -->
      <g transform="translate(591.478125 188.997693) scale(0.1 -0.1)">
       <use xlink:href="#DejaVuSans-30"/>
       <use xlink:href="#DejaVuSans-2e" x="63.623047"/>
       <use xlink:href="#DejaVuSans-34" x="95.410156"/>
      </g>
     </g>
    </g>
    <g id="ytick_15">
     <g id="line2d_67">
      <path d="M 614.38125 137.345533 
L 1137.17125 137.345533 
" clip-path="url(#p36adbe7a55)" style="fill: none; stroke: #b0b0b0; stroke-opacity: 0.3; stroke-width: 0.8; stroke-linecap: square"/>
     </g>
     <g id="line2d_68">
      <g>
       <use xlink:href="#meb529d478b" x="614.38125" y="137.345533" style="stroke: #000000; stroke-width: 0.8"/>
      </g>
     </g>
     <g id="text_38">
      <!-- 0.5 -->
      <g transform="translate(591.478125 141.144751) scale(0.1 -0.1)">
       <use xlink:href="#DejaVuSans-30"/>
       <use xlink:href="#DejaVuSans-2e" x="63.623047"/>
       <use xlink:href="#DejaVuSans-35" x="95.410156"/>
      </g>
     </g>
    </g>
    <g id="ytick_16">
     <g id="line2d_69">
      <path d="M 614.38125 89.492591 
L 1137.17125 89.492591 
" clip-path="url(#p36adbe7a55)" style="fill: none; stroke: #b0b0b0; stroke-opacity: 0.3; stroke-width: 0.8; stroke-linecap: square"/>
     </g>
     <g id="line2d_70">
      <g>
       <use xlink:href="#meb529d478b" x="614.38125" y="89.492591" style="stroke: #000000; stroke-width: 0.8"/>
      </g>
     </g>
     <g id="text_39">
      <!-- 0.6 -->
      <g transform="translate(591.478125 93.29181) scale(0.1 -0.1)">
       <use xlink:href="#DejaVuSans-30"/>
       <use xlink:href="#DejaVuSans-2e" x="63.623047"/>
       <use xlink:href="#DejaVuSans-36" x="95.410156"/>
      </g>
     </g>
    </g>
    <g id="ytick_17">
     <g id="line2d_71">
      <path d="M 614.38125 41.63965 
L 1137.17125 41.63965 
" clip-path="url(#p36adbe7a55)" style="fill: none; stroke: #b0b0b0; stroke-opacity: 0.3; stroke-width: 0.8; stroke-linecap: square"/>
     </g>
     <g id="line2d_72">
      <g>
       <use xlink:href="#meb529d478b" x="614.38125" y="41.63965" style="stroke: #000000; stroke-width: 0.8"/>
      </g>
     </g>
     <g id="text_40">
      <!-- 0.7 -->
      <g transform="translate(591.478125 45.438868) scale(0.1 -0.1)">
       <use xlink:href="#DejaVuSans-30"/>
       <use xlink:href="#DejaVuSans-2e" x="63.623047"/>
       <use xlink:href="#DejaVuSans-37" x="95.410156"/>
      </g>
     </g>
    </g>
    <g id="text_41">
     <!-- Global F1 Score -->
     <g transform="translate(585.398438 243.805625) rotate(-90) scale(0.1 -0.1)">
      <use xlink:href="#DejaVuSans-47"/>
      <use xlink:href="#DejaVuSans-6c" x="77.490234"/>
      <use xlink:href="#DejaVuSans-6f" x="105.273438"/>
      <use xlink:href="#DejaVuSans-62" x="166.455078"/>
      <use xlink:href="#DejaVuSans-61" x="229.931641"/>
      <use xlink:href="#DejaVuSans-6c" x="291.210938"/>
      <use xlink:href="#DejaVuSans-20" x="318.994141"/>
      <use xlink:href="#DejaVuSans-46" x="350.78125"/>
      <use xlink:href="#DejaVuSans-31" x="408.300781"/>
      <use xlink:href="#DejaVuSans-20" x="471.923828"/>
      <use xlink:href="#DejaVuSans-53" x="503.710938"/>
      <use xlink:href="#DejaVuSans-63" x="567.1875"/>
      <use xlink:href="#DejaVuSans-6f" x="622.167969"/>
      <use xlink:href="#DejaVuSans-72" x="683.349609"/>
      <use xlink:href="#DejaVuSans-65" x="722.212891"/>
     </g>
    </g>
   </g>
   <g id="line2d_73">
    <path d="M 638.144432 326.616942 
L 642.945075 314.89814 
L 647.745717 301.85944 
L 652.54636 288.827244 
L 657.347003 273.370653 
L 662.147646 254.765859 
L 666.948289 237.067769 
L 671.748931 219.583619 
L 676.549574 207.892675 
L 681.350217 196.344316 
L 686.15086 181.650655 
L 690.951503 169.200981 
L 695.752145 157.022874 
L 700.552788 147.86581 
L 705.353431 137.544564 
L 710.154074 128.46141 
L 714.954716 120.33091 
L 719.755359 110.513155 
L 724.556002 103.095974 
L 729.356645 96.979652 
L 734.157288 92.776279 
L 738.95793 87.995515 
L 743.758573 83.98944 
L 748.559216 80.337759 
L 753.359859 76.910446 
L 758.160502 73.026386 
L 762.961144 69.743028 
L 767.761787 66.931573 
L 772.56243 64.590336 
L 777.363073 62.803832 
L 782.163716 60.41506 
L 786.964358 58.421325 
L 791.765001 56.593807 
L 796.565644 54.481384 
L 801.366287 53.022635 
L 806.16693 51.804227 
L 810.967572 50.54754 
L 815.768215 49.90444 
L 820.568858 49.420089 
L 825.369501 48.845753 
L 830.170143 48.224793 
L 834.970786 47.685556 
L 839.771429 47.173085 
L 844.572072 46.645389 
L 849.372715 46.145006 
L 854.173357 45.659708 
L 858.974 45.261135 
L 863.774643 45.011911 
L 868.575286 44.719469 
L 873.375929 44.406677 
L 878.176571 44.11773 
L 882.977214 43.883174 
L 887.777857 43.612125 
L 892.5785 43.380093 
L 897.379143 43.110656 
L 902.179785 42.845312 
L 906.980428 42.579409 
L 911.781071 42.352343 
L 916.581714 42.11356 
L 921.382357 41.785615 
L 926.182999 41.275054 
L 930.983642 41.035438 
L 935.784285 40.894598 
L 940.584928 40.779318 
L 945.38557 40.716059 
L 950.186213 40.611341 
L 954.986856 40.533613 
L 959.787499 40.428456 
L 964.588142 40.349702 
L 969.388784 40.287551 
L 974.189427 40.241874 
L 978.99007 40.172288 
L 983.790713 40.111613 
L 988.591356 40.044897 
L 993.391998 40.001031 
L 998.192641 39.937561 
L 1002.993284 39.890577 
L 1007.793927 39.862396 
L 1012.59457 39.799707 
L 1017.395212 39.77556 
L 1022.195855 39.718185 
L 1026.996498 39.704211 
L 1031.797141 39.656055 
L 1036.597784 39.619586 
L 1041.398426 39.594311 
L 1046.199069 39.568279 
L 1050.999712 39.543839 
L 1055.800355 39.524929 
L 1060.600997 39.505261 
L 1065.40164 39.476415 
L 1070.202283 39.459994 
L 1075.002926 39.445162 
L 1079.803569 39.437096 
L 1084.604211 39.426681 
L 1089.404854 39.420267 
L 1094.205497 39.40944 
L 1099.00614 39.390613 
L 1103.806783 39.377789 
L 1108.607425 39.367789 
L 1113.408068 39.351379 
" clip-path="url(#p36adbe7a55)" style="fill: none; stroke: #808080; stroke-width: 2; stroke-linecap: square"/>
   </g>
   <g id="line2d_74">
    <path d="M 638.144432 368.039288 
L 642.945075 369.635057 
L 647.745717 369.528833 
L 652.54636 365.759609 
L 657.347003 366.400448 
L 662.147646 361.680852 
L 666.948289 353.330041 
L 671.748931 349.253966 
L 676.549574 341.312337 
L 681.350217 328.190791 
L 686.15086 320.327556 
L 690.951503 315.777716 
L 695.752145 304.273447 
L 700.552788 286.489394 
L 705.353431 275.825781 
L 710.154074 262.207618 
L 714.954716 249.318056 
L 719.755359 238.364927 
L 724.556002 228.621152 
L 729.356645 231.062143 
L 734.157288 231.022805 
L 738.95793 228.19284 
L 743.758573 228.102935 
L 748.559216 220.044545 
L 753.359859 216.906894 
L 758.160502 208.549792 
L 762.961144 212.349574 
L 767.761787 212.586927 
L 772.56243 217.696392 
L 777.363073 209.798562 
L 782.163716 211.102953 
L 786.964358 205.555011 
L 791.765001 199.553142 
L 796.565644 193.901024 
L 801.366287 194.125863 
L 806.16693 186.336799 
L 810.967572 189.793115 
L 815.768215 182.720531 
L 820.568858 181.816809 
L 825.369501 177.954649 
L 830.170143 169.639534 
L 834.970786 170.735866 
L 839.771429 161.226408 
L 844.572072 160.261316 
L 849.372715 158.565892 
L 854.173357 158.072392 
L 858.974 157.760809 
L 863.774643 146.344979 
L 868.575286 137.60891 
L 873.375929 137.172547 
L 878.176571 142.31762 
L 882.977214 136.295174 
L 887.777857 126.124464 
L 892.5785 120.79045 
L 897.379143 117.636833 
L 902.179785 106.362735 
L 906.980428 112.902135 
L 911.781071 101.30527 
L 916.581714 101.739644 
L 921.382357 97.124482 
L 926.182999 91.982333 
L 930.983642 87.892084 
L 935.784285 88.329293 
L 940.584928 82.026344 
L 945.38557 77.283715 
L 950.186213 76.298809 
L 954.986856 69.933346 
L 959.787499 67.177849 
L 964.588142 68.819347 
L 969.388784 67.649928 
L 974.189427 64.850559 
L 978.99007 66.664906 
L 983.790713 68.008787 
L 988.591356 65.302525 
L 993.391998 68.358106 
L 998.192641 68.749398 
L 1002.993284 67.219207 
L 1007.793927 61.494855 
L 1012.59457 59.335991 
L 1017.395212 58.940022 
L 1022.195855 63.863763 
L 1026.996498 63.917698 
L 1031.797141 64.713589 
L 1036.597784 64.36869 
L 1041.398426 62.733293 
L 1046.199069 60.985782 
L 1050.999712 60.22061 
L 1055.800355 59.966643 
L 1060.600997 59.585807 
L 1065.40164 57.536389 
L 1070.202283 59.233244 
L 1075.002926 59.879947 
L 1079.803569 59.760722 
L 1084.604211 56.930421 
L 1089.404854 60.652439 
L 1094.205497 57.612796 
L 1099.00614 57.207434 
L 1103.806783 53.803358 
L 1108.607425 51.813159 
L 1113.408068 51.799164 
" clip-path="url(#p36adbe7a55)" style="fill: none; stroke: #0000ff; stroke-width: 2; stroke-linecap: square"/>
   </g>
   <g id="line2d_75">
    <path d="M 638.144432 368.039288 
L 642.945075 369.635057 
L 647.745717 369.528833 
L 652.54636 365.759609 
L 657.347003 366.400448 
L 662.147646 361.680852 
L 666.948289 353.330041 
L 671.748931 349.253966 
L 676.549574 341.312337 
L 681.350217 328.190791 
L 686.15086 320.327556 
L 690.951503 315.777716 
L 695.752145 304.273447 
L 700.552788 286.489394 
L 705.353431 275.825781 
L 710.154074 262.207618 
L 714.954716 249.318056 
L 719.755359 238.364927 
L 724.556002 228.621152 
L 729.356645 231.062143 
L 734.157288 231.022805 
L 738.95793 228.19284 
L 743.758573 228.102935 
L 748.559216 220.044545 
L 753.359859 216.906894 
L 758.160502 208.549792 
L 762.961144 212.349574 
L 767.761787 212.586927 
L 772.56243 217.696392 
L 777.363073 209.798562 
L 782.163716 211.102953 
L 786.964358 205.555011 
L 791.765001 199.553142 
L 796.565644 193.901024 
L 801.366287 194.125863 
L 806.16693 186.336799 
L 810.967572 189.793115 
L 815.768215 182.720531 
L 820.568858 181.816809 
L 825.369501 177.954649 
L 830.170143 169.639534 
L 834.970786 170.735866 
L 839.771429 161.226408 
L 844.572072 160.261316 
L 849.372715 158.565892 
L 854.173357 158.072392 
L 858.974 157.760809 
L 863.774643 146.344979 
L 868.575286 137.60891 
L 873.375929 137.172547 
L 878.176571 142.31762 
L 882.977214 136.295174 
L 887.777857 126.124464 
L 892.5785 120.79045 
L 897.379143 117.636833 
L 902.179785 106.362735 
L 906.980428 112.902135 
L 911.781071 101.30527 
L 916.581714 101.739644 
L 921.382357 97.124482 
L 926.182999 91.982333 
L 930.983642 87.892084 
L 935.784285 88.329293 
L 940.584928 82.026344 
L 945.38557 77.283715 
L 950.186213 76.298809 
L 954.986856 69.933346 
L 959.787499 67.177849 
L 964.588142 68.819347 
L 969.388784 67.649928 
L 974.189427 64.850559 
L 978.99007 66.664906 
L 983.790713 68.008787 
L 988.591356 65.302525 
L 993.391998 68.358106 
L 998.192641 68.749398 
L 1002.993284 67.219207 
L 1007.793927 61.494855 
L 1012.59457 59.335991 
L 1017.395212 58.940022 
L 1022.195855 63.863763 
L 1026.996498 63.917698 
L 1031.797141 64.713589 
L 1036.597784 64.36869 
L 1041.398426 62.733293 
L 1046.199069 60.985782 
L 1050.999712 60.22061 
L 1055.800355 59.966643 
L 1060.600997 59.585807 
L 1065.40164 57.536389 
L 1070.202283 59.233244 
L 1075.002926 59.879947 
L 1079.803569 59.760722 
L 1084.604211 56.930421 
L 1089.404854 60.652439 
L 1094.205497 57.612796 
L 1099.00614 57.207434 
L 1103.806783 53.803358 
L 1108.607425 51.813159 
L 1113.408068 51.799164 
" clip-path="url(#p36adbe7a55)" style="fill: none; stroke: #00ffff; stroke-width: 2; stroke-linecap: square"/>
   </g>
   <g id="line2d_76">
    <path d="M 638.144432 359.580195 
L 642.945075 353.39789 
L 647.745717 344.810409 
L 652.54636 334.061827 
L 657.347003 322.272077 
L 662.147646 307.721235 
L 666.948289 291.643884 
L 671.748931 272.691041 
L 676.549574 256.81443 
L 681.350217 235.291403 
L 686.15086 217.037915 
L 690.951503 196.808992 
L 695.752145 179.368074 
L 700.552788 167.357335 
L 705.353431 153.425791 
L 710.154074 143.191846 
L 714.954716 134.816847 
L 719.755359 129.001367 
L 724.556002 121.817494 
L 729.356645 116.833741 
L 734.157288 112.659785 
L 738.95793 109.214956 
L 743.758573 106.705366 
L 748.559216 104.046863 
L 753.359859 102.253306 
L 758.160502 100.37629 
L 762.961144 98.865962 
L 767.761787 97.432784 
L 772.56243 96.210587 
L 777.363073 94.999321 
L 782.163716 94.150527 
L 786.964358 93.032889 
L 791.765001 92.170356 
L 796.565644 91.560357 
L 801.366287 90.985354 
L 806.16693 90.455481 
L 810.967572 89.750777 
L 815.768215 88.97546 
L 820.568858 88.227037 
L 825.369501 87.605876 
L 830.170143 87.023309 
L 834.970786 86.594516 
L 839.771429 86.182107 
L 844.572072 85.635493 
L 849.372715 85.101419 
L 854.173357 84.631111 
L 858.974 84.209991 
L 863.774643 83.900377 
L 868.575286 83.590515 
L 873.375929 83.116548 
L 878.176571 82.526098 
L 882.977214 81.923106 
L 887.777857 81.193047 
L 892.5785 80.215162 
L 897.379143 79.72775 
L 902.179785 79.41158 
L 906.980428 79.002284 
L 911.781071 78.616263 
L 916.581714 78.290768 
L 921.382357 77.951332 
L 926.182999 77.630632 
L 930.983642 77.167967 
L 935.784285 76.769343 
L 940.584928 76.259924 
L 945.38557 75.95823 
L 950.186213 75.688446 
L 954.986856 75.494088 
L 959.787499 75.236565 
L 964.588142 74.998953 
L 969.388784 74.674383 
L 974.189427 74.392024 
L 978.99007 74.122378 
L 983.790713 73.851782 
L 988.591356 73.587112 
L 993.391998 73.314692 
L 998.192641 73.050771 
L 1002.993284 72.731997 
L 1007.793927 72.369325 
L 1012.59457 72.137239 
L 1017.395212 71.879906 
L 1022.195855 71.555433 
L 1026.996498 71.30818 
L 1031.797141 71.095345 
L 1036.597784 70.789926 
L 1041.398426 70.52211 
L 1046.199069 70.23758 
L 1050.999712 69.947366 
L 1055.800355 69.688433 
L 1060.600997 69.411385 
L 1065.40164 69.182935 
L 1070.202283 68.923315 
L 1075.002926 68.659159 
L 1079.803569 68.487052 
L 1084.604211 68.316136 
L 1089.404854 68.128617 
L 1094.205497 67.860418 
L 1099.00614 67.721828 
L 1103.806783 67.672398 
L 1108.607425 67.609278 
L 1113.408068 67.365283 
" clip-path="url(#p36adbe7a55)" style="fill: none; stroke: #008000; stroke-width: 2; stroke-linecap: square"/>
   </g>
   <g id="line2d_77">
    <path d="M 638.144432 359.254787 
L 642.945075 352.992225 
L 647.745717 342.698601 
L 652.54636 330.731164 
L 657.347003 313.635299 
L 662.147646 293.954862 
L 666.948289 275.5897 
L 671.748931 255.282532 
L 676.549574 233.217267 
L 681.350217 213.586117 
L 686.15086 194.799708 
L 690.951503 178.653839 
L 695.752145 166.63014 
L 700.552788 154.87658 
L 705.353431 144.451187 
L 710.154074 136.032699 
L 714.954716 130.021065 
L 719.755359 124.760258 
L 724.556002 119.218027 
L 729.356645 114.476059 
L 734.157288 111.320929 
L 738.95793 107.943423 
L 743.758573 105.40344 
L 748.559216 103.526191 
L 753.359859 101.346224 
L 758.160502 99.684019 
L 762.961144 98.495596 
L 767.761787 97.270006 
L 772.56243 95.950655 
L 777.363073 94.743141 
L 782.163716 93.694411 
L 786.964358 92.700703 
L 791.765001 91.966162 
L 796.565644 91.232893 
L 801.366287 90.672935 
L 806.16693 90.03294 
L 810.967572 89.313121 
L 815.768215 88.645804 
L 820.568858 87.91209 
L 825.369501 87.381967 
L 830.170143 86.848155 
L 834.970786 86.238914 
L 839.771429 85.741148 
L 844.572072 85.03432 
L 849.372715 84.442001 
L 854.173357 84.152216 
L 858.974 83.778539 
L 863.774643 83.43275 
L 868.575286 83.121676 
L 873.375929 82.724257 
L 878.176571 82.160035 
L 882.977214 81.660816 
L 887.777857 80.864129 
L 892.5785 79.732155 
L 897.379143 79.252756 
L 902.179785 78.819052 
L 906.980428 78.457833 
L 911.781071 78.07385 
L 916.581714 77.555132 
L 921.382357 77.167204 
L 926.182999 76.8272 
L 930.983642 76.209957 
L 935.784285 75.825355 
L 940.584928 75.477262 
L 945.38557 75.220178 
L 950.186213 74.964175 
L 954.986856 74.731793 
L 959.787499 74.375307 
L 964.588142 74.060886 
L 969.388784 73.679212 
L 974.189427 73.38445 
L 978.99007 73.15948 
L 983.790713 72.959298 
L 988.591356 72.696191 
L 993.391998 72.350653 
L 998.192641 72.068376 
L 1002.993284 71.797717 
L 1007.793927 71.501089 
L 1012.59457 71.221268 
L 1017.395212 70.867611 
L 1022.195855 70.700832 
L 1026.996498 70.529468 
L 1031.797141 70.197173 
L 1036.597784 69.901556 
L 1041.398426 69.722779 
L 1046.199069 69.621706 
L 1050.999712 69.470645 
L 1055.800355 69.463947 
L 1060.600997 69.460209 
L 1065.40164 69.330678 
L 1070.202283 69.106984 
L 1075.002926 68.896753 
L 1079.803569 68.639096 
L 1084.604211 68.352805 
L 1089.404854 68.093663 
L 1094.205497 67.84236 
L 1099.00614 67.590434 
L 1103.806783 67.288028 
L 1108.607425 66.96689 
L 1113.408068 66.731073 
" clip-path="url(#p36adbe7a55)" style="fill: none; stroke: #ffa500; stroke-width: 2; stroke-linecap: square"/>
   </g>
   <g id="line2d_78">
    <path d="M 638.144432 280.335048 
L 642.945075 243.452084 
L 647.745717 203.154423 
L 652.54636 165.542774 
L 657.347003 135.574755 
L 662.147646 98.026458 
L 666.948289 69.394678 
L 671.748931 52.665482 
L 676.549574 44.435665 
L 681.350217 41.735738 
L 686.15086 41.150355 
L 690.951503 40.470285 
L 695.752145 39.324893 
L 700.552788 39.034749 
L 705.353431 38.921997 
L 710.154074 38.890852 
L 714.954716 38.890852 
L 719.755359 38.890852 
L 724.556002 38.890852 
L 729.356645 38.890852 
L 734.157288 38.890852 
L 738.95793 38.890852 
L 743.758573 38.890852 
L 748.559216 38.890852 
L 753.359859 38.890852 
L 758.160502 38.890852 
L 762.961144 38.890852 
L 767.761787 38.890852 
L 772.56243 38.890852 
L 777.363073 38.890852 
L 782.163716 38.890852 
L 786.964358 38.890852 
L 791.765001 38.890852 
L 796.565644 38.890852 
L 801.366287 38.890852 
L 806.16693 38.890852 
L 810.967572 38.890852 
L 815.768215 38.890852 
L 820.568858 38.890852 
L 825.369501 38.890852 
L 830.170143 38.890852 
L 834.970786 38.890852 
L 839.771429 38.890852 
L 844.572072 38.890852 
L 849.372715 38.890852 
L 854.173357 38.890852 
L 858.974 38.890852 
L 863.774643 38.890852 
L 868.575286 38.890852 
L 873.375929 38.890852 
L 878.176571 38.890852 
L 882.977214 38.890852 
L 887.777857 38.890852 
L 892.5785 38.890852 
L 897.379143 38.890852 
L 902.179785 38.890852 
L 906.980428 38.890852 
L 911.781071 38.890852 
L 916.581714 38.890852 
L 921.382357 38.890852 
L 926.182999 38.890852 
L 930.983642 38.890852 
L 935.784285 38.890852 
L 940.584928 38.890852 
L 945.38557 38.890852 
L 950.186213 38.890852 
L 954.986856 38.890852 
L 959.787499 38.890852 
L 964.588142 38.890852 
L 969.388784 38.890852 
L 974.189427 38.890852 
L 978.99007 38.890852 
L 983.790713 38.890852 
L 988.591356 38.890852 
L 993.391998 38.890852 
L 998.192641 38.890852 
L 1002.993284 38.890852 
L 1007.793927 38.890852 
L 1012.59457 38.890852 
L 1017.395212 38.890852 
L 1022.195855 38.890852 
L 1026.996498 38.890852 
L 1031.797141 38.890852 
L 1036.597784 38.890852 
L 1041.398426 38.890852 
L 1046.199069 38.890852 
L 1050.999712 38.890852 
L 1055.800355 38.890852 
L 1060.600997 38.890852 
L 1065.40164 38.890852 
L 1070.202283 38.890852 
L 1075.002926 38.890852 
L 1079.803569 38.890852 
L 1084.604211 38.890852 
L 1089.404854 38.892847 
L 1094.205497 38.892847 
L 1099.00614 38.894842 
L 1103.806783 38.894842 
L 1108.607425 38.894842 
L 1113.408068 38.894842 
" clip-path="url(#p36adbe7a55)" style="fill: none; stroke: #ff0000; stroke-width: 2; stroke-linecap: square"/>
   </g>
   <g id="line2d_79">
    <path d="M 638.144432 368.082787 
L 642.945075 369.696898 
L 647.745717 370.345398 
L 652.54636 368.466544 
L 657.347003 367.085336 
L 662.147646 366.629464 
L 666.948289 364.897352 
L 671.748931 364.897746 
L 676.549574 360.609524 
L 681.350217 358.470481 
L 686.15086 357.459045 
L 690.951503 357.03521 
L 695.752145 355.900765 
L 700.552788 355.625436 
L 705.353431 352.527098 
L 710.154074 343.509982 
L 714.954716 343.42946 
L 719.755359 340.033832 
L 724.556002 335.803353 
L 729.356645 335.816556 
L 734.157288 333.181871 
L 738.95793 328.032887 
L 743.758573 311.500821 
L 748.559216 311.48564 
L 753.359859 298.490499 
L 758.160502 300.270358 
L 762.961144 289.169726 
L 767.761787 291.039456 
L 772.56243 278.92075 
L 777.363073 275.557234 
L 782.163716 271.209562 
L 786.964358 268.479123 
L 791.765001 265.104123 
L 796.565644 262.360424 
L 801.366287 257.054696 
L 806.16693 250.353626 
L 810.967572 249.268535 
L 815.768215 244.138864 
L 820.568858 244.117957 
L 825.369501 240.475932 
L 830.170143 242.458822 
L 834.970786 240.114869 
L 839.771429 232.592707 
L 844.572072 229.090902 
L 849.372715 232.494492 
L 854.173357 230.706337 
L 858.974 229.590576 
L 863.774643 225.276505 
L 868.575286 228.245942 
L 873.375929 225.915519 
L 878.176571 221.726104 
L 882.977214 223.573505 
L 887.777857 216.302306 
L 892.5785 207.888396 
L 897.379143 205.827772 
L 902.179785 209.995325 
L 906.980428 209.762131 
L 911.781071 214.155503 
L 916.581714 207.983834 
L 921.382357 214.249789 
L 926.182999 212.657823 
L 930.983642 213.111795 
L 935.784285 212.42227 
L 940.584928 216.226047 
L 945.38557 216.031832 
L 950.186213 211.388958 
L 954.986856 208.172992 
L 959.787499 201.271068 
L 964.588142 202.027282 
L 969.388784 200.503742 
L 974.189427 199.794472 
L 978.99007 200.082316 
L 983.790713 201.271381 
L 988.591356 193.224593 
L 993.391998 192.365455 
L 998.192641 192.857554 
L 1002.993284 194.560205 
L 1007.793927 194.678786 
L 1012.59457 188.389282 
L 1017.395212 189.710858 
L 1022.195855 194.800196 
L 1026.996498 192.748343 
L 1031.797141 195.779008 
L 1036.597784 184.140289 
L 1041.398426 188.235724 
L 1046.199069 192.553848 
L 1050.999712 180.595567 
L 1055.800355 176.093633 
L 1060.600997 184.294397 
L 1065.40164 178.137916 
L 1070.202283 181.99563 
L 1075.002926 174.241309 
L 1079.803569 171.746867 
L 1084.604211 165.90373 
L 1089.404854 160.353202 
L 1094.205497 160.706142 
L 1099.00614 150.328345 
L 1103.806783 152.96407 
L 1108.607425 146.195897 
L 1113.408068 142.975264 
" clip-path="url(#p36adbe7a55)" style="fill: none; stroke: #ff00ff; stroke-width: 2; stroke-linecap: square"/>
   </g>
   <g id="patch_9">
    <path d="M 614.38125 386.918125 
L 614.38125 22.318125 
" style="fill: none; stroke: #000000; stroke-width: 0.8; stroke-linejoin: miter; stroke-linecap: square"/>
   </g>
   <g id="patch_10">
    <path d="M 1137.17125 386.918125 
L 1137.17125 22.318125 
" style="fill: none; stroke: #000000; stroke-width: 0.8; stroke-linejoin: miter; stroke-linecap: square"/>
   </g>
   <g id="patch_11">
    <path d="M 614.38125 386.918125 
L 1137.17125 386.918125 
" style="fill: none; stroke: #000000; stroke-width: 0.8; stroke-linejoin: miter; stroke-linecap: square"/>
   </g>
   <g id="patch_12">
    <path d="M 614.38125 22.318125 
L 1137.17125 22.318125 
" style="fill: none; stroke: #000000; stroke-width: 0.8; stroke-linejoin: miter; stroke-linecap: square"/>
   </g>
   <g id="text_42">
    <!-- F1 Score Comparison - opp -->
    <g transform="translate(794.699375 16.318125) scale(0.12 -0.12)">
     <use xlink:href="#DejaVuSans-46"/>
     <use xlink:href="#DejaVuSans-31" x="57.519531"/>
     <use xlink:href="#DejaVuSans-20" x="121.142578"/>
     <use xlink:href="#DejaVuSans-53" x="152.929688"/>
     <use xlink:href="#DejaVuSans-63" x="216.40625"/>
     <use xlink:href="#DejaVuSans-6f" x="271.386719"/>
     <use xlink:href="#DejaVuSans-72" x="332.568359"/>
     <use xlink:href="#DejaVuSans-65" x="371.431641"/>
     <use xlink:href="#DejaVuSans-20" x="432.955078"/>
     <use xlink:href="#DejaVuSans-43" x="464.742188"/>
     <use xlink:href="#DejaVuSans-6f" x="534.566406"/>
     <use xlink:href="#DejaVuSans-6d" x="595.748047"/>
     <use xlink:href="#DejaVuSans-70" x="693.160156"/>
     <use xlink:href="#DejaVuSans-61" x="756.636719"/>
     <use xlink:href="#DejaVuSans-72" x="817.916016"/>
     <use xlink:href="#DejaVuSans-69" x="859.029297"/>
     <use xlink:href="#DejaVuSans-73" x="886.8125"/>
     <use xlink:href="#DejaVuSans-6f" x="938.912109"/>
     <use xlink:href="#DejaVuSans-6e" x="1000.09375"/>
     <use xlink:href="#DejaVuSans-20" x="1063.472656"/>
     <use xlink:href="#DejaVuSans-2d" x="1095.259766"/>
     <use xlink:href="#DejaVuSans-20" x="1131.34375"/>
     <use xlink:href="#DejaVuSans-6f" x="1163.130859"/>
     <use xlink:href="#DejaVuSans-70" x="1224.3125"/>
     <use xlink:href="#DejaVuSans-70" x="1287.789062"/>
    </g>
   </g>
   <g id="legend_2">
    <g id="patch_13">
     <path d="M 1053.630625 381.918125 
L 1130.17125 381.918125 
Q 1132.17125 381.918125 1132.17125 379.918125 
L 1132.17125 278.17125 
Q 1132.17125 276.17125 1130.17125 276.17125 
L 1053.630625 276.17125 
Q 1051.630625 276.17125 1051.630625 278.17125 
L 1051.630625 379.918125 
Q 1051.630625 381.918125 1053.630625 381.918125 
z
" style="fill: #ffffff; opacity: 0.8; stroke: #cccccc; stroke-linejoin: miter"/>
    </g>
    <g id="line2d_80">
     <path d="M 1055.630625 284.269687 
L 1065.630625 284.269687 
L 1075.630625 284.269687 
" style="fill: none; stroke: #808080; stroke-width: 2; stroke-linecap: square"/>
    </g>
    <g id="text_43">
     <!-- Single -->
     <g transform="translate(1083.630625 287.769687) scale(0.1 -0.1)">
      <use xlink:href="#DejaVuSans-53"/>
      <use xlink:href="#DejaVuSans-69" x="63.476562"/>
      <use xlink:href="#DejaVuSans-6e" x="91.259766"/>
      <use xlink:href="#DejaVuSans-67" x="154.638672"/>
      <use xlink:href="#DejaVuSans-6c" x="218.115234"/>
      <use xlink:href="#DejaVuSans-65" x="245.898438"/>
     </g>
    </g>
    <g id="line2d_81">
     <path d="M 1055.630625 298.947812 
L 1065.630625 298.947812 
L 1075.630625 298.947812 
" style="fill: none; stroke: #0000ff; stroke-width: 2; stroke-linecap: square"/>
    </g>
    <g id="text_44">
     <!-- FedAvg -->
     <g transform="translate(1083.630625 302.447812) scale(0.1 -0.1)">
      <use xlink:href="#DejaVuSans-46"/>
      <use xlink:href="#DejaVuSans-65" x="52.019531"/>
      <use xlink:href="#DejaVuSans-64" x="113.542969"/>
      <use xlink:href="#DejaVuSans-41" x="177.019531"/>
      <use xlink:href="#DejaVuSans-76" x="239.552734"/>
      <use xlink:href="#DejaVuSans-67" x="298.732422"/>
     </g>
    </g>
    <g id="line2d_82">
     <path d="M 1055.630625 313.625937 
L 1065.630625 313.625937 
L 1075.630625 313.625937 
" style="fill: none; stroke: #00ffff; stroke-width: 2; stroke-linecap: square"/>
    </g>
    <g id="text_45">
     <!-- FedProx -->
     <g transform="translate(1083.630625 317.125937) scale(0.1 -0.1)">
      <use xlink:href="#DejaVuSans-46"/>
      <use xlink:href="#DejaVuSans-65" x="52.019531"/>
      <use xlink:href="#DejaVuSans-64" x="113.542969"/>
      <use xlink:href="#DejaVuSans-50" x="177.019531"/>
      <use xlink:href="#DejaVuSans-72" x="235.572266"/>
      <use xlink:href="#DejaVuSans-6f" x="274.435547"/>
      <use xlink:href="#DejaVuSans-78" x="332.492188"/>
     </g>
    </g>
    <g id="line2d_83">
     <path d="M 1055.630625 328.304062 
L 1065.630625 328.304062 
L 1075.630625 328.304062 
" style="fill: none; stroke: #008000; stroke-width: 2; stroke-linecap: square"/>
    </g>
    <g id="text_46">
     <!-- FedProto -->
     <g transform="translate(1083.630625 331.804062) scale(0.1 -0.1)">
      <use xlink:href="#DejaVuSans-46"/>
      <use xlink:href="#DejaVuSans-65" x="52.019531"/>
      <use xlink:href="#DejaVuSans-64" x="113.542969"/>
      <use xlink:href="#DejaVuSans-50" x="177.019531"/>
      <use xlink:href="#DejaVuSans-72" x="235.572266"/>
      <use xlink:href="#DejaVuSans-6f" x="274.435547"/>
      <use xlink:href="#DejaVuSans-74" x="335.617188"/>
      <use xlink:href="#DejaVuSans-6f" x="374.826172"/>
     </g>
    </g>
    <g id="line2d_84">
     <path d="M 1055.630625 342.982187 
L 1065.630625 342.982187 
L 1075.630625 342.982187 
" style="fill: none; stroke: #ffa500; stroke-width: 2; stroke-linecap: square"/>
    </g>
    <g id="text_47">
     <!-- FedMEKT -->
     <g transform="translate(1083.630625 346.482187) scale(0.1 -0.1)">
      <use xlink:href="#DejaVuSans-46"/>
      <use xlink:href="#DejaVuSans-65" x="52.019531"/>
      <use xlink:href="#DejaVuSans-64" x="113.542969"/>
      <use xlink:href="#DejaVuSans-4d" x="177.019531"/>
      <use xlink:href="#DejaVuSans-45" x="263.298828"/>
      <use xlink:href="#DejaVuSans-4b" x="326.482422"/>
      <use xlink:href="#DejaVuSans-54" x="384.308594"/>
     </g>
    </g>
    <g id="line2d_85">
     <path d="M 1055.630625 357.660312 
L 1065.630625 357.660312 
L 1075.630625 357.660312 
" style="fill: none; stroke: #ff0000; stroke-width: 2; stroke-linecap: square"/>
    </g>
    <g id="text_48">
     <!-- FedProp -->
     <g transform="translate(1083.630625 361.160312) scale(0.1 -0.1)">
      <use xlink:href="#DejaVuSans-46"/>
      <use xlink:href="#DejaVuSans-65" x="52.019531"/>
      <use xlink:href="#DejaVuSans-64" x="113.542969"/>
      <use xlink:href="#DejaVuSans-50" x="177.019531"/>
      <use xlink:href="#DejaVuSans-72" x="235.572266"/>
      <use xlink:href="#DejaVuSans-6f" x="274.435547"/>
      <use xlink:href="#DejaVuSans-70" x="335.617188"/>
     </g>
    </g>
    <g id="line2d_86">
     <path d="M 1055.630625 372.338437 
L 1065.630625 372.338437 
L 1075.630625 372.338437 
" style="fill: none; stroke: #ff00ff; stroke-width: 2; stroke-linecap: square"/>
    </g>
    <g id="text_49">
     <!-- FedDTG -->
     <g transform="translate(1083.630625 375.838437) scale(0.1 -0.1)">
      <use xlink:href="#DejaVuSans-46"/>
      <use xlink:href="#DejaVuSans-65" x="52.019531"/>
      <use xlink:href="#DejaVuSans-64" x="113.542969"/>
      <use xlink:href="#DejaVuSans-44" x="177.019531"/>
      <use xlink:href="#DejaVuSans-54" x="254.021484"/>
      <use xlink:href="#DejaVuSans-47" x="315.105469"/>
     </g>
    </g>
   </g>
  </g>
 </g>
 <defs>
  <clipPath id="p80b6523edf">
   <rect x="43.78125" y="22.318125" width="522.79" height="364.6"/>
  </clipPath>
  <clipPath id="p36adbe7a55">
   <rect x="614.38125" y="22.318125" width="522.79" height="364.6"/>
  </clipPath>
 </defs>
</svg>
