<?xml version="1.0" encoding="utf-8" standalone="no"?>
<!DOCTYPE svg PUBLIC "-//W3C//DTD SVG 1.1//EN"
  "http://www.w3.org/Graphics/SVG/1.1/DTD/svg11.dtd">
<svg xmlns:xlink="http://www.w3.org/1999/xlink" width="1144.46125pt" height="423.034375pt" viewBox="0 0 1144.46125 423.034375" xmlns="http://www.w3.org/2000/svg" version="1.1">
 <metadata>
  <rdf:RDF xmlns:dc="http://purl.org/dc/elements/1.1/" xmlns:cc="http://creativecommons.org/ns#" xmlns:rdf="http://www.w3.org/1999/02/22-rdf-syntax-ns#">
   <cc:Work>
    <dc:type rdf:resource="http://purl.org/dc/dcmitype/StillImage"/>
    <dc:date>2026-01-06T20:09:26.234894</dc:date>
    <dc:format>image/svg+xml</dc:format>
    <dc:creator>
     <cc:Agent>
      <dc:title>Matplotlib v3.9.4, https://matplotlib.org/</dc:title>
     </cc:Agent>
    </dc:creator>
   </cc:Work>
  </rdf:RDF>
 </metadata>
 <defs>
  <style type="text/css">*{stroke-linejoin: round; stroke-linecap: butt}</style>
 </defs>
 <g id="figure_1">
  <g id="patch_1">
   <path d="M 0 423.034375 
L 1144.46125 423.034375 
L 1144.46125 0 
L 0 0 
z
" style="fill: #ffffff"/>
  </g>
  <g id="axes_1">
   <g id="patch_2">
    <path d="M 43.78125 385.478125 
L 566.66125 385.478125 
L 566.66125 22.318125 
L 43.78125 22.318125 
z
" style="fill: #ffffff"/>
   </g>
   <g id="matplotlib.axis_1">
    <g id="xtick_1">
     <g id="line2d_1">
      <path d="M 62.747053 385.478125 
L 62.747053 22.318125 
" clip-path="url(#pcccef8f5df)" style="fill: none; stroke: #b0b0b0; stroke-opacity: 0.3; stroke-width: 0.8; stroke-linecap: square"/>
     </g>
     <g id="line2d_2">
      <defs>
       <path id="m9c2b1e8139" d="M 0 0 
L 0 3.5 
" style="stroke: #000000; stroke-width: 0.8"/>
      </defs>
      <g>
       <use xlink:href="#m9c2b1e8139" x="62.747053" y="385.478125" style="stroke: #000000; stroke-width: 0.8"/>
      </g>
     </g>
     <g id="text_1">
      <!-- 0 -->
      <g transform="translate(59.565803 400.076562) scale(0.1 -0.1)">
       <defs>
        <path id="DejaVuSans-30" d="M 2034 4250 
Q 1547 4250 1301 3770 
Q 1056 3291 1056 2328 
Q 1056 1369 1301 889 
Q 1547 409 2034 409 
Q 2525 409 2770 889 
Q 3016 1369 3016 2328 
Q 3016 3291 2770 3770 
Q 2525 4250 2034 4250 
z
M 2034 4750 
Q 2819 4750 3233 4129 
Q 3647 3509 3647 2328 
Q 3647 1150 3233 529 
Q 2819 -91 2034 -91 
Q 1250 -91 836 529 
Q 422 1150 422 2328 
Q 422 3509 836 4129 
Q 1250 4750 2034 4750 
z
" transform="scale(0.015625)"/>
       </defs>
       <use xlink:href="#DejaVuSans-30"/>
      </g>
     </g>
    </g>
    <g id="xtick_2">
     <g id="line2d_3">
      <path d="M 158.776438 385.478125 
L 158.776438 22.318125 
" clip-path="url(#pcccef8f5df)" style="fill: none; stroke: #b0b0b0; stroke-opacity: 0.3; stroke-width: 0.8; stroke-linecap: square"/>
     </g>
     <g id="line2d_4">
      <g>
       <use xlink:href="#m9c2b1e8139" x="158.776438" y="385.478125" style="stroke: #000000; stroke-width: 0.8"/>
      </g>
     </g>
     <g id="text_2">
      <!-- 20 -->
      <g transform="translate(152.413938 400.076562) scale(0.1 -0.1)">
       <defs>
        <path id="DejaVuSans-32" d="M 1228 531 
L 3431 531 
L 3431 0 
L 469 0 
L 469 531 
Q 828 903 1448 1529 
Q 2069 2156 2228 2338 
Q 2531 2678 2651 2914 
Q 2772 3150 2772 3378 
Q 2772 3750 2511 3984 
Q 2250 4219 1831 4219 
Q 1534 4219 1204 4116 
Q 875 4013 500 3803 
L 500 4441 
Q 881 4594 1212 4672 
Q 1544 4750 1819 4750 
Q 2544 4750 2975 4387 
Q 3406 4025 3406 3419 
Q 3406 3131 3298 2873 
Q 3191 2616 2906 2266 
Q 2828 2175 2409 1742 
Q 1991 1309 1228 531 
z
" transform="scale(0.015625)"/>
       </defs>
       <use xlink:href="#DejaVuSans-32"/>
       <use xlink:href="#DejaVuSans-30" x="63.623047"/>
      </g>
     </g>
    </g>
    <g id="xtick_3">
     <g id="line2d_5">
      <path d="M 254.805823 385.478125 
L 254.805823 22.318125 
" clip-path="url(#pcccef8f5df)" style="fill: none; stroke: #b0b0b0; stroke-opacity: 0.3; stroke-width: 0.8; stroke-linecap: square"/>
     </g>
     <g id="line2d_6">
      <g>
       <use xlink:href="#m9c2b1e8139" x="254.805823" y="385.478125" style="stroke: #000000; stroke-width: 0.8"/>
      </g>
     </g>
     <g id="text_3">
      <!-- 40 -->
      <g transform="translate(248.443323 400.076562) scale(0.1 -0.1)">
       <defs>
        <path id="DejaVuSans-34" d="M 2419 4116 
L 825 1625 
L 2419 1625 
L 2419 4116 
z
M 2253 4666 
L 3047 4666 
L 3047 1625 
L 3713 1625 
L 3713 1100 
L 3047 1100 
L 3047 0 
L 2419 0 
L 2419 1100 
L 313 1100 
L 313 1709 
L 2253 4666 
z
" transform="scale(0.015625)"/>
       </defs>
       <use xlink:href="#DejaVuSans-34"/>
       <use xlink:href="#DejaVuSans-30" x="63.623047"/>
      </g>
     </g>
    </g>
    <g id="xtick_4">
     <g id="line2d_7">
      <path d="M 350.835208 385.478125 
L 350.835208 22.318125 
" clip-path="url(#pcccef8f5df)" style="fill: none; stroke: #b0b0b0; stroke-opacity: 0.3; stroke-width: 0.8; stroke-linecap: square"/>
     </g>
     <g id="line2d_8">
      <g>
       <use xlink:href="#m9c2b1e8139" x="350.835208" y="385.478125" style="stroke: #000000; stroke-width: 0.8"/>
      </g>
     </g>
     <g id="text_4">
      <!-- 60 -->
      <g transform="translate(344.472708 400.076562) scale(0.1 -0.1)">
       <defs>
        <path id="DejaVuSans-36" d="M 2113 2584 
Q 1688 2584 1439 2293 
Q 1191 2003 1191 1497 
Q 1191 994 1439 701 
Q 1688 409 2113 409 
Q 2538 409 2786 701 
Q 3034 994 3034 1497 
Q 3034 2003 2786 2293 
Q 2538 2584 2113 2584 
z
M 3366 4563 
L 3366 3988 
Q 3128 4100 2886 4159 
Q 2644 4219 2406 4219 
Q 1781 4219 1451 3797 
Q 1122 3375 1075 2522 
Q 1259 2794 1537 2939 
Q 1816 3084 2150 3084 
Q 2853 3084 3261 2657 
Q 3669 2231 3669 1497 
Q 3669 778 3244 343 
Q 2819 -91 2113 -91 
Q 1303 -91 875 529 
Q 447 1150 447 2328 
Q 447 3434 972 4092 
Q 1497 4750 2381 4750 
Q 2619 4750 2861 4703 
Q 3103 4656 3366 4563 
z
" transform="scale(0.015625)"/>
       </defs>
       <use xlink:href="#DejaVuSans-36"/>
       <use xlink:href="#DejaVuSans-30" x="63.623047"/>
      </g>
     </g>
    </g>
    <g id="xtick_5">
     <g id="line2d_9">
      <path d="M 446.864593 385.478125 
L 446.864593 22.318125 
" clip-path="url(#pcccef8f5df)" style="fill: none; stroke: #b0b0b0; stroke-opacity: 0.3; stroke-width: 0.8; stroke-linecap: square"/>
     </g>
     <g id="line2d_10">
      <g>
       <use xlink:href="#m9c2b1e8139" x="446.864593" y="385.478125" style="stroke: #000000; stroke-width: 0.8"/>
      </g>
     </g>
     <g id="text_5">
      <!-- 80 -->
      <g transform="translate(440.502093 400.076562) scale(0.1 -0.1)">
       <defs>
        <path id="DejaVuSans-38" d="M 2034 2216 
Q 1584 2216 1326 1975 
Q 1069 1734 1069 1313 
Q 1069 891 1326 650 
Q 1584 409 2034 409 
Q 2484 409 2743 651 
Q 3003 894 3003 1313 
Q 3003 1734 2745 1975 
Q 2488 2216 2034 2216 
z
M 1403 2484 
Q 997 2584 770 2862 
Q 544 3141 544 3541 
Q 544 4100 942 4425 
Q 1341 4750 2034 4750 
Q 2731 4750 3128 4425 
Q 3525 4100 3525 3541 
Q 3525 3141 3298 2862 
Q 3072 2584 2669 2484 
Q 3125 2378 3379 2068 
Q 3634 1759 3634 1313 
Q 3634 634 3220 271 
Q 2806 -91 2034 -91 
Q 1263 -91 848 271 
Q 434 634 434 1313 
Q 434 1759 690 2068 
Q 947 2378 1403 2484 
z
M 1172 3481 
Q 1172 3119 1398 2916 
Q 1625 2713 2034 2713 
Q 2441 2713 2670 2916 
Q 2900 3119 2900 3481 
Q 2900 3844 2670 4047 
Q 2441 4250 2034 4250 
Q 1625 4250 1398 4047 
Q 1172 3844 1172 3481 
z
" transform="scale(0.015625)"/>
       </defs>
       <use xlink:href="#DejaVuSans-38"/>
       <use xlink:href="#DejaVuSans-30" x="63.623047"/>
      </g>
     </g>
    </g>
    <g id="xtick_6">
     <g id="line2d_11">
      <path d="M 542.893977 385.478125 
L 542.893977 22.318125 
" clip-path="url(#pcccef8f5df)" style="fill: none; stroke: #b0b0b0; stroke-opacity: 0.3; stroke-width: 0.8; stroke-linecap: square"/>
     </g>
     <g id="line2d_12">
      <g>
       <use xlink:href="#m9c2b1e8139" x="542.893977" y="385.478125" style="stroke: #000000; stroke-width: 0.8"/>
      </g>
     </g>
     <g id="text_6">
      <!-- 100 -->
      <g transform="translate(533.350227 400.076562) scale(0.1 -0.1)">
       <defs>
        <path id="DejaVuSans-31" d="M 794 531 
L 1825 531 
L 1825 4091 
L 703 3866 
L 703 4441 
L 1819 4666 
L 2450 4666 
L 2450 531 
L 3481 531 
L 3481 0 
L 794 0 
L 794 531 
z
" transform="scale(0.015625)"/>
       </defs>
       <use xlink:href="#DejaVuSans-31"/>
       <use xlink:href="#DejaVuSans-30" x="63.623047"/>
       <use xlink:href="#DejaVuSans-30" x="127.246094"/>
      </g>
     </g>
    </g>
    <g id="text_7">
     <!-- Communication Rounds -->
     <g transform="translate(245.798594 413.754687) scale(0.1 -0.1)">
      <defs>
       <path id="DejaVuSans-43" d="M 4122 4306 
L 4122 3641 
Q 3803 3938 3442 4084 
Q 3081 4231 2675 4231 
Q 1875 4231 1450 3742 
Q 1025 3253 1025 2328 
Q 1025 1406 1450 917 
Q 1875 428 2675 428 
Q 3081 428 3442 575 
Q 3803 722 4122 1019 
L 4122 359 
Q 3791 134 3420 21 
Q 3050 -91 2638 -91 
Q 1578 -91 968 557 
Q 359 1206 359 2328 
Q 359 3453 968 4101 
Q 1578 4750 2638 4750 
Q 3056 4750 3426 4639 
Q 3797 4528 4122 4306 
z
" transform="scale(0.015625)"/>
       <path id="DejaVuSans-6f" d="M 1959 3097 
Q 1497 3097 1228 2736 
Q 959 2375 959 1747 
Q 959 1119 1226 758 
Q 1494 397 1959 397 
Q 2419 397 2687 759 
Q 2956 1122 2956 1747 
Q 2956 2369 2687 2733 
Q 2419 3097 1959 3097 
z
M 1959 3584 
Q 2709 3584 3137 3096 
Q 3566 2609 3566 1747 
Q 3566 888 3137 398 
Q 2709 -91 1959 -91 
Q 1206 -91 779 398 
Q 353 888 353 1747 
Q 353 2609 779 3096 
Q 1206 3584 1959 3584 
z
" transform="scale(0.015625)"/>
       <path id="DejaVuSans-6d" d="M 3328 2828 
Q 3544 3216 3844 3400 
Q 4144 3584 4550 3584 
Q 5097 3584 5394 3201 
Q 5691 2819 5691 2113 
L 5691 0 
L 5113 0 
L 5113 2094 
Q 5113 2597 4934 2840 
Q 4756 3084 4391 3084 
Q 3944 3084 3684 2787 
Q 3425 2491 3425 1978 
L 3425 0 
L 2847 0 
L 2847 2094 
Q 2847 2600 2669 2842 
Q 2491 3084 2119 3084 
Q 1678 3084 1418 2786 
Q 1159 2488 1159 1978 
L 1159 0 
L 581 0 
L 581 3500 
L 1159 3500 
L 1159 2956 
Q 1356 3278 1631 3431 
Q 1906 3584 2284 3584 
Q 2666 3584 2933 3390 
Q 3200 3197 3328 2828 
z
" transform="scale(0.015625)"/>
       <path id="DejaVuSans-75" d="M 544 1381 
L 544 3500 
L 1119 3500 
L 1119 1403 
Q 1119 906 1312 657 
Q 1506 409 1894 409 
Q 2359 409 2629 706 
Q 2900 1003 2900 1516 
L 2900 3500 
L 3475 3500 
L 3475 0 
L 2900 0 
L 2900 538 
Q 2691 219 2414 64 
Q 2138 -91 1772 -91 
Q 1169 -91 856 284 
Q 544 659 544 1381 
z
M 1991 3584 
L 1991 3584 
z
" transform="scale(0.015625)"/>
       <path id="DejaVuSans-6e" d="M 3513 2113 
L 3513 0 
L 2938 0 
L 2938 2094 
Q 2938 2591 2744 2837 
Q 2550 3084 2163 3084 
Q 1697 3084 1428 2787 
Q 1159 2491 1159 1978 
L 1159 0 
L 581 0 
L 581 3500 
L 1159 3500 
L 1159 2956 
Q 1366 3272 1645 3428 
Q 1925 3584 2291 3584 
Q 2894 3584 3203 3211 
Q 3513 2838 3513 2113 
z
" transform="scale(0.015625)"/>
       <path id="DejaVuSans-69" d="M 603 3500 
L 1178 3500 
L 1178 0 
L 603 0 
L 603 3500 
z
M 603 4863 
L 1178 4863 
L 1178 4134 
L 603 4134 
L 603 4863 
z
" transform="scale(0.015625)"/>
       <path id="DejaVuSans-63" d="M 3122 3366 
L 3122 2828 
Q 2878 2963 2633 3030 
Q 2388 3097 2138 3097 
Q 1578 3097 1268 2742 
Q 959 2388 959 1747 
Q 959 1106 1268 751 
Q 1578 397 2138 397 
Q 2388 397 2633 464 
Q 2878 531 3122 666 
L 3122 134 
Q 2881 22 2623 -34 
Q 2366 -91 2075 -91 
Q 1284 -91 818 406 
Q 353 903 353 1747 
Q 353 2603 823 3093 
Q 1294 3584 2113 3584 
Q 2378 3584 2631 3529 
Q 2884 3475 3122 3366 
z
" transform="scale(0.015625)"/>
       <path id="DejaVuSans-61" d="M 2194 1759 
Q 1497 1759 1228 1600 
Q 959 1441 959 1056 
Q 959 750 1161 570 
Q 1363 391 1709 391 
Q 2188 391 2477 730 
Q 2766 1069 2766 1631 
L 2766 1759 
L 2194 1759 
z
M 3341 1997 
L 3341 0 
L 2766 0 
L 2766 531 
Q 2569 213 2275 61 
Q 1981 -91 1556 -91 
Q 1019 -91 701 211 
Q 384 513 384 1019 
Q 384 1609 779 1909 
Q 1175 2209 1959 2209 
L 2766 2209 
L 2766 2266 
Q 2766 2663 2505 2880 
Q 2244 3097 1772 3097 
Q 1472 3097 1187 3025 
Q 903 2953 641 2809 
L 641 3341 
Q 956 3463 1253 3523 
Q 1550 3584 1831 3584 
Q 2591 3584 2966 3190 
Q 3341 2797 3341 1997 
z
" transform="scale(0.015625)"/>
       <path id="DejaVuSans-74" d="M 1172 4494 
L 1172 3500 
L 2356 3500 
L 2356 3053 
L 1172 3053 
L 1172 1153 
Q 1172 725 1289 603 
Q 1406 481 1766 481 
L 2356 481 
L 2356 0 
L 1766 0 
Q 1100 0 847 248 
Q 594 497 594 1153 
L 594 3053 
L 172 3053 
L 172 3500 
L 594 3500 
L 594 4494 
L 1172 4494 
z
" transform="scale(0.015625)"/>
       <path id="DejaVuSans-20" transform="scale(0.015625)"/>
       <path id="DejaVuSans-52" d="M 2841 2188 
Q 3044 2119 3236 1894 
Q 3428 1669 3622 1275 
L 4263 0 
L 3584 0 
L 2988 1197 
Q 2756 1666 2539 1819 
Q 2322 1972 1947 1972 
L 1259 1972 
L 1259 0 
L 628 0 
L 628 4666 
L 2053 4666 
Q 2853 4666 3247 4331 
Q 3641 3997 3641 3322 
Q 3641 2881 3436 2590 
Q 3231 2300 2841 2188 
z
M 1259 4147 
L 1259 2491 
L 2053 2491 
Q 2509 2491 2742 2702 
Q 2975 2913 2975 3322 
Q 2975 3731 2742 3939 
Q 2509 4147 2053 4147 
L 1259 4147 
z
" transform="scale(0.015625)"/>
       <path id="DejaVuSans-64" d="M 2906 2969 
L 2906 4863 
L 3481 4863 
L 3481 0 
L 2906 0 
L 2906 525 
Q 2725 213 2448 61 
Q 2172 -91 1784 -91 
Q 1150 -91 751 415 
Q 353 922 353 1747 
Q 353 2572 751 3078 
Q 1150 3584 1784 3584 
Q 2172 3584 2448 3432 
Q 2725 3281 2906 2969 
z
M 947 1747 
Q 947 1113 1208 752 
Q 1469 391 1925 391 
Q 2381 391 2643 752 
Q 2906 1113 2906 1747 
Q 2906 2381 2643 2742 
Q 2381 3103 1925 3103 
Q 1469 3103 1208 2742 
Q 947 2381 947 1747 
z
" transform="scale(0.015625)"/>
       <path id="DejaVuSans-73" d="M 2834 3397 
L 2834 2853 
Q 2591 2978 2328 3040 
Q 2066 3103 1784 3103 
Q 1356 3103 1142 2972 
Q 928 2841 928 2578 
Q 928 2378 1081 2264 
Q 1234 2150 1697 2047 
L 1894 2003 
Q 2506 1872 2764 1633 
Q 3022 1394 3022 966 
Q 3022 478 2636 193 
Q 2250 -91 1575 -91 
Q 1294 -91 989 -36 
Q 684 19 347 128 
L 347 722 
Q 666 556 975 473 
Q 1284 391 1588 391 
Q 1994 391 2212 530 
Q 2431 669 2431 922 
Q 2431 1156 2273 1281 
Q 2116 1406 1581 1522 
L 1381 1569 
Q 847 1681 609 1914 
Q 372 2147 372 2553 
Q 372 3047 722 3315 
Q 1072 3584 1716 3584 
Q 2034 3584 2315 3537 
Q 2597 3491 2834 3397 
z
" transform="scale(0.015625)"/>
      </defs>
      <use xlink:href="#DejaVuSans-43"/>
      <use xlink:href="#DejaVuSans-6f" x="69.824219"/>
      <use xlink:href="#DejaVuSans-6d" x="131.005859"/>
      <use xlink:href="#DejaVuSans-6d" x="228.417969"/>
      <use xlink:href="#DejaVuSans-75" x="325.830078"/>
      <use xlink:href="#DejaVuSans-6e" x="389.208984"/>
      <use xlink:href="#DejaVuSans-69" x="452.587891"/>
      <use xlink:href="#DejaVuSans-63" x="480.371094"/>
      <use xlink:href="#DejaVuSans-61" x="535.351562"/>
      <use xlink:href="#DejaVuSans-74" x="596.630859"/>
      <use xlink:href="#DejaVuSans-69" x="635.839844"/>
      <use xlink:href="#DejaVuSans-6f" x="663.623047"/>
      <use xlink:href="#DejaVuSans-6e" x="724.804688"/>
      <use xlink:href="#DejaVuSans-20" x="788.183594"/>
      <use xlink:href="#DejaVuSans-52" x="819.970703"/>
      <use xlink:href="#DejaVuSans-6f" x="884.953125"/>
      <use xlink:href="#DejaVuSans-75" x="946.134766"/>
      <use xlink:href="#DejaVuSans-6e" x="1009.513672"/>
      <use xlink:href="#DejaVuSans-64" x="1072.892578"/>
      <use xlink:href="#DejaVuSans-73" x="1136.369141"/>
     </g>
    </g>
   </g>
   <g id="matplotlib.axis_2">
    <g id="ytick_1">
     <g id="line2d_13">
      <path d="M 43.78125 374.175792 
L 566.66125 374.175792 
" clip-path="url(#pcccef8f5df)" style="fill: none; stroke: #b0b0b0; stroke-opacity: 0.3; stroke-width: 0.8; stroke-linecap: square"/>
     </g>
     <g id="line2d_14">
      <defs>
       <path id="ma64a5697a9" d="M 0 0 
L -3.5 0 
" style="stroke: #000000; stroke-width: 0.8"/>
      </defs>
      <g>
       <use xlink:href="#ma64a5697a9" x="43.78125" y="374.175792" style="stroke: #000000; stroke-width: 0.8"/>
      </g>
     </g>
     <g id="text_8">
      <!-- 0.0 -->
      <g transform="translate(20.878125 377.975011) scale(0.1 -0.1)">
       <defs>
        <path id="DejaVuSans-2e" d="M 684 794 
L 1344 794 
L 1344 0 
L 684 0 
L 684 794 
z
" transform="scale(0.015625)"/>
       </defs>
       <use xlink:href="#DejaVuSans-30"/>
       <use xlink:href="#DejaVuSans-2e" x="63.623047"/>
       <use xlink:href="#DejaVuSans-30" x="95.410156"/>
      </g>
     </g>
    </g>
    <g id="ytick_2">
     <g id="line2d_15">
      <path d="M 43.78125 332.052424 
L 566.66125 332.052424 
" clip-path="url(#pcccef8f5df)" style="fill: none; stroke: #b0b0b0; stroke-opacity: 0.3; stroke-width: 0.8; stroke-linecap: square"/>
     </g>
     <g id="line2d_16">
      <g>
       <use xlink:href="#ma64a5697a9" x="43.78125" y="332.052424" style="stroke: #000000; stroke-width: 0.8"/>
      </g>
     </g>
     <g id="text_9">
      <!-- 0.1 -->
      <g transform="translate(20.878125 335.851643) scale(0.1 -0.1)">
       <use xlink:href="#DejaVuSans-30"/>
       <use xlink:href="#DejaVuSans-2e" x="63.623047"/>
       <use xlink:href="#DejaVuSans-31" x="95.410156"/>
      </g>
     </g>
    </g>
    <g id="ytick_3">
     <g id="line2d_17">
      <path d="M 43.78125 289.929056 
L 566.66125 289.929056 
" clip-path="url(#pcccef8f5df)" style="fill: none; stroke: #b0b0b0; stroke-opacity: 0.3; stroke-width: 0.8; stroke-linecap: square"/>
     </g>
     <g id="line2d_18">
      <g>
       <use xlink:href="#ma64a5697a9" x="43.78125" y="289.929056" style="stroke: #000000; stroke-width: 0.8"/>
      </g>
     </g>
     <g id="text_10">
      <!-- 0.2 -->
      <g transform="translate(20.878125 293.728275) scale(0.1 -0.1)">
       <use xlink:href="#DejaVuSans-30"/>
       <use xlink:href="#DejaVuSans-2e" x="63.623047"/>
       <use xlink:href="#DejaVuSans-32" x="95.410156"/>
      </g>
     </g>
    </g>
    <g id="ytick_4">
     <g id="line2d_19">
      <path d="M 43.78125 247.805688 
L 566.66125 247.805688 
" clip-path="url(#pcccef8f5df)" style="fill: none; stroke: #b0b0b0; stroke-opacity: 0.3; stroke-width: 0.8; stroke-linecap: square"/>
     </g>
     <g id="line2d_20">
      <g>
       <use xlink:href="#ma64a5697a9" x="43.78125" y="247.805688" style="stroke: #000000; stroke-width: 0.8"/>
      </g>
     </g>
     <g id="text_11">
      <!-- 0.3 -->
      <g transform="translate(20.878125 251.604907) scale(0.1 -0.1)">
       <defs>
        <path id="DejaVuSans-33" d="M 2597 2516 
Q 3050 2419 3304 2112 
Q 3559 1806 3559 1356 
Q 3559 666 3084 287 
Q 2609 -91 1734 -91 
Q 1441 -91 1130 -33 
Q 819 25 488 141 
L 488 750 
Q 750 597 1062 519 
Q 1375 441 1716 441 
Q 2309 441 2620 675 
Q 2931 909 2931 1356 
Q 2931 1769 2642 2001 
Q 2353 2234 1838 2234 
L 1294 2234 
L 1294 2753 
L 1863 2753 
Q 2328 2753 2575 2939 
Q 2822 3125 2822 3475 
Q 2822 3834 2567 4026 
Q 2313 4219 1838 4219 
Q 1578 4219 1281 4162 
Q 984 4106 628 3988 
L 628 4550 
Q 988 4650 1302 4700 
Q 1616 4750 1894 4750 
Q 2613 4750 3031 4423 
Q 3450 4097 3450 3541 
Q 3450 3153 3228 2886 
Q 3006 2619 2597 2516 
z
" transform="scale(0.015625)"/>
       </defs>
       <use xlink:href="#DejaVuSans-30"/>
       <use xlink:href="#DejaVuSans-2e" x="63.623047"/>
       <use xlink:href="#DejaVuSans-33" x="95.410156"/>
      </g>
     </g>
    </g>
    <g id="ytick_5">
     <g id="line2d_21">
      <path d="M 43.78125 205.68232 
L 566.66125 205.68232 
" clip-path="url(#pcccef8f5df)" style="fill: none; stroke: #b0b0b0; stroke-opacity: 0.3; stroke-width: 0.8; stroke-linecap: square"/>
     </g>
     <g id="line2d_22">
      <g>
       <use xlink:href="#ma64a5697a9" x="43.78125" y="205.68232" style="stroke: #000000; stroke-width: 0.8"/>
      </g>
     </g>
     <g id="text_12">
      <!-- 0.4 -->
      <g transform="translate(20.878125 209.481539) scale(0.1 -0.1)">
       <use xlink:href="#DejaVuSans-30"/>
       <use xlink:href="#DejaVuSans-2e" x="63.623047"/>
       <use xlink:href="#DejaVuSans-34" x="95.410156"/>
      </g>
     </g>
    </g>
    <g id="ytick_6">
     <g id="line2d_23">
      <path d="M 43.78125 163.558952 
L 566.66125 163.558952 
" clip-path="url(#pcccef8f5df)" style="fill: none; stroke: #b0b0b0; stroke-opacity: 0.3; stroke-width: 0.8; stroke-linecap: square"/>
     </g>
     <g id="line2d_24">
      <g>
       <use xlink:href="#ma64a5697a9" x="43.78125" y="163.558952" style="stroke: #000000; stroke-width: 0.8"/>
      </g>
     </g>
     <g id="text_13">
      <!-- 0.5 -->
      <g transform="translate(20.878125 167.358171) scale(0.1 -0.1)">
       <defs>
        <path id="DejaVuSans-35" d="M 691 4666 
L 3169 4666 
L 3169 4134 
L 1269 4134 
L 1269 2991 
Q 1406 3038 1543 3061 
Q 1681 3084 1819 3084 
Q 2600 3084 3056 2656 
Q 3513 2228 3513 1497 
Q 3513 744 3044 326 
Q 2575 -91 1722 -91 
Q 1428 -91 1123 -41 
Q 819 9 494 109 
L 494 744 
Q 775 591 1075 516 
Q 1375 441 1709 441 
Q 2250 441 2565 725 
Q 2881 1009 2881 1497 
Q 2881 1984 2565 2268 
Q 2250 2553 1709 2553 
Q 1456 2553 1204 2497 
Q 953 2441 691 2322 
L 691 4666 
z
" transform="scale(0.015625)"/>
       </defs>
       <use xlink:href="#DejaVuSans-30"/>
       <use xlink:href="#DejaVuSans-2e" x="63.623047"/>
       <use xlink:href="#DejaVuSans-35" x="95.410156"/>
      </g>
     </g>
    </g>
    <g id="ytick_7">
     <g id="line2d_25">
      <path d="M 43.78125 121.435584 
L 566.66125 121.435584 
" clip-path="url(#pcccef8f5df)" style="fill: none; stroke: #b0b0b0; stroke-opacity: 0.3; stroke-width: 0.8; stroke-linecap: square"/>
     </g>
     <g id="line2d_26">
      <g>
       <use xlink:href="#ma64a5697a9" x="43.78125" y="121.435584" style="stroke: #000000; stroke-width: 0.8"/>
      </g>
     </g>
     <g id="text_14">
      <!-- 0.6 -->
      <g transform="translate(20.878125 125.234803) scale(0.1 -0.1)">
       <use xlink:href="#DejaVuSans-30"/>
       <use xlink:href="#DejaVuSans-2e" x="63.623047"/>
       <use xlink:href="#DejaVuSans-36" x="95.410156"/>
      </g>
     </g>
    </g>
    <g id="ytick_8">
     <g id="line2d_27">
      <path d="M 43.78125 79.312216 
L 566.66125 79.312216 
" clip-path="url(#pcccef8f5df)" style="fill: none; stroke: #b0b0b0; stroke-opacity: 0.3; stroke-width: 0.8; stroke-linecap: square"/>
     </g>
     <g id="line2d_28">
      <g>
       <use xlink:href="#ma64a5697a9" x="43.78125" y="79.312216" style="stroke: #000000; stroke-width: 0.8"/>
      </g>
     </g>
     <g id="text_15">
      <!-- 0.7 -->
      <g transform="translate(20.878125 83.111435) scale(0.1 -0.1)">
       <defs>
        <path id="DejaVuSans-37" d="M 525 4666 
L 3525 4666 
L 3525 4397 
L 1831 0 
L 1172 0 
L 2766 4134 
L 525 4134 
L 525 4666 
z
" transform="scale(0.015625)"/>
       </defs>
       <use xlink:href="#DejaVuSans-30"/>
       <use xlink:href="#DejaVuSans-2e" x="63.623047"/>
       <use xlink:href="#DejaVuSans-37" x="95.410156"/>
      </g>
     </g>
    </g>
    <g id="ytick_9">
     <g id="line2d_29">
      <path d="M 43.78125 37.188848 
L 566.66125 37.188848 
" clip-path="url(#pcccef8f5df)" style="fill: none; stroke: #b0b0b0; stroke-opacity: 0.3; stroke-width: 0.8; stroke-linecap: square"/>
     </g>
     <g id="line2d_30">
      <g>
       <use xlink:href="#ma64a5697a9" x="43.78125" y="37.188848" style="stroke: #000000; stroke-width: 0.8"/>
      </g>
     </g>
     <g id="text_16">
      <!-- 0.8 -->
      <g transform="translate(20.878125 40.988067) scale(0.1 -0.1)">
       <use xlink:href="#DejaVuSans-30"/>
       <use xlink:href="#DejaVuSans-2e" x="63.623047"/>
       <use xlink:href="#DejaVuSans-38" x="95.410156"/>
      </g>
     </g>
    </g>
    <g id="text_17">
     <!-- Global Accuracy -->
     <g transform="translate(14.798438 244.265312) rotate(-90) scale(0.1 -0.1)">
      <defs>
       <path id="DejaVuSans-47" d="M 3809 666 
L 3809 1919 
L 2778 1919 
L 2778 2438 
L 4434 2438 
L 4434 434 
Q 4069 175 3628 42 
Q 3188 -91 2688 -91 
Q 1594 -91 976 548 
Q 359 1188 359 2328 
Q 359 3472 976 4111 
Q 1594 4750 2688 4750 
Q 3144 4750 3555 4637 
Q 3966 4525 4313 4306 
L 4313 3634 
Q 3963 3931 3569 4081 
Q 3175 4231 2741 4231 
Q 1884 4231 1454 3753 
Q 1025 3275 1025 2328 
Q 1025 1384 1454 906 
Q 1884 428 2741 428 
Q 3075 428 3337 486 
Q 3600 544 3809 666 
z
" transform="scale(0.015625)"/>
       <path id="DejaVuSans-6c" d="M 603 4863 
L 1178 4863 
L 1178 0 
L 603 0 
L 603 4863 
z
" transform="scale(0.015625)"/>
       <path id="DejaVuSans-62" d="M 3116 1747 
Q 3116 2381 2855 2742 
Q 2594 3103 2138 3103 
Q 1681 3103 1420 2742 
Q 1159 2381 1159 1747 
Q 1159 1113 1420 752 
Q 1681 391 2138 391 
Q 2594 391 2855 752 
Q 3116 1113 3116 1747 
z
M 1159 2969 
Q 1341 3281 1617 3432 
Q 1894 3584 2278 3584 
Q 2916 3584 3314 3078 
Q 3713 2572 3713 1747 
Q 3713 922 3314 415 
Q 2916 -91 2278 -91 
Q 1894 -91 1617 61 
Q 1341 213 1159 525 
L 1159 0 
L 581 0 
L 581 4863 
L 1159 4863 
L 1159 2969 
z
" transform="scale(0.015625)"/>
       <path id="DejaVuSans-41" d="M 2188 4044 
L 1331 1722 
L 3047 1722 
L 2188 4044 
z
M 1831 4666 
L 2547 4666 
L 4325 0 
L 3669 0 
L 3244 1197 
L 1141 1197 
L 716 0 
L 50 0 
L 1831 4666 
z
" transform="scale(0.015625)"/>
       <path id="DejaVuSans-72" d="M 2631 2963 
Q 2534 3019 2420 3045 
Q 2306 3072 2169 3072 
Q 1681 3072 1420 2755 
Q 1159 2438 1159 1844 
L 1159 0 
L 581 0 
L 581 3500 
L 1159 3500 
L 1159 2956 
Q 1341 3275 1631 3429 
Q 1922 3584 2338 3584 
Q 2397 3584 2469 3576 
Q 2541 3569 2628 3553 
L 2631 2963 
z
" transform="scale(0.015625)"/>
       <path id="DejaVuSans-79" d="M 2059 -325 
Q 1816 -950 1584 -1140 
Q 1353 -1331 966 -1331 
L 506 -1331 
L 506 -850 
L 844 -850 
Q 1081 -850 1212 -737 
Q 1344 -625 1503 -206 
L 1606 56 
L 191 3500 
L 800 3500 
L 1894 763 
L 2988 3500 
L 3597 3500 
L 2059 -325 
z
" transform="scale(0.015625)"/>
      </defs>
      <use xlink:href="#DejaVuSans-47"/>
      <use xlink:href="#DejaVuSans-6c" x="77.490234"/>
      <use xlink:href="#DejaVuSans-6f" x="105.273438"/>
      <use xlink:href="#DejaVuSans-62" x="166.455078"/>
      <use xlink:href="#DejaVuSans-61" x="229.931641"/>
      <use xlink:href="#DejaVuSans-6c" x="291.210938"/>
      <use xlink:href="#DejaVuSans-20" x="318.994141"/>
      <use xlink:href="#DejaVuSans-41" x="350.78125"/>
      <use xlink:href="#DejaVuSans-63" x="417.439453"/>
      <use xlink:href="#DejaVuSans-63" x="472.419922"/>
      <use xlink:href="#DejaVuSans-75" x="527.400391"/>
      <use xlink:href="#DejaVuSans-72" x="590.779297"/>
      <use xlink:href="#DejaVuSans-61" x="631.892578"/>
      <use xlink:href="#DejaVuSans-63" x="693.171875"/>
      <use xlink:href="#DejaVuSans-79" x="748.152344"/>
     </g>
    </g>
   </g>
   <g id="line2d_31">
    <path d="M 67.548523 346.816949 
L 72.349992 340.544694 
L 77.151461 333.226471 
L 81.95293 325.488436 
L 86.7544 315.857697 
L 91.555869 303.523092 
L 96.357338 290.807812 
L 101.158807 277.235122 
L 105.960277 267.469189 
L 110.761746 257.15181 
L 115.563215 243.390561 
L 120.364684 230.86384 
L 125.166154 218.066733 
L 129.967623 207.934355 
L 134.769092 195.934176 
L 139.570561 184.556597 
L 144.372031 173.883446 
L 149.1735 160.89778 
L 153.974969 150.615978 
L 158.776438 141.540242 
L 163.577907 134.990485 
L 168.379377 127.412548 
L 173.180846 120.699137 
L 177.982315 114.562075 
L 182.783784 108.730977 
L 187.585254 102.327087 
L 192.386723 96.784164 
L 197.188192 91.999034 
L 201.989661 87.840063 
L 206.791131 84.705715 
L 211.5926 80.461359 
L 216.394069 76.889411 
L 221.195538 73.676792 
L 225.997008 69.887824 
L 230.798477 67.191075 
L 235.599946 64.931924 
L 240.401415 62.583831 
L 245.202885 61.21411 
L 250.004354 60.164584 
L 254.805823 58.976306 
L 259.607292 57.738221 
L 264.408761 56.653117 
L 269.210231 55.607148 
L 274.0117 54.578968 
L 278.813169 53.515211 
L 283.614638 52.522608 
L 288.416108 51.665198 
L 293.217577 51.110194 
L 298.019046 50.46269 
L 302.820515 49.840089 
L 307.621985 49.245951 
L 312.423454 48.751428 
L 317.224923 48.221328 
L 322.026392 47.780171 
L 326.827862 47.260744 
L 331.629331 46.741318 
L 336.4308 46.232564 
L 341.232269 45.75583 
L 346.033739 45.300442 
L 350.835208 44.684957 
L 355.636677 43.735047 
L 360.438146 43.261871 
L 365.239615 42.970138 
L 370.041085 42.728213 
L 374.842554 42.543212 
L 379.644023 42.308403 
L 384.445492 42.155421 
L 389.246962 41.934842 
L 394.048431 41.78186 
L 398.8499 41.660898 
L 403.651369 41.557724 
L 408.452839 41.426089 
L 413.254308 41.3158 
L 418.055777 41.194837 
L 422.857246 41.105894 
L 427.658716 40.984932 
L 432.460185 40.895989 
L 437.261654 40.83195 
L 442.063123 40.703872 
L 446.864593 40.646949 
L 451.666062 40.53666 
L 456.467531 40.490409 
L 461.269 40.390793 
L 466.070469 40.323197 
L 470.871939 40.269831 
L 475.673408 40.22358 
L 480.474877 40.17733 
L 485.276346 40.123964 
L 490.077816 40.077714 
L 494.879285 40.020791 
L 499.680754 39.988771 
L 504.482223 39.956752 
L 509.283693 39.92829 
L 514.085162 39.906944 
L 518.886631 39.892713 
L 523.6881 39.867809 
L 528.48957 39.828674 
L 533.291039 39.800212 
L 538.092508 39.782424 
L 542.893977 39.750404 
" clip-path="url(#pcccef8f5df)" style="fill: none; stroke: #808080; stroke-width: 2; stroke-linecap: square"/>
   </g>
   <g id="line2d_32">
    <path d="M 67.548523 367.775459 
L 72.349992 368.511907 
L 77.151461 368.682677 
L 81.95293 366.878915 
L 86.7544 367.174205 
L 91.555869 365.064479 
L 96.357338 361.200799 
L 101.158807 359.208477 
L 105.960277 355.191815 
L 110.761746 348.51398 
L 115.563215 344.376355 
L 120.364684 341.914415 
L 125.166154 335.453601 
L 129.967623 324.602565 
L 134.769092 317.650786 
L 139.570561 308.069854 
L 144.372031 298.421326 
L 149.1735 289.95396 
L 153.974969 282.326215 
L 158.776438 284.154882 
L 163.577907 283.909399 
L 168.379377 281.603999 
L 173.180846 281.42967 
L 177.982315 274.74472 
L 182.783784 272.119125 
L 187.585254 264.840037 
L 192.386723 268.084674 
L 197.188192 268.529389 
L 201.989661 272.958746 
L 206.791131 265.786389 
L 211.5926 266.800339 
L 216.394069 261.812419 
L 221.195538 255.970648 
L 225.997008 251.04321 
L 230.798477 251.128596 
L 235.599946 243.831718 
L 240.401415 246.97674 
L 245.202885 240.636888 
L 250.004354 239.224475 
L 254.805823 235.528007 
L 259.607292 226.758235 
L 264.408761 227.893147 
L 269.210231 218.084521 
L 274.0117 216.946052 
L 278.813169 214.555266 
L 283.614638 213.943339 
L 288.416108 213.334969 
L 293.217577 200.537861 
L 298.019046 190.569139 
L 302.820515 189.711729 
L 307.621985 195.72427 
L 312.423454 188.690664 
L 317.224923 176.544619 
L 322.026392 169.952169 
L 326.827862 166.22724 
L 331.629331 151.786467 
L 336.4308 160.19691 
L 341.232269 144.927189 
L 346.033739 145.375461 
L 350.835208 138.939551 
L 355.636677 131.656905 
L 360.438146 125.427342 
L 365.239615 126.405714 
L 370.041085 117.351325 
L 374.842554 110.17541 
L 379.644023 108.684727 
L 384.445492 98.242828 
L 389.246962 93.297601 
L 394.048431 95.407327 
L 398.8499 92.966733 
L 403.651369 88.487568 
L 408.452839 91.166529 
L 413.254308 93.571545 
L 418.055777 88.587184 
L 422.857246 92.938272 
L 427.658716 92.998753 
L 432.460185 89.910655 
L 437.261654 80.639244 
L 442.063123 76.448254 
L 446.864593 75.412958 
L 451.666062 83.652631 
L 456.467531 83.158108 
L 461.269 84.538502 
L 466.070469 83.777151 
L 470.871939 80.891842 
L 475.673408 77.853552 
L 480.474877 76.480273 
L 485.276346 76.053347 
L 490.077816 75.380939 
L 494.879285 72.125628 
L 499.680754 74.975359 
L 504.482223 76.042674 
L 509.283693 75.711806 
L 514.085162 70.670522 
L 518.886631 76.786237 
L 523.6881 71.791202 
L 528.48957 71.154371 
L 533.291039 65.26635 
L 538.092508 61.86873 
L 542.893977 61.811807 
" clip-path="url(#pcccef8f5df)" style="fill: none; stroke: #0000ff; stroke-width: 2; stroke-linecap: square"/>
   </g>
   <g id="line2d_33">
    <path d="M 67.548523 367.775459 
L 72.349992 368.511907 
L 77.151461 368.682677 
L 81.95293 366.878915 
L 86.7544 367.174205 
L 91.555869 365.064479 
L 96.357338 361.200799 
L 101.158807 359.208477 
L 105.960277 355.191815 
L 110.761746 348.51398 
L 115.563215 344.376355 
L 120.364684 341.914415 
L 125.166154 335.453601 
L 129.967623 324.602565 
L 134.769092 317.650786 
L 139.570561 308.069854 
L 144.372031 298.421326 
L 149.1735 289.95396 
L 153.974969 282.326215 
L 158.776438 284.154882 
L 163.577907 283.909399 
L 168.379377 281.603999 
L 173.180846 281.42967 
L 177.982315 274.74472 
L 182.783784 272.119125 
L 187.585254 264.840037 
L 192.386723 268.084674 
L 197.188192 268.529389 
L 201.989661 272.958746 
L 206.791131 265.786389 
L 211.5926 266.800339 
L 216.394069 261.812419 
L 221.195538 255.970648 
L 225.997008 251.04321 
L 230.798477 251.128596 
L 235.599946 243.831718 
L 240.401415 246.97674 
L 245.202885 240.636888 
L 250.004354 239.224475 
L 254.805823 235.528007 
L 259.607292 226.758235 
L 264.408761 227.893147 
L 269.210231 218.084521 
L 274.0117 216.946052 
L 278.813169 214.555266 
L 283.614638 213.943339 
L 288.416108 213.334969 
L 293.217577 200.537861 
L 298.019046 190.569139 
L 302.820515 189.711729 
L 307.621985 195.72427 
L 312.423454 188.690664 
L 317.224923 176.544619 
L 322.026392 169.952169 
L 326.827862 166.22724 
L 331.629331 151.786467 
L 336.4308 160.19691 
L 341.232269 144.927189 
L 346.033739 145.375461 
L 350.835208 138.939551 
L 355.636677 131.656905 
L 360.438146 125.427342 
L 365.239615 126.405714 
L 370.041085 117.351325 
L 374.842554 110.17541 
L 379.644023 108.684727 
L 384.445492 98.242828 
L 389.246962 93.297601 
L 394.048431 95.407327 
L 398.8499 92.966733 
L 403.651369 88.487568 
L 408.452839 91.166529 
L 413.254308 93.571545 
L 418.055777 88.587184 
L 422.857246 92.938272 
L 427.658716 92.998753 
L 432.460185 89.910655 
L 437.261654 80.639244 
L 442.063123 76.448254 
L 446.864593 75.412958 
L 451.666062 83.652631 
L 456.467531 83.158108 
L 461.269 84.538502 
L 466.070469 83.777151 
L 470.871939 80.891842 
L 475.673408 77.853552 
L 480.474877 76.480273 
L 485.276346 76.053347 
L 490.077816 75.380939 
L 494.879285 72.125628 
L 499.680754 74.975359 
L 504.482223 76.042674 
L 509.283693 75.711806 
L 514.085162 70.670522 
L 518.886631 76.786237 
L 523.6881 71.791202 
L 528.48957 71.154371 
L 533.291039 65.26635 
L 538.092508 61.86873 
L 542.893977 61.811807 
" clip-path="url(#pcccef8f5df)" style="fill: none; stroke: #00ffff; stroke-width: 2; stroke-linecap: square"/>
   </g>
   <g id="line2d_34">
    <path d="M 67.548523 364.224858 
L 72.349992 361.303972 
L 77.151461 357.159232 
L 81.95293 351.758618 
L 86.7544 345.64646 
L 91.555869 337.726983 
L 96.357338 328.476919 
L 101.158807 316.711549 
L 105.960277 306.148687 
L 110.761746 290.683292 
L 115.563215 276.520021 
L 120.364684 259.332691 
L 125.166154 243.15931 
L 129.967623 231.137784 
L 134.769092 216.074411 
L 139.570561 204.341061 
L 144.372031 194.176664 
L 149.1735 186.623631 
L 153.974969 176.864813 
L 158.776438 169.653321 
L 163.577907 163.423759 
L 168.379377 157.955548 
L 173.180846 153.942443 
L 177.982315 149.587798 
L 182.783784 146.574412 
L 187.585254 143.30487 
L 192.386723 140.771775 
L 197.188192 138.206661 
L 201.989661 136.203667 
L 206.791131 134.150864 
L 211.5926 132.603257 
L 216.394069 130.749687 
L 221.195538 129.212753 
L 225.997008 128.170342 
L 230.798477 127.06745 
L 235.599946 126.149559 
L 240.401415 124.97907 
L 245.202885 123.684061 
L 250.004354 122.421072 
L 254.805823 121.353757 
L 259.607292 120.293557 
L 264.408761 119.528648 
L 269.210231 118.7922 
L 274.0117 117.892098 
L 278.813169 116.970649 
L 283.614638 116.166605 
L 288.416108 115.465735 
L 293.217577 114.914289 
L 298.019046 114.377074 
L 302.820515 113.626395 
L 307.621985 112.665812 
L 312.423454 111.690997 
L 317.224923 110.541855 
L 322.026392 109.044056 
L 326.827862 108.250685 
L 331.629331 107.709912 
L 336.4308 107.026831 
L 341.232269 106.365095 
L 346.033739 105.792303 
L 350.835208 105.25153 
L 355.636677 104.646718 
L 360.438146 103.871136 
L 365.239615 103.234304 
L 370.041085 102.444491 
L 374.842554 101.957084 
L 379.644023 101.498139 
L 384.445492 101.174386 
L 389.246962 100.751018 
L 394.048431 100.345438 
L 398.8499 99.822454 
L 403.651369 99.352835 
L 408.452839 98.876101 
L 413.254308 98.413598 
L 418.055777 97.961768 
L 422.857246 97.453014 
L 427.658716 96.994069 
L 432.460185 96.467527 
L 437.261654 95.873388 
L 442.063123 95.478482 
L 446.864593 95.040882 
L 451.666062 94.521456 
L 456.467531 94.112318 
L 461.269 93.738758 
L 466.070469 93.251351 
L 470.871939 92.83154 
L 475.673408 92.372595 
L 480.474877 91.892303 
L 485.276346 91.447588 
L 490.077816 90.981527 
L 494.879285 90.604409 
L 499.680754 90.181041 
L 504.482223 89.747 
L 509.283693 89.444594 
L 514.085162 89.159976 
L 518.886631 88.846897 
L 523.6881 88.412856 
L 528.48957 88.192277 
L 533.291039 88.11045 
L 538.092508 88.007276 
L 542.893977 87.612369 
" clip-path="url(#pcccef8f5df)" style="fill: none; stroke: #008000; stroke-width: 2; stroke-linecap: square"/>
   </g>
   <g id="line2d_35">
    <path d="M 67.548523 364.000722 
L 72.349992 361.019355 
L 77.151461 356.013647 
L 81.95293 349.951298 
L 86.7544 340.825754 
L 91.555869 329.682985 
L 96.357338 318.37656 
L 101.158807 304.907044 
L 105.960277 289.000492 
L 110.761746 273.538654 
L 115.563215 257.365273 
L 120.364684 242.212957 
L 125.166154 230.191432 
L 129.967623 217.508171 
L 134.769092 205.600493 
L 139.570561 195.35071 
L 144.372031 187.733638 
L 149.1735 180.707147 
L 153.974969 172.844593 
L 158.776438 166.013777 
L 163.577907 161.064992 
L 168.379377 155.699955 
L 173.180846 151.725986 
L 177.982315 148.513367 
L 182.783784 144.966324 
L 187.585254 142.002745 
L 192.386723 139.900135 
L 197.188192 137.822428 
L 201.989661 135.563278 
L 206.791131 133.524706 
L 211.5926 131.760078 
L 216.394069 130.041701 
L 221.195538 128.682653 
L 225.997008 127.369856 
L 230.798477 126.405714 
L 235.599946 125.338399 
L 240.401415 124.100314 
L 245.202885 122.961845 
L 250.004354 121.752221 
L 254.805823 120.837888 
L 259.607292 119.927112 
L 264.408761 118.941624 
L 269.210231 118.066426 
L 274.0117 116.949303 
L 278.813169 115.9567 
L 283.614638 115.440831 
L 288.416108 114.782653 
L 293.217577 114.220534 
L 298.019046 113.704665 
L 302.820515 113.025141 
L 307.621985 112.13927 
L 312.423454 111.324553 
L 317.224923 110.054448 
L 322.026392 108.296936 
L 326.827862 107.521353 
L 331.629331 106.816925 
L 336.4308 106.187209 
L 341.232269 105.532589 
L 346.033739 104.678737 
L 350.835208 104.045464 
L 355.636677 103.440652 
L 360.438146 102.440933 
L 365.239615 101.80766 
L 370.041085 101.238425 
L 374.842554 100.829288 
L 379.644023 100.423708 
L 384.445492 100.018128 
L 389.246962 99.431105 
L 394.048431 98.89389 
L 398.8499 98.28552 
L 403.651369 97.805228 
L 408.452839 97.396091 
L 413.254308 97.061666 
L 418.055777 96.624066 
L 422.857246 96.051274 
L 427.658716 95.535405 
L 432.460185 95.065786 
L 437.261654 94.567706 
L 442.063123 94.080299 
L 446.864593 93.507506 
L 451.666062 93.222889 
L 456.467531 92.945387 
L 461.269 92.401056 
L 466.070469 91.924322 
L 470.871939 91.593455 
L 475.673408 91.394223 
L 480.474877 91.134509 
L 485.276346 91.10249 
L 490.077816 91.084701 
L 494.879285 90.85345 
L 499.680754 90.476332 
L 504.482223 90.102771 
L 509.283693 89.679403 
L 514.085162 89.206227 
L 518.886631 88.772185 
L 523.6881 88.35949 
L 528.48957 87.957468 
L 533.291039 87.466503 
L 538.092508 86.95775 
L 542.893977 86.584189 
" clip-path="url(#pcccef8f5df)" style="fill: none; stroke: #ffa500; stroke-width: 2; stroke-linecap: square"/>
   </g>
   <g id="line2d_36">
    <path d="M 67.548523 333.080604 
L 72.349992 308.532358 
L 77.151461 278.92148 
L 81.95293 236.467244 
L 86.7544 198.154191 
L 91.555869 153.522633 
L 96.357338 117.426037 
L 101.158807 81.841753 
L 105.960277 60.402951 
L 110.761746 48.352964 
L 115.563215 44.837939 
L 120.364684 42.820714 
L 125.166154 40.654064 
L 129.967623 39.415979 
L 134.769092 39.006841 
L 139.570561 38.86809 
L 144.372031 38.832513 
L 149.1735 38.825398 
L 153.974969 38.825398 
L 158.776438 38.825398 
L 163.577907 38.825398 
L 168.379377 38.825398 
L 173.180846 38.825398 
L 177.982315 38.825398 
L 182.783784 38.825398 
L 187.585254 38.825398 
L 192.386723 38.825398 
L 197.188192 38.825398 
L 201.989661 38.825398 
L 206.791131 38.825398 
L 211.5926 38.825398 
L 216.394069 38.825398 
L 221.195538 38.825398 
L 225.997008 38.825398 
L 230.798477 38.825398 
L 235.599946 38.825398 
L 240.401415 38.825398 
L 245.202885 38.825398 
L 250.004354 38.825398 
L 254.805823 38.825398 
L 259.607292 38.825398 
L 264.408761 38.825398 
L 269.210231 38.825398 
L 274.0117 38.825398 
L 278.813169 38.825398 
L 283.614638 38.825398 
L 288.416108 38.825398 
L 293.217577 38.825398 
L 298.019046 38.825398 
L 302.820515 38.825398 
L 307.621985 38.825398 
L 312.423454 38.825398 
L 317.224923 38.825398 
L 322.026392 38.825398 
L 326.827862 38.825398 
L 331.629331 38.825398 
L 336.4308 38.825398 
L 341.232269 38.825398 
L 346.033739 38.825398 
L 350.835208 38.825398 
L 355.636677 38.825398 
L 360.438146 38.825398 
L 365.239615 38.825398 
L 370.041085 38.825398 
L 374.842554 38.825398 
L 379.644023 38.825398 
L 384.445492 38.825398 
L 389.246962 38.825398 
L 394.048431 38.825398 
L 398.8499 38.825398 
L 403.651369 38.825398 
L 408.452839 38.825398 
L 413.254308 38.825398 
L 418.055777 38.825398 
L 422.857246 38.825398 
L 427.658716 38.825398 
L 432.460185 38.825398 
L 437.261654 38.825398 
L 442.063123 38.825398 
L 446.864593 38.843186 
L 451.666062 38.860975 
L 456.467531 38.864533 
L 461.269 38.86809 
L 466.070469 38.871648 
L 470.871939 38.875206 
L 475.673408 38.878763 
L 480.474877 38.878763 
L 485.276346 38.889437 
L 490.077816 38.910783 
L 494.879285 38.914341 
L 499.680754 38.921456 
L 504.482223 38.925014 
L 509.283693 38.932129 
L 514.085162 38.935687 
L 518.886631 38.942802 
L 523.6881 38.942802 
L 528.48957 38.953476 
L 533.291039 38.964149 
L 538.092508 38.967706 
L 542.893977 38.974822 
" clip-path="url(#pcccef8f5df)" style="fill: none; stroke: #ff0000; stroke-width: 2; stroke-linecap: square"/>
   </g>
   <g id="line2d_37">
    <path d="M 67.548523 367.78969 
L 72.349992 368.458541 
L 77.151461 368.970852 
L 81.95293 368.181039 
L 86.7544 367.750555 
L 91.555869 367.533535 
L 96.357338 366.782856 
L 101.158807 366.708144 
L 105.960277 364.740727 
L 110.761746 363.708989 
L 115.563215 363.289178 
L 120.364684 363.196678 
L 125.166154 362.513596 
L 129.967623 362.5385 
L 134.769092 361.054932 
L 139.570561 356.668267 
L 144.372031 356.714518 
L 149.1735 355.031717 
L 153.974969 352.961126 
L 158.776438 352.865068 
L 163.577907 351.562944 
L 168.379377 348.677635 
L 173.180846 339.986133 
L 177.982315 339.754881 
L 182.783784 332.312137 
L 187.585254 333.112624 
L 192.386723 326.559309 
L 197.188192 327.544797 
L 201.989661 319.963302 
L 206.791131 317.775306 
L 211.5926 314.769035 
L 216.394069 312.883445 
L 221.195538 310.385928 
L 225.997008 308.532358 
L 230.798477 304.700697 
L 235.599946 300.011626 
L 240.401415 299.310756 
L 245.202885 295.393709 
L 250.004354 295.286978 
L 254.805823 292.401669 
L 259.607292 293.988411 
L 264.408761 292.252245 
L 269.210231 286.125857 
L 274.0117 283.197856 
L 278.813169 285.496141 
L 283.614638 283.92363 
L 288.416108 283.005739 
L 293.217577 279.37331 
L 298.019046 281.55419 
L 302.820515 279.693505 
L 307.621985 276.075306 
L 312.423454 277.466374 
L 317.224923 271.446717 
L 322.026392 264.210321 
L 326.827862 262.253576 
L 331.629331 265.530234 
L 336.4308 265.341675 
L 341.232269 268.934969 
L 346.033739 263.698009 
L 350.835208 268.824679 
L 355.636677 267.245053 
L 360.438146 267.671979 
L 365.239615 267.248611 
L 370.041085 270.109015 
L 374.842554 270.358055 
L 379.644023 265.615619 
L 384.445492 262.726753 
L 389.246962 256.212573 
L 394.048431 257.180272 
L 398.8499 256.16988 
L 403.651369 255.241316 
L 408.452839 255.735839 
L 413.254308 256.639499 
L 418.055777 249.915414 
L 422.857246 248.794733 
L 427.658716 249.541854 
L 432.460185 250.726574 
L 437.261654 250.381475 
L 442.063123 245.219228 
L 446.864593 246.24385 
L 451.666062 251.359847 
L 456.467531 249.200313 
L 461.269 252.071391 
L 466.070469 240.57285 
L 470.871939 244.162586 
L 475.673408 248.257518 
L 480.474877 236.513495 
L 485.276346 231.973848 
L 490.077816 240.195732 
L 494.879285 234.008862 
L 499.680754 237.662637 
L 504.482223 230.344414 
L 509.283693 228.071032 
L 514.085162 222.2008 
L 518.886631 216.672108 
L 523.6881 216.889128 
L 528.48957 205.572031 
L 533.291039 208.617436 
L 538.092508 201.249405 
L 542.893977 198.243134 
" clip-path="url(#pcccef8f5df)" style="fill: none; stroke: #ff00ff; stroke-width: 2; stroke-linecap: square"/>
   </g>
   <g id="patch_3">
    <path d="M 43.78125 385.478125 
L 43.78125 22.318125 
" style="fill: none; stroke: #000000; stroke-width: 0.8; stroke-linejoin: miter; stroke-linecap: square"/>
   </g>
   <g id="patch_4">
    <path d="M 566.66125 385.478125 
L 566.66125 22.318125 
" style="fill: none; stroke: #000000; stroke-width: 0.8; stroke-linejoin: miter; stroke-linecap: square"/>
   </g>
   <g id="patch_5">
    <path d="M 43.78125 385.478125 
L 566.66125 385.478125 
" style="fill: none; stroke: #000000; stroke-width: 0.8; stroke-linejoin: miter; stroke-linecap: square"/>
   </g>
   <g id="patch_6">
    <path d="M 43.78125 22.318125 
L 566.66125 22.318125 
" style="fill: none; stroke: #000000; stroke-width: 0.8; stroke-linejoin: miter; stroke-linecap: square"/>
   </g>
   <g id="text_18">
    <!-- Accuracy Comparison - opp -->
    <g transform="translate(222.72875 16.318125) scale(0.12 -0.12)">
     <defs>
      <path id="DejaVuSans-70" d="M 1159 525 
L 1159 -1331 
L 581 -1331 
L 581 3500 
L 1159 3500 
L 1159 2969 
Q 1341 3281 1617 3432 
Q 1894 3584 2278 3584 
Q 2916 3584 3314 3078 
Q 3713 2572 3713 1747 
Q 3713 922 3314 415 
Q 2916 -91 2278 -91 
Q 1894 -91 1617 61 
Q 1341 213 1159 525 
z
M 3116 1747 
Q 3116 2381 2855 2742 
Q 2594 3103 2138 3103 
Q 1681 3103 1420 2742 
Q 1159 2381 1159 1747 
Q 1159 1113 1420 752 
Q 1681 391 2138 391 
Q 2594 391 2855 752 
Q 3116 1113 3116 1747 
z
" transform="scale(0.015625)"/>
      <path id="DejaVuSans-2d" d="M 313 2009 
L 1997 2009 
L 1997 1497 
L 313 1497 
L 313 2009 
z
" transform="scale(0.015625)"/>
     </defs>
     <use xlink:href="#DejaVuSans-41"/>
     <use xlink:href="#DejaVuSans-63" x="66.658203"/>
     <use xlink:href="#DejaVuSans-63" x="121.638672"/>
     <use xlink:href="#DejaVuSans-75" x="176.619141"/>
     <use xlink:href="#DejaVuSans-72" x="239.998047"/>
     <use xlink:href="#DejaVuSans-61" x="281.111328"/>
     <use xlink:href="#DejaVuSans-63" x="342.390625"/>
     <use xlink:href="#DejaVuSans-79" x="397.371094"/>
     <use xlink:href="#DejaVuSans-20" x="456.550781"/>
     <use xlink:href="#DejaVuSans-43" x="488.337891"/>
     <use xlink:href="#DejaVuSans-6f" x="558.162109"/>
     <use xlink:href="#DejaVuSans-6d" x="619.34375"/>
     <use xlink:href="#DejaVuSans-70" x="716.755859"/>
     <use xlink:href="#DejaVuSans-61" x="780.232422"/>
     <use xlink:href="#DejaVuSans-72" x="841.511719"/>
     <use xlink:href="#DejaVuSans-69" x="882.625"/>
     <use xlink:href="#DejaVuSans-73" x="910.408203"/>
     <use xlink:href="#DejaVuSans-6f" x="962.507812"/>
     <use xlink:href="#DejaVuSans-6e" x="1023.689453"/>
     <use xlink:href="#DejaVuSans-20" x="1087.068359"/>
     <use xlink:href="#DejaVuSans-2d" x="1118.855469"/>
     <use xlink:href="#DejaVuSans-20" x="1154.939453"/>
     <use xlink:href="#DejaVuSans-6f" x="1186.726562"/>
     <use xlink:href="#DejaVuSans-70" x="1247.908203"/>
     <use xlink:href="#DejaVuSans-70" x="1311.384766"/>
    </g>
   </g>
   <g id="legend_1">
    <g id="patch_7">
     <path d="M 483.120625 380.478125 
L 559.66125 380.478125 
Q 561.66125 380.478125 561.66125 378.478125 
L 561.66125 276.73125 
Q 561.66125 274.73125 559.66125 274.73125 
L 483.120625 274.73125 
Q 481.120625 274.73125 481.120625 276.73125 
L 481.120625 378.478125 
Q 481.120625 380.478125 483.120625 380.478125 
z
" style="fill: #ffffff; opacity: 0.8; stroke: #cccccc; stroke-linejoin: miter"/>
    </g>
    <g id="line2d_38">
     <path d="M 485.120625 282.829687 
L 495.120625 282.829687 
L 505.120625 282.829687 
" style="fill: none; stroke: #808080; stroke-width: 2; stroke-linecap: square"/>
    </g>
    <g id="text_19">
     <!-- Single -->
     <g transform="translate(513.120625 286.329687) scale(0.1 -0.1)">
      <defs>
       <path id="DejaVuSans-53" d="M 3425 4513 
L 3425 3897 
Q 3066 4069 2747 4153 
Q 2428 4238 2131 4238 
Q 1616 4238 1336 4038 
Q 1056 3838 1056 3469 
Q 1056 3159 1242 3001 
Q 1428 2844 1947 2747 
L 2328 2669 
Q 3034 2534 3370 2195 
Q 3706 1856 3706 1288 
Q 3706 609 3251 259 
Q 2797 -91 1919 -91 
Q 1588 -91 1214 -16 
Q 841 59 441 206 
L 441 856 
Q 825 641 1194 531 
Q 1563 422 1919 422 
Q 2459 422 2753 634 
Q 3047 847 3047 1241 
Q 3047 1584 2836 1778 
Q 2625 1972 2144 2069 
L 1759 2144 
Q 1053 2284 737 2584 
Q 422 2884 422 3419 
Q 422 4038 858 4394 
Q 1294 4750 2059 4750 
Q 2388 4750 2728 4690 
Q 3069 4631 3425 4513 
z
" transform="scale(0.015625)"/>
       <path id="DejaVuSans-67" d="M 2906 1791 
Q 2906 2416 2648 2759 
Q 2391 3103 1925 3103 
Q 1463 3103 1205 2759 
Q 947 2416 947 1791 
Q 947 1169 1205 825 
Q 1463 481 1925 481 
Q 2391 481 2648 825 
Q 2906 1169 2906 1791 
z
M 3481 434 
Q 3481 -459 3084 -895 
Q 2688 -1331 1869 -1331 
Q 1566 -1331 1297 -1286 
Q 1028 -1241 775 -1147 
L 775 -588 
Q 1028 -725 1275 -790 
Q 1522 -856 1778 -856 
Q 2344 -856 2625 -561 
Q 2906 -266 2906 331 
L 2906 616 
Q 2728 306 2450 153 
Q 2172 0 1784 0 
Q 1141 0 747 490 
Q 353 981 353 1791 
Q 353 2603 747 3093 
Q 1141 3584 1784 3584 
Q 2172 3584 2450 3431 
Q 2728 3278 2906 2969 
L 2906 3500 
L 3481 3500 
L 3481 434 
z
" transform="scale(0.015625)"/>
       <path id="DejaVuSans-65" d="M 3597 1894 
L 3597 1613 
L 953 1613 
Q 991 1019 1311 708 
Q 1631 397 2203 397 
Q 2534 397 2845 478 
Q 3156 559 3463 722 
L 3463 178 
Q 3153 47 2828 -22 
Q 2503 -91 2169 -91 
Q 1331 -91 842 396 
Q 353 884 353 1716 
Q 353 2575 817 3079 
Q 1281 3584 2069 3584 
Q 2775 3584 3186 3129 
Q 3597 2675 3597 1894 
z
M 3022 2063 
Q 3016 2534 2758 2815 
Q 2500 3097 2075 3097 
Q 1594 3097 1305 2825 
Q 1016 2553 972 2059 
L 3022 2063 
z
" transform="scale(0.015625)"/>
      </defs>
      <use xlink:href="#DejaVuSans-53"/>
      <use xlink:href="#DejaVuSans-69" x="63.476562"/>
      <use xlink:href="#DejaVuSans-6e" x="91.259766"/>
      <use xlink:href="#DejaVuSans-67" x="154.638672"/>
      <use xlink:href="#DejaVuSans-6c" x="218.115234"/>
      <use xlink:href="#DejaVuSans-65" x="245.898438"/>
     </g>
    </g>
    <g id="line2d_39">
     <path d="M 485.120625 297.507812 
L 495.120625 297.507812 
L 505.120625 297.507812 
" style="fill: none; stroke: #0000ff; stroke-width: 2; stroke-linecap: square"/>
    </g>
    <g id="text_20">
     <!-- FedAvg -->
     <g transform="translate(513.120625 301.007812) scale(0.1 -0.1)">
      <defs>
       <path id="DejaVuSans-46" d="M 628 4666 
L 3309 4666 
L 3309 4134 
L 1259 4134 
L 1259 2759 
L 3109 2759 
L 3109 2228 
L 1259 2228 
L 1259 0 
L 628 0 
L 628 4666 
z
" transform="scale(0.015625)"/>
       <path id="DejaVuSans-76" d="M 191 3500 
L 800 3500 
L 1894 563 
L 2988 3500 
L 3597 3500 
L 2284 0 
L 1503 0 
L 191 3500 
z
" transform="scale(0.015625)"/>
      </defs>
      <use xlink:href="#DejaVuSans-46"/>
      <use xlink:href="#DejaVuSans-65" x="52.019531"/>
      <use xlink:href="#DejaVuSans-64" x="113.542969"/>
      <use xlink:href="#DejaVuSans-41" x="177.019531"/>
      <use xlink:href="#DejaVuSans-76" x="239.552734"/>
      <use xlink:href="#DejaVuSans-67" x="298.732422"/>
     </g>
    </g>
    <g id="line2d_40">
     <path d="M 485.120625 312.185937 
L 495.120625 312.185937 
L 505.120625 312.185937 
" style="fill: none; stroke: #00ffff; stroke-width: 2; stroke-linecap: square"/>
    </g>
    <g id="text_21">
     <!-- FedProx -->
     <g transform="translate(513.120625 315.685937) scale(0.1 -0.1)">
      <defs>
       <path id="DejaVuSans-50" d="M 1259 4147 
L 1259 2394 
L 2053 2394 
Q 2494 2394 2734 2622 
Q 2975 2850 2975 3272 
Q 2975 3691 2734 3919 
Q 2494 4147 2053 4147 
L 1259 4147 
z
M 628 4666 
L 2053 4666 
Q 2838 4666 3239 4311 
Q 3641 3956 3641 3272 
Q 3641 2581 3239 2228 
Q 2838 1875 2053 1875 
L 1259 1875 
L 1259 0 
L 628 0 
L 628 4666 
z
" transform="scale(0.015625)"/>
       <path id="DejaVuSans-78" d="M 3513 3500 
L 2247 1797 
L 3578 0 
L 2900 0 
L 1881 1375 
L 863 0 
L 184 0 
L 1544 1831 
L 300 3500 
L 978 3500 
L 1906 2253 
L 2834 3500 
L 3513 3500 
z
" transform="scale(0.015625)"/>
      </defs>
      <use xlink:href="#DejaVuSans-46"/>
      <use xlink:href="#DejaVuSans-65" x="52.019531"/>
      <use xlink:href="#DejaVuSans-64" x="113.542969"/>
      <use xlink:href="#DejaVuSans-50" x="177.019531"/>
      <use xlink:href="#DejaVuSans-72" x="235.572266"/>
      <use xlink:href="#DejaVuSans-6f" x="274.435547"/>
      <use xlink:href="#DejaVuSans-78" x="332.492188"/>
     </g>
    </g>
    <g id="line2d_41">
     <path d="M 485.120625 326.864062 
L 495.120625 326.864062 
L 505.120625 326.864062 
" style="fill: none; stroke: #008000; stroke-width: 2; stroke-linecap: square"/>
    </g>
    <g id="text_22">
     <!-- FedProto -->
     <g transform="translate(513.120625 330.364062) scale(0.1 -0.1)">
      <use xlink:href="#DejaVuSans-46"/>
      <use xlink:href="#DejaVuSans-65" x="52.019531"/>
      <use xlink:href="#DejaVuSans-64" x="113.542969"/>
      <use xlink:href="#DejaVuSans-50" x="177.019531"/>
      <use xlink:href="#DejaVuSans-72" x="235.572266"/>
      <use xlink:href="#DejaVuSans-6f" x="274.435547"/>
      <use xlink:href="#DejaVuSans-74" x="335.617188"/>
      <use xlink:href="#DejaVuSans-6f" x="374.826172"/>
     </g>
    </g>
    <g id="line2d_42">
     <path d="M 485.120625 341.542187 
L 495.120625 341.542187 
L 505.120625 341.542187 
" style="fill: none; stroke: #ffa500; stroke-width: 2; stroke-linecap: square"/>
    </g>
    <g id="text_23">
     <!-- FedMEKT -->
     <g transform="translate(513.120625 345.042187) scale(0.1 -0.1)">
      <defs>
       <path id="DejaVuSans-4d" d="M 628 4666 
L 1569 4666 
L 2759 1491 
L 3956 4666 
L 4897 4666 
L 4897 0 
L 4281 0 
L 4281 4097 
L 3078 897 
L 2444 897 
L 1241 4097 
L 1241 0 
L 628 0 
L 628 4666 
z
" transform="scale(0.015625)"/>
       <path id="DejaVuSans-45" d="M 628 4666 
L 3578 4666 
L 3578 4134 
L 1259 4134 
L 1259 2753 
L 3481 2753 
L 3481 2222 
L 1259 2222 
L 1259 531 
L 3634 531 
L 3634 0 
L 628 0 
L 628 4666 
z
" transform="scale(0.015625)"/>
       <path id="DejaVuSans-4b" d="M 628 4666 
L 1259 4666 
L 1259 2694 
L 3353 4666 
L 4166 4666 
L 1850 2491 
L 4331 0 
L 3500 0 
L 1259 2247 
L 1259 0 
L 628 0 
L 628 4666 
z
" transform="scale(0.015625)"/>
       <path id="DejaVuSans-54" d="M -19 4666 
L 3928 4666 
L 3928 4134 
L 2272 4134 
L 2272 0 
L 1638 0 
L 1638 4134 
L -19 4134 
L -19 4666 
z
" transform="scale(0.015625)"/>
      </defs>
      <use xlink:href="#DejaVuSans-46"/>
      <use xlink:href="#DejaVuSans-65" x="52.019531"/>
      <use xlink:href="#DejaVuSans-64" x="113.542969"/>
      <use xlink:href="#DejaVuSans-4d" x="177.019531"/>
      <use xlink:href="#DejaVuSans-45" x="263.298828"/>
      <use xlink:href="#DejaVuSans-4b" x="326.482422"/>
      <use xlink:href="#DejaVuSans-54" x="384.308594"/>
     </g>
    </g>
    <g id="line2d_43">
     <path d="M 485.120625 356.220312 
L 495.120625 356.220312 
L 505.120625 356.220312 
" style="fill: none; stroke: #ff0000; stroke-width: 2; stroke-linecap: square"/>
    </g>
    <g id="text_24">
     <!-- FedProp -->
     <g transform="translate(513.120625 359.720312) scale(0.1 -0.1)">
      <use xlink:href="#DejaVuSans-46"/>
      <use xlink:href="#DejaVuSans-65" x="52.019531"/>
      <use xlink:href="#DejaVuSans-64" x="113.542969"/>
      <use xlink:href="#DejaVuSans-50" x="177.019531"/>
      <use xlink:href="#DejaVuSans-72" x="235.572266"/>
      <use xlink:href="#DejaVuSans-6f" x="274.435547"/>
      <use xlink:href="#DejaVuSans-70" x="335.617188"/>
     </g>
    </g>
    <g id="line2d_44">
     <path d="M 485.120625 370.898438 
L 495.120625 370.898438 
L 505.120625 370.898438 
" style="fill: none; stroke: #ff00ff; stroke-width: 2; stroke-linecap: square"/>
    </g>
    <g id="text_25">
     <!-- FedDTG -->
     <g transform="translate(513.120625 374.398438) scale(0.1 -0.1)">
      <defs>
       <path id="DejaVuSans-44" d="M 1259 4147 
L 1259 519 
L 2022 519 
Q 2988 519 3436 956 
Q 3884 1394 3884 2338 
Q 3884 3275 3436 3711 
Q 2988 4147 2022 4147 
L 1259 4147 
z
M 628 4666 
L 1925 4666 
Q 3281 4666 3915 4102 
Q 4550 3538 4550 2338 
Q 4550 1131 3912 565 
Q 3275 0 1925 0 
L 628 0 
L 628 4666 
z
" transform="scale(0.015625)"/>
      </defs>
      <use xlink:href="#DejaVuSans-46"/>
      <use xlink:href="#DejaVuSans-65" x="52.019531"/>
      <use xlink:href="#DejaVuSans-64" x="113.542969"/>
      <use xlink:href="#DejaVuSans-44" x="177.019531"/>
      <use xlink:href="#DejaVuSans-54" x="254.021484"/>
      <use xlink:href="#DejaVuSans-47" x="315.105469"/>
     </g>
    </g>
   </g>
  </g>
  <g id="axes_2">
   <g id="patch_8">
    <path d="M 614.38125 385.478125 
L 1137.26125 385.478125 
L 1137.26125 22.318125 
L 614.38125 22.318125 
z
" style="fill: #ffffff"/>
   </g>
   <g id="matplotlib.axis_3">
    <g id="xtick_7">
     <g id="line2d_45">
      <path d="M 633.347053 385.478125 
L 633.347053 22.318125 
" clip-path="url(#pf7f578f874)" style="fill: none; stroke: #b0b0b0; stroke-opacity: 0.3; stroke-width: 0.8; stroke-linecap: square"/>
     </g>
     <g id="line2d_46">
      <g>
       <use xlink:href="#m9c2b1e8139" x="633.347053" y="385.478125" style="stroke: #000000; stroke-width: 0.8"/>
      </g>
     </g>
     <g id="text_26">
      <!-- 0 -->
      <g transform="translate(630.165803 400.076562) scale(0.1 -0.1)">
       <use xlink:href="#DejaVuSans-30"/>
      </g>
     </g>
    </g>
    <g id="xtick_8">
     <g id="line2d_47">
      <path d="M 729.376438 385.478125 
L 729.376438 22.318125 
" clip-path="url(#pf7f578f874)" style="fill: none; stroke: #b0b0b0; stroke-opacity: 0.3; stroke-width: 0.8; stroke-linecap: square"/>
     </g>
     <g id="line2d_48">
      <g>
       <use xlink:href="#m9c2b1e8139" x="729.376438" y="385.478125" style="stroke: #000000; stroke-width: 0.8"/>
      </g>
     </g>
     <g id="text_27">
      <!-- 20 -->
      <g transform="translate(723.013938 400.076562) scale(0.1 -0.1)">
       <use xlink:href="#DejaVuSans-32"/>
       <use xlink:href="#DejaVuSans-30" x="63.623047"/>
      </g>
     </g>
    </g>
    <g id="xtick_9">
     <g id="line2d_49">
      <path d="M 825.405823 385.478125 
L 825.405823 22.318125 
" clip-path="url(#pf7f578f874)" style="fill: none; stroke: #b0b0b0; stroke-opacity: 0.3; stroke-width: 0.8; stroke-linecap: square"/>
     </g>
     <g id="line2d_50">
      <g>
       <use xlink:href="#m9c2b1e8139" x="825.405823" y="385.478125" style="stroke: #000000; stroke-width: 0.8"/>
      </g>
     </g>
     <g id="text_28">
      <!-- 40 -->
      <g transform="translate(819.043323 400.076562) scale(0.1 -0.1)">
       <use xlink:href="#DejaVuSans-34"/>
       <use xlink:href="#DejaVuSans-30" x="63.623047"/>
      </g>
     </g>
    </g>
    <g id="xtick_10">
     <g id="line2d_51">
      <path d="M 921.435208 385.478125 
L 921.435208 22.318125 
" clip-path="url(#pf7f578f874)" style="fill: none; stroke: #b0b0b0; stroke-opacity: 0.3; stroke-width: 0.8; stroke-linecap: square"/>
     </g>
     <g id="line2d_52">
      <g>
       <use xlink:href="#m9c2b1e8139" x="921.435208" y="385.478125" style="stroke: #000000; stroke-width: 0.8"/>
      </g>
     </g>
     <g id="text_29">
      <!-- 60 -->
      <g transform="translate(915.072708 400.076562) scale(0.1 -0.1)">
       <use xlink:href="#DejaVuSans-36"/>
       <use xlink:href="#DejaVuSans-30" x="63.623047"/>
      </g>
     </g>
    </g>
    <g id="xtick_11">
     <g id="line2d_53">
      <path d="M 1017.464593 385.478125 
L 1017.464593 22.318125 
" clip-path="url(#pf7f578f874)" style="fill: none; stroke: #b0b0b0; stroke-opacity: 0.3; stroke-width: 0.8; stroke-linecap: square"/>
     </g>
     <g id="line2d_54">
      <g>
       <use xlink:href="#m9c2b1e8139" x="1017.464593" y="385.478125" style="stroke: #000000; stroke-width: 0.8"/>
      </g>
     </g>
     <g id="text_30">
      <!-- 80 -->
      <g transform="translate(1011.102093 400.076562) scale(0.1 -0.1)">
       <use xlink:href="#DejaVuSans-38"/>
       <use xlink:href="#DejaVuSans-30" x="63.623047"/>
      </g>
     </g>
    </g>
    <g id="xtick_12">
     <g id="line2d_55">
      <path d="M 1113.493977 385.478125 
L 1113.493977 22.318125 
" clip-path="url(#pf7f578f874)" style="fill: none; stroke: #b0b0b0; stroke-opacity: 0.3; stroke-width: 0.8; stroke-linecap: square"/>
     </g>
     <g id="line2d_56">
      <g>
       <use xlink:href="#m9c2b1e8139" x="1113.493977" y="385.478125" style="stroke: #000000; stroke-width: 0.8"/>
      </g>
     </g>
     <g id="text_31">
      <!-- 100 -->
      <g transform="translate(1103.950227 400.076562) scale(0.1 -0.1)">
       <use xlink:href="#DejaVuSans-31"/>
       <use xlink:href="#DejaVuSans-30" x="63.623047"/>
       <use xlink:href="#DejaVuSans-30" x="127.246094"/>
      </g>
     </g>
    </g>
    <g id="text_32">
     <!-- Communication Rounds -->
     <g transform="translate(816.398594 413.754687) scale(0.1 -0.1)">
      <use xlink:href="#DejaVuSans-43"/>
      <use xlink:href="#DejaVuSans-6f" x="69.824219"/>
      <use xlink:href="#DejaVuSans-6d" x="131.005859"/>
      <use xlink:href="#DejaVuSans-6d" x="228.417969"/>
      <use xlink:href="#DejaVuSans-75" x="325.830078"/>
      <use xlink:href="#DejaVuSans-6e" x="389.208984"/>
      <use xlink:href="#DejaVuSans-69" x="452.587891"/>
      <use xlink:href="#DejaVuSans-63" x="480.371094"/>
      <use xlink:href="#DejaVuSans-61" x="535.351562"/>
      <use xlink:href="#DejaVuSans-74" x="596.630859"/>
      <use xlink:href="#DejaVuSans-69" x="635.839844"/>
      <use xlink:href="#DejaVuSans-6f" x="663.623047"/>
      <use xlink:href="#DejaVuSans-6e" x="724.804688"/>
      <use xlink:href="#DejaVuSans-20" x="788.183594"/>
      <use xlink:href="#DejaVuSans-52" x="819.970703"/>
      <use xlink:href="#DejaVuSans-6f" x="884.953125"/>
      <use xlink:href="#DejaVuSans-75" x="946.134766"/>
      <use xlink:href="#DejaVuSans-6e" x="1009.513672"/>
      <use xlink:href="#DejaVuSans-64" x="1072.892578"/>
      <use xlink:href="#DejaVuSans-73" x="1136.369141"/>
     </g>
    </g>
   </g>
   <g id="matplotlib.axis_4">
    <g id="ytick_10">
     <g id="line2d_57">
      <path d="M 614.38125 375.210653 
L 1137.26125 375.210653 
" clip-path="url(#pf7f578f874)" style="fill: none; stroke: #b0b0b0; stroke-opacity: 0.3; stroke-width: 0.8; stroke-linecap: square"/>
     </g>
     <g id="line2d_58">
      <g>
       <use xlink:href="#ma64a5697a9" x="614.38125" y="375.210653" style="stroke: #000000; stroke-width: 0.8"/>
      </g>
     </g>
     <g id="text_33">
      <!-- 0.0 -->
      <g transform="translate(591.478125 379.009871) scale(0.1 -0.1)">
       <use xlink:href="#DejaVuSans-30"/>
       <use xlink:href="#DejaVuSans-2e" x="63.623047"/>
       <use xlink:href="#DejaVuSans-30" x="95.410156"/>
      </g>
     </g>
    </g>
    <g id="ytick_11">
     <g id="line2d_59">
      <path d="M 614.38125 327.548992 
L 1137.26125 327.548992 
" clip-path="url(#pf7f578f874)" style="fill: none; stroke: #b0b0b0; stroke-opacity: 0.3; stroke-width: 0.8; stroke-linecap: square"/>
     </g>
     <g id="line2d_60">
      <g>
       <use xlink:href="#ma64a5697a9" x="614.38125" y="327.548992" style="stroke: #000000; stroke-width: 0.8"/>
      </g>
     </g>
     <g id="text_34">
      <!-- 0.1 -->
      <g transform="translate(591.478125 331.34821) scale(0.1 -0.1)">
       <use xlink:href="#DejaVuSans-30"/>
       <use xlink:href="#DejaVuSans-2e" x="63.623047"/>
       <use xlink:href="#DejaVuSans-31" x="95.410156"/>
      </g>
     </g>
    </g>
    <g id="ytick_12">
     <g id="line2d_61">
      <path d="M 614.38125 279.887331 
L 1137.26125 279.887331 
" clip-path="url(#pf7f578f874)" style="fill: none; stroke: #b0b0b0; stroke-opacity: 0.3; stroke-width: 0.8; stroke-linecap: square"/>
     </g>
     <g id="line2d_62">
      <g>
       <use xlink:href="#ma64a5697a9" x="614.38125" y="279.887331" style="stroke: #000000; stroke-width: 0.8"/>
      </g>
     </g>
     <g id="text_35">
      <!-- 0.2 -->
      <g transform="translate(591.478125 283.686549) scale(0.1 -0.1)">
       <use xlink:href="#DejaVuSans-30"/>
       <use xlink:href="#DejaVuSans-2e" x="63.623047"/>
       <use xlink:href="#DejaVuSans-32" x="95.410156"/>
      </g>
     </g>
    </g>
    <g id="ytick_13">
     <g id="line2d_63">
      <path d="M 614.38125 232.22567 
L 1137.26125 232.22567 
" clip-path="url(#pf7f578f874)" style="fill: none; stroke: #b0b0b0; stroke-opacity: 0.3; stroke-width: 0.8; stroke-linecap: square"/>
     </g>
     <g id="line2d_64">
      <g>
       <use xlink:href="#ma64a5697a9" x="614.38125" y="232.22567" style="stroke: #000000; stroke-width: 0.8"/>
      </g>
     </g>
     <g id="text_36">
      <!-- 0.3 -->
      <g transform="translate(591.478125 236.024888) scale(0.1 -0.1)">
       <use xlink:href="#DejaVuSans-30"/>
       <use xlink:href="#DejaVuSans-2e" x="63.623047"/>
       <use xlink:href="#DejaVuSans-33" x="95.410156"/>
      </g>
     </g>
    </g>
    <g id="ytick_14">
     <g id="line2d_65">
      <path d="M 614.38125 184.564009 
L 1137.26125 184.564009 
" clip-path="url(#pf7f578f874)" style="fill: none; stroke: #b0b0b0; stroke-opacity: 0.3; stroke-width: 0.8; stroke-linecap: square"/>
     </g>
     <g id="line2d_66">
      <g>
       <use xlink:href="#ma64a5697a9" x="614.38125" y="184.564009" style="stroke: #000000; stroke-width: 0.8"/>
      </g>
     </g>
     <g id="text_37">
      <!-- 0.4 -->
      <g transform="translate(591.478125 188.363227) scale(0.1 -0.1)">
       <use xlink:href="#DejaVuSans-30"/>
       <use xlink:href="#DejaVuSans-2e" x="63.623047"/>
       <use xlink:href="#DejaVuSans-34" x="95.410156"/>
      </g>
     </g>
    </g>
    <g id="ytick_15">
     <g id="line2d_67">
      <path d="M 614.38125 136.902347 
L 1137.26125 136.902347 
" clip-path="url(#pf7f578f874)" style="fill: none; stroke: #b0b0b0; stroke-opacity: 0.3; stroke-width: 0.8; stroke-linecap: square"/>
     </g>
     <g id="line2d_68">
      <g>
       <use xlink:href="#ma64a5697a9" x="614.38125" y="136.902347" style="stroke: #000000; stroke-width: 0.8"/>
      </g>
     </g>
     <g id="text_38">
      <!-- 0.5 -->
      <g transform="translate(591.478125 140.701566) scale(0.1 -0.1)">
       <use xlink:href="#DejaVuSans-30"/>
       <use xlink:href="#DejaVuSans-2e" x="63.623047"/>
       <use xlink:href="#DejaVuSans-35" x="95.410156"/>
      </g>
     </g>
    </g>
    <g id="ytick_16">
     <g id="line2d_69">
      <path d="M 614.38125 89.240686 
L 1137.26125 89.240686 
" clip-path="url(#pf7f578f874)" style="fill: none; stroke: #b0b0b0; stroke-opacity: 0.3; stroke-width: 0.8; stroke-linecap: square"/>
     </g>
     <g id="line2d_70">
      <g>
       <use xlink:href="#ma64a5697a9" x="614.38125" y="89.240686" style="stroke: #000000; stroke-width: 0.8"/>
      </g>
     </g>
     <g id="text_39">
      <!-- 0.6 -->
      <g transform="translate(591.478125 93.039905) scale(0.1 -0.1)">
       <use xlink:href="#DejaVuSans-30"/>
       <use xlink:href="#DejaVuSans-2e" x="63.623047"/>
       <use xlink:href="#DejaVuSans-36" x="95.410156"/>
      </g>
     </g>
    </g>
    <g id="ytick_17">
     <g id="line2d_71">
      <path d="M 614.38125 41.579025 
L 1137.26125 41.579025 
" clip-path="url(#pf7f578f874)" style="fill: none; stroke: #b0b0b0; stroke-opacity: 0.3; stroke-width: 0.8; stroke-linecap: square"/>
     </g>
     <g id="line2d_72">
      <g>
       <use xlink:href="#ma64a5697a9" x="614.38125" y="41.579025" style="stroke: #000000; stroke-width: 0.8"/>
      </g>
     </g>
     <g id="text_40">
      <!-- 0.7 -->
      <g transform="translate(591.478125 45.378244) scale(0.1 -0.1)">
       <use xlink:href="#DejaVuSans-30"/>
       <use xlink:href="#DejaVuSans-2e" x="63.623047"/>
       <use xlink:href="#DejaVuSans-37" x="95.410156"/>
      </g>
     </g>
    </g>
    <g id="text_41">
     <!-- Global F1 Score -->
     <g transform="translate(585.398438 243.085625) rotate(-90) scale(0.1 -0.1)">
      <use xlink:href="#DejaVuSans-47"/>
      <use xlink:href="#DejaVuSans-6c" x="77.490234"/>
      <use xlink:href="#DejaVuSans-6f" x="105.273438"/>
      <use xlink:href="#DejaVuSans-62" x="166.455078"/>
      <use xlink:href="#DejaVuSans-61" x="229.931641"/>
      <use xlink:href="#DejaVuSans-6c" x="291.210938"/>
      <use xlink:href="#DejaVuSans-20" x="318.994141"/>
      <use xlink:href="#DejaVuSans-46" x="350.78125"/>
      <use xlink:href="#DejaVuSans-31" x="408.300781"/>
      <use xlink:href="#DejaVuSans-20" x="471.923828"/>
      <use xlink:href="#DejaVuSans-53" x="503.710938"/>
      <use xlink:href="#DejaVuSans-63" x="567.1875"/>
      <use xlink:href="#DejaVuSans-6f" x="622.167969"/>
      <use xlink:href="#DejaVuSans-72" x="683.349609"/>
      <use xlink:href="#DejaVuSans-65" x="722.212891"/>
     </g>
    </g>
   </g>
   <g id="line2d_73">
    <path d="M 638.148523 325.41719 
L 642.949992 313.745232 
L 647.751461 300.758651 
L 652.55293 287.778547 
L 657.3544 272.383741 
L 662.155869 253.853315 
L 666.957338 236.225969 
L 671.758807 218.811707 
L 676.560277 207.167495 
L 681.361746 195.665298 
L 686.163215 181.030371 
L 690.964684 168.630461 
L 695.766154 156.501033 
L 700.567623 147.380572 
L 705.369092 137.100584 
L 710.170561 128.053736 
L 714.972031 119.955737 
L 719.7735 110.177226 
L 724.574969 102.789693 
L 729.376438 96.69782 
L 734.177907 92.511249 
L 738.979377 87.749595 
L 743.780846 83.759532 
L 748.582315 80.122449 
L 753.383784 76.708835 
L 758.185254 72.840301 
L 762.986723 69.570067 
L 767.788192 66.76985 
L 772.589661 64.437972 
L 777.391131 62.658609 
L 782.1926 60.279386 
L 786.994069 58.293621 
L 791.795538 56.473407 
L 796.597008 54.369428 
L 801.398477 52.91651 
L 806.199946 51.702973 
L 811.001415 50.451309 
L 815.802885 49.810779 
L 820.604354 49.328364 
L 825.405823 48.756325 
L 830.207292 48.137847 
L 835.008761 47.600765 
L 839.810231 47.090342 
L 844.6117 46.564756 
L 849.413169 46.066373 
L 854.214638 45.583015 
L 859.016108 45.186034 
L 863.817577 44.937807 
L 868.619046 44.646534 
L 873.420515 44.334992 
L 878.221985 44.047201 
L 883.023454 43.813582 
L 887.824923 43.543616 
L 892.626392 43.312512 
L 897.427862 43.044152 
L 902.229331 42.779869 
L 907.0308 42.515028 
L 911.832269 42.28887 
L 916.633739 42.051041 
L 921.435208 41.724407 
L 926.236677 41.215887 
L 931.038146 40.977229 
L 935.839615 40.836952 
L 940.641085 40.722133 
L 945.442554 40.659126 
L 950.244023 40.554827 
L 955.045492 40.47741 
L 959.846962 40.372673 
L 964.648431 40.294234 
L 969.4499 40.232331 
L 974.251369 40.186837 
L 979.052839 40.117529 
L 983.854308 40.057097 
L 988.655777 39.990648 
L 993.457246 39.946957 
L 998.258716 39.88374 
L 1003.060185 39.836944 
L 1007.861654 39.808876 
L 1012.663123 39.746437 
L 1017.464593 39.722387 
L 1022.266062 39.665242 
L 1027.067531 39.651323 
L 1031.869 39.60336 
L 1036.670469 39.567037 
L 1041.471939 39.541863 
L 1046.273408 39.515935 
L 1051.074877 39.491593 
L 1055.876346 39.472758 
L 1060.677816 39.453168 
L 1065.479285 39.424438 
L 1070.280754 39.408082 
L 1075.082223 39.393309 
L 1079.883693 39.385276 
L 1084.685162 39.374902 
L 1089.486631 39.368514 
L 1094.2881 39.35773 
L 1099.08957 39.338979 
L 1103.891039 39.326206 
L 1108.692508 39.316246 
L 1113.493977 39.299902 
" clip-path="url(#pf7f578f874)" style="fill: none; stroke: #808080; stroke-width: 2; stroke-linecap: square"/>
   </g>
   <g id="line2d_74">
    <path d="M 638.148523 366.673961 
L 642.949992 368.263351 
L 647.751461 368.157552 
L 652.55293 364.403394 
L 657.3544 365.041671 
L 662.155869 360.340941 
L 666.957338 352.02351 
L 671.758807 347.963728 
L 676.560277 340.053845 
L 681.361746 326.984749 
L 686.163215 319.152945 
L 690.964684 314.621291 
L 695.766154 303.163008 
L 700.567623 285.450043 
L 705.369092 274.829054 
L 710.170561 261.265327 
L 714.972031 248.427288 
L 719.7735 237.517941 
L 724.574969 227.813115 
L 729.376438 230.244349 
L 734.177907 230.205168 
L 738.979377 227.386515 
L 743.780846 227.296969 
L 748.582315 219.270791 
L 753.383784 216.145681 
L 758.185254 207.821986 
L 762.986723 211.606578 
L 767.788192 211.842983 
L 772.589661 216.932024 
L 777.391131 209.065764 
L 782.1926 210.364941 
L 786.994069 204.839175 
L 791.795538 198.861297 
L 796.597008 193.231772 
L 801.398477 193.455712 
L 806.199946 185.697783 
L 811.001415 189.140284 
L 815.802885 182.09597 
L 820.604354 181.195861 
L 825.405823 177.349139 
L 830.207292 169.067261 
L 835.008761 170.159212 
L 839.810231 160.687765 
L 844.6117 159.72653 
L 849.413169 158.037884 
L 854.214638 157.546357 
L 859.016108 157.236018 
L 863.817577 145.865821 
L 868.619046 137.164672 
L 873.420515 136.730053 
L 878.221985 141.85456 
L 883.023454 135.856187 
L 887.824923 125.726132 
L 892.626392 120.413439 
L 897.427862 117.272429 
L 902.229331 106.043396 
L 907.0308 112.556656 
L 911.832269 101.006147 
L 916.633739 101.438785 
L 921.435208 96.842071 
L 926.236677 91.720476 
L 931.038146 87.646577 
L 935.839615 88.082038 
L 940.641085 81.804283 
L 945.442554 77.080613 
L 950.244023 76.099643 
L 955.045492 69.759625 
L 959.846962 67.015142 
L 964.648431 68.650079 
L 969.4499 67.485334 
L 974.251369 64.697155 
L 979.052839 66.504249 
L 983.854308 67.842758 
L 988.655777 65.147314 
L 993.457246 68.190681 
L 998.258716 68.58041 
L 1003.060185 67.056334 
L 1007.861654 61.354864 
L 1012.663123 59.20463 
L 1017.464593 58.810244 
L 1022.266062 63.714303 
L 1027.067531 63.768023 
L 1031.869 64.560733 
L 1036.670469 64.217212 
L 1041.471939 62.588352 
L 1046.273408 60.847826 
L 1051.074877 60.085713 
L 1055.876346 59.832761 
L 1060.677816 59.453447 
L 1065.479285 57.412221 
L 1070.280754 59.102294 
L 1075.082223 59.746411 
L 1079.883693 59.627664 
L 1084.685162 56.808675 
L 1089.486631 60.515816 
L 1094.2881 57.488323 
L 1099.08957 57.084581 
L 1103.891039 53.694113 
L 1108.692508 51.711869 
L 1113.493977 51.697929 
" clip-path="url(#pf7f578f874)" style="fill: none; stroke: #0000ff; stroke-width: 2; stroke-linecap: square"/>
   </g>
   <g id="line2d_75">
    <path d="M 638.148523 366.673961 
L 642.949992 368.263351 
L 647.751461 368.157552 
L 652.55293 364.403394 
L 657.3544 365.041671 
L 662.155869 360.340941 
L 666.957338 352.02351 
L 671.758807 347.963728 
L 676.560277 340.053845 
L 681.361746 326.984749 
L 686.163215 319.152945 
L 690.964684 314.621291 
L 695.766154 303.163008 
L 700.567623 285.450043 
L 705.369092 274.829054 
L 710.170561 261.265327 
L 714.972031 248.427288 
L 719.7735 237.517941 
L 724.574969 227.813115 
L 729.376438 230.244349 
L 734.177907 230.205168 
L 738.979377 227.386515 
L 743.780846 227.296969 
L 748.582315 219.270791 
L 753.383784 216.145681 
L 758.185254 207.821986 
L 762.986723 211.606578 
L 767.788192 211.842983 
L 772.589661 216.932024 
L 777.391131 209.065764 
L 782.1926 210.364941 
L 786.994069 204.839175 
L 791.795538 198.861297 
L 796.597008 193.231772 
L 801.398477 193.455712 
L 806.199946 185.697783 
L 811.001415 189.140284 
L 815.802885 182.09597 
L 820.604354 181.195861 
L 825.405823 177.349139 
L 830.207292 169.067261 
L 835.008761 170.159212 
L 839.810231 160.687765 
L 844.6117 159.72653 
L 849.413169 158.037884 
L 854.214638 157.546357 
L 859.016108 157.236018 
L 863.817577 145.865821 
L 868.619046 137.164672 
L 873.420515 136.730053 
L 878.221985 141.85456 
L 883.023454 135.856187 
L 887.824923 125.726132 
L 892.626392 120.413439 
L 897.427862 117.272429 
L 902.229331 106.043396 
L 907.0308 112.556656 
L 911.832269 101.006147 
L 916.633739 101.438785 
L 921.435208 96.842071 
L 926.236677 91.720476 
L 931.038146 87.646577 
L 935.839615 88.082038 
L 940.641085 81.804283 
L 945.442554 77.080613 
L 950.244023 76.099643 
L 955.045492 69.759625 
L 959.846962 67.015142 
L 964.648431 68.650079 
L 969.4499 67.485334 
L 974.251369 64.697155 
L 979.052839 66.504249 
L 983.854308 67.842758 
L 988.655777 65.147314 
L 993.457246 68.190681 
L 998.258716 68.58041 
L 1003.060185 67.056334 
L 1007.861654 61.354864 
L 1012.663123 59.20463 
L 1017.464593 58.810244 
L 1022.266062 63.714303 
L 1027.067531 63.768023 
L 1031.869 64.560733 
L 1036.670469 64.217212 
L 1041.471939 62.588352 
L 1046.273408 60.847826 
L 1051.074877 60.085713 
L 1055.876346 59.832761 
L 1060.677816 59.453447 
L 1065.479285 57.412221 
L 1070.280754 59.102294 
L 1075.082223 59.746411 
L 1079.883693 59.627664 
L 1084.685162 56.808675 
L 1089.486631 60.515816 
L 1094.2881 57.488323 
L 1099.08957 57.084581 
L 1103.891039 53.694113 
L 1108.692508 51.711869 
L 1113.493977 51.697929 
" clip-path="url(#pf7f578f874)" style="fill: none; stroke: #00ffff; stroke-width: 2; stroke-linecap: square"/>
   </g>
   <g id="line2d_76">
    <path d="M 638.148523 358.248681 
L 642.949992 352.091088 
L 647.751461 343.537933 
L 652.55293 332.832316 
L 657.3544 321.089693 
L 662.155869 306.597015 
L 666.957338 290.583929 
L 671.758807 271.706845 
L 676.560277 255.893697 
L 681.361746 234.456703 
L 686.163215 216.276179 
L 690.964684 196.128116 
L 695.766154 178.756914 
L 700.567623 166.794185 
L 705.369092 152.918329 
L 710.170561 142.725292 
L 714.972031 134.383769 
L 719.7735 128.591536 
L 724.574969 121.436378 
L 729.376438 116.472547 
L 734.177907 112.315275 
L 738.979377 108.884216 
L 743.780846 106.384658 
L 748.582315 103.736781 
L 753.383784 101.950394 
L 758.185254 100.080881 
L 762.986723 98.57659 
L 767.788192 97.14914 
L 772.589661 95.931828 
L 777.391131 94.725405 
L 782.1926 93.880003 
L 786.994069 92.766833 
L 791.795538 91.907748 
L 796.597008 91.300187 
L 801.398477 90.727482 
L 806.199946 90.199727 
L 811.001415 89.49784 
L 815.802885 88.725622 
L 820.604354 87.980191 
L 825.405823 87.361513 
L 830.207292 86.781274 
L 835.008761 86.354195 
L 839.810231 85.943435 
L 844.6117 85.399006 
L 849.413169 84.867067 
L 854.214638 84.398639 
L 859.016108 83.979202 
L 863.817577 83.670826 
L 868.619046 83.362202 
L 873.420515 82.89013 
L 878.221985 82.302041 
L 883.023454 81.701459 
L 887.824923 80.974318 
L 892.626392 80.000342 
L 897.427862 79.514878 
L 902.229331 79.199972 
L 907.0308 78.792312 
L 911.832269 78.407834 
L 916.633739 78.08364 
L 921.435208 77.745561 
L 926.236677 77.426143 
L 931.038146 76.965327 
L 935.839615 76.568297 
L 940.641085 76.060914 
L 945.442554 75.760426 
L 950.244023 75.49172 
L 955.045492 75.298139 
L 959.846962 75.041645 
L 964.648431 74.804983 
L 969.4499 74.481711 
L 974.251369 74.200481 
L 979.052839 73.931912 
L 983.854308 73.662397 
L 988.655777 73.398785 
L 993.457246 73.127454 
L 998.258716 72.864588 
L 1003.060185 72.547089 
L 1007.861654 72.185867 
L 1012.663123 71.954708 
L 1017.464593 71.698403 
L 1022.266062 71.375228 
L 1027.067531 71.128963 
L 1031.869 70.916979 
L 1036.670469 70.61278 
L 1041.471939 70.346035 
L 1046.273408 70.062642 
L 1051.074877 69.773589 
L 1055.876346 69.51569 
L 1060.677816 69.23975 
L 1065.479285 69.012213 
L 1070.280754 68.753631 
L 1075.082223 68.490531 
L 1079.883693 68.319112 
L 1084.685162 68.148879 
L 1089.486631 67.96211 
L 1094.2881 67.694982 
L 1099.08957 67.556946 
L 1103.891039 67.507714 
L 1108.692508 67.444846 
L 1113.493977 67.201827 
" clip-path="url(#pf7f578f874)" style="fill: none; stroke: #008000; stroke-width: 2; stroke-linecap: square"/>
   </g>
   <g id="line2d_77">
    <path d="M 638.148523 357.924574 
L 642.949992 351.687045 
L 647.751461 341.434566 
L 652.55293 329.514966 
L 657.3544 312.487438 
L 662.155869 292.885669 
L 666.957338 274.593917 
L 671.758807 254.367923 
L 676.560277 232.390858 
L 681.361746 212.838178 
L 686.163215 194.126864 
L 690.964684 178.045533 
L 695.766154 166.069897 
L 700.567623 154.363319 
L 705.369092 143.979599 
L 710.170561 135.594762 
L 714.972031 129.607157 
L 719.7735 124.367379 
L 724.574969 118.847302 
L 729.376438 114.124289 
L 734.177907 110.981771 
L 738.979377 107.617765 
L 743.780846 105.087936 
L 748.582315 103.21819 
L 753.383784 101.046937 
L 758.185254 99.391376 
L 762.986723 98.207704 
L 767.788192 96.987013 
L 772.589661 95.672936 
L 777.391131 94.470248 
L 782.1926 93.425711 
L 786.994069 92.435975 
L 791.795538 91.70437 
L 796.597008 90.974032 
L 801.398477 90.416312 
L 806.199946 89.778876 
L 811.001415 89.061934 
L 815.802885 88.397284 
L 820.604354 87.666502 
L 825.405823 87.138499 
L 830.207292 86.606821 
L 835.008761 86.000015 
L 839.810231 85.504239 
L 844.6117 84.800236 
L 849.413169 84.210285 
L 854.214638 83.921658 
L 859.016108 83.549475 
L 863.817577 83.205068 
L 868.619046 82.895238 
L 873.420515 82.499407 
L 878.221985 81.93744 
L 883.023454 81.440217 
L 887.824923 80.646715 
L 892.626392 79.519265 
L 897.427862 79.041782 
L 902.229331 78.609812 
L 907.0308 78.250037 
L 911.832269 77.867589 
L 916.633739 77.350944 
L 921.435208 76.964567 
L 926.236677 76.625922 
L 931.038146 76.011146 
L 935.839615 75.628082 
L 940.641085 75.28138 
L 945.442554 75.025324 
L 950.244023 74.770344 
L 955.045492 74.538891 
L 959.846962 74.18383 
L 964.648431 73.870666 
L 969.4499 73.490517 
L 974.251369 73.196934 
L 979.052839 72.972863 
L 983.854308 72.773481 
L 988.655777 72.511426 
L 993.457246 72.167269 
L 998.258716 71.886121 
L 1003.060185 71.616543 
L 1007.861654 71.321101 
L 1012.663123 71.042399 
L 1017.464593 70.690155 
L 1022.266062 70.524043 
L 1027.067531 70.353364 
L 1031.869 70.022397 
L 1036.670469 69.727962 
L 1041.471939 69.5499 
L 1046.273408 69.44923 
L 1051.074877 69.298773 
L 1055.876346 69.292102 
L 1060.677816 69.288379 
L 1065.479285 69.159365 
L 1070.280754 68.936566 
L 1075.082223 68.727175 
L 1079.883693 68.470548 
L 1084.685162 68.185401 
L 1089.486631 67.927296 
L 1094.2881 67.676997 
L 1099.08957 67.426077 
L 1103.891039 67.124881 
L 1108.692508 66.805026 
L 1113.493977 66.570152 
" clip-path="url(#pf7f578f874)" style="fill: none; stroke: #ffa500; stroke-width: 2; stroke-linecap: square"/>
   </g>
   <g id="line2d_78">
    <path d="M 638.148523 297.09979 
L 642.949992 257.154066 
L 647.751461 216.751862 
L 652.55293 169.976335 
L 657.3544 137.251408 
L 662.155869 104.816909 
L 666.957338 81.578068 
L 671.758807 60.4159 
L 676.560277 49.290542 
L 681.361746 43.193088 
L 686.163215 41.610698 
L 690.964684 40.720557 
L 695.766154 39.694101 
L 700.567623 39.082701 
L 705.369092 38.895112 
L 710.170561 38.842913 
L 714.972031 38.826208 
L 719.7735 38.825398 
L 724.574969 38.830143 
L 729.376438 38.841216 
L 734.177907 38.841216 
L 738.979377 38.841216 
L 743.780846 38.841216 
L 748.582315 38.841216 
L 753.383784 38.841216 
L 758.185254 38.841216 
L 762.986723 38.841216 
L 767.788192 38.841216 
L 772.589661 38.841216 
L 777.391131 38.841216 
L 782.1926 38.841216 
L 786.994069 38.841216 
L 791.795538 38.841216 
L 796.597008 38.841216 
L 801.398477 38.841216 
L 806.199946 38.841216 
L 811.001415 38.841216 
L 815.802885 38.841216 
L 820.604354 38.841216 
L 825.405823 38.841216 
L 830.207292 38.841216 
L 835.008761 38.841216 
L 839.810231 38.841216 
L 844.6117 38.841216 
L 849.413169 38.841216 
L 854.214638 38.841216 
L 859.016108 38.841216 
L 863.817577 38.841216 
L 868.619046 38.841216 
L 873.420515 38.841216 
L 878.221985 38.841216 
L 883.023454 38.841216 
L 887.824923 38.841216 
L 892.626392 38.841216 
L 897.427862 38.841216 
L 902.229331 38.841216 
L 907.0308 38.841216 
L 911.832269 38.841216 
L 916.633739 38.841216 
L 921.435208 38.841216 
L 926.236677 38.841216 
L 931.038146 38.841216 
L 935.839615 38.841216 
L 940.641085 38.841216 
L 945.442554 38.841216 
L 950.244023 38.841216 
L 955.045492 38.841216 
L 959.846962 38.841216 
L 964.648431 38.841216 
L 969.4499 38.841216 
L 974.251369 38.841216 
L 979.052839 38.841216 
L 983.854308 38.841216 
L 988.655777 38.841216 
L 993.457246 38.841216 
L 998.258716 38.841216 
L 1003.060185 38.841216 
L 1007.861654 38.841216 
L 1012.663123 38.841216 
L 1017.464593 38.85115 
L 1022.266062 38.861085 
L 1027.067531 38.863072 
L 1031.869 38.865059 
L 1036.670469 38.867046 
L 1041.471939 38.869033 
L 1046.273408 38.87102 
L 1051.074877 38.87102 
L 1055.876346 38.8754 
L 1060.677816 38.884159 
L 1065.479285 38.886147 
L 1070.280754 38.890121 
L 1075.082223 38.890527 
L 1079.883693 38.894501 
L 1084.685162 38.896489 
L 1089.486631 38.900464 
L 1094.2881 38.900464 
L 1099.08957 38.906426 
L 1103.891039 38.912389 
L 1108.692508 38.914376 
L 1113.493977 38.918351 
" clip-path="url(#pf7f578f874)" style="fill: none; stroke: #ff0000; stroke-width: 2; stroke-linecap: square"/>
   </g>
   <g id="line2d_79">
    <path d="M 638.148523 366.717286 
L 642.949992 368.324944 
L 647.751461 368.970852 
L 652.55293 367.099509 
L 657.3544 365.723822 
L 662.155869 365.269772 
L 666.957338 363.544584 
L 671.758807 363.544976 
L 676.560277 359.273895 
L 681.361746 357.143402 
L 686.163215 356.136009 
L 690.964684 355.713869 
L 695.766154 354.583958 
L 700.567623 354.30973 
L 705.369092 351.223777 
L 710.170561 342.242705 
L 714.972031 342.162504 
L 719.7735 338.780449 
L 724.574969 334.566881 
L 729.376438 334.580031 
L 734.177907 331.955878 
L 738.979377 326.827476 
L 743.780846 310.361492 
L 748.582315 310.346372 
L 753.383784 297.403176 
L 758.185254 299.175921 
L 762.986723 288.11966 
L 767.788192 289.981917 
L 772.589661 277.911653 
L 777.391131 274.561581 
L 782.1926 270.231288 
L 786.994069 267.511763 
L 791.795538 264.150254 
L 796.597008 261.417522 
L 801.398477 256.133003 
L 806.199946 249.458719 
L 811.001415 248.377965 
L 815.802885 243.268799 
L 820.604354 243.247975 
L 825.405823 239.620508 
L 830.207292 241.595472 
L 835.008761 239.260889 
L 839.810231 231.768795 
L 844.6117 228.280987 
L 849.413169 231.670972 
L 854.214638 229.889965 
L 859.016108 228.778664 
L 863.817577 224.481837 
L 868.619046 227.439405 
L 873.420515 225.118297 
L 878.221985 220.945628 
L 883.023454 222.785645 
L 887.824923 215.54351 
L 892.626392 207.163233 
L 897.427862 205.110845 
L 902.229331 209.26174 
L 907.0308 209.029478 
L 911.832269 213.405289 
L 916.633739 207.258289 
L 921.435208 213.499198 
L 926.236677 211.913595 
L 931.038146 212.365753 
L 935.839615 211.678984 
L 940.641085 215.467556 
L 945.442554 215.274118 
L 950.244023 210.649802 
L 955.045492 207.446691 
L 959.846962 200.572356 
L 964.648431 201.325548 
L 969.4499 199.808097 
L 974.251369 199.101662 
L 979.052839 199.388356 
L 983.854308 200.572668 
L 988.655777 192.558045 
L 993.457246 191.702341 
L 998.258716 192.192473 
L 1003.060185 193.888318 
L 1007.861654 194.006425 
L 1012.663123 187.742062 
L 1017.464593 189.058355 
L 1022.266062 194.127349 
L 1027.067531 192.083698 
L 1031.869 195.102249 
L 1036.670469 183.510053 
L 1041.471939 187.589117 
L 1046.273408 191.889981 
L 1051.074877 179.979501 
L 1055.876346 175.495562 
L 1060.677816 183.663545 
L 1065.479285 177.531673 
L 1070.280754 181.373967 
L 1075.082223 173.650642 
L 1079.883693 171.166171 
L 1084.685162 165.346391 
L 1089.486631 159.818049 
L 1094.2881 160.169579 
L 1099.08957 149.833264 
L 1103.891039 152.458453 
L 1108.692508 145.717335 
L 1113.493977 142.509575 
" clip-path="url(#pf7f578f874)" style="fill: none; stroke: #ff00ff; stroke-width: 2; stroke-linecap: square"/>
   </g>
   <g id="patch_9">
    <path d="M 614.38125 385.478125 
L 614.38125 22.318125 
" style="fill: none; stroke: #000000; stroke-width: 0.8; stroke-linejoin: miter; stroke-linecap: square"/>
   </g>
   <g id="patch_10">
    <path d="M 1137.26125 385.478125 
L 1137.26125 22.318125 
" style="fill: none; stroke: #000000; stroke-width: 0.8; stroke-linejoin: miter; stroke-linecap: square"/>
   </g>
   <g id="patch_11">
    <path d="M 614.38125 385.478125 
L 1137.26125 385.478125 
" style="fill: none; stroke: #000000; stroke-width: 0.8; stroke-linejoin: miter; stroke-linecap: square"/>
   </g>
   <g id="patch_12">
    <path d="M 614.38125 22.318125 
L 1137.26125 22.318125 
" style="fill: none; stroke: #000000; stroke-width: 0.8; stroke-linejoin: miter; stroke-linecap: square"/>
   </g>
   <g id="text_42">
    <!-- F1 Score Comparison - opp -->
    <g transform="translate(794.744375 16.318125) scale(0.12 -0.12)">
     <use xlink:href="#DejaVuSans-46"/>
     <use xlink:href="#DejaVuSans-31" x="57.519531"/>
     <use xlink:href="#DejaVuSans-20" x="121.142578"/>
     <use xlink:href="#DejaVuSans-53" x="152.929688"/>
     <use xlink:href="#DejaVuSans-63" x="216.40625"/>
     <use xlink:href="#DejaVuSans-6f" x="271.386719"/>
     <use xlink:href="#DejaVuSans-72" x="332.568359"/>
     <use xlink:href="#DejaVuSans-65" x="371.431641"/>
     <use xlink:href="#DejaVuSans-20" x="432.955078"/>
     <use xlink:href="#DejaVuSans-43" x="464.742188"/>
     <use xlink:href="#DejaVuSans-6f" x="534.566406"/>
     <use xlink:href="#DejaVuSans-6d" x="595.748047"/>
     <use xlink:href="#DejaVuSans-70" x="693.160156"/>
     <use xlink:href="#DejaVuSans-61" x="756.636719"/>
     <use xlink:href="#DejaVuSans-72" x="817.916016"/>
     <use xlink:href="#DejaVuSans-69" x="859.029297"/>
     <use xlink:href="#DejaVuSans-73" x="886.8125"/>
     <use xlink:href="#DejaVuSans-6f" x="938.912109"/>
     <use xlink:href="#DejaVuSans-6e" x="1000.09375"/>
     <use xlink:href="#DejaVuSans-20" x="1063.472656"/>
     <use xlink:href="#DejaVuSans-2d" x="1095.259766"/>
     <use xlink:href="#DejaVuSans-20" x="1131.34375"/>
     <use xlink:href="#DejaVuSans-6f" x="1163.130859"/>
     <use xlink:href="#DejaVuSans-70" x="1224.3125"/>
     <use xlink:href="#DejaVuSans-70" x="1287.789062"/>
    </g>
   </g>
   <g id="legend_2">
    <g id="patch_13">
     <path d="M 1053.720625 380.478125 
L 1130.26125 380.478125 
Q 1132.26125 380.478125 1132.26125 378.478125 
L 1132.26125 276.73125 
Q 1132.26125 274.73125 1130.26125 274.73125 
L 1053.720625 274.73125 
Q 1051.720625 274.73125 1051.720625 276.73125 
L 1051.720625 378.478125 
Q 1051.720625 380.478125 1053.720625 380.478125 
z
" style="fill: #ffffff; opacity: 0.8; stroke: #cccccc; stroke-linejoin: miter"/>
    </g>
    <g id="line2d_80">
     <path d="M 1055.720625 282.829687 
L 1065.720625 282.829687 
L 1075.720625 282.829687 
" style="fill: none; stroke: #808080; stroke-width: 2; stroke-linecap: square"/>
    </g>
    <g id="text_43">
     <!-- Single -->
     <g transform="translate(1083.720625 286.329687) scale(0.1 -0.1)">
      <use xlink:href="#DejaVuSans-53"/>
      <use xlink:href="#DejaVuSans-69" x="63.476562"/>
      <use xlink:href="#DejaVuSans-6e" x="91.259766"/>
      <use xlink:href="#DejaVuSans-67" x="154.638672"/>
      <use xlink:href="#DejaVuSans-6c" x="218.115234"/>
      <use xlink:href="#DejaVuSans-65" x="245.898438"/>
     </g>
    </g>
    <g id="line2d_81">
     <path d="M 1055.720625 297.507812 
L 1065.720625 297.507812 
L 1075.720625 297.507812 
" style="fill: none; stroke: #0000ff; stroke-width: 2; stroke-linecap: square"/>
    </g>
    <g id="text_44">
     <!-- FedAvg -->
     <g transform="translate(1083.720625 301.007812) scale(0.1 -0.1)">
      <use xlink:href="#DejaVuSans-46"/>
      <use xlink:href="#DejaVuSans-65" x="52.019531"/>
      <use xlink:href="#DejaVuSans-64" x="113.542969"/>
      <use xlink:href="#DejaVuSans-41" x="177.019531"/>
      <use xlink:href="#DejaVuSans-76" x="239.552734"/>
      <use xlink:href="#DejaVuSans-67" x="298.732422"/>
     </g>
    </g>
    <g id="line2d_82">
     <path d="M 1055.720625 312.185937 
L 1065.720625 312.185937 
L 1075.720625 312.185937 
" style="fill: none; stroke: #00ffff; stroke-width: 2; stroke-linecap: square"/>
    </g>
    <g id="text_45">
     <!-- FedProx -->
     <g transform="translate(1083.720625 315.685937) scale(0.1 -0.1)">
      <use xlink:href="#DejaVuSans-46"/>
      <use xlink:href="#DejaVuSans-65" x="52.019531"/>
      <use xlink:href="#DejaVuSans-64" x="113.542969"/>
      <use xlink:href="#DejaVuSans-50" x="177.019531"/>
      <use xlink:href="#DejaVuSans-72" x="235.572266"/>
      <use xlink:href="#DejaVuSans-6f" x="274.435547"/>
      <use xlink:href="#DejaVuSans-78" x="332.492188"/>
     </g>
    </g>
    <g id="line2d_83">
     <path d="M 1055.720625 326.864062 
L 1065.720625 326.864062 
L 1075.720625 326.864062 
" style="fill: none; stroke: #008000; stroke-width: 2; stroke-linecap: square"/>
    </g>
    <g id="text_46">
     <!-- FedProto -->
     <g transform="translate(1083.720625 330.364062) scale(0.1 -0.1)">
      <use xlink:href="#DejaVuSans-46"/>
      <use xlink:href="#DejaVuSans-65" x="52.019531"/>
      <use xlink:href="#DejaVuSans-64" x="113.542969"/>
      <use xlink:href="#DejaVuSans-50" x="177.019531"/>
      <use xlink:href="#DejaVuSans-72" x="235.572266"/>
      <use xlink:href="#DejaVuSans-6f" x="274.435547"/>
      <use xlink:href="#DejaVuSans-74" x="335.617188"/>
      <use xlink:href="#DejaVuSans-6f" x="374.826172"/>
     </g>
    </g>
    <g id="line2d_84">
     <path d="M 1055.720625 341.542187 
L 1065.720625 341.542187 
L 1075.720625 341.542187 
" style="fill: none; stroke: #ffa500; stroke-width: 2; stroke-linecap: square"/>
    </g>
    <g id="text_47">
     <!-- FedMEKT -->
     <g transform="translate(1083.720625 345.042187) scale(0.1 -0.1)">
      <use xlink:href="#DejaVuSans-46"/>
      <use xlink:href="#DejaVuSans-65" x="52.019531"/>
      <use xlink:href="#DejaVuSans-64" x="113.542969"/>
      <use xlink:href="#DejaVuSans-4d" x="177.019531"/>
      <use xlink:href="#DejaVuSans-45" x="263.298828"/>
      <use xlink:href="#DejaVuSans-4b" x="326.482422"/>
      <use xlink:href="#DejaVuSans-54" x="384.308594"/>
     </g>
    </g>
    <g id="line2d_85">
     <path d="M 1055.720625 356.220312 
L 1065.720625 356.220312 
L 1075.720625 356.220312 
" style="fill: none; stroke: #ff0000; stroke-width: 2; stroke-linecap: square"/>
    </g>
    <g id="text_48">
     <!-- FedProp -->
     <g transform="translate(1083.720625 359.720312) scale(0.1 -0.1)">
      <use xlink:href="#DejaVuSans-46"/>
      <use xlink:href="#DejaVuSans-65" x="52.019531"/>
      <use xlink:href="#DejaVuSans-64" x="113.542969"/>
      <use xlink:href="#DejaVuSans-50" x="177.019531"/>
      <use xlink:href="#DejaVuSans-72" x="235.572266"/>
      <use xlink:href="#DejaVuSans-6f" x="274.435547"/>
      <use xlink:href="#DejaVuSans-70" x="335.617188"/>
     </g>
    </g>
    <g id="line2d_86">
     <path d="M 1055.720625 370.898438 
L 1065.720625 370.898438 
L 1075.720625 370.898438 
" style="fill: none; stroke: #ff00ff; stroke-width: 2; stroke-linecap: square"/>
    </g>
    <g id="text_49">
     <!-- FedDTG -->
     <g transform="translate(1083.720625 374.398438) scale(0.1 -0.1)">
      <use xlink:href="#DejaVuSans-46"/>
      <use xlink:href="#DejaVuSans-65" x="52.019531"/>
      <use xlink:href="#DejaVuSans-64" x="113.542969"/>
      <use xlink:href="#DejaVuSans-44" x="177.019531"/>
      <use xlink:href="#DejaVuSans-54" x="254.021484"/>
      <use xlink:href="#DejaVuSans-47" x="315.105469"/>
     </g>
    </g>
   </g>
  </g>
 </g>
 <defs>
  <clipPath id="pcccef8f5df">
   <rect x="43.78125" y="22.318125" width="522.88" height="363.16"/>
  </clipPath>
  <clipPath id="pf7f578f874">
   <rect x="614.38125" y="22.318125" width="522.88" height="363.16"/>
  </clipPath>
 </defs>
</svg>
