<?xml version="1.0" encoding="utf-8" standalone="no"?>
<!DOCTYPE svg PUBLIC "-//W3C//DTD SVG 1.1//EN"
  "http://www.w3.org/Graphics/SVG/1.1/DTD/svg11.dtd">
<svg xmlns:xlink="http://www.w3.org/1999/xlink" width="1144.46125pt" height="423.034375pt" viewBox="0 0 1144.46125 423.034375" xmlns="http://www.w3.org/2000/svg" version="1.1">
 <metadata>
  <rdf:RDF xmlns:dc="http://purl.org/dc/elements/1.1/" xmlns:cc="http://creativecommons.org/ns#" xmlns:rdf="http://www.w3.org/1999/02/22-rdf-syntax-ns#">
   <cc:Work>
    <dc:type rdf:resource="http://purl.org/dc/dcmitype/StillImage"/>
    <dc:date>2025-11-21T19:53:16.144295</dc:date>
    <dc:format>image/svg+xml</dc:format>
    <dc:creator>
     <cc:Agent>
      <dc:title>Matplotlib v3.9.4, https://matplotlib.org/</dc:title>
     </cc:Agent>
    </dc:creator>
   </cc:Work>
  </rdf:RDF>
 </metadata>
 <defs>
  <style type="text/css">*{stroke-linejoin: round; stroke-linecap: butt}</style>
 </defs>
 <g id="figure_1">
  <g id="patch_1">
   <path d="M 0 423.034375 
L 1144.46125 423.034375 
L 1144.46125 0 
L 0 0 
z
" style="fill: #ffffff"/>
  </g>
  <g id="axes_1">
   <g id="patch_2">
    <path d="M 43.78125 385.478125 
L 566.66125 385.478125 
L 566.66125 22.318125 
L 43.78125 22.318125 
z
" style="fill: #ffffff"/>
   </g>
   <g id="matplotlib.axis_1">
    <g id="xtick_1">
     <g id="line2d_1">
      <path d="M 62.747053 385.478125 
L 62.747053 22.318125 
" clip-path="url(#p4486b7b956)" style="fill: none; stroke: #b0b0b0; stroke-opacity: 0.3; stroke-width: 0.8; stroke-linecap: square"/>
     </g>
     <g id="line2d_2">
      <defs>
       <path id="m637f9ad318" d="M 0 0 
L 0 3.5 
" style="stroke: #000000; stroke-width: 0.8"/>
      </defs>
      <g>
       <use xlink:href="#m637f9ad318" x="62.747053" y="385.478125" style="stroke: #000000; stroke-width: 0.8"/>
      </g>
     </g>
     <g id="text_1">
      <!-- 0 -->
      <g transform="translate(59.565803 400.076562) scale(0.1 -0.1)">
       <defs>
        <path id="DejaVuSans-30" d="M 2034 4250 
Q 1547 4250 1301 3770 
Q 1056 3291 1056 2328 
Q 1056 1369 1301 889 
Q 1547 409 2034 409 
Q 2525 409 2770 889 
Q 3016 1369 3016 2328 
Q 3016 3291 2770 3770 
Q 2525 4250 2034 4250 
z
M 2034 4750 
Q 2819 4750 3233 4129 
Q 3647 3509 3647 2328 
Q 3647 1150 3233 529 
Q 2819 -91 2034 -91 
Q 1250 -91 836 529 
Q 422 1150 422 2328 
Q 422 3509 836 4129 
Q 1250 4750 2034 4750 
z
" transform="scale(0.015625)"/>
       </defs>
       <use xlink:href="#DejaVuSans-30"/>
      </g>
     </g>
    </g>
    <g id="xtick_2">
     <g id="line2d_3">
      <path d="M 158.776438 385.478125 
L 158.776438 22.318125 
" clip-path="url(#p4486b7b956)" style="fill: none; stroke: #b0b0b0; stroke-opacity: 0.3; stroke-width: 0.8; stroke-linecap: square"/>
     </g>
     <g id="line2d_4">
      <g>
       <use xlink:href="#m637f9ad318" x="158.776438" y="385.478125" style="stroke: #000000; stroke-width: 0.8"/>
      </g>
     </g>
     <g id="text_2">
      <!-- 20 -->
      <g transform="translate(152.413938 400.076562) scale(0.1 -0.1)">
       <defs>
        <path id="DejaVuSans-32" d="M 1228 531 
L 3431 531 
L 3431 0 
L 469 0 
L 469 531 
Q 828 903 1448 1529 
Q 2069 2156 2228 2338 
Q 2531 2678 2651 2914 
Q 2772 3150 2772 3378 
Q 2772 3750 2511 3984 
Q 2250 4219 1831 4219 
Q 1534 4219 1204 4116 
Q 875 4013 500 3803 
L 500 4441 
Q 881 4594 1212 4672 
Q 1544 4750 1819 4750 
Q 2544 4750 2975 4387 
Q 3406 4025 3406 3419 
Q 3406 3131 3298 2873 
Q 3191 2616 2906 2266 
Q 2828 2175 2409 1742 
Q 1991 1309 1228 531 
z
" transform="scale(0.015625)"/>
       </defs>
       <use xlink:href="#DejaVuSans-32"/>
       <use xlink:href="#DejaVuSans-30" x="63.623047"/>
      </g>
     </g>
    </g>
    <g id="xtick_3">
     <g id="line2d_5">
      <path d="M 254.805823 385.478125 
L 254.805823 22.318125 
" clip-path="url(#p4486b7b956)" style="fill: none; stroke: #b0b0b0; stroke-opacity: 0.3; stroke-width: 0.8; stroke-linecap: square"/>
     </g>
     <g id="line2d_6">
      <g>
       <use xlink:href="#m637f9ad318" x="254.805823" y="385.478125" style="stroke: #000000; stroke-width: 0.8"/>
      </g>
     </g>
     <g id="text_3">
      <!-- 40 -->
      <g transform="translate(248.443323 400.076562) scale(0.1 -0.1)">
       <defs>
        <path id="DejaVuSans-34" d="M 2419 4116 
L 825 1625 
L 2419 1625 
L 2419 4116 
z
M 2253 4666 
L 3047 4666 
L 3047 1625 
L 3713 1625 
L 3713 1100 
L 3047 1100 
L 3047 0 
L 2419 0 
L 2419 1100 
L 313 1100 
L 313 1709 
L 2253 4666 
z
" transform="scale(0.015625)"/>
       </defs>
       <use xlink:href="#DejaVuSans-34"/>
       <use xlink:href="#DejaVuSans-30" x="63.623047"/>
      </g>
     </g>
    </g>
    <g id="xtick_4">
     <g id="line2d_7">
      <path d="M 350.835208 385.478125 
L 350.835208 22.318125 
" clip-path="url(#p4486b7b956)" style="fill: none; stroke: #b0b0b0; stroke-opacity: 0.3; stroke-width: 0.8; stroke-linecap: square"/>
     </g>
     <g id="line2d_8">
      <g>
       <use xlink:href="#m637f9ad318" x="350.835208" y="385.478125" style="stroke: #000000; stroke-width: 0.8"/>
      </g>
     </g>
     <g id="text_4">
      <!-- 60 -->
      <g transform="translate(344.472708 400.076562) scale(0.1 -0.1)">
       <defs>
        <path id="DejaVuSans-36" d="M 2113 2584 
Q 1688 2584 1439 2293 
Q 1191 2003 1191 1497 
Q 1191 994 1439 701 
Q 1688 409 2113 409 
Q 2538 409 2786 701 
Q 3034 994 3034 1497 
Q 3034 2003 2786 2293 
Q 2538 2584 2113 2584 
z
M 3366 4563 
L 3366 3988 
Q 3128 4100 2886 4159 
Q 2644 4219 2406 4219 
Q 1781 4219 1451 3797 
Q 1122 3375 1075 2522 
Q 1259 2794 1537 2939 
Q 1816 3084 2150 3084 
Q 2853 3084 3261 2657 
Q 3669 2231 3669 1497 
Q 3669 778 3244 343 
Q 2819 -91 2113 -91 
Q 1303 -91 875 529 
Q 447 1150 447 2328 
Q 447 3434 972 4092 
Q 1497 4750 2381 4750 
Q 2619 4750 2861 4703 
Q 3103 4656 3366 4563 
z
" transform="scale(0.015625)"/>
       </defs>
       <use xlink:href="#DejaVuSans-36"/>
       <use xlink:href="#DejaVuSans-30" x="63.623047"/>
      </g>
     </g>
    </g>
    <g id="xtick_5">
     <g id="line2d_9">
      <path d="M 446.864593 385.478125 
L 446.864593 22.318125 
" clip-path="url(#p4486b7b956)" style="fill: none; stroke: #b0b0b0; stroke-opacity: 0.3; stroke-width: 0.8; stroke-linecap: square"/>
     </g>
     <g id="line2d_10">
      <g>
       <use xlink:href="#m637f9ad318" x="446.864593" y="385.478125" style="stroke: #000000; stroke-width: 0.8"/>
      </g>
     </g>
     <g id="text_5">
      <!-- 80 -->
      <g transform="translate(440.502093 400.076562) scale(0.1 -0.1)">
       <defs>
        <path id="DejaVuSans-38" d="M 2034 2216 
Q 1584 2216 1326 1975 
Q 1069 1734 1069 1313 
Q 1069 891 1326 650 
Q 1584 409 2034 409 
Q 2484 409 2743 651 
Q 3003 894 3003 1313 
Q 3003 1734 2745 1975 
Q 2488 2216 2034 2216 
z
M 1403 2484 
Q 997 2584 770 2862 
Q 544 3141 544 3541 
Q 544 4100 942 4425 
Q 1341 4750 2034 4750 
Q 2731 4750 3128 4425 
Q 3525 4100 3525 3541 
Q 3525 3141 3298 2862 
Q 3072 2584 2669 2484 
Q 3125 2378 3379 2068 
Q 3634 1759 3634 1313 
Q 3634 634 3220 271 
Q 2806 -91 2034 -91 
Q 1263 -91 848 271 
Q 434 634 434 1313 
Q 434 1759 690 2068 
Q 947 2378 1403 2484 
z
M 1172 3481 
Q 1172 3119 1398 2916 
Q 1625 2713 2034 2713 
Q 2441 2713 2670 2916 
Q 2900 3119 2900 3481 
Q 2900 3844 2670 4047 
Q 2441 4250 2034 4250 
Q 1625 4250 1398 4047 
Q 1172 3844 1172 3481 
z
" transform="scale(0.015625)"/>
       </defs>
       <use xlink:href="#DejaVuSans-38"/>
       <use xlink:href="#DejaVuSans-30" x="63.623047"/>
      </g>
     </g>
    </g>
    <g id="xtick_6">
     <g id="line2d_11">
      <path d="M 542.893977 385.478125 
L 542.893977 22.318125 
" clip-path="url(#p4486b7b956)" style="fill: none; stroke: #b0b0b0; stroke-opacity: 0.3; stroke-width: 0.8; stroke-linecap: square"/>
     </g>
     <g id="line2d_12">
      <g>
       <use xlink:href="#m637f9ad318" x="542.893977" y="385.478125" style="stroke: #000000; stroke-width: 0.8"/>
      </g>
     </g>
     <g id="text_6">
      <!-- 100 -->
      <g transform="translate(533.350227 400.076562) scale(0.1 -0.1)">
       <defs>
        <path id="DejaVuSans-31" d="M 794 531 
L 1825 531 
L 1825 4091 
L 703 3866 
L 703 4441 
L 1819 4666 
L 2450 4666 
L 2450 531 
L 3481 531 
L 3481 0 
L 794 0 
L 794 531 
z
" transform="scale(0.015625)"/>
       </defs>
       <use xlink:href="#DejaVuSans-31"/>
       <use xlink:href="#DejaVuSans-30" x="63.623047"/>
       <use xlink:href="#DejaVuSans-30" x="127.246094"/>
      </g>
     </g>
    </g>
    <g id="text_7">
     <!-- Communication Rounds -->
     <g transform="translate(245.798594 413.754687) scale(0.1 -0.1)">
      <defs>
       <path id="DejaVuSans-43" d="M 4122 4306 
L 4122 3641 
Q 3803 3938 3442 4084 
Q 3081 4231 2675 4231 
Q 1875 4231 1450 3742 
Q 1025 3253 1025 2328 
Q 1025 1406 1450 917 
Q 1875 428 2675 428 
Q 3081 428 3442 575 
Q 3803 722 4122 1019 
L 4122 359 
Q 3791 134 3420 21 
Q 3050 -91 2638 -91 
Q 1578 -91 968 557 
Q 359 1206 359 2328 
Q 359 3453 968 4101 
Q 1578 4750 2638 4750 
Q 3056 4750 3426 4639 
Q 3797 4528 4122 4306 
z
" transform="scale(0.015625)"/>
       <path id="DejaVuSans-6f" d="M 1959 3097 
Q 1497 3097 1228 2736 
Q 959 2375 959 1747 
Q 959 1119 1226 758 
Q 1494 397 1959 397 
Q 2419 397 2687 759 
Q 2956 1122 2956 1747 
Q 2956 2369 2687 2733 
Q 2419 3097 1959 3097 
z
M 1959 3584 
Q 2709 3584 3137 3096 
Q 3566 2609 3566 1747 
Q 3566 888 3137 398 
Q 2709 -91 1959 -91 
Q 1206 -91 779 398 
Q 353 888 353 1747 
Q 353 2609 779 3096 
Q 1206 3584 1959 3584 
z
" transform="scale(0.015625)"/>
       <path id="DejaVuSans-6d" d="M 3328 2828 
Q 3544 3216 3844 3400 
Q 4144 3584 4550 3584 
Q 5097 3584 5394 3201 
Q 5691 2819 5691 2113 
L 5691 0 
L 5113 0 
L 5113 2094 
Q 5113 2597 4934 2840 
Q 4756 3084 4391 3084 
Q 3944 3084 3684 2787 
Q 3425 2491 3425 1978 
L 3425 0 
L 2847 0 
L 2847 2094 
Q 2847 2600 2669 2842 
Q 2491 3084 2119 3084 
Q 1678 3084 1418 2786 
Q 1159 2488 1159 1978 
L 1159 0 
L 581 0 
L 581 3500 
L 1159 3500 
L 1159 2956 
Q 1356 3278 1631 3431 
Q 1906 3584 2284 3584 
Q 2666 3584 2933 3390 
Q 3200 3197 3328 2828 
z
" transform="scale(0.015625)"/>
       <path id="DejaVuSans-75" d="M 544 1381 
L 544 3500 
L 1119 3500 
L 1119 1403 
Q 1119 906 1312 657 
Q 1506 409 1894 409 
Q 2359 409 2629 706 
Q 2900 1003 2900 1516 
L 2900 3500 
L 3475 3500 
L 3475 0 
L 2900 0 
L 2900 538 
Q 2691 219 2414 64 
Q 2138 -91 1772 -91 
Q 1169 -91 856 284 
Q 544 659 544 1381 
z
M 1991 3584 
L 1991 3584 
z
" transform="scale(0.015625)"/>
       <path id="DejaVuSans-6e" d="M 3513 2113 
L 3513 0 
L 2938 0 
L 2938 2094 
Q 2938 2591 2744 2837 
Q 2550 3084 2163 3084 
Q 1697 3084 1428 2787 
Q 1159 2491 1159 1978 
L 1159 0 
L 581 0 
L 581 3500 
L 1159 3500 
L 1159 2956 
Q 1366 3272 1645 3428 
Q 1925 3584 2291 3584 
Q 2894 3584 3203 3211 
Q 3513 2838 3513 2113 
z
" transform="scale(0.015625)"/>
       <path id="DejaVuSans-69" d="M 603 3500 
L 1178 3500 
L 1178 0 
L 603 0 
L 603 3500 
z
M 603 4863 
L 1178 4863 
L 1178 4134 
L 603 4134 
L 603 4863 
z
" transform="scale(0.015625)"/>
       <path id="DejaVuSans-63" d="M 3122 3366 
L 3122 2828 
Q 2878 2963 2633 3030 
Q 2388 3097 2138 3097 
Q 1578 3097 1268 2742 
Q 959 2388 959 1747 
Q 959 1106 1268 751 
Q 1578 397 2138 397 
Q 2388 397 2633 464 
Q 2878 531 3122 666 
L 3122 134 
Q 2881 22 2623 -34 
Q 2366 -91 2075 -91 
Q 1284 -91 818 406 
Q 353 903 353 1747 
Q 353 2603 823 3093 
Q 1294 3584 2113 3584 
Q 2378 3584 2631 3529 
Q 2884 3475 3122 3366 
z
" transform="scale(0.015625)"/>
       <path id="DejaVuSans-61" d="M 2194 1759 
Q 1497 1759 1228 1600 
Q 959 1441 959 1056 
Q 959 750 1161 570 
Q 1363 391 1709 391 
Q 2188 391 2477 730 
Q 2766 1069 2766 1631 
L 2766 1759 
L 2194 1759 
z
M 3341 1997 
L 3341 0 
L 2766 0 
L 2766 531 
Q 2569 213 2275 61 
Q 1981 -91 1556 -91 
Q 1019 -91 701 211 
Q 384 513 384 1019 
Q 384 1609 779 1909 
Q 1175 2209 1959 2209 
L 2766 2209 
L 2766 2266 
Q 2766 2663 2505 2880 
Q 2244 3097 1772 3097 
Q 1472 3097 1187 3025 
Q 903 2953 641 2809 
L 641 3341 
Q 956 3463 1253 3523 
Q 1550 3584 1831 3584 
Q 2591 3584 2966 3190 
Q 3341 2797 3341 1997 
z
" transform="scale(0.015625)"/>
       <path id="DejaVuSans-74" d="M 1172 4494 
L 1172 3500 
L 2356 3500 
L 2356 3053 
L 1172 3053 
L 1172 1153 
Q 1172 725 1289 603 
Q 1406 481 1766 481 
L 2356 481 
L 2356 0 
L 1766 0 
Q 1100 0 847 248 
Q 594 497 594 1153 
L 594 3053 
L 172 3053 
L 172 3500 
L 594 3500 
L 594 4494 
L 1172 4494 
z
" transform="scale(0.015625)"/>
       <path id="DejaVuSans-20" transform="scale(0.015625)"/>
       <path id="DejaVuSans-52" d="M 2841 2188 
Q 3044 2119 3236 1894 
Q 3428 1669 3622 1275 
L 4263 0 
L 3584 0 
L 2988 1197 
Q 2756 1666 2539 1819 
Q 2322 1972 1947 1972 
L 1259 1972 
L 1259 0 
L 628 0 
L 628 4666 
L 2053 4666 
Q 2853 4666 3247 4331 
Q 3641 3997 3641 3322 
Q 3641 2881 3436 2590 
Q 3231 2300 2841 2188 
z
M 1259 4147 
L 1259 2491 
L 2053 2491 
Q 2509 2491 2742 2702 
Q 2975 2913 2975 3322 
Q 2975 3731 2742 3939 
Q 2509 4147 2053 4147 
L 1259 4147 
z
" transform="scale(0.015625)"/>
       <path id="DejaVuSans-64" d="M 2906 2969 
L 2906 4863 
L 3481 4863 
L 3481 0 
L 2906 0 
L 2906 525 
Q 2725 213 2448 61 
Q 2172 -91 1784 -91 
Q 1150 -91 751 415 
Q 353 922 353 1747 
Q 353 2572 751 3078 
Q 1150 3584 1784 3584 
Q 2172 3584 2448 3432 
Q 2725 3281 2906 2969 
z
M 947 1747 
Q 947 1113 1208 752 
Q 1469 391 1925 391 
Q 2381 391 2643 752 
Q 2906 1113 2906 1747 
Q 2906 2381 2643 2742 
Q 2381 3103 1925 3103 
Q 1469 3103 1208 2742 
Q 947 2381 947 1747 
z
" transform="scale(0.015625)"/>
       <path id="DejaVuSans-73" d="M 2834 3397 
L 2834 2853 
Q 2591 2978 2328 3040 
Q 2066 3103 1784 3103 
Q 1356 3103 1142 2972 
Q 928 2841 928 2578 
Q 928 2378 1081 2264 
Q 1234 2150 1697 2047 
L 1894 2003 
Q 2506 1872 2764 1633 
Q 3022 1394 3022 966 
Q 3022 478 2636 193 
Q 2250 -91 1575 -91 
Q 1294 -91 989 -36 
Q 684 19 347 128 
L 347 722 
Q 666 556 975 473 
Q 1284 391 1588 391 
Q 1994 391 2212 530 
Q 2431 669 2431 922 
Q 2431 1156 2273 1281 
Q 2116 1406 1581 1522 
L 1381 1569 
Q 847 1681 609 1914 
Q 372 2147 372 2553 
Q 372 3047 722 3315 
Q 1072 3584 1716 3584 
Q 2034 3584 2315 3537 
Q 2597 3491 2834 3397 
z
" transform="scale(0.015625)"/>
      </defs>
      <use xlink:href="#DejaVuSans-43"/>
      <use xlink:href="#DejaVuSans-6f" x="69.824219"/>
      <use xlink:href="#DejaVuSans-6d" x="131.005859"/>
      <use xlink:href="#DejaVuSans-6d" x="228.417969"/>
      <use xlink:href="#DejaVuSans-75" x="325.830078"/>
      <use xlink:href="#DejaVuSans-6e" x="389.208984"/>
      <use xlink:href="#DejaVuSans-69" x="452.587891"/>
      <use xlink:href="#DejaVuSans-63" x="480.371094"/>
      <use xlink:href="#DejaVuSans-61" x="535.351562"/>
      <use xlink:href="#DejaVuSans-74" x="596.630859"/>
      <use xlink:href="#DejaVuSans-69" x="635.839844"/>
      <use xlink:href="#DejaVuSans-6f" x="663.623047"/>
      <use xlink:href="#DejaVuSans-6e" x="724.804688"/>
      <use xlink:href="#DejaVuSans-20" x="788.183594"/>
      <use xlink:href="#DejaVuSans-52" x="819.970703"/>
      <use xlink:href="#DejaVuSans-6f" x="884.953125"/>
      <use xlink:href="#DejaVuSans-75" x="946.134766"/>
      <use xlink:href="#DejaVuSans-6e" x="1009.513672"/>
      <use xlink:href="#DejaVuSans-64" x="1072.892578"/>
      <use xlink:href="#DejaVuSans-73" x="1136.369141"/>
     </g>
    </g>
   </g>
   <g id="matplotlib.axis_2">
    <g id="ytick_1">
     <g id="line2d_13">
      <path d="M 43.78125 383.851708 
L 566.66125 383.851708 
" clip-path="url(#p4486b7b956)" style="fill: none; stroke: #b0b0b0; stroke-opacity: 0.3; stroke-width: 0.8; stroke-linecap: square"/>
     </g>
     <g id="line2d_14">
      <defs>
       <path id="m0dff9be51a" d="M 0 0 
L -3.5 0 
" style="stroke: #000000; stroke-width: 0.8"/>
      </defs>
      <g>
       <use xlink:href="#m0dff9be51a" x="43.78125" y="383.851708" style="stroke: #000000; stroke-width: 0.8"/>
      </g>
     </g>
     <g id="text_8">
      <!-- 0.0 -->
      <g transform="translate(20.878125 387.650927) scale(0.1 -0.1)">
       <defs>
        <path id="DejaVuSans-2e" d="M 684 794 
L 1344 794 
L 1344 0 
L 684 0 
L 684 794 
z
" transform="scale(0.015625)"/>
       </defs>
       <use xlink:href="#DejaVuSans-30"/>
       <use xlink:href="#DejaVuSans-2e" x="63.623047"/>
       <use xlink:href="#DejaVuSans-30" x="95.410156"/>
      </g>
     </g>
    </g>
    <g id="ytick_2">
     <g id="line2d_15">
      <path d="M 43.78125 337.592996 
L 566.66125 337.592996 
" clip-path="url(#p4486b7b956)" style="fill: none; stroke: #b0b0b0; stroke-opacity: 0.3; stroke-width: 0.8; stroke-linecap: square"/>
     </g>
     <g id="line2d_16">
      <g>
       <use xlink:href="#m0dff9be51a" x="43.78125" y="337.592996" style="stroke: #000000; stroke-width: 0.8"/>
      </g>
     </g>
     <g id="text_9">
      <!-- 0.1 -->
      <g transform="translate(20.878125 341.392214) scale(0.1 -0.1)">
       <use xlink:href="#DejaVuSans-30"/>
       <use xlink:href="#DejaVuSans-2e" x="63.623047"/>
       <use xlink:href="#DejaVuSans-31" x="95.410156"/>
      </g>
     </g>
    </g>
    <g id="ytick_3">
     <g id="line2d_17">
      <path d="M 43.78125 291.334283 
L 566.66125 291.334283 
" clip-path="url(#p4486b7b956)" style="fill: none; stroke: #b0b0b0; stroke-opacity: 0.3; stroke-width: 0.8; stroke-linecap: square"/>
     </g>
     <g id="line2d_18">
      <g>
       <use xlink:href="#m0dff9be51a" x="43.78125" y="291.334283" style="stroke: #000000; stroke-width: 0.8"/>
      </g>
     </g>
     <g id="text_10">
      <!-- 0.2 -->
      <g transform="translate(20.878125 295.133501) scale(0.1 -0.1)">
       <use xlink:href="#DejaVuSans-30"/>
       <use xlink:href="#DejaVuSans-2e" x="63.623047"/>
       <use xlink:href="#DejaVuSans-32" x="95.410156"/>
      </g>
     </g>
    </g>
    <g id="ytick_4">
     <g id="line2d_19">
      <path d="M 43.78125 245.07557 
L 566.66125 245.07557 
" clip-path="url(#p4486b7b956)" style="fill: none; stroke: #b0b0b0; stroke-opacity: 0.3; stroke-width: 0.8; stroke-linecap: square"/>
     </g>
     <g id="line2d_20">
      <g>
       <use xlink:href="#m0dff9be51a" x="43.78125" y="245.07557" style="stroke: #000000; stroke-width: 0.8"/>
      </g>
     </g>
     <g id="text_11">
      <!-- 0.3 -->
      <g transform="translate(20.878125 248.874789) scale(0.1 -0.1)">
       <defs>
        <path id="DejaVuSans-33" d="M 2597 2516 
Q 3050 2419 3304 2112 
Q 3559 1806 3559 1356 
Q 3559 666 3084 287 
Q 2609 -91 1734 -91 
Q 1441 -91 1130 -33 
Q 819 25 488 141 
L 488 750 
Q 750 597 1062 519 
Q 1375 441 1716 441 
Q 2309 441 2620 675 
Q 2931 909 2931 1356 
Q 2931 1769 2642 2001 
Q 2353 2234 1838 2234 
L 1294 2234 
L 1294 2753 
L 1863 2753 
Q 2328 2753 2575 2939 
Q 2822 3125 2822 3475 
Q 2822 3834 2567 4026 
Q 2313 4219 1838 4219 
Q 1578 4219 1281 4162 
Q 984 4106 628 3988 
L 628 4550 
Q 988 4650 1302 4700 
Q 1616 4750 1894 4750 
Q 2613 4750 3031 4423 
Q 3450 4097 3450 3541 
Q 3450 3153 3228 2886 
Q 3006 2619 2597 2516 
z
" transform="scale(0.015625)"/>
       </defs>
       <use xlink:href="#DejaVuSans-30"/>
       <use xlink:href="#DejaVuSans-2e" x="63.623047"/>
       <use xlink:href="#DejaVuSans-33" x="95.410156"/>
      </g>
     </g>
    </g>
    <g id="ytick_5">
     <g id="line2d_21">
      <path d="M 43.78125 198.816857 
L 566.66125 198.816857 
" clip-path="url(#p4486b7b956)" style="fill: none; stroke: #b0b0b0; stroke-opacity: 0.3; stroke-width: 0.8; stroke-linecap: square"/>
     </g>
     <g id="line2d_22">
      <g>
       <use xlink:href="#m0dff9be51a" x="43.78125" y="198.816857" style="stroke: #000000; stroke-width: 0.8"/>
      </g>
     </g>
     <g id="text_12">
      <!-- 0.4 -->
      <g transform="translate(20.878125 202.616076) scale(0.1 -0.1)">
       <use xlink:href="#DejaVuSans-30"/>
       <use xlink:href="#DejaVuSans-2e" x="63.623047"/>
       <use xlink:href="#DejaVuSans-34" x="95.410156"/>
      </g>
     </g>
    </g>
    <g id="ytick_6">
     <g id="line2d_23">
      <path d="M 43.78125 152.558144 
L 566.66125 152.558144 
" clip-path="url(#p4486b7b956)" style="fill: none; stroke: #b0b0b0; stroke-opacity: 0.3; stroke-width: 0.8; stroke-linecap: square"/>
     </g>
     <g id="line2d_24">
      <g>
       <use xlink:href="#m0dff9be51a" x="43.78125" y="152.558144" style="stroke: #000000; stroke-width: 0.8"/>
      </g>
     </g>
     <g id="text_13">
      <!-- 0.5 -->
      <g transform="translate(20.878125 156.357363) scale(0.1 -0.1)">
       <defs>
        <path id="DejaVuSans-35" d="M 691 4666 
L 3169 4666 
L 3169 4134 
L 1269 4134 
L 1269 2991 
Q 1406 3038 1543 3061 
Q 1681 3084 1819 3084 
Q 2600 3084 3056 2656 
Q 3513 2228 3513 1497 
Q 3513 744 3044 326 
Q 2575 -91 1722 -91 
Q 1428 -91 1123 -41 
Q 819 9 494 109 
L 494 744 
Q 775 591 1075 516 
Q 1375 441 1709 441 
Q 2250 441 2565 725 
Q 2881 1009 2881 1497 
Q 2881 1984 2565 2268 
Q 2250 2553 1709 2553 
Q 1456 2553 1204 2497 
Q 953 2441 691 2322 
L 691 4666 
z
" transform="scale(0.015625)"/>
       </defs>
       <use xlink:href="#DejaVuSans-30"/>
       <use xlink:href="#DejaVuSans-2e" x="63.623047"/>
       <use xlink:href="#DejaVuSans-35" x="95.410156"/>
      </g>
     </g>
    </g>
    <g id="ytick_7">
     <g id="line2d_25">
      <path d="M 43.78125 106.299431 
L 566.66125 106.299431 
" clip-path="url(#p4486b7b956)" style="fill: none; stroke: #b0b0b0; stroke-opacity: 0.3; stroke-width: 0.8; stroke-linecap: square"/>
     </g>
     <g id="line2d_26">
      <g>
       <use xlink:href="#m0dff9be51a" x="43.78125" y="106.299431" style="stroke: #000000; stroke-width: 0.8"/>
      </g>
     </g>
     <g id="text_14">
      <!-- 0.6 -->
      <g transform="translate(20.878125 110.09865) scale(0.1 -0.1)">
       <use xlink:href="#DejaVuSans-30"/>
       <use xlink:href="#DejaVuSans-2e" x="63.623047"/>
       <use xlink:href="#DejaVuSans-36" x="95.410156"/>
      </g>
     </g>
    </g>
    <g id="ytick_8">
     <g id="line2d_27">
      <path d="M 43.78125 60.040719 
L 566.66125 60.040719 
" clip-path="url(#p4486b7b956)" style="fill: none; stroke: #b0b0b0; stroke-opacity: 0.3; stroke-width: 0.8; stroke-linecap: square"/>
     </g>
     <g id="line2d_28">
      <g>
       <use xlink:href="#m0dff9be51a" x="43.78125" y="60.040719" style="stroke: #000000; stroke-width: 0.8"/>
      </g>
     </g>
     <g id="text_15">
      <!-- 0.7 -->
      <g transform="translate(20.878125 63.839937) scale(0.1 -0.1)">
       <defs>
        <path id="DejaVuSans-37" d="M 525 4666 
L 3525 4666 
L 3525 4397 
L 1831 0 
L 1172 0 
L 2766 4134 
L 525 4134 
L 525 4666 
z
" transform="scale(0.015625)"/>
       </defs>
       <use xlink:href="#DejaVuSans-30"/>
       <use xlink:href="#DejaVuSans-2e" x="63.623047"/>
       <use xlink:href="#DejaVuSans-37" x="95.410156"/>
      </g>
     </g>
    </g>
    <g id="text_16">
     <!-- Global Accuracy -->
     <g transform="translate(14.798438 244.265312) rotate(-90) scale(0.1 -0.1)">
      <defs>
       <path id="DejaVuSans-47" d="M 3809 666 
L 3809 1919 
L 2778 1919 
L 2778 2438 
L 4434 2438 
L 4434 434 
Q 4069 175 3628 42 
Q 3188 -91 2688 -91 
Q 1594 -91 976 548 
Q 359 1188 359 2328 
Q 359 3472 976 4111 
Q 1594 4750 2688 4750 
Q 3144 4750 3555 4637 
Q 3966 4525 4313 4306 
L 4313 3634 
Q 3963 3931 3569 4081 
Q 3175 4231 2741 4231 
Q 1884 4231 1454 3753 
Q 1025 3275 1025 2328 
Q 1025 1384 1454 906 
Q 1884 428 2741 428 
Q 3075 428 3337 486 
Q 3600 544 3809 666 
z
" transform="scale(0.015625)"/>
       <path id="DejaVuSans-6c" d="M 603 4863 
L 1178 4863 
L 1178 0 
L 603 0 
L 603 4863 
z
" transform="scale(0.015625)"/>
       <path id="DejaVuSans-62" d="M 3116 1747 
Q 3116 2381 2855 2742 
Q 2594 3103 2138 3103 
Q 1681 3103 1420 2742 
Q 1159 2381 1159 1747 
Q 1159 1113 1420 752 
Q 1681 391 2138 391 
Q 2594 391 2855 752 
Q 3116 1113 3116 1747 
z
M 1159 2969 
Q 1341 3281 1617 3432 
Q 1894 3584 2278 3584 
Q 2916 3584 3314 3078 
Q 3713 2572 3713 1747 
Q 3713 922 3314 415 
Q 2916 -91 2278 -91 
Q 1894 -91 1617 61 
Q 1341 213 1159 525 
L 1159 0 
L 581 0 
L 581 4863 
L 1159 4863 
L 1159 2969 
z
" transform="scale(0.015625)"/>
       <path id="DejaVuSans-41" d="M 2188 4044 
L 1331 1722 
L 3047 1722 
L 2188 4044 
z
M 1831 4666 
L 2547 4666 
L 4325 0 
L 3669 0 
L 3244 1197 
L 1141 1197 
L 716 0 
L 50 0 
L 1831 4666 
z
" transform="scale(0.015625)"/>
       <path id="DejaVuSans-72" d="M 2631 2963 
Q 2534 3019 2420 3045 
Q 2306 3072 2169 3072 
Q 1681 3072 1420 2755 
Q 1159 2438 1159 1844 
L 1159 0 
L 581 0 
L 581 3500 
L 1159 3500 
L 1159 2956 
Q 1341 3275 1631 3429 
Q 1922 3584 2338 3584 
Q 2397 3584 2469 3576 
Q 2541 3569 2628 3553 
L 2631 2963 
z
" transform="scale(0.015625)"/>
       <path id="DejaVuSans-79" d="M 2059 -325 
Q 1816 -950 1584 -1140 
Q 1353 -1331 966 -1331 
L 506 -1331 
L 506 -850 
L 844 -850 
Q 1081 -850 1212 -737 
Q 1344 -625 1503 -206 
L 1606 56 
L 191 3500 
L 800 3500 
L 1894 763 
L 2988 3500 
L 3597 3500 
L 2059 -325 
z
" transform="scale(0.015625)"/>
      </defs>
      <use xlink:href="#DejaVuSans-47"/>
      <use xlink:href="#DejaVuSans-6c" x="77.490234"/>
      <use xlink:href="#DejaVuSans-6f" x="105.273438"/>
      <use xlink:href="#DejaVuSans-62" x="166.455078"/>
      <use xlink:href="#DejaVuSans-61" x="229.931641"/>
      <use xlink:href="#DejaVuSans-6c" x="291.210938"/>
      <use xlink:href="#DejaVuSans-20" x="318.994141"/>
      <use xlink:href="#DejaVuSans-41" x="350.78125"/>
      <use xlink:href="#DejaVuSans-63" x="417.439453"/>
      <use xlink:href="#DejaVuSans-63" x="472.419922"/>
      <use xlink:href="#DejaVuSans-75" x="527.400391"/>
      <use xlink:href="#DejaVuSans-72" x="590.779297"/>
      <use xlink:href="#DejaVuSans-61" x="631.892578"/>
      <use xlink:href="#DejaVuSans-63" x="693.171875"/>
      <use xlink:href="#DejaVuSans-79" x="748.152344"/>
     </g>
    </g>
   </g>
   <g id="line2d_29">
    <path d="M 67.548523 358.325527 
L 72.349992 341.599116 
L 77.151461 328.502183 
L 81.95293 311.169717 
L 86.7544 285.119659 
L 91.555869 250.393096 
L 96.357338 232.180654 
L 101.158807 217.631929 
L 105.960277 205.445789 
L 110.761746 192.728923 
L 115.563215 181.813099 
L 120.364684 167.329431 
L 125.166154 153.729164 
L 129.967623 139.62214 
L 134.769092 128.774797 
L 139.570561 119.913395 
L 144.372031 110.469906 
L 149.1735 101.190771 
L 153.974969 95.109685 
L 158.776438 89.199801 
L 163.577907 84.827308 
L 168.379377 80.533568 
L 173.180846 76.804794 
L 177.982315 72.620623 
L 182.783784 68.460421 
L 187.585254 64.820671 
L 192.386723 61.855457 
L 197.188192 59.18471 
L 201.989661 57.161105 
L 206.791131 55.452512 
L 211.5926 53.504236 
L 216.394069 52.271583 
L 221.195538 51.254645 
L 225.997008 49.826822 
L 230.798477 48.868092 
L 235.599946 48.125077 
L 240.401415 47.505326 
L 245.202885 46.916392 
L 250.004354 46.567141 
L 254.805823 46.375395 
L 259.607292 46.272674 
L 264.408761 46.022719 
L 269.210231 45.759069 
L 274.0117 45.553626 
L 278.813169 45.300248 
L 283.614638 45.09823 
L 288.416108 44.670225 
L 293.217577 43.591654 
L 298.019046 39.59923 
L 302.820515 39.465692 
L 307.621985 39.407484 
L 312.423454 39.280794 
L 317.224923 39.311611 
L 322.026392 39.297915 
L 326.827862 39.239706 
L 331.629331 39.181497 
L 336.4308 39.123289 
L 341.232269 39.095896 
L 346.033739 39.061656 
L 350.835208 39.027416 
L 355.636677 39.010296 
L 360.438146 38.996599 
L 365.239615 38.979479 
L 370.041085 38.955511 
L 374.842554 38.945239 
L 379.644023 38.941815 
L 384.445492 38.941815 
L 389.246962 38.938391 
L 394.048431 38.924695 
L 398.8499 38.910999 
L 403.651369 38.900726 
L 408.452839 38.897302 
L 413.254308 38.893878 
L 418.055777 38.893878 
L 422.857246 38.893878 
L 427.658716 38.893878 
L 432.460185 38.893878 
L 437.261654 38.893878 
L 442.063123 38.893878 
L 446.864593 38.893878 
L 451.666062 38.893878 
L 456.467531 38.893878 
L 461.269 38.893878 
L 466.070469 38.893878 
L 470.871939 38.893878 
L 475.673408 38.893878 
L 480.474877 38.893878 
L 485.276346 38.893878 
L 490.077816 38.893878 
L 494.879285 38.893878 
L 499.680754 38.893878 
L 504.482223 38.893878 
L 509.283693 38.893878 
L 514.085162 38.893878 
L 518.886631 38.893878 
L 523.6881 38.893878 
L 528.48957 38.893878 
L 533.291039 38.893878 
L 538.092508 38.893878 
L 542.893977 38.893878 
" clip-path="url(#p4486b7b956)" style="fill: none; stroke: #1f77b4; stroke-width: 2; stroke-linecap: square"/>
   </g>
   <g id="line2d_30">
    <path d="M 67.548523 357.425006 
L 72.349992 340.544514 
L 77.151461 322.308103 
L 81.95293 305.369402 
L 86.7544 277.785376 
L 91.555869 246.962213 
L 96.357338 229.372945 
L 101.158807 216.618415 
L 105.960277 205.185562 
L 110.761746 191.441486 
L 115.563215 177.313917 
L 120.364684 163.699954 
L 125.166154 153.657259 
L 129.967623 141.077355 
L 134.769092 130.158107 
L 139.570561 117.502874 
L 144.372031 106.227527 
L 149.1735 97.588686 
L 153.974969 92.322521 
L 158.776438 87.700073 
L 163.577907 82.926969 
L 168.379377 77.996358 
L 173.180846 73.397879 
L 177.982315 68.433028 
L 182.783784 64.721374 
L 187.585254 61.321308 
L 192.386723 58.564959 
L 197.188192 57.065232 
L 201.989661 55.801763 
L 206.791131 54.699224 
L 211.5926 53.795279 
L 216.394069 52.720132 
L 221.195538 51.939452 
L 225.997008 51.141652 
L 230.798477 50.083625 
L 235.599946 49.309793 
L 240.401415 48.542809 
L 245.202885 48.022356 
L 250.004354 47.426574 
L 254.805823 47.022538 
L 259.607292 46.71095 
L 264.408761 46.484964 
L 269.210231 46.060384 
L 274.0117 44.52984 
L 278.813169 40.633288 
L 283.614638 40.393606 
L 288.416108 40.181316 
L 293.217577 40.037506 
L 298.019046 39.832064 
L 302.820515 39.623198 
L 307.621985 39.434876 
L 312.423454 39.356123 
L 317.224923 39.263674 
L 322.026392 39.20889 
L 326.827862 39.164377 
L 331.629331 39.130137 
L 336.4308 39.092472 
L 341.232269 39.071928 
L 346.033739 39.054808 
L 350.835208 39.01372 
L 355.636677 39.003448 
L 360.438146 38.989751 
L 365.239615 38.976055 
L 370.041085 38.965783 
L 374.842554 38.945239 
L 379.644023 38.945239 
L 384.445492 38.938391 
L 389.246962 38.931543 
L 394.048431 38.914423 
L 398.8499 38.907575 
L 403.651369 38.897302 
L 408.452839 38.893878 
L 413.254308 38.893878 
L 418.055777 38.893878 
L 422.857246 38.893878 
L 427.658716 38.893878 
L 432.460185 38.893878 
L 437.261654 38.893878 
L 442.063123 38.893878 
L 446.864593 38.893878 
L 451.666062 38.893878 
L 456.467531 38.893878 
L 461.269 38.893878 
L 466.070469 38.893878 
L 470.871939 38.893878 
L 475.673408 38.893878 
L 480.474877 38.893878 
L 485.276346 38.893878 
L 490.077816 38.893878 
L 494.879285 38.893878 
L 499.680754 38.893878 
L 504.482223 38.893878 
L 509.283693 38.893878 
L 514.085162 38.893878 
L 518.886631 38.893878 
L 523.6881 38.893878 
L 528.48957 38.893878 
L 533.291039 38.893878 
L 538.092508 38.893878 
L 542.893977 38.893878 
" clip-path="url(#p4486b7b956)" style="fill: none; stroke: #ff7f0e; stroke-width: 2; stroke-linecap: square"/>
   </g>
   <g id="line2d_31">
    <path d="M 67.548523 351.501426 
L 72.349992 352.357434 
L 77.151461 357.37707 
L 81.95293 359.582148 
L 86.7544 360.585391 
L 91.555869 357.664689 
L 96.357338 360.044393 
L 101.158807 361.424279 
L 105.960277 357.924915 
L 110.761746 345.50594 
L 115.563215 342.715352 
L 120.364684 333.552634 
L 125.166154 312.501667 
L 129.967623 302.215866 
L 134.769092 284.606054 
L 139.570561 261.445881 
L 144.372031 244.654414 
L 149.1735 230.136505 
L 153.974969 222.836463 
L 158.776438 216.375309 
L 163.577907 211.044086 
L 168.379377 205.106809 
L 173.180846 197.234953 
L 177.982315 190.948425 
L 182.783784 184.02845 
L 187.585254 174.612354 
L 192.386723 168.34637 
L 197.188192 160.858005 
L 201.989661 154.174289 
L 206.791131 151.441909 
L 211.5926 147.915153 
L 216.394069 144.48427 
L 221.195538 139.868671 
L 225.997008 138.615474 
L 230.798477 130.82237 
L 235.599946 132.869943 
L 240.401415 131.147653 
L 245.202885 128.545387 
L 250.004354 127.685954 
L 254.805823 128.148199 
L 259.607292 127.196317 
L 264.408761 125.272009 
L 269.210231 126.634775 
L 274.0117 122.320491 
L 278.813169 113.524145 
L 283.614638 112.21274 
L 288.416108 110.997207 
L 293.217577 108.624351 
L 298.019046 111.127321 
L 302.820515 107.330066 
L 307.621985 107.754646 
L 312.423454 105.902243 
L 317.224923 103.748525 
L 322.026392 102.981541 
L 326.827862 102.830884 
L 331.629331 100.649774 
L 336.4308 96.496419 
L 341.232269 95.551386 
L 346.033739 96.109503 
L 350.835208 95.311703 
L 355.636677 89.898304 
L 360.438146 87.306309 
L 365.239615 90.973451 
L 370.041085 91.178893 
L 374.842554 86.905697 
L 379.644023 89.234041 
L 384.445492 89.87776 
L 389.246962 87.79937 
L 394.048431 85.820278 
L 398.8499 80.70477 
L 403.651369 78.814702 
L 408.452839 82.560597 
L 413.254308 82.629077 
L 418.055777 83.279644 
L 422.857246 80.160348 
L 427.658716 77.037628 
L 432.460185 78.985904 
L 437.261654 79.266675 
L 442.063123 78.811278 
L 446.864593 80.73901 
L 451.666062 79.547446 
L 456.467531 80.591777 
L 461.269 79.448149 
L 466.070469 70.347064 
L 470.871939 72.281644 
L 475.673408 72.192619 
L 480.474877 71.066111 
L 485.276346 70.216951 
L 490.077816 69.456815 
L 494.879285 68.7994 
L 499.680754 67.231192 
L 504.482223 66.857972 
L 509.283693 67.04287 
L 514.085162 67.012054 
L 518.886631 66.604594 
L 523.6881 65.279492 
L 528.48957 66.477904 
L 533.291039 67.922847 
L 538.092508 67.871487 
L 542.893977 67.522235 
" clip-path="url(#p4486b7b956)" style="fill: none; stroke: #2ca02c; stroke-width: 2; stroke-linecap: square"/>
   </g>
   <g id="line2d_32">
    <path d="M 67.548523 351.867797 
L 72.349992 344.218503 
L 77.151461 335.257804 
L 81.95293 326.430641 
L 86.7544 310.68008 
L 91.555869 287.379522 
L 96.357338 266.499757 
L 101.158807 244.175049 
L 105.960277 223.92873 
L 110.761746 201.491028 
L 115.563215 179.32725 
L 120.364684 157.618868 
L 125.166154 137.721801 
L 129.967623 118.725254 
L 134.769092 103.933423 
L 139.570561 94.948755 
L 144.372031 83.690528 
L 149.1735 71.809127 
L 153.974969 67.244888 
L 158.776438 63.502418 
L 163.577907 60.116047 
L 168.379377 57.41106 
L 173.180846 54.726616 
L 177.982315 53.131016 
L 182.783784 51.41215 
L 187.585254 49.65562 
L 192.386723 48.145621 
L 197.188192 46.830792 
L 201.989661 45.738524 
L 206.791131 44.90306 
L 211.5926 44.074443 
L 216.394069 43.485509 
L 221.195538 43.095169 
L 225.997008 42.865759 
L 230.798477 42.502811 
L 235.599946 41.972086 
L 240.401415 41.537233 
L 245.202885 40.98254 
L 250.004354 40.701769 
L 254.805823 40.434694 
L 259.607292 40.191588 
L 264.408761 40.02381 
L 269.210231 39.910817 
L 274.0117 39.821792 
L 278.813169 39.729343 
L 283.614638 39.664286 
L 288.416108 39.626622 
L 293.217577 39.571837 
L 298.019046 39.506781 
L 302.820515 39.445148 
L 307.621985 39.414332 
L 312.423454 39.376667 
L 317.224923 39.325307 
L 322.026392 39.249978 
L 326.827862 39.205466 
L 331.629331 39.174649 
L 336.4308 39.157529 
L 341.232269 39.133561 
L 346.033739 39.113017 
L 350.835208 39.102745 
L 355.636677 39.089048 
L 360.438146 39.0822 
L 365.239615 39.0822 
L 370.041085 39.085624 
L 374.842554 39.075352 
L 379.644023 39.054808 
L 384.445492 39.010296 
L 389.246962 38.996599 
L 394.048431 38.982903 
L 398.8499 38.976055 
L 403.651369 38.965783 
L 408.452839 38.958935 
L 413.254308 38.945239 
L 418.055777 38.931543 
L 422.857246 38.931543 
L 427.658716 38.924695 
L 432.460185 38.924695 
L 437.261654 38.924695 
L 442.063123 38.921271 
L 446.864593 38.921271 
L 451.666062 38.928119 
L 456.467531 38.928119 
L 461.269 38.921271 
L 466.070469 38.917847 
L 470.871939 38.917847 
L 475.673408 38.917847 
L 480.474877 38.914423 
L 485.276346 38.914423 
L 490.077816 38.914423 
L 494.879285 38.910999 
L 499.680754 38.907575 
L 504.482223 38.907575 
L 509.283693 38.907575 
L 514.085162 38.897302 
L 518.886631 38.897302 
L 523.6881 38.893878 
L 528.48957 38.893878 
L 533.291039 38.893878 
L 538.092508 38.893878 
L 542.893977 38.893878 
" clip-path="url(#p4486b7b956)" style="fill: none; stroke: #d62728; stroke-width: 2; stroke-linecap: square"/>
   </g>
   <g id="line2d_33">
    <path d="M 67.548523 351.501426 
L 72.349992 352.357434 
L 77.151461 357.37707 
L 81.95293 359.582148 
L 86.7544 360.585391 
L 91.555869 357.664689 
L 96.357338 360.044393 
L 101.158807 361.424279 
L 105.960277 357.924915 
L 110.761746 345.50594 
L 115.563215 342.715352 
L 120.364684 333.552634 
L 125.166154 312.501667 
L 129.967623 302.215866 
L 134.769092 284.606054 
L 139.570561 261.445881 
L 144.372031 244.654414 
L 149.1735 230.136505 
L 153.974969 222.836463 
L 158.776438 216.375309 
L 163.577907 211.044086 
L 168.379377 205.106809 
L 173.180846 197.234953 
L 177.982315 190.948425 
L 182.783784 184.02845 
L 187.585254 174.612354 
L 192.386723 168.34637 
L 197.188192 160.858005 
L 201.989661 154.174289 
L 206.791131 151.441909 
L 211.5926 147.915153 
L 216.394069 144.48427 
L 221.195538 139.868671 
L 225.997008 138.615474 
L 230.798477 130.82237 
L 235.599946 132.869943 
L 240.401415 131.147653 
L 245.202885 128.545387 
L 250.004354 127.685954 
L 254.805823 128.148199 
L 259.607292 127.196317 
L 264.408761 125.272009 
L 269.210231 126.634775 
L 274.0117 122.320491 
L 278.813169 113.524145 
L 283.614638 112.21274 
L 288.416108 110.997207 
L 293.217577 108.624351 
L 298.019046 111.127321 
L 302.820515 107.330066 
L 307.621985 107.754646 
L 312.423454 105.902243 
L 317.224923 103.748525 
L 322.026392 102.981541 
L 326.827862 102.830884 
L 331.629331 100.649774 
L 336.4308 96.496419 
L 341.232269 95.551386 
L 346.033739 96.109503 
L 350.835208 95.311703 
L 355.636677 89.898304 
L 360.438146 87.306309 
L 365.239615 90.973451 
L 370.041085 91.178893 
L 374.842554 86.905697 
L 379.644023 89.234041 
L 384.445492 89.87776 
L 389.246962 87.79937 
L 394.048431 85.820278 
L 398.8499 80.70477 
L 403.651369 78.814702 
L 408.452839 82.560597 
L 413.254308 82.629077 
L 418.055777 83.279644 
L 422.857246 80.160348 
L 427.658716 77.037628 
L 432.460185 78.985904 
L 437.261654 79.266675 
L 442.063123 78.811278 
L 446.864593 80.73901 
L 451.666062 79.547446 
L 456.467531 80.591777 
L 461.269 79.448149 
L 466.070469 70.347064 
L 470.871939 72.281644 
L 475.673408 72.192619 
L 480.474877 71.066111 
L 485.276346 70.216951 
L 490.077816 69.456815 
L 494.879285 68.7994 
L 499.680754 67.231192 
L 504.482223 66.857972 
L 509.283693 67.04287 
L 514.085162 67.012054 
L 518.886631 66.604594 
L 523.6881 65.279492 
L 528.48957 66.477904 
L 533.291039 67.922847 
L 538.092508 67.871487 
L 542.893977 67.522235 
" clip-path="url(#p4486b7b956)" style="fill: none; stroke: #9467bd; stroke-width: 2; stroke-linecap: square"/>
   </g>
   <g id="line2d_34">
    <path d="M 67.548523 362.725412 
L 72.349992 368.970852 
L 77.151461 367.443733 
L 81.95293 364.896251 
L 86.7544 358.068725 
L 91.555869 345.331315 
L 96.357338 337.428642 
L 101.158807 330.683293 
L 105.960277 323.616085 
L 110.761746 313.919218 
L 115.563215 299.110266 
L 120.364684 269.208169 
L 125.166154 232.766164 
L 129.967623 199.398943 
L 134.769092 168.16832 
L 139.570561 146.384609 
L 144.372031 127.836612 
L 149.1735 114.523963 
L 153.974969 102.255646 
L 158.776438 87.6042 
L 163.577907 71.672165 
L 168.379377 63.204527 
L 173.180846 58.475935 
L 177.982315 52.894758 
L 182.783784 49.368001 
L 187.585254 46.529476 
L 192.386723 44.029931 
L 197.188192 42.304217 
L 201.989661 41.054445 
L 206.791131 40.266916 
L 211.5926 39.808096 
L 216.394069 39.585533 
L 221.195538 39.400636 
L 225.997008 39.311611 
L 230.798477 39.202042 
L 235.599946 39.116441 
L 240.401415 39.075352 
L 245.202885 39.020568 
L 250.004354 39.003448 
L 254.805823 38.982903 
L 259.607292 38.982903 
L 264.408761 38.969207 
L 269.210231 38.948663 
L 274.0117 38.938391 
L 278.813169 38.931543 
L 283.614638 38.928119 
L 288.416108 38.924695 
L 293.217577 38.914423 
L 298.019046 38.910999 
L 302.820515 38.907575 
L 307.621985 38.900726 
L 312.423454 38.893878 
L 317.224923 38.893878 
L 322.026392 38.893878 
L 326.827862 38.893878 
L 331.629331 38.893878 
L 336.4308 38.893878 
L 341.232269 38.893878 
L 346.033739 38.893878 
L 350.835208 38.893878 
L 355.636677 38.893878 
L 360.438146 38.893878 
L 365.239615 38.893878 
L 370.041085 38.893878 
L 374.842554 38.893878 
L 379.644023 38.893878 
L 384.445492 38.893878 
L 389.246962 38.893878 
L 394.048431 38.893878 
L 398.8499 38.893878 
L 403.651369 38.893878 
L 408.452839 38.893878 
L 413.254308 38.893878 
L 418.055777 38.893878 
L 422.857246 38.893878 
L 427.658716 38.893878 
L 432.460185 38.893878 
L 437.261654 38.893878 
L 442.063123 38.893878 
L 446.864593 38.893878 
L 451.666062 38.893878 
L 456.467531 38.893878 
L 461.269 38.893878 
L 466.070469 38.893878 
L 470.871939 38.893878 
L 475.673408 38.893878 
L 480.474877 38.893878 
L 485.276346 38.893878 
L 490.077816 38.893878 
L 494.879285 38.893878 
L 499.680754 38.893878 
L 504.482223 38.897302 
L 509.283693 38.938391 
L 514.085162 38.900726 
L 518.886631 38.880182 
L 523.6881 38.873334 
L 528.48957 38.856214 
L 533.291039 38.883606 
L 538.092508 38.825398 
L 542.893977 38.839094 
" clip-path="url(#p4486b7b956)" style="fill: none; stroke: #8c564b; stroke-width: 2; stroke-linecap: square"/>
   </g>
   <g id="patch_3">
    <path d="M 43.78125 385.478125 
L 43.78125 22.318125 
" style="fill: none; stroke: #000000; stroke-width: 0.8; stroke-linejoin: miter; stroke-linecap: square"/>
   </g>
   <g id="patch_4">
    <path d="M 566.66125 385.478125 
L 566.66125 22.318125 
" style="fill: none; stroke: #000000; stroke-width: 0.8; stroke-linejoin: miter; stroke-linecap: square"/>
   </g>
   <g id="patch_5">
    <path d="M 43.78125 385.478125 
L 566.66125 385.478125 
" style="fill: none; stroke: #000000; stroke-width: 0.8; stroke-linejoin: miter; stroke-linecap: square"/>
   </g>
   <g id="patch_6">
    <path d="M 43.78125 22.318125 
L 566.66125 22.318125 
" style="fill: none; stroke: #000000; stroke-width: 0.8; stroke-linejoin: miter; stroke-linecap: square"/>
   </g>
   <g id="text_17">
    <!-- Accuracy Comparison - mhealth -->
    <g transform="translate(209.180937 16.318125) scale(0.12 -0.12)">
     <defs>
      <path id="DejaVuSans-70" d="M 1159 525 
L 1159 -1331 
L 581 -1331 
L 581 3500 
L 1159 3500 
L 1159 2969 
Q 1341 3281 1617 3432 
Q 1894 3584 2278 3584 
Q 2916 3584 3314 3078 
Q 3713 2572 3713 1747 
Q 3713 922 3314 415 
Q 2916 -91 2278 -91 
Q 1894 -91 1617 61 
Q 1341 213 1159 525 
z
M 3116 1747 
Q 3116 2381 2855 2742 
Q 2594 3103 2138 3103 
Q 1681 3103 1420 2742 
Q 1159 2381 1159 1747 
Q 1159 1113 1420 752 
Q 1681 391 2138 391 
Q 2594 391 2855 752 
Q 3116 1113 3116 1747 
z
" transform="scale(0.015625)"/>
      <path id="DejaVuSans-2d" d="M 313 2009 
L 1997 2009 
L 1997 1497 
L 313 1497 
L 313 2009 
z
" transform="scale(0.015625)"/>
      <path id="DejaVuSans-68" d="M 3513 2113 
L 3513 0 
L 2938 0 
L 2938 2094 
Q 2938 2591 2744 2837 
Q 2550 3084 2163 3084 
Q 1697 3084 1428 2787 
Q 1159 2491 1159 1978 
L 1159 0 
L 581 0 
L 581 4863 
L 1159 4863 
L 1159 2956 
Q 1366 3272 1645 3428 
Q 1925 3584 2291 3584 
Q 2894 3584 3203 3211 
Q 3513 2838 3513 2113 
z
" transform="scale(0.015625)"/>
      <path id="DejaVuSans-65" d="M 3597 1894 
L 3597 1613 
L 953 1613 
Q 991 1019 1311 708 
Q 1631 397 2203 397 
Q 2534 397 2845 478 
Q 3156 559 3463 722 
L 3463 178 
Q 3153 47 2828 -22 
Q 2503 -91 2169 -91 
Q 1331 -91 842 396 
Q 353 884 353 1716 
Q 353 2575 817 3079 
Q 1281 3584 2069 3584 
Q 2775 3584 3186 3129 
Q 3597 2675 3597 1894 
z
M 3022 2063 
Q 3016 2534 2758 2815 
Q 2500 3097 2075 3097 
Q 1594 3097 1305 2825 
Q 1016 2553 972 2059 
L 3022 2063 
z
" transform="scale(0.015625)"/>
     </defs>
     <use xlink:href="#DejaVuSans-41"/>
     <use xlink:href="#DejaVuSans-63" x="66.658203"/>
     <use xlink:href="#DejaVuSans-63" x="121.638672"/>
     <use xlink:href="#DejaVuSans-75" x="176.619141"/>
     <use xlink:href="#DejaVuSans-72" x="239.998047"/>
     <use xlink:href="#DejaVuSans-61" x="281.111328"/>
     <use xlink:href="#DejaVuSans-63" x="342.390625"/>
     <use xlink:href="#DejaVuSans-79" x="397.371094"/>
     <use xlink:href="#DejaVuSans-20" x="456.550781"/>
     <use xlink:href="#DejaVuSans-43" x="488.337891"/>
     <use xlink:href="#DejaVuSans-6f" x="558.162109"/>
     <use xlink:href="#DejaVuSans-6d" x="619.34375"/>
     <use xlink:href="#DejaVuSans-70" x="716.755859"/>
     <use xlink:href="#DejaVuSans-61" x="780.232422"/>
     <use xlink:href="#DejaVuSans-72" x="841.511719"/>
     <use xlink:href="#DejaVuSans-69" x="882.625"/>
     <use xlink:href="#DejaVuSans-73" x="910.408203"/>
     <use xlink:href="#DejaVuSans-6f" x="962.507812"/>
     <use xlink:href="#DejaVuSans-6e" x="1023.689453"/>
     <use xlink:href="#DejaVuSans-20" x="1087.068359"/>
     <use xlink:href="#DejaVuSans-2d" x="1118.855469"/>
     <use xlink:href="#DejaVuSans-20" x="1154.939453"/>
     <use xlink:href="#DejaVuSans-6d" x="1186.726562"/>
     <use xlink:href="#DejaVuSans-68" x="1284.138672"/>
     <use xlink:href="#DejaVuSans-65" x="1347.517578"/>
     <use xlink:href="#DejaVuSans-61" x="1409.041016"/>
     <use xlink:href="#DejaVuSans-6c" x="1470.320312"/>
     <use xlink:href="#DejaVuSans-74" x="1498.103516"/>
     <use xlink:href="#DejaVuSans-68" x="1537.3125"/>
    </g>
   </g>
   <g id="legend_1">
    <g id="patch_7">
     <path d="M 50.78125 118.386875 
L 125.195312 118.386875 
Q 127.195312 118.386875 127.195312 116.386875 
L 127.195312 29.318125 
Q 127.195312 27.318125 125.195312 27.318125 
L 50.78125 27.318125 
Q 48.78125 27.318125 48.78125 29.318125 
L 48.78125 116.386875 
Q 48.78125 118.386875 50.78125 118.386875 
z
" style="fill: #ffffff; opacity: 0.8; stroke: #cccccc; stroke-linejoin: miter"/>
    </g>
    <g id="line2d_35">
     <path d="M 52.78125 35.416563 
L 62.78125 35.416563 
L 72.78125 35.416563 
" style="fill: none; stroke: #1f77b4; stroke-width: 2; stroke-linecap: square"/>
    </g>
    <g id="text_18">
     <!-- fedmekt -->
     <g transform="translate(80.78125 38.916563) scale(0.1 -0.1)">
      <defs>
       <path id="DejaVuSans-66" d="M 2375 4863 
L 2375 4384 
L 1825 4384 
Q 1516 4384 1395 4259 
Q 1275 4134 1275 3809 
L 1275 3500 
L 2222 3500 
L 2222 3053 
L 1275 3053 
L 1275 0 
L 697 0 
L 697 3053 
L 147 3053 
L 147 3500 
L 697 3500 
L 697 3744 
Q 697 4328 969 4595 
Q 1241 4863 1831 4863 
L 2375 4863 
z
" transform="scale(0.015625)"/>
       <path id="DejaVuSans-6b" d="M 581 4863 
L 1159 4863 
L 1159 1991 
L 2875 3500 
L 3609 3500 
L 1753 1863 
L 3688 0 
L 2938 0 
L 1159 1709 
L 1159 0 
L 581 0 
L 581 4863 
z
" transform="scale(0.015625)"/>
      </defs>
      <use xlink:href="#DejaVuSans-66"/>
      <use xlink:href="#DejaVuSans-65" x="35.205078"/>
      <use xlink:href="#DejaVuSans-64" x="96.728516"/>
      <use xlink:href="#DejaVuSans-6d" x="160.205078"/>
      <use xlink:href="#DejaVuSans-65" x="257.617188"/>
      <use xlink:href="#DejaVuSans-6b" x="319.140625"/>
      <use xlink:href="#DejaVuSans-74" x="377.050781"/>
     </g>
    </g>
    <g id="line2d_36">
     <path d="M 52.78125 50.094688 
L 62.78125 50.094688 
L 72.78125 50.094688 
" style="fill: none; stroke: #ff7f0e; stroke-width: 2; stroke-linecap: square"/>
    </g>
    <g id="text_19">
     <!-- fedproto -->
     <g transform="translate(80.78125 53.594688) scale(0.1 -0.1)">
      <use xlink:href="#DejaVuSans-66"/>
      <use xlink:href="#DejaVuSans-65" x="35.205078"/>
      <use xlink:href="#DejaVuSans-64" x="96.728516"/>
      <use xlink:href="#DejaVuSans-70" x="160.205078"/>
      <use xlink:href="#DejaVuSans-72" x="223.681641"/>
      <use xlink:href="#DejaVuSans-6f" x="262.544922"/>
      <use xlink:href="#DejaVuSans-74" x="323.726562"/>
      <use xlink:href="#DejaVuSans-6f" x="362.935547"/>
     </g>
    </g>
    <g id="line2d_37">
     <path d="M 52.78125 64.772813 
L 62.78125 64.772813 
L 72.78125 64.772813 
" style="fill: none; stroke: #2ca02c; stroke-width: 2; stroke-linecap: square"/>
    </g>
    <g id="text_20">
     <!-- fedavg -->
     <g transform="translate(80.78125 68.272813) scale(0.1 -0.1)">
      <defs>
       <path id="DejaVuSans-76" d="M 191 3500 
L 800 3500 
L 1894 563 
L 2988 3500 
L 3597 3500 
L 2284 0 
L 1503 0 
L 191 3500 
z
" transform="scale(0.015625)"/>
       <path id="DejaVuSans-67" d="M 2906 1791 
Q 2906 2416 2648 2759 
Q 2391 3103 1925 3103 
Q 1463 3103 1205 2759 
Q 947 2416 947 1791 
Q 947 1169 1205 825 
Q 1463 481 1925 481 
Q 2391 481 2648 825 
Q 2906 1169 2906 1791 
z
M 3481 434 
Q 3481 -459 3084 -895 
Q 2688 -1331 1869 -1331 
Q 1566 -1331 1297 -1286 
Q 1028 -1241 775 -1147 
L 775 -588 
Q 1028 -725 1275 -790 
Q 1522 -856 1778 -856 
Q 2344 -856 2625 -561 
Q 2906 -266 2906 331 
L 2906 616 
Q 2728 306 2450 153 
Q 2172 0 1784 0 
Q 1141 0 747 490 
Q 353 981 353 1791 
Q 353 2603 747 3093 
Q 1141 3584 1784 3584 
Q 2172 3584 2450 3431 
Q 2728 3278 2906 2969 
L 2906 3500 
L 3481 3500 
L 3481 434 
z
" transform="scale(0.015625)"/>
      </defs>
      <use xlink:href="#DejaVuSans-66"/>
      <use xlink:href="#DejaVuSans-65" x="35.205078"/>
      <use xlink:href="#DejaVuSans-64" x="96.728516"/>
      <use xlink:href="#DejaVuSans-61" x="160.205078"/>
      <use xlink:href="#DejaVuSans-76" x="221.484375"/>
      <use xlink:href="#DejaVuSans-67" x="280.664062"/>
     </g>
    </g>
    <g id="line2d_38">
     <path d="M 52.78125 79.450938 
L 62.78125 79.450938 
L 72.78125 79.450938 
" style="fill: none; stroke: #d62728; stroke-width: 2; stroke-linecap: square"/>
    </g>
    <g id="text_21">
     <!-- fedcent -->
     <g transform="translate(80.78125 82.950938) scale(0.1 -0.1)">
      <use xlink:href="#DejaVuSans-66"/>
      <use xlink:href="#DejaVuSans-65" x="35.205078"/>
      <use xlink:href="#DejaVuSans-64" x="96.728516"/>
      <use xlink:href="#DejaVuSans-63" x="160.205078"/>
      <use xlink:href="#DejaVuSans-65" x="215.185547"/>
      <use xlink:href="#DejaVuSans-6e" x="276.708984"/>
      <use xlink:href="#DejaVuSans-74" x="340.087891"/>
     </g>
    </g>
    <g id="line2d_39">
     <path d="M 52.78125 94.129063 
L 62.78125 94.129063 
L 72.78125 94.129063 
" style="fill: none; stroke: #9467bd; stroke-width: 2; stroke-linecap: square"/>
    </g>
    <g id="text_22">
     <!-- fedprox -->
     <g transform="translate(80.78125 97.629063) scale(0.1 -0.1)">
      <defs>
       <path id="DejaVuSans-78" d="M 3513 3500 
L 2247 1797 
L 3578 0 
L 2900 0 
L 1881 1375 
L 863 0 
L 184 0 
L 1544 1831 
L 300 3500 
L 978 3500 
L 1906 2253 
L 2834 3500 
L 3513 3500 
z
" transform="scale(0.015625)"/>
      </defs>
      <use xlink:href="#DejaVuSans-66"/>
      <use xlink:href="#DejaVuSans-65" x="35.205078"/>
      <use xlink:href="#DejaVuSans-64" x="96.728516"/>
      <use xlink:href="#DejaVuSans-70" x="160.205078"/>
      <use xlink:href="#DejaVuSans-72" x="223.681641"/>
      <use xlink:href="#DejaVuSans-6f" x="262.544922"/>
      <use xlink:href="#DejaVuSans-78" x="320.601562"/>
     </g>
    </g>
    <g id="line2d_40">
     <path d="M 52.78125 108.807188 
L 62.78125 108.807188 
L 72.78125 108.807188 
" style="fill: none; stroke: #8c564b; stroke-width: 2; stroke-linecap: square"/>
    </g>
    <g id="text_23">
     <!-- fedprop -->
     <g transform="translate(80.78125 112.307188) scale(0.1 -0.1)">
      <use xlink:href="#DejaVuSans-66"/>
      <use xlink:href="#DejaVuSans-65" x="35.205078"/>
      <use xlink:href="#DejaVuSans-64" x="96.728516"/>
      <use xlink:href="#DejaVuSans-70" x="160.205078"/>
      <use xlink:href="#DejaVuSans-72" x="223.681641"/>
      <use xlink:href="#DejaVuSans-6f" x="262.544922"/>
      <use xlink:href="#DejaVuSans-70" x="323.726562"/>
     </g>
    </g>
   </g>
  </g>
  <g id="axes_2">
   <g id="patch_8">
    <path d="M 614.38125 385.478125 
L 1137.26125 385.478125 
L 1137.26125 22.318125 
L 614.38125 22.318125 
z
" style="fill: #ffffff"/>
   </g>
   <g id="matplotlib.axis_3">
    <g id="xtick_7">
     <g id="line2d_41">
      <path d="M 633.347053 385.478125 
L 633.347053 22.318125 
" clip-path="url(#pb131e249e9)" style="fill: none; stroke: #b0b0b0; stroke-opacity: 0.3; stroke-width: 0.8; stroke-linecap: square"/>
     </g>
     <g id="line2d_42">
      <g>
       <use xlink:href="#m637f9ad318" x="633.347053" y="385.478125" style="stroke: #000000; stroke-width: 0.8"/>
      </g>
     </g>
     <g id="text_24">
      <!-- 0 -->
      <g transform="translate(630.165803 400.076562) scale(0.1 -0.1)">
       <use xlink:href="#DejaVuSans-30"/>
      </g>
     </g>
    </g>
    <g id="xtick_8">
     <g id="line2d_43">
      <path d="M 729.376438 385.478125 
L 729.376438 22.318125 
" clip-path="url(#pb131e249e9)" style="fill: none; stroke: #b0b0b0; stroke-opacity: 0.3; stroke-width: 0.8; stroke-linecap: square"/>
     </g>
     <g id="line2d_44">
      <g>
       <use xlink:href="#m637f9ad318" x="729.376438" y="385.478125" style="stroke: #000000; stroke-width: 0.8"/>
      </g>
     </g>
     <g id="text_25">
      <!-- 20 -->
      <g transform="translate(723.013938 400.076562) scale(0.1 -0.1)">
       <use xlink:href="#DejaVuSans-32"/>
       <use xlink:href="#DejaVuSans-30" x="63.623047"/>
      </g>
     </g>
    </g>
    <g id="xtick_9">
     <g id="line2d_45">
      <path d="M 825.405823 385.478125 
L 825.405823 22.318125 
" clip-path="url(#pb131e249e9)" style="fill: none; stroke: #b0b0b0; stroke-opacity: 0.3; stroke-width: 0.8; stroke-linecap: square"/>
     </g>
     <g id="line2d_46">
      <g>
       <use xlink:href="#m637f9ad318" x="825.405823" y="385.478125" style="stroke: #000000; stroke-width: 0.8"/>
      </g>
     </g>
     <g id="text_26">
      <!-- 40 -->
      <g transform="translate(819.043323 400.076562) scale(0.1 -0.1)">
       <use xlink:href="#DejaVuSans-34"/>
       <use xlink:href="#DejaVuSans-30" x="63.623047"/>
      </g>
     </g>
    </g>
    <g id="xtick_10">
     <g id="line2d_47">
      <path d="M 921.435208 385.478125 
L 921.435208 22.318125 
" clip-path="url(#pb131e249e9)" style="fill: none; stroke: #b0b0b0; stroke-opacity: 0.3; stroke-width: 0.8; stroke-linecap: square"/>
     </g>
     <g id="line2d_48">
      <g>
       <use xlink:href="#m637f9ad318" x="921.435208" y="385.478125" style="stroke: #000000; stroke-width: 0.8"/>
      </g>
     </g>
     <g id="text_27">
      <!-- 60 -->
      <g transform="translate(915.072708 400.076562) scale(0.1 -0.1)">
       <use xlink:href="#DejaVuSans-36"/>
       <use xlink:href="#DejaVuSans-30" x="63.623047"/>
      </g>
     </g>
    </g>
    <g id="xtick_11">
     <g id="line2d_49">
      <path d="M 1017.464593 385.478125 
L 1017.464593 22.318125 
" clip-path="url(#pb131e249e9)" style="fill: none; stroke: #b0b0b0; stroke-opacity: 0.3; stroke-width: 0.8; stroke-linecap: square"/>
     </g>
     <g id="line2d_50">
      <g>
       <use xlink:href="#m637f9ad318" x="1017.464593" y="385.478125" style="stroke: #000000; stroke-width: 0.8"/>
      </g>
     </g>
     <g id="text_28">
      <!-- 80 -->
      <g transform="translate(1011.102093 400.076562) scale(0.1 -0.1)">
       <use xlink:href="#DejaVuSans-38"/>
       <use xlink:href="#DejaVuSans-30" x="63.623047"/>
      </g>
     </g>
    </g>
    <g id="xtick_12">
     <g id="line2d_51">
      <path d="M 1113.493977 385.478125 
L 1113.493977 22.318125 
" clip-path="url(#pb131e249e9)" style="fill: none; stroke: #b0b0b0; stroke-opacity: 0.3; stroke-width: 0.8; stroke-linecap: square"/>
     </g>
     <g id="line2d_52">
      <g>
       <use xlink:href="#m637f9ad318" x="1113.493977" y="385.478125" style="stroke: #000000; stroke-width: 0.8"/>
      </g>
     </g>
     <g id="text_29">
      <!-- 100 -->
      <g transform="translate(1103.950227 400.076562) scale(0.1 -0.1)">
       <use xlink:href="#DejaVuSans-31"/>
       <use xlink:href="#DejaVuSans-30" x="63.623047"/>
       <use xlink:href="#DejaVuSans-30" x="127.246094"/>
      </g>
     </g>
    </g>
    <g id="text_30">
     <!-- Communication Rounds -->
     <g transform="translate(816.398594 413.754687) scale(0.1 -0.1)">
      <use xlink:href="#DejaVuSans-43"/>
      <use xlink:href="#DejaVuSans-6f" x="69.824219"/>
      <use xlink:href="#DejaVuSans-6d" x="131.005859"/>
      <use xlink:href="#DejaVuSans-6d" x="228.417969"/>
      <use xlink:href="#DejaVuSans-75" x="325.830078"/>
      <use xlink:href="#DejaVuSans-6e" x="389.208984"/>
      <use xlink:href="#DejaVuSans-69" x="452.587891"/>
      <use xlink:href="#DejaVuSans-63" x="480.371094"/>
      <use xlink:href="#DejaVuSans-61" x="535.351562"/>
      <use xlink:href="#DejaVuSans-74" x="596.630859"/>
      <use xlink:href="#DejaVuSans-69" x="635.839844"/>
      <use xlink:href="#DejaVuSans-6f" x="663.623047"/>
      <use xlink:href="#DejaVuSans-6e" x="724.804688"/>
      <use xlink:href="#DejaVuSans-20" x="788.183594"/>
      <use xlink:href="#DejaVuSans-52" x="819.970703"/>
      <use xlink:href="#DejaVuSans-6f" x="884.953125"/>
      <use xlink:href="#DejaVuSans-75" x="946.134766"/>
      <use xlink:href="#DejaVuSans-6e" x="1009.513672"/>
      <use xlink:href="#DejaVuSans-64" x="1072.892578"/>
      <use xlink:href="#DejaVuSans-73" x="1136.369141"/>
     </g>
    </g>
   </g>
   <g id="matplotlib.axis_4">
    <g id="ytick_9">
     <g id="line2d_53">
      <path d="M 614.38125 333.363609 
L 1137.26125 333.363609 
" clip-path="url(#pb131e249e9)" style="fill: none; stroke: #b0b0b0; stroke-opacity: 0.3; stroke-width: 0.8; stroke-linecap: square"/>
     </g>
     <g id="line2d_54">
      <g>
       <use xlink:href="#m0dff9be51a" x="614.38125" y="333.363609" style="stroke: #000000; stroke-width: 0.8"/>
      </g>
     </g>
     <g id="text_31">
      <!-- 0.1 -->
      <g transform="translate(591.478125 337.162828) scale(0.1 -0.1)">
       <use xlink:href="#DejaVuSans-30"/>
       <use xlink:href="#DejaVuSans-2e" x="63.623047"/>
       <use xlink:href="#DejaVuSans-31" x="95.410156"/>
      </g>
     </g>
    </g>
    <g id="ytick_10">
     <g id="line2d_55">
      <path d="M 614.38125 279.425533 
L 1137.26125 279.425533 
" clip-path="url(#pb131e249e9)" style="fill: none; stroke: #b0b0b0; stroke-opacity: 0.3; stroke-width: 0.8; stroke-linecap: square"/>
     </g>
     <g id="line2d_56">
      <g>
       <use xlink:href="#m0dff9be51a" x="614.38125" y="279.425533" style="stroke: #000000; stroke-width: 0.8"/>
      </g>
     </g>
     <g id="text_32">
      <!-- 0.2 -->
      <g transform="translate(591.478125 283.224752) scale(0.1 -0.1)">
       <use xlink:href="#DejaVuSans-30"/>
       <use xlink:href="#DejaVuSans-2e" x="63.623047"/>
       <use xlink:href="#DejaVuSans-32" x="95.410156"/>
      </g>
     </g>
    </g>
    <g id="ytick_11">
     <g id="line2d_57">
      <path d="M 614.38125 225.487457 
L 1137.26125 225.487457 
" clip-path="url(#pb131e249e9)" style="fill: none; stroke: #b0b0b0; stroke-opacity: 0.3; stroke-width: 0.8; stroke-linecap: square"/>
     </g>
     <g id="line2d_58">
      <g>
       <use xlink:href="#m0dff9be51a" x="614.38125" y="225.487457" style="stroke: #000000; stroke-width: 0.8"/>
      </g>
     </g>
     <g id="text_33">
      <!-- 0.3 -->
      <g transform="translate(591.478125 229.286676) scale(0.1 -0.1)">
       <use xlink:href="#DejaVuSans-30"/>
       <use xlink:href="#DejaVuSans-2e" x="63.623047"/>
       <use xlink:href="#DejaVuSans-33" x="95.410156"/>
      </g>
     </g>
    </g>
    <g id="ytick_12">
     <g id="line2d_59">
      <path d="M 614.38125 171.549381 
L 1137.26125 171.549381 
" clip-path="url(#pb131e249e9)" style="fill: none; stroke: #b0b0b0; stroke-opacity: 0.3; stroke-width: 0.8; stroke-linecap: square"/>
     </g>
     <g id="line2d_60">
      <g>
       <use xlink:href="#m0dff9be51a" x="614.38125" y="171.549381" style="stroke: #000000; stroke-width: 0.8"/>
      </g>
     </g>
     <g id="text_34">
      <!-- 0.4 -->
      <g transform="translate(591.478125 175.3486) scale(0.1 -0.1)">
       <use xlink:href="#DejaVuSans-30"/>
       <use xlink:href="#DejaVuSans-2e" x="63.623047"/>
       <use xlink:href="#DejaVuSans-34" x="95.410156"/>
      </g>
     </g>
    </g>
    <g id="ytick_13">
     <g id="line2d_61">
      <path d="M 614.38125 117.611305 
L 1137.26125 117.611305 
" clip-path="url(#pb131e249e9)" style="fill: none; stroke: #b0b0b0; stroke-opacity: 0.3; stroke-width: 0.8; stroke-linecap: square"/>
     </g>
     <g id="line2d_62">
      <g>
       <use xlink:href="#m0dff9be51a" x="614.38125" y="117.611305" style="stroke: #000000; stroke-width: 0.8"/>
      </g>
     </g>
     <g id="text_35">
      <!-- 0.5 -->
      <g transform="translate(591.478125 121.410524) scale(0.1 -0.1)">
       <use xlink:href="#DejaVuSans-30"/>
       <use xlink:href="#DejaVuSans-2e" x="63.623047"/>
       <use xlink:href="#DejaVuSans-35" x="95.410156"/>
      </g>
     </g>
    </g>
    <g id="ytick_14">
     <g id="line2d_63">
      <path d="M 614.38125 63.673229 
L 1137.26125 63.673229 
" clip-path="url(#pb131e249e9)" style="fill: none; stroke: #b0b0b0; stroke-opacity: 0.3; stroke-width: 0.8; stroke-linecap: square"/>
     </g>
     <g id="line2d_64">
      <g>
       <use xlink:href="#m0dff9be51a" x="614.38125" y="63.673229" style="stroke: #000000; stroke-width: 0.8"/>
      </g>
     </g>
     <g id="text_36">
      <!-- 0.6 -->
      <g transform="translate(591.478125 67.472448) scale(0.1 -0.1)">
       <use xlink:href="#DejaVuSans-30"/>
       <use xlink:href="#DejaVuSans-2e" x="63.623047"/>
       <use xlink:href="#DejaVuSans-36" x="95.410156"/>
      </g>
     </g>
    </g>
    <g id="text_37">
     <!-- Global F1 Score -->
     <g transform="translate(585.398438 243.085625) rotate(-90) scale(0.1 -0.1)">
      <defs>
       <path id="DejaVuSans-46" d="M 628 4666 
L 3309 4666 
L 3309 4134 
L 1259 4134 
L 1259 2759 
L 3109 2759 
L 3109 2228 
L 1259 2228 
L 1259 0 
L 628 0 
L 628 4666 
z
" transform="scale(0.015625)"/>
       <path id="DejaVuSans-53" d="M 3425 4513 
L 3425 3897 
Q 3066 4069 2747 4153 
Q 2428 4238 2131 4238 
Q 1616 4238 1336 4038 
Q 1056 3838 1056 3469 
Q 1056 3159 1242 3001 
Q 1428 2844 1947 2747 
L 2328 2669 
Q 3034 2534 3370 2195 
Q 3706 1856 3706 1288 
Q 3706 609 3251 259 
Q 2797 -91 1919 -91 
Q 1588 -91 1214 -16 
Q 841 59 441 206 
L 441 856 
Q 825 641 1194 531 
Q 1563 422 1919 422 
Q 2459 422 2753 634 
Q 3047 847 3047 1241 
Q 3047 1584 2836 1778 
Q 2625 1972 2144 2069 
L 1759 2144 
Q 1053 2284 737 2584 
Q 422 2884 422 3419 
Q 422 4038 858 4394 
Q 1294 4750 2059 4750 
Q 2388 4750 2728 4690 
Q 3069 4631 3425 4513 
z
" transform="scale(0.015625)"/>
      </defs>
      <use xlink:href="#DejaVuSans-47"/>
      <use xlink:href="#DejaVuSans-6c" x="77.490234"/>
      <use xlink:href="#DejaVuSans-6f" x="105.273438"/>
      <use xlink:href="#DejaVuSans-62" x="166.455078"/>
      <use xlink:href="#DejaVuSans-61" x="229.931641"/>
      <use xlink:href="#DejaVuSans-6c" x="291.210938"/>
      <use xlink:href="#DejaVuSans-20" x="318.994141"/>
      <use xlink:href="#DejaVuSans-46" x="350.78125"/>
      <use xlink:href="#DejaVuSans-31" x="408.300781"/>
      <use xlink:href="#DejaVuSans-20" x="471.923828"/>
      <use xlink:href="#DejaVuSans-53" x="503.710938"/>
      <use xlink:href="#DejaVuSans-63" x="567.1875"/>
      <use xlink:href="#DejaVuSans-6f" x="622.167969"/>
      <use xlink:href="#DejaVuSans-72" x="683.349609"/>
      <use xlink:href="#DejaVuSans-65" x="722.212891"/>
     </g>
    </g>
   </g>
   <g id="line2d_65">
    <path d="M 638.148523 350.593324 
L 642.949992 318.769548 
L 647.751461 295.33361 
L 652.55293 266.733143 
L 657.3544 228.605304 
L 662.155869 185.33552 
L 666.957338 165.840155 
L 671.758807 151.448826 
L 676.560277 140.413782 
L 681.361746 129.633797 
L 686.163215 121.170267 
L 690.964684 112.538194 
L 695.766154 102.075948 
L 700.567623 91.462846 
L 705.369092 83.566457 
L 710.170561 77.316507 
L 714.972031 70.71995 
L 719.7735 64.422821 
L 724.574969 60.446288 
L 729.376438 56.729614 
L 734.177907 54.306657 
L 738.979377 51.887169 
L 743.780846 49.809696 
L 748.582315 47.49105 
L 753.383784 45.194116 
L 758.185254 43.284535 
L 762.986723 41.837416 
L 767.788192 40.620837 
L 772.589661 39.794546 
L 777.391131 39.246855 
L 782.1926 38.825398 
L 786.994069 38.974944 
L 791.795538 38.964914 
L 796.597008 38.92779 
L 801.398477 38.934005 
L 806.199946 39.030647 
L 811.001415 39.011465 
L 815.802885 39.165489 
L 820.604354 39.282239 
L 825.405823 39.422817 
L 830.207292 39.616319 
L 835.008761 39.772918 
L 839.810231 39.919875 
L 844.6117 39.99916 
L 849.413169 40.114735 
L 854.214638 40.234596 
L 859.016108 40.230432 
L 863.817577 40.384637 
L 868.619046 41.943744 
L 873.420515 42.116223 
L 878.221985 42.432046 
L 883.023454 42.747965 
L 887.824923 43.267098 
L 892.626392 43.493661 
L 897.427862 43.592987 
L 902.229331 43.635871 
L 907.0308 43.662633 
L 911.832269 43.674756 
L 916.633739 43.67561 
L 921.435208 43.669178 
L 926.236677 43.67119 
L 931.038146 43.681023 
L 935.839615 43.684528 
L 940.641085 43.696176 
L 945.442554 43.694684 
L 950.244023 43.69273 
L 955.045492 43.694187 
L 959.846962 43.692233 
L 964.648431 43.684417 
L 969.4499 43.676601 
L 974.251369 43.670739 
L 979.052839 43.668785 
L 983.854308 43.666832 
L 988.655777 43.666832 
L 993.457246 43.666832 
L 998.258716 43.666832 
L 1003.060185 43.666832 
L 1007.861654 43.666832 
L 1012.663123 43.666832 
L 1017.464593 43.666832 
L 1022.266062 43.666832 
L 1027.067531 43.666832 
L 1031.869 43.666832 
L 1036.670469 43.666832 
L 1041.471939 43.666832 
L 1046.273408 43.666832 
L 1051.074877 43.666832 
L 1055.876346 43.666832 
L 1060.677816 43.666832 
L 1065.479285 43.666832 
L 1070.280754 43.666832 
L 1075.082223 43.666832 
L 1079.883693 43.666832 
L 1084.685162 43.666832 
L 1089.486631 43.666832 
L 1094.2881 43.666832 
L 1099.08957 43.666832 
L 1103.891039 43.666832 
L 1108.692508 43.666832 
L 1113.493977 43.666832 
" clip-path="url(#pb131e249e9)" style="fill: none; stroke: #1f77b4; stroke-width: 2; stroke-linecap: square"/>
   </g>
   <g id="line2d_66">
    <path d="M 638.148523 349.107289 
L 642.949992 316.960914 
L 647.751461 284.41004 
L 652.55293 257.437335 
L 657.3544 218.690312 
L 662.155869 182.013319 
L 666.957338 163.895042 
L 671.758807 151.361002 
L 676.560277 140.724544 
L 681.361746 128.658487 
L 686.163215 118.057566 
L 690.964684 109.439602 
L 695.766154 101.80099 
L 700.567623 92.440847 
L 705.369092 84.407726 
L 710.170561 75.502302 
L 714.972031 67.651116 
L 719.7735 61.908046 
L 724.574969 58.562444 
L 729.376438 55.705268 
L 734.177907 52.771315 
L 738.979377 49.968932 
L 743.780846 47.443614 
L 748.582315 44.864459 
L 753.383784 43.300771 
L 758.185254 42.269145 
L 762.986723 41.479016 
L 767.788192 41.36495 
L 772.589661 41.065231 
L 777.391131 41.031901 
L 782.1926 41.176921 
L 786.994069 41.114826 
L 791.795538 41.297365 
L 796.597008 41.234666 
L 801.398477 41.191445 
L 806.199946 41.316748 
L 811.001415 41.593552 
L 815.802885 41.814252 
L 820.604354 41.905436 
L 825.405823 42.159262 
L 830.207292 42.20966 
L 835.008761 42.385617 
L 839.810231 42.384931 
L 844.6117 42.408929 
L 849.413169 43.835553 
L 854.214638 43.7857 
L 859.016108 43.762332 
L 863.817577 43.750429 
L 868.619046 43.701472 
L 873.420515 43.688591 
L 878.221985 43.646551 
L 883.023454 43.645459 
L 887.824923 43.613045 
L 892.626392 43.634735 
L 897.427862 43.657799 
L 902.229331 43.677808 
L 907.0308 43.685459 
L 911.832269 43.695594 
L 916.633739 43.69748 
L 921.435208 43.694428 
L 926.236677 43.704594 
L 931.038146 43.698233 
L 935.839615 43.699159 
L 940.641085 43.69621 
L 945.442554 43.690313 
L 950.244023 43.69177 
L 955.045492 43.687862 
L 959.846962 43.685411 
L 964.648431 43.677098 
L 969.4499 43.674647 
L 974.251369 43.668785 
L 979.052839 43.666832 
L 983.854308 43.666832 
L 988.655777 43.666832 
L 993.457246 43.666832 
L 998.258716 43.666832 
L 1003.060185 43.666832 
L 1007.861654 43.666832 
L 1012.663123 43.666832 
L 1017.464593 43.666832 
L 1022.266062 43.666832 
L 1027.067531 43.666832 
L 1031.869 43.666832 
L 1036.670469 43.666832 
L 1041.471939 43.666832 
L 1046.273408 43.666832 
L 1051.074877 43.666832 
L 1055.876346 43.666832 
L 1060.677816 43.666832 
L 1065.479285 43.666832 
L 1070.280754 43.666832 
L 1075.082223 43.666832 
L 1079.883693 43.666832 
L 1084.685162 43.666832 
L 1089.486631 43.666832 
L 1094.2881 43.666832 
L 1099.08957 43.666832 
L 1103.891039 43.666832 
L 1108.692508 43.666832 
L 1113.493977 43.666832 
" clip-path="url(#pb131e249e9)" style="fill: none; stroke: #ff7f0e; stroke-width: 2; stroke-linecap: square"/>
   </g>
   <g id="line2d_67">
    <path d="M 638.148523 352.973564 
L 642.949992 344.273754 
L 647.751461 355.994275 
L 652.55293 363.871174 
L 657.3544 368.311032 
L 662.155869 365.567544 
L 666.957338 368.717779 
L 671.758807 368.970852 
L 676.560277 357.969101 
L 681.361746 330.870904 
L 686.163215 324.94514 
L 690.964684 306.161172 
L 695.766154 269.046489 
L 700.567623 252.618196 
L 705.369092 226.406774 
L 710.170561 194.50559 
L 714.972031 174.555866 
L 719.7735 160.4913 
L 724.574969 152.66416 
L 729.376438 146.334976 
L 734.177907 141.222064 
L 738.979377 136.333977 
L 743.780846 129.518066 
L 748.582315 124.7728 
L 753.383784 119.824272 
L 758.185254 111.918038 
L 762.986723 107.060689 
L 767.788192 101.649206 
L 772.589661 96.287489 
L 777.391131 94.245728 
L 782.1926 91.174163 
L 786.994069 88.8011 
L 791.795538 85.592558 
L 796.597008 83.876081 
L 801.398477 78.509432 
L 806.199946 80.181246 
L 811.001415 78.618338 
L 815.802885 77.198041 
L 820.604354 76.629849 
L 825.405823 77.20856 
L 830.207292 76.601866 
L 835.008761 75.672373 
L 839.810231 76.476408 
L 844.6117 74.02543 
L 849.413169 68.806558 
L 854.214638 67.90264 
L 859.016108 66.821136 
L 863.817577 65.755352 
L 868.619046 67.115059 
L 873.420515 64.818507 
L 878.221985 65.052076 
L 883.023454 64.206936 
L 887.824923 63.069511 
L 892.626392 62.799765 
L 897.427862 62.44224 
L 902.229331 60.845425 
L 907.0308 58.690852 
L 911.832269 58.411885 
L 916.633739 58.722068 
L 921.435208 58.358604 
L 926.236677 57.862063 
L 931.038146 57.56601 
L 935.839615 56.049003 
L 940.641085 56.249049 
L 945.442554 53.681321 
L 950.244023 55.196754 
L 955.045492 55.537197 
L 959.846962 54.236888 
L 964.648431 52.956003 
L 969.4499 53.379613 
L 974.251369 53.000294 
L 979.052839 50.806306 
L 983.854308 51.067679 
L 988.655777 52.679881 
L 993.457246 53.82715 
L 998.258716 52.275243 
L 1003.060185 52.538502 
L 1007.861654 52.40236 
L 1012.663123 53.317859 
L 1017.464593 53.214797 
L 1022.266062 49.012794 
L 1027.067531 49.173578 
L 1031.869 48.560305 
L 1036.670469 40.378745 
L 1041.471939 41.95449 
L 1046.273408 41.787575 
L 1051.074877 41.033197 
L 1055.876346 40.949106 
L 1060.677816 40.063308 
L 1065.479285 40.045834 
L 1070.280754 39.688093 
L 1075.082223 39.799663 
L 1079.883693 39.548497 
L 1084.685162 40.13737 
L 1089.486631 40.061817 
L 1094.2881 39.389977 
L 1099.08957 39.706353 
L 1103.891039 40.881407 
L 1108.692508 41.636625 
L 1113.493977 41.761171 
" clip-path="url(#pb131e249e9)" style="fill: none; stroke: #2ca02c; stroke-width: 2; stroke-linecap: square"/>
   </g>
   <g id="line2d_68">
    <path d="M 638.148523 324.407161 
L 642.949992 309.826346 
L 647.751461 293.689904 
L 652.55293 278.826365 
L 657.3544 254.258735 
L 662.155869 224.750545 
L 666.957338 200.546043 
L 671.758807 176.363806 
L 676.560277 156.593886 
L 681.361746 136.597206 
L 686.163215 118.771624 
L 690.964684 102.725221 
L 695.766154 90.247719 
L 700.567623 78.461982 
L 705.369092 69.653355 
L 710.170561 65.079904 
L 714.972031 59.517702 
L 719.7735 56.910751 
L 724.574969 54.549524 
L 729.376438 52.935981 
L 734.177907 51.621374 
L 738.979377 50.514094 
L 743.780846 49.412715 
L 748.582315 48.798453 
L 753.383784 48.098472 
L 758.185254 47.36741 
L 762.986723 46.674848 
L 767.788192 46.136013 
L 772.589661 45.673232 
L 777.391131 45.354082 
L 782.1926 45.066285 
L 786.994069 44.904657 
L 791.795538 44.885856 
L 796.597008 44.873554 
L 801.398477 44.788701 
L 806.199946 44.60597 
L 811.001415 44.410005 
L 815.802885 44.198144 
L 820.604354 44.094061 
L 825.405823 43.996474 
L 830.207292 43.911248 
L 835.008761 43.863376 
L 839.810231 43.824986 
L 844.6117 43.804705 
L 849.413169 43.801448 
L 854.214638 43.778835 
L 859.016108 43.792318 
L 863.817577 43.790174 
L 868.619046 43.783618 
L 873.420515 43.790687 
L 878.221985 43.800783 
L 883.023454 43.801131 
L 887.824923 43.792197 
L 892.626392 43.765201 
L 897.427862 43.754355 
L 902.229331 43.760076 
L 907.0308 43.763416 
L 911.832269 43.771589 
L 916.633739 43.76423 
L 921.435208 43.761279 
L 926.236677 43.754917 
L 931.038146 43.753922 
L 935.839615 43.753922 
L 940.641085 43.755876 
L 945.442554 43.750012 
L 950.244023 43.742655 
L 955.045492 43.72016 
L 959.846962 43.715256 
L 964.648431 43.708896 
L 969.4499 43.704987 
L 974.251369 43.699124 
L 979.052839 43.69813 
L 983.854308 43.69177 
L 988.655777 43.685411 
L 993.457246 43.685411 
L 998.258716 43.681503 
L 1003.060185 43.681503 
L 1007.861654 43.681503 
L 1012.663123 43.679549 
L 1017.464593 43.679549 
L 1022.266062 43.684914 
L 1027.067531 43.684914 
L 1031.869 43.682463 
L 1036.670469 43.680509 
L 1041.471939 43.680509 
L 1046.273408 43.680509 
L 1051.074877 43.678555 
L 1055.876346 43.678555 
L 1060.677816 43.678555 
L 1065.479285 43.676601 
L 1070.280754 43.674647 
L 1075.082223 43.674647 
L 1079.883693 43.674647 
L 1084.685162 43.668785 
L 1089.486631 43.668785 
L 1094.2881 43.666832 
L 1099.08957 43.666832 
L 1103.891039 43.666832 
L 1108.692508 43.666832 
L 1113.493977 43.666832 
" clip-path="url(#pb131e249e9)" style="fill: none; stroke: #d62728; stroke-width: 2; stroke-linecap: square"/>
   </g>
   <g id="line2d_69">
    <path d="M 638.148523 352.973564 
L 642.949992 344.273754 
L 647.751461 355.994275 
L 652.55293 363.871174 
L 657.3544 368.311032 
L 662.155869 365.567544 
L 666.957338 368.717779 
L 671.758807 368.970852 
L 676.560277 357.969101 
L 681.361746 330.870904 
L 686.163215 324.94514 
L 690.964684 306.161172 
L 695.766154 269.046489 
L 700.567623 252.618196 
L 705.369092 226.406774 
L 710.170561 194.50559 
L 714.972031 174.555866 
L 719.7735 160.4913 
L 724.574969 152.66416 
L 729.376438 146.334976 
L 734.177907 141.222064 
L 738.979377 136.333977 
L 743.780846 129.518066 
L 748.582315 124.7728 
L 753.383784 119.824272 
L 758.185254 111.918038 
L 762.986723 107.060689 
L 767.788192 101.649206 
L 772.589661 96.287489 
L 777.391131 94.245728 
L 782.1926 91.174163 
L 786.994069 88.8011 
L 791.795538 85.592558 
L 796.597008 83.876081 
L 801.398477 78.509432 
L 806.199946 80.181246 
L 811.001415 78.618338 
L 815.802885 77.198041 
L 820.604354 76.629849 
L 825.405823 77.20856 
L 830.207292 76.601866 
L 835.008761 75.672373 
L 839.810231 76.476408 
L 844.6117 74.02543 
L 849.413169 68.806558 
L 854.214638 67.90264 
L 859.016108 66.821136 
L 863.817577 65.755352 
L 868.619046 67.115059 
L 873.420515 64.818507 
L 878.221985 65.052076 
L 883.023454 64.206936 
L 887.824923 63.069511 
L 892.626392 62.799765 
L 897.427862 62.44224 
L 902.229331 60.845425 
L 907.0308 58.690852 
L 911.832269 58.411885 
L 916.633739 58.722068 
L 921.435208 58.358604 
L 926.236677 57.862063 
L 931.038146 57.56601 
L 935.839615 56.049003 
L 940.641085 56.249049 
L 945.442554 53.681321 
L 950.244023 55.196754 
L 955.045492 55.537197 
L 959.846962 54.236888 
L 964.648431 52.956003 
L 969.4499 53.379613 
L 974.251369 53.000294 
L 979.052839 50.806306 
L 983.854308 51.067679 
L 988.655777 52.679881 
L 993.457246 53.82715 
L 998.258716 52.275243 
L 1003.060185 52.538502 
L 1007.861654 52.40236 
L 1012.663123 53.317859 
L 1017.464593 53.214797 
L 1022.266062 49.012794 
L 1027.067531 49.173578 
L 1031.869 48.560305 
L 1036.670469 40.378745 
L 1041.471939 41.95449 
L 1046.273408 41.787575 
L 1051.074877 41.033197 
L 1055.876346 40.949106 
L 1060.677816 40.063308 
L 1065.479285 40.045834 
L 1070.280754 39.688093 
L 1075.082223 39.799663 
L 1079.883693 39.548497 
L 1084.685162 40.13737 
L 1089.486631 40.061817 
L 1094.2881 39.389977 
L 1099.08957 39.706353 
L 1103.891039 40.881407 
L 1108.692508 41.636625 
L 1113.493977 41.761171 
" clip-path="url(#pb131e249e9)" style="fill: none; stroke: #9467bd; stroke-width: 2; stroke-linecap: square"/>
   </g>
   <g id="line2d_70">
    <path d="M 638.148523 360.361214 
L 642.949992 358.520679 
L 647.751461 355.483901 
L 652.55293 350.041996 
L 657.3544 337.271765 
L 662.155869 315.796155 
L 666.957338 302.231923 
L 671.758807 291.354475 
L 676.560277 280.528591 
L 681.361746 265.755446 
L 686.163215 244.556365 
L 690.964684 205.222927 
L 695.766154 171.377259 
L 700.567623 141.294728 
L 705.369092 115.41921 
L 710.170561 99.476367 
L 714.972031 86.978274 
L 719.7735 78.474183 
L 724.574969 71.287382 
L 729.376438 63.47812 
L 734.177907 54.483026 
L 738.979377 49.945304 
L 743.780846 51.938759 
L 748.582315 49.443006 
L 753.383784 47.877973 
L 758.185254 46.541479 
L 762.986723 45.399625 
L 767.788192 44.576698 
L 772.589661 43.995871 
L 777.391131 43.664605 
L 782.1926 43.482681 
L 786.994069 43.428519 
L 791.795538 43.388431 
L 796.597008 43.397409 
L 801.398477 43.438371 
L 806.199946 43.458059 
L 811.001415 43.481192 
L 815.802885 43.483541 
L 820.604354 43.498582 
L 825.405823 43.498445 
L 830.207292 43.543067 
L 835.008761 43.567075 
L 839.810231 43.574239 
L 844.6117 43.596044 
L 849.413169 43.603798 
L 854.214638 43.61059 
L 859.016108 43.624669 
L 863.817577 43.634839 
L 868.619046 43.646001 
L 873.420515 43.657162 
L 878.221985 43.663454 
L 883.023454 43.66246 
L 887.824923 43.663917 
L 892.626392 43.663917 
L 897.427862 43.663917 
L 902.229331 43.663917 
L 907.0308 43.663917 
L 911.832269 43.665374 
L 916.633739 43.666832 
L 921.435208 43.666832 
L 926.236677 43.666832 
L 931.038146 43.666832 
L 935.839615 43.666832 
L 940.641085 43.666832 
L 945.442554 43.666832 
L 950.244023 43.666832 
L 955.045492 43.666832 
L 959.846962 43.666832 
L 964.648431 43.666832 
L 969.4499 43.666832 
L 974.251369 43.666832 
L 979.052839 43.666832 
L 983.854308 43.666832 
L 988.655777 43.666832 
L 993.457246 43.666832 
L 998.258716 43.666832 
L 1003.060185 43.666832 
L 1007.861654 43.666832 
L 1012.663123 43.666832 
L 1017.464593 43.666832 
L 1022.266062 43.666832 
L 1027.067531 43.666832 
L 1031.869 43.666832 
L 1036.670469 43.666832 
L 1041.471939 43.666832 
L 1046.273408 43.666832 
L 1051.074877 43.666832 
L 1055.876346 43.666832 
L 1060.677816 43.666832 
L 1065.479285 43.666832 
L 1070.280754 43.665374 
L 1075.082223 43.655672 
L 1079.883693 43.680577 
L 1084.685162 43.595102 
L 1089.486631 43.52436 
L 1094.2881 43.492669 
L 1099.08957 43.431918 
L 1103.891039 43.362743 
L 1108.692508 43.105476 
L 1113.493977 43.086446 
" clip-path="url(#pb131e249e9)" style="fill: none; stroke: #8c564b; stroke-width: 2; stroke-linecap: square"/>
   </g>
   <g id="patch_9">
    <path d="M 614.38125 385.478125 
L 614.38125 22.318125 
" style="fill: none; stroke: #000000; stroke-width: 0.8; stroke-linejoin: miter; stroke-linecap: square"/>
   </g>
   <g id="patch_10">
    <path d="M 1137.26125 385.478125 
L 1137.26125 22.318125 
" style="fill: none; stroke: #000000; stroke-width: 0.8; stroke-linejoin: miter; stroke-linecap: square"/>
   </g>
   <g id="patch_11">
    <path d="M 614.38125 385.478125 
L 1137.26125 385.478125 
" style="fill: none; stroke: #000000; stroke-width: 0.8; stroke-linejoin: miter; stroke-linecap: square"/>
   </g>
   <g id="patch_12">
    <path d="M 614.38125 22.318125 
L 1137.26125 22.318125 
" style="fill: none; stroke: #000000; stroke-width: 0.8; stroke-linejoin: miter; stroke-linecap: square"/>
   </g>
   <g id="text_38">
    <!-- F1 Score Comparison - mhealth -->
    <g transform="translate(781.196563 16.318125) scale(0.12 -0.12)">
     <use xlink:href="#DejaVuSans-46"/>
     <use xlink:href="#DejaVuSans-31" x="57.519531"/>
     <use xlink:href="#DejaVuSans-20" x="121.142578"/>
     <use xlink:href="#DejaVuSans-53" x="152.929688"/>
     <use xlink:href="#DejaVuSans-63" x="216.40625"/>
     <use xlink:href="#DejaVuSans-6f" x="271.386719"/>
     <use xlink:href="#DejaVuSans-72" x="332.568359"/>
     <use xlink:href="#DejaVuSans-65" x="371.431641"/>
     <use xlink:href="#DejaVuSans-20" x="432.955078"/>
     <use xlink:href="#DejaVuSans-43" x="464.742188"/>
     <use xlink:href="#DejaVuSans-6f" x="534.566406"/>
     <use xlink:href="#DejaVuSans-6d" x="595.748047"/>
     <use xlink:href="#DejaVuSans-70" x="693.160156"/>
     <use xlink:href="#DejaVuSans-61" x="756.636719"/>
     <use xlink:href="#DejaVuSans-72" x="817.916016"/>
     <use xlink:href="#DejaVuSans-69" x="859.029297"/>
     <use xlink:href="#DejaVuSans-73" x="886.8125"/>
     <use xlink:href="#DejaVuSans-6f" x="938.912109"/>
     <use xlink:href="#DejaVuSans-6e" x="1000.09375"/>
     <use xlink:href="#DejaVuSans-20" x="1063.472656"/>
     <use xlink:href="#DejaVuSans-2d" x="1095.259766"/>
     <use xlink:href="#DejaVuSans-20" x="1131.34375"/>
     <use xlink:href="#DejaVuSans-6d" x="1163.130859"/>
     <use xlink:href="#DejaVuSans-68" x="1260.542969"/>
     <use xlink:href="#DejaVuSans-65" x="1323.921875"/>
     <use xlink:href="#DejaVuSans-61" x="1385.445312"/>
     <use xlink:href="#DejaVuSans-6c" x="1446.724609"/>
     <use xlink:href="#DejaVuSans-74" x="1474.507812"/>
     <use xlink:href="#DejaVuSans-68" x="1513.716797"/>
    </g>
   </g>
   <g id="legend_2">
    <g id="patch_13">
     <path d="M 1055.847188 380.478125 
L 1130.26125 380.478125 
Q 1132.26125 380.478125 1132.26125 378.478125 
L 1132.26125 291.409375 
Q 1132.26125 289.409375 1130.26125 289.409375 
L 1055.847188 289.409375 
Q 1053.847188 289.409375 1053.847188 291.409375 
L 1053.847188 378.478125 
Q 1053.847188 380.478125 1055.847188 380.478125 
z
" style="fill: #ffffff; opacity: 0.8; stroke: #cccccc; stroke-linejoin: miter"/>
    </g>
    <g id="line2d_71">
     <path d="M 1057.847188 297.507812 
L 1067.847188 297.507812 
L 1077.847188 297.507812 
" style="fill: none; stroke: #1f77b4; stroke-width: 2; stroke-linecap: square"/>
    </g>
    <g id="text_39">
     <!-- fedmekt -->
     <g transform="translate(1085.847188 301.007812) scale(0.1 -0.1)">
      <use xlink:href="#DejaVuSans-66"/>
      <use xlink:href="#DejaVuSans-65" x="35.205078"/>
      <use xlink:href="#DejaVuSans-64" x="96.728516"/>
      <use xlink:href="#DejaVuSans-6d" x="160.205078"/>
      <use xlink:href="#DejaVuSans-65" x="257.617188"/>
      <use xlink:href="#DejaVuSans-6b" x="319.140625"/>
      <use xlink:href="#DejaVuSans-74" x="377.050781"/>
     </g>
    </g>
    <g id="line2d_72">
     <path d="M 1057.847188 312.185937 
L 1067.847188 312.185937 
L 1077.847188 312.185937 
" style="fill: none; stroke: #ff7f0e; stroke-width: 2; stroke-linecap: square"/>
    </g>
    <g id="text_40">
     <!-- fedproto -->
     <g transform="translate(1085.847188 315.685937) scale(0.1 -0.1)">
      <use xlink:href="#DejaVuSans-66"/>
      <use xlink:href="#DejaVuSans-65" x="35.205078"/>
      <use xlink:href="#DejaVuSans-64" x="96.728516"/>
      <use xlink:href="#DejaVuSans-70" x="160.205078"/>
      <use xlink:href="#DejaVuSans-72" x="223.681641"/>
      <use xlink:href="#DejaVuSans-6f" x="262.544922"/>
      <use xlink:href="#DejaVuSans-74" x="323.726562"/>
      <use xlink:href="#DejaVuSans-6f" x="362.935547"/>
     </g>
    </g>
    <g id="line2d_73">
     <path d="M 1057.847188 326.864062 
L 1067.847188 326.864062 
L 1077.847188 326.864062 
" style="fill: none; stroke: #2ca02c; stroke-width: 2; stroke-linecap: square"/>
    </g>
    <g id="text_41">
     <!-- fedavg -->
     <g transform="translate(1085.847188 330.364062) scale(0.1 -0.1)">
      <use xlink:href="#DejaVuSans-66"/>
      <use xlink:href="#DejaVuSans-65" x="35.205078"/>
      <use xlink:href="#DejaVuSans-64" x="96.728516"/>
      <use xlink:href="#DejaVuSans-61" x="160.205078"/>
      <use xlink:href="#DejaVuSans-76" x="221.484375"/>
      <use xlink:href="#DejaVuSans-67" x="280.664062"/>
     </g>
    </g>
    <g id="line2d_74">
     <path d="M 1057.847188 341.542187 
L 1067.847188 341.542187 
L 1077.847188 341.542187 
" style="fill: none; stroke: #d62728; stroke-width: 2; stroke-linecap: square"/>
    </g>
    <g id="text_42">
     <!-- fedcent -->
     <g transform="translate(1085.847188 345.042187) scale(0.1 -0.1)">
      <use xlink:href="#DejaVuSans-66"/>
      <use xlink:href="#DejaVuSans-65" x="35.205078"/>
      <use xlink:href="#DejaVuSans-64" x="96.728516"/>
      <use xlink:href="#DejaVuSans-63" x="160.205078"/>
      <use xlink:href="#DejaVuSans-65" x="215.185547"/>
      <use xlink:href="#DejaVuSans-6e" x="276.708984"/>
      <use xlink:href="#DejaVuSans-74" x="340.087891"/>
     </g>
    </g>
    <g id="line2d_75">
     <path d="M 1057.847188 356.220312 
L 1067.847188 356.220312 
L 1077.847188 356.220312 
" style="fill: none; stroke: #9467bd; stroke-width: 2; stroke-linecap: square"/>
    </g>
    <g id="text_43">
     <!-- fedprox -->
     <g transform="translate(1085.847188 359.720312) scale(0.1 -0.1)">
      <use xlink:href="#DejaVuSans-66"/>
      <use xlink:href="#DejaVuSans-65" x="35.205078"/>
      <use xlink:href="#DejaVuSans-64" x="96.728516"/>
      <use xlink:href="#DejaVuSans-70" x="160.205078"/>
      <use xlink:href="#DejaVuSans-72" x="223.681641"/>
      <use xlink:href="#DejaVuSans-6f" x="262.544922"/>
      <use xlink:href="#DejaVuSans-78" x="320.601562"/>
     </g>
    </g>
    <g id="line2d_76">
     <path d="M 1057.847188 370.898437 
L 1067.847188 370.898437 
L 1077.847188 370.898437 
" style="fill: none; stroke: #8c564b; stroke-width: 2; stroke-linecap: square"/>
    </g>
    <g id="text_44">
     <!-- fedprop -->
     <g transform="translate(1085.847188 374.398437) scale(0.1 -0.1)">
      <use xlink:href="#DejaVuSans-66"/>
      <use xlink:href="#DejaVuSans-65" x="35.205078"/>
      <use xlink:href="#DejaVuSans-64" x="96.728516"/>
      <use xlink:href="#DejaVuSans-70" x="160.205078"/>
      <use xlink:href="#DejaVuSans-72" x="223.681641"/>
      <use xlink:href="#DejaVuSans-6f" x="262.544922"/>
      <use xlink:href="#DejaVuSans-70" x="323.726562"/>
     </g>
    </g>
   </g>
  </g>
 </g>
 <defs>
  <clipPath id="p4486b7b956">
   <rect x="43.78125" y="22.318125" width="522.88" height="363.16"/>
  </clipPath>
  <clipPath id="pb131e249e9">
   <rect x="614.38125" y="22.318125" width="522.88" height="363.16"/>
  </clipPath>
 </defs>
</svg>
