<?xml version="1.0" encoding="utf-8" standalone="no"?>
<!DOCTYPE svg PUBLIC "-//W3C//DTD SVG 1.1//EN"
  "http://www.w3.org/Graphics/SVG/1.1/DTD/svg11.dtd">
<svg xmlns:xlink="http://www.w3.org/1999/xlink" width="1144.37125pt" height="424.474375pt" viewBox="0 0 1144.37125 424.474375" xmlns="http://www.w3.org/2000/svg" version="1.1">
 <metadata>
  <rdf:RDF xmlns:dc="http://purl.org/dc/elements/1.1/" xmlns:cc="http://creativecommons.org/ns#" xmlns:rdf="http://www.w3.org/1999/02/22-rdf-syntax-ns#">
   <cc:Work>
    <dc:type rdf:resource="http://purl.org/dc/dcmitype/StillImage"/>
    <dc:date>2025-12-24T17:34:00.798830</dc:date>
    <dc:format>image/svg+xml</dc:format>
    <dc:creator>
     <cc:Agent>
      <dc:title>Matplotlib v3.7.1, https://matplotlib.org/</dc:title>
     </cc:Agent>
    </dc:creator>
   </cc:Work>
  </rdf:RDF>
 </metadata>
 <defs>
  <style type="text/css">*{stroke-linejoin: round; stroke-linecap: butt}</style>
 </defs>
 <g id="figure_1">
  <g id="patch_1">
   <path d="M 0 424.474375 
L 1144.37125 424.474375 
L 1144.37125 0 
L 0 0 
z
" style="fill: #ffffff"/>
  </g>
  <g id="axes_1">
   <g id="patch_2">
    <path d="M 43.78125 386.918125 
L 566.57125 386.918125 
L 566.57125 22.318125 
L 43.78125 22.318125 
z
" style="fill: #ffffff"/>
   </g>
   <g id="matplotlib.axis_1">
    <g id="xtick_1">
     <g id="line2d_1">
      <path d="M 62.743789 386.918125 
L 62.743789 22.318125 
" clip-path="url(#p032943e6be)" style="fill: none; stroke: #b0b0b0; stroke-opacity: 0.3; stroke-width: 0.8; stroke-linecap: square"/>
     </g>
     <g id="line2d_2">
      <defs>
       <path id="m3c8cd573e5" d="M 0 0 
L 0 3.5 
" style="stroke: #000000; stroke-width: 0.8"/>
      </defs>
      <g>
       <use xlink:href="#m3c8cd573e5" x="62.743789" y="386.918125" style="stroke: #000000; stroke-width: 0.8"/>
      </g>
     </g>
     <g id="text_1">
      <!-- 0 -->
      <g transform="translate(59.562539 401.516562) scale(0.1 -0.1)">
       <defs>
        <path id="DejaVuSans-30" d="M 2034 4250 
Q 1547 4250 1301 3770 
Q 1056 3291 1056 2328 
Q 1056 1369 1301 889 
Q 1547 409 2034 409 
Q 2525 409 2770 889 
Q 3016 1369 3016 2328 
Q 3016 3291 2770 3770 
Q 2525 4250 2034 4250 
z
M 2034 4750 
Q 2819 4750 3233 4129 
Q 3647 3509 3647 2328 
Q 3647 1150 3233 529 
Q 2819 -91 2034 -91 
Q 1250 -91 836 529 
Q 422 1150 422 2328 
Q 422 3509 836 4129 
Q 1250 4750 2034 4750 
z
" transform="scale(0.015625)"/>
       </defs>
       <use xlink:href="#DejaVuSans-30"/>
      </g>
     </g>
    </g>
    <g id="xtick_2">
     <g id="line2d_3">
      <path d="M 158.756645 386.918125 
L 158.756645 22.318125 
" clip-path="url(#p032943e6be)" style="fill: none; stroke: #b0b0b0; stroke-opacity: 0.3; stroke-width: 0.8; stroke-linecap: square"/>
     </g>
     <g id="line2d_4">
      <g>
       <use xlink:href="#m3c8cd573e5" x="158.756645" y="386.918125" style="stroke: #000000; stroke-width: 0.8"/>
      </g>
     </g>
     <g id="text_2">
      <!-- 20 -->
      <g transform="translate(152.394145 401.516562) scale(0.1 -0.1)">
       <defs>
        <path id="DejaVuSans-32" d="M 1228 531 
L 3431 531 
L 3431 0 
L 469 0 
L 469 531 
Q 828 903 1448 1529 
Q 2069 2156 2228 2338 
Q 2531 2678 2651 2914 
Q 2772 3150 2772 3378 
Q 2772 3750 2511 3984 
Q 2250 4219 1831 4219 
Q 1534 4219 1204 4116 
Q 875 4013 500 3803 
L 500 4441 
Q 881 4594 1212 4672 
Q 1544 4750 1819 4750 
Q 2544 4750 2975 4387 
Q 3406 4025 3406 3419 
Q 3406 3131 3298 2873 
Q 3191 2616 2906 2266 
Q 2828 2175 2409 1742 
Q 1991 1309 1228 531 
z
" transform="scale(0.015625)"/>
       </defs>
       <use xlink:href="#DejaVuSans-32"/>
       <use xlink:href="#DejaVuSans-30" x="63.623047"/>
      </g>
     </g>
    </g>
    <g id="xtick_3">
     <g id="line2d_5">
      <path d="M 254.769501 386.918125 
L 254.769501 22.318125 
" clip-path="url(#p032943e6be)" style="fill: none; stroke: #b0b0b0; stroke-opacity: 0.3; stroke-width: 0.8; stroke-linecap: square"/>
     </g>
     <g id="line2d_6">
      <g>
       <use xlink:href="#m3c8cd573e5" x="254.769501" y="386.918125" style="stroke: #000000; stroke-width: 0.8"/>
      </g>
     </g>
     <g id="text_3">
      <!-- 40 -->
      <g transform="translate(248.407001 401.516562) scale(0.1 -0.1)">
       <defs>
        <path id="DejaVuSans-34" d="M 2419 4116 
L 825 1625 
L 2419 1625 
L 2419 4116 
z
M 2253 4666 
L 3047 4666 
L 3047 1625 
L 3713 1625 
L 3713 1100 
L 3047 1100 
L 3047 0 
L 2419 0 
L 2419 1100 
L 313 1100 
L 313 1709 
L 2253 4666 
z
" transform="scale(0.015625)"/>
       </defs>
       <use xlink:href="#DejaVuSans-34"/>
       <use xlink:href="#DejaVuSans-30" x="63.623047"/>
      </g>
     </g>
    </g>
    <g id="xtick_4">
     <g id="line2d_7">
      <path d="M 350.782357 386.918125 
L 350.782357 22.318125 
" clip-path="url(#p032943e6be)" style="fill: none; stroke: #b0b0b0; stroke-opacity: 0.3; stroke-width: 0.8; stroke-linecap: square"/>
     </g>
     <g id="line2d_8">
      <g>
       <use xlink:href="#m3c8cd573e5" x="350.782357" y="386.918125" style="stroke: #000000; stroke-width: 0.8"/>
      </g>
     </g>
     <g id="text_4">
      <!-- 60 -->
      <g transform="translate(344.419857 401.516562) scale(0.1 -0.1)">
       <defs>
        <path id="DejaVuSans-36" d="M 2113 2584 
Q 1688 2584 1439 2293 
Q 1191 2003 1191 1497 
Q 1191 994 1439 701 
Q 1688 409 2113 409 
Q 2538 409 2786 701 
Q 3034 994 3034 1497 
Q 3034 2003 2786 2293 
Q 2538 2584 2113 2584 
z
M 3366 4563 
L 3366 3988 
Q 3128 4100 2886 4159 
Q 2644 4219 2406 4219 
Q 1781 4219 1451 3797 
Q 1122 3375 1075 2522 
Q 1259 2794 1537 2939 
Q 1816 3084 2150 3084 
Q 2853 3084 3261 2657 
Q 3669 2231 3669 1497 
Q 3669 778 3244 343 
Q 2819 -91 2113 -91 
Q 1303 -91 875 529 
Q 447 1150 447 2328 
Q 447 3434 972 4092 
Q 1497 4750 2381 4750 
Q 2619 4750 2861 4703 
Q 3103 4656 3366 4563 
z
" transform="scale(0.015625)"/>
       </defs>
       <use xlink:href="#DejaVuSans-36"/>
       <use xlink:href="#DejaVuSans-30" x="63.623047"/>
      </g>
     </g>
    </g>
    <g id="xtick_5">
     <g id="line2d_9">
      <path d="M 446.795212 386.918125 
L 446.795212 22.318125 
" clip-path="url(#p032943e6be)" style="fill: none; stroke: #b0b0b0; stroke-opacity: 0.3; stroke-width: 0.8; stroke-linecap: square"/>
     </g>
     <g id="line2d_10">
      <g>
       <use xlink:href="#m3c8cd573e5" x="446.795212" y="386.918125" style="stroke: #000000; stroke-width: 0.8"/>
      </g>
     </g>
     <g id="text_5">
      <!-- 80 -->
      <g transform="translate(440.432712 401.516562) scale(0.1 -0.1)">
       <defs>
        <path id="DejaVuSans-38" d="M 2034 2216 
Q 1584 2216 1326 1975 
Q 1069 1734 1069 1313 
Q 1069 891 1326 650 
Q 1584 409 2034 409 
Q 2484 409 2743 651 
Q 3003 894 3003 1313 
Q 3003 1734 2745 1975 
Q 2488 2216 2034 2216 
z
M 1403 2484 
Q 997 2584 770 2862 
Q 544 3141 544 3541 
Q 544 4100 942 4425 
Q 1341 4750 2034 4750 
Q 2731 4750 3128 4425 
Q 3525 4100 3525 3541 
Q 3525 3141 3298 2862 
Q 3072 2584 2669 2484 
Q 3125 2378 3379 2068 
Q 3634 1759 3634 1313 
Q 3634 634 3220 271 
Q 2806 -91 2034 -91 
Q 1263 -91 848 271 
Q 434 634 434 1313 
Q 434 1759 690 2068 
Q 947 2378 1403 2484 
z
M 1172 3481 
Q 1172 3119 1398 2916 
Q 1625 2713 2034 2713 
Q 2441 2713 2670 2916 
Q 2900 3119 2900 3481 
Q 2900 3844 2670 4047 
Q 2441 4250 2034 4250 
Q 1625 4250 1398 4047 
Q 1172 3844 1172 3481 
z
" transform="scale(0.015625)"/>
       </defs>
       <use xlink:href="#DejaVuSans-38"/>
       <use xlink:href="#DejaVuSans-30" x="63.623047"/>
      </g>
     </g>
    </g>
    <g id="xtick_6">
     <g id="line2d_11">
      <path d="M 542.808068 386.918125 
L 542.808068 22.318125 
" clip-path="url(#p032943e6be)" style="fill: none; stroke: #b0b0b0; stroke-opacity: 0.3; stroke-width: 0.8; stroke-linecap: square"/>
     </g>
     <g id="line2d_12">
      <g>
       <use xlink:href="#m3c8cd573e5" x="542.808068" y="386.918125" style="stroke: #000000; stroke-width: 0.8"/>
      </g>
     </g>
     <g id="text_6">
      <!-- 100 -->
      <g transform="translate(533.264318 401.516562) scale(0.1 -0.1)">
       <defs>
        <path id="DejaVuSans-31" d="M 794 531 
L 1825 531 
L 1825 4091 
L 703 3866 
L 703 4441 
L 1819 4666 
L 2450 4666 
L 2450 531 
L 3481 531 
L 3481 0 
L 794 0 
L 794 531 
z
" transform="scale(0.015625)"/>
       </defs>
       <use xlink:href="#DejaVuSans-31"/>
       <use xlink:href="#DejaVuSans-30" x="63.623047"/>
       <use xlink:href="#DejaVuSans-30" x="127.246094"/>
      </g>
     </g>
    </g>
    <g id="text_7">
     <!-- Communication Rounds -->
     <g transform="translate(245.753594 415.194687) scale(0.1 -0.1)">
      <defs>
       <path id="DejaVuSans-43" d="M 4122 4306 
L 4122 3641 
Q 3803 3938 3442 4084 
Q 3081 4231 2675 4231 
Q 1875 4231 1450 3742 
Q 1025 3253 1025 2328 
Q 1025 1406 1450 917 
Q 1875 428 2675 428 
Q 3081 428 3442 575 
Q 3803 722 4122 1019 
L 4122 359 
Q 3791 134 3420 21 
Q 3050 -91 2638 -91 
Q 1578 -91 968 557 
Q 359 1206 359 2328 
Q 359 3453 968 4101 
Q 1578 4750 2638 4750 
Q 3056 4750 3426 4639 
Q 3797 4528 4122 4306 
z
" transform="scale(0.015625)"/>
       <path id="DejaVuSans-6f" d="M 1959 3097 
Q 1497 3097 1228 2736 
Q 959 2375 959 1747 
Q 959 1119 1226 758 
Q 1494 397 1959 397 
Q 2419 397 2687 759 
Q 2956 1122 2956 1747 
Q 2956 2369 2687 2733 
Q 2419 3097 1959 3097 
z
M 1959 3584 
Q 2709 3584 3137 3096 
Q 3566 2609 3566 1747 
Q 3566 888 3137 398 
Q 2709 -91 1959 -91 
Q 1206 -91 779 398 
Q 353 888 353 1747 
Q 353 2609 779 3096 
Q 1206 3584 1959 3584 
z
" transform="scale(0.015625)"/>
       <path id="DejaVuSans-6d" d="M 3328 2828 
Q 3544 3216 3844 3400 
Q 4144 3584 4550 3584 
Q 5097 3584 5394 3201 
Q 5691 2819 5691 2113 
L 5691 0 
L 5113 0 
L 5113 2094 
Q 5113 2597 4934 2840 
Q 4756 3084 4391 3084 
Q 3944 3084 3684 2787 
Q 3425 2491 3425 1978 
L 3425 0 
L 2847 0 
L 2847 2094 
Q 2847 2600 2669 2842 
Q 2491 3084 2119 3084 
Q 1678 3084 1418 2786 
Q 1159 2488 1159 1978 
L 1159 0 
L 581 0 
L 581 3500 
L 1159 3500 
L 1159 2956 
Q 1356 3278 1631 3431 
Q 1906 3584 2284 3584 
Q 2666 3584 2933 3390 
Q 3200 3197 3328 2828 
z
" transform="scale(0.015625)"/>
       <path id="DejaVuSans-75" d="M 544 1381 
L 544 3500 
L 1119 3500 
L 1119 1403 
Q 1119 906 1312 657 
Q 1506 409 1894 409 
Q 2359 409 2629 706 
Q 2900 1003 2900 1516 
L 2900 3500 
L 3475 3500 
L 3475 0 
L 2900 0 
L 2900 538 
Q 2691 219 2414 64 
Q 2138 -91 1772 -91 
Q 1169 -91 856 284 
Q 544 659 544 1381 
z
M 1991 3584 
L 1991 3584 
z
" transform="scale(0.015625)"/>
       <path id="DejaVuSans-6e" d="M 3513 2113 
L 3513 0 
L 2938 0 
L 2938 2094 
Q 2938 2591 2744 2837 
Q 2550 3084 2163 3084 
Q 1697 3084 1428 2787 
Q 1159 2491 1159 1978 
L 1159 0 
L 581 0 
L 581 3500 
L 1159 3500 
L 1159 2956 
Q 1366 3272 1645 3428 
Q 1925 3584 2291 3584 
Q 2894 3584 3203 3211 
Q 3513 2838 3513 2113 
z
" transform="scale(0.015625)"/>
       <path id="DejaVuSans-69" d="M 603 3500 
L 1178 3500 
L 1178 0 
L 603 0 
L 603 3500 
z
M 603 4863 
L 1178 4863 
L 1178 4134 
L 603 4134 
L 603 4863 
z
" transform="scale(0.015625)"/>
       <path id="DejaVuSans-63" d="M 3122 3366 
L 3122 2828 
Q 2878 2963 2633 3030 
Q 2388 3097 2138 3097 
Q 1578 3097 1268 2742 
Q 959 2388 959 1747 
Q 959 1106 1268 751 
Q 1578 397 2138 397 
Q 2388 397 2633 464 
Q 2878 531 3122 666 
L 3122 134 
Q 2881 22 2623 -34 
Q 2366 -91 2075 -91 
Q 1284 -91 818 406 
Q 353 903 353 1747 
Q 353 2603 823 3093 
Q 1294 3584 2113 3584 
Q 2378 3584 2631 3529 
Q 2884 3475 3122 3366 
z
" transform="scale(0.015625)"/>
       <path id="DejaVuSans-61" d="M 2194 1759 
Q 1497 1759 1228 1600 
Q 959 1441 959 1056 
Q 959 750 1161 570 
Q 1363 391 1709 391 
Q 2188 391 2477 730 
Q 2766 1069 2766 1631 
L 2766 1759 
L 2194 1759 
z
M 3341 1997 
L 3341 0 
L 2766 0 
L 2766 531 
Q 2569 213 2275 61 
Q 1981 -91 1556 -91 
Q 1019 -91 701 211 
Q 384 513 384 1019 
Q 384 1609 779 1909 
Q 1175 2209 1959 2209 
L 2766 2209 
L 2766 2266 
Q 2766 2663 2505 2880 
Q 2244 3097 1772 3097 
Q 1472 3097 1187 3025 
Q 903 2953 641 2809 
L 641 3341 
Q 956 3463 1253 3523 
Q 1550 3584 1831 3584 
Q 2591 3584 2966 3190 
Q 3341 2797 3341 1997 
z
" transform="scale(0.015625)"/>
       <path id="DejaVuSans-74" d="M 1172 4494 
L 1172 3500 
L 2356 3500 
L 2356 3053 
L 1172 3053 
L 1172 1153 
Q 1172 725 1289 603 
Q 1406 481 1766 481 
L 2356 481 
L 2356 0 
L 1766 0 
Q 1100 0 847 248 
Q 594 497 594 1153 
L 594 3053 
L 172 3053 
L 172 3500 
L 594 3500 
L 594 4494 
L 1172 4494 
z
" transform="scale(0.015625)"/>
       <path id="DejaVuSans-20" transform="scale(0.015625)"/>
       <path id="DejaVuSans-52" d="M 2841 2188 
Q 3044 2119 3236 1894 
Q 3428 1669 3622 1275 
L 4263 0 
L 3584 0 
L 2988 1197 
Q 2756 1666 2539 1819 
Q 2322 1972 1947 1972 
L 1259 1972 
L 1259 0 
L 628 0 
L 628 4666 
L 2053 4666 
Q 2853 4666 3247 4331 
Q 3641 3997 3641 3322 
Q 3641 2881 3436 2590 
Q 3231 2300 2841 2188 
z
M 1259 4147 
L 1259 2491 
L 2053 2491 
Q 2509 2491 2742 2702 
Q 2975 2913 2975 3322 
Q 2975 3731 2742 3939 
Q 2509 4147 2053 4147 
L 1259 4147 
z
" transform="scale(0.015625)"/>
       <path id="DejaVuSans-64" d="M 2906 2969 
L 2906 4863 
L 3481 4863 
L 3481 0 
L 2906 0 
L 2906 525 
Q 2725 213 2448 61 
Q 2172 -91 1784 -91 
Q 1150 -91 751 415 
Q 353 922 353 1747 
Q 353 2572 751 3078 
Q 1150 3584 1784 3584 
Q 2172 3584 2448 3432 
Q 2725 3281 2906 2969 
z
M 947 1747 
Q 947 1113 1208 752 
Q 1469 391 1925 391 
Q 2381 391 2643 752 
Q 2906 1113 2906 1747 
Q 2906 2381 2643 2742 
Q 2381 3103 1925 3103 
Q 1469 3103 1208 2742 
Q 947 2381 947 1747 
z
" transform="scale(0.015625)"/>
       <path id="DejaVuSans-73" d="M 2834 3397 
L 2834 2853 
Q 2591 2978 2328 3040 
Q 2066 3103 1784 3103 
Q 1356 3103 1142 2972 
Q 928 2841 928 2578 
Q 928 2378 1081 2264 
Q 1234 2150 1697 2047 
L 1894 2003 
Q 2506 1872 2764 1633 
Q 3022 1394 3022 966 
Q 3022 478 2636 193 
Q 2250 -91 1575 -91 
Q 1294 -91 989 -36 
Q 684 19 347 128 
L 347 722 
Q 666 556 975 473 
Q 1284 391 1588 391 
Q 1994 391 2212 530 
Q 2431 669 2431 922 
Q 2431 1156 2273 1281 
Q 2116 1406 1581 1522 
L 1381 1569 
Q 847 1681 609 1914 
Q 372 2147 372 2553 
Q 372 3047 722 3315 
Q 1072 3584 1716 3584 
Q 2034 3584 2315 3537 
Q 2597 3491 2834 3397 
z
" transform="scale(0.015625)"/>
      </defs>
      <use xlink:href="#DejaVuSans-43"/>
      <use xlink:href="#DejaVuSans-6f" x="69.824219"/>
      <use xlink:href="#DejaVuSans-6d" x="131.005859"/>
      <use xlink:href="#DejaVuSans-6d" x="228.417969"/>
      <use xlink:href="#DejaVuSans-75" x="325.830078"/>
      <use xlink:href="#DejaVuSans-6e" x="389.208984"/>
      <use xlink:href="#DejaVuSans-69" x="452.587891"/>
      <use xlink:href="#DejaVuSans-63" x="480.371094"/>
      <use xlink:href="#DejaVuSans-61" x="535.351562"/>
      <use xlink:href="#DejaVuSans-74" x="596.630859"/>
      <use xlink:href="#DejaVuSans-69" x="635.839844"/>
      <use xlink:href="#DejaVuSans-6f" x="663.623047"/>
      <use xlink:href="#DejaVuSans-6e" x="724.804688"/>
      <use xlink:href="#DejaVuSans-20" x="788.183594"/>
      <use xlink:href="#DejaVuSans-52" x="819.970703"/>
      <use xlink:href="#DejaVuSans-6f" x="884.953125"/>
      <use xlink:href="#DejaVuSans-75" x="946.134766"/>
      <use xlink:href="#DejaVuSans-6e" x="1009.513672"/>
      <use xlink:href="#DejaVuSans-64" x="1072.892578"/>
      <use xlink:href="#DejaVuSans-73" x="1136.369141"/>
     </g>
    </g>
   </g>
   <g id="matplotlib.axis_2">
    <g id="ytick_1">
     <g id="line2d_13">
      <path d="M 43.78125 379.93062 
L 566.57125 379.93062 
" clip-path="url(#p032943e6be)" style="fill: none; stroke: #b0b0b0; stroke-opacity: 0.3; stroke-width: 0.8; stroke-linecap: square"/>
     </g>
     <g id="line2d_14">
      <defs>
       <path id="m0338c466a4" d="M 0 0 
L -3.5 0 
" style="stroke: #000000; stroke-width: 0.8"/>
      </defs>
      <g>
       <use xlink:href="#m0338c466a4" x="43.78125" y="379.93062" style="stroke: #000000; stroke-width: 0.8"/>
      </g>
     </g>
     <g id="text_8">
      <!-- 0.0 -->
      <g transform="translate(20.878125 383.729839) scale(0.1 -0.1)">
       <defs>
        <path id="DejaVuSans-2e" d="M 684 794 
L 1344 794 
L 1344 0 
L 684 0 
L 684 794 
z
" transform="scale(0.015625)"/>
       </defs>
       <use xlink:href="#DejaVuSans-30"/>
       <use xlink:href="#DejaVuSans-2e" x="63.623047"/>
       <use xlink:href="#DejaVuSans-30" x="95.410156"/>
      </g>
     </g>
    </g>
    <g id="ytick_2">
     <g id="line2d_15">
      <path d="M 43.78125 330.743587 
L 566.57125 330.743587 
" clip-path="url(#p032943e6be)" style="fill: none; stroke: #b0b0b0; stroke-opacity: 0.3; stroke-width: 0.8; stroke-linecap: square"/>
     </g>
     <g id="line2d_16">
      <g>
       <use xlink:href="#m0338c466a4" x="43.78125" y="330.743587" style="stroke: #000000; stroke-width: 0.8"/>
      </g>
     </g>
     <g id="text_9">
      <!-- 0.1 -->
      <g transform="translate(20.878125 334.542806) scale(0.1 -0.1)">
       <use xlink:href="#DejaVuSans-30"/>
       <use xlink:href="#DejaVuSans-2e" x="63.623047"/>
       <use xlink:href="#DejaVuSans-31" x="95.410156"/>
      </g>
     </g>
    </g>
    <g id="ytick_3">
     <g id="line2d_17">
      <path d="M 43.78125 281.556554 
L 566.57125 281.556554 
" clip-path="url(#p032943e6be)" style="fill: none; stroke: #b0b0b0; stroke-opacity: 0.3; stroke-width: 0.8; stroke-linecap: square"/>
     </g>
     <g id="line2d_18">
      <g>
       <use xlink:href="#m0338c466a4" x="43.78125" y="281.556554" style="stroke: #000000; stroke-width: 0.8"/>
      </g>
     </g>
     <g id="text_10">
      <!-- 0.2 -->
      <g transform="translate(20.878125 285.355773) scale(0.1 -0.1)">
       <use xlink:href="#DejaVuSans-30"/>
       <use xlink:href="#DejaVuSans-2e" x="63.623047"/>
       <use xlink:href="#DejaVuSans-32" x="95.410156"/>
      </g>
     </g>
    </g>
    <g id="ytick_4">
     <g id="line2d_19">
      <path d="M 43.78125 232.369521 
L 566.57125 232.369521 
" clip-path="url(#p032943e6be)" style="fill: none; stroke: #b0b0b0; stroke-opacity: 0.3; stroke-width: 0.8; stroke-linecap: square"/>
     </g>
     <g id="line2d_20">
      <g>
       <use xlink:href="#m0338c466a4" x="43.78125" y="232.369521" style="stroke: #000000; stroke-width: 0.8"/>
      </g>
     </g>
     <g id="text_11">
      <!-- 0.3 -->
      <g transform="translate(20.878125 236.168739) scale(0.1 -0.1)">
       <defs>
        <path id="DejaVuSans-33" d="M 2597 2516 
Q 3050 2419 3304 2112 
Q 3559 1806 3559 1356 
Q 3559 666 3084 287 
Q 2609 -91 1734 -91 
Q 1441 -91 1130 -33 
Q 819 25 488 141 
L 488 750 
Q 750 597 1062 519 
Q 1375 441 1716 441 
Q 2309 441 2620 675 
Q 2931 909 2931 1356 
Q 2931 1769 2642 2001 
Q 2353 2234 1838 2234 
L 1294 2234 
L 1294 2753 
L 1863 2753 
Q 2328 2753 2575 2939 
Q 2822 3125 2822 3475 
Q 2822 3834 2567 4026 
Q 2313 4219 1838 4219 
Q 1578 4219 1281 4162 
Q 984 4106 628 3988 
L 628 4550 
Q 988 4650 1302 4700 
Q 1616 4750 1894 4750 
Q 2613 4750 3031 4423 
Q 3450 4097 3450 3541 
Q 3450 3153 3228 2886 
Q 3006 2619 2597 2516 
z
" transform="scale(0.015625)"/>
       </defs>
       <use xlink:href="#DejaVuSans-30"/>
       <use xlink:href="#DejaVuSans-2e" x="63.623047"/>
       <use xlink:href="#DejaVuSans-33" x="95.410156"/>
      </g>
     </g>
    </g>
    <g id="ytick_5">
     <g id="line2d_21">
      <path d="M 43.78125 183.182487 
L 566.57125 183.182487 
" clip-path="url(#p032943e6be)" style="fill: none; stroke: #b0b0b0; stroke-opacity: 0.3; stroke-width: 0.8; stroke-linecap: square"/>
     </g>
     <g id="line2d_22">
      <g>
       <use xlink:href="#m0338c466a4" x="43.78125" y="183.182487" style="stroke: #000000; stroke-width: 0.8"/>
      </g>
     </g>
     <g id="text_12">
      <!-- 0.4 -->
      <g transform="translate(20.878125 186.981706) scale(0.1 -0.1)">
       <use xlink:href="#DejaVuSans-30"/>
       <use xlink:href="#DejaVuSans-2e" x="63.623047"/>
       <use xlink:href="#DejaVuSans-34" x="95.410156"/>
      </g>
     </g>
    </g>
    <g id="ytick_6">
     <g id="line2d_23">
      <path d="M 43.78125 133.995454 
L 566.57125 133.995454 
" clip-path="url(#p032943e6be)" style="fill: none; stroke: #b0b0b0; stroke-opacity: 0.3; stroke-width: 0.8; stroke-linecap: square"/>
     </g>
     <g id="line2d_24">
      <g>
       <use xlink:href="#m0338c466a4" x="43.78125" y="133.995454" style="stroke: #000000; stroke-width: 0.8"/>
      </g>
     </g>
     <g id="text_13">
      <!-- 0.5 -->
      <g transform="translate(20.878125 137.794673) scale(0.1 -0.1)">
       <defs>
        <path id="DejaVuSans-35" d="M 691 4666 
L 3169 4666 
L 3169 4134 
L 1269 4134 
L 1269 2991 
Q 1406 3038 1543 3061 
Q 1681 3084 1819 3084 
Q 2600 3084 3056 2656 
Q 3513 2228 3513 1497 
Q 3513 744 3044 326 
Q 2575 -91 1722 -91 
Q 1428 -91 1123 -41 
Q 819 9 494 109 
L 494 744 
Q 775 591 1075 516 
Q 1375 441 1709 441 
Q 2250 441 2565 725 
Q 2881 1009 2881 1497 
Q 2881 1984 2565 2268 
Q 2250 2553 1709 2553 
Q 1456 2553 1204 2497 
Q 953 2441 691 2322 
L 691 4666 
z
" transform="scale(0.015625)"/>
       </defs>
       <use xlink:href="#DejaVuSans-30"/>
       <use xlink:href="#DejaVuSans-2e" x="63.623047"/>
       <use xlink:href="#DejaVuSans-35" x="95.410156"/>
      </g>
     </g>
    </g>
    <g id="ytick_7">
     <g id="line2d_25">
      <path d="M 43.78125 84.808421 
L 566.57125 84.808421 
" clip-path="url(#p032943e6be)" style="fill: none; stroke: #b0b0b0; stroke-opacity: 0.3; stroke-width: 0.8; stroke-linecap: square"/>
     </g>
     <g id="line2d_26">
      <g>
       <use xlink:href="#m0338c466a4" x="43.78125" y="84.808421" style="stroke: #000000; stroke-width: 0.8"/>
      </g>
     </g>
     <g id="text_14">
      <!-- 0.6 -->
      <g transform="translate(20.878125 88.60764) scale(0.1 -0.1)">
       <use xlink:href="#DejaVuSans-30"/>
       <use xlink:href="#DejaVuSans-2e" x="63.623047"/>
       <use xlink:href="#DejaVuSans-36" x="95.410156"/>
      </g>
     </g>
    </g>
    <g id="ytick_8">
     <g id="line2d_27">
      <path d="M 43.78125 35.621387 
L 566.57125 35.621387 
" clip-path="url(#p032943e6be)" style="fill: none; stroke: #b0b0b0; stroke-opacity: 0.3; stroke-width: 0.8; stroke-linecap: square"/>
     </g>
     <g id="line2d_28">
      <g>
       <use xlink:href="#m0338c466a4" x="43.78125" y="35.621387" style="stroke: #000000; stroke-width: 0.8"/>
      </g>
     </g>
     <g id="text_15">
      <!-- 0.7 -->
      <g transform="translate(20.878125 39.420606) scale(0.1 -0.1)">
       <defs>
        <path id="DejaVuSans-37" d="M 525 4666 
L 3525 4666 
L 3525 4397 
L 1831 0 
L 1172 0 
L 2766 4134 
L 525 4134 
L 525 4666 
z
" transform="scale(0.015625)"/>
       </defs>
       <use xlink:href="#DejaVuSans-30"/>
       <use xlink:href="#DejaVuSans-2e" x="63.623047"/>
       <use xlink:href="#DejaVuSans-37" x="95.410156"/>
      </g>
     </g>
    </g>
    <g id="text_16">
     <!-- Global Accuracy -->
     <g transform="translate(14.798438 244.985312) rotate(-90) scale(0.1 -0.1)">
      <defs>
       <path id="DejaVuSans-47" d="M 3809 666 
L 3809 1919 
L 2778 1919 
L 2778 2438 
L 4434 2438 
L 4434 434 
Q 4069 175 3628 42 
Q 3188 -91 2688 -91 
Q 1594 -91 976 548 
Q 359 1188 359 2328 
Q 359 3472 976 4111 
Q 1594 4750 2688 4750 
Q 3144 4750 3555 4637 
Q 3966 4525 4313 4306 
L 4313 3634 
Q 3963 3931 3569 4081 
Q 3175 4231 2741 4231 
Q 1884 4231 1454 3753 
Q 1025 3275 1025 2328 
Q 1025 1384 1454 906 
Q 1884 428 2741 428 
Q 3075 428 3337 486 
Q 3600 544 3809 666 
z
" transform="scale(0.015625)"/>
       <path id="DejaVuSans-6c" d="M 603 4863 
L 1178 4863 
L 1178 0 
L 603 0 
L 603 4863 
z
" transform="scale(0.015625)"/>
       <path id="DejaVuSans-62" d="M 3116 1747 
Q 3116 2381 2855 2742 
Q 2594 3103 2138 3103 
Q 1681 3103 1420 2742 
Q 1159 2381 1159 1747 
Q 1159 1113 1420 752 
Q 1681 391 2138 391 
Q 2594 391 2855 752 
Q 3116 1113 3116 1747 
z
M 1159 2969 
Q 1341 3281 1617 3432 
Q 1894 3584 2278 3584 
Q 2916 3584 3314 3078 
Q 3713 2572 3713 1747 
Q 3713 922 3314 415 
Q 2916 -91 2278 -91 
Q 1894 -91 1617 61 
Q 1341 213 1159 525 
L 1159 0 
L 581 0 
L 581 4863 
L 1159 4863 
L 1159 2969 
z
" transform="scale(0.015625)"/>
       <path id="DejaVuSans-41" d="M 2188 4044 
L 1331 1722 
L 3047 1722 
L 2188 4044 
z
M 1831 4666 
L 2547 4666 
L 4325 0 
L 3669 0 
L 3244 1197 
L 1141 1197 
L 716 0 
L 50 0 
L 1831 4666 
z
" transform="scale(0.015625)"/>
       <path id="DejaVuSans-72" d="M 2631 2963 
Q 2534 3019 2420 3045 
Q 2306 3072 2169 3072 
Q 1681 3072 1420 2755 
Q 1159 2438 1159 1844 
L 1159 0 
L 581 0 
L 581 3500 
L 1159 3500 
L 1159 2956 
Q 1341 3275 1631 3429 
Q 1922 3584 2338 3584 
Q 2397 3584 2469 3576 
Q 2541 3569 2628 3553 
L 2631 2963 
z
" transform="scale(0.015625)"/>
       <path id="DejaVuSans-79" d="M 2059 -325 
Q 1816 -950 1584 -1140 
Q 1353 -1331 966 -1331 
L 506 -1331 
L 506 -850 
L 844 -850 
Q 1081 -850 1212 -737 
Q 1344 -625 1503 -206 
L 1606 56 
L 191 3500 
L 800 3500 
L 1894 763 
L 2988 3500 
L 3597 3500 
L 2059 -325 
z
" transform="scale(0.015625)"/>
      </defs>
      <use xlink:href="#DejaVuSans-47"/>
      <use xlink:href="#DejaVuSans-6c" x="77.490234"/>
      <use xlink:href="#DejaVuSans-6f" x="105.273438"/>
      <use xlink:href="#DejaVuSans-62" x="166.455078"/>
      <use xlink:href="#DejaVuSans-61" x="229.931641"/>
      <use xlink:href="#DejaVuSans-6c" x="291.210938"/>
      <use xlink:href="#DejaVuSans-20" x="318.994141"/>
      <use xlink:href="#DejaVuSans-41" x="350.78125"/>
      <use xlink:href="#DejaVuSans-63" x="417.439453"/>
      <use xlink:href="#DejaVuSans-63" x="472.419922"/>
      <use xlink:href="#DejaVuSans-75" x="527.400391"/>
      <use xlink:href="#DejaVuSans-72" x="590.779297"/>
      <use xlink:href="#DejaVuSans-61" x="631.892578"/>
      <use xlink:href="#DejaVuSans-63" x="693.171875"/>
      <use xlink:href="#DejaVuSans-79" x="748.152344"/>
     </g>
    </g>
   </g>
   <g id="line2d_29">
    <path d="M 67.544432 370.345398 
L 72.345075 361.831399 
L 77.145717 347.762658 
L 81.94636 330.524879 
L 86.747003 304.985114 
L 91.547646 282.339886 
L 96.348289 260.846224 
L 101.148931 247.801841 
L 105.949574 233.152853 
L 110.750217 220.289239 
L 115.55086 205.448324 
L 120.351503 192.497672 
L 125.152145 180.058084 
L 129.952788 170.8344 
L 134.753431 161.25364 
L 139.554074 154.31077 
L 144.354716 147.986085 
L 149.155359 142.754942 
L 153.956002 137.468005 
L 158.756645 131.324089 
L 163.557288 126.510277 
L 168.35793 125.584114 
L 173.158573 124.613318 
L 177.959216 122.970774 
L 182.759859 121.509 
L 187.560502 119.661138 
L 192.361144 116.721968 
L 197.161787 111.774252 
L 201.96243 107.929004 
L 206.763073 104.724259 
L 211.563716 101.673503 
L 216.364358 98.49777 
L 221.165001 95.730442 
L 225.965644 91.978926 
L 230.766287 88.162691 
L 235.56693 86.680831 
L 240.367572 85.498021 
L 245.168215 84.645505 
L 249.968858 82.773095 
L 254.769501 80.98549 
L 259.570143 78.751542 
L 264.370786 76.3703 
L 269.171429 74.979941 
L 273.972072 73.681082 
L 278.772715 72.839725 
L 283.573357 71.543097 
L 288.374 70.137116 
L 293.174643 69.514467 
L 297.975286 70.24647 
L 302.775929 71.42928 
L 307.576571 71.560951 
L 312.377214 71.163706 
L 317.177857 69.858151 
L 321.9785 69.072587 
L 326.779143 67.885314 
L 331.579785 66.81409 
L 336.380428 66.126721 
L 341.181071 65.468365 
L 345.981714 65.028717 
L 350.782357 64.615849 
L 355.582999 63.799041 
L 360.383642 63.566942 
L 365.184285 63.419649 
L 369.984928 62.975538 
L 374.78557 62.073924 
L 379.586213 60.723736 
L 384.386856 59.625731 
L 389.187499 58.788837 
L 393.988142 57.710918 
L 398.788784 56.923122 
L 403.589427 56.610682 
L 408.39007 56.577206 
L 413.190713 56.441071 
L 417.991356 56.266998 
L 422.791998 56.362961 
L 427.592641 55.863057 
L 432.393284 54.950285 
L 437.193927 54.075452 
L 441.99457 53.325595 
L 446.795212 52.698483 
L 451.595855 52.334713 
L 456.396498 52.158407 
L 461.197141 51.982102 
L 465.997784 52.006651 
L 470.798426 52.14948 
L 475.599069 52.10931 
L 480.399712 51.567002 
L 485.200355 51.000146 
L 490.000997 50.408742 
L 494.80164 49.567384 
L 499.602283 49.185761 
L 504.402926 48.891174 
L 509.203569 48.355562 
L 514.004211 47.958317 
L 518.804854 47.703901 
L 523.605497 47.328973 
L 528.40614 46.907178 
L 533.206783 46.456371 
L 538.007425 46.01226 
L 542.808068 45.717673 
" clip-path="url(#p032943e6be)" style="fill: none; stroke: #808080; stroke-width: 2; stroke-linecap: square"/>
   </g>
   <g id="line2d_30">
    <path d="M 67.544432 360.282588 
L 72.345075 357.3211 
L 77.145717 354.59171 
L 81.94636 345.466221 
L 86.747003 357.497405 
L 91.547646 356.510987 
L 96.348289 347.345327 
L 101.148931 334.535274 
L 105.949574 323.287422 
L 110.750217 319.627407 
L 115.55086 305.141335 
L 120.351503 295.040585 
L 125.152145 289.244817 
L 129.952788 277.010547 
L 134.753431 256.079277 
L 139.554074 249.131944 
L 144.354716 237.687701 
L 149.155359 218.976989 
L 153.956002 207.347514 
L 158.756645 203.758914 
L 163.557288 168.582597 
L 168.35793 172.769298 
L 173.158573 145.450855 
L 177.959216 140.001003 
L 182.759859 140.674982 
L 187.560502 135.325557 
L 192.361144 130.969246 
L 197.161787 131.886482 
L 201.96243 128.60809 
L 206.763073 119.824054 
L 211.563716 110.946285 
L 216.364358 116.148417 
L 221.165001 94.268667 
L 225.965644 92.215488 
L 230.766287 92.402952 
L 235.56693 94.630205 
L 240.367572 88.285435 
L 245.168215 84.411175 
L 249.968858 83.384586 
L 254.769501 78.195845 
L 259.570143 80.103962 
L 264.370786 79.999072 
L 269.171429 75.071441 
L 273.972072 76.091336 
L 278.772715 78.733688 
L 283.573357 72.083173 
L 288.374 66.72259 
L 293.174643 65.075583 
L 297.975286 61.341921 
L 302.775929 61.163384 
L 307.576571 62.535889 
L 312.377214 66.207063 
L 317.177857 69.001172 
L 321.9785 65.142534 
L 326.779143 63.647284 
L 331.579785 68.266938 
L 336.380428 66.744907 
L 341.181071 64.810009 
L 345.981714 62.636317 
L 350.782357 59.927013 
L 355.582999 59.672597 
L 360.383642 59.257498 
L 365.184285 56.851707 
L 369.984928 58.237603 
L 374.78557 55.925545 
L 379.586213 51.660735 
L 384.386856 52.783288 
L 389.187499 56.775829 
L 393.988142 55.298433 
L 398.788784 49.154517 
L 403.589427 50.261448 
L 408.39007 49.248249 
L 413.190713 50.105228 
L 417.991356 48.842076 
L 422.791998 47.674889 
L 427.592641 48.944735 
L 432.393284 49.433481 
L 437.193927 49.589702 
L 441.99457 46.931727 
L 446.795212 46.418432 
L 451.595855 46.588043 
L 456.396498 47.940463 
L 461.197141 46.679543 
L 465.997784 45.780161 
L 470.798426 44.945499 
L 475.599069 45.57038 
L 480.399712 45.028073 
L 485.200355 44.597352 
L 490.000997 45.536904 
L 494.80164 45.769003 
L 499.602283 44.494693 
L 504.402926 44.30946 
L 509.203569 44.534863 
L 514.004211 45.873893 
L 518.804854 46.744263 
L 523.605497 45.755612 
L 528.40614 44.510315 
L 533.206783 44.541559 
L 538.007425 44.722328 
L 542.808068 44.403192 
" clip-path="url(#p032943e6be)" style="fill: none; stroke: #0000ff; stroke-width: 2; stroke-linecap: square"/>
   </g>
   <g id="line2d_31">
    <path d="M 67.544432 360.282588 
L 72.345075 357.3211 
L 77.145717 354.59171 
L 81.94636 345.466221 
L 86.747003 357.497405 
L 91.547646 356.510987 
L 96.348289 347.345327 
L 101.148931 334.535274 
L 105.949574 323.287422 
L 110.750217 319.627407 
L 115.55086 305.141335 
L 120.351503 295.040585 
L 125.152145 289.244817 
L 129.952788 277.010547 
L 134.753431 256.079277 
L 139.554074 249.131944 
L 144.354716 237.687701 
L 149.155359 218.976989 
L 153.956002 207.347514 
L 158.756645 203.758914 
L 163.557288 168.582597 
L 168.35793 172.769298 
L 173.158573 145.450855 
L 177.959216 140.001003 
L 182.759859 140.674982 
L 187.560502 135.325557 
L 192.361144 130.969246 
L 197.161787 131.886482 
L 201.96243 128.60809 
L 206.763073 119.824054 
L 211.563716 110.946285 
L 216.364358 116.148417 
L 221.165001 94.268667 
L 225.965644 92.215488 
L 230.766287 92.402952 
L 235.56693 94.630205 
L 240.367572 88.285435 
L 245.168215 84.411175 
L 249.968858 83.384586 
L 254.769501 78.195845 
L 259.570143 80.103962 
L 264.370786 79.999072 
L 269.171429 75.071441 
L 273.972072 76.091336 
L 278.772715 78.733688 
L 283.573357 72.083173 
L 288.374 66.72259 
L 293.174643 65.075583 
L 297.975286 61.341921 
L 302.775929 61.163384 
L 307.576571 62.535889 
L 312.377214 66.207063 
L 317.177857 69.001172 
L 321.9785 65.142534 
L 326.779143 63.647284 
L 331.579785 68.266938 
L 336.380428 66.744907 
L 341.181071 64.810009 
L 345.981714 62.636317 
L 350.782357 59.927013 
L 355.582999 59.672597 
L 360.383642 59.257498 
L 365.184285 56.851707 
L 369.984928 58.237603 
L 374.78557 55.925545 
L 379.586213 51.660735 
L 384.386856 52.783288 
L 389.187499 56.775829 
L 393.988142 55.298433 
L 398.788784 49.154517 
L 403.589427 50.261448 
L 408.39007 49.248249 
L 413.190713 50.105228 
L 417.991356 48.842076 
L 422.791998 47.674889 
L 427.592641 48.944735 
L 432.393284 49.433481 
L 437.193927 49.589702 
L 441.99457 46.931727 
L 446.795212 46.418432 
L 451.595855 46.588043 
L 456.396498 47.940463 
L 461.197141 46.679543 
L 465.997784 45.780161 
L 470.798426 44.945499 
L 475.599069 45.57038 
L 480.399712 45.028073 
L 485.200355 44.597352 
L 490.000997 45.536904 
L 494.80164 45.769003 
L 499.602283 44.494693 
L 504.402926 44.30946 
L 509.203569 44.534863 
L 514.004211 45.873893 
L 518.804854 46.744263 
L 523.605497 45.755612 
L 528.40614 44.510315 
L 533.206783 44.541559 
L 538.007425 44.722328 
L 542.808068 44.403192 
" clip-path="url(#p032943e6be)" style="fill: none; stroke: #00ffff; stroke-width: 2; stroke-linecap: square"/>
   </g>
   <g id="line2d_32">
    <path d="M 67.544432 350.117119 
L 72.345075 337.224492 
L 77.145717 321.569 
L 81.94636 298.783174 
L 86.747003 277.700148 
L 91.547646 251.656015 
L 96.348289 233.184097 
L 101.148931 220.525801 
L 105.949574 203.642865 
L 110.750217 185.293691 
L 115.55086 173.280361 
L 120.351503 164.163799 
L 125.152145 154.933419 
L 129.952788 145.49549 
L 134.753431 140.221943 
L 139.554074 133.799063 
L 144.354716 128.076942 
L 149.155359 123.754107 
L 153.956002 120.140958 
L 158.756645 117.5053 
L 163.557288 116.860334 
L 168.35793 116.755444 
L 173.158573 114.758057 
L 177.959216 112.151412 
L 182.759859 109.473352 
L 187.560502 106.485084 
L 192.361144 102.481384 
L 197.161787 97.330582 
L 201.96243 92.431965 
L 206.763073 87.698494 
L 211.563716 82.215166 
L 216.364358 78.617639 
L 221.165001 75.986445 
L 225.965644 71.424816 
L 230.766287 65.914708 
L 235.56693 64.676106 
L 240.367572 64.035603 
L 245.168215 63.883846 
L 249.968858 63.433039 
L 254.769501 62.977769 
L 259.570143 62.218986 
L 264.370786 61.594105 
L 269.171429 60.159111 
L 273.972072 58.833472 
L 278.772715 56.905268 
L 283.573357 54.838699 
L 288.374 53.138131 
L 293.174643 52.44853 
L 297.975286 51.60271 
L 302.775929 51.196537 
L 307.576571 51.665198 
L 312.377214 52.647153 
L 317.177857 53.405937 
L 321.9785 54.0085 
L 326.779143 53.90361 
L 331.579785 54.256221 
L 336.380428 54.396819 
L 341.181071 53.867902 
L 345.981714 52.843544 
L 350.782357 51.854894 
L 355.582999 51.169757 
L 360.383642 50.357412 
L 365.184285 49.507128 
L 369.984928 49.105419 
L 374.78557 48.572039 
L 379.586213 47.828877 
L 384.386856 47.027691 
L 389.187499 46.304615 
L 393.988142 45.612783 
L 398.788784 45.289184 
L 403.589427 44.563876 
L 408.39007 43.680116 
L 413.190713 42.921332 
L 417.991356 42.347781 
L 422.791998 41.986243 
L 427.592641 41.580071 
L 432.393284 41.310033 
L 437.193927 41.171667 
L 441.99457 41.077935 
L 446.795212 40.995361 
L 451.595855 40.872617 
L 456.396498 40.756567 
L 461.197141 40.651677 
L 465.997784 40.488761 
L 470.798426 40.390566 
L 475.599069 40.285675 
L 480.399712 40.180784 
L 485.200355 40.102674 
L 490.000997 39.988857 
L 494.80164 39.879503 
L 499.602283 39.801393 
L 504.402926 39.709892 
L 509.203569 39.640709 
L 514.004211 39.560367 
L 518.804854 39.517965 
L 523.605497 39.495647 
L 528.40614 39.464403 
L 533.206783 39.439855 
L 538.007425 39.424233 
L 542.808068 39.388525 
" clip-path="url(#p032943e6be)" style="fill: none; stroke: #008000; stroke-width: 2; stroke-linecap: square"/>
   </g>
   <g id="line2d_33">
    <path d="M 67.544432 350.675048 
L 72.345075 338.199752 
L 77.145717 321.140511 
L 81.94636 298.67382 
L 86.747003 271.422329 
L 91.547646 252.446043 
L 96.348289 238.397387 
L 101.148931 223.511838 
L 105.949574 210.253209 
L 110.750217 195.140025 
L 115.55086 182.140276 
L 120.351503 172.479175 
L 125.152145 167.330604 
L 129.952788 160.820687 
L 134.753431 154.627674 
L 139.554074 150.608352 
L 144.354716 146.787653 
L 149.155359 143.661019 
L 153.956002 139.679636 
L 158.756645 136.883295 
L 163.557288 134.180687 
L 168.35793 130.681355 
L 173.158573 125.593041 
L 177.959216 121.22334 
L 182.759859 116.43854 
L 187.560502 110.102696 
L 192.361144 104.021269 
L 197.161787 97.80817 
L 201.96243 93.134955 
L 206.763073 89.481635 
L 211.563716 85.404289 
L 216.364358 81.695176 
L 221.165001 78.155674 
L 225.965644 75.129466 
L 230.766287 73.625289 
L 235.56693 71.784123 
L 240.367572 70.70174 
L 245.168215 69.048038 
L 249.968858 67.276055 
L 254.769501 64.825631 
L 259.570143 62.892964 
L 264.370786 61.569556 
L 269.171429 60.737126 
L 273.972072 60.672406 
L 278.772715 60.563052 
L 283.573357 59.723926 
L 288.374 58.55897 
L 293.174643 57.246721 
L 297.975286 56.121936 
L 302.775929 54.963675 
L 307.576571 53.379156 
L 312.377214 52.075834 
L 317.177857 50.54934 
L 321.9785 49.480347 
L 326.779143 48.596588 
L 331.579785 47.37807 
L 336.380428 46.592506 
L 341.181071 45.697588 
L 345.981714 44.59512 
L 350.782357 43.94569 
L 355.582999 43.494884 
L 360.383642 43.169053 
L 365.184285 42.7361 
L 369.984928 42.220573 
L 374.78557 41.738523 
L 379.586213 41.419387 
L 384.386856 41.026605 
L 389.187499 40.803433 
L 393.988142 40.636055 
L 398.788784 40.473139 
L 403.589427 40.270053 
L 408.39007 40.140614 
L 413.190713 39.982162 
L 417.991356 39.872808 
L 422.791998 39.817015 
L 427.592641 39.774612 
L 432.393284 39.747831 
L 437.193927 39.732209 
L 441.99457 39.714356 
L 446.795212 39.714356 
L 451.595855 39.714356 
L 456.396498 39.712124 
L 461.197141 39.692039 
L 465.997784 39.618392 
L 470.798426 39.558136 
L 475.599069 39.506806 
L 480.399712 39.45994 
L 485.200355 39.39522 
L 490.000997 39.377366 
L 494.80164 39.352818 
L 499.602283 39.361744 
L 504.402926 39.361744 
L 509.203569 39.350586 
L 514.004211 39.308183 
L 518.804854 39.285866 
L 523.605497 39.288098 
L 528.40614 39.274708 
L 533.206783 39.259086 
L 538.007425 39.256854 
L 542.808068 39.250159 
" clip-path="url(#p032943e6be)" style="fill: none; stroke: #ffa500; stroke-width: 2; stroke-linecap: square"/>
   </g>
   <g id="line2d_34">
    <path d="M 67.544432 350.335827 
L 72.345075 327.375927 
L 77.145717 311.633398 
L 81.94636 314.271287 
L 86.747003 326.219898 
L 91.547646 335.035178 
L 96.348289 345.843381 
L 101.148931 359.568438 
L 105.949574 362.123754 
L 110.750217 361.239994 
L 115.55086 357.751821 
L 120.351503 351.199501 
L 125.152145 339.025487 
L 129.952788 334.863336 
L 134.753431 323.477118 
L 139.554074 300.651121 
L 144.354716 272.473467 
L 149.155359 224.578598 
L 153.956002 179.897401 
L 158.756645 126.351825 
L 163.557288 97.538132 
L 168.35793 65.945952 
L 173.158573 49.690129 
L 177.959216 41.771998 
L 182.759859 40.87708 
L 187.560502 40.613737 
L 192.361144 39.553672 
L 197.161787 38.910938 
L 201.96243 38.899779 
L 206.763073 38.890852 
L 211.563716 38.890852 
L 216.364358 38.890852 
L 221.165001 38.890852 
L 225.965644 38.890852 
L 230.766287 38.890852 
L 235.56693 38.890852 
L 240.367572 38.890852 
L 245.168215 38.890852 
L 249.968858 38.890852 
L 254.769501 38.890852 
L 259.570143 38.890852 
L 264.370786 38.890852 
L 269.171429 38.890852 
L 273.972072 38.890852 
L 278.772715 38.890852 
L 283.573357 38.890852 
L 288.374 38.890852 
L 293.174643 38.890852 
L 297.975286 38.890852 
L 302.775929 38.890852 
L 307.576571 38.890852 
L 312.377214 38.890852 
L 317.177857 38.890852 
L 321.9785 38.890852 
L 326.779143 38.890852 
L 331.579785 38.890852 
L 336.380428 38.890852 
L 341.181071 38.890852 
L 345.981714 38.890852 
L 350.782357 38.890852 
L 355.582999 38.890852 
L 360.383642 38.890852 
L 365.184285 38.890852 
L 369.984928 38.890852 
L 374.78557 38.890852 
L 379.586213 38.890852 
L 384.386856 38.890852 
L 389.187499 38.890852 
L 393.988142 38.890852 
L 398.788784 38.890852 
L 403.589427 38.890852 
L 408.39007 38.890852 
L 413.190713 38.890852 
L 417.991356 38.890852 
L 422.791998 38.890852 
L 427.592641 38.890852 
L 432.393284 38.890852 
L 437.193927 38.890852 
L 441.99457 38.890852 
L 446.795212 38.890852 
L 451.595855 38.890852 
L 456.396498 38.890852 
L 461.197141 38.890852 
L 465.997784 38.890852 
L 470.798426 38.890852 
L 475.599069 38.890852 
L 480.399712 38.890852 
L 485.200355 38.890852 
L 490.000997 38.890852 
L 494.80164 38.890852 
L 499.602283 38.890852 
L 504.402926 38.890852 
L 509.203569 38.890852 
L 514.004211 38.890852 
L 518.804854 38.890852 
L 523.605497 38.890852 
L 528.40614 38.890852 
L 533.206783 38.890852 
L 538.007425 38.890852 
L 542.808068 38.890852 
" clip-path="url(#p032943e6be)" style="fill: none; stroke: #ff0000; stroke-width: 2; stroke-linecap: square"/>
   </g>
   <g id="line2d_35">
    <path d="M 67.544432 362.918245 
L 72.345075 361.675179 
L 77.145717 359.108705 
L 81.94636 361.603764 
L 86.747003 364.462593 
L 91.547646 363.7172 
L 96.348289 361.902814 
L 101.148931 359.162266 
L 105.949574 357.499637 
L 110.750217 356.410559 
L 115.55086 353.025045 
L 120.351503 349.050358 
L 125.152145 345.573344 
L 129.952788 342.562758 
L 134.753431 337.318224 
L 139.554074 338.367131 
L 144.354716 332.274545 
L 149.155359 328.110162 
L 153.956002 313.403149 
L 158.756645 303.090387 
L 163.557288 299.829849 
L 168.35793 290.693202 
L 173.158573 281.277589 
L 177.959216 273.47774 
L 182.759859 269.7597 
L 187.560502 264.584349 
L 192.361144 252.495141 
L 197.161787 240.278724 
L 201.96243 237.015954 
L 206.763073 229.990511 
L 211.563716 220.03036 
L 216.364358 213.473576 
L 221.165001 192.636039 
L 225.965644 189.199195 
L 230.766287 175.721859 
L 235.56693 168.792379 
L 240.367572 162.87833 
L 245.168215 154.105452 
L 249.968858 151.594771 
L 254.769501 136.776173 
L 259.570143 128.259942 
L 264.370786 125.894323 
L 269.171429 115.088351 
L 273.972072 105.262103 
L 278.772715 106.438218 
L 283.573357 109.754549 
L 288.374 106.598901 
L 293.174643 102.952277 
L 297.975286 104.992065 
L 302.775929 97.165435 
L 307.576571 89.278549 
L 312.377214 91.20452 
L 317.177857 89.878881 
L 321.9785 82.826656 
L 326.779143 81.076991 
L 331.579785 78.876518 
L 336.380428 77.274146 
L 341.181071 74.700976 
L 345.981714 73.794899 
L 350.782357 72.373296 
L 355.582999 77.184877 
L 360.383642 81.289004 
L 365.184285 72.61209 
L 369.984928 76.794327 
L 374.78557 73.607435 
L 379.586213 68.545902 
L 384.386856 74.522439 
L 389.187499 75.154015 
L 393.988142 68.822635 
L 398.788784 80.211085 
L 403.589427 70.471874 
L 408.39007 64.774301 
L 413.190713 64.194055 
L 417.991356 63.53793 
L 422.791998 66.791773 
L 427.592641 64.631471 
L 432.393284 60.505027 
L 437.193927 62.018131 
L 441.99457 57.094964 
L 446.795212 56.853939 
L 451.595855 55.869752 
L 456.396498 53.785329 
L 461.197141 51.158598 
L 465.997784 48.759503 
L 470.798426 50.437754 
L 475.599069 53.932622 
L 480.399712 50.625218 
L 485.200355 52.49986 
L 490.000997 50.386424 
L 494.80164 50.703328 
L 499.602283 52.912728 
L 504.402926 47.58562 
L 509.203569 50.774743 
L 514.004211 49.328591 
L 518.804854 48.177025 
L 523.605497 49.607555 
L 528.40614 47.203997 
L 533.206783 49.348676 
L 538.007425 46.904946 
L 542.808068 48.241745 
" clip-path="url(#p032943e6be)" style="fill: none; stroke: #ff00ff; stroke-width: 2; stroke-linecap: square"/>
   </g>
   <g id="patch_3">
    <path d="M 43.78125 386.918125 
L 43.78125 22.318125 
" style="fill: none; stroke: #000000; stroke-width: 0.8; stroke-linejoin: miter; stroke-linecap: square"/>
   </g>
   <g id="patch_4">
    <path d="M 566.57125 386.918125 
L 566.57125 22.318125 
" style="fill: none; stroke: #000000; stroke-width: 0.8; stroke-linejoin: miter; stroke-linecap: square"/>
   </g>
   <g id="patch_5">
    <path d="M 43.78125 386.918125 
L 566.57125 386.918125 
" style="fill: none; stroke: #000000; stroke-width: 0.8; stroke-linejoin: miter; stroke-linecap: square"/>
   </g>
   <g id="patch_6">
    <path d="M 43.78125 22.318125 
L 566.57125 22.318125 
" style="fill: none; stroke: #000000; stroke-width: 0.8; stroke-linejoin: miter; stroke-linecap: square"/>
   </g>
   <g id="text_17">
    <!-- Accuracy Comparison - mhealth -->
    <g transform="translate(209.135938 16.318125) scale(0.12 -0.12)">
     <defs>
      <path id="DejaVuSans-70" d="M 1159 525 
L 1159 -1331 
L 581 -1331 
L 581 3500 
L 1159 3500 
L 1159 2969 
Q 1341 3281 1617 3432 
Q 1894 3584 2278 3584 
Q 2916 3584 3314 3078 
Q 3713 2572 3713 1747 
Q 3713 922 3314 415 
Q 2916 -91 2278 -91 
Q 1894 -91 1617 61 
Q 1341 213 1159 525 
z
M 3116 1747 
Q 3116 2381 2855 2742 
Q 2594 3103 2138 3103 
Q 1681 3103 1420 2742 
Q 1159 2381 1159 1747 
Q 1159 1113 1420 752 
Q 1681 391 2138 391 
Q 2594 391 2855 752 
Q 3116 1113 3116 1747 
z
" transform="scale(0.015625)"/>
      <path id="DejaVuSans-2d" d="M 313 2009 
L 1997 2009 
L 1997 1497 
L 313 1497 
L 313 2009 
z
" transform="scale(0.015625)"/>
      <path id="DejaVuSans-68" d="M 3513 2113 
L 3513 0 
L 2938 0 
L 2938 2094 
Q 2938 2591 2744 2837 
Q 2550 3084 2163 3084 
Q 1697 3084 1428 2787 
Q 1159 2491 1159 1978 
L 1159 0 
L 581 0 
L 581 4863 
L 1159 4863 
L 1159 2956 
Q 1366 3272 1645 3428 
Q 1925 3584 2291 3584 
Q 2894 3584 3203 3211 
Q 3513 2838 3513 2113 
z
" transform="scale(0.015625)"/>
      <path id="DejaVuSans-65" d="M 3597 1894 
L 3597 1613 
L 953 1613 
Q 991 1019 1311 708 
Q 1631 397 2203 397 
Q 2534 397 2845 478 
Q 3156 559 3463 722 
L 3463 178 
Q 3153 47 2828 -22 
Q 2503 -91 2169 -91 
Q 1331 -91 842 396 
Q 353 884 353 1716 
Q 353 2575 817 3079 
Q 1281 3584 2069 3584 
Q 2775 3584 3186 3129 
Q 3597 2675 3597 1894 
z
M 3022 2063 
Q 3016 2534 2758 2815 
Q 2500 3097 2075 3097 
Q 1594 3097 1305 2825 
Q 1016 2553 972 2059 
L 3022 2063 
z
" transform="scale(0.015625)"/>
     </defs>
     <use xlink:href="#DejaVuSans-41"/>
     <use xlink:href="#DejaVuSans-63" x="66.658203"/>
     <use xlink:href="#DejaVuSans-63" x="121.638672"/>
     <use xlink:href="#DejaVuSans-75" x="176.619141"/>
     <use xlink:href="#DejaVuSans-72" x="239.998047"/>
     <use xlink:href="#DejaVuSans-61" x="281.111328"/>
     <use xlink:href="#DejaVuSans-63" x="342.390625"/>
     <use xlink:href="#DejaVuSans-79" x="397.371094"/>
     <use xlink:href="#DejaVuSans-20" x="456.550781"/>
     <use xlink:href="#DejaVuSans-43" x="488.337891"/>
     <use xlink:href="#DejaVuSans-6f" x="558.162109"/>
     <use xlink:href="#DejaVuSans-6d" x="619.34375"/>
     <use xlink:href="#DejaVuSans-70" x="716.755859"/>
     <use xlink:href="#DejaVuSans-61" x="780.232422"/>
     <use xlink:href="#DejaVuSans-72" x="841.511719"/>
     <use xlink:href="#DejaVuSans-69" x="882.625"/>
     <use xlink:href="#DejaVuSans-73" x="910.408203"/>
     <use xlink:href="#DejaVuSans-6f" x="962.507812"/>
     <use xlink:href="#DejaVuSans-6e" x="1023.689453"/>
     <use xlink:href="#DejaVuSans-20" x="1087.068359"/>
     <use xlink:href="#DejaVuSans-2d" x="1118.855469"/>
     <use xlink:href="#DejaVuSans-20" x="1154.939453"/>
     <use xlink:href="#DejaVuSans-6d" x="1186.726562"/>
     <use xlink:href="#DejaVuSans-68" x="1284.138672"/>
     <use xlink:href="#DejaVuSans-65" x="1347.517578"/>
     <use xlink:href="#DejaVuSans-61" x="1409.041016"/>
     <use xlink:href="#DejaVuSans-6c" x="1470.320312"/>
     <use xlink:href="#DejaVuSans-74" x="1498.103516"/>
     <use xlink:href="#DejaVuSans-68" x="1537.3125"/>
    </g>
   </g>
   <g id="legend_1">
    <g id="patch_7">
     <path d="M 50.78125 133.065 
L 127.321875 133.065 
Q 129.321875 133.065 129.321875 131.065 
L 129.321875 29.318125 
Q 129.321875 27.318125 127.321875 27.318125 
L 50.78125 27.318125 
Q 48.78125 27.318125 48.78125 29.318125 
L 48.78125 131.065 
Q 48.78125 133.065 50.78125 133.065 
z
" style="fill: #ffffff; opacity: 0.8; stroke: #cccccc; stroke-linejoin: miter"/>
    </g>
    <g id="line2d_36">
     <path d="M 52.78125 35.416562 
L 62.78125 35.416562 
L 72.78125 35.416562 
" style="fill: none; stroke: #808080; stroke-width: 2; stroke-linecap: square"/>
    </g>
    <g id="text_18">
     <!-- Single -->
     <g transform="translate(80.78125 38.916562) scale(0.1 -0.1)">
      <defs>
       <path id="DejaVuSans-53" d="M 3425 4513 
L 3425 3897 
Q 3066 4069 2747 4153 
Q 2428 4238 2131 4238 
Q 1616 4238 1336 4038 
Q 1056 3838 1056 3469 
Q 1056 3159 1242 3001 
Q 1428 2844 1947 2747 
L 2328 2669 
Q 3034 2534 3370 2195 
Q 3706 1856 3706 1288 
Q 3706 609 3251 259 
Q 2797 -91 1919 -91 
Q 1588 -91 1214 -16 
Q 841 59 441 206 
L 441 856 
Q 825 641 1194 531 
Q 1563 422 1919 422 
Q 2459 422 2753 634 
Q 3047 847 3047 1241 
Q 3047 1584 2836 1778 
Q 2625 1972 2144 2069 
L 1759 2144 
Q 1053 2284 737 2584 
Q 422 2884 422 3419 
Q 422 4038 858 4394 
Q 1294 4750 2059 4750 
Q 2388 4750 2728 4690 
Q 3069 4631 3425 4513 
z
" transform="scale(0.015625)"/>
       <path id="DejaVuSans-67" d="M 2906 1791 
Q 2906 2416 2648 2759 
Q 2391 3103 1925 3103 
Q 1463 3103 1205 2759 
Q 947 2416 947 1791 
Q 947 1169 1205 825 
Q 1463 481 1925 481 
Q 2391 481 2648 825 
Q 2906 1169 2906 1791 
z
M 3481 434 
Q 3481 -459 3084 -895 
Q 2688 -1331 1869 -1331 
Q 1566 -1331 1297 -1286 
Q 1028 -1241 775 -1147 
L 775 -588 
Q 1028 -725 1275 -790 
Q 1522 -856 1778 -856 
Q 2344 -856 2625 -561 
Q 2906 -266 2906 331 
L 2906 616 
Q 2728 306 2450 153 
Q 2172 0 1784 0 
Q 1141 0 747 490 
Q 353 981 353 1791 
Q 353 2603 747 3093 
Q 1141 3584 1784 3584 
Q 2172 3584 2450 3431 
Q 2728 3278 2906 2969 
L 2906 3500 
L 3481 3500 
L 3481 434 
z
" transform="scale(0.015625)"/>
      </defs>
      <use xlink:href="#DejaVuSans-53"/>
      <use xlink:href="#DejaVuSans-69" x="63.476562"/>
      <use xlink:href="#DejaVuSans-6e" x="91.259766"/>
      <use xlink:href="#DejaVuSans-67" x="154.638672"/>
      <use xlink:href="#DejaVuSans-6c" x="218.115234"/>
      <use xlink:href="#DejaVuSans-65" x="245.898438"/>
     </g>
    </g>
    <g id="line2d_37">
     <path d="M 52.78125 50.094687 
L 62.78125 50.094687 
L 72.78125 50.094687 
" style="fill: none; stroke: #0000ff; stroke-width: 2; stroke-linecap: square"/>
    </g>
    <g id="text_19">
     <!-- FedAvg -->
     <g transform="translate(80.78125 53.594687) scale(0.1 -0.1)">
      <defs>
       <path id="DejaVuSans-46" d="M 628 4666 
L 3309 4666 
L 3309 4134 
L 1259 4134 
L 1259 2759 
L 3109 2759 
L 3109 2228 
L 1259 2228 
L 1259 0 
L 628 0 
L 628 4666 
z
" transform="scale(0.015625)"/>
       <path id="DejaVuSans-76" d="M 191 3500 
L 800 3500 
L 1894 563 
L 2988 3500 
L 3597 3500 
L 2284 0 
L 1503 0 
L 191 3500 
z
" transform="scale(0.015625)"/>
      </defs>
      <use xlink:href="#DejaVuSans-46"/>
      <use xlink:href="#DejaVuSans-65" x="52.019531"/>
      <use xlink:href="#DejaVuSans-64" x="113.542969"/>
      <use xlink:href="#DejaVuSans-41" x="177.019531"/>
      <use xlink:href="#DejaVuSans-76" x="239.552734"/>
      <use xlink:href="#DejaVuSans-67" x="298.732422"/>
     </g>
    </g>
    <g id="line2d_38">
     <path d="M 52.78125 64.772812 
L 62.78125 64.772812 
L 72.78125 64.772812 
" style="fill: none; stroke: #00ffff; stroke-width: 2; stroke-linecap: square"/>
    </g>
    <g id="text_20">
     <!-- FedProx -->
     <g transform="translate(80.78125 68.272812) scale(0.1 -0.1)">
      <defs>
       <path id="DejaVuSans-50" d="M 1259 4147 
L 1259 2394 
L 2053 2394 
Q 2494 2394 2734 2622 
Q 2975 2850 2975 3272 
Q 2975 3691 2734 3919 
Q 2494 4147 2053 4147 
L 1259 4147 
z
M 628 4666 
L 2053 4666 
Q 2838 4666 3239 4311 
Q 3641 3956 3641 3272 
Q 3641 2581 3239 2228 
Q 2838 1875 2053 1875 
L 1259 1875 
L 1259 0 
L 628 0 
L 628 4666 
z
" transform="scale(0.015625)"/>
       <path id="DejaVuSans-78" d="M 3513 3500 
L 2247 1797 
L 3578 0 
L 2900 0 
L 1881 1375 
L 863 0 
L 184 0 
L 1544 1831 
L 300 3500 
L 978 3500 
L 1906 2253 
L 2834 3500 
L 3513 3500 
z
" transform="scale(0.015625)"/>
      </defs>
      <use xlink:href="#DejaVuSans-46"/>
      <use xlink:href="#DejaVuSans-65" x="52.019531"/>
      <use xlink:href="#DejaVuSans-64" x="113.542969"/>
      <use xlink:href="#DejaVuSans-50" x="177.019531"/>
      <use xlink:href="#DejaVuSans-72" x="235.572266"/>
      <use xlink:href="#DejaVuSans-6f" x="274.435547"/>
      <use xlink:href="#DejaVuSans-78" x="332.492188"/>
     </g>
    </g>
    <g id="line2d_39">
     <path d="M 52.78125 79.450937 
L 62.78125 79.450937 
L 72.78125 79.450937 
" style="fill: none; stroke: #008000; stroke-width: 2; stroke-linecap: square"/>
    </g>
    <g id="text_21">
     <!-- FedProto -->
     <g transform="translate(80.78125 82.950937) scale(0.1 -0.1)">
      <use xlink:href="#DejaVuSans-46"/>
      <use xlink:href="#DejaVuSans-65" x="52.019531"/>
      <use xlink:href="#DejaVuSans-64" x="113.542969"/>
      <use xlink:href="#DejaVuSans-50" x="177.019531"/>
      <use xlink:href="#DejaVuSans-72" x="235.572266"/>
      <use xlink:href="#DejaVuSans-6f" x="274.435547"/>
      <use xlink:href="#DejaVuSans-74" x="335.617188"/>
      <use xlink:href="#DejaVuSans-6f" x="374.826172"/>
     </g>
    </g>
    <g id="line2d_40">
     <path d="M 52.78125 94.129062 
L 62.78125 94.129062 
L 72.78125 94.129062 
" style="fill: none; stroke: #ffa500; stroke-width: 2; stroke-linecap: square"/>
    </g>
    <g id="text_22">
     <!-- FedMEKT -->
     <g transform="translate(80.78125 97.629062) scale(0.1 -0.1)">
      <defs>
       <path id="DejaVuSans-4d" d="M 628 4666 
L 1569 4666 
L 2759 1491 
L 3956 4666 
L 4897 4666 
L 4897 0 
L 4281 0 
L 4281 4097 
L 3078 897 
L 2444 897 
L 1241 4097 
L 1241 0 
L 628 0 
L 628 4666 
z
" transform="scale(0.015625)"/>
       <path id="DejaVuSans-45" d="M 628 4666 
L 3578 4666 
L 3578 4134 
L 1259 4134 
L 1259 2753 
L 3481 2753 
L 3481 2222 
L 1259 2222 
L 1259 531 
L 3634 531 
L 3634 0 
L 628 0 
L 628 4666 
z
" transform="scale(0.015625)"/>
       <path id="DejaVuSans-4b" d="M 628 4666 
L 1259 4666 
L 1259 2694 
L 3353 4666 
L 4166 4666 
L 1850 2491 
L 4331 0 
L 3500 0 
L 1259 2247 
L 1259 0 
L 628 0 
L 628 4666 
z
" transform="scale(0.015625)"/>
       <path id="DejaVuSans-54" d="M -19 4666 
L 3928 4666 
L 3928 4134 
L 2272 4134 
L 2272 0 
L 1638 0 
L 1638 4134 
L -19 4134 
L -19 4666 
z
" transform="scale(0.015625)"/>
      </defs>
      <use xlink:href="#DejaVuSans-46"/>
      <use xlink:href="#DejaVuSans-65" x="52.019531"/>
      <use xlink:href="#DejaVuSans-64" x="113.542969"/>
      <use xlink:href="#DejaVuSans-4d" x="177.019531"/>
      <use xlink:href="#DejaVuSans-45" x="263.298828"/>
      <use xlink:href="#DejaVuSans-4b" x="326.482422"/>
      <use xlink:href="#DejaVuSans-54" x="384.308594"/>
     </g>
    </g>
    <g id="line2d_41">
     <path d="M 52.78125 108.807187 
L 62.78125 108.807187 
L 72.78125 108.807187 
" style="fill: none; stroke: #ff0000; stroke-width: 2; stroke-linecap: square"/>
    </g>
    <g id="text_23">
     <!-- FedProp -->
     <g transform="translate(80.78125 112.307187) scale(0.1 -0.1)">
      <use xlink:href="#DejaVuSans-46"/>
      <use xlink:href="#DejaVuSans-65" x="52.019531"/>
      <use xlink:href="#DejaVuSans-64" x="113.542969"/>
      <use xlink:href="#DejaVuSans-50" x="177.019531"/>
      <use xlink:href="#DejaVuSans-72" x="235.572266"/>
      <use xlink:href="#DejaVuSans-6f" x="274.435547"/>
      <use xlink:href="#DejaVuSans-70" x="335.617188"/>
     </g>
    </g>
    <g id="line2d_42">
     <path d="M 52.78125 123.485312 
L 62.78125 123.485312 
L 72.78125 123.485312 
" style="fill: none; stroke: #ff00ff; stroke-width: 2; stroke-linecap: square"/>
    </g>
    <g id="text_24">
     <!-- FedDTG -->
     <g transform="translate(80.78125 126.985312) scale(0.1 -0.1)">
      <defs>
       <path id="DejaVuSans-44" d="M 1259 4147 
L 1259 519 
L 2022 519 
Q 2988 519 3436 956 
Q 3884 1394 3884 2338 
Q 3884 3275 3436 3711 
Q 2988 4147 2022 4147 
L 1259 4147 
z
M 628 4666 
L 1925 4666 
Q 3281 4666 3915 4102 
Q 4550 3538 4550 2338 
Q 4550 1131 3912 565 
Q 3275 0 1925 0 
L 628 0 
L 628 4666 
z
" transform="scale(0.015625)"/>
      </defs>
      <use xlink:href="#DejaVuSans-46"/>
      <use xlink:href="#DejaVuSans-65" x="52.019531"/>
      <use xlink:href="#DejaVuSans-64" x="113.542969"/>
      <use xlink:href="#DejaVuSans-44" x="177.019531"/>
      <use xlink:href="#DejaVuSans-54" x="254.021484"/>
      <use xlink:href="#DejaVuSans-47" x="315.105469"/>
     </g>
    </g>
   </g>
  </g>
  <g id="axes_2">
   <g id="patch_8">
    <path d="M 614.38125 386.918125 
L 1137.17125 386.918125 
L 1137.17125 22.318125 
L 614.38125 22.318125 
z
" style="fill: #ffffff"/>
   </g>
   <g id="matplotlib.axis_3">
    <g id="xtick_7">
     <g id="line2d_43">
      <path d="M 633.343789 386.918125 
L 633.343789 22.318125 
" clip-path="url(#p36ed3fa9d7)" style="fill: none; stroke: #b0b0b0; stroke-opacity: 0.3; stroke-width: 0.8; stroke-linecap: square"/>
     </g>
     <g id="line2d_44">
      <g>
       <use xlink:href="#m3c8cd573e5" x="633.343789" y="386.918125" style="stroke: #000000; stroke-width: 0.8"/>
      </g>
     </g>
     <g id="text_25">
      <!-- 0 -->
      <g transform="translate(630.162539 401.516562) scale(0.1 -0.1)">
       <use xlink:href="#DejaVuSans-30"/>
      </g>
     </g>
    </g>
    <g id="xtick_8">
     <g id="line2d_45">
      <path d="M 729.356645 386.918125 
L 729.356645 22.318125 
" clip-path="url(#p36ed3fa9d7)" style="fill: none; stroke: #b0b0b0; stroke-opacity: 0.3; stroke-width: 0.8; stroke-linecap: square"/>
     </g>
     <g id="line2d_46">
      <g>
       <use xlink:href="#m3c8cd573e5" x="729.356645" y="386.918125" style="stroke: #000000; stroke-width: 0.8"/>
      </g>
     </g>
     <g id="text_26">
      <!-- 20 -->
      <g transform="translate(722.994145 401.516562) scale(0.1 -0.1)">
       <use xlink:href="#DejaVuSans-32"/>
       <use xlink:href="#DejaVuSans-30" x="63.623047"/>
      </g>
     </g>
    </g>
    <g id="xtick_9">
     <g id="line2d_47">
      <path d="M 825.369501 386.918125 
L 825.369501 22.318125 
" clip-path="url(#p36ed3fa9d7)" style="fill: none; stroke: #b0b0b0; stroke-opacity: 0.3; stroke-width: 0.8; stroke-linecap: square"/>
     </g>
     <g id="line2d_48">
      <g>
       <use xlink:href="#m3c8cd573e5" x="825.369501" y="386.918125" style="stroke: #000000; stroke-width: 0.8"/>
      </g>
     </g>
     <g id="text_27">
      <!-- 40 -->
      <g transform="translate(819.007001 401.516562) scale(0.1 -0.1)">
       <use xlink:href="#DejaVuSans-34"/>
       <use xlink:href="#DejaVuSans-30" x="63.623047"/>
      </g>
     </g>
    </g>
    <g id="xtick_10">
     <g id="line2d_49">
      <path d="M 921.382357 386.918125 
L 921.382357 22.318125 
" clip-path="url(#p36ed3fa9d7)" style="fill: none; stroke: #b0b0b0; stroke-opacity: 0.3; stroke-width: 0.8; stroke-linecap: square"/>
     </g>
     <g id="line2d_50">
      <g>
       <use xlink:href="#m3c8cd573e5" x="921.382357" y="386.918125" style="stroke: #000000; stroke-width: 0.8"/>
      </g>
     </g>
     <g id="text_28">
      <!-- 60 -->
      <g transform="translate(915.019857 401.516562) scale(0.1 -0.1)">
       <use xlink:href="#DejaVuSans-36"/>
       <use xlink:href="#DejaVuSans-30" x="63.623047"/>
      </g>
     </g>
    </g>
    <g id="xtick_11">
     <g id="line2d_51">
      <path d="M 1017.395212 386.918125 
L 1017.395212 22.318125 
" clip-path="url(#p36ed3fa9d7)" style="fill: none; stroke: #b0b0b0; stroke-opacity: 0.3; stroke-width: 0.8; stroke-linecap: square"/>
     </g>
     <g id="line2d_52">
      <g>
       <use xlink:href="#m3c8cd573e5" x="1017.395212" y="386.918125" style="stroke: #000000; stroke-width: 0.8"/>
      </g>
     </g>
     <g id="text_29">
      <!-- 80 -->
      <g transform="translate(1011.032712 401.516562) scale(0.1 -0.1)">
       <use xlink:href="#DejaVuSans-38"/>
       <use xlink:href="#DejaVuSans-30" x="63.623047"/>
      </g>
     </g>
    </g>
    <g id="xtick_12">
     <g id="line2d_53">
      <path d="M 1113.408068 386.918125 
L 1113.408068 22.318125 
" clip-path="url(#p36ed3fa9d7)" style="fill: none; stroke: #b0b0b0; stroke-opacity: 0.3; stroke-width: 0.8; stroke-linecap: square"/>
     </g>
     <g id="line2d_54">
      <g>
       <use xlink:href="#m3c8cd573e5" x="1113.408068" y="386.918125" style="stroke: #000000; stroke-width: 0.8"/>
      </g>
     </g>
     <g id="text_30">
      <!-- 100 -->
      <g transform="translate(1103.864318 401.516562) scale(0.1 -0.1)">
       <use xlink:href="#DejaVuSans-31"/>
       <use xlink:href="#DejaVuSans-30" x="63.623047"/>
       <use xlink:href="#DejaVuSans-30" x="127.246094"/>
      </g>
     </g>
    </g>
    <g id="text_31">
     <!-- Communication Rounds -->
     <g transform="translate(816.353594 415.194687) scale(0.1 -0.1)">
      <use xlink:href="#DejaVuSans-43"/>
      <use xlink:href="#DejaVuSans-6f" x="69.824219"/>
      <use xlink:href="#DejaVuSans-6d" x="131.005859"/>
      <use xlink:href="#DejaVuSans-6d" x="228.417969"/>
      <use xlink:href="#DejaVuSans-75" x="325.830078"/>
      <use xlink:href="#DejaVuSans-6e" x="389.208984"/>
      <use xlink:href="#DejaVuSans-69" x="452.587891"/>
      <use xlink:href="#DejaVuSans-63" x="480.371094"/>
      <use xlink:href="#DejaVuSans-61" x="535.351562"/>
      <use xlink:href="#DejaVuSans-74" x="596.630859"/>
      <use xlink:href="#DejaVuSans-69" x="635.839844"/>
      <use xlink:href="#DejaVuSans-6f" x="663.623047"/>
      <use xlink:href="#DejaVuSans-6e" x="724.804688"/>
      <use xlink:href="#DejaVuSans-20" x="788.183594"/>
      <use xlink:href="#DejaVuSans-52" x="819.970703"/>
      <use xlink:href="#DejaVuSans-6f" x="884.953125"/>
      <use xlink:href="#DejaVuSans-75" x="946.134766"/>
      <use xlink:href="#DejaVuSans-6e" x="1009.513672"/>
      <use xlink:href="#DejaVuSans-64" x="1072.892578"/>
      <use xlink:href="#DejaVuSans-73" x="1136.369141"/>
     </g>
    </g>
   </g>
   <g id="matplotlib.axis_4">
    <g id="ytick_9">
     <g id="line2d_55">
      <path d="M 614.38125 382.478313 
L 1137.17125 382.478313 
" clip-path="url(#p36ed3fa9d7)" style="fill: none; stroke: #b0b0b0; stroke-opacity: 0.3; stroke-width: 0.8; stroke-linecap: square"/>
     </g>
     <g id="line2d_56">
      <g>
       <use xlink:href="#m0338c466a4" x="614.38125" y="382.478313" style="stroke: #000000; stroke-width: 0.8"/>
      </g>
     </g>
     <g id="text_32">
      <!-- 0.0 -->
      <g transform="translate(591.478125 386.277531) scale(0.1 -0.1)">
       <use xlink:href="#DejaVuSans-30"/>
       <use xlink:href="#DejaVuSans-2e" x="63.623047"/>
       <use xlink:href="#DejaVuSans-30" x="95.410156"/>
      </g>
     </g>
    </g>
    <g id="ytick_10">
     <g id="line2d_57">
      <path d="M 614.38125 322.641169 
L 1137.17125 322.641169 
" clip-path="url(#p36ed3fa9d7)" style="fill: none; stroke: #b0b0b0; stroke-opacity: 0.3; stroke-width: 0.8; stroke-linecap: square"/>
     </g>
     <g id="line2d_58">
      <g>
       <use xlink:href="#m0338c466a4" x="614.38125" y="322.641169" style="stroke: #000000; stroke-width: 0.8"/>
      </g>
     </g>
     <g id="text_33">
      <!-- 0.1 -->
      <g transform="translate(591.478125 326.440388) scale(0.1 -0.1)">
       <use xlink:href="#DejaVuSans-30"/>
       <use xlink:href="#DejaVuSans-2e" x="63.623047"/>
       <use xlink:href="#DejaVuSans-31" x="95.410156"/>
      </g>
     </g>
    </g>
    <g id="ytick_11">
     <g id="line2d_59">
      <path d="M 614.38125 262.804026 
L 1137.17125 262.804026 
" clip-path="url(#p36ed3fa9d7)" style="fill: none; stroke: #b0b0b0; stroke-opacity: 0.3; stroke-width: 0.8; stroke-linecap: square"/>
     </g>
     <g id="line2d_60">
      <g>
       <use xlink:href="#m0338c466a4" x="614.38125" y="262.804026" style="stroke: #000000; stroke-width: 0.8"/>
      </g>
     </g>
     <g id="text_34">
      <!-- 0.2 -->
      <g transform="translate(591.478125 266.603245) scale(0.1 -0.1)">
       <use xlink:href="#DejaVuSans-30"/>
       <use xlink:href="#DejaVuSans-2e" x="63.623047"/>
       <use xlink:href="#DejaVuSans-32" x="95.410156"/>
      </g>
     </g>
    </g>
    <g id="ytick_12">
     <g id="line2d_61">
      <path d="M 614.38125 202.966882 
L 1137.17125 202.966882 
" clip-path="url(#p36ed3fa9d7)" style="fill: none; stroke: #b0b0b0; stroke-opacity: 0.3; stroke-width: 0.8; stroke-linecap: square"/>
     </g>
     <g id="line2d_62">
      <g>
       <use xlink:href="#m0338c466a4" x="614.38125" y="202.966882" style="stroke: #000000; stroke-width: 0.8"/>
      </g>
     </g>
     <g id="text_35">
      <!-- 0.3 -->
      <g transform="translate(591.478125 206.766101) scale(0.1 -0.1)">
       <use xlink:href="#DejaVuSans-30"/>
       <use xlink:href="#DejaVuSans-2e" x="63.623047"/>
       <use xlink:href="#DejaVuSans-33" x="95.410156"/>
      </g>
     </g>
    </g>
    <g id="ytick_13">
     <g id="line2d_63">
      <path d="M 614.38125 143.129739 
L 1137.17125 143.129739 
" clip-path="url(#p36ed3fa9d7)" style="fill: none; stroke: #b0b0b0; stroke-opacity: 0.3; stroke-width: 0.8; stroke-linecap: square"/>
     </g>
     <g id="line2d_64">
      <g>
       <use xlink:href="#m0338c466a4" x="614.38125" y="143.129739" style="stroke: #000000; stroke-width: 0.8"/>
      </g>
     </g>
     <g id="text_36">
      <!-- 0.4 -->
      <g transform="translate(591.478125 146.928958) scale(0.1 -0.1)">
       <use xlink:href="#DejaVuSans-30"/>
       <use xlink:href="#DejaVuSans-2e" x="63.623047"/>
       <use xlink:href="#DejaVuSans-34" x="95.410156"/>
      </g>
     </g>
    </g>
    <g id="ytick_14">
     <g id="line2d_65">
      <path d="M 614.38125 83.292595 
L 1137.17125 83.292595 
" clip-path="url(#p36ed3fa9d7)" style="fill: none; stroke: #b0b0b0; stroke-opacity: 0.3; stroke-width: 0.8; stroke-linecap: square"/>
     </g>
     <g id="line2d_66">
      <g>
       <use xlink:href="#m0338c466a4" x="614.38125" y="83.292595" style="stroke: #000000; stroke-width: 0.8"/>
      </g>
     </g>
     <g id="text_37">
      <!-- 0.5 -->
      <g transform="translate(591.478125 87.091814) scale(0.1 -0.1)">
       <use xlink:href="#DejaVuSans-30"/>
       <use xlink:href="#DejaVuSans-2e" x="63.623047"/>
       <use xlink:href="#DejaVuSans-35" x="95.410156"/>
      </g>
     </g>
    </g>
    <g id="ytick_15">
     <g id="line2d_67">
      <path d="M 614.38125 23.455452 
L 1137.17125 23.455452 
" clip-path="url(#p36ed3fa9d7)" style="fill: none; stroke: #b0b0b0; stroke-opacity: 0.3; stroke-width: 0.8; stroke-linecap: square"/>
     </g>
     <g id="line2d_68">
      <g>
       <use xlink:href="#m0338c466a4" x="614.38125" y="23.455452" style="stroke: #000000; stroke-width: 0.8"/>
      </g>
     </g>
     <g id="text_38">
      <!-- 0.6 -->
      <g transform="translate(591.478125 27.254671) scale(0.1 -0.1)">
       <use xlink:href="#DejaVuSans-30"/>
       <use xlink:href="#DejaVuSans-2e" x="63.623047"/>
       <use xlink:href="#DejaVuSans-36" x="95.410156"/>
      </g>
     </g>
    </g>
    <g id="text_39">
     <!-- Global F1 Score -->
     <g transform="translate(585.398438 243.805625) rotate(-90) scale(0.1 -0.1)">
      <use xlink:href="#DejaVuSans-47"/>
      <use xlink:href="#DejaVuSans-6c" x="77.490234"/>
      <use xlink:href="#DejaVuSans-6f" x="105.273438"/>
      <use xlink:href="#DejaVuSans-62" x="166.455078"/>
      <use xlink:href="#DejaVuSans-61" x="229.931641"/>
      <use xlink:href="#DejaVuSans-6c" x="291.210938"/>
      <use xlink:href="#DejaVuSans-20" x="318.994141"/>
      <use xlink:href="#DejaVuSans-46" x="350.78125"/>
      <use xlink:href="#DejaVuSans-31" x="408.300781"/>
      <use xlink:href="#DejaVuSans-20" x="471.923828"/>
      <use xlink:href="#DejaVuSans-53" x="503.710938"/>
      <use xlink:href="#DejaVuSans-63" x="567.1875"/>
      <use xlink:href="#DejaVuSans-6f" x="622.167969"/>
      <use xlink:href="#DejaVuSans-72" x="683.349609"/>
      <use xlink:href="#DejaVuSans-65" x="722.212891"/>
     </g>
    </g>
   </g>
   <g id="line2d_69">
    <path d="M 638.144432 368.128618 
L 642.945075 349.07196 
L 647.745717 319.651251 
L 652.54636 288.080804 
L 657.347003 246.171866 
L 662.147646 215.462861 
L 666.948289 189.008498 
L 671.748931 175.299167 
L 676.549574 161.908036 
L 681.350217 150.725174 
L 686.15086 138.555636 
L 690.951503 127.75948 
L 695.752145 117.782393 
L 700.552788 110.797744 
L 705.353431 104.006348 
L 710.154074 99.426066 
L 714.954716 95.18659 
L 719.755359 91.70098 
L 724.556002 88.103986 
L 729.356645 83.90325 
L 734.157288 82.830045 
L 738.95793 82.122475 
L 743.758573 81.241384 
L 748.559216 79.950155 
L 753.359859 78.758685 
L 758.160502 77.40423 
L 762.961144 75.453607 
L 767.761787 72.404484 
L 772.56243 70.060906 
L 777.363073 68.207346 
L 782.163716 66.470313 
L 786.964358 64.677643 
L 791.765001 63.158261 
L 796.565644 61.053376 
L 801.366287 59.074117 
L 806.16693 58.34156 
L 810.967572 57.820262 
L 815.768215 57.439215 
L 820.568858 56.582689 
L 825.369501 55.700118 
L 830.170143 54.655253 
L 834.970786 53.604656 
L 839.771429 53.055803 
L 844.572072 52.576472 
L 849.372715 52.40176 
L 854.173357 52.140503 
L 858.974 52.203642 
L 863.774643 52.298829 
L 868.575286 52.476254 
L 873.375929 52.785517 
L 878.176571 52.948863 
L 882.977214 53.009466 
L 887.777857 53.29476 
L 892.5785 53.093878 
L 897.379143 52.572788 
L 902.179785 52.103014 
L 906.980428 51.827428 
L 911.781071 51.555017 
L 916.581714 51.403716 
L 921.382357 51.264692 
L 926.182999 50.925542 
L 930.983642 50.822774 
L 935.784285 50.769139 
L 940.584928 50.621813 
L 945.38557 50.289849 
L 950.186213 49.773907 
L 954.986856 49.340336 
L 959.787499 49.075595 
L 964.588142 48.691876 
L 969.388784 48.408713 
L 974.189427 48.325946 
L 978.99007 48.298421 
L 983.790713 48.245368 
L 988.591356 48.150405 
L 993.391998 48.161653 
L 998.192641 47.958686 
L 1002.993284 47.59619 
L 1007.793927 47.2466 
L 1012.59457 46.936825 
L 1017.395212 46.69658 
L 1022.195855 46.534157 
L 1026.996498 46.495124 
L 1031.797141 46.460487 
L 1036.597784 46.468327 
L 1041.398426 46.522529 
L 1046.199069 46.507491 
L 1050.999712 46.276284 
L 1055.800355 46.069616 
L 1060.600997 45.881258 
L 1065.40164 45.555311 
L 1070.202283 45.392072 
L 1075.002926 45.278698 
L 1079.803569 45.064741 
L 1084.604211 44.941199 
L 1089.404854 44.846799 
L 1094.205497 44.704779 
L 1099.00614 44.538573 
L 1103.806783 44.366599 
L 1108.607425 44.181921 
L 1113.408068 44.067915 
" clip-path="url(#p36ed3fa9d7)" style="fill: none; stroke: #808080; stroke-width: 2; stroke-linecap: square"/>
   </g>
   <g id="line2d_70">
    <path d="M 638.144432 358.686983 
L 642.945075 353.899358 
L 647.745717 351.070889 
L 652.54636 355.522872 
L 657.347003 358.062282 
L 662.147646 354.04811 
L 666.948289 332.731631 
L 671.748931 309.206612 
L 676.549574 289.141758 
L 681.350217 283.326079 
L 686.15086 257.96576 
L 690.951503 242.287728 
L 695.752145 233.587344 
L 700.552788 215.992095 
L 705.353431 191.160088 
L 710.154074 184.070676 
L 714.954716 171.931739 
L 719.755359 151.393876 
L 724.556002 140.335311 
L 729.356645 137.986227 
L 734.157288 105.769233 
L 738.95793 110.912443 
L 743.758573 93.586039 
L 748.559216 90.843803 
L 753.359859 90.535246 
L 758.160502 88.725975 
L 762.961144 87.211655 
L 767.761787 88.1446 
L 772.56243 85.961942 
L 777.363073 80.026858 
L 782.163716 74.769514 
L 786.964358 78.686206 
L 791.765001 65.618264 
L 796.565644 65.076844 
L 801.366287 66.510175 
L 806.16693 68.5395 
L 810.967572 65.295314 
L 815.768215 63.291691 
L 820.568858 62.625592 
L 825.369501 59.999255 
L 830.170143 61.279269 
L 834.970786 61.544911 
L 839.771429 59.055736 
L 844.572072 59.732134 
L 849.372715 61.237392 
L 854.173357 57.189871 
L 858.974 54.124214 
L 863.774643 53.646411 
L 868.575286 51.729422 
L 873.375929 51.804677 
L 878.176571 52.161271 
L 882.977214 54.560702 
L 887.777857 55.428245 
L 892.5785 53.69426 
L 897.379143 52.773775 
L 902.179785 55.792257 
L 906.980428 54.842724 
L 911.781071 54.103564 
L 916.581714 52.78129 
L 921.382357 51.586343 
L 926.182999 51.316713 
L 930.983642 50.918556 
L 935.784285 49.409464 
L 940.584928 49.983389 
L 945.38557 48.709281 
L 950.186213 46.240522 
L 954.986856 46.670684 
L 959.787499 48.646348 
L 964.588142 47.484508 
L 969.388784 43.802097 
L 974.189427 44.456128 
L 978.99007 43.894547 
L 983.790713 43.841016 
L 988.591356 43.302298 
L 993.391998 42.780091 
L 998.192641 43.432066 
L 1002.993284 43.188107 
L 1007.793927 43.017368 
L 1012.59457 42.026186 
L 1017.395212 41.970696 
L 1022.195855 41.778404 
L 1026.996498 42.28253 
L 1031.797141 41.552786 
L 1036.597784 40.506218 
L 1041.398426 40.082686 
L 1046.199069 41.166421 
L 1050.999712 40.428665 
L 1055.800355 40.230295 
L 1060.600997 40.332205 
L 1065.40164 40.208101 
L 1070.202283 39.630942 
L 1075.002926 38.890852 
L 1079.803569 39.806126 
L 1084.604211 40.471076 
L 1089.404854 40.419323 
L 1094.205497 39.441824 
L 1099.00614 39.481216 
L 1103.806783 39.554273 
L 1108.607425 39.686887 
L 1113.408068 39.484068 
" clip-path="url(#p36ed3fa9d7)" style="fill: none; stroke: #0000ff; stroke-width: 2; stroke-linecap: square"/>
   </g>
   <g id="line2d_71">
    <path d="M 638.144432 358.686983 
L 642.945075 353.899358 
L 647.745717 351.070889 
L 652.54636 355.522872 
L 657.347003 358.062282 
L 662.147646 354.04811 
L 666.948289 332.731631 
L 671.748931 309.206612 
L 676.549574 289.141758 
L 681.350217 283.326079 
L 686.15086 257.96576 
L 690.951503 242.287728 
L 695.752145 233.587344 
L 700.552788 215.992095 
L 705.353431 191.160088 
L 710.154074 184.070676 
L 714.954716 171.931739 
L 719.755359 151.393876 
L 724.556002 140.335311 
L 729.356645 137.986227 
L 734.157288 105.769233 
L 738.95793 110.912443 
L 743.758573 93.586039 
L 748.559216 90.843803 
L 753.359859 90.535246 
L 758.160502 88.725975 
L 762.961144 87.211655 
L 767.761787 88.1446 
L 772.56243 85.961942 
L 777.363073 80.026858 
L 782.163716 74.769514 
L 786.964358 78.686206 
L 791.765001 65.618264 
L 796.565644 65.076844 
L 801.366287 66.510175 
L 806.16693 68.5395 
L 810.967572 65.295314 
L 815.768215 63.291691 
L 820.568858 62.625592 
L 825.369501 59.999255 
L 830.170143 61.279269 
L 834.970786 61.544911 
L 839.771429 59.055736 
L 844.572072 59.732134 
L 849.372715 61.237392 
L 854.173357 57.189871 
L 858.974 54.124214 
L 863.774643 53.646411 
L 868.575286 51.729422 
L 873.375929 51.804677 
L 878.176571 52.161271 
L 882.977214 54.560702 
L 887.777857 55.428245 
L 892.5785 53.69426 
L 897.379143 52.773775 
L 902.179785 55.792257 
L 906.980428 54.842724 
L 911.781071 54.103564 
L 916.581714 52.78129 
L 921.382357 51.586343 
L 926.182999 51.316713 
L 930.983642 50.918556 
L 935.784285 49.409464 
L 940.584928 49.983389 
L 945.38557 48.709281 
L 950.186213 46.240522 
L 954.986856 46.670684 
L 959.787499 48.646348 
L 964.588142 47.484508 
L 969.388784 43.802097 
L 974.189427 44.456128 
L 978.99007 43.894547 
L 983.790713 43.841016 
L 988.591356 43.302298 
L 993.391998 42.780091 
L 998.192641 43.432066 
L 1002.993284 43.188107 
L 1007.793927 43.017368 
L 1012.59457 42.026186 
L 1017.395212 41.970696 
L 1022.195855 41.778404 
L 1026.996498 42.28253 
L 1031.797141 41.552786 
L 1036.597784 40.506218 
L 1041.398426 40.082686 
L 1046.199069 41.166421 
L 1050.999712 40.428665 
L 1055.800355 40.230295 
L 1060.600997 40.332205 
L 1065.40164 40.208101 
L 1070.202283 39.630942 
L 1075.002926 38.890852 
L 1079.803569 39.806126 
L 1084.604211 40.471076 
L 1089.404854 40.419323 
L 1094.205497 39.441824 
L 1099.00614 39.481216 
L 1103.806783 39.554273 
L 1108.607425 39.686887 
L 1113.408068 39.484068 
" clip-path="url(#p36ed3fa9d7)" style="fill: none; stroke: #00ffff; stroke-width: 2; stroke-linecap: square"/>
   </g>
   <g id="line2d_72">
    <path d="M 638.144432 331.755245 
L 642.945075 306.233123 
L 647.745717 278.68961 
L 652.54636 242.979257 
L 657.347003 214.607209 
L 662.147646 184.156434 
L 666.948289 164.966936 
L 671.748931 153.144911 
L 676.549574 138.146076 
L 681.350217 123.013799 
L 686.15086 113.602829 
L 690.951503 106.343818 
L 695.752145 99.012407 
L 700.552788 91.784062 
L 705.353431 87.963263 
L 710.154074 83.513785 
L 714.954716 79.845702 
L 719.755359 77.223296 
L 724.556002 74.834773 
L 729.356645 72.639547 
L 734.157288 72.031142 
L 738.95793 71.691849 
L 743.758573 70.420724 
L 748.559216 69.054661 
L 753.359859 67.71585 
L 758.160502 66.400196 
L 762.961144 64.622611 
L 767.761787 62.263796 
L 772.56243 59.912612 
L 777.363073 57.645186 
L 782.163716 55.090616 
L 786.964358 53.890195 
L 791.765001 53.151559 
L 796.565644 52.163549 
L 801.366287 52.36527 
L 806.16693 51.876462 
L 810.967572 51.691376 
L 815.768215 51.704555 
L 820.568858 51.554454 
L 825.369501 51.434818 
L 830.170143 51.205153 
L 834.970786 51.030189 
L 839.771429 50.492329 
L 844.572072 50.001564 
L 849.372715 49.267706 
L 854.173357 48.527119 
L 858.974 47.918341 
L 863.774643 47.669625 
L 868.575286 47.356883 
L 873.375929 47.23318 
L 878.176571 47.468278 
L 882.977214 47.91989 
L 887.777857 48.282968 
L 892.5785 48.579684 
L 897.379143 48.548594 
L 902.179785 48.712502 
L 906.980428 48.783654 
L 911.781071 48.51098 
L 916.581714 48.083556 
L 921.382357 47.676896 
L 926.182999 47.404852 
L 930.983642 47.057859 
L 935.784285 46.737662 
L 940.584928 46.591573 
L 945.38557 46.370242 
L 950.186213 46.079861 
L 954.986856 45.747711 
L 959.787499 45.442855 
L 964.588142 45.173479 
L 969.388784 45.034905 
L 974.189427 44.732759 
L 978.99007 44.375024 
L 983.790713 44.097002 
L 988.591356 43.917812 
L 993.391998 43.824485 
L 998.192641 43.692911 
L 1002.993284 43.622766 
L 1007.793927 43.592203 
L 1012.59457 43.564821 
L 1017.395212 43.540995 
L 1022.195855 43.49688 
L 1026.996498 43.455128 
L 1031.797141 43.420034 
L 1036.597784 43.344176 
L 1041.398426 43.299224 
L 1046.199069 43.255827 
L 1050.999712 43.20637 
L 1055.800355 43.17263 
L 1060.600997 43.131449 
L 1065.40164 43.091264 
L 1070.202283 43.060494 
L 1075.002926 43.018183 
L 1079.803569 42.988167 
L 1084.604211 42.955286 
L 1089.404854 42.941249 
L 1094.205497 42.938197 
L 1099.00614 42.923403 
L 1103.806783 42.911649 
L 1108.607425 42.917312 
L 1113.408068 42.898098 
" clip-path="url(#p36ed3fa9d7)" style="fill: none; stroke: #008000; stroke-width: 2; stroke-linecap: square"/>
   </g>
   <g id="line2d_73">
    <path d="M 638.144432 332.833037 
L 642.945075 308.322477 
L 647.745717 278.082831 
L 652.54636 242.661627 
L 657.347003 208.056712 
L 662.147646 185.925389 
L 666.948289 171.289877 
L 671.748931 156.587699 
L 676.549574 144.025382 
L 681.350217 130.565337 
L 686.15086 119.599315 
L 690.951503 111.68345 
L 695.752145 107.605395 
L 700.552788 102.661605 
L 705.353431 97.982803 
L 710.154074 94.977065 
L 714.954716 92.186315 
L 719.755359 89.901562 
L 724.556002 86.888428 
L 729.356645 84.823755 
L 734.157288 82.843907 
L 738.95793 80.355409 
L 743.758573 76.983217 
L 748.559216 74.202739 
L 753.359859 71.283229 
L 758.160502 68.040896 
L 762.961144 65.336723 
L 767.761787 62.678599 
L 772.56243 60.495218 
L 777.363073 58.756522 
L 782.163716 56.849517 
L 786.964358 55.135548 
L 791.765001 53.567513 
L 796.565644 52.290293 
L 801.366287 52.041914 
L 806.16693 51.929396 
L 810.967572 52.785267 
L 815.768215 53.9024 
L 820.568858 53.354213 
L 825.369501 52.368088 
L 830.170143 51.504476 
L 834.970786 50.999336 
L 839.771429 50.710619 
L 844.572072 50.736053 
L 849.372715 50.75639 
L 854.173357 50.475765 
L 858.974 50.053662 
L 863.774643 49.56453 
L 868.575286 49.133982 
L 873.375929 48.652727 
L 878.176571 48.03327 
L 882.977214 47.512379 
L 887.777857 46.896029 
L 892.5785 46.486483 
L 897.379143 46.170113 
L 902.179785 45.706391 
L 906.980428 45.394881 
L 911.781071 45.029215 
L 916.581714 44.625858 
L 921.382357 44.36307 
L 926.182999 44.170768 
L 930.983642 44.04095 
L 935.784285 43.880609 
L 940.584928 43.686697 
L 945.38557 43.525107 
L 950.186213 43.441736 
L 954.986856 43.363136 
L 959.787499 43.309096 
L 964.588142 43.252184 
L 969.388784 43.20961 
L 974.189427 43.135619 
L 978.99007 43.09528 
L 983.790713 43.039589 
L 988.591356 43.002088 
L 993.391998 42.988043 
L 998.192641 42.972891 
L 1002.993284 42.960701 
L 1007.793927 42.956011 
L 1012.59457 42.953636 
L 1017.395212 42.956364 
L 1022.195855 42.958177 
L 1026.996498 42.95595 
L 1031.797141 42.955889 
L 1036.597784 42.931495 
L 1041.398426 42.919698 
L 1046.199069 42.911313 
L 1050.999712 42.897362 
L 1055.800355 42.873806 
L 1060.600997 42.870576 
L 1065.40164 42.865224 
L 1070.202283 42.86866 
L 1075.002926 42.86775 
L 1079.803569 42.862998 
L 1084.604211 42.84531 
L 1089.404854 42.834898 
L 1094.205497 42.835302 
L 1099.00614 42.83197 
L 1103.806783 42.82277 
L 1108.607425 42.822366 
L 1113.408068 42.820245 
" clip-path="url(#p36ed3fa9d7)" style="fill: none; stroke: #ffa500; stroke-width: 2; stroke-linecap: square"/>
   </g>
   <g id="line2d_74">
    <path d="M 638.144432 327.109325 
L 642.945075 285.929964 
L 647.745717 263.656737 
L 652.54636 271.193247 
L 657.347003 291.780433 
L 662.147646 310.441824 
L 666.948289 332.910142 
L 671.748931 362.777195 
L 676.549574 370.345398 
L 681.350217 369.580961 
L 686.15086 360.931156 
L 690.951503 345.967655 
L 695.752145 320.487147 
L 700.552788 314.07772 
L 705.353431 294.541239 
L 710.154074 258.898822 
L 714.954716 219.033248 
L 719.755359 166.700679 
L 724.556002 123.304711 
L 729.356645 80.213222 
L 734.157288 61.513234 
L 738.95793 44.267508 
L 743.758573 40.297258 
L 748.559216 40.758559 
L 753.359859 41.251556 
L 758.160502 41.575403 
L 762.961144 42.250825 
L 767.761787 42.550093 
L 772.56243 42.711406 
L 777.363073 42.726221 
L 782.163716 42.726221 
L 786.964358 42.726221 
L 791.765001 42.726221 
L 796.565644 42.726221 
L 801.366287 42.726221 
L 806.16693 42.726221 
L 810.967572 42.726221 
L 815.768215 42.726221 
L 820.568858 42.726221 
L 825.369501 42.726221 
L 830.170143 42.726221 
L 834.970786 42.726221 
L 839.771429 42.726221 
L 844.572072 42.726221 
L 849.372715 42.726221 
L 854.173357 42.726221 
L 858.974 42.726221 
L 863.774643 42.726221 
L 868.575286 42.726221 
L 873.375929 42.726221 
L 878.176571 42.726221 
L 882.977214 42.726221 
L 887.777857 42.726221 
L 892.5785 42.726221 
L 897.379143 42.726221 
L 902.179785 42.726221 
L 906.980428 42.726221 
L 911.781071 42.726221 
L 916.581714 42.726221 
L 921.382357 42.726221 
L 926.182999 42.726221 
L 930.983642 42.726221 
L 935.784285 42.726221 
L 940.584928 42.726221 
L 945.38557 42.726221 
L 950.186213 42.726221 
L 954.986856 42.726221 
L 959.787499 42.726221 
L 964.588142 42.726221 
L 969.388784 42.726221 
L 974.189427 42.726221 
L 978.99007 42.726221 
L 983.790713 42.726221 
L 988.591356 42.726221 
L 993.391998 42.726221 
L 998.192641 42.726221 
L 1002.993284 42.726221 
L 1007.793927 42.726221 
L 1012.59457 42.726221 
L 1017.395212 42.726221 
L 1022.195855 42.726221 
L 1026.996498 42.726221 
L 1031.797141 42.726221 
L 1036.597784 42.726221 
L 1041.398426 42.726221 
L 1046.199069 42.726221 
L 1050.999712 42.726221 
L 1055.800355 42.726221 
L 1060.600997 42.726221 
L 1065.40164 42.726221 
L 1070.202283 42.726221 
L 1075.002926 42.726221 
L 1079.803569 42.726221 
L 1084.604211 42.726221 
L 1089.404854 42.726221 
L 1094.205497 42.726221 
L 1099.00614 42.726221 
L 1103.806783 42.726221 
L 1108.607425 42.726221 
L 1113.408068 42.726221 
" clip-path="url(#p36ed3fa9d7)" style="fill: none; stroke: #ff0000; stroke-width: 2; stroke-linecap: square"/>
   </g>
   <g id="line2d_75">
    <path d="M 638.144432 361.878931 
L 642.945075 360.705983 
L 647.745717 358.421967 
L 652.54636 364.066382 
L 657.347003 368.433363 
L 662.147646 367.731656 
L 666.948289 363.126286 
L 671.748931 356.844597 
L 676.549574 354.433362 
L 681.350217 349.605853 
L 686.15086 341.707314 
L 690.951503 332.881461 
L 695.752145 325.590374 
L 700.552788 319.680659 
L 705.353431 309.923316 
L 710.154074 310.847462 
L 714.954716 300.733667 
L 719.755359 292.040783 
L 724.556002 267.613348 
L 729.356645 253.626523 
L 734.157288 247.925808 
L 738.95793 234.231273 
L 743.758573 221.117611 
L 748.559216 209.658991 
L 753.359859 204.46305 
L 758.160502 198.706154 
L 762.961144 187.422456 
L 767.761787 174.594506 
L 772.56243 170.754751 
L 777.363073 163.608393 
L 782.163716 154.973525 
L 786.964358 148.220799 
L 791.765001 129.681936 
L 796.565644 127.496495 
L 801.366287 115.215649 
L 806.16693 110.448004 
L 810.967572 105.9113 
L 815.768215 100.621042 
L 820.568858 101.889024 
L 825.369501 90.354367 
L 830.170143 86.127989 
L 834.970786 85.367062 
L 839.771429 77.707578 
L 844.572072 71.887567 
L 849.372715 73.874446 
L 854.173357 75.952489 
L 858.974 73.54595 
L 863.774643 70.734065 
L 868.575286 73.561128 
L 873.375929 69.013422 
L 878.176571 64.122134 
L 882.977214 65.255636 
L 887.777857 64.399036 
L 892.5785 60.274237 
L 897.379143 59.436738 
L 902.179785 58.944269 
L 906.980428 58.403182 
L 911.781071 57.569568 
L 916.581714 57.637007 
L 921.382357 56.454005 
L 926.182999 59.228233 
L 930.983642 61.058215 
L 935.784285 57.157926 
L 940.584928 59.819281 
L 945.38557 58.023299 
L 950.186213 54.66231 
L 954.986856 58.351376 
L 959.787499 59.032474 
L 964.588142 55.929262 
L 969.388784 62.317421 
L 974.189427 56.209496 
L 978.99007 52.852445 
L 983.790713 52.276206 
L 988.591356 52.330619 
L 993.391998 53.983997 
L 998.192641 52.915175 
L 1002.993284 50.348265 
L 1007.793927 50.971265 
L 1012.59457 48.314125 
L 1017.395212 48.320217 
L 1022.195855 47.286727 
L 1026.996498 46.116042 
L 1031.797141 44.855348 
L 1036.597784 43.743017 
L 1041.398426 44.473118 
L 1046.199069 45.793158 
L 1050.999712 44.723987 
L 1055.800355 45.631204 
L 1060.600997 44.493296 
L 1065.40164 44.444886 
L 1070.202283 45.563586 
L 1075.002926 42.526784 
L 1079.803569 44.259033 
L 1084.604211 43.34932 
L 1089.404854 42.609146 
L 1094.205497 43.162844 
L 1099.00614 41.55906 
L 1103.806783 42.598926 
L 1108.607425 40.909426 
L 1113.408068 41.634123 
" clip-path="url(#p36ed3fa9d7)" style="fill: none; stroke: #ff00ff; stroke-width: 2; stroke-linecap: square"/>
   </g>
   <g id="patch_9">
    <path d="M 614.38125 386.918125 
L 614.38125 22.318125 
" style="fill: none; stroke: #000000; stroke-width: 0.8; stroke-linejoin: miter; stroke-linecap: square"/>
   </g>
   <g id="patch_10">
    <path d="M 1137.17125 386.918125 
L 1137.17125 22.318125 
" style="fill: none; stroke: #000000; stroke-width: 0.8; stroke-linejoin: miter; stroke-linecap: square"/>
   </g>
   <g id="patch_11">
    <path d="M 614.38125 386.918125 
L 1137.17125 386.918125 
" style="fill: none; stroke: #000000; stroke-width: 0.8; stroke-linejoin: miter; stroke-linecap: square"/>
   </g>
   <g id="patch_12">
    <path d="M 614.38125 22.318125 
L 1137.17125 22.318125 
" style="fill: none; stroke: #000000; stroke-width: 0.8; stroke-linejoin: miter; stroke-linecap: square"/>
   </g>
   <g id="text_40">
    <!-- F1 Score Comparison - mhealth -->
    <g transform="translate(781.151563 16.318125) scale(0.12 -0.12)">
     <use xlink:href="#DejaVuSans-46"/>
     <use xlink:href="#DejaVuSans-31" x="57.519531"/>
     <use xlink:href="#DejaVuSans-20" x="121.142578"/>
     <use xlink:href="#DejaVuSans-53" x="152.929688"/>
     <use xlink:href="#DejaVuSans-63" x="216.40625"/>
     <use xlink:href="#DejaVuSans-6f" x="271.386719"/>
     <use xlink:href="#DejaVuSans-72" x="332.568359"/>
     <use xlink:href="#DejaVuSans-65" x="371.431641"/>
     <use xlink:href="#DejaVuSans-20" x="432.955078"/>
     <use xlink:href="#DejaVuSans-43" x="464.742188"/>
     <use xlink:href="#DejaVuSans-6f" x="534.566406"/>
     <use xlink:href="#DejaVuSans-6d" x="595.748047"/>
     <use xlink:href="#DejaVuSans-70" x="693.160156"/>
     <use xlink:href="#DejaVuSans-61" x="756.636719"/>
     <use xlink:href="#DejaVuSans-72" x="817.916016"/>
     <use xlink:href="#DejaVuSans-69" x="859.029297"/>
     <use xlink:href="#DejaVuSans-73" x="886.8125"/>
     <use xlink:href="#DejaVuSans-6f" x="938.912109"/>
     <use xlink:href="#DejaVuSans-6e" x="1000.09375"/>
     <use xlink:href="#DejaVuSans-20" x="1063.472656"/>
     <use xlink:href="#DejaVuSans-2d" x="1095.259766"/>
     <use xlink:href="#DejaVuSans-20" x="1131.34375"/>
     <use xlink:href="#DejaVuSans-6d" x="1163.130859"/>
     <use xlink:href="#DejaVuSans-68" x="1260.542969"/>
     <use xlink:href="#DejaVuSans-65" x="1323.921875"/>
     <use xlink:href="#DejaVuSans-61" x="1385.445312"/>
     <use xlink:href="#DejaVuSans-6c" x="1446.724609"/>
     <use xlink:href="#DejaVuSans-74" x="1474.507812"/>
     <use xlink:href="#DejaVuSans-68" x="1513.716797"/>
    </g>
   </g>
   <g id="legend_2">
    <g id="patch_13">
     <path d="M 1053.630625 381.918125 
L 1130.17125 381.918125 
Q 1132.17125 381.918125 1132.17125 379.918125 
L 1132.17125 278.17125 
Q 1132.17125 276.17125 1130.17125 276.17125 
L 1053.630625 276.17125 
Q 1051.630625 276.17125 1051.630625 278.17125 
L 1051.630625 379.918125 
Q 1051.630625 381.918125 1053.630625 381.918125 
z
" style="fill: #ffffff; opacity: 0.8; stroke: #cccccc; stroke-linejoin: miter"/>
    </g>
    <g id="line2d_76">
     <path d="M 1055.630625 284.269687 
L 1065.630625 284.269687 
L 1075.630625 284.269687 
" style="fill: none; stroke: #808080; stroke-width: 2; stroke-linecap: square"/>
    </g>
    <g id="text_41">
     <!-- Single -->
     <g transform="translate(1083.630625 287.769687) scale(0.1 -0.1)">
      <use xlink:href="#DejaVuSans-53"/>
      <use xlink:href="#DejaVuSans-69" x="63.476562"/>
      <use xlink:href="#DejaVuSans-6e" x="91.259766"/>
      <use xlink:href="#DejaVuSans-67" x="154.638672"/>
      <use xlink:href="#DejaVuSans-6c" x="218.115234"/>
      <use xlink:href="#DejaVuSans-65" x="245.898438"/>
     </g>
    </g>
    <g id="line2d_77">
     <path d="M 1055.630625 298.947812 
L 1065.630625 298.947812 
L 1075.630625 298.947812 
" style="fill: none; stroke: #0000ff; stroke-width: 2; stroke-linecap: square"/>
    </g>
    <g id="text_42">
     <!-- FedAvg -->
     <g transform="translate(1083.630625 302.447812) scale(0.1 -0.1)">
      <use xlink:href="#DejaVuSans-46"/>
      <use xlink:href="#DejaVuSans-65" x="52.019531"/>
      <use xlink:href="#DejaVuSans-64" x="113.542969"/>
      <use xlink:href="#DejaVuSans-41" x="177.019531"/>
      <use xlink:href="#DejaVuSans-76" x="239.552734"/>
      <use xlink:href="#DejaVuSans-67" x="298.732422"/>
     </g>
    </g>
    <g id="line2d_78">
     <path d="M 1055.630625 313.625937 
L 1065.630625 313.625937 
L 1075.630625 313.625937 
" style="fill: none; stroke: #00ffff; stroke-width: 2; stroke-linecap: square"/>
    </g>
    <g id="text_43">
     <!-- FedProx -->
     <g transform="translate(1083.630625 317.125937) scale(0.1 -0.1)">
      <use xlink:href="#DejaVuSans-46"/>
      <use xlink:href="#DejaVuSans-65" x="52.019531"/>
      <use xlink:href="#DejaVuSans-64" x="113.542969"/>
      <use xlink:href="#DejaVuSans-50" x="177.019531"/>
      <use xlink:href="#DejaVuSans-72" x="235.572266"/>
      <use xlink:href="#DejaVuSans-6f" x="274.435547"/>
      <use xlink:href="#DejaVuSans-78" x="332.492188"/>
     </g>
    </g>
    <g id="line2d_79">
     <path d="M 1055.630625 328.304062 
L 1065.630625 328.304062 
L 1075.630625 328.304062 
" style="fill: none; stroke: #008000; stroke-width: 2; stroke-linecap: square"/>
    </g>
    <g id="text_44">
     <!-- FedProto -->
     <g transform="translate(1083.630625 331.804062) scale(0.1 -0.1)">
      <use xlink:href="#DejaVuSans-46"/>
      <use xlink:href="#DejaVuSans-65" x="52.019531"/>
      <use xlink:href="#DejaVuSans-64" x="113.542969"/>
      <use xlink:href="#DejaVuSans-50" x="177.019531"/>
      <use xlink:href="#DejaVuSans-72" x="235.572266"/>
      <use xlink:href="#DejaVuSans-6f" x="274.435547"/>
      <use xlink:href="#DejaVuSans-74" x="335.617188"/>
      <use xlink:href="#DejaVuSans-6f" x="374.826172"/>
     </g>
    </g>
    <g id="line2d_80">
     <path d="M 1055.630625 342.982187 
L 1065.630625 342.982187 
L 1075.630625 342.982187 
" style="fill: none; stroke: #ffa500; stroke-width: 2; stroke-linecap: square"/>
    </g>
    <g id="text_45">
     <!-- FedMEKT -->
     <g transform="translate(1083.630625 346.482187) scale(0.1 -0.1)">
      <use xlink:href="#DejaVuSans-46"/>
      <use xlink:href="#DejaVuSans-65" x="52.019531"/>
      <use xlink:href="#DejaVuSans-64" x="113.542969"/>
      <use xlink:href="#DejaVuSans-4d" x="177.019531"/>
      <use xlink:href="#DejaVuSans-45" x="263.298828"/>
      <use xlink:href="#DejaVuSans-4b" x="326.482422"/>
      <use xlink:href="#DejaVuSans-54" x="384.308594"/>
     </g>
    </g>
    <g id="line2d_81">
     <path d="M 1055.630625 357.660312 
L 1065.630625 357.660312 
L 1075.630625 357.660312 
" style="fill: none; stroke: #ff0000; stroke-width: 2; stroke-linecap: square"/>
    </g>
    <g id="text_46">
     <!-- FedProp -->
     <g transform="translate(1083.630625 361.160312) scale(0.1 -0.1)">
      <use xlink:href="#DejaVuSans-46"/>
      <use xlink:href="#DejaVuSans-65" x="52.019531"/>
      <use xlink:href="#DejaVuSans-64" x="113.542969"/>
      <use xlink:href="#DejaVuSans-50" x="177.019531"/>
      <use xlink:href="#DejaVuSans-72" x="235.572266"/>
      <use xlink:href="#DejaVuSans-6f" x="274.435547"/>
      <use xlink:href="#DejaVuSans-70" x="335.617188"/>
     </g>
    </g>
    <g id="line2d_82">
     <path d="M 1055.630625 372.338437 
L 1065.630625 372.338437 
L 1075.630625 372.338437 
" style="fill: none; stroke: #ff00ff; stroke-width: 2; stroke-linecap: square"/>
    </g>
    <g id="text_47">
     <!-- FedDTG -->
     <g transform="translate(1083.630625 375.838437) scale(0.1 -0.1)">
      <use xlink:href="#DejaVuSans-46"/>
      <use xlink:href="#DejaVuSans-65" x="52.019531"/>
      <use xlink:href="#DejaVuSans-64" x="113.542969"/>
      <use xlink:href="#DejaVuSans-44" x="177.019531"/>
      <use xlink:href="#DejaVuSans-54" x="254.021484"/>
      <use xlink:href="#DejaVuSans-47" x="315.105469"/>
     </g>
    </g>
   </g>
  </g>
 </g>
 <defs>
  <clipPath id="p032943e6be">
   <rect x="43.78125" y="22.318125" width="522.79" height="364.6"/>
  </clipPath>
  <clipPath id="p36ed3fa9d7">
   <rect x="614.38125" y="22.318125" width="522.79" height="364.6"/>
  </clipPath>
 </defs>
</svg>
