<?xml version="1.0" encoding="utf-8" standalone="no"?>
<!DOCTYPE svg PUBLIC "-//W3C//DTD SVG 1.1//EN"
  "http://www.w3.org/Graphics/SVG/1.1/DTD/svg11.dtd">
<svg xmlns:xlink="http://www.w3.org/1999/xlink" width="1144.46125pt" height="423.034375pt" viewBox="0 0 1144.46125 423.034375" xmlns="http://www.w3.org/2000/svg" version="1.1">
 <metadata>
  <rdf:RDF xmlns:dc="http://purl.org/dc/elements/1.1/" xmlns:cc="http://creativecommons.org/ns#" xmlns:rdf="http://www.w3.org/1999/02/22-rdf-syntax-ns#">
   <cc:Work>
    <dc:type rdf:resource="http://purl.org/dc/dcmitype/StillImage"/>
    <dc:date>2026-01-06T20:09:25.204414</dc:date>
    <dc:format>image/svg+xml</dc:format>
    <dc:creator>
     <cc:Agent>
      <dc:title>Matplotlib v3.9.4, https://matplotlib.org/</dc:title>
     </cc:Agent>
    </dc:creator>
   </cc:Work>
  </rdf:RDF>
 </metadata>
 <defs>
  <style type="text/css">*{stroke-linejoin: round; stroke-linecap: butt}</style>
 </defs>
 <g id="figure_1">
  <g id="patch_1">
   <path d="M 0 423.034375 
L 1144.46125 423.034375 
L 1144.46125 0 
L 0 0 
z
" style="fill: #ffffff"/>
  </g>
  <g id="axes_1">
   <g id="patch_2">
    <path d="M 43.78125 385.478125 
L 566.66125 385.478125 
L 566.66125 22.318125 
L 43.78125 22.318125 
z
" style="fill: #ffffff"/>
   </g>
   <g id="matplotlib.axis_1">
    <g id="xtick_1">
     <g id="line2d_1">
      <path d="M 62.747053 385.478125 
L 62.747053 22.318125 
" clip-path="url(#p5a0528dff6)" style="fill: none; stroke: #b0b0b0; stroke-opacity: 0.3; stroke-width: 0.8; stroke-linecap: square"/>
     </g>
     <g id="line2d_2">
      <defs>
       <path id="mf5d5697a5c" d="M 0 0 
L 0 3.5 
" style="stroke: #000000; stroke-width: 0.8"/>
      </defs>
      <g>
       <use xlink:href="#mf5d5697a5c" x="62.747053" y="385.478125" style="stroke: #000000; stroke-width: 0.8"/>
      </g>
     </g>
     <g id="text_1">
      <!-- 0 -->
      <g transform="translate(59.565803 400.076562) scale(0.1 -0.1)">
       <defs>
        <path id="DejaVuSans-30" d="M 2034 4250 
Q 1547 4250 1301 3770 
Q 1056 3291 1056 2328 
Q 1056 1369 1301 889 
Q 1547 409 2034 409 
Q 2525 409 2770 889 
Q 3016 1369 3016 2328 
Q 3016 3291 2770 3770 
Q 2525 4250 2034 4250 
z
M 2034 4750 
Q 2819 4750 3233 4129 
Q 3647 3509 3647 2328 
Q 3647 1150 3233 529 
Q 2819 -91 2034 -91 
Q 1250 -91 836 529 
Q 422 1150 422 2328 
Q 422 3509 836 4129 
Q 1250 4750 2034 4750 
z
" transform="scale(0.015625)"/>
       </defs>
       <use xlink:href="#DejaVuSans-30"/>
      </g>
     </g>
    </g>
    <g id="xtick_2">
     <g id="line2d_3">
      <path d="M 158.776438 385.478125 
L 158.776438 22.318125 
" clip-path="url(#p5a0528dff6)" style="fill: none; stroke: #b0b0b0; stroke-opacity: 0.3; stroke-width: 0.8; stroke-linecap: square"/>
     </g>
     <g id="line2d_4">
      <g>
       <use xlink:href="#mf5d5697a5c" x="158.776438" y="385.478125" style="stroke: #000000; stroke-width: 0.8"/>
      </g>
     </g>
     <g id="text_2">
      <!-- 20 -->
      <g transform="translate(152.413938 400.076562) scale(0.1 -0.1)">
       <defs>
        <path id="DejaVuSans-32" d="M 1228 531 
L 3431 531 
L 3431 0 
L 469 0 
L 469 531 
Q 828 903 1448 1529 
Q 2069 2156 2228 2338 
Q 2531 2678 2651 2914 
Q 2772 3150 2772 3378 
Q 2772 3750 2511 3984 
Q 2250 4219 1831 4219 
Q 1534 4219 1204 4116 
Q 875 4013 500 3803 
L 500 4441 
Q 881 4594 1212 4672 
Q 1544 4750 1819 4750 
Q 2544 4750 2975 4387 
Q 3406 4025 3406 3419 
Q 3406 3131 3298 2873 
Q 3191 2616 2906 2266 
Q 2828 2175 2409 1742 
Q 1991 1309 1228 531 
z
" transform="scale(0.015625)"/>
       </defs>
       <use xlink:href="#DejaVuSans-32"/>
       <use xlink:href="#DejaVuSans-30" x="63.623047"/>
      </g>
     </g>
    </g>
    <g id="xtick_3">
     <g id="line2d_5">
      <path d="M 254.805823 385.478125 
L 254.805823 22.318125 
" clip-path="url(#p5a0528dff6)" style="fill: none; stroke: #b0b0b0; stroke-opacity: 0.3; stroke-width: 0.8; stroke-linecap: square"/>
     </g>
     <g id="line2d_6">
      <g>
       <use xlink:href="#mf5d5697a5c" x="254.805823" y="385.478125" style="stroke: #000000; stroke-width: 0.8"/>
      </g>
     </g>
     <g id="text_3">
      <!-- 40 -->
      <g transform="translate(248.443323 400.076562) scale(0.1 -0.1)">
       <defs>
        <path id="DejaVuSans-34" d="M 2419 4116 
L 825 1625 
L 2419 1625 
L 2419 4116 
z
M 2253 4666 
L 3047 4666 
L 3047 1625 
L 3713 1625 
L 3713 1100 
L 3047 1100 
L 3047 0 
L 2419 0 
L 2419 1100 
L 313 1100 
L 313 1709 
L 2253 4666 
z
" transform="scale(0.015625)"/>
       </defs>
       <use xlink:href="#DejaVuSans-34"/>
       <use xlink:href="#DejaVuSans-30" x="63.623047"/>
      </g>
     </g>
    </g>
    <g id="xtick_4">
     <g id="line2d_7">
      <path d="M 350.835208 385.478125 
L 350.835208 22.318125 
" clip-path="url(#p5a0528dff6)" style="fill: none; stroke: #b0b0b0; stroke-opacity: 0.3; stroke-width: 0.8; stroke-linecap: square"/>
     </g>
     <g id="line2d_8">
      <g>
       <use xlink:href="#mf5d5697a5c" x="350.835208" y="385.478125" style="stroke: #000000; stroke-width: 0.8"/>
      </g>
     </g>
     <g id="text_4">
      <!-- 60 -->
      <g transform="translate(344.472708 400.076562) scale(0.1 -0.1)">
       <defs>
        <path id="DejaVuSans-36" d="M 2113 2584 
Q 1688 2584 1439 2293 
Q 1191 2003 1191 1497 
Q 1191 994 1439 701 
Q 1688 409 2113 409 
Q 2538 409 2786 701 
Q 3034 994 3034 1497 
Q 3034 2003 2786 2293 
Q 2538 2584 2113 2584 
z
M 3366 4563 
L 3366 3988 
Q 3128 4100 2886 4159 
Q 2644 4219 2406 4219 
Q 1781 4219 1451 3797 
Q 1122 3375 1075 2522 
Q 1259 2794 1537 2939 
Q 1816 3084 2150 3084 
Q 2853 3084 3261 2657 
Q 3669 2231 3669 1497 
Q 3669 778 3244 343 
Q 2819 -91 2113 -91 
Q 1303 -91 875 529 
Q 447 1150 447 2328 
Q 447 3434 972 4092 
Q 1497 4750 2381 4750 
Q 2619 4750 2861 4703 
Q 3103 4656 3366 4563 
z
" transform="scale(0.015625)"/>
       </defs>
       <use xlink:href="#DejaVuSans-36"/>
       <use xlink:href="#DejaVuSans-30" x="63.623047"/>
      </g>
     </g>
    </g>
    <g id="xtick_5">
     <g id="line2d_9">
      <path d="M 446.864593 385.478125 
L 446.864593 22.318125 
" clip-path="url(#p5a0528dff6)" style="fill: none; stroke: #b0b0b0; stroke-opacity: 0.3; stroke-width: 0.8; stroke-linecap: square"/>
     </g>
     <g id="line2d_10">
      <g>
       <use xlink:href="#mf5d5697a5c" x="446.864593" y="385.478125" style="stroke: #000000; stroke-width: 0.8"/>
      </g>
     </g>
     <g id="text_5">
      <!-- 80 -->
      <g transform="translate(440.502093 400.076562) scale(0.1 -0.1)">
       <defs>
        <path id="DejaVuSans-38" d="M 2034 2216 
Q 1584 2216 1326 1975 
Q 1069 1734 1069 1313 
Q 1069 891 1326 650 
Q 1584 409 2034 409 
Q 2484 409 2743 651 
Q 3003 894 3003 1313 
Q 3003 1734 2745 1975 
Q 2488 2216 2034 2216 
z
M 1403 2484 
Q 997 2584 770 2862 
Q 544 3141 544 3541 
Q 544 4100 942 4425 
Q 1341 4750 2034 4750 
Q 2731 4750 3128 4425 
Q 3525 4100 3525 3541 
Q 3525 3141 3298 2862 
Q 3072 2584 2669 2484 
Q 3125 2378 3379 2068 
Q 3634 1759 3634 1313 
Q 3634 634 3220 271 
Q 2806 -91 2034 -91 
Q 1263 -91 848 271 
Q 434 634 434 1313 
Q 434 1759 690 2068 
Q 947 2378 1403 2484 
z
M 1172 3481 
Q 1172 3119 1398 2916 
Q 1625 2713 2034 2713 
Q 2441 2713 2670 2916 
Q 2900 3119 2900 3481 
Q 2900 3844 2670 4047 
Q 2441 4250 2034 4250 
Q 1625 4250 1398 4047 
Q 1172 3844 1172 3481 
z
" transform="scale(0.015625)"/>
       </defs>
       <use xlink:href="#DejaVuSans-38"/>
       <use xlink:href="#DejaVuSans-30" x="63.623047"/>
      </g>
     </g>
    </g>
    <g id="xtick_6">
     <g id="line2d_11">
      <path d="M 542.893977 385.478125 
L 542.893977 22.318125 
" clip-path="url(#p5a0528dff6)" style="fill: none; stroke: #b0b0b0; stroke-opacity: 0.3; stroke-width: 0.8; stroke-linecap: square"/>
     </g>
     <g id="line2d_12">
      <g>
       <use xlink:href="#mf5d5697a5c" x="542.893977" y="385.478125" style="stroke: #000000; stroke-width: 0.8"/>
      </g>
     </g>
     <g id="text_6">
      <!-- 100 -->
      <g transform="translate(533.350227 400.076562) scale(0.1 -0.1)">
       <defs>
        <path id="DejaVuSans-31" d="M 794 531 
L 1825 531 
L 1825 4091 
L 703 3866 
L 703 4441 
L 1819 4666 
L 2450 4666 
L 2450 531 
L 3481 531 
L 3481 0 
L 794 0 
L 794 531 
z
" transform="scale(0.015625)"/>
       </defs>
       <use xlink:href="#DejaVuSans-31"/>
       <use xlink:href="#DejaVuSans-30" x="63.623047"/>
       <use xlink:href="#DejaVuSans-30" x="127.246094"/>
      </g>
     </g>
    </g>
    <g id="text_7">
     <!-- Communication Rounds -->
     <g transform="translate(245.798594 413.754687) scale(0.1 -0.1)">
      <defs>
       <path id="DejaVuSans-43" d="M 4122 4306 
L 4122 3641 
Q 3803 3938 3442 4084 
Q 3081 4231 2675 4231 
Q 1875 4231 1450 3742 
Q 1025 3253 1025 2328 
Q 1025 1406 1450 917 
Q 1875 428 2675 428 
Q 3081 428 3442 575 
Q 3803 722 4122 1019 
L 4122 359 
Q 3791 134 3420 21 
Q 3050 -91 2638 -91 
Q 1578 -91 968 557 
Q 359 1206 359 2328 
Q 359 3453 968 4101 
Q 1578 4750 2638 4750 
Q 3056 4750 3426 4639 
Q 3797 4528 4122 4306 
z
" transform="scale(0.015625)"/>
       <path id="DejaVuSans-6f" d="M 1959 3097 
Q 1497 3097 1228 2736 
Q 959 2375 959 1747 
Q 959 1119 1226 758 
Q 1494 397 1959 397 
Q 2419 397 2687 759 
Q 2956 1122 2956 1747 
Q 2956 2369 2687 2733 
Q 2419 3097 1959 3097 
z
M 1959 3584 
Q 2709 3584 3137 3096 
Q 3566 2609 3566 1747 
Q 3566 888 3137 398 
Q 2709 -91 1959 -91 
Q 1206 -91 779 398 
Q 353 888 353 1747 
Q 353 2609 779 3096 
Q 1206 3584 1959 3584 
z
" transform="scale(0.015625)"/>
       <path id="DejaVuSans-6d" d="M 3328 2828 
Q 3544 3216 3844 3400 
Q 4144 3584 4550 3584 
Q 5097 3584 5394 3201 
Q 5691 2819 5691 2113 
L 5691 0 
L 5113 0 
L 5113 2094 
Q 5113 2597 4934 2840 
Q 4756 3084 4391 3084 
Q 3944 3084 3684 2787 
Q 3425 2491 3425 1978 
L 3425 0 
L 2847 0 
L 2847 2094 
Q 2847 2600 2669 2842 
Q 2491 3084 2119 3084 
Q 1678 3084 1418 2786 
Q 1159 2488 1159 1978 
L 1159 0 
L 581 0 
L 581 3500 
L 1159 3500 
L 1159 2956 
Q 1356 3278 1631 3431 
Q 1906 3584 2284 3584 
Q 2666 3584 2933 3390 
Q 3200 3197 3328 2828 
z
" transform="scale(0.015625)"/>
       <path id="DejaVuSans-75" d="M 544 1381 
L 544 3500 
L 1119 3500 
L 1119 1403 
Q 1119 906 1312 657 
Q 1506 409 1894 409 
Q 2359 409 2629 706 
Q 2900 1003 2900 1516 
L 2900 3500 
L 3475 3500 
L 3475 0 
L 2900 0 
L 2900 538 
Q 2691 219 2414 64 
Q 2138 -91 1772 -91 
Q 1169 -91 856 284 
Q 544 659 544 1381 
z
M 1991 3584 
L 1991 3584 
z
" transform="scale(0.015625)"/>
       <path id="DejaVuSans-6e" d="M 3513 2113 
L 3513 0 
L 2938 0 
L 2938 2094 
Q 2938 2591 2744 2837 
Q 2550 3084 2163 3084 
Q 1697 3084 1428 2787 
Q 1159 2491 1159 1978 
L 1159 0 
L 581 0 
L 581 3500 
L 1159 3500 
L 1159 2956 
Q 1366 3272 1645 3428 
Q 1925 3584 2291 3584 
Q 2894 3584 3203 3211 
Q 3513 2838 3513 2113 
z
" transform="scale(0.015625)"/>
       <path id="DejaVuSans-69" d="M 603 3500 
L 1178 3500 
L 1178 0 
L 603 0 
L 603 3500 
z
M 603 4863 
L 1178 4863 
L 1178 4134 
L 603 4134 
L 603 4863 
z
" transform="scale(0.015625)"/>
       <path id="DejaVuSans-63" d="M 3122 3366 
L 3122 2828 
Q 2878 2963 2633 3030 
Q 2388 3097 2138 3097 
Q 1578 3097 1268 2742 
Q 959 2388 959 1747 
Q 959 1106 1268 751 
Q 1578 397 2138 397 
Q 2388 397 2633 464 
Q 2878 531 3122 666 
L 3122 134 
Q 2881 22 2623 -34 
Q 2366 -91 2075 -91 
Q 1284 -91 818 406 
Q 353 903 353 1747 
Q 353 2603 823 3093 
Q 1294 3584 2113 3584 
Q 2378 3584 2631 3529 
Q 2884 3475 3122 3366 
z
" transform="scale(0.015625)"/>
       <path id="DejaVuSans-61" d="M 2194 1759 
Q 1497 1759 1228 1600 
Q 959 1441 959 1056 
Q 959 750 1161 570 
Q 1363 391 1709 391 
Q 2188 391 2477 730 
Q 2766 1069 2766 1631 
L 2766 1759 
L 2194 1759 
z
M 3341 1997 
L 3341 0 
L 2766 0 
L 2766 531 
Q 2569 213 2275 61 
Q 1981 -91 1556 -91 
Q 1019 -91 701 211 
Q 384 513 384 1019 
Q 384 1609 779 1909 
Q 1175 2209 1959 2209 
L 2766 2209 
L 2766 2266 
Q 2766 2663 2505 2880 
Q 2244 3097 1772 3097 
Q 1472 3097 1187 3025 
Q 903 2953 641 2809 
L 641 3341 
Q 956 3463 1253 3523 
Q 1550 3584 1831 3584 
Q 2591 3584 2966 3190 
Q 3341 2797 3341 1997 
z
" transform="scale(0.015625)"/>
       <path id="DejaVuSans-74" d="M 1172 4494 
L 1172 3500 
L 2356 3500 
L 2356 3053 
L 1172 3053 
L 1172 1153 
Q 1172 725 1289 603 
Q 1406 481 1766 481 
L 2356 481 
L 2356 0 
L 1766 0 
Q 1100 0 847 248 
Q 594 497 594 1153 
L 594 3053 
L 172 3053 
L 172 3500 
L 594 3500 
L 594 4494 
L 1172 4494 
z
" transform="scale(0.015625)"/>
       <path id="DejaVuSans-20" transform="scale(0.015625)"/>
       <path id="DejaVuSans-52" d="M 2841 2188 
Q 3044 2119 3236 1894 
Q 3428 1669 3622 1275 
L 4263 0 
L 3584 0 
L 2988 1197 
Q 2756 1666 2539 1819 
Q 2322 1972 1947 1972 
L 1259 1972 
L 1259 0 
L 628 0 
L 628 4666 
L 2053 4666 
Q 2853 4666 3247 4331 
Q 3641 3997 3641 3322 
Q 3641 2881 3436 2590 
Q 3231 2300 2841 2188 
z
M 1259 4147 
L 1259 2491 
L 2053 2491 
Q 2509 2491 2742 2702 
Q 2975 2913 2975 3322 
Q 2975 3731 2742 3939 
Q 2509 4147 2053 4147 
L 1259 4147 
z
" transform="scale(0.015625)"/>
       <path id="DejaVuSans-64" d="M 2906 2969 
L 2906 4863 
L 3481 4863 
L 3481 0 
L 2906 0 
L 2906 525 
Q 2725 213 2448 61 
Q 2172 -91 1784 -91 
Q 1150 -91 751 415 
Q 353 922 353 1747 
Q 353 2572 751 3078 
Q 1150 3584 1784 3584 
Q 2172 3584 2448 3432 
Q 2725 3281 2906 2969 
z
M 947 1747 
Q 947 1113 1208 752 
Q 1469 391 1925 391 
Q 2381 391 2643 752 
Q 2906 1113 2906 1747 
Q 2906 2381 2643 2742 
Q 2381 3103 1925 3103 
Q 1469 3103 1208 2742 
Q 947 2381 947 1747 
z
" transform="scale(0.015625)"/>
       <path id="DejaVuSans-73" d="M 2834 3397 
L 2834 2853 
Q 2591 2978 2328 3040 
Q 2066 3103 1784 3103 
Q 1356 3103 1142 2972 
Q 928 2841 928 2578 
Q 928 2378 1081 2264 
Q 1234 2150 1697 2047 
L 1894 2003 
Q 2506 1872 2764 1633 
Q 3022 1394 3022 966 
Q 3022 478 2636 193 
Q 2250 -91 1575 -91 
Q 1294 -91 989 -36 
Q 684 19 347 128 
L 347 722 
Q 666 556 975 473 
Q 1284 391 1588 391 
Q 1994 391 2212 530 
Q 2431 669 2431 922 
Q 2431 1156 2273 1281 
Q 2116 1406 1581 1522 
L 1381 1569 
Q 847 1681 609 1914 
Q 372 2147 372 2553 
Q 372 3047 722 3315 
Q 1072 3584 1716 3584 
Q 2034 3584 2315 3537 
Q 2597 3491 2834 3397 
z
" transform="scale(0.015625)"/>
      </defs>
      <use xlink:href="#DejaVuSans-43"/>
      <use xlink:href="#DejaVuSans-6f" x="69.824219"/>
      <use xlink:href="#DejaVuSans-6d" x="131.005859"/>
      <use xlink:href="#DejaVuSans-6d" x="228.417969"/>
      <use xlink:href="#DejaVuSans-75" x="325.830078"/>
      <use xlink:href="#DejaVuSans-6e" x="389.208984"/>
      <use xlink:href="#DejaVuSans-69" x="452.587891"/>
      <use xlink:href="#DejaVuSans-63" x="480.371094"/>
      <use xlink:href="#DejaVuSans-61" x="535.351562"/>
      <use xlink:href="#DejaVuSans-74" x="596.630859"/>
      <use xlink:href="#DejaVuSans-69" x="635.839844"/>
      <use xlink:href="#DejaVuSans-6f" x="663.623047"/>
      <use xlink:href="#DejaVuSans-6e" x="724.804688"/>
      <use xlink:href="#DejaVuSans-20" x="788.183594"/>
      <use xlink:href="#DejaVuSans-52" x="819.970703"/>
      <use xlink:href="#DejaVuSans-6f" x="884.953125"/>
      <use xlink:href="#DejaVuSans-75" x="946.134766"/>
      <use xlink:href="#DejaVuSans-6e" x="1009.513672"/>
      <use xlink:href="#DejaVuSans-64" x="1072.892578"/>
      <use xlink:href="#DejaVuSans-73" x="1136.369141"/>
     </g>
    </g>
   </g>
   <g id="matplotlib.axis_2">
    <g id="ytick_1">
     <g id="line2d_13">
      <path d="M 43.78125 378.518218 
L 566.66125 378.518218 
" clip-path="url(#p5a0528dff6)" style="fill: none; stroke: #b0b0b0; stroke-opacity: 0.3; stroke-width: 0.8; stroke-linecap: square"/>
     </g>
     <g id="line2d_14">
      <defs>
       <path id="m0aab962b99" d="M 0 0 
L -3.5 0 
" style="stroke: #000000; stroke-width: 0.8"/>
      </defs>
      <g>
       <use xlink:href="#m0aab962b99" x="43.78125" y="378.518218" style="stroke: #000000; stroke-width: 0.8"/>
      </g>
     </g>
     <g id="text_8">
      <!-- 0.0 -->
      <g transform="translate(20.878125 382.317437) scale(0.1 -0.1)">
       <defs>
        <path id="DejaVuSans-2e" d="M 684 794 
L 1344 794 
L 1344 0 
L 684 0 
L 684 794 
z
" transform="scale(0.015625)"/>
       </defs>
       <use xlink:href="#DejaVuSans-30"/>
       <use xlink:href="#DejaVuSans-2e" x="63.623047"/>
       <use xlink:href="#DejaVuSans-30" x="95.410156"/>
      </g>
     </g>
    </g>
    <g id="ytick_2">
     <g id="line2d_15">
      <path d="M 43.78125 329.52545 
L 566.66125 329.52545 
" clip-path="url(#p5a0528dff6)" style="fill: none; stroke: #b0b0b0; stroke-opacity: 0.3; stroke-width: 0.8; stroke-linecap: square"/>
     </g>
     <g id="line2d_16">
      <g>
       <use xlink:href="#m0aab962b99" x="43.78125" y="329.52545" style="stroke: #000000; stroke-width: 0.8"/>
      </g>
     </g>
     <g id="text_9">
      <!-- 0.1 -->
      <g transform="translate(20.878125 333.324669) scale(0.1 -0.1)">
       <use xlink:href="#DejaVuSans-30"/>
       <use xlink:href="#DejaVuSans-2e" x="63.623047"/>
       <use xlink:href="#DejaVuSans-31" x="95.410156"/>
      </g>
     </g>
    </g>
    <g id="ytick_3">
     <g id="line2d_17">
      <path d="M 43.78125 280.532683 
L 566.66125 280.532683 
" clip-path="url(#p5a0528dff6)" style="fill: none; stroke: #b0b0b0; stroke-opacity: 0.3; stroke-width: 0.8; stroke-linecap: square"/>
     </g>
     <g id="line2d_18">
      <g>
       <use xlink:href="#m0aab962b99" x="43.78125" y="280.532683" style="stroke: #000000; stroke-width: 0.8"/>
      </g>
     </g>
     <g id="text_10">
      <!-- 0.2 -->
      <g transform="translate(20.878125 284.331902) scale(0.1 -0.1)">
       <use xlink:href="#DejaVuSans-30"/>
       <use xlink:href="#DejaVuSans-2e" x="63.623047"/>
       <use xlink:href="#DejaVuSans-32" x="95.410156"/>
      </g>
     </g>
    </g>
    <g id="ytick_4">
     <g id="line2d_19">
      <path d="M 43.78125 231.539916 
L 566.66125 231.539916 
" clip-path="url(#p5a0528dff6)" style="fill: none; stroke: #b0b0b0; stroke-opacity: 0.3; stroke-width: 0.8; stroke-linecap: square"/>
     </g>
     <g id="line2d_20">
      <g>
       <use xlink:href="#m0aab962b99" x="43.78125" y="231.539916" style="stroke: #000000; stroke-width: 0.8"/>
      </g>
     </g>
     <g id="text_11">
      <!-- 0.3 -->
      <g transform="translate(20.878125 235.339134) scale(0.1 -0.1)">
       <defs>
        <path id="DejaVuSans-33" d="M 2597 2516 
Q 3050 2419 3304 2112 
Q 3559 1806 3559 1356 
Q 3559 666 3084 287 
Q 2609 -91 1734 -91 
Q 1441 -91 1130 -33 
Q 819 25 488 141 
L 488 750 
Q 750 597 1062 519 
Q 1375 441 1716 441 
Q 2309 441 2620 675 
Q 2931 909 2931 1356 
Q 2931 1769 2642 2001 
Q 2353 2234 1838 2234 
L 1294 2234 
L 1294 2753 
L 1863 2753 
Q 2328 2753 2575 2939 
Q 2822 3125 2822 3475 
Q 2822 3834 2567 4026 
Q 2313 4219 1838 4219 
Q 1578 4219 1281 4162 
Q 984 4106 628 3988 
L 628 4550 
Q 988 4650 1302 4700 
Q 1616 4750 1894 4750 
Q 2613 4750 3031 4423 
Q 3450 4097 3450 3541 
Q 3450 3153 3228 2886 
Q 3006 2619 2597 2516 
z
" transform="scale(0.015625)"/>
       </defs>
       <use xlink:href="#DejaVuSans-30"/>
       <use xlink:href="#DejaVuSans-2e" x="63.623047"/>
       <use xlink:href="#DejaVuSans-33" x="95.410156"/>
      </g>
     </g>
    </g>
    <g id="ytick_5">
     <g id="line2d_21">
      <path d="M 43.78125 182.547148 
L 566.66125 182.547148 
" clip-path="url(#p5a0528dff6)" style="fill: none; stroke: #b0b0b0; stroke-opacity: 0.3; stroke-width: 0.8; stroke-linecap: square"/>
     </g>
     <g id="line2d_22">
      <g>
       <use xlink:href="#m0aab962b99" x="43.78125" y="182.547148" style="stroke: #000000; stroke-width: 0.8"/>
      </g>
     </g>
     <g id="text_12">
      <!-- 0.4 -->
      <g transform="translate(20.878125 186.346367) scale(0.1 -0.1)">
       <use xlink:href="#DejaVuSans-30"/>
       <use xlink:href="#DejaVuSans-2e" x="63.623047"/>
       <use xlink:href="#DejaVuSans-34" x="95.410156"/>
      </g>
     </g>
    </g>
    <g id="ytick_6">
     <g id="line2d_23">
      <path d="M 43.78125 133.554381 
L 566.66125 133.554381 
" clip-path="url(#p5a0528dff6)" style="fill: none; stroke: #b0b0b0; stroke-opacity: 0.3; stroke-width: 0.8; stroke-linecap: square"/>
     </g>
     <g id="line2d_24">
      <g>
       <use xlink:href="#m0aab962b99" x="43.78125" y="133.554381" style="stroke: #000000; stroke-width: 0.8"/>
      </g>
     </g>
     <g id="text_13">
      <!-- 0.5 -->
      <g transform="translate(20.878125 137.353599) scale(0.1 -0.1)">
       <defs>
        <path id="DejaVuSans-35" d="M 691 4666 
L 3169 4666 
L 3169 4134 
L 1269 4134 
L 1269 2991 
Q 1406 3038 1543 3061 
Q 1681 3084 1819 3084 
Q 2600 3084 3056 2656 
Q 3513 2228 3513 1497 
Q 3513 744 3044 326 
Q 2575 -91 1722 -91 
Q 1428 -91 1123 -41 
Q 819 9 494 109 
L 494 744 
Q 775 591 1075 516 
Q 1375 441 1709 441 
Q 2250 441 2565 725 
Q 2881 1009 2881 1497 
Q 2881 1984 2565 2268 
Q 2250 2553 1709 2553 
Q 1456 2553 1204 2497 
Q 953 2441 691 2322 
L 691 4666 
z
" transform="scale(0.015625)"/>
       </defs>
       <use xlink:href="#DejaVuSans-30"/>
       <use xlink:href="#DejaVuSans-2e" x="63.623047"/>
       <use xlink:href="#DejaVuSans-35" x="95.410156"/>
      </g>
     </g>
    </g>
    <g id="ytick_7">
     <g id="line2d_25">
      <path d="M 43.78125 84.561613 
L 566.66125 84.561613 
" clip-path="url(#p5a0528dff6)" style="fill: none; stroke: #b0b0b0; stroke-opacity: 0.3; stroke-width: 0.8; stroke-linecap: square"/>
     </g>
     <g id="line2d_26">
      <g>
       <use xlink:href="#m0aab962b99" x="43.78125" y="84.561613" style="stroke: #000000; stroke-width: 0.8"/>
      </g>
     </g>
     <g id="text_14">
      <!-- 0.6 -->
      <g transform="translate(20.878125 88.360832) scale(0.1 -0.1)">
       <use xlink:href="#DejaVuSans-30"/>
       <use xlink:href="#DejaVuSans-2e" x="63.623047"/>
       <use xlink:href="#DejaVuSans-36" x="95.410156"/>
      </g>
     </g>
    </g>
    <g id="ytick_8">
     <g id="line2d_27">
      <path d="M 43.78125 35.568846 
L 566.66125 35.568846 
" clip-path="url(#p5a0528dff6)" style="fill: none; stroke: #b0b0b0; stroke-opacity: 0.3; stroke-width: 0.8; stroke-linecap: square"/>
     </g>
     <g id="line2d_28">
      <g>
       <use xlink:href="#m0aab962b99" x="43.78125" y="35.568846" style="stroke: #000000; stroke-width: 0.8"/>
      </g>
     </g>
     <g id="text_15">
      <!-- 0.7 -->
      <g transform="translate(20.878125 39.368065) scale(0.1 -0.1)">
       <defs>
        <path id="DejaVuSans-37" d="M 525 4666 
L 3525 4666 
L 3525 4397 
L 1831 0 
L 1172 0 
L 2766 4134 
L 525 4134 
L 525 4666 
z
" transform="scale(0.015625)"/>
       </defs>
       <use xlink:href="#DejaVuSans-30"/>
       <use xlink:href="#DejaVuSans-2e" x="63.623047"/>
       <use xlink:href="#DejaVuSans-37" x="95.410156"/>
      </g>
     </g>
    </g>
    <g id="text_16">
     <!-- Global Accuracy -->
     <g transform="translate(14.798438 244.265312) rotate(-90) scale(0.1 -0.1)">
      <defs>
       <path id="DejaVuSans-47" d="M 3809 666 
L 3809 1919 
L 2778 1919 
L 2778 2438 
L 4434 2438 
L 4434 434 
Q 4069 175 3628 42 
Q 3188 -91 2688 -91 
Q 1594 -91 976 548 
Q 359 1188 359 2328 
Q 359 3472 976 4111 
Q 1594 4750 2688 4750 
Q 3144 4750 3555 4637 
Q 3966 4525 4313 4306 
L 4313 3634 
Q 3963 3931 3569 4081 
Q 3175 4231 2741 4231 
Q 1884 4231 1454 3753 
Q 1025 3275 1025 2328 
Q 1025 1384 1454 906 
Q 1884 428 2741 428 
Q 3075 428 3337 486 
Q 3600 544 3809 666 
z
" transform="scale(0.015625)"/>
       <path id="DejaVuSans-6c" d="M 603 4863 
L 1178 4863 
L 1178 0 
L 603 0 
L 603 4863 
z
" transform="scale(0.015625)"/>
       <path id="DejaVuSans-62" d="M 3116 1747 
Q 3116 2381 2855 2742 
Q 2594 3103 2138 3103 
Q 1681 3103 1420 2742 
Q 1159 2381 1159 1747 
Q 1159 1113 1420 752 
Q 1681 391 2138 391 
Q 2594 391 2855 752 
Q 3116 1113 3116 1747 
z
M 1159 2969 
Q 1341 3281 1617 3432 
Q 1894 3584 2278 3584 
Q 2916 3584 3314 3078 
Q 3713 2572 3713 1747 
Q 3713 922 3314 415 
Q 2916 -91 2278 -91 
Q 1894 -91 1617 61 
Q 1341 213 1159 525 
L 1159 0 
L 581 0 
L 581 4863 
L 1159 4863 
L 1159 2969 
z
" transform="scale(0.015625)"/>
       <path id="DejaVuSans-41" d="M 2188 4044 
L 1331 1722 
L 3047 1722 
L 2188 4044 
z
M 1831 4666 
L 2547 4666 
L 4325 0 
L 3669 0 
L 3244 1197 
L 1141 1197 
L 716 0 
L 50 0 
L 1831 4666 
z
" transform="scale(0.015625)"/>
       <path id="DejaVuSans-72" d="M 2631 2963 
Q 2534 3019 2420 3045 
Q 2306 3072 2169 3072 
Q 1681 3072 1420 2755 
Q 1159 2438 1159 1844 
L 1159 0 
L 581 0 
L 581 3500 
L 1159 3500 
L 1159 2956 
Q 1341 3275 1631 3429 
Q 1922 3584 2338 3584 
Q 2397 3584 2469 3576 
Q 2541 3569 2628 3553 
L 2631 2963 
z
" transform="scale(0.015625)"/>
       <path id="DejaVuSans-79" d="M 2059 -325 
Q 1816 -950 1584 -1140 
Q 1353 -1331 966 -1331 
L 506 -1331 
L 506 -850 
L 844 -850 
Q 1081 -850 1212 -737 
Q 1344 -625 1503 -206 
L 1606 56 
L 191 3500 
L 800 3500 
L 1894 763 
L 2988 3500 
L 3597 3500 
L 2059 -325 
z
" transform="scale(0.015625)"/>
      </defs>
      <use xlink:href="#DejaVuSans-47"/>
      <use xlink:href="#DejaVuSans-6c" x="77.490234"/>
      <use xlink:href="#DejaVuSans-6f" x="105.273438"/>
      <use xlink:href="#DejaVuSans-62" x="166.455078"/>
      <use xlink:href="#DejaVuSans-61" x="229.931641"/>
      <use xlink:href="#DejaVuSans-6c" x="291.210938"/>
      <use xlink:href="#DejaVuSans-20" x="318.994141"/>
      <use xlink:href="#DejaVuSans-41" x="350.78125"/>
      <use xlink:href="#DejaVuSans-63" x="417.439453"/>
      <use xlink:href="#DejaVuSans-63" x="472.419922"/>
      <use xlink:href="#DejaVuSans-75" x="527.400391"/>
      <use xlink:href="#DejaVuSans-72" x="590.779297"/>
      <use xlink:href="#DejaVuSans-61" x="631.892578"/>
      <use xlink:href="#DejaVuSans-63" x="693.171875"/>
      <use xlink:href="#DejaVuSans-79" x="748.152344"/>
     </g>
    </g>
   </g>
   <g id="line2d_29">
    <path d="M 67.548523 368.970852 
L 72.349992 360.49048 
L 77.151461 346.477304 
L 81.95293 329.307606 
L 86.7544 303.868712 
L 91.555869 281.312922 
L 96.357338 259.904149 
L 101.158807 246.911285 
L 105.960277 232.320154 
L 110.761746 219.507345 
L 115.563215 204.725045 
L 120.364684 191.825542 
L 125.166154 179.435085 
L 129.967623 170.247829 
L 134.769092 160.70491 
L 139.570561 153.789461 
L 144.372031 147.489755 
L 149.1735 142.279272 
L 153.974969 137.013217 
L 158.776438 130.893567 
L 163.577907 126.098766 
L 168.379377 125.176262 
L 173.180846 124.209299 
L 177.982315 122.573243 
L 182.783784 121.117242 
L 187.585254 119.276679 
L 192.386723 116.349117 
L 197.188192 111.420942 
L 201.989661 107.590881 
L 206.791131 104.398794 
L 211.5926 101.360086 
L 216.394069 98.196896 
L 221.195538 95.440497 
L 225.997008 91.703798 
L 230.798477 87.902635 
L 235.599946 86.426628 
L 240.401415 85.24849 
L 245.202885 84.399341 
L 250.004354 82.534326 
L 254.805823 80.753782 
L 259.607292 78.528656 
L 264.408761 76.15682 
L 269.210231 74.771951 
L 274.0117 73.478222 
L 278.813169 72.640188 
L 283.614638 71.348682 
L 288.416108 69.948253 
L 293.217577 69.328064 
L 298.019046 70.057176 
L 302.820515 71.235314 
L 307.621985 71.366465 
L 312.423454 70.970788 
L 317.224923 69.670391 
L 322.026392 68.887929 
L 326.827862 67.705345 
L 331.629331 66.638352 
L 336.4308 65.953698 
L 341.232269 65.297942 
L 346.033739 64.86003 
L 350.835208 64.448793 
L 355.636677 63.635211 
L 360.438146 63.404029 
L 365.239615 63.257317 
L 370.041085 62.81496 
L 374.842554 61.916907 
L 379.644023 60.572051 
L 384.445492 59.478383 
L 389.246962 58.644795 
L 394.048431 57.571133 
L 398.8499 56.786449 
L 403.651369 56.475242 
L 408.452839 56.441899 
L 413.254308 56.306302 
L 418.055777 56.132915 
L 422.857246 56.2285 
L 427.658716 55.73057 
L 432.460185 54.821403 
L 437.261654 53.950025 
L 442.063123 53.20313 
L 446.864593 52.578494 
L 451.666062 52.216161 
L 456.467531 52.040552 
L 461.269 51.864943 
L 466.070469 51.889395 
L 470.871939 52.03166 
L 475.673408 51.991648 
L 480.474877 51.451483 
L 485.276346 50.886866 
L 490.077816 50.297797 
L 494.879285 49.459762 
L 499.680754 49.079646 
L 504.482223 48.786223 
L 509.283693 48.252727 
L 514.085162 47.85705 
L 518.886631 47.603639 
L 523.6881 47.230191 
L 528.48957 46.810063 
L 533.291039 46.361037 
L 538.092508 45.918679 
L 542.893977 45.625256 
" clip-path="url(#p5a0528dff6)" style="fill: none; stroke: #808080; stroke-width: 2; stroke-linecap: square"/>
   </g>
   <g id="line2d_30">
    <path d="M 67.548523 358.947786 
L 72.349992 355.997994 
L 77.151461 353.279385 
L 81.95293 344.189937 
L 86.7544 356.173604 
L 91.555869 355.191081 
L 96.357338 346.061621 
L 101.158807 333.302161 
L 105.960277 322.098734 
L 110.761746 318.453174 
L 115.563215 304.024315 
L 120.364684 293.963459 
L 125.166154 288.190581 
L 129.967623 276.004631 
L 134.769092 255.15603 
L 139.570561 248.236135 
L 144.372031 236.837092 
L 149.1735 218.200279 
L 153.974969 206.616735 
L 158.776438 203.042308 
L 163.577907 168.004921 
L 168.379377 172.175086 
L 173.180846 144.964538 
L 177.982315 139.536211 
L 182.783784 140.207527 
L 187.585254 134.87923 
L 192.386723 130.540125 
L 197.188192 131.453738 
L 201.989661 128.188294 
L 206.791131 119.438951 
L 211.5926 110.596245 
L 216.394069 115.777831 
L 221.195538 93.984496 
L 225.997008 91.939426 
L 230.798477 92.12615 
L 235.599946 94.344606 
L 240.401415 88.024895 
L 245.202885 84.165937 
L 250.004354 83.143402 
L 254.805823 77.975154 
L 259.607292 79.875735 
L 264.408761 79.771259 
L 269.210231 74.86309 
L 274.0117 75.878957 
L 278.813169 78.510873 
L 283.614638 71.886624 
L 288.416108 66.547213 
L 293.217577 64.906711 
L 298.019046 61.187795 
L 302.820515 61.009963 
L 307.621985 62.377048 
L 312.423454 66.033722 
L 317.224923 68.816796 
L 322.026392 64.973398 
L 326.827862 63.484053 
L 331.629331 68.085461 
L 336.4308 66.569442 
L 341.232269 64.642185 
L 346.033739 62.477079 
L 350.835208 59.778475 
L 355.636677 59.525064 
L 360.438146 59.111604 
L 365.239615 56.715316 
L 370.041085 58.095738 
L 374.842554 55.792811 
L 379.644023 51.544845 
L 384.445492 52.662965 
L 389.246962 56.639737 
L 394.048431 55.168176 
L 398.8499 49.048526 
L 403.651369 50.151085 
L 408.452839 49.141887 
L 413.254308 49.995482 
L 418.055777 48.737319 
L 422.857246 47.574741 
L 427.658716 48.839573 
L 432.460185 49.326388 
L 437.261654 49.481992 
L 442.063123 46.834515 
L 446.864593 46.323247 
L 451.666062 46.492188 
L 456.467531 47.839267 
L 461.269 46.583327 
L 466.070469 45.687497 
L 470.871939 44.856132 
L 475.673408 45.478544 
L 480.474877 44.938379 
L 485.276346 44.509359 
L 490.077816 45.445201 
L 494.879285 45.676383 
L 499.680754 44.407105 
L 504.482223 44.222605 
L 509.283693 44.447118 
L 514.085162 45.780859 
L 518.886631 46.647791 
L 523.6881 45.663045 
L 528.48957 44.422666 
L 533.291039 44.453786 
L 538.092508 44.633842 
L 542.893977 44.315966 
" clip-path="url(#p5a0528dff6)" style="fill: none; stroke: #0000ff; stroke-width: 2; stroke-linecap: square"/>
   </g>
   <g id="line2d_31">
    <path d="M 67.548523 358.947786 
L 72.349992 355.997994 
L 77.151461 353.279385 
L 81.95293 344.189937 
L 86.7544 356.173604 
L 91.555869 355.191081 
L 96.357338 346.061621 
L 101.158807 333.302161 
L 105.960277 322.098734 
L 110.761746 318.453174 
L 115.563215 304.024315 
L 120.364684 293.963459 
L 125.166154 288.190581 
L 129.967623 276.004631 
L 134.769092 255.15603 
L 139.570561 248.236135 
L 144.372031 236.837092 
L 149.1735 218.200279 
L 153.974969 206.616735 
L 158.776438 203.042308 
L 163.577907 168.004921 
L 168.379377 172.175086 
L 173.180846 144.964538 
L 177.982315 139.536211 
L 182.783784 140.207527 
L 187.585254 134.87923 
L 192.386723 130.540125 
L 197.188192 131.453738 
L 201.989661 128.188294 
L 206.791131 119.438951 
L 211.5926 110.596245 
L 216.394069 115.777831 
L 221.195538 93.984496 
L 225.997008 91.939426 
L 230.798477 92.12615 
L 235.599946 94.344606 
L 240.401415 88.024895 
L 245.202885 84.165937 
L 250.004354 83.143402 
L 254.805823 77.975154 
L 259.607292 79.875735 
L 264.408761 79.771259 
L 269.210231 74.86309 
L 274.0117 75.878957 
L 278.813169 78.510873 
L 283.614638 71.886624 
L 288.416108 66.547213 
L 293.217577 64.906711 
L 298.019046 61.187795 
L 302.820515 61.009963 
L 307.621985 62.377048 
L 312.423454 66.033722 
L 317.224923 68.816796 
L 322.026392 64.973398 
L 326.827862 63.484053 
L 331.629331 68.085461 
L 336.4308 66.569442 
L 341.232269 64.642185 
L 346.033739 62.477079 
L 350.835208 59.778475 
L 355.636677 59.525064 
L 360.438146 59.111604 
L 365.239615 56.715316 
L 370.041085 58.095738 
L 374.842554 55.792811 
L 379.644023 51.544845 
L 384.445492 52.662965 
L 389.246962 56.639737 
L 394.048431 55.168176 
L 398.8499 49.048526 
L 403.651369 50.151085 
L 408.452839 49.141887 
L 413.254308 49.995482 
L 418.055777 48.737319 
L 422.857246 47.574741 
L 427.658716 48.839573 
L 432.460185 49.326388 
L 437.261654 49.481992 
L 442.063123 46.834515 
L 446.864593 46.323247 
L 451.666062 46.492188 
L 456.467531 47.839267 
L 461.269 46.583327 
L 466.070469 45.687497 
L 470.871939 44.856132 
L 475.673408 45.478544 
L 480.474877 44.938379 
L 485.276346 44.509359 
L 490.077816 45.445201 
L 494.879285 45.676383 
L 499.680754 44.407105 
L 504.482223 44.222605 
L 509.283693 44.447118 
L 514.085162 45.780859 
L 518.886631 46.647791 
L 523.6881 45.663045 
L 528.48957 44.422666 
L 533.291039 44.453786 
L 538.092508 44.633842 
L 542.893977 44.315966 
" clip-path="url(#p5a0528dff6)" style="fill: none; stroke: #00ffff; stroke-width: 2; stroke-linecap: square"/>
   </g>
   <g id="line2d_32">
    <path d="M 67.548523 348.822466 
L 72.349992 335.980759 
L 77.151461 320.387099 
L 81.95293 297.691266 
L 86.7544 276.691508 
L 91.555869 250.750237 
L 96.357338 232.351275 
L 101.158807 219.742973 
L 105.960277 202.926717 
L 110.761746 184.650014 
L 115.563215 172.68413 
L 120.364684 163.603574 
L 125.166154 154.40965 
L 129.967623 145.008996 
L 134.769092 139.756278 
L 139.570561 133.358765 
L 144.372031 127.659244 
L 149.1735 123.353482 
L 153.974969 119.754603 
L 158.776438 117.129355 
L 163.577907 116.486937 
L 168.379377 116.38246 
L 173.180846 114.392963 
L 177.982315 111.796613 
L 182.783784 109.12913 
L 187.585254 106.152664 
L 192.386723 102.164777 
L 197.188192 97.034318 
L 201.989661 92.155048 
L 206.791131 87.440272 
L 211.5926 81.978601 
L 216.394069 78.395282 
L 221.195538 75.77448 
L 225.997008 71.230868 
L 230.798477 65.742522 
L 235.599946 64.508811 
L 240.401415 63.870838 
L 245.202885 63.719681 
L 250.004354 63.270655 
L 254.805823 62.817183 
L 259.607292 62.061396 
L 264.408761 61.438983 
L 269.210231 60.009657 
L 274.0117 58.689253 
L 278.813169 56.768665 
L 283.614638 54.710258 
L 288.416108 53.016406 
L 293.217577 52.329529 
L 298.019046 51.487049 
L 302.820515 51.082481 
L 307.621985 51.549291 
L 312.423454 52.527368 
L 317.224923 53.283155 
L 322.026392 53.883338 
L 326.827862 53.778862 
L 331.629331 54.13008 
L 336.4308 54.270123 
L 341.232269 53.743295 
L 346.033739 52.722983 
L 350.835208 51.738237 
L 355.636677 51.055806 
L 360.438146 50.24667 
L 365.239615 49.399744 
L 370.041085 48.999622 
L 374.842554 48.468348 
L 379.644023 47.728122 
L 384.445492 46.9301 
L 389.246962 46.209879 
L 394.048431 45.52078 
L 398.8499 45.198459 
L 403.651369 44.476015 
L 408.452839 43.595746 
L 413.254308 42.839959 
L 418.055777 42.268673 
L 422.857246 41.908563 
L 427.658716 41.503995 
L 432.460185 41.235024 
L 437.261654 41.097204 
L 442.063123 41.003842 
L 446.864593 40.921595 
L 451.666062 40.799335 
L 456.467531 40.683744 
L 461.269 40.579268 
L 466.070469 40.416996 
L 470.871939 40.319188 
L 475.673408 40.214712 
L 480.474877 40.110235 
L 485.276346 40.032434 
L 490.077816 39.919066 
L 494.879285 39.810143 
L 499.680754 39.732342 
L 504.482223 39.641203 
L 509.283693 39.572293 
L 514.085162 39.492268 
L 518.886631 39.450033 
L 523.6881 39.427804 
L 528.48957 39.396684 
L 533.291039 39.372232 
L 538.092508 39.356671 
L 542.893977 39.321105 
" clip-path="url(#p5a0528dff6)" style="fill: none; stroke: #008000; stroke-width: 2; stroke-linecap: square"/>
   </g>
   <g id="line2d_33">
    <path d="M 67.548523 349.378191 
L 72.349992 336.952167 
L 77.151461 319.960302 
L 81.95293 297.582344 
L 86.7544 270.438483 
L 91.555869 251.537145 
L 96.357338 237.543975 
L 101.158807 222.717216 
L 105.960277 209.510953 
L 110.761746 194.457459 
L 115.563215 181.509053 
L 120.364684 171.886108 
L 125.166154 166.757873 
L 129.967623 160.273667 
L 134.769092 154.105113 
L 139.570561 150.101666 
L 144.372031 146.296057 
L 149.1735 143.181771 
L 153.974969 139.216113 
L 158.776438 136.430816 
L 163.577907 133.738882 
L 168.379377 130.253371 
L 173.180846 125.185153 
L 177.982315 120.832711 
L 182.783784 116.066808 
L 187.585254 109.755988 
L 192.386723 103.698579 
L 197.188192 97.510019 
L 201.989661 92.855262 
L 206.791131 89.216371 
L 211.5926 85.155128 
L 216.394069 81.460664 
L 221.195538 77.935141 
L 225.997008 74.920886 
L 230.798477 73.42265 
L 235.599946 71.588755 
L 240.401415 70.510648 
L 245.202885 68.863477 
L 250.004354 67.098493 
L 254.805823 64.657746 
L 259.607292 62.732712 
L 264.408761 61.414531 
L 269.210231 60.585389 
L 274.0117 60.520925 
L 278.813169 60.412002 
L 283.614638 59.576191 
L 288.416108 58.415836 
L 293.217577 57.108769 
L 298.019046 55.988427 
L 302.820515 54.83474 
L 307.621985 53.25648 
L 312.423454 51.958305 
L 317.224923 50.43784 
L 322.026392 49.373069 
L 326.827862 48.4928 
L 331.629331 47.279095 
L 336.4308 46.496634 
L 341.232269 45.60525 
L 346.033739 44.507136 
L 350.835208 43.860272 
L 355.636677 43.411245 
L 360.438146 43.086702 
L 365.239615 42.655458 
L 370.041085 42.141968 
L 374.842554 41.661821 
L 379.644023 41.343946 
L 384.445492 40.952715 
L 389.246962 40.730425 
L 394.048431 40.563707 
L 398.8499 40.401435 
L 403.651369 40.199151 
L 408.452839 40.070223 
L 413.254308 39.912397 
L 418.055777 39.803475 
L 422.857246 39.747902 
L 427.658716 39.705667 
L 432.460185 39.678992 
L 437.261654 39.663432 
L 442.063123 39.645649 
L 446.864593 39.645649 
L 451.666062 39.645649 
L 456.467531 39.643426 
L 461.269 39.62342 
L 466.070469 39.550064 
L 470.871939 39.490046 
L 475.673408 39.438919 
L 480.474877 39.392238 
L 485.276346 39.327774 
L 490.077816 39.30999 
L 494.879285 39.285539 
L 499.680754 39.29443 
L 504.482223 39.29443 
L 509.283693 39.283316 
L 514.085162 39.24108 
L 518.886631 39.218851 
L 523.6881 39.221074 
L 528.48957 39.207737 
L 533.291039 39.192177 
L 538.092508 39.189954 
L 542.893977 39.183285 
" clip-path="url(#p5a0528dff6)" style="fill: none; stroke: #ffa500; stroke-width: 2; stroke-linecap: square"/>
   </g>
   <g id="line2d_34">
    <path d="M 67.548523 349.04031 
L 72.349992 326.171091 
L 77.151461 310.490738 
L 81.95293 313.118208 
L 86.7544 325.019627 
L 91.555869 333.800092 
L 96.357338 344.565608 
L 101.158807 358.236457 
L 105.960277 360.78168 
L 110.761746 359.901411 
L 115.563215 356.427014 
L 120.364684 349.900573 
L 125.166154 337.774641 
L 129.967623 333.628928 
L 134.769092 322.28768 
L 139.570561 299.551835 
L 144.372031 271.48547 
L 149.1735 223.779763 
L 153.974969 179.275036 
L 158.776438 125.94094 
L 163.577907 97.241048 
L 168.379377 65.773643 
L 173.180846 49.582022 
L 177.982315 41.695165 
L 182.783784 40.803781 
L 187.585254 40.541478 
L 192.386723 39.4856 
L 197.188192 38.845404 
L 201.989661 38.834289 
L 206.791131 38.825398 
L 211.5926 38.825398 
L 216.394069 38.825398 
L 221.195538 38.825398 
L 225.997008 38.825398 
L 230.798477 38.825398 
L 235.599946 38.825398 
L 240.401415 38.825398 
L 245.202885 38.825398 
L 250.004354 38.825398 
L 254.805823 38.825398 
L 259.607292 38.825398 
L 264.408761 38.825398 
L 269.210231 38.825398 
L 274.0117 38.825398 
L 278.813169 38.825398 
L 283.614638 38.825398 
L 288.416108 38.825398 
L 293.217577 38.825398 
L 298.019046 38.825398 
L 302.820515 38.825398 
L 307.621985 38.825398 
L 312.423454 38.825398 
L 317.224923 38.825398 
L 322.026392 38.825398 
L 326.827862 38.825398 
L 331.629331 38.825398 
L 336.4308 38.825398 
L 341.232269 38.825398 
L 346.033739 38.825398 
L 350.835208 38.825398 
L 355.636677 38.825398 
L 360.438146 38.825398 
L 365.239615 38.825398 
L 370.041085 38.825398 
L 374.842554 38.825398 
L 379.644023 38.825398 
L 384.445492 38.825398 
L 389.246962 38.825398 
L 394.048431 38.825398 
L 398.8499 38.825398 
L 403.651369 38.825398 
L 408.452839 38.825398 
L 413.254308 38.825398 
L 418.055777 38.825398 
L 422.857246 38.825398 
L 427.658716 38.825398 
L 432.460185 38.825398 
L 437.261654 38.825398 
L 442.063123 38.825398 
L 446.864593 38.825398 
L 451.666062 38.825398 
L 456.467531 38.825398 
L 461.269 38.825398 
L 466.070469 38.825398 
L 470.871939 38.825398 
L 475.673408 38.825398 
L 480.474877 38.825398 
L 485.276346 38.825398 
L 490.077816 38.825398 
L 494.879285 38.825398 
L 499.680754 38.825398 
L 504.482223 38.825398 
L 509.283693 38.825398 
L 514.085162 38.825398 
L 518.886631 38.825398 
L 523.6881 38.825398 
L 528.48957 38.825398 
L 533.291039 38.825398 
L 538.092508 38.825398 
L 542.893977 38.825398 
" clip-path="url(#p5a0528dff6)" style="fill: none; stroke: #ff0000; stroke-width: 2; stroke-linecap: square"/>
   </g>
   <g id="line2d_35">
    <path d="M 67.548523 361.573033 
L 72.349992 360.334877 
L 77.151461 357.778539 
L 81.95293 360.263744 
L 86.7544 363.111282 
L 91.555869 362.368832 
L 96.357338 360.561613 
L 101.158807 357.831889 
L 105.960277 356.175826 
L 110.761746 355.09105 
L 115.563215 351.718907 
L 120.364684 347.759918 
L 125.166154 344.296636 
L 129.967623 341.297941 
L 134.769092 336.074121 
L 139.570561 337.118885 
L 144.372031 331.050361 
L 149.1735 326.902426 
L 153.974969 312.253499 
L 158.776438 301.981468 
L 163.577907 298.733807 
L 168.379377 289.633245 
L 173.180846 280.25482 
L 177.982315 272.485776 
L 182.783784 268.782421 
L 187.585254 263.627511 
L 192.386723 251.586049 
L 197.188192 239.417881 
L 201.989661 236.167998 
L 206.791131 229.170302 
L 211.5926 219.249489 
L 216.394069 212.718601 
L 221.195538 191.963362 
L 225.997008 188.540093 
L 230.798477 175.115986 
L 235.599946 168.213874 
L 240.401415 162.323183 
L 245.202885 153.584954 
L 250.004354 151.084188 
L 254.805823 136.324117 
L 259.607292 127.841522 
L 264.408761 125.485245 
L 269.210231 114.721952 
L 274.0117 104.934513 
L 278.813169 106.105983 
L 283.614638 109.409216 
L 288.416108 106.266032 
L 293.217577 102.633809 
L 298.019046 104.665542 
L 302.820515 96.869823 
L 307.621985 89.014087 
L 312.423454 90.932451 
L 317.224923 89.612047 
L 322.026392 82.587676 
L 326.827862 80.844921 
L 331.629331 78.653139 
L 336.4308 77.057095 
L 341.232269 74.494089 
L 346.033739 73.59159 
L 350.835208 72.175601 
L 355.636677 76.968179 
L 360.438146 81.056096 
L 365.239615 72.413452 
L 370.041085 76.579171 
L 374.842554 73.404866 
L 379.644023 68.363324 
L 384.445492 74.316256 
L 389.246962 74.945338 
L 394.048431 68.638964 
L 398.8499 79.982434 
L 403.651369 70.281689 
L 408.452839 64.606619 
L 413.254308 64.028664 
L 418.055777 63.375131 
L 422.857246 66.616123 
L 427.658716 64.464353 
L 432.460185 60.354207 
L 437.261654 61.861335 
L 442.063123 56.957612 
L 446.864593 56.717539 
L 451.666062 55.737239 
L 456.467531 53.661048 
L 461.269 51.044692 
L 466.070469 48.655072 
L 470.871939 50.326694 
L 475.673408 53.807759 
L 480.474877 50.513418 
L 485.276346 52.380656 
L 490.077816 50.275568 
L 494.879285 50.59122 
L 499.680754 52.791893 
L 504.482223 47.485825 
L 509.283693 50.662353 
L 514.085162 49.221912 
L 518.886631 48.074894 
L 523.6881 49.499775 
L 528.48957 47.105709 
L 533.291039 49.241918 
L 538.092508 46.80784 
L 542.893977 48.139359 
" clip-path="url(#p5a0528dff6)" style="fill: none; stroke: #ff00ff; stroke-width: 2; stroke-linecap: square"/>
   </g>
   <g id="patch_3">
    <path d="M 43.78125 385.478125 
L 43.78125 22.318125 
" style="fill: none; stroke: #000000; stroke-width: 0.8; stroke-linejoin: miter; stroke-linecap: square"/>
   </g>
   <g id="patch_4">
    <path d="M 566.66125 385.478125 
L 566.66125 22.318125 
" style="fill: none; stroke: #000000; stroke-width: 0.8; stroke-linejoin: miter; stroke-linecap: square"/>
   </g>
   <g id="patch_5">
    <path d="M 43.78125 385.478125 
L 566.66125 385.478125 
" style="fill: none; stroke: #000000; stroke-width: 0.8; stroke-linejoin: miter; stroke-linecap: square"/>
   </g>
   <g id="patch_6">
    <path d="M 43.78125 22.318125 
L 566.66125 22.318125 
" style="fill: none; stroke: #000000; stroke-width: 0.8; stroke-linejoin: miter; stroke-linecap: square"/>
   </g>
   <g id="text_17">
    <!-- Accuracy Comparison - mhealth -->
    <g transform="translate(209.180937 16.318125) scale(0.12 -0.12)">
     <defs>
      <path id="DejaVuSans-70" d="M 1159 525 
L 1159 -1331 
L 581 -1331 
L 581 3500 
L 1159 3500 
L 1159 2969 
Q 1341 3281 1617 3432 
Q 1894 3584 2278 3584 
Q 2916 3584 3314 3078 
Q 3713 2572 3713 1747 
Q 3713 922 3314 415 
Q 2916 -91 2278 -91 
Q 1894 -91 1617 61 
Q 1341 213 1159 525 
z
M 3116 1747 
Q 3116 2381 2855 2742 
Q 2594 3103 2138 3103 
Q 1681 3103 1420 2742 
Q 1159 2381 1159 1747 
Q 1159 1113 1420 752 
Q 1681 391 2138 391 
Q 2594 391 2855 752 
Q 3116 1113 3116 1747 
z
" transform="scale(0.015625)"/>
      <path id="DejaVuSans-2d" d="M 313 2009 
L 1997 2009 
L 1997 1497 
L 313 1497 
L 313 2009 
z
" transform="scale(0.015625)"/>
      <path id="DejaVuSans-68" d="M 3513 2113 
L 3513 0 
L 2938 0 
L 2938 2094 
Q 2938 2591 2744 2837 
Q 2550 3084 2163 3084 
Q 1697 3084 1428 2787 
Q 1159 2491 1159 1978 
L 1159 0 
L 581 0 
L 581 4863 
L 1159 4863 
L 1159 2956 
Q 1366 3272 1645 3428 
Q 1925 3584 2291 3584 
Q 2894 3584 3203 3211 
Q 3513 2838 3513 2113 
z
" transform="scale(0.015625)"/>
      <path id="DejaVuSans-65" d="M 3597 1894 
L 3597 1613 
L 953 1613 
Q 991 1019 1311 708 
Q 1631 397 2203 397 
Q 2534 397 2845 478 
Q 3156 559 3463 722 
L 3463 178 
Q 3153 47 2828 -22 
Q 2503 -91 2169 -91 
Q 1331 -91 842 396 
Q 353 884 353 1716 
Q 353 2575 817 3079 
Q 1281 3584 2069 3584 
Q 2775 3584 3186 3129 
Q 3597 2675 3597 1894 
z
M 3022 2063 
Q 3016 2534 2758 2815 
Q 2500 3097 2075 3097 
Q 1594 3097 1305 2825 
Q 1016 2553 972 2059 
L 3022 2063 
z
" transform="scale(0.015625)"/>
     </defs>
     <use xlink:href="#DejaVuSans-41"/>
     <use xlink:href="#DejaVuSans-63" x="66.658203"/>
     <use xlink:href="#DejaVuSans-63" x="121.638672"/>
     <use xlink:href="#DejaVuSans-75" x="176.619141"/>
     <use xlink:href="#DejaVuSans-72" x="239.998047"/>
     <use xlink:href="#DejaVuSans-61" x="281.111328"/>
     <use xlink:href="#DejaVuSans-63" x="342.390625"/>
     <use xlink:href="#DejaVuSans-79" x="397.371094"/>
     <use xlink:href="#DejaVuSans-20" x="456.550781"/>
     <use xlink:href="#DejaVuSans-43" x="488.337891"/>
     <use xlink:href="#DejaVuSans-6f" x="558.162109"/>
     <use xlink:href="#DejaVuSans-6d" x="619.34375"/>
     <use xlink:href="#DejaVuSans-70" x="716.755859"/>
     <use xlink:href="#DejaVuSans-61" x="780.232422"/>
     <use xlink:href="#DejaVuSans-72" x="841.511719"/>
     <use xlink:href="#DejaVuSans-69" x="882.625"/>
     <use xlink:href="#DejaVuSans-73" x="910.408203"/>
     <use xlink:href="#DejaVuSans-6f" x="962.507812"/>
     <use xlink:href="#DejaVuSans-6e" x="1023.689453"/>
     <use xlink:href="#DejaVuSans-20" x="1087.068359"/>
     <use xlink:href="#DejaVuSans-2d" x="1118.855469"/>
     <use xlink:href="#DejaVuSans-20" x="1154.939453"/>
     <use xlink:href="#DejaVuSans-6d" x="1186.726562"/>
     <use xlink:href="#DejaVuSans-68" x="1284.138672"/>
     <use xlink:href="#DejaVuSans-65" x="1347.517578"/>
     <use xlink:href="#DejaVuSans-61" x="1409.041016"/>
     <use xlink:href="#DejaVuSans-6c" x="1470.320312"/>
     <use xlink:href="#DejaVuSans-74" x="1498.103516"/>
     <use xlink:href="#DejaVuSans-68" x="1537.3125"/>
    </g>
   </g>
   <g id="legend_1">
    <g id="patch_7">
     <path d="M 50.78125 133.065 
L 127.321875 133.065 
Q 129.321875 133.065 129.321875 131.065 
L 129.321875 29.318125 
Q 129.321875 27.318125 127.321875 27.318125 
L 50.78125 27.318125 
Q 48.78125 27.318125 48.78125 29.318125 
L 48.78125 131.065 
Q 48.78125 133.065 50.78125 133.065 
z
" style="fill: #ffffff; opacity: 0.8; stroke: #cccccc; stroke-linejoin: miter"/>
    </g>
    <g id="line2d_36">
     <path d="M 52.78125 35.416562 
L 62.78125 35.416562 
L 72.78125 35.416562 
" style="fill: none; stroke: #808080; stroke-width: 2; stroke-linecap: square"/>
    </g>
    <g id="text_18">
     <!-- Single -->
     <g transform="translate(80.78125 38.916562) scale(0.1 -0.1)">
      <defs>
       <path id="DejaVuSans-53" d="M 3425 4513 
L 3425 3897 
Q 3066 4069 2747 4153 
Q 2428 4238 2131 4238 
Q 1616 4238 1336 4038 
Q 1056 3838 1056 3469 
Q 1056 3159 1242 3001 
Q 1428 2844 1947 2747 
L 2328 2669 
Q 3034 2534 3370 2195 
Q 3706 1856 3706 1288 
Q 3706 609 3251 259 
Q 2797 -91 1919 -91 
Q 1588 -91 1214 -16 
Q 841 59 441 206 
L 441 856 
Q 825 641 1194 531 
Q 1563 422 1919 422 
Q 2459 422 2753 634 
Q 3047 847 3047 1241 
Q 3047 1584 2836 1778 
Q 2625 1972 2144 2069 
L 1759 2144 
Q 1053 2284 737 2584 
Q 422 2884 422 3419 
Q 422 4038 858 4394 
Q 1294 4750 2059 4750 
Q 2388 4750 2728 4690 
Q 3069 4631 3425 4513 
z
" transform="scale(0.015625)"/>
       <path id="DejaVuSans-67" d="M 2906 1791 
Q 2906 2416 2648 2759 
Q 2391 3103 1925 3103 
Q 1463 3103 1205 2759 
Q 947 2416 947 1791 
Q 947 1169 1205 825 
Q 1463 481 1925 481 
Q 2391 481 2648 825 
Q 2906 1169 2906 1791 
z
M 3481 434 
Q 3481 -459 3084 -895 
Q 2688 -1331 1869 -1331 
Q 1566 -1331 1297 -1286 
Q 1028 -1241 775 -1147 
L 775 -588 
Q 1028 -725 1275 -790 
Q 1522 -856 1778 -856 
Q 2344 -856 2625 -561 
Q 2906 -266 2906 331 
L 2906 616 
Q 2728 306 2450 153 
Q 2172 0 1784 0 
Q 1141 0 747 490 
Q 353 981 353 1791 
Q 353 2603 747 3093 
Q 1141 3584 1784 3584 
Q 2172 3584 2450 3431 
Q 2728 3278 2906 2969 
L 2906 3500 
L 3481 3500 
L 3481 434 
z
" transform="scale(0.015625)"/>
      </defs>
      <use xlink:href="#DejaVuSans-53"/>
      <use xlink:href="#DejaVuSans-69" x="63.476562"/>
      <use xlink:href="#DejaVuSans-6e" x="91.259766"/>
      <use xlink:href="#DejaVuSans-67" x="154.638672"/>
      <use xlink:href="#DejaVuSans-6c" x="218.115234"/>
      <use xlink:href="#DejaVuSans-65" x="245.898438"/>
     </g>
    </g>
    <g id="line2d_37">
     <path d="M 52.78125 50.094687 
L 62.78125 50.094687 
L 72.78125 50.094687 
" style="fill: none; stroke: #0000ff; stroke-width: 2; stroke-linecap: square"/>
    </g>
    <g id="text_19">
     <!-- FedAvg -->
     <g transform="translate(80.78125 53.594687) scale(0.1 -0.1)">
      <defs>
       <path id="DejaVuSans-46" d="M 628 4666 
L 3309 4666 
L 3309 4134 
L 1259 4134 
L 1259 2759 
L 3109 2759 
L 3109 2228 
L 1259 2228 
L 1259 0 
L 628 0 
L 628 4666 
z
" transform="scale(0.015625)"/>
       <path id="DejaVuSans-76" d="M 191 3500 
L 800 3500 
L 1894 563 
L 2988 3500 
L 3597 3500 
L 2284 0 
L 1503 0 
L 191 3500 
z
" transform="scale(0.015625)"/>
      </defs>
      <use xlink:href="#DejaVuSans-46"/>
      <use xlink:href="#DejaVuSans-65" x="52.019531"/>
      <use xlink:href="#DejaVuSans-64" x="113.542969"/>
      <use xlink:href="#DejaVuSans-41" x="177.019531"/>
      <use xlink:href="#DejaVuSans-76" x="239.552734"/>
      <use xlink:href="#DejaVuSans-67" x="298.732422"/>
     </g>
    </g>
    <g id="line2d_38">
     <path d="M 52.78125 64.772812 
L 62.78125 64.772812 
L 72.78125 64.772812 
" style="fill: none; stroke: #00ffff; stroke-width: 2; stroke-linecap: square"/>
    </g>
    <g id="text_20">
     <!-- FedProx -->
     <g transform="translate(80.78125 68.272812) scale(0.1 -0.1)">
      <defs>
       <path id="DejaVuSans-50" d="M 1259 4147 
L 1259 2394 
L 2053 2394 
Q 2494 2394 2734 2622 
Q 2975 2850 2975 3272 
Q 2975 3691 2734 3919 
Q 2494 4147 2053 4147 
L 1259 4147 
z
M 628 4666 
L 2053 4666 
Q 2838 4666 3239 4311 
Q 3641 3956 3641 3272 
Q 3641 2581 3239 2228 
Q 2838 1875 2053 1875 
L 1259 1875 
L 1259 0 
L 628 0 
L 628 4666 
z
" transform="scale(0.015625)"/>
       <path id="DejaVuSans-78" d="M 3513 3500 
L 2247 1797 
L 3578 0 
L 2900 0 
L 1881 1375 
L 863 0 
L 184 0 
L 1544 1831 
L 300 3500 
L 978 3500 
L 1906 2253 
L 2834 3500 
L 3513 3500 
z
" transform="scale(0.015625)"/>
      </defs>
      <use xlink:href="#DejaVuSans-46"/>
      <use xlink:href="#DejaVuSans-65" x="52.019531"/>
      <use xlink:href="#DejaVuSans-64" x="113.542969"/>
      <use xlink:href="#DejaVuSans-50" x="177.019531"/>
      <use xlink:href="#DejaVuSans-72" x="235.572266"/>
      <use xlink:href="#DejaVuSans-6f" x="274.435547"/>
      <use xlink:href="#DejaVuSans-78" x="332.492188"/>
     </g>
    </g>
    <g id="line2d_39">
     <path d="M 52.78125 79.450937 
L 62.78125 79.450937 
L 72.78125 79.450937 
" style="fill: none; stroke: #008000; stroke-width: 2; stroke-linecap: square"/>
    </g>
    <g id="text_21">
     <!-- FedProto -->
     <g transform="translate(80.78125 82.950937) scale(0.1 -0.1)">
      <use xlink:href="#DejaVuSans-46"/>
      <use xlink:href="#DejaVuSans-65" x="52.019531"/>
      <use xlink:href="#DejaVuSans-64" x="113.542969"/>
      <use xlink:href="#DejaVuSans-50" x="177.019531"/>
      <use xlink:href="#DejaVuSans-72" x="235.572266"/>
      <use xlink:href="#DejaVuSans-6f" x="274.435547"/>
      <use xlink:href="#DejaVuSans-74" x="335.617188"/>
      <use xlink:href="#DejaVuSans-6f" x="374.826172"/>
     </g>
    </g>
    <g id="line2d_40">
     <path d="M 52.78125 94.129062 
L 62.78125 94.129062 
L 72.78125 94.129062 
" style="fill: none; stroke: #ffa500; stroke-width: 2; stroke-linecap: square"/>
    </g>
    <g id="text_22">
     <!-- FedMEKT -->
     <g transform="translate(80.78125 97.629062) scale(0.1 -0.1)">
      <defs>
       <path id="DejaVuSans-4d" d="M 628 4666 
L 1569 4666 
L 2759 1491 
L 3956 4666 
L 4897 4666 
L 4897 0 
L 4281 0 
L 4281 4097 
L 3078 897 
L 2444 897 
L 1241 4097 
L 1241 0 
L 628 0 
L 628 4666 
z
" transform="scale(0.015625)"/>
       <path id="DejaVuSans-45" d="M 628 4666 
L 3578 4666 
L 3578 4134 
L 1259 4134 
L 1259 2753 
L 3481 2753 
L 3481 2222 
L 1259 2222 
L 1259 531 
L 3634 531 
L 3634 0 
L 628 0 
L 628 4666 
z
" transform="scale(0.015625)"/>
       <path id="DejaVuSans-4b" d="M 628 4666 
L 1259 4666 
L 1259 2694 
L 3353 4666 
L 4166 4666 
L 1850 2491 
L 4331 0 
L 3500 0 
L 1259 2247 
L 1259 0 
L 628 0 
L 628 4666 
z
" transform="scale(0.015625)"/>
       <path id="DejaVuSans-54" d="M -19 4666 
L 3928 4666 
L 3928 4134 
L 2272 4134 
L 2272 0 
L 1638 0 
L 1638 4134 
L -19 4134 
L -19 4666 
z
" transform="scale(0.015625)"/>
      </defs>
      <use xlink:href="#DejaVuSans-46"/>
      <use xlink:href="#DejaVuSans-65" x="52.019531"/>
      <use xlink:href="#DejaVuSans-64" x="113.542969"/>
      <use xlink:href="#DejaVuSans-4d" x="177.019531"/>
      <use xlink:href="#DejaVuSans-45" x="263.298828"/>
      <use xlink:href="#DejaVuSans-4b" x="326.482422"/>
      <use xlink:href="#DejaVuSans-54" x="384.308594"/>
     </g>
    </g>
    <g id="line2d_41">
     <path d="M 52.78125 108.807187 
L 62.78125 108.807187 
L 72.78125 108.807187 
" style="fill: none; stroke: #ff0000; stroke-width: 2; stroke-linecap: square"/>
    </g>
    <g id="text_23">
     <!-- FedProp -->
     <g transform="translate(80.78125 112.307187) scale(0.1 -0.1)">
      <use xlink:href="#DejaVuSans-46"/>
      <use xlink:href="#DejaVuSans-65" x="52.019531"/>
      <use xlink:href="#DejaVuSans-64" x="113.542969"/>
      <use xlink:href="#DejaVuSans-50" x="177.019531"/>
      <use xlink:href="#DejaVuSans-72" x="235.572266"/>
      <use xlink:href="#DejaVuSans-6f" x="274.435547"/>
      <use xlink:href="#DejaVuSans-70" x="335.617188"/>
     </g>
    </g>
    <g id="line2d_42">
     <path d="M 52.78125 123.485312 
L 62.78125 123.485312 
L 72.78125 123.485312 
" style="fill: none; stroke: #ff00ff; stroke-width: 2; stroke-linecap: square"/>
    </g>
    <g id="text_24">
     <!-- FedDTG -->
     <g transform="translate(80.78125 126.985312) scale(0.1 -0.1)">
      <defs>
       <path id="DejaVuSans-44" d="M 1259 4147 
L 1259 519 
L 2022 519 
Q 2988 519 3436 956 
Q 3884 1394 3884 2338 
Q 3884 3275 3436 3711 
Q 2988 4147 2022 4147 
L 1259 4147 
z
M 628 4666 
L 1925 4666 
Q 3281 4666 3915 4102 
Q 4550 3538 4550 2338 
Q 4550 1131 3912 565 
Q 3275 0 1925 0 
L 628 0 
L 628 4666 
z
" transform="scale(0.015625)"/>
      </defs>
      <use xlink:href="#DejaVuSans-46"/>
      <use xlink:href="#DejaVuSans-65" x="52.019531"/>
      <use xlink:href="#DejaVuSans-64" x="113.542969"/>
      <use xlink:href="#DejaVuSans-44" x="177.019531"/>
      <use xlink:href="#DejaVuSans-54" x="254.021484"/>
      <use xlink:href="#DejaVuSans-47" x="315.105469"/>
     </g>
    </g>
   </g>
  </g>
  <g id="axes_2">
   <g id="patch_8">
    <path d="M 614.38125 385.478125 
L 1137.26125 385.478125 
L 1137.26125 22.318125 
L 614.38125 22.318125 
z
" style="fill: #ffffff"/>
   </g>
   <g id="matplotlib.axis_3">
    <g id="xtick_7">
     <g id="line2d_43">
      <path d="M 633.347053 385.478125 
L 633.347053 22.318125 
" clip-path="url(#p073235d01c)" style="fill: none; stroke: #b0b0b0; stroke-opacity: 0.3; stroke-width: 0.8; stroke-linecap: square"/>
     </g>
     <g id="line2d_44">
      <g>
       <use xlink:href="#mf5d5697a5c" x="633.347053" y="385.478125" style="stroke: #000000; stroke-width: 0.8"/>
      </g>
     </g>
     <g id="text_25">
      <!-- 0 -->
      <g transform="translate(630.165803 400.076562) scale(0.1 -0.1)">
       <use xlink:href="#DejaVuSans-30"/>
      </g>
     </g>
    </g>
    <g id="xtick_8">
     <g id="line2d_45">
      <path d="M 729.376438 385.478125 
L 729.376438 22.318125 
" clip-path="url(#p073235d01c)" style="fill: none; stroke: #b0b0b0; stroke-opacity: 0.3; stroke-width: 0.8; stroke-linecap: square"/>
     </g>
     <g id="line2d_46">
      <g>
       <use xlink:href="#mf5d5697a5c" x="729.376438" y="385.478125" style="stroke: #000000; stroke-width: 0.8"/>
      </g>
     </g>
     <g id="text_26">
      <!-- 20 -->
      <g transform="translate(723.013938 400.076562) scale(0.1 -0.1)">
       <use xlink:href="#DejaVuSans-32"/>
       <use xlink:href="#DejaVuSans-30" x="63.623047"/>
      </g>
     </g>
    </g>
    <g id="xtick_9">
     <g id="line2d_47">
      <path d="M 825.405823 385.478125 
L 825.405823 22.318125 
" clip-path="url(#p073235d01c)" style="fill: none; stroke: #b0b0b0; stroke-opacity: 0.3; stroke-width: 0.8; stroke-linecap: square"/>
     </g>
     <g id="line2d_48">
      <g>
       <use xlink:href="#mf5d5697a5c" x="825.405823" y="385.478125" style="stroke: #000000; stroke-width: 0.8"/>
      </g>
     </g>
     <g id="text_27">
      <!-- 40 -->
      <g transform="translate(819.043323 400.076562) scale(0.1 -0.1)">
       <use xlink:href="#DejaVuSans-34"/>
       <use xlink:href="#DejaVuSans-30" x="63.623047"/>
      </g>
     </g>
    </g>
    <g id="xtick_10">
     <g id="line2d_49">
      <path d="M 921.435208 385.478125 
L 921.435208 22.318125 
" clip-path="url(#p073235d01c)" style="fill: none; stroke: #b0b0b0; stroke-opacity: 0.3; stroke-width: 0.8; stroke-linecap: square"/>
     </g>
     <g id="line2d_50">
      <g>
       <use xlink:href="#mf5d5697a5c" x="921.435208" y="385.478125" style="stroke: #000000; stroke-width: 0.8"/>
      </g>
     </g>
     <g id="text_28">
      <!-- 60 -->
      <g transform="translate(915.072708 400.076562) scale(0.1 -0.1)">
       <use xlink:href="#DejaVuSans-36"/>
       <use xlink:href="#DejaVuSans-30" x="63.623047"/>
      </g>
     </g>
    </g>
    <g id="xtick_11">
     <g id="line2d_51">
      <path d="M 1017.464593 385.478125 
L 1017.464593 22.318125 
" clip-path="url(#p073235d01c)" style="fill: none; stroke: #b0b0b0; stroke-opacity: 0.3; stroke-width: 0.8; stroke-linecap: square"/>
     </g>
     <g id="line2d_52">
      <g>
       <use xlink:href="#mf5d5697a5c" x="1017.464593" y="385.478125" style="stroke: #000000; stroke-width: 0.8"/>
      </g>
     </g>
     <g id="text_29">
      <!-- 80 -->
      <g transform="translate(1011.102093 400.076562) scale(0.1 -0.1)">
       <use xlink:href="#DejaVuSans-38"/>
       <use xlink:href="#DejaVuSans-30" x="63.623047"/>
      </g>
     </g>
    </g>
    <g id="xtick_12">
     <g id="line2d_53">
      <path d="M 1113.493977 385.478125 
L 1113.493977 22.318125 
" clip-path="url(#p073235d01c)" style="fill: none; stroke: #b0b0b0; stroke-opacity: 0.3; stroke-width: 0.8; stroke-linecap: square"/>
     </g>
     <g id="line2d_54">
      <g>
       <use xlink:href="#mf5d5697a5c" x="1113.493977" y="385.478125" style="stroke: #000000; stroke-width: 0.8"/>
      </g>
     </g>
     <g id="text_30">
      <!-- 100 -->
      <g transform="translate(1103.950227 400.076562) scale(0.1 -0.1)">
       <use xlink:href="#DejaVuSans-31"/>
       <use xlink:href="#DejaVuSans-30" x="63.623047"/>
       <use xlink:href="#DejaVuSans-30" x="127.246094"/>
      </g>
     </g>
    </g>
    <g id="text_31">
     <!-- Communication Rounds -->
     <g transform="translate(816.398594 413.754687) scale(0.1 -0.1)">
      <use xlink:href="#DejaVuSans-43"/>
      <use xlink:href="#DejaVuSans-6f" x="69.824219"/>
      <use xlink:href="#DejaVuSans-6d" x="131.005859"/>
      <use xlink:href="#DejaVuSans-6d" x="228.417969"/>
      <use xlink:href="#DejaVuSans-75" x="325.830078"/>
      <use xlink:href="#DejaVuSans-6e" x="389.208984"/>
      <use xlink:href="#DejaVuSans-69" x="452.587891"/>
      <use xlink:href="#DejaVuSans-63" x="480.371094"/>
      <use xlink:href="#DejaVuSans-61" x="535.351562"/>
      <use xlink:href="#DejaVuSans-74" x="596.630859"/>
      <use xlink:href="#DejaVuSans-69" x="635.839844"/>
      <use xlink:href="#DejaVuSans-6f" x="663.623047"/>
      <use xlink:href="#DejaVuSans-6e" x="724.804688"/>
      <use xlink:href="#DejaVuSans-20" x="788.183594"/>
      <use xlink:href="#DejaVuSans-52" x="819.970703"/>
      <use xlink:href="#DejaVuSans-6f" x="884.953125"/>
      <use xlink:href="#DejaVuSans-75" x="946.134766"/>
      <use xlink:href="#DejaVuSans-6e" x="1009.513672"/>
      <use xlink:href="#DejaVuSans-64" x="1072.892578"/>
      <use xlink:href="#DejaVuSans-73" x="1136.369141"/>
     </g>
    </g>
   </g>
   <g id="matplotlib.axis_4">
    <g id="ytick_9">
     <g id="line2d_55">
      <path d="M 614.38125 381.055848 
L 1137.26125 381.055848 
" clip-path="url(#p073235d01c)" style="fill: none; stroke: #b0b0b0; stroke-opacity: 0.3; stroke-width: 0.8; stroke-linecap: square"/>
     </g>
     <g id="line2d_56">
      <g>
       <use xlink:href="#m0aab962b99" x="614.38125" y="381.055848" style="stroke: #000000; stroke-width: 0.8"/>
      </g>
     </g>
     <g id="text_32">
      <!-- 0.0 -->
      <g transform="translate(591.478125 384.855067) scale(0.1 -0.1)">
       <use xlink:href="#DejaVuSans-30"/>
       <use xlink:href="#DejaVuSans-2e" x="63.623047"/>
       <use xlink:href="#DejaVuSans-30" x="95.410156"/>
      </g>
     </g>
    </g>
    <g id="ytick_10">
     <g id="line2d_57">
      <path d="M 614.38125 321.455033 
L 1137.26125 321.455033 
" clip-path="url(#p073235d01c)" style="fill: none; stroke: #b0b0b0; stroke-opacity: 0.3; stroke-width: 0.8; stroke-linecap: square"/>
     </g>
     <g id="line2d_58">
      <g>
       <use xlink:href="#m0aab962b99" x="614.38125" y="321.455033" style="stroke: #000000; stroke-width: 0.8"/>
      </g>
     </g>
     <g id="text_33">
      <!-- 0.1 -->
      <g transform="translate(591.478125 325.254252) scale(0.1 -0.1)">
       <use xlink:href="#DejaVuSans-30"/>
       <use xlink:href="#DejaVuSans-2e" x="63.623047"/>
       <use xlink:href="#DejaVuSans-31" x="95.410156"/>
      </g>
     </g>
    </g>
    <g id="ytick_11">
     <g id="line2d_59">
      <path d="M 614.38125 261.854219 
L 1137.26125 261.854219 
" clip-path="url(#p073235d01c)" style="fill: none; stroke: #b0b0b0; stroke-opacity: 0.3; stroke-width: 0.8; stroke-linecap: square"/>
     </g>
     <g id="line2d_60">
      <g>
       <use xlink:href="#m0aab962b99" x="614.38125" y="261.854219" style="stroke: #000000; stroke-width: 0.8"/>
      </g>
     </g>
     <g id="text_34">
      <!-- 0.2 -->
      <g transform="translate(591.478125 265.653437) scale(0.1 -0.1)">
       <use xlink:href="#DejaVuSans-30"/>
       <use xlink:href="#DejaVuSans-2e" x="63.623047"/>
       <use xlink:href="#DejaVuSans-32" x="95.410156"/>
      </g>
     </g>
    </g>
    <g id="ytick_12">
     <g id="line2d_61">
      <path d="M 614.38125 202.253404 
L 1137.26125 202.253404 
" clip-path="url(#p073235d01c)" style="fill: none; stroke: #b0b0b0; stroke-opacity: 0.3; stroke-width: 0.8; stroke-linecap: square"/>
     </g>
     <g id="line2d_62">
      <g>
       <use xlink:href="#m0aab962b99" x="614.38125" y="202.253404" style="stroke: #000000; stroke-width: 0.8"/>
      </g>
     </g>
     <g id="text_35">
      <!-- 0.3 -->
      <g transform="translate(591.478125 206.052623) scale(0.1 -0.1)">
       <use xlink:href="#DejaVuSans-30"/>
       <use xlink:href="#DejaVuSans-2e" x="63.623047"/>
       <use xlink:href="#DejaVuSans-33" x="95.410156"/>
      </g>
     </g>
    </g>
    <g id="ytick_13">
     <g id="line2d_63">
      <path d="M 614.38125 142.652589 
L 1137.26125 142.652589 
" clip-path="url(#p073235d01c)" style="fill: none; stroke: #b0b0b0; stroke-opacity: 0.3; stroke-width: 0.8; stroke-linecap: square"/>
     </g>
     <g id="line2d_64">
      <g>
       <use xlink:href="#m0aab962b99" x="614.38125" y="142.652589" style="stroke: #000000; stroke-width: 0.8"/>
      </g>
     </g>
     <g id="text_36">
      <!-- 0.4 -->
      <g transform="translate(591.478125 146.451808) scale(0.1 -0.1)">
       <use xlink:href="#DejaVuSans-30"/>
       <use xlink:href="#DejaVuSans-2e" x="63.623047"/>
       <use xlink:href="#DejaVuSans-34" x="95.410156"/>
      </g>
     </g>
    </g>
    <g id="ytick_14">
     <g id="line2d_65">
      <path d="M 614.38125 83.051775 
L 1137.26125 83.051775 
" clip-path="url(#p073235d01c)" style="fill: none; stroke: #b0b0b0; stroke-opacity: 0.3; stroke-width: 0.8; stroke-linecap: square"/>
     </g>
     <g id="line2d_66">
      <g>
       <use xlink:href="#m0aab962b99" x="614.38125" y="83.051775" style="stroke: #000000; stroke-width: 0.8"/>
      </g>
     </g>
     <g id="text_37">
      <!-- 0.5 -->
      <g transform="translate(591.478125 86.850993) scale(0.1 -0.1)">
       <use xlink:href="#DejaVuSans-30"/>
       <use xlink:href="#DejaVuSans-2e" x="63.623047"/>
       <use xlink:href="#DejaVuSans-35" x="95.410156"/>
      </g>
     </g>
    </g>
    <g id="ytick_15">
     <g id="line2d_67">
      <path d="M 614.38125 23.45096 
L 1137.26125 23.45096 
" clip-path="url(#p073235d01c)" style="fill: none; stroke: #b0b0b0; stroke-opacity: 0.3; stroke-width: 0.8; stroke-linecap: square"/>
     </g>
     <g id="line2d_68">
      <g>
       <use xlink:href="#m0aab962b99" x="614.38125" y="23.45096" style="stroke: #000000; stroke-width: 0.8"/>
      </g>
     </g>
     <g id="text_38">
      <!-- 0.6 -->
      <g transform="translate(591.478125 27.250179) scale(0.1 -0.1)">
       <use xlink:href="#DejaVuSans-30"/>
       <use xlink:href="#DejaVuSans-2e" x="63.623047"/>
       <use xlink:href="#DejaVuSans-36" x="95.410156"/>
      </g>
     </g>
    </g>
    <g id="text_39">
     <!-- Global F1 Score -->
     <g transform="translate(585.398438 243.085625) rotate(-90) scale(0.1 -0.1)">
      <use xlink:href="#DejaVuSans-47"/>
      <use xlink:href="#DejaVuSans-6c" x="77.490234"/>
      <use xlink:href="#DejaVuSans-6f" x="105.273438"/>
      <use xlink:href="#DejaVuSans-62" x="166.455078"/>
      <use xlink:href="#DejaVuSans-61" x="229.931641"/>
      <use xlink:href="#DejaVuSans-6c" x="291.210938"/>
      <use xlink:href="#DejaVuSans-20" x="318.994141"/>
      <use xlink:href="#DejaVuSans-46" x="350.78125"/>
      <use xlink:href="#DejaVuSans-31" x="408.300781"/>
      <use xlink:href="#DejaVuSans-20" x="471.923828"/>
      <use xlink:href="#DejaVuSans-53" x="503.710938"/>
      <use xlink:href="#DejaVuSans-63" x="567.1875"/>
      <use xlink:href="#DejaVuSans-6f" x="622.167969"/>
      <use xlink:href="#DejaVuSans-72" x="683.349609"/>
      <use xlink:href="#DejaVuSans-65" x="722.212891"/>
     </g>
    </g>
   </g>
   <g id="line2d_69">
    <path d="M 638.148523 366.762828 
L 642.949992 347.781435 
L 647.751461 318.476924 
L 652.55293 287.031165 
L 657.3544 245.287748 
L 662.155869 214.700029 
L 666.957338 188.350148 
L 671.758807 174.694963 
L 676.560277 161.356721 
L 681.361746 150.218026 
L 686.163215 138.096552 
L 690.964684 127.343035 
L 695.766154 117.405354 
L 700.567623 110.448291 
L 705.369092 103.683718 
L 710.170561 99.121526 
L 714.972031 94.898794 
L 719.7735 91.42695 
L 724.574969 87.844162 
L 729.376438 83.660018 
L 734.177907 82.591051 
L 738.979377 81.886276 
L 743.780846 81.008664 
L 748.582315 79.722536 
L 753.383784 78.535771 
L 758.185254 77.186666 
L 762.986723 75.243746 
L 767.788192 72.206666 
L 772.589661 69.872345 
L 777.391131 68.026105 
L 782.1926 66.295932 
L 786.994069 64.510343 
L 791.795538 62.996962 
L 796.597008 60.90039 
L 801.398477 58.928948 
L 806.199946 58.199284 
L 811.001415 57.680045 
L 815.802885 57.300503 
L 820.604354 56.44736 
L 825.405823 55.568275 
L 830.207292 54.527537 
L 835.008761 53.481088 
L 839.810231 52.934403 
L 844.6117 52.456965 
L 849.413169 52.282944 
L 854.214638 52.022719 
L 859.016108 52.085608 
L 863.817577 52.180419 
L 868.619046 52.357143 
L 873.420515 52.665185 
L 878.221985 52.827885 
L 883.023454 52.88825 
L 887.824923 53.172416 
L 892.626392 52.972328 
L 897.427862 52.453297 
L 902.229331 51.985377 
L 907.0308 51.71088 
L 911.832269 51.439545 
L 916.633739 51.288841 
L 921.435208 51.150367 
L 926.236677 50.812556 
L 931.038146 50.710194 
L 935.839615 50.656771 
L 940.641085 50.510027 
L 945.442554 50.179374 
L 950.244023 49.66547 
L 955.045492 49.233611 
L 959.846962 48.969916 
L 964.648431 48.587712 
L 969.4499 48.305667 
L 974.251369 48.223227 
L 979.052839 48.195811 
L 983.854308 48.142967 
L 988.655777 48.04838 
L 993.457246 48.059583 
L 998.258716 47.857418 
L 1003.060185 47.496353 
L 1007.861654 47.148144 
L 1012.663123 46.839593 
L 1017.464593 46.600297 
L 1022.266062 46.438515 
L 1027.067531 46.399636 
L 1031.869 46.365136 
L 1036.670469 46.372944 
L 1041.471939 46.426933 
L 1046.273408 46.411955 
L 1051.074877 46.18166 
L 1055.876346 45.975808 
L 1060.677816 45.788195 
L 1065.479285 45.463535 
L 1070.280754 45.30094 
L 1075.082223 45.188015 
L 1079.883693 44.974902 
L 1084.685162 44.851848 
L 1089.486631 44.757822 
L 1094.2881 44.616362 
L 1099.08957 44.450812 
L 1103.891039 44.279518 
L 1108.692508 44.095569 
L 1113.493977 43.982014 
" clip-path="url(#p073235d01c)" style="fill: none; stroke: #808080; stroke-width: 2; stroke-linecap: square"/>
   </g>
   <g id="line2d_70">
    <path d="M 638.148523 357.358483 
L 642.949992 352.589767 
L 647.751461 349.772469 
L 652.55293 354.206869 
L 657.3544 356.736249 
L 662.155869 352.737931 
L 666.957338 331.505642 
L 671.758807 308.073536 
L 676.560277 288.087929 
L 681.361746 282.29522 
L 686.163215 257.035062 
L 690.964684 241.41895 
L 695.766154 232.752929 
L 700.567623 215.227173 
L 705.369092 190.493241 
L 710.170561 183.431828 
L 714.972031 171.340835 
L 719.7735 150.884087 
L 724.574969 139.869198 
L 729.376438 137.529392 
L 734.177907 105.43964 
L 738.979377 110.562537 
L 743.780846 93.304564 
L 748.582315 90.573159 
L 753.383784 90.26582 
L 758.185254 88.463695 
L 762.986723 86.955356 
L 767.788192 87.884616 
L 772.589661 85.710578 
L 777.391131 79.798936 
L 782.1926 74.562356 
L 786.994069 78.463579 
L 791.795538 65.447248 
L 796.597008 64.907967 
L 801.398477 66.335637 
L 806.199946 68.356947 
L 811.001415 65.125575 
L 815.802885 63.129865 
L 820.604354 62.466396 
L 825.405823 59.850432 
L 830.207292 61.12539 
L 835.008761 61.389984 
L 839.810231 58.91064 
L 844.6117 59.584366 
L 849.413169 61.083679 
L 854.214638 57.052144 
L 859.016108 53.998595 
L 863.817577 53.522679 
L 868.619046 51.613261 
L 873.420515 51.688219 
L 878.221985 52.043404 
L 883.023454 54.433359 
L 887.824923 55.297475 
L 892.626392 53.570339 
L 897.427862 52.65349 
L 902.229331 55.66005 
L 907.0308 54.714267 
L 911.832269 53.978027 
L 916.633739 52.660974 
L 921.435208 51.470747 
L 926.236677 51.202182 
L 931.038146 50.805598 
L 935.839615 49.302465 
L 940.641085 49.874124 
L 945.442554 48.605048 
L 950.244023 46.14604 
L 955.045492 46.574503 
L 959.846962 48.542364 
L 964.648431 47.385112 
L 969.4499 43.717245 
L 974.251369 44.368693 
L 979.052839 43.80933 
L 983.854308 43.756011 
L 988.655777 43.21942 
L 993.457246 42.699276 
L 998.258716 43.348676 
L 1003.060185 43.105681 
L 1007.861654 42.935615 
L 1012.663123 41.948348 
L 1017.464593 41.893078 
L 1022.266062 41.701545 
L 1027.067531 42.203679 
L 1031.869 41.476818 
L 1036.670469 40.434384 
L 1041.471939 40.012525 
L 1046.273408 41.091979 
L 1051.074877 40.357137 
L 1055.876346 40.159551 
L 1060.677816 40.261058 
L 1065.479285 40.137444 
L 1070.280754 39.562565 
L 1075.082223 38.825398 
L 1079.883693 39.737057 
L 1084.685162 40.399381 
L 1089.486631 40.347831 
L 1094.2881 39.374194 
L 1099.08957 39.41343 
L 1103.891039 39.486198 
L 1108.692508 39.618288 
L 1113.493977 39.41627 
" clip-path="url(#p073235d01c)" style="fill: none; stroke: #0000ff; stroke-width: 2; stroke-linecap: square"/>
   </g>
   <g id="line2d_71">
    <path d="M 638.148523 357.358483 
L 642.949992 352.589767 
L 647.751461 349.772469 
L 652.55293 354.206869 
L 657.3544 356.736249 
L 662.155869 352.737931 
L 666.957338 331.505642 
L 671.758807 308.073536 
L 676.560277 288.087929 
L 681.361746 282.29522 
L 686.163215 257.035062 
L 690.964684 241.41895 
L 695.766154 232.752929 
L 700.567623 215.227173 
L 705.369092 190.493241 
L 710.170561 183.431828 
L 714.972031 171.340835 
L 719.7735 150.884087 
L 724.574969 139.869198 
L 729.376438 137.529392 
L 734.177907 105.43964 
L 738.979377 110.562537 
L 743.780846 93.304564 
L 748.582315 90.573159 
L 753.383784 90.26582 
L 758.185254 88.463695 
L 762.986723 86.955356 
L 767.788192 87.884616 
L 772.589661 85.710578 
L 777.391131 79.798936 
L 782.1926 74.562356 
L 786.994069 78.463579 
L 791.795538 65.447248 
L 796.597008 64.907967 
L 801.398477 66.335637 
L 806.199946 68.356947 
L 811.001415 65.125575 
L 815.802885 63.129865 
L 820.604354 62.466396 
L 825.405823 59.850432 
L 830.207292 61.12539 
L 835.008761 61.389984 
L 839.810231 58.91064 
L 844.6117 59.584366 
L 849.413169 61.083679 
L 854.214638 57.052144 
L 859.016108 53.998595 
L 863.817577 53.522679 
L 868.619046 51.613261 
L 873.420515 51.688219 
L 878.221985 52.043404 
L 883.023454 54.433359 
L 887.824923 55.297475 
L 892.626392 53.570339 
L 897.427862 52.65349 
L 902.229331 55.66005 
L 907.0308 54.714267 
L 911.832269 53.978027 
L 916.633739 52.660974 
L 921.435208 51.470747 
L 926.236677 51.202182 
L 931.038146 50.805598 
L 935.839615 49.302465 
L 940.641085 49.874124 
L 945.442554 48.605048 
L 950.244023 46.14604 
L 955.045492 46.574503 
L 959.846962 48.542364 
L 964.648431 47.385112 
L 969.4499 43.717245 
L 974.251369 44.368693 
L 979.052839 43.80933 
L 983.854308 43.756011 
L 988.655777 43.21942 
L 993.457246 42.699276 
L 998.258716 43.348676 
L 1003.060185 43.105681 
L 1007.861654 42.935615 
L 1012.663123 41.948348 
L 1017.464593 41.893078 
L 1022.266062 41.701545 
L 1027.067531 42.203679 
L 1031.869 41.476818 
L 1036.670469 40.434384 
L 1041.471939 40.012525 
L 1046.273408 41.091979 
L 1051.074877 40.357137 
L 1055.876346 40.159551 
L 1060.677816 40.261058 
L 1065.479285 40.137444 
L 1070.280754 39.562565 
L 1075.082223 38.825398 
L 1079.883693 39.737057 
L 1084.685162 40.399381 
L 1089.486631 40.347831 
L 1094.2881 39.374194 
L 1099.08957 39.41343 
L 1103.891039 39.486198 
L 1108.692508 39.618288 
L 1113.493977 39.41627 
" clip-path="url(#p073235d01c)" style="fill: none; stroke: #00ffff; stroke-width: 2; stroke-linecap: square"/>
   </g>
   <g id="line2d_72">
    <path d="M 638.148523 330.533112 
L 642.949992 305.111791 
L 647.751461 277.677062 
L 652.55293 242.107749 
L 657.3544 213.847756 
L 662.155869 183.517249 
L 666.957338 164.40354 
L 671.758807 152.628206 
L 676.560277 137.688609 
L 681.361746 122.616098 
L 686.163215 113.242297 
L 690.964684 106.011955 
L 695.766154 98.709501 
L 700.567623 91.509704 
L 705.369092 87.703996 
L 710.170561 83.27209 
L 714.972031 79.618495 
L 719.7735 77.006446 
L 724.574969 74.627357 
L 729.376438 72.440801 
L 734.177907 71.834799 
L 738.979377 71.496845 
L 743.780846 70.230741 
L 748.582315 68.870074 
L 753.383784 67.53655 
L 758.185254 66.226092 
L 762.986723 64.455528 
L 767.788192 62.106029 
L 772.589661 59.764131 
L 777.391131 57.50566 
L 782.1926 54.96118 
L 786.994069 53.7655 
L 791.795538 53.029781 
L 796.597008 52.045673 
L 801.398477 52.246597 
L 806.199946 51.759721 
L 811.001415 51.575366 
L 815.802885 51.588493 
L 820.604354 51.438985 
L 825.405823 51.31982 
L 830.207292 51.091063 
L 835.008761 50.91679 
L 839.810231 50.381054 
L 844.6117 49.892227 
L 849.413169 49.161268 
L 854.214638 48.423606 
L 859.016108 47.817232 
L 863.817577 47.569499 
L 868.619046 47.257992 
L 873.420515 47.134777 
L 878.221985 47.368946 
L 883.023454 47.818775 
L 887.824923 48.180419 
L 892.626392 48.475963 
L 897.427862 48.444996 
L 902.229331 48.608257 
L 907.0308 48.679127 
L 911.832269 48.407531 
L 916.633739 47.981794 
L 921.435208 47.57674 
L 926.236677 47.305771 
L 931.038146 46.960149 
L 935.839615 46.641217 
L 940.641085 46.495705 
L 945.442554 46.275248 
L 950.244023 45.986014 
L 955.045492 45.655175 
L 959.846962 45.351523 
L 964.648431 45.083211 
L 969.4499 44.945185 
L 974.251369 44.644232 
L 979.052839 44.28791 
L 983.854308 44.010986 
L 988.655777 43.832503 
L 993.457246 43.739545 
L 998.258716 43.60849 
L 1003.060185 43.538623 
L 1007.861654 43.50818 
L 1012.663123 43.480907 
L 1017.464593 43.457175 
L 1022.266062 43.413233 
L 1027.067531 43.371647 
L 1031.869 43.336691 
L 1036.670469 43.261133 
L 1041.471939 43.216359 
L 1046.273408 43.173133 
L 1051.074877 43.123871 
L 1055.876346 43.090265 
L 1060.677816 43.049246 
L 1065.479285 43.00922 
L 1070.280754 42.978571 
L 1075.082223 42.936428 
L 1079.883693 42.90653 
L 1084.685162 42.873779 
L 1089.486631 42.859797 
L 1094.2881 42.856758 
L 1099.08957 42.842021 
L 1103.891039 42.830314 
L 1108.692508 42.835955 
L 1113.493977 42.816816 
" clip-path="url(#p073235d01c)" style="fill: none; stroke: #008000; stroke-width: 2; stroke-linecap: square"/>
   </g>
   <g id="line2d_73">
    <path d="M 638.148523 331.606648 
L 642.949992 307.192893 
L 647.751461 277.07268 
L 652.55293 241.791373 
L 657.3544 207.323131 
L 662.155869 185.279216 
L 666.957338 170.701508 
L 671.758807 156.057397 
L 676.560277 143.544695 
L 681.361746 130.137811 
L 686.163215 119.2151 
L 690.964684 111.330499 
L 695.766154 107.26855 
L 700.567623 102.344286 
L 705.369092 97.683963 
L 710.170561 94.690096 
L 714.972031 91.910368 
L 719.7735 89.634639 
L 724.574969 86.633405 
L 729.376438 84.576887 
L 734.177907 82.604859 
L 738.979377 80.126188 
L 743.780846 76.767316 
L 748.582315 73.997819 
L 753.383784 71.08984 
L 758.185254 67.860312 
L 762.986723 65.166819 
L 767.788192 62.519194 
L 772.589661 60.344436 
L 777.391131 58.612607 
L 782.1926 56.713134 
L 786.994069 55.005934 
L 791.795538 53.444092 
L 796.597008 52.171917 
L 801.398477 51.924519 
L 806.199946 51.812445 
L 811.001415 52.664936 
L 815.802885 53.777657 
L 820.604354 53.231634 
L 825.405823 52.249405 
L 830.207292 51.389204 
L 835.008761 50.886059 
L 839.810231 50.598482 
L 844.6117 50.623815 
L 849.413169 50.644072 
L 854.214638 50.364555 
L 859.016108 49.94412 
L 863.817577 49.45692 
L 868.619046 49.028072 
L 873.420515 48.548717 
L 878.221985 47.931708 
L 883.023454 47.412874 
L 887.824923 46.798958 
L 892.626392 46.391029 
L 897.427862 46.075909 
L 902.229331 45.614018 
L 907.0308 45.303738 
L 911.832269 44.939517 
L 916.633739 44.537753 
L 921.435208 44.276003 
L 926.236677 44.08446 
L 931.038146 43.955155 
L 935.839615 43.795447 
L 940.641085 43.602301 
L 945.442554 43.441349 
L 950.244023 43.358308 
L 955.045492 43.280018 
L 959.846962 43.226192 
L 964.648431 43.169504 
L 969.4499 43.127098 
L 974.251369 43.0534 
L 979.052839 43.01322 
L 983.854308 42.957749 
L 988.655777 42.920396 
L 993.457246 42.906407 
L 998.258716 42.891314 
L 1003.060185 42.879172 
L 1007.861654 42.874501 
L 1012.663123 42.872135 
L 1017.464593 42.874852 
L 1022.266062 42.876659 
L 1027.067531 42.87444 
L 1031.869 42.87438 
L 1036.670469 42.850081 
L 1041.471939 42.838331 
L 1046.273408 42.829979 
L 1051.074877 42.816083 
L 1055.876346 42.792621 
L 1060.677816 42.789403 
L 1065.479285 42.784072 
L 1070.280754 42.787495 
L 1075.082223 42.786588 
L 1079.883693 42.781856 
L 1084.685162 42.764237 
L 1089.486631 42.753867 
L 1094.2881 42.754268 
L 1099.08957 42.75095 
L 1103.891039 42.741786 
L 1108.692508 42.741384 
L 1113.493977 42.739271 
" clip-path="url(#p073235d01c)" style="fill: none; stroke: #ffa500; stroke-width: 2; stroke-linecap: square"/>
   </g>
   <g id="line2d_74">
    <path d="M 638.148523 325.905542 
L 642.949992 284.888821 
L 647.751461 262.703563 
L 652.55293 270.210307 
L 657.3544 290.716182 
L 662.155869 309.30387 
L 666.957338 331.683449 
L 671.758807 361.432541 
L 676.560277 368.970852 
L 681.361746 368.209435 
L 686.163215 359.593793 
L 690.964684 344.68939 
L 695.766154 319.309518 
L 700.567623 312.925406 
L 705.369092 293.466084 
L 710.170561 257.964438 
L 714.972031 218.256315 
L 719.7735 166.130435 
L 724.574969 122.905861 
L 729.376438 79.984563 
L 734.177907 61.358432 
L 738.979377 44.180819 
L 743.780846 40.226249 
L 748.582315 40.685728 
L 753.383784 41.176778 
L 758.185254 41.499346 
L 762.986723 42.1721 
L 767.788192 42.470186 
L 772.589661 42.630862 
L 777.391131 42.645618 
L 782.1926 42.645618 
L 786.994069 42.645618 
L 791.795538 42.645618 
L 796.597008 42.645618 
L 801.398477 42.645618 
L 806.199946 42.645618 
L 811.001415 42.645618 
L 815.802885 42.645618 
L 820.604354 42.645618 
L 825.405823 42.645618 
L 830.207292 42.645618 
L 835.008761 42.645618 
L 839.810231 42.645618 
L 844.6117 42.645618 
L 849.413169 42.645618 
L 854.214638 42.645618 
L 859.016108 42.645618 
L 863.817577 42.645618 
L 868.619046 42.645618 
L 873.420515 42.645618 
L 878.221985 42.645618 
L 883.023454 42.645618 
L 887.824923 42.645618 
L 892.626392 42.645618 
L 897.427862 42.645618 
L 902.229331 42.645618 
L 907.0308 42.645618 
L 911.832269 42.645618 
L 916.633739 42.645618 
L 921.435208 42.645618 
L 926.236677 42.645618 
L 931.038146 42.645618 
L 935.839615 42.645618 
L 940.641085 42.645618 
L 945.442554 42.645618 
L 950.244023 42.645618 
L 955.045492 42.645618 
L 959.846962 42.645618 
L 964.648431 42.645618 
L 969.4499 42.645618 
L 974.251369 42.645618 
L 979.052839 42.645618 
L 983.854308 42.645618 
L 988.655777 42.645618 
L 993.457246 42.645618 
L 998.258716 42.645618 
L 1003.060185 42.645618 
L 1007.861654 42.645618 
L 1012.663123 42.645618 
L 1017.464593 42.645618 
L 1022.266062 42.645618 
L 1027.067531 42.645618 
L 1031.869 42.645618 
L 1036.670469 42.645618 
L 1041.471939 42.645618 
L 1046.273408 42.645618 
L 1051.074877 42.645618 
L 1055.876346 42.645618 
L 1060.677816 42.645618 
L 1065.479285 42.645618 
L 1070.280754 42.645618 
L 1075.082223 42.645618 
L 1079.883693 42.645618 
L 1084.685162 42.645618 
L 1089.486631 42.645618 
L 1094.2881 42.645618 
L 1099.08957 42.645618 
L 1103.891039 42.645618 
L 1108.692508 42.645618 
L 1113.493977 42.645618 
" clip-path="url(#p073235d01c)" style="fill: none; stroke: #ff0000; stroke-width: 2; stroke-linecap: square"/>
   </g>
   <g id="line2d_75">
    <path d="M 638.148523 360.537825 
L 642.949992 359.369509 
L 647.751461 357.094513 
L 652.55293 362.716636 
L 657.3544 367.066369 
L 662.155869 366.367434 
L 666.957338 361.780252 
L 671.758807 355.523373 
L 676.560277 353.121662 
L 681.361746 348.313219 
L 686.163215 340.445876 
L 690.964684 331.65488 
L 695.766154 324.39259 
L 700.567623 318.506215 
L 705.369092 308.78741 
L 710.170561 309.707906 
L 714.972031 299.634056 
L 719.7735 290.975505 
L 724.574969 266.644547 
L 729.376438 252.712963 
L 734.177907 247.034763 
L 738.979377 233.394315 
L 743.780846 220.332446 
L 748.582315 208.919082 
L 753.383784 203.743663 
L 758.185254 198.009504 
L 762.986723 186.770371 
L 767.788192 173.993086 
L 772.589661 170.168495 
L 777.391131 163.050363 
L 782.1926 154.449598 
L 786.994069 147.723542 
L 791.795538 129.257899 
L 796.597008 127.081089 
L 801.398477 114.848747 
L 806.199946 110.099932 
L 811.001415 105.581145 
L 815.802885 100.311782 
L 820.604354 101.574756 
L 825.405823 90.085656 
L 830.207292 85.87597 
L 835.008761 85.118048 
L 839.810231 77.488816 
L 844.6117 71.691791 
L 849.413169 73.670823 
L 854.214638 75.740658 
L 859.016108 73.343624 
L 863.817577 70.542845 
L 868.619046 73.358742 
L 873.420515 68.828997 
L 878.221985 63.957028 
L 883.023454 65.086053 
L 887.824923 64.232836 
L 892.626392 60.124328 
L 897.427862 59.290137 
L 902.229331 58.799613 
L 907.0308 58.260663 
L 911.832269 57.430341 
L 916.633739 57.497514 
L 921.435208 56.319184 
L 926.236677 59.082455 
L 931.038146 60.90521 
L 935.839615 57.020325 
L 940.641085 59.671168 
L 945.442554 57.882281 
L 950.244023 54.534565 
L 955.045492 58.209062 
L 959.846962 58.887469 
L 964.648431 55.796514 
L 969.4499 62.159443 
L 974.251369 56.075641 
L 979.052839 52.731849 
L 983.854308 52.157885 
L 988.655777 52.212084 
L 993.457246 53.858931 
L 998.258716 52.79433 
L 1003.060185 50.237559 
L 1007.861654 50.858098 
L 1012.663123 48.211453 
L 1017.464593 48.21752 
L 1022.266062 47.188113 
L 1027.067531 46.022052 
L 1031.869 44.766336 
L 1036.670469 43.658399 
L 1041.471939 44.385616 
L 1046.273408 45.700442 
L 1051.074877 44.635494 
L 1055.876346 45.539128 
L 1060.677816 44.405714 
L 1065.479285 44.357495 
L 1070.280754 45.471778 
L 1075.082223 42.44697 
L 1079.883693 44.172377 
L 1084.685162 43.266257 
L 1089.486631 42.529005 
L 1094.2881 43.080517 
L 1099.08957 41.483067 
L 1103.891039 42.518827 
L 1108.692508 40.836 
L 1113.493977 41.557834 
" clip-path="url(#p073235d01c)" style="fill: none; stroke: #ff00ff; stroke-width: 2; stroke-linecap: square"/>
   </g>
   <g id="patch_9">
    <path d="M 614.38125 385.478125 
L 614.38125 22.318125 
" style="fill: none; stroke: #000000; stroke-width: 0.8; stroke-linejoin: miter; stroke-linecap: square"/>
   </g>
   <g id="patch_10">
    <path d="M 1137.26125 385.478125 
L 1137.26125 22.318125 
" style="fill: none; stroke: #000000; stroke-width: 0.8; stroke-linejoin: miter; stroke-linecap: square"/>
   </g>
   <g id="patch_11">
    <path d="M 614.38125 385.478125 
L 1137.26125 385.478125 
" style="fill: none; stroke: #000000; stroke-width: 0.8; stroke-linejoin: miter; stroke-linecap: square"/>
   </g>
   <g id="patch_12">
    <path d="M 614.38125 22.318125 
L 1137.26125 22.318125 
" style="fill: none; stroke: #000000; stroke-width: 0.8; stroke-linejoin: miter; stroke-linecap: square"/>
   </g>
   <g id="text_40">
    <!-- F1 Score Comparison - mhealth -->
    <g transform="translate(781.196563 16.318125) scale(0.12 -0.12)">
     <use xlink:href="#DejaVuSans-46"/>
     <use xlink:href="#DejaVuSans-31" x="57.519531"/>
     <use xlink:href="#DejaVuSans-20" x="121.142578"/>
     <use xlink:href="#DejaVuSans-53" x="152.929688"/>
     <use xlink:href="#DejaVuSans-63" x="216.40625"/>
     <use xlink:href="#DejaVuSans-6f" x="271.386719"/>
     <use xlink:href="#DejaVuSans-72" x="332.568359"/>
     <use xlink:href="#DejaVuSans-65" x="371.431641"/>
     <use xlink:href="#DejaVuSans-20" x="432.955078"/>
     <use xlink:href="#DejaVuSans-43" x="464.742188"/>
     <use xlink:href="#DejaVuSans-6f" x="534.566406"/>
     <use xlink:href="#DejaVuSans-6d" x="595.748047"/>
     <use xlink:href="#DejaVuSans-70" x="693.160156"/>
     <use xlink:href="#DejaVuSans-61" x="756.636719"/>
     <use xlink:href="#DejaVuSans-72" x="817.916016"/>
     <use xlink:href="#DejaVuSans-69" x="859.029297"/>
     <use xlink:href="#DejaVuSans-73" x="886.8125"/>
     <use xlink:href="#DejaVuSans-6f" x="938.912109"/>
     <use xlink:href="#DejaVuSans-6e" x="1000.09375"/>
     <use xlink:href="#DejaVuSans-20" x="1063.472656"/>
     <use xlink:href="#DejaVuSans-2d" x="1095.259766"/>
     <use xlink:href="#DejaVuSans-20" x="1131.34375"/>
     <use xlink:href="#DejaVuSans-6d" x="1163.130859"/>
     <use xlink:href="#DejaVuSans-68" x="1260.542969"/>
     <use xlink:href="#DejaVuSans-65" x="1323.921875"/>
     <use xlink:href="#DejaVuSans-61" x="1385.445312"/>
     <use xlink:href="#DejaVuSans-6c" x="1446.724609"/>
     <use xlink:href="#DejaVuSans-74" x="1474.507812"/>
     <use xlink:href="#DejaVuSans-68" x="1513.716797"/>
    </g>
   </g>
   <g id="legend_2">
    <g id="patch_13">
     <path d="M 1053.720625 380.478125 
L 1130.26125 380.478125 
Q 1132.26125 380.478125 1132.26125 378.478125 
L 1132.26125 276.73125 
Q 1132.26125 274.73125 1130.26125 274.73125 
L 1053.720625 274.73125 
Q 1051.720625 274.73125 1051.720625 276.73125 
L 1051.720625 378.478125 
Q 1051.720625 380.478125 1053.720625 380.478125 
z
" style="fill: #ffffff; opacity: 0.8; stroke: #cccccc; stroke-linejoin: miter"/>
    </g>
    <g id="line2d_76">
     <path d="M 1055.720625 282.829687 
L 1065.720625 282.829687 
L 1075.720625 282.829687 
" style="fill: none; stroke: #808080; stroke-width: 2; stroke-linecap: square"/>
    </g>
    <g id="text_41">
     <!-- Single -->
     <g transform="translate(1083.720625 286.329687) scale(0.1 -0.1)">
      <use xlink:href="#DejaVuSans-53"/>
      <use xlink:href="#DejaVuSans-69" x="63.476562"/>
      <use xlink:href="#DejaVuSans-6e" x="91.259766"/>
      <use xlink:href="#DejaVuSans-67" x="154.638672"/>
      <use xlink:href="#DejaVuSans-6c" x="218.115234"/>
      <use xlink:href="#DejaVuSans-65" x="245.898438"/>
     </g>
    </g>
    <g id="line2d_77">
     <path d="M 1055.720625 297.507812 
L 1065.720625 297.507812 
L 1075.720625 297.507812 
" style="fill: none; stroke: #0000ff; stroke-width: 2; stroke-linecap: square"/>
    </g>
    <g id="text_42">
     <!-- FedAvg -->
     <g transform="translate(1083.720625 301.007812) scale(0.1 -0.1)">
      <use xlink:href="#DejaVuSans-46"/>
      <use xlink:href="#DejaVuSans-65" x="52.019531"/>
      <use xlink:href="#DejaVuSans-64" x="113.542969"/>
      <use xlink:href="#DejaVuSans-41" x="177.019531"/>
      <use xlink:href="#DejaVuSans-76" x="239.552734"/>
      <use xlink:href="#DejaVuSans-67" x="298.732422"/>
     </g>
    </g>
    <g id="line2d_78">
     <path d="M 1055.720625 312.185937 
L 1065.720625 312.185937 
L 1075.720625 312.185937 
" style="fill: none; stroke: #00ffff; stroke-width: 2; stroke-linecap: square"/>
    </g>
    <g id="text_43">
     <!-- FedProx -->
     <g transform="translate(1083.720625 315.685937) scale(0.1 -0.1)">
      <use xlink:href="#DejaVuSans-46"/>
      <use xlink:href="#DejaVuSans-65" x="52.019531"/>
      <use xlink:href="#DejaVuSans-64" x="113.542969"/>
      <use xlink:href="#DejaVuSans-50" x="177.019531"/>
      <use xlink:href="#DejaVuSans-72" x="235.572266"/>
      <use xlink:href="#DejaVuSans-6f" x="274.435547"/>
      <use xlink:href="#DejaVuSans-78" x="332.492188"/>
     </g>
    </g>
    <g id="line2d_79">
     <path d="M 1055.720625 326.864062 
L 1065.720625 326.864062 
L 1075.720625 326.864062 
" style="fill: none; stroke: #008000; stroke-width: 2; stroke-linecap: square"/>
    </g>
    <g id="text_44">
     <!-- FedProto -->
     <g transform="translate(1083.720625 330.364062) scale(0.1 -0.1)">
      <use xlink:href="#DejaVuSans-46"/>
      <use xlink:href="#DejaVuSans-65" x="52.019531"/>
      <use xlink:href="#DejaVuSans-64" x="113.542969"/>
      <use xlink:href="#DejaVuSans-50" x="177.019531"/>
      <use xlink:href="#DejaVuSans-72" x="235.572266"/>
      <use xlink:href="#DejaVuSans-6f" x="274.435547"/>
      <use xlink:href="#DejaVuSans-74" x="335.617188"/>
      <use xlink:href="#DejaVuSans-6f" x="374.826172"/>
     </g>
    </g>
    <g id="line2d_80">
     <path d="M 1055.720625 341.542187 
L 1065.720625 341.542187 
L 1075.720625 341.542187 
" style="fill: none; stroke: #ffa500; stroke-width: 2; stroke-linecap: square"/>
    </g>
    <g id="text_45">
     <!-- FedMEKT -->
     <g transform="translate(1083.720625 345.042187) scale(0.1 -0.1)">
      <use xlink:href="#DejaVuSans-46"/>
      <use xlink:href="#DejaVuSans-65" x="52.019531"/>
      <use xlink:href="#DejaVuSans-64" x="113.542969"/>
      <use xlink:href="#DejaVuSans-4d" x="177.019531"/>
      <use xlink:href="#DejaVuSans-45" x="263.298828"/>
      <use xlink:href="#DejaVuSans-4b" x="326.482422"/>
      <use xlink:href="#DejaVuSans-54" x="384.308594"/>
     </g>
    </g>
    <g id="line2d_81">
     <path d="M 1055.720625 356.220312 
L 1065.720625 356.220312 
L 1075.720625 356.220312 
" style="fill: none; stroke: #ff0000; stroke-width: 2; stroke-linecap: square"/>
    </g>
    <g id="text_46">
     <!-- FedProp -->
     <g transform="translate(1083.720625 359.720312) scale(0.1 -0.1)">
      <use xlink:href="#DejaVuSans-46"/>
      <use xlink:href="#DejaVuSans-65" x="52.019531"/>
      <use xlink:href="#DejaVuSans-64" x="113.542969"/>
      <use xlink:href="#DejaVuSans-50" x="177.019531"/>
      <use xlink:href="#DejaVuSans-72" x="235.572266"/>
      <use xlink:href="#DejaVuSans-6f" x="274.435547"/>
      <use xlink:href="#DejaVuSans-70" x="335.617188"/>
     </g>
    </g>
    <g id="line2d_82">
     <path d="M 1055.720625 370.898438 
L 1065.720625 370.898438 
L 1075.720625 370.898438 
" style="fill: none; stroke: #ff00ff; stroke-width: 2; stroke-linecap: square"/>
    </g>
    <g id="text_47">
     <!-- FedDTG -->
     <g transform="translate(1083.720625 374.398438) scale(0.1 -0.1)">
      <use xlink:href="#DejaVuSans-46"/>
      <use xlink:href="#DejaVuSans-65" x="52.019531"/>
      <use xlink:href="#DejaVuSans-64" x="113.542969"/>
      <use xlink:href="#DejaVuSans-44" x="177.019531"/>
      <use xlink:href="#DejaVuSans-54" x="254.021484"/>
      <use xlink:href="#DejaVuSans-47" x="315.105469"/>
     </g>
    </g>
   </g>
  </g>
 </g>
 <defs>
  <clipPath id="p5a0528dff6">
   <rect x="43.78125" y="22.318125" width="522.88" height="363.16"/>
  </clipPath>
  <clipPath id="p073235d01c">
   <rect x="614.38125" y="22.318125" width="522.88" height="363.16"/>
  </clipPath>
 </defs>
</svg>
