<?xml version="1.0" encoding="utf-8" standalone="no"?>
<!DOCTYPE svg PUBLIC "-//W3C//DTD SVG 1.1//EN"
  "http://www.w3.org/Graphics/SVG/1.1/DTD/svg11.dtd">
<svg xmlns:xlink="http://www.w3.org/1999/xlink" width="1144.37125pt" height="424.474375pt" viewBox="0 0 1144.37125 424.474375" xmlns="http://www.w3.org/2000/svg" version="1.1">
 <metadata>
  <rdf:RDF xmlns:dc="http://purl.org/dc/elements/1.1/" xmlns:cc="http://creativecommons.org/ns#" xmlns:rdf="http://www.w3.org/1999/02/22-rdf-syntax-ns#">
   <cc:Work>
    <dc:type rdf:resource="http://purl.org/dc/dcmitype/StillImage"/>
    <dc:date>2025-11-23T16:08:27.983456</dc:date>
    <dc:format>image/svg+xml</dc:format>
    <dc:creator>
     <cc:Agent>
      <dc:title>Matplotlib v3.7.1, https://matplotlib.org/</dc:title>
     </cc:Agent>
    </dc:creator>
   </cc:Work>
  </rdf:RDF>
 </metadata>
 <defs>
  <style type="text/css">*{stroke-linejoin: round; stroke-linecap: butt}</style>
 </defs>
 <g id="figure_1">
  <g id="patch_1">
   <path d="M 0 424.474375 
L 1144.37125 424.474375 
L 1144.37125 0 
L 0 0 
z
" style="fill: #ffffff"/>
  </g>
  <g id="axes_1">
   <g id="patch_2">
    <path d="M 43.78125 386.918125 
L 566.57125 386.918125 
L 566.57125 22.318125 
L 43.78125 22.318125 
z
" style="fill: #ffffff"/>
   </g>
   <g id="matplotlib.axis_1">
    <g id="xtick_1">
     <g id="line2d_1">
      <path d="M 62.743789 386.918125 
L 62.743789 22.318125 
" clip-path="url(#p871756a5b7)" style="fill: none; stroke: #b0b0b0; stroke-opacity: 0.3; stroke-width: 0.8; stroke-linecap: square"/>
     </g>
     <g id="line2d_2">
      <defs>
       <path id="mceff6316ff" d="M 0 0 
L 0 3.5 
" style="stroke: #000000; stroke-width: 0.8"/>
      </defs>
      <g>
       <use xlink:href="#mceff6316ff" x="62.743789" y="386.918125" style="stroke: #000000; stroke-width: 0.8"/>
      </g>
     </g>
     <g id="text_1">
      <!-- 0 -->
      <g transform="translate(59.562539 401.516562) scale(0.1 -0.1)">
       <defs>
        <path id="DejaVuSans-30" d="M 2034 4250 
Q 1547 4250 1301 3770 
Q 1056 3291 1056 2328 
Q 1056 1369 1301 889 
Q 1547 409 2034 409 
Q 2525 409 2770 889 
Q 3016 1369 3016 2328 
Q 3016 3291 2770 3770 
Q 2525 4250 2034 4250 
z
M 2034 4750 
Q 2819 4750 3233 4129 
Q 3647 3509 3647 2328 
Q 3647 1150 3233 529 
Q 2819 -91 2034 -91 
Q 1250 -91 836 529 
Q 422 1150 422 2328 
Q 422 3509 836 4129 
Q 1250 4750 2034 4750 
z
" transform="scale(0.015625)"/>
       </defs>
       <use xlink:href="#DejaVuSans-30"/>
      </g>
     </g>
    </g>
    <g id="xtick_2">
     <g id="line2d_3">
      <path d="M 158.756645 386.918125 
L 158.756645 22.318125 
" clip-path="url(#p871756a5b7)" style="fill: none; stroke: #b0b0b0; stroke-opacity: 0.3; stroke-width: 0.8; stroke-linecap: square"/>
     </g>
     <g id="line2d_4">
      <g>
       <use xlink:href="#mceff6316ff" x="158.756645" y="386.918125" style="stroke: #000000; stroke-width: 0.8"/>
      </g>
     </g>
     <g id="text_2">
      <!-- 20 -->
      <g transform="translate(152.394145 401.516562) scale(0.1 -0.1)">
       <defs>
        <path id="DejaVuSans-32" d="M 1228 531 
L 3431 531 
L 3431 0 
L 469 0 
L 469 531 
Q 828 903 1448 1529 
Q 2069 2156 2228 2338 
Q 2531 2678 2651 2914 
Q 2772 3150 2772 3378 
Q 2772 3750 2511 3984 
Q 2250 4219 1831 4219 
Q 1534 4219 1204 4116 
Q 875 4013 500 3803 
L 500 4441 
Q 881 4594 1212 4672 
Q 1544 4750 1819 4750 
Q 2544 4750 2975 4387 
Q 3406 4025 3406 3419 
Q 3406 3131 3298 2873 
Q 3191 2616 2906 2266 
Q 2828 2175 2409 1742 
Q 1991 1309 1228 531 
z
" transform="scale(0.015625)"/>
       </defs>
       <use xlink:href="#DejaVuSans-32"/>
       <use xlink:href="#DejaVuSans-30" x="63.623047"/>
      </g>
     </g>
    </g>
    <g id="xtick_3">
     <g id="line2d_5">
      <path d="M 254.769501 386.918125 
L 254.769501 22.318125 
" clip-path="url(#p871756a5b7)" style="fill: none; stroke: #b0b0b0; stroke-opacity: 0.3; stroke-width: 0.8; stroke-linecap: square"/>
     </g>
     <g id="line2d_6">
      <g>
       <use xlink:href="#mceff6316ff" x="254.769501" y="386.918125" style="stroke: #000000; stroke-width: 0.8"/>
      </g>
     </g>
     <g id="text_3">
      <!-- 40 -->
      <g transform="translate(248.407001 401.516562) scale(0.1 -0.1)">
       <defs>
        <path id="DejaVuSans-34" d="M 2419 4116 
L 825 1625 
L 2419 1625 
L 2419 4116 
z
M 2253 4666 
L 3047 4666 
L 3047 1625 
L 3713 1625 
L 3713 1100 
L 3047 1100 
L 3047 0 
L 2419 0 
L 2419 1100 
L 313 1100 
L 313 1709 
L 2253 4666 
z
" transform="scale(0.015625)"/>
       </defs>
       <use xlink:href="#DejaVuSans-34"/>
       <use xlink:href="#DejaVuSans-30" x="63.623047"/>
      </g>
     </g>
    </g>
    <g id="xtick_4">
     <g id="line2d_7">
      <path d="M 350.782357 386.918125 
L 350.782357 22.318125 
" clip-path="url(#p871756a5b7)" style="fill: none; stroke: #b0b0b0; stroke-opacity: 0.3; stroke-width: 0.8; stroke-linecap: square"/>
     </g>
     <g id="line2d_8">
      <g>
       <use xlink:href="#mceff6316ff" x="350.782357" y="386.918125" style="stroke: #000000; stroke-width: 0.8"/>
      </g>
     </g>
     <g id="text_4">
      <!-- 60 -->
      <g transform="translate(344.419857 401.516562) scale(0.1 -0.1)">
       <defs>
        <path id="DejaVuSans-36" d="M 2113 2584 
Q 1688 2584 1439 2293 
Q 1191 2003 1191 1497 
Q 1191 994 1439 701 
Q 1688 409 2113 409 
Q 2538 409 2786 701 
Q 3034 994 3034 1497 
Q 3034 2003 2786 2293 
Q 2538 2584 2113 2584 
z
M 3366 4563 
L 3366 3988 
Q 3128 4100 2886 4159 
Q 2644 4219 2406 4219 
Q 1781 4219 1451 3797 
Q 1122 3375 1075 2522 
Q 1259 2794 1537 2939 
Q 1816 3084 2150 3084 
Q 2853 3084 3261 2657 
Q 3669 2231 3669 1497 
Q 3669 778 3244 343 
Q 2819 -91 2113 -91 
Q 1303 -91 875 529 
Q 447 1150 447 2328 
Q 447 3434 972 4092 
Q 1497 4750 2381 4750 
Q 2619 4750 2861 4703 
Q 3103 4656 3366 4563 
z
" transform="scale(0.015625)"/>
       </defs>
       <use xlink:href="#DejaVuSans-36"/>
       <use xlink:href="#DejaVuSans-30" x="63.623047"/>
      </g>
     </g>
    </g>
    <g id="xtick_5">
     <g id="line2d_9">
      <path d="M 446.795212 386.918125 
L 446.795212 22.318125 
" clip-path="url(#p871756a5b7)" style="fill: none; stroke: #b0b0b0; stroke-opacity: 0.3; stroke-width: 0.8; stroke-linecap: square"/>
     </g>
     <g id="line2d_10">
      <g>
       <use xlink:href="#mceff6316ff" x="446.795212" y="386.918125" style="stroke: #000000; stroke-width: 0.8"/>
      </g>
     </g>
     <g id="text_5">
      <!-- 80 -->
      <g transform="translate(440.432712 401.516562) scale(0.1 -0.1)">
       <defs>
        <path id="DejaVuSans-38" d="M 2034 2216 
Q 1584 2216 1326 1975 
Q 1069 1734 1069 1313 
Q 1069 891 1326 650 
Q 1584 409 2034 409 
Q 2484 409 2743 651 
Q 3003 894 3003 1313 
Q 3003 1734 2745 1975 
Q 2488 2216 2034 2216 
z
M 1403 2484 
Q 997 2584 770 2862 
Q 544 3141 544 3541 
Q 544 4100 942 4425 
Q 1341 4750 2034 4750 
Q 2731 4750 3128 4425 
Q 3525 4100 3525 3541 
Q 3525 3141 3298 2862 
Q 3072 2584 2669 2484 
Q 3125 2378 3379 2068 
Q 3634 1759 3634 1313 
Q 3634 634 3220 271 
Q 2806 -91 2034 -91 
Q 1263 -91 848 271 
Q 434 634 434 1313 
Q 434 1759 690 2068 
Q 947 2378 1403 2484 
z
M 1172 3481 
Q 1172 3119 1398 2916 
Q 1625 2713 2034 2713 
Q 2441 2713 2670 2916 
Q 2900 3119 2900 3481 
Q 2900 3844 2670 4047 
Q 2441 4250 2034 4250 
Q 1625 4250 1398 4047 
Q 1172 3844 1172 3481 
z
" transform="scale(0.015625)"/>
       </defs>
       <use xlink:href="#DejaVuSans-38"/>
       <use xlink:href="#DejaVuSans-30" x="63.623047"/>
      </g>
     </g>
    </g>
    <g id="xtick_6">
     <g id="line2d_11">
      <path d="M 542.808068 386.918125 
L 542.808068 22.318125 
" clip-path="url(#p871756a5b7)" style="fill: none; stroke: #b0b0b0; stroke-opacity: 0.3; stroke-width: 0.8; stroke-linecap: square"/>
     </g>
     <g id="line2d_12">
      <g>
       <use xlink:href="#mceff6316ff" x="542.808068" y="386.918125" style="stroke: #000000; stroke-width: 0.8"/>
      </g>
     </g>
     <g id="text_6">
      <!-- 100 -->
      <g transform="translate(533.264318 401.516562) scale(0.1 -0.1)">
       <defs>
        <path id="DejaVuSans-31" d="M 794 531 
L 1825 531 
L 1825 4091 
L 703 3866 
L 703 4441 
L 1819 4666 
L 2450 4666 
L 2450 531 
L 3481 531 
L 3481 0 
L 794 0 
L 794 531 
z
" transform="scale(0.015625)"/>
       </defs>
       <use xlink:href="#DejaVuSans-31"/>
       <use xlink:href="#DejaVuSans-30" x="63.623047"/>
       <use xlink:href="#DejaVuSans-30" x="127.246094"/>
      </g>
     </g>
    </g>
    <g id="text_7">
     <!-- Communication Rounds -->
     <g transform="translate(245.753594 415.194687) scale(0.1 -0.1)">
      <defs>
       <path id="DejaVuSans-43" d="M 4122 4306 
L 4122 3641 
Q 3803 3938 3442 4084 
Q 3081 4231 2675 4231 
Q 1875 4231 1450 3742 
Q 1025 3253 1025 2328 
Q 1025 1406 1450 917 
Q 1875 428 2675 428 
Q 3081 428 3442 575 
Q 3803 722 4122 1019 
L 4122 359 
Q 3791 134 3420 21 
Q 3050 -91 2638 -91 
Q 1578 -91 968 557 
Q 359 1206 359 2328 
Q 359 3453 968 4101 
Q 1578 4750 2638 4750 
Q 3056 4750 3426 4639 
Q 3797 4528 4122 4306 
z
" transform="scale(0.015625)"/>
       <path id="DejaVuSans-6f" d="M 1959 3097 
Q 1497 3097 1228 2736 
Q 959 2375 959 1747 
Q 959 1119 1226 758 
Q 1494 397 1959 397 
Q 2419 397 2687 759 
Q 2956 1122 2956 1747 
Q 2956 2369 2687 2733 
Q 2419 3097 1959 3097 
z
M 1959 3584 
Q 2709 3584 3137 3096 
Q 3566 2609 3566 1747 
Q 3566 888 3137 398 
Q 2709 -91 1959 -91 
Q 1206 -91 779 398 
Q 353 888 353 1747 
Q 353 2609 779 3096 
Q 1206 3584 1959 3584 
z
" transform="scale(0.015625)"/>
       <path id="DejaVuSans-6d" d="M 3328 2828 
Q 3544 3216 3844 3400 
Q 4144 3584 4550 3584 
Q 5097 3584 5394 3201 
Q 5691 2819 5691 2113 
L 5691 0 
L 5113 0 
L 5113 2094 
Q 5113 2597 4934 2840 
Q 4756 3084 4391 3084 
Q 3944 3084 3684 2787 
Q 3425 2491 3425 1978 
L 3425 0 
L 2847 0 
L 2847 2094 
Q 2847 2600 2669 2842 
Q 2491 3084 2119 3084 
Q 1678 3084 1418 2786 
Q 1159 2488 1159 1978 
L 1159 0 
L 581 0 
L 581 3500 
L 1159 3500 
L 1159 2956 
Q 1356 3278 1631 3431 
Q 1906 3584 2284 3584 
Q 2666 3584 2933 3390 
Q 3200 3197 3328 2828 
z
" transform="scale(0.015625)"/>
       <path id="DejaVuSans-75" d="M 544 1381 
L 544 3500 
L 1119 3500 
L 1119 1403 
Q 1119 906 1312 657 
Q 1506 409 1894 409 
Q 2359 409 2629 706 
Q 2900 1003 2900 1516 
L 2900 3500 
L 3475 3500 
L 3475 0 
L 2900 0 
L 2900 538 
Q 2691 219 2414 64 
Q 2138 -91 1772 -91 
Q 1169 -91 856 284 
Q 544 659 544 1381 
z
M 1991 3584 
L 1991 3584 
z
" transform="scale(0.015625)"/>
       <path id="DejaVuSans-6e" d="M 3513 2113 
L 3513 0 
L 2938 0 
L 2938 2094 
Q 2938 2591 2744 2837 
Q 2550 3084 2163 3084 
Q 1697 3084 1428 2787 
Q 1159 2491 1159 1978 
L 1159 0 
L 581 0 
L 581 3500 
L 1159 3500 
L 1159 2956 
Q 1366 3272 1645 3428 
Q 1925 3584 2291 3584 
Q 2894 3584 3203 3211 
Q 3513 2838 3513 2113 
z
" transform="scale(0.015625)"/>
       <path id="DejaVuSans-69" d="M 603 3500 
L 1178 3500 
L 1178 0 
L 603 0 
L 603 3500 
z
M 603 4863 
L 1178 4863 
L 1178 4134 
L 603 4134 
L 603 4863 
z
" transform="scale(0.015625)"/>
       <path id="DejaVuSans-63" d="M 3122 3366 
L 3122 2828 
Q 2878 2963 2633 3030 
Q 2388 3097 2138 3097 
Q 1578 3097 1268 2742 
Q 959 2388 959 1747 
Q 959 1106 1268 751 
Q 1578 397 2138 397 
Q 2388 397 2633 464 
Q 2878 531 3122 666 
L 3122 134 
Q 2881 22 2623 -34 
Q 2366 -91 2075 -91 
Q 1284 -91 818 406 
Q 353 903 353 1747 
Q 353 2603 823 3093 
Q 1294 3584 2113 3584 
Q 2378 3584 2631 3529 
Q 2884 3475 3122 3366 
z
" transform="scale(0.015625)"/>
       <path id="DejaVuSans-61" d="M 2194 1759 
Q 1497 1759 1228 1600 
Q 959 1441 959 1056 
Q 959 750 1161 570 
Q 1363 391 1709 391 
Q 2188 391 2477 730 
Q 2766 1069 2766 1631 
L 2766 1759 
L 2194 1759 
z
M 3341 1997 
L 3341 0 
L 2766 0 
L 2766 531 
Q 2569 213 2275 61 
Q 1981 -91 1556 -91 
Q 1019 -91 701 211 
Q 384 513 384 1019 
Q 384 1609 779 1909 
Q 1175 2209 1959 2209 
L 2766 2209 
L 2766 2266 
Q 2766 2663 2505 2880 
Q 2244 3097 1772 3097 
Q 1472 3097 1187 3025 
Q 903 2953 641 2809 
L 641 3341 
Q 956 3463 1253 3523 
Q 1550 3584 1831 3584 
Q 2591 3584 2966 3190 
Q 3341 2797 3341 1997 
z
" transform="scale(0.015625)"/>
       <path id="DejaVuSans-74" d="M 1172 4494 
L 1172 3500 
L 2356 3500 
L 2356 3053 
L 1172 3053 
L 1172 1153 
Q 1172 725 1289 603 
Q 1406 481 1766 481 
L 2356 481 
L 2356 0 
L 1766 0 
Q 1100 0 847 248 
Q 594 497 594 1153 
L 594 3053 
L 172 3053 
L 172 3500 
L 594 3500 
L 594 4494 
L 1172 4494 
z
" transform="scale(0.015625)"/>
       <path id="DejaVuSans-20" transform="scale(0.015625)"/>
       <path id="DejaVuSans-52" d="M 2841 2188 
Q 3044 2119 3236 1894 
Q 3428 1669 3622 1275 
L 4263 0 
L 3584 0 
L 2988 1197 
Q 2756 1666 2539 1819 
Q 2322 1972 1947 1972 
L 1259 1972 
L 1259 0 
L 628 0 
L 628 4666 
L 2053 4666 
Q 2853 4666 3247 4331 
Q 3641 3997 3641 3322 
Q 3641 2881 3436 2590 
Q 3231 2300 2841 2188 
z
M 1259 4147 
L 1259 2491 
L 2053 2491 
Q 2509 2491 2742 2702 
Q 2975 2913 2975 3322 
Q 2975 3731 2742 3939 
Q 2509 4147 2053 4147 
L 1259 4147 
z
" transform="scale(0.015625)"/>
       <path id="DejaVuSans-64" d="M 2906 2969 
L 2906 4863 
L 3481 4863 
L 3481 0 
L 2906 0 
L 2906 525 
Q 2725 213 2448 61 
Q 2172 -91 1784 -91 
Q 1150 -91 751 415 
Q 353 922 353 1747 
Q 353 2572 751 3078 
Q 1150 3584 1784 3584 
Q 2172 3584 2448 3432 
Q 2725 3281 2906 2969 
z
M 947 1747 
Q 947 1113 1208 752 
Q 1469 391 1925 391 
Q 2381 391 2643 752 
Q 2906 1113 2906 1747 
Q 2906 2381 2643 2742 
Q 2381 3103 1925 3103 
Q 1469 3103 1208 2742 
Q 947 2381 947 1747 
z
" transform="scale(0.015625)"/>
       <path id="DejaVuSans-73" d="M 2834 3397 
L 2834 2853 
Q 2591 2978 2328 3040 
Q 2066 3103 1784 3103 
Q 1356 3103 1142 2972 
Q 928 2841 928 2578 
Q 928 2378 1081 2264 
Q 1234 2150 1697 2047 
L 1894 2003 
Q 2506 1872 2764 1633 
Q 3022 1394 3022 966 
Q 3022 478 2636 193 
Q 2250 -91 1575 -91 
Q 1294 -91 989 -36 
Q 684 19 347 128 
L 347 722 
Q 666 556 975 473 
Q 1284 391 1588 391 
Q 1994 391 2212 530 
Q 2431 669 2431 922 
Q 2431 1156 2273 1281 
Q 2116 1406 1581 1522 
L 1381 1569 
Q 847 1681 609 1914 
Q 372 2147 372 2553 
Q 372 3047 722 3315 
Q 1072 3584 1716 3584 
Q 2034 3584 2315 3537 
Q 2597 3491 2834 3397 
z
" transform="scale(0.015625)"/>
      </defs>
      <use xlink:href="#DejaVuSans-43"/>
      <use xlink:href="#DejaVuSans-6f" x="69.824219"/>
      <use xlink:href="#DejaVuSans-6d" x="131.005859"/>
      <use xlink:href="#DejaVuSans-6d" x="228.417969"/>
      <use xlink:href="#DejaVuSans-75" x="325.830078"/>
      <use xlink:href="#DejaVuSans-6e" x="389.208984"/>
      <use xlink:href="#DejaVuSans-69" x="452.587891"/>
      <use xlink:href="#DejaVuSans-63" x="480.371094"/>
      <use xlink:href="#DejaVuSans-61" x="535.351562"/>
      <use xlink:href="#DejaVuSans-74" x="596.630859"/>
      <use xlink:href="#DejaVuSans-69" x="635.839844"/>
      <use xlink:href="#DejaVuSans-6f" x="663.623047"/>
      <use xlink:href="#DejaVuSans-6e" x="724.804688"/>
      <use xlink:href="#DejaVuSans-20" x="788.183594"/>
      <use xlink:href="#DejaVuSans-52" x="819.970703"/>
      <use xlink:href="#DejaVuSans-6f" x="884.953125"/>
      <use xlink:href="#DejaVuSans-75" x="946.134766"/>
      <use xlink:href="#DejaVuSans-6e" x="1009.513672"/>
      <use xlink:href="#DejaVuSans-64" x="1072.892578"/>
      <use xlink:href="#DejaVuSans-73" x="1136.369141"/>
     </g>
    </g>
   </g>
   <g id="matplotlib.axis_2">
    <g id="ytick_1">
     <g id="line2d_13">
      <path d="M 43.78125 345.854723 
L 566.57125 345.854723 
" clip-path="url(#p871756a5b7)" style="fill: none; stroke: #b0b0b0; stroke-opacity: 0.3; stroke-width: 0.8; stroke-linecap: square"/>
     </g>
     <g id="line2d_14">
      <defs>
       <path id="md9bb6c3ed3" d="M 0 0 
L -3.5 0 
" style="stroke: #000000; stroke-width: 0.8"/>
      </defs>
      <g>
       <use xlink:href="#md9bb6c3ed3" x="43.78125" y="345.854723" style="stroke: #000000; stroke-width: 0.8"/>
      </g>
     </g>
     <g id="text_8">
      <!-- 0.1 -->
      <g transform="translate(20.878125 349.653941) scale(0.1 -0.1)">
       <defs>
        <path id="DejaVuSans-2e" d="M 684 794 
L 1344 794 
L 1344 0 
L 684 0 
L 684 794 
z
" transform="scale(0.015625)"/>
       </defs>
       <use xlink:href="#DejaVuSans-30"/>
       <use xlink:href="#DejaVuSans-2e" x="63.623047"/>
       <use xlink:href="#DejaVuSans-31" x="95.410156"/>
      </g>
     </g>
    </g>
    <g id="ytick_2">
     <g id="line2d_15">
      <path d="M 43.78125 298.31607 
L 566.57125 298.31607 
" clip-path="url(#p871756a5b7)" style="fill: none; stroke: #b0b0b0; stroke-opacity: 0.3; stroke-width: 0.8; stroke-linecap: square"/>
     </g>
     <g id="line2d_16">
      <g>
       <use xlink:href="#md9bb6c3ed3" x="43.78125" y="298.31607" style="stroke: #000000; stroke-width: 0.8"/>
      </g>
     </g>
     <g id="text_9">
      <!-- 0.2 -->
      <g transform="translate(20.878125 302.115289) scale(0.1 -0.1)">
       <use xlink:href="#DejaVuSans-30"/>
       <use xlink:href="#DejaVuSans-2e" x="63.623047"/>
       <use xlink:href="#DejaVuSans-32" x="95.410156"/>
      </g>
     </g>
    </g>
    <g id="ytick_3">
     <g id="line2d_17">
      <path d="M 43.78125 250.777418 
L 566.57125 250.777418 
" clip-path="url(#p871756a5b7)" style="fill: none; stroke: #b0b0b0; stroke-opacity: 0.3; stroke-width: 0.8; stroke-linecap: square"/>
     </g>
     <g id="line2d_18">
      <g>
       <use xlink:href="#md9bb6c3ed3" x="43.78125" y="250.777418" style="stroke: #000000; stroke-width: 0.8"/>
      </g>
     </g>
     <g id="text_10">
      <!-- 0.3 -->
      <g transform="translate(20.878125 254.576636) scale(0.1 -0.1)">
       <defs>
        <path id="DejaVuSans-33" d="M 2597 2516 
Q 3050 2419 3304 2112 
Q 3559 1806 3559 1356 
Q 3559 666 3084 287 
Q 2609 -91 1734 -91 
Q 1441 -91 1130 -33 
Q 819 25 488 141 
L 488 750 
Q 750 597 1062 519 
Q 1375 441 1716 441 
Q 2309 441 2620 675 
Q 2931 909 2931 1356 
Q 2931 1769 2642 2001 
Q 2353 2234 1838 2234 
L 1294 2234 
L 1294 2753 
L 1863 2753 
Q 2328 2753 2575 2939 
Q 2822 3125 2822 3475 
Q 2822 3834 2567 4026 
Q 2313 4219 1838 4219 
Q 1578 4219 1281 4162 
Q 984 4106 628 3988 
L 628 4550 
Q 988 4650 1302 4700 
Q 1616 4750 1894 4750 
Q 2613 4750 3031 4423 
Q 3450 4097 3450 3541 
Q 3450 3153 3228 2886 
Q 3006 2619 2597 2516 
z
" transform="scale(0.015625)"/>
       </defs>
       <use xlink:href="#DejaVuSans-30"/>
       <use xlink:href="#DejaVuSans-2e" x="63.623047"/>
       <use xlink:href="#DejaVuSans-33" x="95.410156"/>
      </g>
     </g>
    </g>
    <g id="ytick_4">
     <g id="line2d_19">
      <path d="M 43.78125 203.238765 
L 566.57125 203.238765 
" clip-path="url(#p871756a5b7)" style="fill: none; stroke: #b0b0b0; stroke-opacity: 0.3; stroke-width: 0.8; stroke-linecap: square"/>
     </g>
     <g id="line2d_20">
      <g>
       <use xlink:href="#md9bb6c3ed3" x="43.78125" y="203.238765" style="stroke: #000000; stroke-width: 0.8"/>
      </g>
     </g>
     <g id="text_11">
      <!-- 0.4 -->
      <g transform="translate(20.878125 207.037984) scale(0.1 -0.1)">
       <use xlink:href="#DejaVuSans-30"/>
       <use xlink:href="#DejaVuSans-2e" x="63.623047"/>
       <use xlink:href="#DejaVuSans-34" x="95.410156"/>
      </g>
     </g>
    </g>
    <g id="ytick_5">
     <g id="line2d_21">
      <path d="M 43.78125 155.700113 
L 566.57125 155.700113 
" clip-path="url(#p871756a5b7)" style="fill: none; stroke: #b0b0b0; stroke-opacity: 0.3; stroke-width: 0.8; stroke-linecap: square"/>
     </g>
     <g id="line2d_22">
      <g>
       <use xlink:href="#md9bb6c3ed3" x="43.78125" y="155.700113" style="stroke: #000000; stroke-width: 0.8"/>
      </g>
     </g>
     <g id="text_12">
      <!-- 0.5 -->
      <g transform="translate(20.878125 159.499331) scale(0.1 -0.1)">
       <defs>
        <path id="DejaVuSans-35" d="M 691 4666 
L 3169 4666 
L 3169 4134 
L 1269 4134 
L 1269 2991 
Q 1406 3038 1543 3061 
Q 1681 3084 1819 3084 
Q 2600 3084 3056 2656 
Q 3513 2228 3513 1497 
Q 3513 744 3044 326 
Q 2575 -91 1722 -91 
Q 1428 -91 1123 -41 
Q 819 9 494 109 
L 494 744 
Q 775 591 1075 516 
Q 1375 441 1709 441 
Q 2250 441 2565 725 
Q 2881 1009 2881 1497 
Q 2881 1984 2565 2268 
Q 2250 2553 1709 2553 
Q 1456 2553 1204 2497 
Q 953 2441 691 2322 
L 691 4666 
z
" transform="scale(0.015625)"/>
       </defs>
       <use xlink:href="#DejaVuSans-30"/>
       <use xlink:href="#DejaVuSans-2e" x="63.623047"/>
       <use xlink:href="#DejaVuSans-35" x="95.410156"/>
      </g>
     </g>
    </g>
    <g id="ytick_6">
     <g id="line2d_23">
      <path d="M 43.78125 108.16146 
L 566.57125 108.16146 
" clip-path="url(#p871756a5b7)" style="fill: none; stroke: #b0b0b0; stroke-opacity: 0.3; stroke-width: 0.8; stroke-linecap: square"/>
     </g>
     <g id="line2d_24">
      <g>
       <use xlink:href="#md9bb6c3ed3" x="43.78125" y="108.16146" style="stroke: #000000; stroke-width: 0.8"/>
      </g>
     </g>
     <g id="text_13">
      <!-- 0.6 -->
      <g transform="translate(20.878125 111.960679) scale(0.1 -0.1)">
       <use xlink:href="#DejaVuSans-30"/>
       <use xlink:href="#DejaVuSans-2e" x="63.623047"/>
       <use xlink:href="#DejaVuSans-36" x="95.410156"/>
      </g>
     </g>
    </g>
    <g id="ytick_7">
     <g id="line2d_25">
      <path d="M 43.78125 60.622808 
L 566.57125 60.622808 
" clip-path="url(#p871756a5b7)" style="fill: none; stroke: #b0b0b0; stroke-opacity: 0.3; stroke-width: 0.8; stroke-linecap: square"/>
     </g>
     <g id="line2d_26">
      <g>
       <use xlink:href="#md9bb6c3ed3" x="43.78125" y="60.622808" style="stroke: #000000; stroke-width: 0.8"/>
      </g>
     </g>
     <g id="text_14">
      <!-- 0.7 -->
      <g transform="translate(20.878125 64.422026) scale(0.1 -0.1)">
       <defs>
        <path id="DejaVuSans-37" d="M 525 4666 
L 3525 4666 
L 3525 4397 
L 1831 0 
L 1172 0 
L 2766 4134 
L 525 4134 
L 525 4666 
z
" transform="scale(0.015625)"/>
       </defs>
       <use xlink:href="#DejaVuSans-30"/>
       <use xlink:href="#DejaVuSans-2e" x="63.623047"/>
       <use xlink:href="#DejaVuSans-37" x="95.410156"/>
      </g>
     </g>
    </g>
    <g id="text_15">
     <!-- Global Accuracy -->
     <g transform="translate(14.798438 244.985312) rotate(-90) scale(0.1 -0.1)">
      <defs>
       <path id="DejaVuSans-47" d="M 3809 666 
L 3809 1919 
L 2778 1919 
L 2778 2438 
L 4434 2438 
L 4434 434 
Q 4069 175 3628 42 
Q 3188 -91 2688 -91 
Q 1594 -91 976 548 
Q 359 1188 359 2328 
Q 359 3472 976 4111 
Q 1594 4750 2688 4750 
Q 3144 4750 3555 4637 
Q 3966 4525 4313 4306 
L 4313 3634 
Q 3963 3931 3569 4081 
Q 3175 4231 2741 4231 
Q 1884 4231 1454 3753 
Q 1025 3275 1025 2328 
Q 1025 1384 1454 906 
Q 1884 428 2741 428 
Q 3075 428 3337 486 
Q 3600 544 3809 666 
z
" transform="scale(0.015625)"/>
       <path id="DejaVuSans-6c" d="M 603 4863 
L 1178 4863 
L 1178 0 
L 603 0 
L 603 4863 
z
" transform="scale(0.015625)"/>
       <path id="DejaVuSans-62" d="M 3116 1747 
Q 3116 2381 2855 2742 
Q 2594 3103 2138 3103 
Q 1681 3103 1420 2742 
Q 1159 2381 1159 1747 
Q 1159 1113 1420 752 
Q 1681 391 2138 391 
Q 2594 391 2855 752 
Q 3116 1113 3116 1747 
z
M 1159 2969 
Q 1341 3281 1617 3432 
Q 1894 3584 2278 3584 
Q 2916 3584 3314 3078 
Q 3713 2572 3713 1747 
Q 3713 922 3314 415 
Q 2916 -91 2278 -91 
Q 1894 -91 1617 61 
Q 1341 213 1159 525 
L 1159 0 
L 581 0 
L 581 4863 
L 1159 4863 
L 1159 2969 
z
" transform="scale(0.015625)"/>
       <path id="DejaVuSans-41" d="M 2188 4044 
L 1331 1722 
L 3047 1722 
L 2188 4044 
z
M 1831 4666 
L 2547 4666 
L 4325 0 
L 3669 0 
L 3244 1197 
L 1141 1197 
L 716 0 
L 50 0 
L 1831 4666 
z
" transform="scale(0.015625)"/>
       <path id="DejaVuSans-72" d="M 2631 2963 
Q 2534 3019 2420 3045 
Q 2306 3072 2169 3072 
Q 1681 3072 1420 2755 
Q 1159 2438 1159 1844 
L 1159 0 
L 581 0 
L 581 3500 
L 1159 3500 
L 1159 2956 
Q 1341 3275 1631 3429 
Q 1922 3584 2338 3584 
Q 2397 3584 2469 3576 
Q 2541 3569 2628 3553 
L 2631 2963 
z
" transform="scale(0.015625)"/>
       <path id="DejaVuSans-79" d="M 2059 -325 
Q 1816 -950 1584 -1140 
Q 1353 -1331 966 -1331 
L 506 -1331 
L 506 -850 
L 844 -850 
Q 1081 -850 1212 -737 
Q 1344 -625 1503 -206 
L 1606 56 
L 191 3500 
L 800 3500 
L 1894 763 
L 2988 3500 
L 3597 3500 
L 2059 -325 
z
" transform="scale(0.015625)"/>
      </defs>
      <use xlink:href="#DejaVuSans-47"/>
      <use xlink:href="#DejaVuSans-6c" x="77.490234"/>
      <use xlink:href="#DejaVuSans-6f" x="105.273438"/>
      <use xlink:href="#DejaVuSans-62" x="166.455078"/>
      <use xlink:href="#DejaVuSans-61" x="229.931641"/>
      <use xlink:href="#DejaVuSans-6c" x="291.210938"/>
      <use xlink:href="#DejaVuSans-20" x="318.994141"/>
      <use xlink:href="#DejaVuSans-41" x="350.78125"/>
      <use xlink:href="#DejaVuSans-63" x="417.439453"/>
      <use xlink:href="#DejaVuSans-63" x="472.419922"/>
      <use xlink:href="#DejaVuSans-75" x="527.400391"/>
      <use xlink:href="#DejaVuSans-72" x="590.779297"/>
      <use xlink:href="#DejaVuSans-61" x="631.892578"/>
      <use xlink:href="#DejaVuSans-63" x="693.171875"/>
      <use xlink:href="#DejaVuSans-79" x="748.152344"/>
     </g>
    </g>
   </g>
   <g id="line2d_27">
    <path d="M 67.544432 98.410934 
L 72.345075 50.513367 
L 77.145717 39.211061 
L 81.94636 38.89789 
L 86.747003 38.890852 
L 91.547646 38.890852 
L 96.348289 38.890852 
L 101.148931 38.890852 
L 105.949574 38.890852 
L 110.750217 38.890852 
L 115.55086 38.890852 
L 120.351503 38.890852 
L 125.152145 38.890852 
L 129.952788 38.890852 
L 134.753431 38.890852 
L 139.554074 38.890852 
L 144.354716 38.890852 
L 149.155359 38.890852 
L 153.956002 38.890852 
L 158.756645 38.890852 
L 163.557288 38.890852 
L 168.35793 38.890852 
L 173.158573 38.890852 
L 177.959216 38.890852 
L 182.759859 38.890852 
L 187.560502 38.890852 
L 192.361144 38.890852 
L 197.161787 38.890852 
L 201.96243 38.890852 
L 206.763073 38.890852 
L 211.563716 38.890852 
L 216.364358 38.890852 
L 221.165001 38.890852 
L 225.965644 38.890852 
L 230.766287 38.890852 
L 235.56693 38.890852 
L 240.367572 38.890852 
L 245.168215 38.890852 
L 249.968858 38.890852 
L 254.769501 38.890852 
L 259.570143 38.890852 
L 264.370786 38.890852 
L 269.171429 38.890852 
L 273.972072 38.890852 
L 278.772715 38.890852 
L 283.573357 38.890852 
L 288.374 38.890852 
L 293.174643 38.890852 
L 297.975286 38.890852 
L 302.775929 38.890852 
L 307.576571 38.890852 
L 312.377214 38.890852 
L 317.177857 38.890852 
L 321.9785 38.890852 
L 326.779143 38.890852 
L 331.579785 38.890852 
L 336.380428 38.890852 
L 341.181071 38.890852 
L 345.981714 38.890852 
L 350.782357 38.890852 
L 355.582999 38.890852 
L 360.383642 38.890852 
L 365.184285 38.890852 
L 369.984928 38.890852 
L 374.78557 38.890852 
L 379.586213 38.890852 
L 384.386856 38.890852 
L 389.187499 38.890852 
L 393.988142 38.890852 
L 398.788784 38.890852 
L 403.589427 38.890852 
L 408.39007 38.890852 
L 413.190713 38.890852 
L 417.991356 38.890852 
L 422.791998 38.890852 
L 427.592641 38.890852 
L 432.393284 38.890852 
L 437.193927 38.890852 
L 441.99457 38.890852 
L 446.795212 38.890852 
L 451.595855 38.890852 
L 456.396498 38.890852 
L 461.197141 38.890852 
L 465.997784 38.890852 
L 470.798426 38.890852 
L 475.599069 38.890852 
L 480.399712 38.890852 
L 485.200355 38.890852 
L 490.000997 38.890852 
L 494.80164 38.890852 
L 499.602283 38.890852 
L 504.402926 38.890852 
L 509.203569 38.890852 
L 514.004211 38.890852 
L 518.804854 38.890852 
L 523.605497 38.890852 
L 528.40614 38.890852 
L 533.206783 38.890852 
L 538.007425 38.890852 
L 542.808068 38.890852 
" clip-path="url(#p871756a5b7)" style="fill: none; stroke: #1f77b4; stroke-width: 2; stroke-linecap: square"/>
   </g>
   <g id="line2d_28">
    <path d="M 67.544432 366.235468 
L 72.345075 348.887907 
L 77.145717 330.14691 
L 81.94636 312.739529 
L 86.747003 284.392277 
L 91.547646 252.716263 
L 96.348289 234.640315 
L 101.148931 221.532877 
L 105.949574 209.783687 
L 110.750217 195.659323 
L 115.55086 181.140857 
L 120.351503 167.150207 
L 125.152145 156.829639 
L 129.952788 143.90166 
L 134.753431 132.680286 
L 139.554074 119.674893 
L 144.354716 108.087566 
L 149.155359 99.209696 
L 153.956002 93.79782 
L 158.756645 89.047473 
L 163.557288 84.142301 
L 168.35793 79.075265 
L 173.158573 74.34955 
L 177.959216 69.247326 
L 182.759859 65.432973 
L 187.560502 61.93883 
L 192.361144 59.106216 
L 197.161787 57.564992 
L 201.96243 56.266564 
L 206.763073 55.133518 
L 211.563716 54.204562 
L 216.364358 53.099666 
L 221.165001 52.297386 
L 225.965644 51.477511 
L 230.766287 50.39021 
L 235.56693 49.594966 
L 240.367572 48.806761 
L 245.168215 48.271907 
L 249.968858 47.65964 
L 254.769501 47.244425 
L 259.570143 46.924216 
L 264.370786 46.691977 
L 269.171429 46.255649 
L 273.972072 44.682756 
L 278.772715 40.67839 
L 283.573357 40.432076 
L 288.374 40.213912 
L 293.174643 40.066123 
L 297.975286 39.854997 
L 302.775929 39.640351 
L 307.576571 39.446819 
L 312.377214 39.365887 
L 317.177857 39.27088 
L 321.9785 39.21458 
L 326.779143 39.168836 
L 331.579785 39.133648 
L 336.380428 39.094941 
L 341.181071 39.073829 
L 345.981714 39.056235 
L 350.782357 39.014009 
L 355.582999 39.003453 
L 360.383642 38.989378 
L 365.184285 38.975303 
L 369.984928 38.964747 
L 374.78557 38.943634 
L 379.586213 38.943634 
L 384.386856 38.936596 
L 389.187499 38.929559 
L 393.988142 38.911965 
L 398.788784 38.904927 
L 403.589427 38.894371 
L 408.39007 38.890852 
L 413.190713 38.890852 
L 417.991356 38.890852 
L 422.791998 38.890852 
L 427.592641 38.890852 
L 432.393284 38.890852 
L 437.193927 38.890852 
L 441.99457 38.890852 
L 446.795212 38.890852 
L 451.595855 38.890852 
L 456.396498 38.890852 
L 461.197141 38.890852 
L 465.997784 38.890852 
L 470.798426 38.890852 
L 475.599069 38.890852 
L 480.399712 38.890852 
L 485.200355 38.890852 
L 490.000997 38.890852 
L 494.80164 38.890852 
L 499.602283 38.890852 
L 504.402926 38.890852 
L 509.203569 38.890852 
L 514.004211 38.890852 
L 518.804854 38.890852 
L 523.605497 38.890852 
L 528.40614 38.890852 
L 533.206783 38.890852 
L 538.007425 38.890852 
L 542.808068 38.890852 
" clip-path="url(#p871756a5b7)" style="fill: none; stroke: #ff7f0e; stroke-width: 2; stroke-linecap: square"/>
   </g>
   <g id="line2d_29">
    <path d="M 67.544432 360.147987 
L 72.345075 361.027681 
L 77.145717 366.186205 
L 81.94636 368.452297 
L 86.747003 369.483298 
L 91.547646 366.481783 
L 96.348289 368.927331 
L 101.148931 370.345398 
L 105.949574 366.74921 
L 110.750217 353.986612 
L 115.55086 351.11881 
L 120.351503 341.702568 
L 125.152145 320.069138 
L 129.952788 309.498738 
L 134.753431 291.401677 
L 139.554074 267.600682 
L 144.354716 250.344608 
L 149.155359 235.425002 
L 153.956002 227.922973 
L 158.756645 221.283044 
L 163.557288 215.804311 
L 168.35793 209.702755 
L 173.158573 201.613091 
L 177.959216 195.15262 
L 182.759859 188.041175 
L 187.560502 178.364543 
L 192.361144 171.925185 
L 197.161787 164.229624 
L 201.96243 157.360975 
L 206.763073 154.552992 
L 211.563716 150.928654 
L 216.364358 147.402841 
L 221.165001 142.659532 
L 225.965644 141.37166 
L 230.766287 133.362928 
L 235.56693 135.467155 
L 240.367572 133.697212 
L 245.168215 131.022942 
L 249.968858 130.13973 
L 254.769501 130.614765 
L 259.570143 129.636545 
L 264.370786 127.658993 
L 269.171429 129.059466 
L 273.972072 124.625809 
L 278.772715 115.586076 
L 283.573357 114.238385 
L 288.374 112.98922 
L 293.174643 110.550709 
L 297.975286 113.122933 
L 302.775929 109.220611 
L 307.576571 109.65694 
L 312.377214 107.753282 
L 317.177857 105.539973 
L 321.9785 104.751767 
L 326.779143 104.596941 
L 331.579785 102.355481 
L 336.380428 98.087207 
L 341.181071 97.116025 
L 345.981714 97.689585 
L 350.782357 96.869711 
L 355.582999 91.306527 
L 360.383642 88.642814 
L 365.184285 92.411423 
L 369.984928 92.622549 
L 374.78557 88.231118 
L 379.586213 90.623885 
L 384.386856 91.285414 
L 389.187499 89.149518 
L 393.988142 87.115666 
L 398.788784 81.858616 
L 403.589427 79.916252 
L 408.39007 83.765792 
L 413.190713 83.836167 
L 417.991356 84.504735 
L 422.791998 81.299131 
L 427.592641 78.090008 
L 432.393284 80.092191 
L 437.193927 80.38073 
L 441.99457 79.912733 
L 446.795212 81.893804 
L 451.595855 80.66927 
L 456.396498 81.742496 
L 461.197141 80.567225 
L 465.997784 71.214321 
L 470.798426 73.202429 
L 475.599069 73.110941 
L 480.399712 71.953264 
L 485.200355 71.080607 
L 490.000997 70.299439 
L 494.80164 69.623835 
L 499.602283 68.012236 
L 504.402926 67.628689 
L 509.203569 67.818703 
L 514.004211 67.787034 
L 518.804854 67.3683 
L 523.605497 66.006534 
L 528.40614 67.238105 
L 533.206783 68.723028 
L 538.007425 68.670246 
L 542.808068 68.311331 
" clip-path="url(#p871756a5b7)" style="fill: none; stroke: #2ca02c; stroke-width: 2; stroke-linecap: square"/>
   </g>
   <g id="line2d_30">
    <path d="M 67.544432 360.524496 
L 72.345075 352.663553 
L 77.145717 343.454918 
L 81.94636 334.383516 
L 86.747003 318.19715 
L 91.547646 294.251885 
L 96.348289 272.794394 
L 101.148931 249.85198 
L 105.949574 229.045462 
L 110.750217 205.986929 
L 115.55086 183.209897 
L 120.351503 160.900862 
L 125.152145 140.45326 
L 129.952788 120.931095 
L 134.753431 105.729987 
L 139.554074 96.496721 
L 144.354716 84.926988 
L 149.155359 72.716838 
L 153.956002 68.026311 
L 158.756645 64.180289 
L 163.557288 60.700221 
L 168.35793 57.920388 
L 173.158573 55.161669 
L 177.959216 53.521919 
L 182.759859 51.755494 
L 187.560502 49.950363 
L 192.361144 48.398583 
L 197.161787 47.047373 
L 201.96243 45.924884 
L 206.763073 45.066303 
L 211.563716 44.214759 
L 216.364358 43.60953 
L 221.165001 43.208389 
L 225.965644 42.972631 
L 230.766287 42.599641 
L 235.56693 42.054231 
L 240.367572 41.607347 
L 245.168215 41.037305 
L 249.968858 40.748766 
L 254.769501 40.474301 
L 259.570143 40.224468 
L 264.370786 40.052048 
L 269.171429 39.935928 
L 273.972072 39.84444 
L 278.772715 39.749433 
L 283.573357 39.682577 
L 288.374 39.64387 
L 293.174643 39.58757 
L 297.975286 39.520713 
L 302.775929 39.457375 
L 307.576571 39.425706 
L 312.377214 39.387 
L 317.177857 39.334218 
L 321.9785 39.256805 
L 326.779143 39.211061 
L 331.579785 39.179392 
L 336.380428 39.161798 
L 341.181071 39.137167 
L 345.981714 39.116054 
L 350.782357 39.105498 
L 355.582999 39.091422 
L 360.383642 39.084385 
L 365.184285 39.084385 
L 369.984928 39.087904 
L 374.78557 39.077347 
L 379.586213 39.056235 
L 384.386856 39.010491 
L 389.187499 38.996416 
L 393.988142 38.98234 
L 398.788784 38.975303 
L 403.589427 38.964747 
L 408.39007 38.957709 
L 413.190713 38.943634 
L 417.991356 38.929559 
L 422.791998 38.929559 
L 427.592641 38.922521 
L 432.393284 38.922521 
L 437.193927 38.922521 
L 441.99457 38.919002 
L 446.795212 38.919002 
L 451.595855 38.92604 
L 456.396498 38.92604 
L 461.197141 38.919002 
L 465.997784 38.915484 
L 470.798426 38.915484 
L 475.599069 38.915484 
L 480.399712 38.911965 
L 485.200355 38.911965 
L 490.000997 38.911965 
L 494.80164 38.908446 
L 499.602283 38.904927 
L 504.402926 38.904927 
L 509.203569 38.904927 
L 514.004211 38.894371 
L 518.804854 38.894371 
L 523.605497 38.890852 
L 528.40614 38.890852 
L 533.206783 38.890852 
L 538.007425 38.890852 
L 542.808068 38.890852 
" clip-path="url(#p871756a5b7)" style="fill: none; stroke: #d62728; stroke-width: 2; stroke-linecap: square"/>
   </g>
   <g id="line2d_31">
    <path d="M 67.544432 283.625184 
L 72.345075 183.033958 
L 77.145717 146.487959 
L 81.94636 156.062546 
L 86.747003 150.186192 
L 91.547646 144.151493 
L 96.348289 134.85137 
L 101.148931 124.534321 
L 105.949574 109.537301 
L 110.750217 93.262966 
L 115.55086 78.885251 
L 120.351503 65.851708 
L 125.152145 56.189151 
L 129.952788 53.148929 
L 134.753431 47.191643 
L 139.554074 43.49341 
L 144.354716 40.47782 
L 149.155359 39.397556 
L 153.956002 39.063272 
L 158.756645 38.901409 
L 163.557288 38.890852 
L 168.35793 38.890852 
L 173.158573 38.890852 
L 177.959216 38.890852 
L 182.759859 38.890852 
L 187.560502 38.890852 
L 192.361144 38.890852 
L 197.161787 38.890852 
L 201.96243 38.890852 
L 206.763073 38.890852 
L 211.563716 38.890852 
L 216.364358 38.890852 
L 221.165001 38.890852 
L 225.965644 38.890852 
L 230.766287 38.890852 
L 235.56693 38.890852 
L 240.367572 38.890852 
L 245.168215 38.890852 
L 249.968858 38.890852 
L 254.769501 38.890852 
L 259.570143 38.890852 
L 264.370786 38.890852 
L 269.171429 38.890852 
L 273.972072 38.890852 
L 278.772715 38.890852 
L 283.573357 38.890852 
L 288.374 38.890852 
L 293.174643 38.890852 
L 297.975286 38.890852 
L 302.775929 38.890852 
L 307.576571 38.890852 
L 312.377214 38.890852 
L 317.177857 38.890852 
L 321.9785 38.890852 
L 326.779143 38.890852 
L 331.579785 38.890852 
L 336.380428 38.890852 
L 341.181071 38.890852 
L 345.981714 38.890852 
L 350.782357 38.890852 
L 355.582999 38.890852 
L 360.383642 38.890852 
L 365.184285 38.890852 
L 369.984928 38.890852 
L 374.78557 38.890852 
L 379.586213 38.890852 
L 384.386856 38.890852 
L 389.187499 38.890852 
L 393.988142 38.890852 
L 398.788784 38.890852 
L 403.589427 38.890852 
L 408.39007 38.890852 
L 413.190713 38.890852 
L 417.991356 38.890852 
L 422.791998 38.890852 
L 427.592641 38.890852 
L 432.393284 38.890852 
L 437.193927 38.890852 
L 441.99457 38.890852 
L 446.795212 38.890852 
L 451.595855 38.890852 
L 456.396498 38.890852 
L 461.197141 38.890852 
L 465.997784 38.890852 
L 470.798426 38.890852 
L 475.599069 38.890852 
L 480.399712 38.890852 
L 485.200355 38.890852 
L 490.000997 38.890852 
L 494.80164 38.890852 
L 499.602283 38.890852 
L 504.402926 38.890852 
L 509.203569 38.890852 
L 514.004211 38.890852 
L 518.804854 38.890852 
L 523.605497 38.890852 
L 528.40614 38.890852 
L 533.206783 38.890852 
L 538.007425 38.890852 
L 542.808068 38.890852 
" clip-path="url(#p871756a5b7)" style="fill: none; stroke: #9467bd; stroke-width: 2; stroke-linecap: square"/>
   </g>
   <g id="line2d_32">
    <path d="M 67.544432 213.411544 
L 72.345075 80.282205 
L 77.145717 47.694828 
L 81.94636 44.38366 
L 86.747003 38.890852 
L 91.547646 38.890852 
L 96.348289 38.890852 
L 101.148931 38.890852 
L 105.949574 38.890852 
L 110.750217 38.890852 
L 115.55086 38.890852 
L 120.351503 38.890852 
L 125.152145 38.890852 
L 129.952788 38.890852 
L 134.753431 38.890852 
L 139.554074 38.890852 
L 144.354716 38.890852 
L 149.155359 38.890852 
L 153.956002 38.890852 
L 158.756645 38.890852 
L 163.557288 38.890852 
L 168.35793 38.890852 
L 173.158573 38.890852 
L 177.959216 38.890852 
L 182.759859 38.890852 
L 187.560502 38.890852 
L 192.361144 38.890852 
L 197.161787 38.890852 
L 201.96243 38.890852 
L 206.763073 38.890852 
L 211.563716 38.890852 
L 216.364358 38.890852 
L 221.165001 38.890852 
L 225.965644 38.890852 
L 230.766287 38.890852 
L 235.56693 38.890852 
L 240.367572 38.890852 
L 245.168215 38.890852 
L 249.968858 38.890852 
L 254.769501 38.890852 
L 259.570143 38.890852 
L 264.370786 38.890852 
L 269.171429 38.890852 
L 273.972072 38.890852 
L 278.772715 38.890852 
L 283.573357 38.890852 
L 288.374 38.890852 
L 293.174643 38.890852 
L 297.975286 38.890852 
L 302.775929 38.890852 
L 307.576571 38.890852 
L 312.377214 38.890852 
L 317.177857 38.890852 
L 321.9785 38.890852 
L 326.779143 38.890852 
L 331.579785 38.890852 
L 336.380428 38.890852 
L 341.181071 38.890852 
L 345.981714 38.890852 
L 350.782357 38.890852 
L 355.582999 38.890852 
L 360.383642 38.890852 
L 365.184285 38.890852 
L 369.984928 38.890852 
L 374.78557 38.890852 
L 379.586213 38.890852 
L 384.386856 38.890852 
L 389.187499 38.890852 
L 393.988142 38.890852 
L 398.788784 38.890852 
L 403.589427 38.890852 
L 408.39007 38.890852 
L 413.190713 38.890852 
L 417.991356 38.890852 
L 422.791998 38.890852 
L 427.592641 38.890852 
L 432.393284 38.890852 
L 437.193927 38.890852 
L 441.99457 38.890852 
L 446.795212 38.890852 
L 451.595855 38.890852 
L 456.396498 38.890852 
L 461.197141 38.890852 
L 465.997784 38.890852 
L 470.798426 38.890852 
L 475.599069 38.890852 
L 480.399712 38.890852 
L 485.200355 38.890852 
L 490.000997 38.890852 
L 494.80164 38.890852 
L 499.602283 38.890852 
L 504.402926 38.890852 
L 509.203569 38.890852 
L 514.004211 38.890852 
L 518.804854 38.890852 
L 523.605497 38.890852 
L 528.40614 38.890852 
L 533.206783 38.890852 
L 538.007425 38.890852 
L 542.808068 38.890852 
" clip-path="url(#p871756a5b7)" style="fill: none; stroke: #8c564b; stroke-width: 2; stroke-linecap: square"/>
   </g>
   <g id="patch_3">
    <path d="M 43.78125 386.918125 
L 43.78125 22.318125 
" style="fill: none; stroke: #000000; stroke-width: 0.8; stroke-linejoin: miter; stroke-linecap: square"/>
   </g>
   <g id="patch_4">
    <path d="M 566.57125 386.918125 
L 566.57125 22.318125 
" style="fill: none; stroke: #000000; stroke-width: 0.8; stroke-linejoin: miter; stroke-linecap: square"/>
   </g>
   <g id="patch_5">
    <path d="M 43.78125 386.918125 
L 566.57125 386.918125 
" style="fill: none; stroke: #000000; stroke-width: 0.8; stroke-linejoin: miter; stroke-linecap: square"/>
   </g>
   <g id="patch_6">
    <path d="M 43.78125 22.318125 
L 566.57125 22.318125 
" style="fill: none; stroke: #000000; stroke-width: 0.8; stroke-linejoin: miter; stroke-linecap: square"/>
   </g>
   <g id="text_16">
    <!-- Accuracy Comparison - mhealth -->
    <g transform="translate(209.135938 16.318125) scale(0.12 -0.12)">
     <defs>
      <path id="DejaVuSans-70" d="M 1159 525 
L 1159 -1331 
L 581 -1331 
L 581 3500 
L 1159 3500 
L 1159 2969 
Q 1341 3281 1617 3432 
Q 1894 3584 2278 3584 
Q 2916 3584 3314 3078 
Q 3713 2572 3713 1747 
Q 3713 922 3314 415 
Q 2916 -91 2278 -91 
Q 1894 -91 1617 61 
Q 1341 213 1159 525 
z
M 3116 1747 
Q 3116 2381 2855 2742 
Q 2594 3103 2138 3103 
Q 1681 3103 1420 2742 
Q 1159 2381 1159 1747 
Q 1159 1113 1420 752 
Q 1681 391 2138 391 
Q 2594 391 2855 752 
Q 3116 1113 3116 1747 
z
" transform="scale(0.015625)"/>
      <path id="DejaVuSans-2d" d="M 313 2009 
L 1997 2009 
L 1997 1497 
L 313 1497 
L 313 2009 
z
" transform="scale(0.015625)"/>
      <path id="DejaVuSans-68" d="M 3513 2113 
L 3513 0 
L 2938 0 
L 2938 2094 
Q 2938 2591 2744 2837 
Q 2550 3084 2163 3084 
Q 1697 3084 1428 2787 
Q 1159 2491 1159 1978 
L 1159 0 
L 581 0 
L 581 4863 
L 1159 4863 
L 1159 2956 
Q 1366 3272 1645 3428 
Q 1925 3584 2291 3584 
Q 2894 3584 3203 3211 
Q 3513 2838 3513 2113 
z
" transform="scale(0.015625)"/>
      <path id="DejaVuSans-65" d="M 3597 1894 
L 3597 1613 
L 953 1613 
Q 991 1019 1311 708 
Q 1631 397 2203 397 
Q 2534 397 2845 478 
Q 3156 559 3463 722 
L 3463 178 
Q 3153 47 2828 -22 
Q 2503 -91 2169 -91 
Q 1331 -91 842 396 
Q 353 884 353 1716 
Q 353 2575 817 3079 
Q 1281 3584 2069 3584 
Q 2775 3584 3186 3129 
Q 3597 2675 3597 1894 
z
M 3022 2063 
Q 3016 2534 2758 2815 
Q 2500 3097 2075 3097 
Q 1594 3097 1305 2825 
Q 1016 2553 972 2059 
L 3022 2063 
z
" transform="scale(0.015625)"/>
     </defs>
     <use xlink:href="#DejaVuSans-41"/>
     <use xlink:href="#DejaVuSans-63" x="66.658203"/>
     <use xlink:href="#DejaVuSans-63" x="121.638672"/>
     <use xlink:href="#DejaVuSans-75" x="176.619141"/>
     <use xlink:href="#DejaVuSans-72" x="239.998047"/>
     <use xlink:href="#DejaVuSans-61" x="281.111328"/>
     <use xlink:href="#DejaVuSans-63" x="342.390625"/>
     <use xlink:href="#DejaVuSans-79" x="397.371094"/>
     <use xlink:href="#DejaVuSans-20" x="456.550781"/>
     <use xlink:href="#DejaVuSans-43" x="488.337891"/>
     <use xlink:href="#DejaVuSans-6f" x="558.162109"/>
     <use xlink:href="#DejaVuSans-6d" x="619.34375"/>
     <use xlink:href="#DejaVuSans-70" x="716.755859"/>
     <use xlink:href="#DejaVuSans-61" x="780.232422"/>
     <use xlink:href="#DejaVuSans-72" x="841.511719"/>
     <use xlink:href="#DejaVuSans-69" x="882.625"/>
     <use xlink:href="#DejaVuSans-73" x="910.408203"/>
     <use xlink:href="#DejaVuSans-6f" x="962.507812"/>
     <use xlink:href="#DejaVuSans-6e" x="1023.689453"/>
     <use xlink:href="#DejaVuSans-20" x="1087.068359"/>
     <use xlink:href="#DejaVuSans-2d" x="1118.855469"/>
     <use xlink:href="#DejaVuSans-20" x="1154.939453"/>
     <use xlink:href="#DejaVuSans-6d" x="1186.726562"/>
     <use xlink:href="#DejaVuSans-68" x="1284.138672"/>
     <use xlink:href="#DejaVuSans-65" x="1347.517578"/>
     <use xlink:href="#DejaVuSans-61" x="1409.041016"/>
     <use xlink:href="#DejaVuSans-6c" x="1470.320312"/>
     <use xlink:href="#DejaVuSans-74" x="1498.103516"/>
     <use xlink:href="#DejaVuSans-68" x="1537.3125"/>
    </g>
   </g>
   <g id="legend_1">
    <g id="patch_7">
     <path d="M 485.157188 381.918125 
L 559.57125 381.918125 
Q 561.57125 381.918125 561.57125 379.918125 
L 561.57125 292.849375 
Q 561.57125 290.849375 559.57125 290.849375 
L 485.157188 290.849375 
Q 483.157188 290.849375 483.157188 292.849375 
L 483.157188 379.918125 
Q 483.157188 381.918125 485.157188 381.918125 
z
" style="fill: #ffffff; opacity: 0.8; stroke: #cccccc; stroke-linejoin: miter"/>
    </g>
    <g id="line2d_33">
     <path d="M 487.157188 298.947812 
L 497.157188 298.947812 
L 507.157188 298.947812 
" style="fill: none; stroke: #1f77b4; stroke-width: 2; stroke-linecap: square"/>
    </g>
    <g id="text_17">
     <!-- fedmekt -->
     <g transform="translate(515.157188 302.447812) scale(0.1 -0.1)">
      <defs>
       <path id="DejaVuSans-66" d="M 2375 4863 
L 2375 4384 
L 1825 4384 
Q 1516 4384 1395 4259 
Q 1275 4134 1275 3809 
L 1275 3500 
L 2222 3500 
L 2222 3053 
L 1275 3053 
L 1275 0 
L 697 0 
L 697 3053 
L 147 3053 
L 147 3500 
L 697 3500 
L 697 3744 
Q 697 4328 969 4595 
Q 1241 4863 1831 4863 
L 2375 4863 
z
" transform="scale(0.015625)"/>
       <path id="DejaVuSans-6b" d="M 581 4863 
L 1159 4863 
L 1159 1991 
L 2875 3500 
L 3609 3500 
L 1753 1863 
L 3688 0 
L 2938 0 
L 1159 1709 
L 1159 0 
L 581 0 
L 581 4863 
z
" transform="scale(0.015625)"/>
      </defs>
      <use xlink:href="#DejaVuSans-66"/>
      <use xlink:href="#DejaVuSans-65" x="35.205078"/>
      <use xlink:href="#DejaVuSans-64" x="96.728516"/>
      <use xlink:href="#DejaVuSans-6d" x="160.205078"/>
      <use xlink:href="#DejaVuSans-65" x="257.617188"/>
      <use xlink:href="#DejaVuSans-6b" x="319.140625"/>
      <use xlink:href="#DejaVuSans-74" x="377.050781"/>
     </g>
    </g>
    <g id="line2d_34">
     <path d="M 487.157188 313.625937 
L 497.157188 313.625937 
L 507.157188 313.625937 
" style="fill: none; stroke: #ff7f0e; stroke-width: 2; stroke-linecap: square"/>
    </g>
    <g id="text_18">
     <!-- fedproto -->
     <g transform="translate(515.157188 317.125937) scale(0.1 -0.1)">
      <use xlink:href="#DejaVuSans-66"/>
      <use xlink:href="#DejaVuSans-65" x="35.205078"/>
      <use xlink:href="#DejaVuSans-64" x="96.728516"/>
      <use xlink:href="#DejaVuSans-70" x="160.205078"/>
      <use xlink:href="#DejaVuSans-72" x="223.681641"/>
      <use xlink:href="#DejaVuSans-6f" x="262.544922"/>
      <use xlink:href="#DejaVuSans-74" x="323.726562"/>
      <use xlink:href="#DejaVuSans-6f" x="362.935547"/>
     </g>
    </g>
    <g id="line2d_35">
     <path d="M 487.157188 328.304062 
L 497.157188 328.304062 
L 507.157188 328.304062 
" style="fill: none; stroke: #2ca02c; stroke-width: 2; stroke-linecap: square"/>
    </g>
    <g id="text_19">
     <!-- fedavg -->
     <g transform="translate(515.157188 331.804062) scale(0.1 -0.1)">
      <defs>
       <path id="DejaVuSans-76" d="M 191 3500 
L 800 3500 
L 1894 563 
L 2988 3500 
L 3597 3500 
L 2284 0 
L 1503 0 
L 191 3500 
z
" transform="scale(0.015625)"/>
       <path id="DejaVuSans-67" d="M 2906 1791 
Q 2906 2416 2648 2759 
Q 2391 3103 1925 3103 
Q 1463 3103 1205 2759 
Q 947 2416 947 1791 
Q 947 1169 1205 825 
Q 1463 481 1925 481 
Q 2391 481 2648 825 
Q 2906 1169 2906 1791 
z
M 3481 434 
Q 3481 -459 3084 -895 
Q 2688 -1331 1869 -1331 
Q 1566 -1331 1297 -1286 
Q 1028 -1241 775 -1147 
L 775 -588 
Q 1028 -725 1275 -790 
Q 1522 -856 1778 -856 
Q 2344 -856 2625 -561 
Q 2906 -266 2906 331 
L 2906 616 
Q 2728 306 2450 153 
Q 2172 0 1784 0 
Q 1141 0 747 490 
Q 353 981 353 1791 
Q 353 2603 747 3093 
Q 1141 3584 1784 3584 
Q 2172 3584 2450 3431 
Q 2728 3278 2906 2969 
L 2906 3500 
L 3481 3500 
L 3481 434 
z
" transform="scale(0.015625)"/>
      </defs>
      <use xlink:href="#DejaVuSans-66"/>
      <use xlink:href="#DejaVuSans-65" x="35.205078"/>
      <use xlink:href="#DejaVuSans-64" x="96.728516"/>
      <use xlink:href="#DejaVuSans-61" x="160.205078"/>
      <use xlink:href="#DejaVuSans-76" x="221.484375"/>
      <use xlink:href="#DejaVuSans-67" x="280.664062"/>
     </g>
    </g>
    <g id="line2d_36">
     <path d="M 487.157188 342.982187 
L 497.157188 342.982187 
L 507.157188 342.982187 
" style="fill: none; stroke: #d62728; stroke-width: 2; stroke-linecap: square"/>
    </g>
    <g id="text_20">
     <!-- fedcent -->
     <g transform="translate(515.157188 346.482187) scale(0.1 -0.1)">
      <use xlink:href="#DejaVuSans-66"/>
      <use xlink:href="#DejaVuSans-65" x="35.205078"/>
      <use xlink:href="#DejaVuSans-64" x="96.728516"/>
      <use xlink:href="#DejaVuSans-63" x="160.205078"/>
      <use xlink:href="#DejaVuSans-65" x="215.185547"/>
      <use xlink:href="#DejaVuSans-6e" x="276.708984"/>
      <use xlink:href="#DejaVuSans-74" x="340.087891"/>
     </g>
    </g>
    <g id="line2d_37">
     <path d="M 487.157188 357.660312 
L 497.157188 357.660312 
L 507.157188 357.660312 
" style="fill: none; stroke: #9467bd; stroke-width: 2; stroke-linecap: square"/>
    </g>
    <g id="text_21">
     <!-- fedprox -->
     <g transform="translate(515.157188 361.160312) scale(0.1 -0.1)">
      <defs>
       <path id="DejaVuSans-78" d="M 3513 3500 
L 2247 1797 
L 3578 0 
L 2900 0 
L 1881 1375 
L 863 0 
L 184 0 
L 1544 1831 
L 300 3500 
L 978 3500 
L 1906 2253 
L 2834 3500 
L 3513 3500 
z
" transform="scale(0.015625)"/>
      </defs>
      <use xlink:href="#DejaVuSans-66"/>
      <use xlink:href="#DejaVuSans-65" x="35.205078"/>
      <use xlink:href="#DejaVuSans-64" x="96.728516"/>
      <use xlink:href="#DejaVuSans-70" x="160.205078"/>
      <use xlink:href="#DejaVuSans-72" x="223.681641"/>
      <use xlink:href="#DejaVuSans-6f" x="262.544922"/>
      <use xlink:href="#DejaVuSans-78" x="320.601562"/>
     </g>
    </g>
    <g id="line2d_38">
     <path d="M 487.157188 372.338437 
L 497.157188 372.338437 
L 507.157188 372.338437 
" style="fill: none; stroke: #8c564b; stroke-width: 2; stroke-linecap: square"/>
    </g>
    <g id="text_22">
     <!-- fedprop -->
     <g transform="translate(515.157188 375.838437) scale(0.1 -0.1)">
      <use xlink:href="#DejaVuSans-66"/>
      <use xlink:href="#DejaVuSans-65" x="35.205078"/>
      <use xlink:href="#DejaVuSans-64" x="96.728516"/>
      <use xlink:href="#DejaVuSans-70" x="160.205078"/>
      <use xlink:href="#DejaVuSans-72" x="223.681641"/>
      <use xlink:href="#DejaVuSans-6f" x="262.544922"/>
      <use xlink:href="#DejaVuSans-70" x="323.726562"/>
     </g>
    </g>
   </g>
  </g>
  <g id="axes_2">
   <g id="patch_8">
    <path d="M 614.38125 386.918125 
L 1137.17125 386.918125 
L 1137.17125 22.318125 
L 614.38125 22.318125 
z
" style="fill: #ffffff"/>
   </g>
   <g id="matplotlib.axis_3">
    <g id="xtick_7">
     <g id="line2d_39">
      <path d="M 633.343789 386.918125 
L 633.343789 22.318125 
" clip-path="url(#p0ab21fce7c)" style="fill: none; stroke: #b0b0b0; stroke-opacity: 0.3; stroke-width: 0.8; stroke-linecap: square"/>
     </g>
     <g id="line2d_40">
      <g>
       <use xlink:href="#mceff6316ff" x="633.343789" y="386.918125" style="stroke: #000000; stroke-width: 0.8"/>
      </g>
     </g>
     <g id="text_23">
      <!-- 0 -->
      <g transform="translate(630.162539 401.516562) scale(0.1 -0.1)">
       <use xlink:href="#DejaVuSans-30"/>
      </g>
     </g>
    </g>
    <g id="xtick_8">
     <g id="line2d_41">
      <path d="M 729.356645 386.918125 
L 729.356645 22.318125 
" clip-path="url(#p0ab21fce7c)" style="fill: none; stroke: #b0b0b0; stroke-opacity: 0.3; stroke-width: 0.8; stroke-linecap: square"/>
     </g>
     <g id="line2d_42">
      <g>
       <use xlink:href="#mceff6316ff" x="729.356645" y="386.918125" style="stroke: #000000; stroke-width: 0.8"/>
      </g>
     </g>
     <g id="text_24">
      <!-- 20 -->
      <g transform="translate(722.994145 401.516562) scale(0.1 -0.1)">
       <use xlink:href="#DejaVuSans-32"/>
       <use xlink:href="#DejaVuSans-30" x="63.623047"/>
      </g>
     </g>
    </g>
    <g id="xtick_9">
     <g id="line2d_43">
      <path d="M 825.369501 386.918125 
L 825.369501 22.318125 
" clip-path="url(#p0ab21fce7c)" style="fill: none; stroke: #b0b0b0; stroke-opacity: 0.3; stroke-width: 0.8; stroke-linecap: square"/>
     </g>
     <g id="line2d_44">
      <g>
       <use xlink:href="#mceff6316ff" x="825.369501" y="386.918125" style="stroke: #000000; stroke-width: 0.8"/>
      </g>
     </g>
     <g id="text_25">
      <!-- 40 -->
      <g transform="translate(819.007001 401.516562) scale(0.1 -0.1)">
       <use xlink:href="#DejaVuSans-34"/>
       <use xlink:href="#DejaVuSans-30" x="63.623047"/>
      </g>
     </g>
    </g>
    <g id="xtick_10">
     <g id="line2d_45">
      <path d="M 921.382357 386.918125 
L 921.382357 22.318125 
" clip-path="url(#p0ab21fce7c)" style="fill: none; stroke: #b0b0b0; stroke-opacity: 0.3; stroke-width: 0.8; stroke-linecap: square"/>
     </g>
     <g id="line2d_46">
      <g>
       <use xlink:href="#mceff6316ff" x="921.382357" y="386.918125" style="stroke: #000000; stroke-width: 0.8"/>
      </g>
     </g>
     <g id="text_26">
      <!-- 60 -->
      <g transform="translate(915.019857 401.516562) scale(0.1 -0.1)">
       <use xlink:href="#DejaVuSans-36"/>
       <use xlink:href="#DejaVuSans-30" x="63.623047"/>
      </g>
     </g>
    </g>
    <g id="xtick_11">
     <g id="line2d_47">
      <path d="M 1017.395212 386.918125 
L 1017.395212 22.318125 
" clip-path="url(#p0ab21fce7c)" style="fill: none; stroke: #b0b0b0; stroke-opacity: 0.3; stroke-width: 0.8; stroke-linecap: square"/>
     </g>
     <g id="line2d_48">
      <g>
       <use xlink:href="#mceff6316ff" x="1017.395212" y="386.918125" style="stroke: #000000; stroke-width: 0.8"/>
      </g>
     </g>
     <g id="text_27">
      <!-- 80 -->
      <g transform="translate(1011.032712 401.516562) scale(0.1 -0.1)">
       <use xlink:href="#DejaVuSans-38"/>
       <use xlink:href="#DejaVuSans-30" x="63.623047"/>
      </g>
     </g>
    </g>
    <g id="xtick_12">
     <g id="line2d_49">
      <path d="M 1113.408068 386.918125 
L 1113.408068 22.318125 
" clip-path="url(#p0ab21fce7c)" style="fill: none; stroke: #b0b0b0; stroke-opacity: 0.3; stroke-width: 0.8; stroke-linecap: square"/>
     </g>
     <g id="line2d_50">
      <g>
       <use xlink:href="#mceff6316ff" x="1113.408068" y="386.918125" style="stroke: #000000; stroke-width: 0.8"/>
      </g>
     </g>
     <g id="text_28">
      <!-- 100 -->
      <g transform="translate(1103.864318 401.516562) scale(0.1 -0.1)">
       <use xlink:href="#DejaVuSans-31"/>
       <use xlink:href="#DejaVuSans-30" x="63.623047"/>
       <use xlink:href="#DejaVuSans-30" x="127.246094"/>
      </g>
     </g>
    </g>
    <g id="text_29">
     <!-- Communication Rounds -->
     <g transform="translate(816.353594 415.194687) scale(0.1 -0.1)">
      <use xlink:href="#DejaVuSans-43"/>
      <use xlink:href="#DejaVuSans-6f" x="69.824219"/>
      <use xlink:href="#DejaVuSans-6d" x="131.005859"/>
      <use xlink:href="#DejaVuSans-6d" x="228.417969"/>
      <use xlink:href="#DejaVuSans-75" x="325.830078"/>
      <use xlink:href="#DejaVuSans-6e" x="389.208984"/>
      <use xlink:href="#DejaVuSans-69" x="452.587891"/>
      <use xlink:href="#DejaVuSans-63" x="480.371094"/>
      <use xlink:href="#DejaVuSans-61" x="535.351562"/>
      <use xlink:href="#DejaVuSans-74" x="596.630859"/>
      <use xlink:href="#DejaVuSans-69" x="635.839844"/>
      <use xlink:href="#DejaVuSans-6f" x="663.623047"/>
      <use xlink:href="#DejaVuSans-6e" x="724.804688"/>
      <use xlink:href="#DejaVuSans-20" x="788.183594"/>
      <use xlink:href="#DejaVuSans-52" x="819.970703"/>
      <use xlink:href="#DejaVuSans-6f" x="884.953125"/>
      <use xlink:href="#DejaVuSans-75" x="946.134766"/>
      <use xlink:href="#DejaVuSans-6e" x="1009.513672"/>
      <use xlink:href="#DejaVuSans-64" x="1072.892578"/>
      <use xlink:href="#DejaVuSans-73" x="1136.369141"/>
     </g>
    </g>
   </g>
   <g id="matplotlib.axis_4">
    <g id="ytick_8">
     <g id="line2d_51">
      <path d="M 614.38125 334.535727 
L 1137.17125 334.535727 
" clip-path="url(#p0ab21fce7c)" style="fill: none; stroke: #b0b0b0; stroke-opacity: 0.3; stroke-width: 0.8; stroke-linecap: square"/>
     </g>
     <g id="line2d_52">
      <g>
       <use xlink:href="#md9bb6c3ed3" x="614.38125" y="334.535727" style="stroke: #000000; stroke-width: 0.8"/>
      </g>
     </g>
     <g id="text_30">
      <!-- 0.1 -->
      <g transform="translate(591.478125 338.334946) scale(0.1 -0.1)">
       <use xlink:href="#DejaVuSans-30"/>
       <use xlink:href="#DejaVuSans-2e" x="63.623047"/>
       <use xlink:href="#DejaVuSans-31" x="95.410156"/>
      </g>
     </g>
    </g>
    <g id="ytick_9">
     <g id="line2d_53">
      <path d="M 614.38125 280.291013 
L 1137.17125 280.291013 
" clip-path="url(#p0ab21fce7c)" style="fill: none; stroke: #b0b0b0; stroke-opacity: 0.3; stroke-width: 0.8; stroke-linecap: square"/>
     </g>
     <g id="line2d_54">
      <g>
       <use xlink:href="#md9bb6c3ed3" x="614.38125" y="280.291013" style="stroke: #000000; stroke-width: 0.8"/>
      </g>
     </g>
     <g id="text_31">
      <!-- 0.2 -->
      <g transform="translate(591.478125 284.090232) scale(0.1 -0.1)">
       <use xlink:href="#DejaVuSans-30"/>
       <use xlink:href="#DejaVuSans-2e" x="63.623047"/>
       <use xlink:href="#DejaVuSans-32" x="95.410156"/>
      </g>
     </g>
    </g>
    <g id="ytick_10">
     <g id="line2d_55">
      <path d="M 614.38125 226.046298 
L 1137.17125 226.046298 
" clip-path="url(#p0ab21fce7c)" style="fill: none; stroke: #b0b0b0; stroke-opacity: 0.3; stroke-width: 0.8; stroke-linecap: square"/>
     </g>
     <g id="line2d_56">
      <g>
       <use xlink:href="#md9bb6c3ed3" x="614.38125" y="226.046298" style="stroke: #000000; stroke-width: 0.8"/>
      </g>
     </g>
     <g id="text_32">
      <!-- 0.3 -->
      <g transform="translate(591.478125 229.845517) scale(0.1 -0.1)">
       <use xlink:href="#DejaVuSans-30"/>
       <use xlink:href="#DejaVuSans-2e" x="63.623047"/>
       <use xlink:href="#DejaVuSans-33" x="95.410156"/>
      </g>
     </g>
    </g>
    <g id="ytick_11">
     <g id="line2d_57">
      <path d="M 614.38125 171.801584 
L 1137.17125 171.801584 
" clip-path="url(#p0ab21fce7c)" style="fill: none; stroke: #b0b0b0; stroke-opacity: 0.3; stroke-width: 0.8; stroke-linecap: square"/>
     </g>
     <g id="line2d_58">
      <g>
       <use xlink:href="#md9bb6c3ed3" x="614.38125" y="171.801584" style="stroke: #000000; stroke-width: 0.8"/>
      </g>
     </g>
     <g id="text_33">
      <!-- 0.4 -->
      <g transform="translate(591.478125 175.600803) scale(0.1 -0.1)">
       <use xlink:href="#DejaVuSans-30"/>
       <use xlink:href="#DejaVuSans-2e" x="63.623047"/>
       <use xlink:href="#DejaVuSans-34" x="95.410156"/>
      </g>
     </g>
    </g>
    <g id="ytick_12">
     <g id="line2d_59">
      <path d="M 614.38125 117.55687 
L 1137.17125 117.55687 
" clip-path="url(#p0ab21fce7c)" style="fill: none; stroke: #b0b0b0; stroke-opacity: 0.3; stroke-width: 0.8; stroke-linecap: square"/>
     </g>
     <g id="line2d_60">
      <g>
       <use xlink:href="#md9bb6c3ed3" x="614.38125" y="117.55687" style="stroke: #000000; stroke-width: 0.8"/>
      </g>
     </g>
     <g id="text_34">
      <!-- 0.5 -->
      <g transform="translate(591.478125 121.356088) scale(0.1 -0.1)">
       <use xlink:href="#DejaVuSans-30"/>
       <use xlink:href="#DejaVuSans-2e" x="63.623047"/>
       <use xlink:href="#DejaVuSans-35" x="95.410156"/>
      </g>
     </g>
    </g>
    <g id="ytick_13">
     <g id="line2d_61">
      <path d="M 614.38125 63.312155 
L 1137.17125 63.312155 
" clip-path="url(#p0ab21fce7c)" style="fill: none; stroke: #b0b0b0; stroke-opacity: 0.3; stroke-width: 0.8; stroke-linecap: square"/>
     </g>
     <g id="line2d_62">
      <g>
       <use xlink:href="#md9bb6c3ed3" x="614.38125" y="63.312155" style="stroke: #000000; stroke-width: 0.8"/>
      </g>
     </g>
     <g id="text_35">
      <!-- 0.6 -->
      <g transform="translate(591.478125 67.111374) scale(0.1 -0.1)">
       <use xlink:href="#DejaVuSans-30"/>
       <use xlink:href="#DejaVuSans-2e" x="63.623047"/>
       <use xlink:href="#DejaVuSans-36" x="95.410156"/>
      </g>
     </g>
    </g>
    <g id="text_36">
     <!-- Global F1 Score -->
     <g transform="translate(585.398438 243.805625) rotate(-90) scale(0.1 -0.1)">
      <defs>
       <path id="DejaVuSans-46" d="M 628 4666 
L 3309 4666 
L 3309 4134 
L 1259 4134 
L 1259 2759 
L 3109 2759 
L 3109 2228 
L 1259 2228 
L 1259 0 
L 628 0 
L 628 4666 
z
" transform="scale(0.015625)"/>
       <path id="DejaVuSans-53" d="M 3425 4513 
L 3425 3897 
Q 3066 4069 2747 4153 
Q 2428 4238 2131 4238 
Q 1616 4238 1336 4038 
Q 1056 3838 1056 3469 
Q 1056 3159 1242 3001 
Q 1428 2844 1947 2747 
L 2328 2669 
Q 3034 2534 3370 2195 
Q 3706 1856 3706 1288 
Q 3706 609 3251 259 
Q 2797 -91 1919 -91 
Q 1588 -91 1214 -16 
Q 841 59 441 206 
L 441 856 
Q 825 641 1194 531 
Q 1563 422 1919 422 
Q 2459 422 2753 634 
Q 3047 847 3047 1241 
Q 3047 1584 2836 1778 
Q 2625 1972 2144 2069 
L 1759 2144 
Q 1053 2284 737 2584 
Q 422 2884 422 3419 
Q 422 4038 858 4394 
Q 1294 4750 2059 4750 
Q 2388 4750 2728 4690 
Q 3069 4631 3425 4513 
z
" transform="scale(0.015625)"/>
      </defs>
      <use xlink:href="#DejaVuSans-47"/>
      <use xlink:href="#DejaVuSans-6c" x="77.490234"/>
      <use xlink:href="#DejaVuSans-6f" x="105.273438"/>
      <use xlink:href="#DejaVuSans-62" x="166.455078"/>
      <use xlink:href="#DejaVuSans-61" x="229.931641"/>
      <use xlink:href="#DejaVuSans-6c" x="291.210938"/>
      <use xlink:href="#DejaVuSans-20" x="318.994141"/>
      <use xlink:href="#DejaVuSans-46" x="350.78125"/>
      <use xlink:href="#DejaVuSans-31" x="408.300781"/>
      <use xlink:href="#DejaVuSans-20" x="471.923828"/>
      <use xlink:href="#DejaVuSans-53" x="503.710938"/>
      <use xlink:href="#DejaVuSans-63" x="567.1875"/>
      <use xlink:href="#DejaVuSans-6f" x="622.167969"/>
      <use xlink:href="#DejaVuSans-72" x="683.349609"/>
      <use xlink:href="#DejaVuSans-65" x="722.212891"/>
     </g>
    </g>
   </g>
   <g id="line2d_63">
    <path d="M 638.144432 58.514055 
L 642.945075 43.19552 
L 647.745717 43.357717 
L 652.54636 43.195951 
L 657.347003 43.192021 
L 662.147646 43.192021 
L 666.948289 43.192021 
L 671.748931 43.192021 
L 676.549574 43.192021 
L 681.350217 43.192021 
L 686.15086 43.192021 
L 690.951503 43.192021 
L 695.752145 43.192021 
L 700.552788 43.192021 
L 705.353431 43.192021 
L 710.154074 43.192021 
L 714.954716 43.192021 
L 719.755359 43.192021 
L 724.556002 43.192021 
L 729.356645 43.192021 
L 734.157288 43.192021 
L 738.95793 43.192021 
L 743.758573 43.192021 
L 748.559216 43.192021 
L 753.359859 43.192021 
L 758.160502 43.192021 
L 762.961144 43.192021 
L 767.761787 43.192021 
L 772.56243 43.192021 
L 777.363073 43.192021 
L 782.163716 43.192021 
L 786.964358 43.192021 
L 791.765001 43.192021 
L 796.565644 43.192021 
L 801.366287 43.192021 
L 806.16693 43.192021 
L 810.967572 43.192021 
L 815.768215 43.192021 
L 820.568858 43.192021 
L 825.369501 43.192021 
L 830.170143 43.192021 
L 834.970786 43.192021 
L 839.771429 43.192021 
L 844.572072 43.192021 
L 849.372715 43.192021 
L 854.173357 43.192021 
L 858.974 43.192021 
L 863.774643 43.192021 
L 868.575286 43.192021 
L 873.375929 43.192021 
L 878.176571 43.192021 
L 882.977214 43.192021 
L 887.777857 43.192021 
L 892.5785 43.192021 
L 897.379143 43.192021 
L 902.179785 43.192021 
L 906.980428 43.192021 
L 911.781071 43.192021 
L 916.581714 43.192021 
L 921.382357 43.192021 
L 926.182999 43.192021 
L 930.983642 43.192021 
L 935.784285 43.192021 
L 940.584928 43.192021 
L 945.38557 43.192021 
L 950.186213 43.192021 
L 954.986856 43.192021 
L 959.787499 43.192021 
L 964.588142 43.192021 
L 969.388784 43.192021 
L 974.189427 43.192021 
L 978.99007 43.192021 
L 983.790713 43.192021 
L 988.591356 43.192021 
L 993.391998 43.192021 
L 998.192641 43.192021 
L 1002.993284 43.192021 
L 1007.793927 43.192021 
L 1012.59457 43.192021 
L 1017.395212 43.192021 
L 1022.195855 43.192021 
L 1026.996498 43.192021 
L 1031.797141 43.192021 
L 1036.597784 43.192021 
L 1041.398426 43.192021 
L 1046.199069 43.192021 
L 1050.999712 43.192021 
L 1055.800355 43.192021 
L 1060.600997 43.192021 
L 1065.40164 43.192021 
L 1070.202283 43.192021 
L 1075.002926 43.192021 
L 1079.803569 43.192021 
L 1084.604211 43.192021 
L 1089.404854 43.192021 
L 1094.205497 43.192021 
L 1099.00614 43.192021 
L 1103.806783 43.192021 
L 1108.607425 43.192021 
L 1113.408068 43.192021 
" clip-path="url(#p0ab21fce7c)" style="fill: none; stroke: #1f77b4; stroke-width: 2; stroke-linecap: square"/>
   </g>
   <g id="line2d_64">
    <path d="M 638.144432 350.36891 
L 642.945075 318.039783 
L 647.745717 285.303856 
L 652.54636 258.177812 
L 657.347003 219.210512 
L 662.147646 182.32501 
L 666.948289 164.10373 
L 671.748931 151.498434 
L 676.549574 140.801507 
L 681.350217 128.666855 
L 686.15086 118.005667 
L 690.951503 109.33871 
L 695.752145 101.656672 
L 700.552788 92.243318 
L 705.353431 84.164527 
L 710.154074 75.208476 
L 714.954716 67.312657 
L 719.755359 61.536937 
L 724.556002 58.172315 
L 729.356645 55.298896 
L 734.157288 52.348263 
L 738.95793 49.529948 
L 743.758573 46.990275 
L 748.559216 44.396457 
L 753.359859 42.823879 
L 758.160502 41.786389 
L 762.961144 40.991768 
L 767.761787 40.877053 
L 772.56243 40.57563 
L 777.363073 40.542111 
L 782.163716 40.687955 
L 786.964358 40.625508 
L 791.765001 40.809084 
L 796.565644 40.746028 
L 801.366287 40.702562 
L 806.16693 40.828577 
L 810.967572 41.106955 
L 815.768215 41.328909 
L 820.568858 41.420612 
L 825.369501 41.675881 
L 830.170143 41.726565 
L 834.970786 41.903523 
L 839.771429 41.902832 
L 844.572072 41.926968 
L 849.372715 43.361701 
L 854.173357 43.311565 
L 858.974 43.288064 
L 863.774643 43.276093 
L 868.575286 43.226858 
L 873.375929 43.213904 
L 878.176571 43.171625 
L 882.977214 43.170527 
L 887.777857 43.137929 
L 892.5785 43.159742 
L 897.379143 43.182937 
L 902.179785 43.20306 
L 906.980428 43.210754 
L 911.781071 43.220947 
L 916.581714 43.222843 
L 921.382357 43.219774 
L 926.182999 43.229998 
L 930.983642 43.223601 
L 935.784285 43.224532 
L 940.584928 43.221567 
L 945.38557 43.215636 
L 950.186213 43.217102 
L 954.986856 43.213171 
L 959.787499 43.210706 
L 964.588142 43.202346 
L 969.388784 43.199881 
L 974.189427 43.193986 
L 978.99007 43.192021 
L 983.790713 43.192021 
L 988.591356 43.192021 
L 993.391998 43.192021 
L 998.192641 43.192021 
L 1002.993284 43.192021 
L 1007.793927 43.192021 
L 1012.59457 43.192021 
L 1017.395212 43.192021 
L 1022.195855 43.192021 
L 1026.996498 43.192021 
L 1031.797141 43.192021 
L 1036.597784 43.192021 
L 1041.398426 43.192021 
L 1046.199069 43.192021 
L 1050.999712 43.192021 
L 1055.800355 43.192021 
L 1060.600997 43.192021 
L 1065.40164 43.192021 
L 1070.202283 43.192021 
L 1075.002926 43.192021 
L 1079.803569 43.192021 
L 1084.604211 43.192021 
L 1089.404854 43.192021 
L 1094.205497 43.192021 
L 1099.00614 43.192021 
L 1103.806783 43.192021 
L 1108.607425 43.192021 
L 1113.408068 43.192021 
" clip-path="url(#p0ab21fce7c)" style="fill: none; stroke: #ff7f0e; stroke-width: 2; stroke-linecap: square"/>
   </g>
   <g id="line2d_65">
    <path d="M 638.144432 354.257164 
L 642.945075 345.507896 
L 647.745717 357.295049 
L 652.54636 365.216728 
L 657.347003 369.681826 
L 662.147646 366.922742 
L 666.948289 370.090886 
L 671.748931 370.345398 
L 676.549574 359.281102 
L 681.350217 332.028851 
L 686.15086 326.069399 
L 690.951503 307.178644 
L 695.752145 269.852964 
L 700.552788 253.331276 
L 705.353431 226.970842 
L 710.154074 194.888299 
L 714.954716 174.82516 
L 719.755359 160.680638 
L 724.556002 152.809 
L 729.356645 146.443835 
L 734.157288 141.301855 
L 738.95793 136.38598 
L 743.758573 129.53132 
L 748.559216 124.759077 
L 753.359859 119.782417 
L 758.160502 111.831236 
L 762.961144 106.946273 
L 767.761787 101.504025 
L 772.56243 96.111827 
L 777.363073 94.058459 
L 782.163716 90.969432 
L 786.964358 88.582878 
L 791.765001 85.356095 
L 796.565644 83.62986 
L 801.366287 78.232702 
L 806.16693 79.91402 
L 810.967572 78.342227 
L 815.768215 76.913856 
L 820.568858 76.342433 
L 825.369501 76.924434 
L 830.170143 76.314291 
L 834.970786 75.379514 
L 839.771429 76.18812 
L 844.572072 73.723208 
L 849.372715 68.474667 
L 854.173357 67.565611 
L 858.974 66.477958 
L 863.774643 65.406114 
L 868.575286 66.773552 
L 873.375929 64.463943 
L 878.176571 64.698841 
L 882.977214 63.848896 
L 887.777857 62.705005 
L 892.5785 62.433725 
L 897.379143 62.074168 
L 902.179785 60.468275 
L 906.980428 58.301453 
L 911.781071 58.020901 
L 916.581714 58.332846 
L 921.382357 57.967316 
L 926.182999 57.467952 
L 930.983642 57.170216 
L 935.784285 55.644585 
L 940.584928 55.845768 
L 945.38557 53.263442 
L 950.186213 54.787491 
L 954.986856 55.129869 
L 959.787499 53.822168 
L 964.588142 52.534001 
L 969.388784 52.96002 
L 974.189427 52.578544 
L 978.99007 50.372084 
L 983.790713 50.634943 
L 988.591356 52.25631 
L 993.391998 53.410101 
L 998.192641 51.849371 
L 1002.993284 52.114126 
L 1007.793927 51.977211 
L 1012.59457 52.897914 
L 1017.395212 52.794267 
L 1022.195855 48.568375 
L 1026.996498 48.730073 
L 1031.797141 48.113314 
L 1036.597784 39.885242 
L 1041.398426 41.469945 
L 1046.199069 41.302081 
L 1050.999712 40.543415 
L 1055.800355 40.458845 
L 1060.600997 39.568011 
L 1065.40164 39.550438 
L 1070.202283 39.190663 
L 1075.002926 39.302868 
L 1079.803569 39.050274 
L 1084.604211 39.642494 
L 1089.404854 39.566511 
L 1094.205497 38.890852 
L 1099.00614 39.209027 
L 1103.806783 40.390761 
L 1108.607425 41.150273 
L 1113.408068 41.275526 
" clip-path="url(#p0ab21fce7c)" style="fill: none; stroke: #2ca02c; stroke-width: 2; stroke-linecap: square"/>
   </g>
   <g id="line2d_66">
    <path d="M 638.144432 325.528361 
L 642.945075 310.864654 
L 647.745717 294.636477 
L 652.54636 279.688438 
L 657.347003 254.981141 
L 662.147646 225.305196 
L 666.948289 200.963092 
L 671.748931 176.643378 
L 676.549574 156.761067 
L 681.350217 136.650706 
L 686.15086 118.723784 
L 690.951503 102.586158 
L 695.752145 90.037721 
L 700.552788 78.184982 
L 705.353431 69.326278 
L 710.154074 64.726827 
L 714.954716 59.133004 
L 719.755359 56.511232 
L 724.556002 54.136582 
L 729.356645 52.513866 
L 734.157288 51.191785 
L 738.95793 50.07821 
L 743.758573 48.97057 
L 748.559216 48.352815 
L 753.359859 47.648855 
L 758.160502 46.913637 
L 762.961144 46.217138 
L 767.761787 45.67524 
L 772.56243 45.209828 
L 777.363073 44.888864 
L 782.163716 44.59943 
L 786.964358 44.436884 
L 791.765001 44.417975 
L 796.565644 44.405604 
L 801.366287 44.320268 
L 806.16693 44.136499 
L 810.967572 43.93942 
L 815.768215 43.726354 
L 820.568858 43.62168 
L 825.369501 43.523537 
L 830.170143 43.437827 
L 834.970786 43.389682 
L 839.771429 43.351075 
L 844.572072 43.330679 
L 849.372715 43.327402 
L 854.173357 43.304661 
L 858.974 43.318221 
L 863.774643 43.316065 
L 868.575286 43.309471 
L 873.375929 43.316581 
L 878.176571 43.326734 
L 882.977214 43.327084 
L 887.777857 43.318099 
L 892.5785 43.29095 
L 897.379143 43.280042 
L 902.179785 43.285796 
L 906.980428 43.289155 
L 911.781071 43.297374 
L 916.581714 43.289973 
L 921.382357 43.287006 
L 926.182999 43.280607 
L 930.983642 43.279606 
L 935.784285 43.279606 
L 940.584928 43.281572 
L 945.38557 43.275674 
L 950.186213 43.268275 
L 954.986856 43.245652 
L 959.787499 43.240721 
L 964.588142 43.234324 
L 969.388784 43.230393 
L 974.189427 43.224497 
L 978.99007 43.223497 
L 983.790713 43.217102 
L 988.591356 43.210706 
L 993.391998 43.210706 
L 998.192641 43.206776 
L 1002.993284 43.206776 
L 1007.793927 43.206776 
L 1012.59457 43.204811 
L 1017.395212 43.204811 
L 1022.195855 43.210206 
L 1026.996498 43.210206 
L 1031.797141 43.207741 
L 1036.597784 43.205776 
L 1041.398426 43.205776 
L 1046.199069 43.205776 
L 1050.999712 43.203811 
L 1055.800355 43.203811 
L 1060.600997 43.203811 
L 1065.40164 43.201846 
L 1070.202283 43.199881 
L 1075.002926 43.199881 
L 1079.803569 43.199881 
L 1084.604211 43.193986 
L 1089.404854 43.193986 
L 1094.205497 43.192021 
L 1099.00614 43.192021 
L 1103.806783 43.192021 
L 1108.607425 43.192021 
L 1113.408068 43.192021 
" clip-path="url(#p0ab21fce7c)" style="fill: none; stroke: #d62728; stroke-width: 2; stroke-linecap: square"/>
   </g>
   <g id="line2d_67">
    <path d="M 638.144432 205.339185 
L 642.945075 114.72626 
L 647.745717 90.772247 
L 652.54636 100.166747 
L 657.347003 97.527912 
L 662.147646 92.133887 
L 666.948289 85.866841 
L 671.748931 78.523492 
L 676.549574 69.415998 
L 681.350217 60.484305 
L 686.15086 54.274837 
L 690.951503 49.644646 
L 695.752145 47.021122 
L 700.552788 46.900509 
L 705.353431 45.764485 
L 710.154074 44.835299 
L 714.954716 43.663547 
L 719.755359 43.30366 
L 724.556002 43.217981 
L 729.356645 43.190589 
L 734.157288 43.192021 
L 738.95793 43.192021 
L 743.758573 43.192021 
L 748.559216 43.192021 
L 753.359859 43.192021 
L 758.160502 43.192021 
L 762.961144 43.192021 
L 767.761787 43.192021 
L 772.56243 43.192021 
L 777.363073 43.192021 
L 782.163716 43.192021 
L 786.964358 43.192021 
L 791.765001 43.192021 
L 796.565644 43.192021 
L 801.366287 43.192021 
L 806.16693 43.192021 
L 810.967572 43.192021 
L 815.768215 43.192021 
L 820.568858 43.192021 
L 825.369501 43.192021 
L 830.170143 43.192021 
L 834.970786 43.192021 
L 839.771429 43.192021 
L 844.572072 43.192021 
L 849.372715 43.192021 
L 854.173357 43.192021 
L 858.974 43.192021 
L 863.774643 43.192021 
L 868.575286 43.192021 
L 873.375929 43.192021 
L 878.176571 43.192021 
L 882.977214 43.192021 
L 887.777857 43.192021 
L 892.5785 43.192021 
L 897.379143 43.192021 
L 902.179785 43.192021 
L 906.980428 43.192021 
L 911.781071 43.192021 
L 916.581714 43.192021 
L 921.382357 43.192021 
L 926.182999 43.192021 
L 930.983642 43.192021 
L 935.784285 43.192021 
L 940.584928 43.192021 
L 945.38557 43.192021 
L 950.186213 43.192021 
L 954.986856 43.192021 
L 959.787499 43.192021 
L 964.588142 43.192021 
L 969.388784 43.192021 
L 974.189427 43.192021 
L 978.99007 43.192021 
L 983.790713 43.192021 
L 988.591356 43.192021 
L 993.391998 43.192021 
L 998.192641 43.192021 
L 1002.993284 43.192021 
L 1007.793927 43.192021 
L 1012.59457 43.192021 
L 1017.395212 43.192021 
L 1022.195855 43.192021 
L 1026.996498 43.192021 
L 1031.797141 43.192021 
L 1036.597784 43.192021 
L 1041.398426 43.192021 
L 1046.199069 43.192021 
L 1050.999712 43.192021 
L 1055.800355 43.192021 
L 1060.600997 43.192021 
L 1065.40164 43.192021 
L 1070.202283 43.192021 
L 1075.002926 43.192021 
L 1079.803569 43.192021 
L 1084.604211 43.192021 
L 1089.404854 43.192021 
L 1094.205497 43.192021 
L 1099.00614 43.192021 
L 1103.806783 43.192021 
L 1108.607425 43.192021 
L 1113.408068 43.192021 
" clip-path="url(#p0ab21fce7c)" style="fill: none; stroke: #9467bd; stroke-width: 2; stroke-linecap: square"/>
   </g>
   <g id="line2d_68">
    <path d="M 638.144432 141.872308 
L 642.945075 54.999753 
L 647.745717 42.725301 
L 652.54636 41.984157 
L 657.347003 43.192021 
L 662.147646 43.192021 
L 666.948289 43.192021 
L 671.748931 43.192021 
L 676.549574 43.192021 
L 681.350217 43.192021 
L 686.15086 43.192021 
L 690.951503 43.192021 
L 695.752145 43.192021 
L 700.552788 43.192021 
L 705.353431 43.192021 
L 710.154074 43.192021 
L 714.954716 43.192021 
L 719.755359 43.192021 
L 724.556002 43.192021 
L 729.356645 43.192021 
L 734.157288 43.192021 
L 738.95793 43.192021 
L 743.758573 43.192021 
L 748.559216 43.192021 
L 753.359859 43.192021 
L 758.160502 43.192021 
L 762.961144 43.192021 
L 767.761787 43.192021 
L 772.56243 43.192021 
L 777.363073 43.192021 
L 782.163716 43.192021 
L 786.964358 43.192021 
L 791.765001 43.192021 
L 796.565644 43.192021 
L 801.366287 43.192021 
L 806.16693 43.192021 
L 810.967572 43.192021 
L 815.768215 43.192021 
L 820.568858 43.192021 
L 825.369501 43.192021 
L 830.170143 43.192021 
L 834.970786 43.192021 
L 839.771429 43.192021 
L 844.572072 43.192021 
L 849.372715 43.192021 
L 854.173357 43.192021 
L 858.974 43.192021 
L 863.774643 43.192021 
L 868.575286 43.192021 
L 873.375929 43.192021 
L 878.176571 43.192021 
L 882.977214 43.192021 
L 887.777857 43.192021 
L 892.5785 43.192021 
L 897.379143 43.192021 
L 902.179785 43.192021 
L 906.980428 43.192021 
L 911.781071 43.192021 
L 916.581714 43.192021 
L 921.382357 43.192021 
L 926.182999 43.192021 
L 930.983642 43.192021 
L 935.784285 43.192021 
L 940.584928 43.192021 
L 945.38557 43.192021 
L 950.186213 43.192021 
L 954.986856 43.192021 
L 959.787499 43.192021 
L 964.588142 43.192021 
L 969.388784 43.192021 
L 974.189427 43.192021 
L 978.99007 43.192021 
L 983.790713 43.192021 
L 988.591356 43.192021 
L 993.391998 43.192021 
L 998.192641 43.192021 
L 1002.993284 43.192021 
L 1007.793927 43.192021 
L 1012.59457 43.192021 
L 1017.395212 43.192021 
L 1022.195855 43.192021 
L 1026.996498 43.192021 
L 1031.797141 43.192021 
L 1036.597784 43.192021 
L 1041.398426 43.192021 
L 1046.199069 43.192021 
L 1050.999712 43.192021 
L 1055.800355 43.192021 
L 1060.600997 43.192021 
L 1065.40164 43.192021 
L 1070.202283 43.192021 
L 1075.002926 43.192021 
L 1079.803569 43.192021 
L 1084.604211 43.192021 
L 1089.404854 43.192021 
L 1094.205497 43.192021 
L 1099.00614 43.192021 
L 1103.806783 43.192021 
L 1108.607425 43.192021 
L 1113.408068 43.192021 
" clip-path="url(#p0ab21fce7c)" style="fill: none; stroke: #8c564b; stroke-width: 2; stroke-linecap: square"/>
   </g>
   <g id="patch_9">
    <path d="M 614.38125 386.918125 
L 614.38125 22.318125 
" style="fill: none; stroke: #000000; stroke-width: 0.8; stroke-linejoin: miter; stroke-linecap: square"/>
   </g>
   <g id="patch_10">
    <path d="M 1137.17125 386.918125 
L 1137.17125 22.318125 
" style="fill: none; stroke: #000000; stroke-width: 0.8; stroke-linejoin: miter; stroke-linecap: square"/>
   </g>
   <g id="patch_11">
    <path d="M 614.38125 386.918125 
L 1137.17125 386.918125 
" style="fill: none; stroke: #000000; stroke-width: 0.8; stroke-linejoin: miter; stroke-linecap: square"/>
   </g>
   <g id="patch_12">
    <path d="M 614.38125 22.318125 
L 1137.17125 22.318125 
" style="fill: none; stroke: #000000; stroke-width: 0.8; stroke-linejoin: miter; stroke-linecap: square"/>
   </g>
   <g id="text_37">
    <!-- F1 Score Comparison - mhealth -->
    <g transform="translate(781.151563 16.318125) scale(0.12 -0.12)">
     <use xlink:href="#DejaVuSans-46"/>
     <use xlink:href="#DejaVuSans-31" x="57.519531"/>
     <use xlink:href="#DejaVuSans-20" x="121.142578"/>
     <use xlink:href="#DejaVuSans-53" x="152.929688"/>
     <use xlink:href="#DejaVuSans-63" x="216.40625"/>
     <use xlink:href="#DejaVuSans-6f" x="271.386719"/>
     <use xlink:href="#DejaVuSans-72" x="332.568359"/>
     <use xlink:href="#DejaVuSans-65" x="371.431641"/>
     <use xlink:href="#DejaVuSans-20" x="432.955078"/>
     <use xlink:href="#DejaVuSans-43" x="464.742188"/>
     <use xlink:href="#DejaVuSans-6f" x="534.566406"/>
     <use xlink:href="#DejaVuSans-6d" x="595.748047"/>
     <use xlink:href="#DejaVuSans-70" x="693.160156"/>
     <use xlink:href="#DejaVuSans-61" x="756.636719"/>
     <use xlink:href="#DejaVuSans-72" x="817.916016"/>
     <use xlink:href="#DejaVuSans-69" x="859.029297"/>
     <use xlink:href="#DejaVuSans-73" x="886.8125"/>
     <use xlink:href="#DejaVuSans-6f" x="938.912109"/>
     <use xlink:href="#DejaVuSans-6e" x="1000.09375"/>
     <use xlink:href="#DejaVuSans-20" x="1063.472656"/>
     <use xlink:href="#DejaVuSans-2d" x="1095.259766"/>
     <use xlink:href="#DejaVuSans-20" x="1131.34375"/>
     <use xlink:href="#DejaVuSans-6d" x="1163.130859"/>
     <use xlink:href="#DejaVuSans-68" x="1260.542969"/>
     <use xlink:href="#DejaVuSans-65" x="1323.921875"/>
     <use xlink:href="#DejaVuSans-61" x="1385.445312"/>
     <use xlink:href="#DejaVuSans-6c" x="1446.724609"/>
     <use xlink:href="#DejaVuSans-74" x="1474.507812"/>
     <use xlink:href="#DejaVuSans-68" x="1513.716797"/>
    </g>
   </g>
   <g id="legend_2">
    <g id="patch_13">
     <path d="M 1055.757188 381.918125 
L 1130.17125 381.918125 
Q 1132.17125 381.918125 1132.17125 379.918125 
L 1132.17125 292.849375 
Q 1132.17125 290.849375 1130.17125 290.849375 
L 1055.757188 290.849375 
Q 1053.757188 290.849375 1053.757188 292.849375 
L 1053.757188 379.918125 
Q 1053.757188 381.918125 1055.757188 381.918125 
z
" style="fill: #ffffff; opacity: 0.8; stroke: #cccccc; stroke-linejoin: miter"/>
    </g>
    <g id="line2d_69">
     <path d="M 1057.757188 298.947812 
L 1067.757188 298.947812 
L 1077.757188 298.947812 
" style="fill: none; stroke: #1f77b4; stroke-width: 2; stroke-linecap: square"/>
    </g>
    <g id="text_38">
     <!-- fedmekt -->
     <g transform="translate(1085.757188 302.447812) scale(0.1 -0.1)">
      <use xlink:href="#DejaVuSans-66"/>
      <use xlink:href="#DejaVuSans-65" x="35.205078"/>
      <use xlink:href="#DejaVuSans-64" x="96.728516"/>
      <use xlink:href="#DejaVuSans-6d" x="160.205078"/>
      <use xlink:href="#DejaVuSans-65" x="257.617188"/>
      <use xlink:href="#DejaVuSans-6b" x="319.140625"/>
      <use xlink:href="#DejaVuSans-74" x="377.050781"/>
     </g>
    </g>
    <g id="line2d_70">
     <path d="M 1057.757188 313.625937 
L 1067.757188 313.625937 
L 1077.757188 313.625937 
" style="fill: none; stroke: #ff7f0e; stroke-width: 2; stroke-linecap: square"/>
    </g>
    <g id="text_39">
     <!-- fedproto -->
     <g transform="translate(1085.757188 317.125937) scale(0.1 -0.1)">
      <use xlink:href="#DejaVuSans-66"/>
      <use xlink:href="#DejaVuSans-65" x="35.205078"/>
      <use xlink:href="#DejaVuSans-64" x="96.728516"/>
      <use xlink:href="#DejaVuSans-70" x="160.205078"/>
      <use xlink:href="#DejaVuSans-72" x="223.681641"/>
      <use xlink:href="#DejaVuSans-6f" x="262.544922"/>
      <use xlink:href="#DejaVuSans-74" x="323.726562"/>
      <use xlink:href="#DejaVuSans-6f" x="362.935547"/>
     </g>
    </g>
    <g id="line2d_71">
     <path d="M 1057.757188 328.304062 
L 1067.757188 328.304062 
L 1077.757188 328.304062 
" style="fill: none; stroke: #2ca02c; stroke-width: 2; stroke-linecap: square"/>
    </g>
    <g id="text_40">
     <!-- fedavg -->
     <g transform="translate(1085.757188 331.804062) scale(0.1 -0.1)">
      <use xlink:href="#DejaVuSans-66"/>
      <use xlink:href="#DejaVuSans-65" x="35.205078"/>
      <use xlink:href="#DejaVuSans-64" x="96.728516"/>
      <use xlink:href="#DejaVuSans-61" x="160.205078"/>
      <use xlink:href="#DejaVuSans-76" x="221.484375"/>
      <use xlink:href="#DejaVuSans-67" x="280.664062"/>
     </g>
    </g>
    <g id="line2d_72">
     <path d="M 1057.757188 342.982187 
L 1067.757188 342.982187 
L 1077.757188 342.982187 
" style="fill: none; stroke: #d62728; stroke-width: 2; stroke-linecap: square"/>
    </g>
    <g id="text_41">
     <!-- fedcent -->
     <g transform="translate(1085.757188 346.482187) scale(0.1 -0.1)">
      <use xlink:href="#DejaVuSans-66"/>
      <use xlink:href="#DejaVuSans-65" x="35.205078"/>
      <use xlink:href="#DejaVuSans-64" x="96.728516"/>
      <use xlink:href="#DejaVuSans-63" x="160.205078"/>
      <use xlink:href="#DejaVuSans-65" x="215.185547"/>
      <use xlink:href="#DejaVuSans-6e" x="276.708984"/>
      <use xlink:href="#DejaVuSans-74" x="340.087891"/>
     </g>
    </g>
    <g id="line2d_73">
     <path d="M 1057.757188 357.660312 
L 1067.757188 357.660312 
L 1077.757188 357.660312 
" style="fill: none; stroke: #9467bd; stroke-width: 2; stroke-linecap: square"/>
    </g>
    <g id="text_42">
     <!-- fedprox -->
     <g transform="translate(1085.757188 361.160312) scale(0.1 -0.1)">
      <use xlink:href="#DejaVuSans-66"/>
      <use xlink:href="#DejaVuSans-65" x="35.205078"/>
      <use xlink:href="#DejaVuSans-64" x="96.728516"/>
      <use xlink:href="#DejaVuSans-70" x="160.205078"/>
      <use xlink:href="#DejaVuSans-72" x="223.681641"/>
      <use xlink:href="#DejaVuSans-6f" x="262.544922"/>
      <use xlink:href="#DejaVuSans-78" x="320.601562"/>
     </g>
    </g>
    <g id="line2d_74">
     <path d="M 1057.757188 372.338437 
L 1067.757188 372.338437 
L 1077.757188 372.338437 
" style="fill: none; stroke: #8c564b; stroke-width: 2; stroke-linecap: square"/>
    </g>
    <g id="text_43">
     <!-- fedprop -->
     <g transform="translate(1085.757188 375.838437) scale(0.1 -0.1)">
      <use xlink:href="#DejaVuSans-66"/>
      <use xlink:href="#DejaVuSans-65" x="35.205078"/>
      <use xlink:href="#DejaVuSans-64" x="96.728516"/>
      <use xlink:href="#DejaVuSans-70" x="160.205078"/>
      <use xlink:href="#DejaVuSans-72" x="223.681641"/>
      <use xlink:href="#DejaVuSans-6f" x="262.544922"/>
      <use xlink:href="#DejaVuSans-70" x="323.726562"/>
     </g>
    </g>
   </g>
  </g>
 </g>
 <defs>
  <clipPath id="p871756a5b7">
   <rect x="43.78125" y="22.318125" width="522.79" height="364.6"/>
  </clipPath>
  <clipPath id="p0ab21fce7c">
   <rect x="614.38125" y="22.318125" width="522.79" height="364.6"/>
  </clipPath>
 </defs>
</svg>
