<?xml version="1.0" encoding="utf-8" standalone="no"?>
<!DOCTYPE svg PUBLIC "-//W3C//DTD SVG 1.1//EN"
  "http://www.w3.org/Graphics/SVG/1.1/DTD/svg11.dtd">
<svg xmlns:xlink="http://www.w3.org/1999/xlink" width="1144.46125pt" height="423.034375pt" viewBox="0 0 1144.46125 423.034375" xmlns="http://www.w3.org/2000/svg" version="1.1">
 <metadata>
  <rdf:RDF xmlns:dc="http://purl.org/dc/elements/1.1/" xmlns:cc="http://creativecommons.org/ns#" xmlns:rdf="http://www.w3.org/1999/02/22-rdf-syntax-ns#">
   <cc:Work>
    <dc:type rdf:resource="http://purl.org/dc/dcmitype/StillImage"/>
    <dc:date>2026-01-14T13:48:35.539315</dc:date>
    <dc:format>image/svg+xml</dc:format>
    <dc:creator>
     <cc:Agent>
      <dc:title>Matplotlib v3.9.4, https://matplotlib.org/</dc:title>
     </cc:Agent>
    </dc:creator>
   </cc:Work>
  </rdf:RDF>
 </metadata>
 <defs>
  <style type="text/css">*{stroke-linejoin: round; stroke-linecap: butt}</style>
 </defs>
 <g id="figure_1">
  <g id="patch_1">
   <path d="M 0 423.034375 
L 1144.46125 423.034375 
L 1144.46125 0 
L 0 0 
z
" style="fill: #ffffff"/>
  </g>
  <g id="axes_1">
   <g id="patch_2">
    <path d="M 43.78125 385.478125 
L 566.66125 385.478125 
L 566.66125 22.318125 
L 43.78125 22.318125 
z
" style="fill: #ffffff"/>
   </g>
   <g id="matplotlib.axis_1">
    <g id="xtick_1">
     <g id="line2d_1">
      <path d="M 62.747053 385.478125 
L 62.747053 22.318125 
" clip-path="url(#pd6a9244b45)" style="fill: none; stroke: #b0b0b0; stroke-opacity: 0.3; stroke-width: 0.8; stroke-linecap: square"/>
     </g>
     <g id="line2d_2">
      <defs>
       <path id="m26c465638d" d="M 0 0 
L 0 3.5 
" style="stroke: #000000; stroke-width: 0.8"/>
      </defs>
      <g>
       <use xlink:href="#m26c465638d" x="62.747053" y="385.478125" style="stroke: #000000; stroke-width: 0.8"/>
      </g>
     </g>
     <g id="text_1">
      <!-- 0 -->
      <g transform="translate(59.565803 400.076562) scale(0.1 -0.1)">
       <defs>
        <path id="DejaVuSans-30" d="M 2034 4250 
Q 1547 4250 1301 3770 
Q 1056 3291 1056 2328 
Q 1056 1369 1301 889 
Q 1547 409 2034 409 
Q 2525 409 2770 889 
Q 3016 1369 3016 2328 
Q 3016 3291 2770 3770 
Q 2525 4250 2034 4250 
z
M 2034 4750 
Q 2819 4750 3233 4129 
Q 3647 3509 3647 2328 
Q 3647 1150 3233 529 
Q 2819 -91 2034 -91 
Q 1250 -91 836 529 
Q 422 1150 422 2328 
Q 422 3509 836 4129 
Q 1250 4750 2034 4750 
z
" transform="scale(0.015625)"/>
       </defs>
       <use xlink:href="#DejaVuSans-30"/>
      </g>
     </g>
    </g>
    <g id="xtick_2">
     <g id="line2d_3">
      <path d="M 158.776438 385.478125 
L 158.776438 22.318125 
" clip-path="url(#pd6a9244b45)" style="fill: none; stroke: #b0b0b0; stroke-opacity: 0.3; stroke-width: 0.8; stroke-linecap: square"/>
     </g>
     <g id="line2d_4">
      <g>
       <use xlink:href="#m26c465638d" x="158.776438" y="385.478125" style="stroke: #000000; stroke-width: 0.8"/>
      </g>
     </g>
     <g id="text_2">
      <!-- 20 -->
      <g transform="translate(152.413938 400.076562) scale(0.1 -0.1)">
       <defs>
        <path id="DejaVuSans-32" d="M 1228 531 
L 3431 531 
L 3431 0 
L 469 0 
L 469 531 
Q 828 903 1448 1529 
Q 2069 2156 2228 2338 
Q 2531 2678 2651 2914 
Q 2772 3150 2772 3378 
Q 2772 3750 2511 3984 
Q 2250 4219 1831 4219 
Q 1534 4219 1204 4116 
Q 875 4013 500 3803 
L 500 4441 
Q 881 4594 1212 4672 
Q 1544 4750 1819 4750 
Q 2544 4750 2975 4387 
Q 3406 4025 3406 3419 
Q 3406 3131 3298 2873 
Q 3191 2616 2906 2266 
Q 2828 2175 2409 1742 
Q 1991 1309 1228 531 
z
" transform="scale(0.015625)"/>
       </defs>
       <use xlink:href="#DejaVuSans-32"/>
       <use xlink:href="#DejaVuSans-30" x="63.623047"/>
      </g>
     </g>
    </g>
    <g id="xtick_3">
     <g id="line2d_5">
      <path d="M 254.805823 385.478125 
L 254.805823 22.318125 
" clip-path="url(#pd6a9244b45)" style="fill: none; stroke: #b0b0b0; stroke-opacity: 0.3; stroke-width: 0.8; stroke-linecap: square"/>
     </g>
     <g id="line2d_6">
      <g>
       <use xlink:href="#m26c465638d" x="254.805823" y="385.478125" style="stroke: #000000; stroke-width: 0.8"/>
      </g>
     </g>
     <g id="text_3">
      <!-- 40 -->
      <g transform="translate(248.443323 400.076562) scale(0.1 -0.1)">
       <defs>
        <path id="DejaVuSans-34" d="M 2419 4116 
L 825 1625 
L 2419 1625 
L 2419 4116 
z
M 2253 4666 
L 3047 4666 
L 3047 1625 
L 3713 1625 
L 3713 1100 
L 3047 1100 
L 3047 0 
L 2419 0 
L 2419 1100 
L 313 1100 
L 313 1709 
L 2253 4666 
z
" transform="scale(0.015625)"/>
       </defs>
       <use xlink:href="#DejaVuSans-34"/>
       <use xlink:href="#DejaVuSans-30" x="63.623047"/>
      </g>
     </g>
    </g>
    <g id="xtick_4">
     <g id="line2d_7">
      <path d="M 350.835208 385.478125 
L 350.835208 22.318125 
" clip-path="url(#pd6a9244b45)" style="fill: none; stroke: #b0b0b0; stroke-opacity: 0.3; stroke-width: 0.8; stroke-linecap: square"/>
     </g>
     <g id="line2d_8">
      <g>
       <use xlink:href="#m26c465638d" x="350.835208" y="385.478125" style="stroke: #000000; stroke-width: 0.8"/>
      </g>
     </g>
     <g id="text_4">
      <!-- 60 -->
      <g transform="translate(344.472708 400.076562) scale(0.1 -0.1)">
       <defs>
        <path id="DejaVuSans-36" d="M 2113 2584 
Q 1688 2584 1439 2293 
Q 1191 2003 1191 1497 
Q 1191 994 1439 701 
Q 1688 409 2113 409 
Q 2538 409 2786 701 
Q 3034 994 3034 1497 
Q 3034 2003 2786 2293 
Q 2538 2584 2113 2584 
z
M 3366 4563 
L 3366 3988 
Q 3128 4100 2886 4159 
Q 2644 4219 2406 4219 
Q 1781 4219 1451 3797 
Q 1122 3375 1075 2522 
Q 1259 2794 1537 2939 
Q 1816 3084 2150 3084 
Q 2853 3084 3261 2657 
Q 3669 2231 3669 1497 
Q 3669 778 3244 343 
Q 2819 -91 2113 -91 
Q 1303 -91 875 529 
Q 447 1150 447 2328 
Q 447 3434 972 4092 
Q 1497 4750 2381 4750 
Q 2619 4750 2861 4703 
Q 3103 4656 3366 4563 
z
" transform="scale(0.015625)"/>
       </defs>
       <use xlink:href="#DejaVuSans-36"/>
       <use xlink:href="#DejaVuSans-30" x="63.623047"/>
      </g>
     </g>
    </g>
    <g id="xtick_5">
     <g id="line2d_9">
      <path d="M 446.864593 385.478125 
L 446.864593 22.318125 
" clip-path="url(#pd6a9244b45)" style="fill: none; stroke: #b0b0b0; stroke-opacity: 0.3; stroke-width: 0.8; stroke-linecap: square"/>
     </g>
     <g id="line2d_10">
      <g>
       <use xlink:href="#m26c465638d" x="446.864593" y="385.478125" style="stroke: #000000; stroke-width: 0.8"/>
      </g>
     </g>
     <g id="text_5">
      <!-- 80 -->
      <g transform="translate(440.502093 400.076562) scale(0.1 -0.1)">
       <defs>
        <path id="DejaVuSans-38" d="M 2034 2216 
Q 1584 2216 1326 1975 
Q 1069 1734 1069 1313 
Q 1069 891 1326 650 
Q 1584 409 2034 409 
Q 2484 409 2743 651 
Q 3003 894 3003 1313 
Q 3003 1734 2745 1975 
Q 2488 2216 2034 2216 
z
M 1403 2484 
Q 997 2584 770 2862 
Q 544 3141 544 3541 
Q 544 4100 942 4425 
Q 1341 4750 2034 4750 
Q 2731 4750 3128 4425 
Q 3525 4100 3525 3541 
Q 3525 3141 3298 2862 
Q 3072 2584 2669 2484 
Q 3125 2378 3379 2068 
Q 3634 1759 3634 1313 
Q 3634 634 3220 271 
Q 2806 -91 2034 -91 
Q 1263 -91 848 271 
Q 434 634 434 1313 
Q 434 1759 690 2068 
Q 947 2378 1403 2484 
z
M 1172 3481 
Q 1172 3119 1398 2916 
Q 1625 2713 2034 2713 
Q 2441 2713 2670 2916 
Q 2900 3119 2900 3481 
Q 2900 3844 2670 4047 
Q 2441 4250 2034 4250 
Q 1625 4250 1398 4047 
Q 1172 3844 1172 3481 
z
" transform="scale(0.015625)"/>
       </defs>
       <use xlink:href="#DejaVuSans-38"/>
       <use xlink:href="#DejaVuSans-30" x="63.623047"/>
      </g>
     </g>
    </g>
    <g id="xtick_6">
     <g id="line2d_11">
      <path d="M 542.893977 385.478125 
L 542.893977 22.318125 
" clip-path="url(#pd6a9244b45)" style="fill: none; stroke: #b0b0b0; stroke-opacity: 0.3; stroke-width: 0.8; stroke-linecap: square"/>
     </g>
     <g id="line2d_12">
      <g>
       <use xlink:href="#m26c465638d" x="542.893977" y="385.478125" style="stroke: #000000; stroke-width: 0.8"/>
      </g>
     </g>
     <g id="text_6">
      <!-- 100 -->
      <g transform="translate(533.350227 400.076562) scale(0.1 -0.1)">
       <defs>
        <path id="DejaVuSans-31" d="M 794 531 
L 1825 531 
L 1825 4091 
L 703 3866 
L 703 4441 
L 1819 4666 
L 2450 4666 
L 2450 531 
L 3481 531 
L 3481 0 
L 794 0 
L 794 531 
z
" transform="scale(0.015625)"/>
       </defs>
       <use xlink:href="#DejaVuSans-31"/>
       <use xlink:href="#DejaVuSans-30" x="63.623047"/>
       <use xlink:href="#DejaVuSans-30" x="127.246094"/>
      </g>
     </g>
    </g>
    <g id="text_7">
     <!-- Communication Rounds -->
     <g transform="translate(245.798594 413.754687) scale(0.1 -0.1)">
      <defs>
       <path id="DejaVuSans-43" d="M 4122 4306 
L 4122 3641 
Q 3803 3938 3442 4084 
Q 3081 4231 2675 4231 
Q 1875 4231 1450 3742 
Q 1025 3253 1025 2328 
Q 1025 1406 1450 917 
Q 1875 428 2675 428 
Q 3081 428 3442 575 
Q 3803 722 4122 1019 
L 4122 359 
Q 3791 134 3420 21 
Q 3050 -91 2638 -91 
Q 1578 -91 968 557 
Q 359 1206 359 2328 
Q 359 3453 968 4101 
Q 1578 4750 2638 4750 
Q 3056 4750 3426 4639 
Q 3797 4528 4122 4306 
z
" transform="scale(0.015625)"/>
       <path id="DejaVuSans-6f" d="M 1959 3097 
Q 1497 3097 1228 2736 
Q 959 2375 959 1747 
Q 959 1119 1226 758 
Q 1494 397 1959 397 
Q 2419 397 2687 759 
Q 2956 1122 2956 1747 
Q 2956 2369 2687 2733 
Q 2419 3097 1959 3097 
z
M 1959 3584 
Q 2709 3584 3137 3096 
Q 3566 2609 3566 1747 
Q 3566 888 3137 398 
Q 2709 -91 1959 -91 
Q 1206 -91 779 398 
Q 353 888 353 1747 
Q 353 2609 779 3096 
Q 1206 3584 1959 3584 
z
" transform="scale(0.015625)"/>
       <path id="DejaVuSans-6d" d="M 3328 2828 
Q 3544 3216 3844 3400 
Q 4144 3584 4550 3584 
Q 5097 3584 5394 3201 
Q 5691 2819 5691 2113 
L 5691 0 
L 5113 0 
L 5113 2094 
Q 5113 2597 4934 2840 
Q 4756 3084 4391 3084 
Q 3944 3084 3684 2787 
Q 3425 2491 3425 1978 
L 3425 0 
L 2847 0 
L 2847 2094 
Q 2847 2600 2669 2842 
Q 2491 3084 2119 3084 
Q 1678 3084 1418 2786 
Q 1159 2488 1159 1978 
L 1159 0 
L 581 0 
L 581 3500 
L 1159 3500 
L 1159 2956 
Q 1356 3278 1631 3431 
Q 1906 3584 2284 3584 
Q 2666 3584 2933 3390 
Q 3200 3197 3328 2828 
z
" transform="scale(0.015625)"/>
       <path id="DejaVuSans-75" d="M 544 1381 
L 544 3500 
L 1119 3500 
L 1119 1403 
Q 1119 906 1312 657 
Q 1506 409 1894 409 
Q 2359 409 2629 706 
Q 2900 1003 2900 1516 
L 2900 3500 
L 3475 3500 
L 3475 0 
L 2900 0 
L 2900 538 
Q 2691 219 2414 64 
Q 2138 -91 1772 -91 
Q 1169 -91 856 284 
Q 544 659 544 1381 
z
M 1991 3584 
L 1991 3584 
z
" transform="scale(0.015625)"/>
       <path id="DejaVuSans-6e" d="M 3513 2113 
L 3513 0 
L 2938 0 
L 2938 2094 
Q 2938 2591 2744 2837 
Q 2550 3084 2163 3084 
Q 1697 3084 1428 2787 
Q 1159 2491 1159 1978 
L 1159 0 
L 581 0 
L 581 3500 
L 1159 3500 
L 1159 2956 
Q 1366 3272 1645 3428 
Q 1925 3584 2291 3584 
Q 2894 3584 3203 3211 
Q 3513 2838 3513 2113 
z
" transform="scale(0.015625)"/>
       <path id="DejaVuSans-69" d="M 603 3500 
L 1178 3500 
L 1178 0 
L 603 0 
L 603 3500 
z
M 603 4863 
L 1178 4863 
L 1178 4134 
L 603 4134 
L 603 4863 
z
" transform="scale(0.015625)"/>
       <path id="DejaVuSans-63" d="M 3122 3366 
L 3122 2828 
Q 2878 2963 2633 3030 
Q 2388 3097 2138 3097 
Q 1578 3097 1268 2742 
Q 959 2388 959 1747 
Q 959 1106 1268 751 
Q 1578 397 2138 397 
Q 2388 397 2633 464 
Q 2878 531 3122 666 
L 3122 134 
Q 2881 22 2623 -34 
Q 2366 -91 2075 -91 
Q 1284 -91 818 406 
Q 353 903 353 1747 
Q 353 2603 823 3093 
Q 1294 3584 2113 3584 
Q 2378 3584 2631 3529 
Q 2884 3475 3122 3366 
z
" transform="scale(0.015625)"/>
       <path id="DejaVuSans-61" d="M 2194 1759 
Q 1497 1759 1228 1600 
Q 959 1441 959 1056 
Q 959 750 1161 570 
Q 1363 391 1709 391 
Q 2188 391 2477 730 
Q 2766 1069 2766 1631 
L 2766 1759 
L 2194 1759 
z
M 3341 1997 
L 3341 0 
L 2766 0 
L 2766 531 
Q 2569 213 2275 61 
Q 1981 -91 1556 -91 
Q 1019 -91 701 211 
Q 384 513 384 1019 
Q 384 1609 779 1909 
Q 1175 2209 1959 2209 
L 2766 2209 
L 2766 2266 
Q 2766 2663 2505 2880 
Q 2244 3097 1772 3097 
Q 1472 3097 1187 3025 
Q 903 2953 641 2809 
L 641 3341 
Q 956 3463 1253 3523 
Q 1550 3584 1831 3584 
Q 2591 3584 2966 3190 
Q 3341 2797 3341 1997 
z
" transform="scale(0.015625)"/>
       <path id="DejaVuSans-74" d="M 1172 4494 
L 1172 3500 
L 2356 3500 
L 2356 3053 
L 1172 3053 
L 1172 1153 
Q 1172 725 1289 603 
Q 1406 481 1766 481 
L 2356 481 
L 2356 0 
L 1766 0 
Q 1100 0 847 248 
Q 594 497 594 1153 
L 594 3053 
L 172 3053 
L 172 3500 
L 594 3500 
L 594 4494 
L 1172 4494 
z
" transform="scale(0.015625)"/>
       <path id="DejaVuSans-20" transform="scale(0.015625)"/>
       <path id="DejaVuSans-52" d="M 2841 2188 
Q 3044 2119 3236 1894 
Q 3428 1669 3622 1275 
L 4263 0 
L 3584 0 
L 2988 1197 
Q 2756 1666 2539 1819 
Q 2322 1972 1947 1972 
L 1259 1972 
L 1259 0 
L 628 0 
L 628 4666 
L 2053 4666 
Q 2853 4666 3247 4331 
Q 3641 3997 3641 3322 
Q 3641 2881 3436 2590 
Q 3231 2300 2841 2188 
z
M 1259 4147 
L 1259 2491 
L 2053 2491 
Q 2509 2491 2742 2702 
Q 2975 2913 2975 3322 
Q 2975 3731 2742 3939 
Q 2509 4147 2053 4147 
L 1259 4147 
z
" transform="scale(0.015625)"/>
       <path id="DejaVuSans-64" d="M 2906 2969 
L 2906 4863 
L 3481 4863 
L 3481 0 
L 2906 0 
L 2906 525 
Q 2725 213 2448 61 
Q 2172 -91 1784 -91 
Q 1150 -91 751 415 
Q 353 922 353 1747 
Q 353 2572 751 3078 
Q 1150 3584 1784 3584 
Q 2172 3584 2448 3432 
Q 2725 3281 2906 2969 
z
M 947 1747 
Q 947 1113 1208 752 
Q 1469 391 1925 391 
Q 2381 391 2643 752 
Q 2906 1113 2906 1747 
Q 2906 2381 2643 2742 
Q 2381 3103 1925 3103 
Q 1469 3103 1208 2742 
Q 947 2381 947 1747 
z
" transform="scale(0.015625)"/>
       <path id="DejaVuSans-73" d="M 2834 3397 
L 2834 2853 
Q 2591 2978 2328 3040 
Q 2066 3103 1784 3103 
Q 1356 3103 1142 2972 
Q 928 2841 928 2578 
Q 928 2378 1081 2264 
Q 1234 2150 1697 2047 
L 1894 2003 
Q 2506 1872 2764 1633 
Q 3022 1394 3022 966 
Q 3022 478 2636 193 
Q 2250 -91 1575 -91 
Q 1294 -91 989 -36 
Q 684 19 347 128 
L 347 722 
Q 666 556 975 473 
Q 1284 391 1588 391 
Q 1994 391 2212 530 
Q 2431 669 2431 922 
Q 2431 1156 2273 1281 
Q 2116 1406 1581 1522 
L 1381 1569 
Q 847 1681 609 1914 
Q 372 2147 372 2553 
Q 372 3047 722 3315 
Q 1072 3584 1716 3584 
Q 2034 3584 2315 3537 
Q 2597 3491 2834 3397 
z
" transform="scale(0.015625)"/>
      </defs>
      <use xlink:href="#DejaVuSans-43"/>
      <use xlink:href="#DejaVuSans-6f" x="69.824219"/>
      <use xlink:href="#DejaVuSans-6d" x="131.005859"/>
      <use xlink:href="#DejaVuSans-6d" x="228.417969"/>
      <use xlink:href="#DejaVuSans-75" x="325.830078"/>
      <use xlink:href="#DejaVuSans-6e" x="389.208984"/>
      <use xlink:href="#DejaVuSans-69" x="452.587891"/>
      <use xlink:href="#DejaVuSans-63" x="480.371094"/>
      <use xlink:href="#DejaVuSans-61" x="535.351562"/>
      <use xlink:href="#DejaVuSans-74" x="596.630859"/>
      <use xlink:href="#DejaVuSans-69" x="635.839844"/>
      <use xlink:href="#DejaVuSans-6f" x="663.623047"/>
      <use xlink:href="#DejaVuSans-6e" x="724.804688"/>
      <use xlink:href="#DejaVuSans-20" x="788.183594"/>
      <use xlink:href="#DejaVuSans-52" x="819.970703"/>
      <use xlink:href="#DejaVuSans-6f" x="884.953125"/>
      <use xlink:href="#DejaVuSans-75" x="946.134766"/>
      <use xlink:href="#DejaVuSans-6e" x="1009.513672"/>
      <use xlink:href="#DejaVuSans-64" x="1072.892578"/>
      <use xlink:href="#DejaVuSans-73" x="1136.369141"/>
     </g>
    </g>
   </g>
   <g id="matplotlib.axis_2">
    <g id="ytick_1">
     <g id="line2d_13">
      <path d="M 43.78125 373.461782 
L 566.66125 373.461782 
" clip-path="url(#pd6a9244b45)" style="fill: none; stroke: #b0b0b0; stroke-opacity: 0.3; stroke-width: 0.8; stroke-linecap: square"/>
     </g>
     <g id="line2d_14">
      <defs>
       <path id="mfaa5dc987b" d="M 0 0 
L -3.5 0 
" style="stroke: #000000; stroke-width: 0.8"/>
      </defs>
      <g>
       <use xlink:href="#mfaa5dc987b" x="43.78125" y="373.461782" style="stroke: #000000; stroke-width: 0.8"/>
      </g>
     </g>
     <g id="text_8">
      <!-- 0.0 -->
      <g transform="translate(20.878125 377.261001) scale(0.1 -0.1)">
       <defs>
        <path id="DejaVuSans-2e" d="M 684 794 
L 1344 794 
L 1344 0 
L 684 0 
L 684 794 
z
" transform="scale(0.015625)"/>
       </defs>
       <use xlink:href="#DejaVuSans-30"/>
       <use xlink:href="#DejaVuSans-2e" x="63.623047"/>
       <use xlink:href="#DejaVuSans-30" x="95.410156"/>
      </g>
     </g>
    </g>
    <g id="ytick_2">
     <g id="line2d_15">
      <path d="M 43.78125 331.428101 
L 566.66125 331.428101 
" clip-path="url(#pd6a9244b45)" style="fill: none; stroke: #b0b0b0; stroke-opacity: 0.3; stroke-width: 0.8; stroke-linecap: square"/>
     </g>
     <g id="line2d_16">
      <g>
       <use xlink:href="#mfaa5dc987b" x="43.78125" y="331.428101" style="stroke: #000000; stroke-width: 0.8"/>
      </g>
     </g>
     <g id="text_9">
      <!-- 0.1 -->
      <g transform="translate(20.878125 335.227319) scale(0.1 -0.1)">
       <use xlink:href="#DejaVuSans-30"/>
       <use xlink:href="#DejaVuSans-2e" x="63.623047"/>
       <use xlink:href="#DejaVuSans-31" x="95.410156"/>
      </g>
     </g>
    </g>
    <g id="ytick_3">
     <g id="line2d_17">
      <path d="M 43.78125 289.39442 
L 566.66125 289.39442 
" clip-path="url(#pd6a9244b45)" style="fill: none; stroke: #b0b0b0; stroke-opacity: 0.3; stroke-width: 0.8; stroke-linecap: square"/>
     </g>
     <g id="line2d_18">
      <g>
       <use xlink:href="#mfaa5dc987b" x="43.78125" y="289.39442" style="stroke: #000000; stroke-width: 0.8"/>
      </g>
     </g>
     <g id="text_10">
      <!-- 0.2 -->
      <g transform="translate(20.878125 293.193638) scale(0.1 -0.1)">
       <use xlink:href="#DejaVuSans-30"/>
       <use xlink:href="#DejaVuSans-2e" x="63.623047"/>
       <use xlink:href="#DejaVuSans-32" x="95.410156"/>
      </g>
     </g>
    </g>
    <g id="ytick_4">
     <g id="line2d_19">
      <path d="M 43.78125 247.360738 
L 566.66125 247.360738 
" clip-path="url(#pd6a9244b45)" style="fill: none; stroke: #b0b0b0; stroke-opacity: 0.3; stroke-width: 0.8; stroke-linecap: square"/>
     </g>
     <g id="line2d_20">
      <g>
       <use xlink:href="#mfaa5dc987b" x="43.78125" y="247.360738" style="stroke: #000000; stroke-width: 0.8"/>
      </g>
     </g>
     <g id="text_11">
      <!-- 0.3 -->
      <g transform="translate(20.878125 251.159957) scale(0.1 -0.1)">
       <defs>
        <path id="DejaVuSans-33" d="M 2597 2516 
Q 3050 2419 3304 2112 
Q 3559 1806 3559 1356 
Q 3559 666 3084 287 
Q 2609 -91 1734 -91 
Q 1441 -91 1130 -33 
Q 819 25 488 141 
L 488 750 
Q 750 597 1062 519 
Q 1375 441 1716 441 
Q 2309 441 2620 675 
Q 2931 909 2931 1356 
Q 2931 1769 2642 2001 
Q 2353 2234 1838 2234 
L 1294 2234 
L 1294 2753 
L 1863 2753 
Q 2328 2753 2575 2939 
Q 2822 3125 2822 3475 
Q 2822 3834 2567 4026 
Q 2313 4219 1838 4219 
Q 1578 4219 1281 4162 
Q 984 4106 628 3988 
L 628 4550 
Q 988 4650 1302 4700 
Q 1616 4750 1894 4750 
Q 2613 4750 3031 4423 
Q 3450 4097 3450 3541 
Q 3450 3153 3228 2886 
Q 3006 2619 2597 2516 
z
" transform="scale(0.015625)"/>
       </defs>
       <use xlink:href="#DejaVuSans-30"/>
       <use xlink:href="#DejaVuSans-2e" x="63.623047"/>
       <use xlink:href="#DejaVuSans-33" x="95.410156"/>
      </g>
     </g>
    </g>
    <g id="ytick_5">
     <g id="line2d_21">
      <path d="M 43.78125 205.327057 
L 566.66125 205.327057 
" clip-path="url(#pd6a9244b45)" style="fill: none; stroke: #b0b0b0; stroke-opacity: 0.3; stroke-width: 0.8; stroke-linecap: square"/>
     </g>
     <g id="line2d_22">
      <g>
       <use xlink:href="#mfaa5dc987b" x="43.78125" y="205.327057" style="stroke: #000000; stroke-width: 0.8"/>
      </g>
     </g>
     <g id="text_12">
      <!-- 0.4 -->
      <g transform="translate(20.878125 209.126276) scale(0.1 -0.1)">
       <use xlink:href="#DejaVuSans-30"/>
       <use xlink:href="#DejaVuSans-2e" x="63.623047"/>
       <use xlink:href="#DejaVuSans-34" x="95.410156"/>
      </g>
     </g>
    </g>
    <g id="ytick_6">
     <g id="line2d_23">
      <path d="M 43.78125 163.293376 
L 566.66125 163.293376 
" clip-path="url(#pd6a9244b45)" style="fill: none; stroke: #b0b0b0; stroke-opacity: 0.3; stroke-width: 0.8; stroke-linecap: square"/>
     </g>
     <g id="line2d_24">
      <g>
       <use xlink:href="#mfaa5dc987b" x="43.78125" y="163.293376" style="stroke: #000000; stroke-width: 0.8"/>
      </g>
     </g>
     <g id="text_13">
      <!-- 0.5 -->
      <g transform="translate(20.878125 167.092595) scale(0.1 -0.1)">
       <defs>
        <path id="DejaVuSans-35" d="M 691 4666 
L 3169 4666 
L 3169 4134 
L 1269 4134 
L 1269 2991 
Q 1406 3038 1543 3061 
Q 1681 3084 1819 3084 
Q 2600 3084 3056 2656 
Q 3513 2228 3513 1497 
Q 3513 744 3044 326 
Q 2575 -91 1722 -91 
Q 1428 -91 1123 -41 
Q 819 9 494 109 
L 494 744 
Q 775 591 1075 516 
Q 1375 441 1709 441 
Q 2250 441 2565 725 
Q 2881 1009 2881 1497 
Q 2881 1984 2565 2268 
Q 2250 2553 1709 2553 
Q 1456 2553 1204 2497 
Q 953 2441 691 2322 
L 691 4666 
z
" transform="scale(0.015625)"/>
       </defs>
       <use xlink:href="#DejaVuSans-30"/>
       <use xlink:href="#DejaVuSans-2e" x="63.623047"/>
       <use xlink:href="#DejaVuSans-35" x="95.410156"/>
      </g>
     </g>
    </g>
    <g id="ytick_7">
     <g id="line2d_25">
      <path d="M 43.78125 121.259695 
L 566.66125 121.259695 
" clip-path="url(#pd6a9244b45)" style="fill: none; stroke: #b0b0b0; stroke-opacity: 0.3; stroke-width: 0.8; stroke-linecap: square"/>
     </g>
     <g id="line2d_26">
      <g>
       <use xlink:href="#mfaa5dc987b" x="43.78125" y="121.259695" style="stroke: #000000; stroke-width: 0.8"/>
      </g>
     </g>
     <g id="text_14">
      <!-- 0.6 -->
      <g transform="translate(20.878125 125.058914) scale(0.1 -0.1)">
       <use xlink:href="#DejaVuSans-30"/>
       <use xlink:href="#DejaVuSans-2e" x="63.623047"/>
       <use xlink:href="#DejaVuSans-36" x="95.410156"/>
      </g>
     </g>
    </g>
    <g id="ytick_8">
     <g id="line2d_27">
      <path d="M 43.78125 79.226014 
L 566.66125 79.226014 
" clip-path="url(#pd6a9244b45)" style="fill: none; stroke: #b0b0b0; stroke-opacity: 0.3; stroke-width: 0.8; stroke-linecap: square"/>
     </g>
     <g id="line2d_28">
      <g>
       <use xlink:href="#mfaa5dc987b" x="43.78125" y="79.226014" style="stroke: #000000; stroke-width: 0.8"/>
      </g>
     </g>
     <g id="text_15">
      <!-- 0.7 -->
      <g transform="translate(20.878125 83.025232) scale(0.1 -0.1)">
       <defs>
        <path id="DejaVuSans-37" d="M 525 4666 
L 3525 4666 
L 3525 4397 
L 1831 0 
L 1172 0 
L 2766 4134 
L 525 4134 
L 525 4666 
z
" transform="scale(0.015625)"/>
       </defs>
       <use xlink:href="#DejaVuSans-30"/>
       <use xlink:href="#DejaVuSans-2e" x="63.623047"/>
       <use xlink:href="#DejaVuSans-37" x="95.410156"/>
      </g>
     </g>
    </g>
    <g id="ytick_9">
     <g id="line2d_29">
      <path d="M 43.78125 37.192332 
L 566.66125 37.192332 
" clip-path="url(#pd6a9244b45)" style="fill: none; stroke: #b0b0b0; stroke-opacity: 0.3; stroke-width: 0.8; stroke-linecap: square"/>
     </g>
     <g id="line2d_30">
      <g>
       <use xlink:href="#mfaa5dc987b" x="43.78125" y="37.192332" style="stroke: #000000; stroke-width: 0.8"/>
      </g>
     </g>
     <g id="text_16">
      <!-- 0.8 -->
      <g transform="translate(20.878125 40.991551) scale(0.1 -0.1)">
       <use xlink:href="#DejaVuSans-30"/>
       <use xlink:href="#DejaVuSans-2e" x="63.623047"/>
       <use xlink:href="#DejaVuSans-38" x="95.410156"/>
      </g>
     </g>
    </g>
    <g id="text_17">
     <!-- Global Accuracy -->
     <g transform="translate(14.798438 244.265312) rotate(-90) scale(0.1 -0.1)">
      <defs>
       <path id="DejaVuSans-47" d="M 3809 666 
L 3809 1919 
L 2778 1919 
L 2778 2438 
L 4434 2438 
L 4434 434 
Q 4069 175 3628 42 
Q 3188 -91 2688 -91 
Q 1594 -91 976 548 
Q 359 1188 359 2328 
Q 359 3472 976 4111 
Q 1594 4750 2688 4750 
Q 3144 4750 3555 4637 
Q 3966 4525 4313 4306 
L 4313 3634 
Q 3963 3931 3569 4081 
Q 3175 4231 2741 4231 
Q 1884 4231 1454 3753 
Q 1025 3275 1025 2328 
Q 1025 1384 1454 906 
Q 1884 428 2741 428 
Q 3075 428 3337 486 
Q 3600 544 3809 666 
z
" transform="scale(0.015625)"/>
       <path id="DejaVuSans-6c" d="M 603 4863 
L 1178 4863 
L 1178 0 
L 603 0 
L 603 4863 
z
" transform="scale(0.015625)"/>
       <path id="DejaVuSans-62" d="M 3116 1747 
Q 3116 2381 2855 2742 
Q 2594 3103 2138 3103 
Q 1681 3103 1420 2742 
Q 1159 2381 1159 1747 
Q 1159 1113 1420 752 
Q 1681 391 2138 391 
Q 2594 391 2855 752 
Q 3116 1113 3116 1747 
z
M 1159 2969 
Q 1341 3281 1617 3432 
Q 1894 3584 2278 3584 
Q 2916 3584 3314 3078 
Q 3713 2572 3713 1747 
Q 3713 922 3314 415 
Q 2916 -91 2278 -91 
Q 1894 -91 1617 61 
Q 1341 213 1159 525 
L 1159 0 
L 581 0 
L 581 4863 
L 1159 4863 
L 1159 2969 
z
" transform="scale(0.015625)"/>
       <path id="DejaVuSans-41" d="M 2188 4044 
L 1331 1722 
L 3047 1722 
L 2188 4044 
z
M 1831 4666 
L 2547 4666 
L 4325 0 
L 3669 0 
L 3244 1197 
L 1141 1197 
L 716 0 
L 50 0 
L 1831 4666 
z
" transform="scale(0.015625)"/>
       <path id="DejaVuSans-72" d="M 2631 2963 
Q 2534 3019 2420 3045 
Q 2306 3072 2169 3072 
Q 1681 3072 1420 2755 
Q 1159 2438 1159 1844 
L 1159 0 
L 581 0 
L 581 3500 
L 1159 3500 
L 1159 2956 
Q 1341 3275 1631 3429 
Q 1922 3584 2338 3584 
Q 2397 3584 2469 3576 
Q 2541 3569 2628 3553 
L 2631 2963 
z
" transform="scale(0.015625)"/>
       <path id="DejaVuSans-79" d="M 2059 -325 
Q 1816 -950 1584 -1140 
Q 1353 -1331 966 -1331 
L 506 -1331 
L 506 -850 
L 844 -850 
Q 1081 -850 1212 -737 
Q 1344 -625 1503 -206 
L 1606 56 
L 191 3500 
L 800 3500 
L 1894 763 
L 2988 3500 
L 3597 3500 
L 2059 -325 
z
" transform="scale(0.015625)"/>
      </defs>
      <use xlink:href="#DejaVuSans-47"/>
      <use xlink:href="#DejaVuSans-6c" x="77.490234"/>
      <use xlink:href="#DejaVuSans-6f" x="105.273438"/>
      <use xlink:href="#DejaVuSans-62" x="166.455078"/>
      <use xlink:href="#DejaVuSans-61" x="229.931641"/>
      <use xlink:href="#DejaVuSans-6c" x="291.210938"/>
      <use xlink:href="#DejaVuSans-20" x="318.994141"/>
      <use xlink:href="#DejaVuSans-41" x="350.78125"/>
      <use xlink:href="#DejaVuSans-63" x="417.439453"/>
      <use xlink:href="#DejaVuSans-63" x="472.419922"/>
      <use xlink:href="#DejaVuSans-75" x="527.400391"/>
      <use xlink:href="#DejaVuSans-72" x="590.779297"/>
      <use xlink:href="#DejaVuSans-61" x="631.892578"/>
      <use xlink:href="#DejaVuSans-63" x="693.171875"/>
      <use xlink:href="#DejaVuSans-79" x="748.152344"/>
     </g>
    </g>
   </g>
   <g id="line2d_31">
    <path d="M 67.548523 346.16119 
L 72.349992 341.521154 
L 77.151461 334.374719 
L 81.95293 328.272024 
L 86.7544 319.826237 
L 91.555869 308.41253 
L 96.357338 298.070967 
L 101.158807 284.527175 
L 105.960277 272.012924 
L 110.761746 259.069107 
L 115.563215 242.198832 
L 120.364684 232.222933 
L 125.166154 218.845998 
L 129.967623 205.856028 
L 134.769092 196.018585 
L 139.570561 184.750434 
L 144.372031 174.423071 
L 149.1735 162.583348 
L 153.974969 152.40509 
L 158.776438 145.40421 
L 163.577907 137.160781 
L 168.379377 129.684182 
L 173.180846 124.025255 
L 177.982315 117.769905 
L 182.783784 112.750004 
L 187.585254 106.295846 
L 192.386723 100.39551 
L 197.188192 94.846638 
L 201.989661 89.38297 
L 206.791131 85.023395 
L 211.5926 80.599919 
L 216.394069 76.321997 
L 221.195538 73.215623 
L 225.997008 70.233504 
L 230.798477 67.542496 
L 235.599946 65.455013 
L 240.401415 63.616039 
L 245.202885 62.199533 
L 250.004354 60.619719 
L 254.805823 59.448173 
L 259.607292 58.500285 
L 264.408761 57.534646 
L 269.210231 56.590308 
L 274.0117 55.411661 
L 278.813169 54.467323 
L 283.614638 53.558487 
L 288.416108 52.770355 
L 293.217577 52.088728 
L 298.019046 51.407101 
L 302.820515 50.647371 
L 307.621985 49.972844 
L 312.423454 49.344468 
L 317.224923 48.698343 
L 322.026392 47.927962 
L 326.827862 47.093678 
L 331.629331 46.110289 
L 336.4308 45.148201 
L 341.232269 44.519825 
L 346.033739 44.068957 
L 350.835208 43.728144 
L 355.636677 43.440582 
L 360.438146 43.057167 
L 365.239615 42.851259 
L 370.041085 42.737654 
L 374.842554 42.592098 
L 379.644023 42.39329 
L 384.445492 42.226434 
L 389.246962 42.102179 
L 394.048431 41.88917 
L 398.8499 41.729414 
L 403.651369 41.587408 
L 408.452839 41.427652 
L 413.254308 41.285646 
L 418.055777 41.175592 
L 422.857246 41.008735 
L 427.658716 40.916431 
L 432.460185 40.813477 
L 437.261654 40.728274 
L 442.063123 40.678572 
L 446.864593 40.63597 
L 451.666062 40.572068 
L 456.467531 40.476214 
L 461.269 40.437162 
L 466.070469 40.355509 
L 470.871939 40.277406 
L 475.673408 40.220604 
L 480.474877 40.178002 
L 485.276346 40.12475 
L 490.077816 40.078598 
L 494.879285 40.050197 
L 499.680754 40.014695 
L 504.482223 39.996945 
L 509.283693 39.954343 
L 514.085162 39.904641 
L 518.886631 39.88334 
L 523.6881 39.830088 
L 528.48957 39.794586 
L 533.291039 39.776836 
L 538.092508 39.762635 
L 542.893977 39.744885 
" clip-path="url(#pd6a9244b45)" style="fill: none; stroke: #808080; stroke-width: 2; stroke-linecap: square"/>
   </g>
   <g id="line2d_32">
    <path d="M 67.548523 366.610008 
L 72.349992 367.849007 
L 77.151461 368.285675 
L 81.95293 367.41944 
L 86.7544 367.312936 
L 91.555869 366.41475 
L 96.357338 365.331957 
L 101.158807 363.020814 
L 105.960277 358.945251 
L 110.761746 355.036545 
L 115.563215 353.772694 
L 120.364684 350.616618 
L 125.166154 349.690031 
L 129.967623 347.314986 
L 134.769092 342.749504 
L 139.570561 339.259714 
L 144.372031 335.020844 
L 149.1735 328.861348 
L 153.974969 326.379799 
L 158.776438 323.979903 
L 163.577907 320.305506 
L 168.379377 318.594337 
L 173.180846 316.712762 
L 177.982315 311.220692 
L 182.783784 305.994883 
L 187.585254 303.140569 
L 192.386723 303.555936 
L 197.188192 301.170241 
L 201.989661 297.009474 
L 206.791131 295.227303 
L 211.5926 283.572187 
L 216.394069 283.501184 
L 221.195538 277.955862 
L 225.997008 268.91365 
L 230.798477 275.793826 
L 235.599946 264.067707 
L 240.401415 264.90199 
L 245.202885 255.753274 
L 250.004354 251.39725 
L 254.805823 248.670741 
L 259.607292 235.240554 
L 264.408761 227.266935 
L 269.210231 223.777145 
L 274.0117 221.561856 
L 278.813169 198.265825 
L 283.614638 200.797076 
L 288.416108 192.379689 
L 293.217577 183.568237 
L 298.019046 185.211953 
L 302.820515 168.668291 
L 307.621985 162.977413 
L 312.423454 154.659431 
L 317.224923 155.795476 
L 322.026392 148.695192 
L 326.827862 138.989104 
L 331.629331 134.373919 
L 336.4308 135.580968 
L 341.232269 121.167391 
L 346.033739 114.425671 
L 350.835208 116.818467 
L 355.636677 103.008415 
L 360.438146 103.789446 
L 365.239615 97.331738 
L 370.041085 90.767525 
L 374.842554 89.603079 
L 379.644023 82.449543 
L 384.445492 82.169081 
L 389.246962 80.940732 
L 394.048431 79.513575 
L 398.8499 72.977764 
L 403.651369 69.289166 
L 408.452839 68.231224 
L 413.254308 63.406581 
L 418.055777 63.190022 
L 422.857246 59.032806 
L 427.658716 60.236304 
L 432.460185 57.342938 
L 437.261654 54.832988 
L 442.063123 56.221093 
L 446.864593 57.101529 
L 451.666062 54.346619 
L 456.467531 54.651931 
L 461.269 56.63291 
L 466.070469 57.89321 
L 470.871939 54.254315 
L 475.673408 51.733714 
L 480.474877 46.827418 
L 485.276346 45.691372 
L 490.077816 44.690232 
L 494.879285 44.597929 
L 499.680754 43.710393 
L 504.482223 44.171912 
L 509.283693 43.841748 
L 514.085162 42.570798 
L 518.886631 43.113969 
L 523.6881 42.471394 
L 528.48957 42.954213 
L 533.291039 42.943562 
L 538.092508 42.755405 
L 542.893977 42.240634 
" clip-path="url(#pd6a9244b45)" style="fill: none; stroke: #0000ff; stroke-width: 2; stroke-linecap: square"/>
   </g>
   <g id="line2d_33">
    <path d="M 67.548523 366.610008 
L 72.349992 367.849007 
L 77.151461 368.285675 
L 81.95293 367.41944 
L 86.7544 367.312936 
L 91.555869 366.41475 
L 96.357338 365.331957 
L 101.158807 363.020814 
L 105.960277 358.945251 
L 110.761746 355.036545 
L 115.563215 353.772694 
L 120.364684 350.616618 
L 125.166154 349.690031 
L 129.967623 347.314986 
L 134.769092 342.749504 
L 139.570561 339.259714 
L 144.372031 335.020844 
L 149.1735 328.861348 
L 153.974969 326.379799 
L 158.776438 323.837897 
L 163.577907 320.294855 
L 168.379377 318.619188 
L 173.180846 316.716312 
L 177.982315 311.213592 
L 182.783784 305.934531 
L 187.585254 302.874309 
L 192.386723 303.122819 
L 197.188192 300.719372 
L 201.989661 296.878119 
L 206.791131 295.337357 
L 211.5926 283.824247 
L 216.394069 283.40178 
L 221.195538 278.090767 
L 225.997008 269.769235 
L 230.798477 275.89678 
L 235.599946 264.458222 
L 240.401415 265.075947 
L 245.202885 255.210102 
L 250.004354 251.170041 
L 254.805823 251.66351 
L 259.607292 237.352888 
L 264.408761 233.614589 
L 269.210231 229.066857 
L 274.0117 228.172221 
L 278.813169 206.995624 
L 283.614638 203.669141 
L 288.416108 197.080077 
L 293.217577 187.998814 
L 298.019046 191.868469 
L 302.820515 176.109389 
L 307.621985 171.63976 
L 312.423454 156.594258 
L 317.224923 150.850128 
L 322.026392 144.193612 
L 326.827862 134.767985 
L 331.629331 144.562827 
L 336.4308 138.992654 
L 341.232269 124.14596 
L 346.033739 124.863089 
L 350.835208 130.003695 
L 355.636677 114.486024 
L 360.438146 111.692062 
L 365.239615 104.794136 
L 370.041085 91.434952 
L 374.842554 88.658741 
L 379.644023 81.668511 
L 384.445492 82.357239 
L 389.246962 73.968253 
L 394.048431 75.338608 
L 398.8499 74.536276 
L 403.651369 71.500905 
L 408.452839 68.437132 
L 413.254308 65.337858 
L 418.055777 64.560377 
L 422.857246 62.714303 
L 427.658716 61.741564 
L 432.460185 59.018605 
L 437.261654 55.997435 
L 442.063123 53.089868 
L 446.864593 55.63177 
L 451.666062 50.729024 
L 456.467531 49.692382 
L 461.269 47.526796 
L 466.070469 48.180022 
L 470.871939 48.069967 
L 475.673408 47.732704 
L 480.474877 46.199043 
L 485.276346 45.769475 
L 490.077816 45.361209 
L 494.879285 45.194352 
L 499.680754 44.494974 
L 504.482223 44.455923 
L 509.283693 44.108009 
L 514.085162 42.968413 
L 518.886631 43.515135 
L 523.6881 43.113969 
L 528.48957 43.039416 
L 533.291039 42.37554 
L 538.092508 42.666651 
L 542.893977 42.183832 
" clip-path="url(#pd6a9244b45)" style="fill: none; stroke: #00ffff; stroke-width: 2; stroke-linecap: square"/>
   </g>
   <g id="line2d_34">
    <path d="M 67.548523 363.40423 
L 72.349992 360.354658 
L 77.151461 355.987983 
L 81.95293 350.250954 
L 86.7544 343.9175 
L 91.555869 333.046965 
L 96.357338 321.849818 
L 101.158807 309.317816 
L 105.960277 294.694782 
L 110.761746 278.694292 
L 115.563215 262.480793 
L 120.364684 246.707512 
L 125.166154 231.583907 
L 129.967623 218.89925 
L 134.769092 207.272535 
L 139.570561 196.923871 
L 144.372031 189.433071 
L 149.1735 182.531595 
L 153.974969 176.13424 
L 158.776438 168.309727 
L 163.577907 161.553806 
L 168.379377 156.068837 
L 173.180846 151.279695 
L 177.982315 146.909471 
L 182.783784 143.469383 
L 187.585254 140.426911 
L 192.386723 137.746554 
L 197.188192 135.534816 
L 201.989661 133.528986 
L 206.791131 131.792966 
L 211.5926 130.419061 
L 216.394069 129.368219 
L 221.195538 128.249924 
L 225.997008 126.950572 
L 230.798477 125.718673 
L 235.599946 124.760135 
L 240.401415 123.482084 
L 245.202885 122.431242 
L 250.004354 121.3804 
L 254.805823 120.563867 
L 259.607292 119.509475 
L 264.408761 118.778146 
L 269.210231 118.320177 
L 274.0117 117.6492 
L 278.813169 117.024375 
L 283.614638 116.271745 
L 288.416108 115.490714 
L 293.217577 114.862339 
L 298.019046 113.868299 
L 302.820515 113.055317 
L 307.621985 112.185532 
L 312.423454 111.223443 
L 317.224923 110.119349 
L 322.026392 108.8768 
L 326.827862 108.344278 
L 331.629331 107.989264 
L 336.4308 107.456743 
L 341.232269 106.753815 
L 346.033739 106.065087 
L 350.835208 105.596468 
L 355.636677 104.861589 
L 360.438146 104.261615 
L 365.239615 103.942102 
L 370.041085 103.320827 
L 374.842554 102.344538 
L 379.644023 101.712613 
L 384.445492 101.258195 
L 389.246962 100.807327 
L 394.048431 100.335158 
L 398.8499 99.841688 
L 403.651369 99.408571 
L 408.452839 99.003855 
L 413.254308 98.730494 
L 418.055777 98.421631 
L 422.857246 98.052417 
L 427.658716 97.534096 
L 432.460185 97.115179 
L 437.261654 96.710463 
L 442.063123 96.341248 
L 446.864593 95.940082 
L 451.666062 95.663171 
L 456.467531 95.38271 
L 461.269 95.219403 
L 466.070469 94.942492 
L 470.871939 94.541326 
L 475.673408 94.211163 
L 480.474877 93.89875 
L 485.276346 93.547286 
L 490.077816 93.124819 
L 494.879285 92.63135 
L 499.680754 92.244384 
L 504.482223 91.89292 
L 509.283693 91.580508 
L 514.085162 91.239694 
L 518.886631 90.909531 
L 523.6881 90.682322 
L 528.48957 90.423161 
L 533.291039 90.160451 
L 538.092508 89.936792 
L 542.893977 89.773485 
" clip-path="url(#pd6a9244b45)" style="fill: none; stroke: #008000; stroke-width: 2; stroke-linecap: square"/>
   </g>
   <g id="line2d_35">
    <path d="M 67.548523 333.760544 
L 72.349992 316.687911 
L 77.151461 296.512454 
L 81.95293 271.785715 
L 86.7544 249.810336 
L 91.555869 214.017805 
L 96.357338 174.969793 
L 101.158807 138.027015 
L 105.960277 96.532956 
L 110.761746 66.477454 
L 115.563215 51.257995 
L 120.364684 45.929232 
L 125.166154 43.277276 
L 129.967623 41.740064 
L 134.769092 40.611119 
L 139.570561 40.178002 
L 144.372031 39.716483 
L 149.1735 39.308217 
L 153.974969 39.059707 
L 158.776438 38.942552 
L 163.577907 38.8751 
L 168.379377 38.850249 
L 173.180846 38.843148 
L 177.982315 38.839598 
L 182.783784 38.825398 
L 187.585254 38.825398 
L 192.386723 38.825398 
L 197.188192 38.825398 
L 201.989661 38.825398 
L 206.791131 38.825398 
L 211.5926 38.825398 
L 216.394069 38.825398 
L 221.195538 38.825398 
L 225.997008 38.825398 
L 230.798477 38.825398 
L 235.599946 38.825398 
L 240.401415 38.825398 
L 245.202885 38.825398 
L 250.004354 38.825398 
L 254.805823 38.825398 
L 259.607292 38.825398 
L 264.408761 38.825398 
L 269.210231 38.825398 
L 274.0117 38.825398 
L 278.813169 38.825398 
L 283.614638 38.825398 
L 288.416108 38.825398 
L 293.217577 38.825398 
L 298.019046 38.825398 
L 302.820515 38.825398 
L 307.621985 38.825398 
L 312.423454 38.825398 
L 317.224923 38.825398 
L 322.026392 38.825398 
L 326.827862 38.825398 
L 331.629331 38.825398 
L 336.4308 38.825398 
L 341.232269 38.825398 
L 346.033739 38.825398 
L 350.835208 38.825398 
L 355.636677 38.825398 
L 360.438146 38.825398 
L 365.239615 38.825398 
L 370.041085 38.825398 
L 374.842554 38.825398 
L 379.644023 38.825398 
L 384.445492 38.825398 
L 389.246962 38.825398 
L 394.048431 38.825398 
L 398.8499 38.825398 
L 403.651369 38.825398 
L 408.452839 38.825398 
L 413.254308 38.825398 
L 418.055777 38.825398 
L 422.857246 38.825398 
L 427.658716 38.825398 
L 432.460185 38.825398 
L 437.261654 38.825398 
L 442.063123 38.825398 
L 446.864593 38.825398 
L 451.666062 38.825398 
L 456.467531 38.825398 
L 461.269 38.825398 
L 466.070469 38.825398 
L 470.871939 38.825398 
L 475.673408 38.825398 
L 480.474877 38.825398 
L 485.276346 38.825398 
L 490.077816 38.828948 
L 494.879285 38.843148 
L 499.680754 38.846699 
L 504.482223 38.850249 
L 509.283693 38.857349 
L 514.085162 38.864449 
L 518.886631 38.867999 
L 523.6881 38.87865 
L 528.48957 38.88575 
L 533.291039 38.899951 
L 538.092508 38.910601 
L 542.893977 38.914151 
" clip-path="url(#pd6a9244b45)" style="fill: none; stroke: #ff0000; stroke-width: 2; stroke-linecap: square"/>
   </g>
   <g id="line2d_36">
    <path d="M 67.548523 367.209982 
L 72.349992 368.083317 
L 77.151461 368.612288 
L 81.95293 368.200471 
L 86.7544 368.970852 
L 91.555869 368.235973 
L 96.357338 368.576787 
L 101.158807 368.452532 
L 105.960277 368.377979 
L 110.761746 368.026515 
L 115.563215 366.720062 
L 120.364684 366.592257 
L 125.166154 365.562716 
L 129.967623 363.709542 
L 134.769092 361.533305 
L 139.570561 358.522784 
L 144.372031 357.042375 
L 149.1735 352.988113 
L 153.974969 351.720712 
L 158.776438 348.426181 
L 163.577907 346.296095 
L 168.379377 342.046575 
L 173.180846 340.885679 
L 177.982315 336.17109 
L 182.783784 334.15461 
L 187.585254 334.108458 
L 192.386723 333.40198 
L 197.188192 332.826857 
L 201.989661 330.831677 
L 206.791131 328.960752 
L 211.5926 329.770184 
L 216.394069 329.976093 
L 221.195538 329.596227 
L 225.997008 324.697031 
L 230.798477 327.441291 
L 235.599946 325.41061 
L 240.401415 322.428491 
L 245.202885 322.282935 
L 250.004354 321.15399 
L 254.805823 324.757384 
L 259.607292 322.41784 
L 264.408761 316.460702 
L 269.210231 309.548576 
L 274.0117 311.739013 
L 278.813169 308.224373 
L 283.614638 309.136759 
L 288.416108 310.084647 
L 293.217577 309.974593 
L 298.019046 308.025565 
L 302.820515 306.3996 
L 307.621985 304.447022 
L 312.423454 304.539325 
L 317.224923 301.90867 
L 322.026392 301.699212 
L 326.827862 304.613878 
L 331.629331 310.130799 
L 336.4308 302.327587 
L 341.232269 305.568866 
L 346.033739 301.972573 
L 350.835208 302.295636 
L 355.636677 300.992733 
L 360.438146 300.15135 
L 365.239615 296.998824 
L 370.041085 302.043575 
L 374.842554 298.198772 
L 379.644023 295.742073 
L 384.445492 295.621369 
L 389.246962 291.808516 
L 394.048431 289.39797 
L 398.8499 289.266614 
L 403.651369 286.302246 
L 408.452839 275.65537 
L 413.254308 270.90173 
L 418.055777 264.735133 
L 422.857246 259.033605 
L 427.658716 255.618369 
L 432.460185 246.139489 
L 437.261654 242.205932 
L 442.063123 238.180071 
L 446.864593 228.704742 
L 451.666062 221.487303 
L 456.467531 216.65201 
L 461.269 201.482253 
L 466.070469 202.557946 
L 470.871939 207.290286 
L 475.673408 201.322497 
L 480.474877 196.206742 
L 485.276346 197.40669 
L 490.077816 195.39021 
L 494.879285 187.324287 
L 499.680754 190.913481 
L 504.482223 186.947972 
L 509.283693 189.951392 
L 514.085162 183.738644 
L 518.886631 179.560127 
L 523.6881 185.478213 
L 528.48957 175.89283 
L 533.291039 172.008975 
L 538.092508 167.873059 
L 542.893977 167.035226 
" clip-path="url(#pd6a9244b45)" style="fill: none; stroke: #ff00ff; stroke-width: 2; stroke-linecap: square"/>
   </g>
   <g id="line2d_37">
    <path d="M 67.548523 363.42198 
L 72.349992 361.181841 
L 77.151461 357.468392 
L 81.95293 352.40944 
L 86.7544 345.245253 
L 91.555869 336.891769 
L 96.357338 325.194051 
L 101.158807 315.466662 
L 105.960277 301.91932 
L 110.761746 289.011004 
L 115.563215 272.360838 
L 120.364684 256.019535 
L 125.166154 239.951592 
L 129.967623 228.711842 
L 134.769092 216.190492 
L 139.570561 207.077277 
L 144.372031 194.477823 
L 149.1735 185.219053 
L 153.974969 176.943672 
L 158.776438 169.257615 
L 163.577907 162.604648 
L 168.379377 158.124369 
L 173.180846 153.225173 
L 177.982315 148.64194 
L 182.783784 144.683532 
L 187.585254 141.591358 
L 192.386723 138.754795 
L 197.188192 136.486254 
L 201.989661 134.185762 
L 206.791131 132.201232 
L 211.5926 130.610769 
L 216.394069 128.995454 
L 221.195538 127.706753 
L 225.997008 126.215693 
L 230.798477 124.792086 
L 235.599946 123.276175 
L 240.401415 121.657311 
L 245.202885 120.581618 
L 250.004354 119.427822 
L 254.805823 118.078768 
L 259.607292 117.056327 
L 264.408761 116.243344 
L 269.210231 115.533316 
L 274.0117 114.990144 
L 278.813169 114.358219 
L 283.614638 113.65174 
L 288.416108 112.874259 
L 293.217577 111.759515 
L 298.019046 110.232954 
L 302.820515 109.082708 
L 307.621985 106.945522 
L 312.423454 105.756225 
L 317.224923 105.220153 
L 322.026392 104.815437 
L 326.827862 104.279366 
L 331.629331 103.757495 
L 336.4308 103.068767 
L 341.232269 102.514945 
L 346.033739 101.435702 
L 350.835208 100.874779 
L 355.636677 100.303207 
L 360.438146 99.728084 
L 365.239615 99.202663 
L 370.041085 98.663041 
L 374.842554 98.308027 
L 379.644023 97.963663 
L 384.445492 97.562497 
L 389.246962 97.164881 
L 394.048431 96.806317 
L 398.8499 96.369649 
L 403.651369 95.972033 
L 408.452839 95.64542 
L 413.254308 95.286856 
L 418.055777 95.002845 
L 422.857246 94.825338 
L 427.658716 94.608779 
L 432.460185 94.047856 
L 437.261654 93.568587 
L 442.063123 93.249074 
L 446.864593 92.915361 
L 451.666062 92.404141 
L 456.467531 91.953273 
L 461.269 91.456253 
L 466.070469 90.948582 
L 470.871939 90.508365 
L 475.673408 90.291806 
L 480.474877 90.082348 
L 485.276346 89.773485 
L 490.077816 89.450423 
L 494.879285 89.205463 
L 499.680754 88.953403 
L 504.482223 88.683592 
L 509.283693 88.431532 
L 514.085162 88.193672 
L 518.886631 87.781856 
L 523.6881 87.306137 
L 528.48957 86.784266 
L 533.291039 86.241094 
L 538.092508 85.783126 
L 542.893977 85.357109 
" clip-path="url(#pd6a9244b45)" style="fill: none; stroke: #ffa500; stroke-width: 2; stroke-linecap: square"/>
   </g>
   <g id="patch_3">
    <path d="M 43.78125 385.478125 
L 43.78125 22.318125 
" style="fill: none; stroke: #000000; stroke-width: 0.8; stroke-linejoin: miter; stroke-linecap: square"/>
   </g>
   <g id="patch_4">
    <path d="M 566.66125 385.478125 
L 566.66125 22.318125 
" style="fill: none; stroke: #000000; stroke-width: 0.8; stroke-linejoin: miter; stroke-linecap: square"/>
   </g>
   <g id="patch_5">
    <path d="M 43.78125 385.478125 
L 566.66125 385.478125 
" style="fill: none; stroke: #000000; stroke-width: 0.8; stroke-linejoin: miter; stroke-linecap: square"/>
   </g>
   <g id="patch_6">
    <path d="M 43.78125 22.318125 
L 566.66125 22.318125 
" style="fill: none; stroke: #000000; stroke-width: 0.8; stroke-linejoin: miter; stroke-linecap: square"/>
   </g>
   <g id="text_18">
    <!-- Accuracy Comparison - opp -->
    <g transform="translate(222.72875 16.318125) scale(0.12 -0.12)">
     <defs>
      <path id="DejaVuSans-70" d="M 1159 525 
L 1159 -1331 
L 581 -1331 
L 581 3500 
L 1159 3500 
L 1159 2969 
Q 1341 3281 1617 3432 
Q 1894 3584 2278 3584 
Q 2916 3584 3314 3078 
Q 3713 2572 3713 1747 
Q 3713 922 3314 415 
Q 2916 -91 2278 -91 
Q 1894 -91 1617 61 
Q 1341 213 1159 525 
z
M 3116 1747 
Q 3116 2381 2855 2742 
Q 2594 3103 2138 3103 
Q 1681 3103 1420 2742 
Q 1159 2381 1159 1747 
Q 1159 1113 1420 752 
Q 1681 391 2138 391 
Q 2594 391 2855 752 
Q 3116 1113 3116 1747 
z
" transform="scale(0.015625)"/>
      <path id="DejaVuSans-2d" d="M 313 2009 
L 1997 2009 
L 1997 1497 
L 313 1497 
L 313 2009 
z
" transform="scale(0.015625)"/>
     </defs>
     <use xlink:href="#DejaVuSans-41"/>
     <use xlink:href="#DejaVuSans-63" x="66.658203"/>
     <use xlink:href="#DejaVuSans-63" x="121.638672"/>
     <use xlink:href="#DejaVuSans-75" x="176.619141"/>
     <use xlink:href="#DejaVuSans-72" x="239.998047"/>
     <use xlink:href="#DejaVuSans-61" x="281.111328"/>
     <use xlink:href="#DejaVuSans-63" x="342.390625"/>
     <use xlink:href="#DejaVuSans-79" x="397.371094"/>
     <use xlink:href="#DejaVuSans-20" x="456.550781"/>
     <use xlink:href="#DejaVuSans-43" x="488.337891"/>
     <use xlink:href="#DejaVuSans-6f" x="558.162109"/>
     <use xlink:href="#DejaVuSans-6d" x="619.34375"/>
     <use xlink:href="#DejaVuSans-70" x="716.755859"/>
     <use xlink:href="#DejaVuSans-61" x="780.232422"/>
     <use xlink:href="#DejaVuSans-72" x="841.511719"/>
     <use xlink:href="#DejaVuSans-69" x="882.625"/>
     <use xlink:href="#DejaVuSans-73" x="910.408203"/>
     <use xlink:href="#DejaVuSans-6f" x="962.507812"/>
     <use xlink:href="#DejaVuSans-6e" x="1023.689453"/>
     <use xlink:href="#DejaVuSans-20" x="1087.068359"/>
     <use xlink:href="#DejaVuSans-2d" x="1118.855469"/>
     <use xlink:href="#DejaVuSans-20" x="1154.939453"/>
     <use xlink:href="#DejaVuSans-6f" x="1186.726562"/>
     <use xlink:href="#DejaVuSans-70" x="1247.908203"/>
     <use xlink:href="#DejaVuSans-70" x="1311.384766"/>
    </g>
   </g>
   <g id="legend_1">
    <g id="patch_7">
     <path d="M 483.120625 380.478125 
L 559.66125 380.478125 
Q 561.66125 380.478125 561.66125 378.478125 
L 561.66125 276.73125 
Q 561.66125 274.73125 559.66125 274.73125 
L 483.120625 274.73125 
Q 481.120625 274.73125 481.120625 276.73125 
L 481.120625 378.478125 
Q 481.120625 380.478125 483.120625 380.478125 
z
" style="fill: #ffffff; opacity: 0.8; stroke: #cccccc; stroke-linejoin: miter"/>
    </g>
    <g id="line2d_38">
     <path d="M 485.120625 282.829687 
L 495.120625 282.829687 
L 505.120625 282.829687 
" style="fill: none; stroke: #808080; stroke-width: 2; stroke-linecap: square"/>
    </g>
    <g id="text_19">
     <!-- Single -->
     <g transform="translate(513.120625 286.329687) scale(0.1 -0.1)">
      <defs>
       <path id="DejaVuSans-53" d="M 3425 4513 
L 3425 3897 
Q 3066 4069 2747 4153 
Q 2428 4238 2131 4238 
Q 1616 4238 1336 4038 
Q 1056 3838 1056 3469 
Q 1056 3159 1242 3001 
Q 1428 2844 1947 2747 
L 2328 2669 
Q 3034 2534 3370 2195 
Q 3706 1856 3706 1288 
Q 3706 609 3251 259 
Q 2797 -91 1919 -91 
Q 1588 -91 1214 -16 
Q 841 59 441 206 
L 441 856 
Q 825 641 1194 531 
Q 1563 422 1919 422 
Q 2459 422 2753 634 
Q 3047 847 3047 1241 
Q 3047 1584 2836 1778 
Q 2625 1972 2144 2069 
L 1759 2144 
Q 1053 2284 737 2584 
Q 422 2884 422 3419 
Q 422 4038 858 4394 
Q 1294 4750 2059 4750 
Q 2388 4750 2728 4690 
Q 3069 4631 3425 4513 
z
" transform="scale(0.015625)"/>
       <path id="DejaVuSans-67" d="M 2906 1791 
Q 2906 2416 2648 2759 
Q 2391 3103 1925 3103 
Q 1463 3103 1205 2759 
Q 947 2416 947 1791 
Q 947 1169 1205 825 
Q 1463 481 1925 481 
Q 2391 481 2648 825 
Q 2906 1169 2906 1791 
z
M 3481 434 
Q 3481 -459 3084 -895 
Q 2688 -1331 1869 -1331 
Q 1566 -1331 1297 -1286 
Q 1028 -1241 775 -1147 
L 775 -588 
Q 1028 -725 1275 -790 
Q 1522 -856 1778 -856 
Q 2344 -856 2625 -561 
Q 2906 -266 2906 331 
L 2906 616 
Q 2728 306 2450 153 
Q 2172 0 1784 0 
Q 1141 0 747 490 
Q 353 981 353 1791 
Q 353 2603 747 3093 
Q 1141 3584 1784 3584 
Q 2172 3584 2450 3431 
Q 2728 3278 2906 2969 
L 2906 3500 
L 3481 3500 
L 3481 434 
z
" transform="scale(0.015625)"/>
       <path id="DejaVuSans-65" d="M 3597 1894 
L 3597 1613 
L 953 1613 
Q 991 1019 1311 708 
Q 1631 397 2203 397 
Q 2534 397 2845 478 
Q 3156 559 3463 722 
L 3463 178 
Q 3153 47 2828 -22 
Q 2503 -91 2169 -91 
Q 1331 -91 842 396 
Q 353 884 353 1716 
Q 353 2575 817 3079 
Q 1281 3584 2069 3584 
Q 2775 3584 3186 3129 
Q 3597 2675 3597 1894 
z
M 3022 2063 
Q 3016 2534 2758 2815 
Q 2500 3097 2075 3097 
Q 1594 3097 1305 2825 
Q 1016 2553 972 2059 
L 3022 2063 
z
" transform="scale(0.015625)"/>
      </defs>
      <use xlink:href="#DejaVuSans-53"/>
      <use xlink:href="#DejaVuSans-69" x="63.476562"/>
      <use xlink:href="#DejaVuSans-6e" x="91.259766"/>
      <use xlink:href="#DejaVuSans-67" x="154.638672"/>
      <use xlink:href="#DejaVuSans-6c" x="218.115234"/>
      <use xlink:href="#DejaVuSans-65" x="245.898438"/>
     </g>
    </g>
    <g id="line2d_39">
     <path d="M 485.120625 297.507812 
L 495.120625 297.507812 
L 505.120625 297.507812 
" style="fill: none; stroke: #0000ff; stroke-width: 2; stroke-linecap: square"/>
    </g>
    <g id="text_20">
     <!-- FedAvg -->
     <g transform="translate(513.120625 301.007812) scale(0.1 -0.1)">
      <defs>
       <path id="DejaVuSans-46" d="M 628 4666 
L 3309 4666 
L 3309 4134 
L 1259 4134 
L 1259 2759 
L 3109 2759 
L 3109 2228 
L 1259 2228 
L 1259 0 
L 628 0 
L 628 4666 
z
" transform="scale(0.015625)"/>
       <path id="DejaVuSans-76" d="M 191 3500 
L 800 3500 
L 1894 563 
L 2988 3500 
L 3597 3500 
L 2284 0 
L 1503 0 
L 191 3500 
z
" transform="scale(0.015625)"/>
      </defs>
      <use xlink:href="#DejaVuSans-46"/>
      <use xlink:href="#DejaVuSans-65" x="52.019531"/>
      <use xlink:href="#DejaVuSans-64" x="113.542969"/>
      <use xlink:href="#DejaVuSans-41" x="177.019531"/>
      <use xlink:href="#DejaVuSans-76" x="239.552734"/>
      <use xlink:href="#DejaVuSans-67" x="298.732422"/>
     </g>
    </g>
    <g id="line2d_40">
     <path d="M 485.120625 312.185937 
L 495.120625 312.185937 
L 505.120625 312.185937 
" style="fill: none; stroke: #00ffff; stroke-width: 2; stroke-linecap: square"/>
    </g>
    <g id="text_21">
     <!-- FedProx -->
     <g transform="translate(513.120625 315.685937) scale(0.1 -0.1)">
      <defs>
       <path id="DejaVuSans-50" d="M 1259 4147 
L 1259 2394 
L 2053 2394 
Q 2494 2394 2734 2622 
Q 2975 2850 2975 3272 
Q 2975 3691 2734 3919 
Q 2494 4147 2053 4147 
L 1259 4147 
z
M 628 4666 
L 2053 4666 
Q 2838 4666 3239 4311 
Q 3641 3956 3641 3272 
Q 3641 2581 3239 2228 
Q 2838 1875 2053 1875 
L 1259 1875 
L 1259 0 
L 628 0 
L 628 4666 
z
" transform="scale(0.015625)"/>
       <path id="DejaVuSans-78" d="M 3513 3500 
L 2247 1797 
L 3578 0 
L 2900 0 
L 1881 1375 
L 863 0 
L 184 0 
L 1544 1831 
L 300 3500 
L 978 3500 
L 1906 2253 
L 2834 3500 
L 3513 3500 
z
" transform="scale(0.015625)"/>
      </defs>
      <use xlink:href="#DejaVuSans-46"/>
      <use xlink:href="#DejaVuSans-65" x="52.019531"/>
      <use xlink:href="#DejaVuSans-64" x="113.542969"/>
      <use xlink:href="#DejaVuSans-50" x="177.019531"/>
      <use xlink:href="#DejaVuSans-72" x="235.572266"/>
      <use xlink:href="#DejaVuSans-6f" x="274.435547"/>
      <use xlink:href="#DejaVuSans-78" x="332.492188"/>
     </g>
    </g>
    <g id="line2d_41">
     <path d="M 485.120625 326.864062 
L 495.120625 326.864062 
L 505.120625 326.864062 
" style="fill: none; stroke: #008000; stroke-width: 2; stroke-linecap: square"/>
    </g>
    <g id="text_22">
     <!-- FedProto -->
     <g transform="translate(513.120625 330.364062) scale(0.1 -0.1)">
      <use xlink:href="#DejaVuSans-46"/>
      <use xlink:href="#DejaVuSans-65" x="52.019531"/>
      <use xlink:href="#DejaVuSans-64" x="113.542969"/>
      <use xlink:href="#DejaVuSans-50" x="177.019531"/>
      <use xlink:href="#DejaVuSans-72" x="235.572266"/>
      <use xlink:href="#DejaVuSans-6f" x="274.435547"/>
      <use xlink:href="#DejaVuSans-74" x="335.617188"/>
      <use xlink:href="#DejaVuSans-6f" x="374.826172"/>
     </g>
    </g>
    <g id="line2d_42">
     <path d="M 485.120625 341.542187 
L 495.120625 341.542187 
L 505.120625 341.542187 
" style="fill: none; stroke: #ff0000; stroke-width: 2; stroke-linecap: square"/>
    </g>
    <g id="text_23">
     <!-- FedProp -->
     <g transform="translate(513.120625 345.042187) scale(0.1 -0.1)">
      <use xlink:href="#DejaVuSans-46"/>
      <use xlink:href="#DejaVuSans-65" x="52.019531"/>
      <use xlink:href="#DejaVuSans-64" x="113.542969"/>
      <use xlink:href="#DejaVuSans-50" x="177.019531"/>
      <use xlink:href="#DejaVuSans-72" x="235.572266"/>
      <use xlink:href="#DejaVuSans-6f" x="274.435547"/>
      <use xlink:href="#DejaVuSans-70" x="335.617188"/>
     </g>
    </g>
    <g id="line2d_43">
     <path d="M 485.120625 356.220312 
L 495.120625 356.220312 
L 505.120625 356.220312 
" style="fill: none; stroke: #ff00ff; stroke-width: 2; stroke-linecap: square"/>
    </g>
    <g id="text_24">
     <!-- FedDTG -->
     <g transform="translate(513.120625 359.720312) scale(0.1 -0.1)">
      <defs>
       <path id="DejaVuSans-44" d="M 1259 4147 
L 1259 519 
L 2022 519 
Q 2988 519 3436 956 
Q 3884 1394 3884 2338 
Q 3884 3275 3436 3711 
Q 2988 4147 2022 4147 
L 1259 4147 
z
M 628 4666 
L 1925 4666 
Q 3281 4666 3915 4102 
Q 4550 3538 4550 2338 
Q 4550 1131 3912 565 
Q 3275 0 1925 0 
L 628 0 
L 628 4666 
z
" transform="scale(0.015625)"/>
       <path id="DejaVuSans-54" d="M -19 4666 
L 3928 4666 
L 3928 4134 
L 2272 4134 
L 2272 0 
L 1638 0 
L 1638 4134 
L -19 4134 
L -19 4666 
z
" transform="scale(0.015625)"/>
      </defs>
      <use xlink:href="#DejaVuSans-46"/>
      <use xlink:href="#DejaVuSans-65" x="52.019531"/>
      <use xlink:href="#DejaVuSans-64" x="113.542969"/>
      <use xlink:href="#DejaVuSans-44" x="177.019531"/>
      <use xlink:href="#DejaVuSans-54" x="254.021484"/>
      <use xlink:href="#DejaVuSans-47" x="315.105469"/>
     </g>
    </g>
    <g id="line2d_44">
     <path d="M 485.120625 370.898438 
L 495.120625 370.898438 
L 505.120625 370.898438 
" style="fill: none; stroke: #ffa500; stroke-width: 2; stroke-linecap: square"/>
    </g>
    <g id="text_25">
     <!-- FedMEKT -->
     <g transform="translate(513.120625 374.398438) scale(0.1 -0.1)">
      <defs>
       <path id="DejaVuSans-4d" d="M 628 4666 
L 1569 4666 
L 2759 1491 
L 3956 4666 
L 4897 4666 
L 4897 0 
L 4281 0 
L 4281 4097 
L 3078 897 
L 2444 897 
L 1241 4097 
L 1241 0 
L 628 0 
L 628 4666 
z
" transform="scale(0.015625)"/>
       <path id="DejaVuSans-45" d="M 628 4666 
L 3578 4666 
L 3578 4134 
L 1259 4134 
L 1259 2753 
L 3481 2753 
L 3481 2222 
L 1259 2222 
L 1259 531 
L 3634 531 
L 3634 0 
L 628 0 
L 628 4666 
z
" transform="scale(0.015625)"/>
       <path id="DejaVuSans-4b" d="M 628 4666 
L 1259 4666 
L 1259 2694 
L 3353 4666 
L 4166 4666 
L 1850 2491 
L 4331 0 
L 3500 0 
L 1259 2247 
L 1259 0 
L 628 0 
L 628 4666 
z
" transform="scale(0.015625)"/>
      </defs>
      <use xlink:href="#DejaVuSans-46"/>
      <use xlink:href="#DejaVuSans-65" x="52.019531"/>
      <use xlink:href="#DejaVuSans-64" x="113.542969"/>
      <use xlink:href="#DejaVuSans-4d" x="177.019531"/>
      <use xlink:href="#DejaVuSans-45" x="263.298828"/>
      <use xlink:href="#DejaVuSans-4b" x="326.482422"/>
      <use xlink:href="#DejaVuSans-54" x="384.308594"/>
     </g>
    </g>
   </g>
  </g>
  <g id="axes_2">
   <g id="patch_8">
    <path d="M 614.38125 385.478125 
L 1137.26125 385.478125 
L 1137.26125 22.318125 
L 614.38125 22.318125 
z
" style="fill: #ffffff"/>
   </g>
   <g id="matplotlib.axis_3">
    <g id="xtick_7">
     <g id="line2d_45">
      <path d="M 633.347053 385.478125 
L 633.347053 22.318125 
" clip-path="url(#pc7f6d76452)" style="fill: none; stroke: #b0b0b0; stroke-opacity: 0.3; stroke-width: 0.8; stroke-linecap: square"/>
     </g>
     <g id="line2d_46">
      <g>
       <use xlink:href="#m26c465638d" x="633.347053" y="385.478125" style="stroke: #000000; stroke-width: 0.8"/>
      </g>
     </g>
     <g id="text_26">
      <!-- 0 -->
      <g transform="translate(630.165803 400.076562) scale(0.1 -0.1)">
       <use xlink:href="#DejaVuSans-30"/>
      </g>
     </g>
    </g>
    <g id="xtick_8">
     <g id="line2d_47">
      <path d="M 729.376438 385.478125 
L 729.376438 22.318125 
" clip-path="url(#pc7f6d76452)" style="fill: none; stroke: #b0b0b0; stroke-opacity: 0.3; stroke-width: 0.8; stroke-linecap: square"/>
     </g>
     <g id="line2d_48">
      <g>
       <use xlink:href="#m26c465638d" x="729.376438" y="385.478125" style="stroke: #000000; stroke-width: 0.8"/>
      </g>
     </g>
     <g id="text_27">
      <!-- 20 -->
      <g transform="translate(723.013938 400.076562) scale(0.1 -0.1)">
       <use xlink:href="#DejaVuSans-32"/>
       <use xlink:href="#DejaVuSans-30" x="63.623047"/>
      </g>
     </g>
    </g>
    <g id="xtick_9">
     <g id="line2d_49">
      <path d="M 825.405823 385.478125 
L 825.405823 22.318125 
" clip-path="url(#pc7f6d76452)" style="fill: none; stroke: #b0b0b0; stroke-opacity: 0.3; stroke-width: 0.8; stroke-linecap: square"/>
     </g>
     <g id="line2d_50">
      <g>
       <use xlink:href="#m26c465638d" x="825.405823" y="385.478125" style="stroke: #000000; stroke-width: 0.8"/>
      </g>
     </g>
     <g id="text_28">
      <!-- 40 -->
      <g transform="translate(819.043323 400.076562) scale(0.1 -0.1)">
       <use xlink:href="#DejaVuSans-34"/>
       <use xlink:href="#DejaVuSans-30" x="63.623047"/>
      </g>
     </g>
    </g>
    <g id="xtick_10">
     <g id="line2d_51">
      <path d="M 921.435208 385.478125 
L 921.435208 22.318125 
" clip-path="url(#pc7f6d76452)" style="fill: none; stroke: #b0b0b0; stroke-opacity: 0.3; stroke-width: 0.8; stroke-linecap: square"/>
     </g>
     <g id="line2d_52">
      <g>
       <use xlink:href="#m26c465638d" x="921.435208" y="385.478125" style="stroke: #000000; stroke-width: 0.8"/>
      </g>
     </g>
     <g id="text_29">
      <!-- 60 -->
      <g transform="translate(915.072708 400.076562) scale(0.1 -0.1)">
       <use xlink:href="#DejaVuSans-36"/>
       <use xlink:href="#DejaVuSans-30" x="63.623047"/>
      </g>
     </g>
    </g>
    <g id="xtick_11">
     <g id="line2d_53">
      <path d="M 1017.464593 385.478125 
L 1017.464593 22.318125 
" clip-path="url(#pc7f6d76452)" style="fill: none; stroke: #b0b0b0; stroke-opacity: 0.3; stroke-width: 0.8; stroke-linecap: square"/>
     </g>
     <g id="line2d_54">
      <g>
       <use xlink:href="#m26c465638d" x="1017.464593" y="385.478125" style="stroke: #000000; stroke-width: 0.8"/>
      </g>
     </g>
     <g id="text_30">
      <!-- 80 -->
      <g transform="translate(1011.102093 400.076562) scale(0.1 -0.1)">
       <use xlink:href="#DejaVuSans-38"/>
       <use xlink:href="#DejaVuSans-30" x="63.623047"/>
      </g>
     </g>
    </g>
    <g id="xtick_12">
     <g id="line2d_55">
      <path d="M 1113.493977 385.478125 
L 1113.493977 22.318125 
" clip-path="url(#pc7f6d76452)" style="fill: none; stroke: #b0b0b0; stroke-opacity: 0.3; stroke-width: 0.8; stroke-linecap: square"/>
     </g>
     <g id="line2d_56">
      <g>
       <use xlink:href="#m26c465638d" x="1113.493977" y="385.478125" style="stroke: #000000; stroke-width: 0.8"/>
      </g>
     </g>
     <g id="text_31">
      <!-- 100 -->
      <g transform="translate(1103.950227 400.076562) scale(0.1 -0.1)">
       <use xlink:href="#DejaVuSans-31"/>
       <use xlink:href="#DejaVuSans-30" x="63.623047"/>
       <use xlink:href="#DejaVuSans-30" x="127.246094"/>
      </g>
     </g>
    </g>
    <g id="text_32">
     <!-- Communication Rounds -->
     <g transform="translate(816.398594 413.754687) scale(0.1 -0.1)">
      <use xlink:href="#DejaVuSans-43"/>
      <use xlink:href="#DejaVuSans-6f" x="69.824219"/>
      <use xlink:href="#DejaVuSans-6d" x="131.005859"/>
      <use xlink:href="#DejaVuSans-6d" x="228.417969"/>
      <use xlink:href="#DejaVuSans-75" x="325.830078"/>
      <use xlink:href="#DejaVuSans-6e" x="389.208984"/>
      <use xlink:href="#DejaVuSans-69" x="452.587891"/>
      <use xlink:href="#DejaVuSans-63" x="480.371094"/>
      <use xlink:href="#DejaVuSans-61" x="535.351562"/>
      <use xlink:href="#DejaVuSans-74" x="596.630859"/>
      <use xlink:href="#DejaVuSans-69" x="635.839844"/>
      <use xlink:href="#DejaVuSans-6f" x="663.623047"/>
      <use xlink:href="#DejaVuSans-6e" x="724.804688"/>
      <use xlink:href="#DejaVuSans-20" x="788.183594"/>
      <use xlink:href="#DejaVuSans-52" x="819.970703"/>
      <use xlink:href="#DejaVuSans-6f" x="884.953125"/>
      <use xlink:href="#DejaVuSans-75" x="946.134766"/>
      <use xlink:href="#DejaVuSans-6e" x="1009.513672"/>
      <use xlink:href="#DejaVuSans-64" x="1072.892578"/>
      <use xlink:href="#DejaVuSans-73" x="1136.369141"/>
     </g>
    </g>
   </g>
   <g id="matplotlib.axis_4">
    <g id="ytick_10">
     <g id="line2d_57">
      <path d="M 614.38125 374.295653 
L 1137.26125 374.295653 
" clip-path="url(#pc7f6d76452)" style="fill: none; stroke: #b0b0b0; stroke-opacity: 0.3; stroke-width: 0.8; stroke-linecap: square"/>
     </g>
     <g id="line2d_58">
      <g>
       <use xlink:href="#mfaa5dc987b" x="614.38125" y="374.295653" style="stroke: #000000; stroke-width: 0.8"/>
      </g>
     </g>
     <g id="text_33">
      <!-- 0.0 -->
      <g transform="translate(591.478125 378.094872) scale(0.1 -0.1)">
       <use xlink:href="#DejaVuSans-30"/>
       <use xlink:href="#DejaVuSans-2e" x="63.623047"/>
       <use xlink:href="#DejaVuSans-30" x="95.410156"/>
      </g>
     </g>
    </g>
    <g id="ytick_11">
     <g id="line2d_59">
      <path d="M 614.38125 326.762009 
L 1137.26125 326.762009 
" clip-path="url(#pc7f6d76452)" style="fill: none; stroke: #b0b0b0; stroke-opacity: 0.3; stroke-width: 0.8; stroke-linecap: square"/>
     </g>
     <g id="line2d_60">
      <g>
       <use xlink:href="#mfaa5dc987b" x="614.38125" y="326.762009" style="stroke: #000000; stroke-width: 0.8"/>
      </g>
     </g>
     <g id="text_34">
      <!-- 0.1 -->
      <g transform="translate(591.478125 330.561228) scale(0.1 -0.1)">
       <use xlink:href="#DejaVuSans-30"/>
       <use xlink:href="#DejaVuSans-2e" x="63.623047"/>
       <use xlink:href="#DejaVuSans-31" x="95.410156"/>
      </g>
     </g>
    </g>
    <g id="ytick_12">
     <g id="line2d_61">
      <path d="M 614.38125 279.228365 
L 1137.26125 279.228365 
" clip-path="url(#pc7f6d76452)" style="fill: none; stroke: #b0b0b0; stroke-opacity: 0.3; stroke-width: 0.8; stroke-linecap: square"/>
     </g>
     <g id="line2d_62">
      <g>
       <use xlink:href="#mfaa5dc987b" x="614.38125" y="279.228365" style="stroke: #000000; stroke-width: 0.8"/>
      </g>
     </g>
     <g id="text_35">
      <!-- 0.2 -->
      <g transform="translate(591.478125 283.027583) scale(0.1 -0.1)">
       <use xlink:href="#DejaVuSans-30"/>
       <use xlink:href="#DejaVuSans-2e" x="63.623047"/>
       <use xlink:href="#DejaVuSans-32" x="95.410156"/>
      </g>
     </g>
    </g>
    <g id="ytick_13">
     <g id="line2d_63">
      <path d="M 614.38125 231.694721 
L 1137.26125 231.694721 
" clip-path="url(#pc7f6d76452)" style="fill: none; stroke: #b0b0b0; stroke-opacity: 0.3; stroke-width: 0.8; stroke-linecap: square"/>
     </g>
     <g id="line2d_64">
      <g>
       <use xlink:href="#mfaa5dc987b" x="614.38125" y="231.694721" style="stroke: #000000; stroke-width: 0.8"/>
      </g>
     </g>
     <g id="text_36">
      <!-- 0.3 -->
      <g transform="translate(591.478125 235.493939) scale(0.1 -0.1)">
       <use xlink:href="#DejaVuSans-30"/>
       <use xlink:href="#DejaVuSans-2e" x="63.623047"/>
       <use xlink:href="#DejaVuSans-33" x="95.410156"/>
      </g>
     </g>
    </g>
    <g id="ytick_14">
     <g id="line2d_65">
      <path d="M 614.38125 184.161076 
L 1137.26125 184.161076 
" clip-path="url(#pc7f6d76452)" style="fill: none; stroke: #b0b0b0; stroke-opacity: 0.3; stroke-width: 0.8; stroke-linecap: square"/>
     </g>
     <g id="line2d_66">
      <g>
       <use xlink:href="#mfaa5dc987b" x="614.38125" y="184.161076" style="stroke: #000000; stroke-width: 0.8"/>
      </g>
     </g>
     <g id="text_37">
      <!-- 0.4 -->
      <g transform="translate(591.478125 187.960295) scale(0.1 -0.1)">
       <use xlink:href="#DejaVuSans-30"/>
       <use xlink:href="#DejaVuSans-2e" x="63.623047"/>
       <use xlink:href="#DejaVuSans-34" x="95.410156"/>
      </g>
     </g>
    </g>
    <g id="ytick_15">
     <g id="line2d_67">
      <path d="M 614.38125 136.627432 
L 1137.26125 136.627432 
" clip-path="url(#pc7f6d76452)" style="fill: none; stroke: #b0b0b0; stroke-opacity: 0.3; stroke-width: 0.8; stroke-linecap: square"/>
     </g>
     <g id="line2d_68">
      <g>
       <use xlink:href="#mfaa5dc987b" x="614.38125" y="136.627432" style="stroke: #000000; stroke-width: 0.8"/>
      </g>
     </g>
     <g id="text_38">
      <!-- 0.5 -->
      <g transform="translate(591.478125 140.426651) scale(0.1 -0.1)">
       <use xlink:href="#DejaVuSans-30"/>
       <use xlink:href="#DejaVuSans-2e" x="63.623047"/>
       <use xlink:href="#DejaVuSans-35" x="95.410156"/>
      </g>
     </g>
    </g>
    <g id="ytick_16">
     <g id="line2d_69">
      <path d="M 614.38125 89.093788 
L 1137.26125 89.093788 
" clip-path="url(#pc7f6d76452)" style="fill: none; stroke: #b0b0b0; stroke-opacity: 0.3; stroke-width: 0.8; stroke-linecap: square"/>
     </g>
     <g id="line2d_70">
      <g>
       <use xlink:href="#mfaa5dc987b" x="614.38125" y="89.093788" style="stroke: #000000; stroke-width: 0.8"/>
      </g>
     </g>
     <g id="text_39">
      <!-- 0.6 -->
      <g transform="translate(591.478125 92.893007) scale(0.1 -0.1)">
       <use xlink:href="#DejaVuSans-30"/>
       <use xlink:href="#DejaVuSans-2e" x="63.623047"/>
       <use xlink:href="#DejaVuSans-36" x="95.410156"/>
      </g>
     </g>
    </g>
    <g id="ytick_17">
     <g id="line2d_71">
      <path d="M 614.38125 41.560144 
L 1137.26125 41.560144 
" clip-path="url(#pc7f6d76452)" style="fill: none; stroke: #b0b0b0; stroke-opacity: 0.3; stroke-width: 0.8; stroke-linecap: square"/>
     </g>
     <g id="line2d_72">
      <g>
       <use xlink:href="#mfaa5dc987b" x="614.38125" y="41.560144" style="stroke: #000000; stroke-width: 0.8"/>
      </g>
     </g>
     <g id="text_40">
      <!-- 0.7 -->
      <g transform="translate(591.478125 45.359363) scale(0.1 -0.1)">
       <use xlink:href="#DejaVuSans-30"/>
       <use xlink:href="#DejaVuSans-2e" x="63.623047"/>
       <use xlink:href="#DejaVuSans-37" x="95.410156"/>
      </g>
     </g>
    </g>
    <g id="text_41">
     <!-- Global F1 Score -->
     <g transform="translate(585.398438 243.085625) rotate(-90) scale(0.1 -0.1)">
      <use xlink:href="#DejaVuSans-47"/>
      <use xlink:href="#DejaVuSans-6c" x="77.490234"/>
      <use xlink:href="#DejaVuSans-6f" x="105.273438"/>
      <use xlink:href="#DejaVuSans-62" x="166.455078"/>
      <use xlink:href="#DejaVuSans-61" x="229.931641"/>
      <use xlink:href="#DejaVuSans-6c" x="291.210938"/>
      <use xlink:href="#DejaVuSans-20" x="318.994141"/>
      <use xlink:href="#DejaVuSans-46" x="350.78125"/>
      <use xlink:href="#DejaVuSans-31" x="408.300781"/>
      <use xlink:href="#DejaVuSans-20" x="471.923828"/>
      <use xlink:href="#DejaVuSans-53" x="503.710938"/>
      <use xlink:href="#DejaVuSans-63" x="567.1875"/>
      <use xlink:href="#DejaVuSans-6f" x="622.167969"/>
      <use xlink:href="#DejaVuSans-72" x="683.349609"/>
      <use xlink:href="#DejaVuSans-65" x="722.212891"/>
     </g>
    </g>
   </g>
   <g id="line2d_73">
    <path d="M 638.148523 324.635933 
L 642.949992 315.953565 
L 647.751461 303.119984 
L 652.55293 292.724856 
L 657.3544 278.951177 
L 662.155869 261.30213 
L 666.957338 246.320714 
L 671.758807 228.085543 
L 676.560277 212.662957 
L 681.361746 197.822257 
L 686.163215 179.915119 
L 690.964684 169.983454 
L 695.766154 157.234329 
L 700.567623 145.787866 
L 705.369092 137.550949 
L 710.170561 128.52165 
L 714.972031 120.421891 
L 719.7735 111.491855 
L 724.574969 104.169678 
L 729.376438 99.526201 
L 734.177907 94.2841 
L 738.979377 89.672612 
L 743.780846 86.191443 
L 748.582315 82.392625 
L 753.383784 79.289907 
L 758.185254 75.343027 
L 762.986723 71.754544 
L 767.788192 68.44957 
L 772.589661 65.191146 
L 777.391131 62.698665 
L 782.1926 60.13605 
L 786.994069 57.700184 
L 791.795538 56.04023 
L 796.597008 54.46101 
L 801.398477 53.063794 
L 806.199946 51.968379 
L 811.001415 51.01844 
L 815.802885 50.303611 
L 820.604354 49.493199 
L 825.405823 48.96036 
L 830.207292 48.514278 
L 835.008761 48.014654 
L 839.810231 47.566452 
L 844.6117 46.984463 
L 849.413169 46.48912 
L 854.214638 46.066417 
L 859.016108 45.702369 
L 863.817577 45.391066 
L 868.619046 45.047438 
L 873.420515 44.690778 
L 878.221985 44.35489 
L 883.023454 44.051314 
L 887.824923 43.727014 
L 892.626392 43.323452 
L 897.427862 42.904463 
L 902.229331 42.374387 
L 907.0308 41.849037 
L 911.832269 41.515235 
L 916.633739 41.295863 
L 921.435208 41.126307 
L 926.236677 40.986178 
L 931.038146 40.806287 
L 935.839615 40.705302 
L 940.641085 40.655444 
L 945.442554 40.595009 
L 950.244023 40.504908 
L 955.045492 40.426962 
L 959.846962 40.378758 
L 964.648431 40.291077 
L 969.4499 40.231475 
L 974.251369 40.171399 
L 979.052839 40.09084 
L 983.854308 40.025125 
L 988.655777 39.964876 
L 993.457246 39.879046 
L 998.258716 39.835094 
L 1003.060185 39.783607 
L 1007.861654 39.74997 
L 1012.663123 39.723666 
L 1017.464593 39.69977 
L 1022.266062 39.668659 
L 1027.067531 39.630071 
L 1031.869 39.612912 
L 1036.670469 39.568722 
L 1041.471939 39.531265 
L 1046.273408 39.501017 
L 1051.074877 39.480307 
L 1055.876346 39.452056 
L 1060.677816 39.426208 
L 1065.479285 39.413458 
L 1070.280754 39.398312 
L 1075.082223 39.394684 
L 1079.883693 39.375566 
L 1084.685162 39.34932 
L 1089.486631 39.34213 
L 1094.2881 39.317058 
L 1099.08957 39.301924 
L 1103.891039 39.293568 
L 1108.692508 39.288777 
L 1113.493977 39.280423 
" clip-path="url(#pc7f6d76452)" style="fill: none; stroke: #808080; stroke-width: 2; stroke-linecap: square"/>
   </g>
   <g id="line2d_74">
    <path d="M 638.148523 364.730516 
L 642.949992 367.522986 
L 647.751461 367.92019 
L 652.55293 365.997817 
L 657.3544 365.625659 
L 662.155869 363.350347 
L 666.957338 360.829158 
L 671.758807 355.696748 
L 676.560277 347.038678 
L 681.361746 339.115493 
L 686.163215 336.812225 
L 690.964684 330.748046 
L 695.766154 329.171481 
L 700.567623 324.645768 
L 705.369092 316.115112 
L 710.170561 309.776803 
L 714.972031 302.602688 
L 719.7735 292.416728 
L 724.574969 288.627668 
L 729.376438 284.735875 
L 734.177907 279.343196 
L 738.979377 276.780457 
L 743.780846 273.953573 
L 748.582315 265.566097 
L 753.383784 258.124874 
L 758.185254 253.837148 
L 762.986723 254.088371 
L 767.788192 250.832395 
L 772.589661 244.547285 
L 777.391131 241.91028 
L 782.1926 226.13105 
L 786.994069 225.744492 
L 791.795538 218.859593 
L 796.597008 207.412388 
L 801.398477 215.859215 
L 806.199946 201.592774 
L 811.001415 202.638033 
L 815.802885 192.410229 
L 820.604354 187.035363 
L 825.405823 183.801922 
L 830.207292 169.940409 
L 835.008761 162.008714 
L 839.810231 158.488208 
L 844.6117 156.798022 
L 849.413169 136.357324 
L 854.214638 138.247441 
L 859.016108 130.981204 
L 863.817577 123.658119 
L 868.619046 123.956508 
L 873.420515 111.035963 
L 878.221985 106.237942 
L 883.023454 100.831252 
L 887.824923 101.508897 
L 892.626392 96.613902 
L 897.427862 89.849725 
L 902.229331 86.557944 
L 907.0308 86.764354 
L 911.832269 78.141816 
L 916.633739 74.827126 
L 921.435208 74.938861 
L 926.236677 67.258393 
L 931.038146 67.489553 
L 935.839615 64.249866 
L 940.641085 61.476967 
L 945.442554 61.380373 
L 950.244023 58.49273 
L 955.045492 58.487102 
L 959.846962 58.179967 
L 964.648431 57.54098 
L 969.4499 54.338595 
L 974.251369 52.548416 
L 979.052839 51.796806 
L 983.854308 49.566331 
L 988.655777 49.305893 
L 993.457246 47.553491 
L 998.258716 47.927836 
L 1003.060185 46.989787 
L 1007.861654 45.101768 
L 1012.663123 46.382623 
L 1017.464593 46.772246 
L 1022.266062 45.39322 
L 1027.067531 45.478457 
L 1031.869 46.895665 
L 1036.670469 47.49879 
L 1041.471939 45.433484 
L 1046.273408 44.225549 
L 1051.074877 41.82516 
L 1055.876346 41.296179 
L 1060.677816 40.85626 
L 1065.479285 40.884399 
L 1070.280754 40.563615 
L 1075.082223 40.763178 
L 1079.883693 40.492421 
L 1084.685162 39.970702 
L 1089.486631 40.111318 
L 1094.2881 39.920525 
L 1099.08957 39.953819 
L 1103.891039 40.184842 
L 1108.692508 39.925774 
L 1113.493977 39.738994 
" clip-path="url(#pc7f6d76452)" style="fill: none; stroke: #0000ff; stroke-width: 2; stroke-linecap: square"/>
   </g>
   <g id="line2d_75">
    <path d="M 638.148523 364.730516 
L 642.949992 367.522986 
L 647.751461 367.92019 
L 652.55293 365.997817 
L 657.3544 365.625659 
L 662.155869 363.350347 
L 666.957338 360.829158 
L 671.758807 355.696748 
L 676.560277 347.038678 
L 681.361746 339.115493 
L 686.163215 336.812225 
L 690.964684 330.748046 
L 695.766154 329.171481 
L 700.567623 324.645769 
L 705.369092 316.115112 
L 710.170561 309.776803 
L 714.972031 302.602688 
L 719.7735 292.416728 
L 724.574969 288.627668 
L 729.376438 284.492689 
L 734.177907 279.325027 
L 738.979377 276.822616 
L 743.780846 273.956896 
L 748.582315 265.548597 
L 753.383784 258.000974 
L 758.185254 253.443651 
L 762.986723 253.485287 
L 767.788192 250.229259 
L 772.589661 244.388395 
L 777.391131 242.006224 
L 782.1926 226.49303 
L 786.994069 225.636925 
L 791.795538 219.0915 
L 796.597008 208.573822 
L 801.398477 216.107795 
L 806.199946 202.142309 
L 811.001415 203.027037 
L 815.802885 191.832474 
L 820.604354 186.820263 
L 825.405823 187.316094 
L 830.207292 172.628326 
L 835.008761 169.112489 
L 839.810231 164.678542 
L 844.6117 164.104262 
L 849.413169 144.772054 
L 854.214638 141.103887 
L 859.016108 135.363226 
L 863.817577 127.309512 
L 868.619046 129.952954 
L 873.420515 117.249796 
L 878.221985 113.611113 
L 883.023454 102.025412 
L 887.824923 97.509973 
L 892.626392 93.131995 
L 897.427862 86.8262 
L 902.229331 94.37513 
L 907.0308 89.59474 
L 911.832269 80.855272 
L 916.633739 82.640731 
L 921.435208 84.812456 
L 926.236677 75.325777 
L 931.038146 73.664781 
L 935.839615 69.657411 
L 940.641085 62.672835 
L 945.442554 61.831746 
L 950.244023 58.565869 
L 955.045492 59.366766 
L 959.846962 54.694522 
L 964.648431 55.799377 
L 969.4499 55.496549 
L 974.251369 54.214896 
L 979.052839 52.694263 
L 983.854308 51.335755 
L 988.655777 50.706349 
L 993.457246 49.861383 
L 998.258716 48.889502 
L 1003.060185 48.085765 
L 1007.861654 45.925212 
L 1012.663123 44.733975 
L 1017.464593 46.062853 
L 1022.266062 43.387426 
L 1027.067531 42.714915 
L 1031.869 41.92144 
L 1036.670469 42.389329 
L 1041.471939 42.282945 
L 1046.273408 42.308473 
L 1051.074877 41.68571 
L 1055.876346 41.585153 
L 1060.677816 41.34323 
L 1065.479285 41.297229 
L 1070.280754 40.970915 
L 1075.082223 40.844629 
L 1079.883693 40.676612 
L 1084.685162 40.124051 
L 1089.486631 40.30091 
L 1094.2881 40.324556 
L 1099.08957 40.118927 
L 1103.891039 39.777248 
L 1108.692508 39.983031 
L 1113.493977 39.759119 
" clip-path="url(#pc7f6d76452)" style="fill: none; stroke: #00ffff; stroke-width: 2; stroke-linecap: square"/>
   </g>
   <g id="line2d_76">
    <path d="M 638.148523 357.222576 
L 642.949992 350.873583 
L 647.751461 341.913738 
L 652.55293 330.543382 
L 657.3544 318.528956 
L 662.155869 299.007439 
L 666.957338 280.297531 
L 671.758807 261.0041 
L 676.560277 240.245583 
L 681.361746 219.353854 
L 686.163215 200.054235 
L 690.964684 182.838511 
L 695.766154 167.48537 
L 700.567623 155.639469 
L 705.369092 145.387823 
L 710.170561 136.715797 
L 714.972031 130.787325 
L 719.7735 125.489348 
L 724.574969 120.937038 
L 729.376438 115.388819 
L 734.177907 111.005186 
L 738.979377 107.620125 
L 743.780846 104.680051 
L 748.582315 102.048561 
L 753.383784 100.050175 
L 758.185254 98.351008 
L 762.986723 96.794588 
L 767.788192 95.537091 
L 772.589661 94.373016 
L 777.391131 93.35689 
L 782.1926 92.590479 
L 786.994069 92.012872 
L 791.795538 91.396178 
L 796.597008 90.668483 
L 801.398477 89.94316 
L 806.199946 89.386655 
L 811.001415 88.638527 
L 815.802885 88.017953 
L 820.604354 87.448105 
L 825.405823 86.980239 
L 830.207292 86.349806 
L 835.008761 85.936692 
L 839.810231 85.69815 
L 844.6117 85.297118 
L 849.413169 84.918985 
L 854.214638 84.486129 
L 859.016108 84.017595 
L 863.817577 83.663078 
L 868.619046 83.054871 
L 873.420515 82.540057 
L 878.221985 82.005599 
L 883.023454 81.418447 
L 887.824923 80.703178 
L 892.626392 79.914375 
L 897.427862 79.587852 
L 902.229331 79.379173 
L 907.0308 79.067215 
L 911.832269 78.664428 
L 916.633739 78.23639 
L 921.435208 77.975574 
L 926.236677 77.549453 
L 931.038146 77.194015 
L 935.839615 77.011961 
L 940.641085 76.629439 
L 945.442554 76.012698 
L 950.244023 75.633215 
L 955.045492 75.357044 
L 959.846962 75.088408 
L 964.648431 74.79839 
L 969.4499 74.523867 
L 974.251369 74.256033 
L 979.052839 74.019666 
L 983.854308 73.868654 
L 988.655777 73.691372 
L 993.457246 73.460635 
L 998.258716 73.181474 
L 1003.060185 72.944957 
L 1007.861654 72.702659 
L 1012.663123 72.497738 
L 1017.464593 72.258286 
L 1022.266062 72.082792 
L 1027.067531 71.91815 
L 1031.869 71.817718 
L 1036.670469 71.633388 
L 1041.471939 71.388896 
L 1046.273408 71.183198 
L 1051.074877 70.986166 
L 1055.876346 70.771671 
L 1060.677816 70.509799 
L 1065.479285 70.209992 
L 1070.280754 69.970278 
L 1075.082223 69.763061 
L 1079.883693 69.578202 
L 1084.685162 69.382925 
L 1089.486631 69.180843 
L 1094.2881 69.043719 
L 1099.08957 68.893859 
L 1103.891039 68.729473 
L 1108.692508 68.596486 
L 1113.493977 68.500821 
" clip-path="url(#pc7f6d76452)" style="fill: none; stroke: #008000; stroke-width: 2; stroke-linecap: square"/>
   </g>
   <g id="line2d_77">
    <path d="M 638.148523 299.144564 
L 642.949992 270.063921 
L 647.751461 239.891713 
L 652.55293 208.207948 
L 657.3544 183.876851 
L 662.155869 149.020928 
L 666.957338 117.664185 
L 671.758807 92.402235 
L 676.560277 66.882108 
L 681.361746 50.824384 
L 686.163215 43.642905 
L 690.964684 41.307985 
L 695.766154 40.206597 
L 700.567623 39.702851 
L 705.369092 39.314173 
L 710.170561 39.220626 
L 714.972031 39.160379 
L 719.7735 39.010993 
L 724.574969 38.924222 
L 729.376438 38.873001 
L 734.177907 38.840077 
L 738.979377 38.827783 
L 743.780846 38.825398 
L 748.582315 38.828149 
L 753.383784 38.829688 
L 758.185254 38.829688 
L 762.986723 38.829688 
L 767.788192 38.829688 
L 772.589661 38.829688 
L 777.391131 38.829688 
L 782.1926 38.829688 
L 786.994069 38.829688 
L 791.795538 38.829688 
L 796.597008 38.829688 
L 801.398477 38.829688 
L 806.199946 38.829688 
L 811.001415 38.829688 
L 815.802885 38.829688 
L 820.604354 38.829688 
L 825.405823 38.829688 
L 830.207292 38.829688 
L 835.008761 38.829688 
L 839.810231 38.829688 
L 844.6117 38.829688 
L 849.413169 38.829688 
L 854.214638 38.829688 
L 859.016108 38.829688 
L 863.817577 38.829688 
L 868.619046 38.829688 
L 873.420515 38.829688 
L 878.221985 38.829688 
L 883.023454 38.829688 
L 887.824923 38.829688 
L 892.626392 38.829688 
L 897.427862 38.829688 
L 902.229331 38.829688 
L 907.0308 38.829688 
L 911.832269 38.829688 
L 916.633739 38.829688 
L 921.435208 38.829688 
L 926.236677 38.829688 
L 931.038146 38.829688 
L 935.839615 38.829688 
L 940.641085 38.829688 
L 945.442554 38.829688 
L 950.244023 38.829688 
L 955.045492 38.829688 
L 959.846962 38.829688 
L 964.648431 38.829688 
L 969.4499 38.829688 
L 974.251369 38.829688 
L 979.052839 38.829688 
L 983.854308 38.829688 
L 988.655777 38.829688 
L 993.457246 38.829688 
L 998.258716 38.829688 
L 1003.060185 38.829688 
L 1007.861654 38.829688 
L 1012.663123 38.829688 
L 1017.464593 38.829688 
L 1022.266062 38.82811 
L 1027.067531 38.82811 
L 1031.869 38.82811 
L 1036.670469 38.82811 
L 1041.471939 38.82811 
L 1046.273408 38.82811 
L 1051.074877 38.82811 
L 1055.876346 38.82811 
L 1060.677816 38.830092 
L 1065.479285 38.838018 
L 1070.280754 38.84 
L 1075.082223 38.841981 
L 1079.883693 38.845944 
L 1084.685162 38.849908 
L 1089.486631 38.850312 
L 1094.2881 38.856257 
L 1099.08957 38.858643 
L 1103.891039 38.866571 
L 1108.692508 38.872516 
L 1113.493977 38.874498 
" clip-path="url(#pc7f6d76452)" style="fill: none; stroke: #ff0000; stroke-width: 2; stroke-linecap: square"/>
   </g>
   <g id="line2d_78">
    <path d="M 638.148523 366.107582 
L 642.949992 368.527691 
L 647.751461 368.970852 
L 652.55293 367.620515 
L 657.3544 368.8758 
L 662.155869 367.156878 
L 666.957338 368.069989 
L 671.758807 367.396547 
L 676.560277 366.839061 
L 681.361746 365.90083 
L 686.163215 362.748122 
L 690.964684 362.441949 
L 695.766154 360.323592 
L 700.567623 356.415933 
L 705.369092 351.845064 
L 710.170561 345.296563 
L 714.972031 341.79202 
L 719.7735 333.659722 
L 724.574969 331.629684 
L 729.376438 324.899189 
L 734.177907 321.230534 
L 738.979377 313.623262 
L 743.780846 311.486366 
L 748.582315 303.279559 
L 753.383784 299.590814 
L 758.185254 299.497213 
L 762.986723 298.409539 
L 767.788192 297.635147 
L 772.589661 294.590694 
L 777.391131 291.497167 
L 782.1926 292.729306 
L 786.994069 293.282138 
L 791.795538 292.724715 
L 796.597008 285.008318 
L 801.398477 289.610272 
L 806.199946 286.425269 
L 811.001415 281.953413 
L 815.802885 282.121037 
L 820.604354 280.145629 
L 825.405823 286.036646 
L 830.207292 282.040505 
L 835.008761 273.267186 
L 839.810231 262.800182 
L 844.6117 266.352839 
L 849.413169 261.37621 
L 854.214638 262.775683 
L 859.016108 264.020855 
L 863.817577 264.513462 
L 868.619046 261.695825 
L 873.420515 259.445602 
L 878.221985 257.290406 
L 883.023454 257.735945 
L 887.824923 253.909556 
L 892.626392 253.636979 
L 897.427862 256.929956 
L 902.229331 265.221874 
L 907.0308 254.553419 
L 911.832269 259.010415 
L 916.633739 253.954351 
L 921.435208 254.546103 
L 926.236677 252.812457 
L 931.038146 251.857305 
L 935.839615 247.431943 
L 940.641085 254.106262 
L 945.442554 249.069323 
L 950.244023 245.760064 
L 955.045492 245.846847 
L 959.846962 240.744844 
L 964.648431 237.750422 
L 969.4499 237.645726 
L 974.251369 233.877544 
L 979.052839 220.816239 
L 983.854308 215.112485 
L 988.655777 208.009928 
L 993.457246 201.039294 
L 998.258716 196.807673 
L 1003.060185 186.154495 
L 1007.861654 182.16574 
L 1012.663123 178.252269 
L 1017.464593 168.31654 
L 1022.266062 160.922937 
L 1027.067531 156.349258 
L 1031.869 142.103391 
L 1036.670469 142.73057 
L 1041.471939 147.753069 
L 1046.273408 142.435712 
L 1051.074877 138.27419 
L 1055.876346 139.608701 
L 1060.677816 137.632895 
L 1065.479285 130.673446 
L 1070.280754 133.509399 
L 1075.082223 130.769137 
L 1079.883693 132.701461 
L 1084.685162 127.615441 
L 1089.486631 124.154116 
L 1094.2881 129.512752 
L 1099.08957 121.768101 
L 1103.891039 118.654261 
L 1108.692508 115.292559 
L 1113.493977 114.810374 
" clip-path="url(#pc7f6d76452)" style="fill: none; stroke: #ff00ff; stroke-width: 2; stroke-linecap: square"/>
   </g>
   <g id="line2d_79">
    <path d="M 638.148523 357.221888 
L 642.949992 352.551798 
L 647.751461 344.866915 
L 652.55293 334.722451 
L 657.3544 320.948877 
L 662.155869 305.702536 
L 666.957338 285.620043 
L 671.758807 270.208089 
L 676.560277 250.249386 
L 681.361746 232.567006 
L 686.163215 211.457721 
L 690.964684 192.617029 
L 695.766154 175.587494 
L 700.567623 164.562926 
L 705.369092 153.083641 
L 710.170561 145.116569 
L 714.972031 134.692747 
L 719.7735 127.553304 
L 724.574969 121.495121 
L 729.376438 116.081972 
L 734.177907 111.692567 
L 738.979377 108.844472 
L 743.780846 105.835982 
L 748.582315 103.021323 
L 753.383784 100.633199 
L 758.185254 98.905712 
L 762.986723 97.30994 
L 767.788192 96.066524 
L 772.589661 94.734483 
L 777.391131 93.553612 
L 782.1926 92.659216 
L 786.994069 91.739507 
L 791.795538 91.089172 
L 796.597008 90.198323 
L 801.398477 89.36973 
L 806.199946 88.466478 
L 811.001415 87.484779 
L 815.802885 86.884293 
L 820.604354 86.1935 
L 825.405823 85.389859 
L 830.207292 84.806445 
L 835.008761 84.367038 
L 839.810231 83.960429 
L 844.6117 83.647785 
L 849.413169 83.297472 
L 854.214638 82.86654 
L 859.016108 82.405324 
L 863.817577 81.702622 
L 868.619046 80.743356 
L 873.420515 80.012437 
L 878.221985 78.609107 
L 883.023454 77.892551 
L 887.824923 77.594373 
L 892.626392 77.36042 
L 897.427862 77.036708 
L 902.229331 76.754216 
L 907.0308 76.357516 
L 911.832269 76.030496 
L 916.633739 75.34967 
L 921.435208 75.003131 
L 926.236677 74.654662 
L 931.038146 74.330354 
L 935.839615 74.015362 
L 940.641085 73.680699 
L 945.442554 73.460612 
L 950.244023 73.258502 
L 955.045492 73.020813 
L 959.846962 72.801192 
L 964.648431 72.607477 
L 969.4499 72.370502 
L 974.251369 72.145612 
L 979.052839 71.96595 
L 983.854308 71.753324 
L 988.655777 71.592718 
L 993.457246 71.489345 
L 998.258716 71.365201 
L 1003.060185 71.016985 
L 1007.861654 70.727069 
L 1012.663123 70.538662 
L 1017.464593 70.345373 
L 1022.266062 70.034268 
L 1027.067531 69.767311 
L 1031.869 69.463216 
L 1036.670469 69.155813 
L 1041.471939 68.904686 
L 1046.273408 68.782318 
L 1051.074877 68.659966 
L 1055.876346 68.470736 
L 1060.677816 68.292676 
L 1065.479285 68.144793 
L 1070.280754 67.994019 
L 1075.082223 67.836636 
L 1079.883693 67.683013 
L 1084.685162 67.541684 
L 1089.486631 67.287773 
L 1094.2881 66.988766 
L 1099.08957 66.660774 
L 1103.891039 66.325927 
L 1108.692508 66.045724 
L 1113.493977 65.778423 
" clip-path="url(#pc7f6d76452)" style="fill: none; stroke: #ffa500; stroke-width: 2; stroke-linecap: square"/>
   </g>
   <g id="patch_9">
    <path d="M 614.38125 385.478125 
L 614.38125 22.318125 
" style="fill: none; stroke: #000000; stroke-width: 0.8; stroke-linejoin: miter; stroke-linecap: square"/>
   </g>
   <g id="patch_10">
    <path d="M 1137.26125 385.478125 
L 1137.26125 22.318125 
" style="fill: none; stroke: #000000; stroke-width: 0.8; stroke-linejoin: miter; stroke-linecap: square"/>
   </g>
   <g id="patch_11">
    <path d="M 614.38125 385.478125 
L 1137.26125 385.478125 
" style="fill: none; stroke: #000000; stroke-width: 0.8; stroke-linejoin: miter; stroke-linecap: square"/>
   </g>
   <g id="patch_12">
    <path d="M 614.38125 22.318125 
L 1137.26125 22.318125 
" style="fill: none; stroke: #000000; stroke-width: 0.8; stroke-linejoin: miter; stroke-linecap: square"/>
   </g>
   <g id="text_42">
    <!-- F1 Score Comparison - opp -->
    <g transform="translate(794.744375 16.318125) scale(0.12 -0.12)">
     <use xlink:href="#DejaVuSans-46"/>
     <use xlink:href="#DejaVuSans-31" x="57.519531"/>
     <use xlink:href="#DejaVuSans-20" x="121.142578"/>
     <use xlink:href="#DejaVuSans-53" x="152.929688"/>
     <use xlink:href="#DejaVuSans-63" x="216.40625"/>
     <use xlink:href="#DejaVuSans-6f" x="271.386719"/>
     <use xlink:href="#DejaVuSans-72" x="332.568359"/>
     <use xlink:href="#DejaVuSans-65" x="371.431641"/>
     <use xlink:href="#DejaVuSans-20" x="432.955078"/>
     <use xlink:href="#DejaVuSans-43" x="464.742188"/>
     <use xlink:href="#DejaVuSans-6f" x="534.566406"/>
     <use xlink:href="#DejaVuSans-6d" x="595.748047"/>
     <use xlink:href="#DejaVuSans-70" x="693.160156"/>
     <use xlink:href="#DejaVuSans-61" x="756.636719"/>
     <use xlink:href="#DejaVuSans-72" x="817.916016"/>
     <use xlink:href="#DejaVuSans-69" x="859.029297"/>
     <use xlink:href="#DejaVuSans-73" x="886.8125"/>
     <use xlink:href="#DejaVuSans-6f" x="938.912109"/>
     <use xlink:href="#DejaVuSans-6e" x="1000.09375"/>
     <use xlink:href="#DejaVuSans-20" x="1063.472656"/>
     <use xlink:href="#DejaVuSans-2d" x="1095.259766"/>
     <use xlink:href="#DejaVuSans-20" x="1131.34375"/>
     <use xlink:href="#DejaVuSans-6f" x="1163.130859"/>
     <use xlink:href="#DejaVuSans-70" x="1224.3125"/>
     <use xlink:href="#DejaVuSans-70" x="1287.789062"/>
    </g>
   </g>
   <g id="legend_2">
    <g id="patch_13">
     <path d="M 1053.720625 380.478125 
L 1130.26125 380.478125 
Q 1132.26125 380.478125 1132.26125 378.478125 
L 1132.26125 276.73125 
Q 1132.26125 274.73125 1130.26125 274.73125 
L 1053.720625 274.73125 
Q 1051.720625 274.73125 1051.720625 276.73125 
L 1051.720625 378.478125 
Q 1051.720625 380.478125 1053.720625 380.478125 
z
" style="fill: #ffffff; opacity: 0.8; stroke: #cccccc; stroke-linejoin: miter"/>
    </g>
    <g id="line2d_80">
     <path d="M 1055.720625 282.829687 
L 1065.720625 282.829687 
L 1075.720625 282.829687 
" style="fill: none; stroke: #808080; stroke-width: 2; stroke-linecap: square"/>
    </g>
    <g id="text_43">
     <!-- Single -->
     <g transform="translate(1083.720625 286.329687) scale(0.1 -0.1)">
      <use xlink:href="#DejaVuSans-53"/>
      <use xlink:href="#DejaVuSans-69" x="63.476562"/>
      <use xlink:href="#DejaVuSans-6e" x="91.259766"/>
      <use xlink:href="#DejaVuSans-67" x="154.638672"/>
      <use xlink:href="#DejaVuSans-6c" x="218.115234"/>
      <use xlink:href="#DejaVuSans-65" x="245.898438"/>
     </g>
    </g>
    <g id="line2d_81">
     <path d="M 1055.720625 297.507812 
L 1065.720625 297.507812 
L 1075.720625 297.507812 
" style="fill: none; stroke: #0000ff; stroke-width: 2; stroke-linecap: square"/>
    </g>
    <g id="text_44">
     <!-- FedAvg -->
     <g transform="translate(1083.720625 301.007812) scale(0.1 -0.1)">
      <use xlink:href="#DejaVuSans-46"/>
      <use xlink:href="#DejaVuSans-65" x="52.019531"/>
      <use xlink:href="#DejaVuSans-64" x="113.542969"/>
      <use xlink:href="#DejaVuSans-41" x="177.019531"/>
      <use xlink:href="#DejaVuSans-76" x="239.552734"/>
      <use xlink:href="#DejaVuSans-67" x="298.732422"/>
     </g>
    </g>
    <g id="line2d_82">
     <path d="M 1055.720625 312.185937 
L 1065.720625 312.185937 
L 1075.720625 312.185937 
" style="fill: none; stroke: #00ffff; stroke-width: 2; stroke-linecap: square"/>
    </g>
    <g id="text_45">
     <!-- FedProx -->
     <g transform="translate(1083.720625 315.685937) scale(0.1 -0.1)">
      <use xlink:href="#DejaVuSans-46"/>
      <use xlink:href="#DejaVuSans-65" x="52.019531"/>
      <use xlink:href="#DejaVuSans-64" x="113.542969"/>
      <use xlink:href="#DejaVuSans-50" x="177.019531"/>
      <use xlink:href="#DejaVuSans-72" x="235.572266"/>
      <use xlink:href="#DejaVuSans-6f" x="274.435547"/>
      <use xlink:href="#DejaVuSans-78" x="332.492188"/>
     </g>
    </g>
    <g id="line2d_83">
     <path d="M 1055.720625 326.864062 
L 1065.720625 326.864062 
L 1075.720625 326.864062 
" style="fill: none; stroke: #008000; stroke-width: 2; stroke-linecap: square"/>
    </g>
    <g id="text_46">
     <!-- FedProto -->
     <g transform="translate(1083.720625 330.364062) scale(0.1 -0.1)">
      <use xlink:href="#DejaVuSans-46"/>
      <use xlink:href="#DejaVuSans-65" x="52.019531"/>
      <use xlink:href="#DejaVuSans-64" x="113.542969"/>
      <use xlink:href="#DejaVuSans-50" x="177.019531"/>
      <use xlink:href="#DejaVuSans-72" x="235.572266"/>
      <use xlink:href="#DejaVuSans-6f" x="274.435547"/>
      <use xlink:href="#DejaVuSans-74" x="335.617188"/>
      <use xlink:href="#DejaVuSans-6f" x="374.826172"/>
     </g>
    </g>
    <g id="line2d_84">
     <path d="M 1055.720625 341.542187 
L 1065.720625 341.542187 
L 1075.720625 341.542187 
" style="fill: none; stroke: #ff0000; stroke-width: 2; stroke-linecap: square"/>
    </g>
    <g id="text_47">
     <!-- FedProp -->
     <g transform="translate(1083.720625 345.042187) scale(0.1 -0.1)">
      <use xlink:href="#DejaVuSans-46"/>
      <use xlink:href="#DejaVuSans-65" x="52.019531"/>
      <use xlink:href="#DejaVuSans-64" x="113.542969"/>
      <use xlink:href="#DejaVuSans-50" x="177.019531"/>
      <use xlink:href="#DejaVuSans-72" x="235.572266"/>
      <use xlink:href="#DejaVuSans-6f" x="274.435547"/>
      <use xlink:href="#DejaVuSans-70" x="335.617188"/>
     </g>
    </g>
    <g id="line2d_85">
     <path d="M 1055.720625 356.220312 
L 1065.720625 356.220312 
L 1075.720625 356.220312 
" style="fill: none; stroke: #ff00ff; stroke-width: 2; stroke-linecap: square"/>
    </g>
    <g id="text_48">
     <!-- FedDTG -->
     <g transform="translate(1083.720625 359.720312) scale(0.1 -0.1)">
      <use xlink:href="#DejaVuSans-46"/>
      <use xlink:href="#DejaVuSans-65" x="52.019531"/>
      <use xlink:href="#DejaVuSans-64" x="113.542969"/>
      <use xlink:href="#DejaVuSans-44" x="177.019531"/>
      <use xlink:href="#DejaVuSans-54" x="254.021484"/>
      <use xlink:href="#DejaVuSans-47" x="315.105469"/>
     </g>
    </g>
    <g id="line2d_86">
     <path d="M 1055.720625 370.898438 
L 1065.720625 370.898438 
L 1075.720625 370.898438 
" style="fill: none; stroke: #ffa500; stroke-width: 2; stroke-linecap: square"/>
    </g>
    <g id="text_49">
     <!-- FedMEKT -->
     <g transform="translate(1083.720625 374.398438) scale(0.1 -0.1)">
      <use xlink:href="#DejaVuSans-46"/>
      <use xlink:href="#DejaVuSans-65" x="52.019531"/>
      <use xlink:href="#DejaVuSans-64" x="113.542969"/>
      <use xlink:href="#DejaVuSans-4d" x="177.019531"/>
      <use xlink:href="#DejaVuSans-45" x="263.298828"/>
      <use xlink:href="#DejaVuSans-4b" x="326.482422"/>
      <use xlink:href="#DejaVuSans-54" x="384.308594"/>
     </g>
    </g>
   </g>
  </g>
 </g>
 <defs>
  <clipPath id="pd6a9244b45">
   <rect x="43.78125" y="22.318125" width="522.88" height="363.16"/>
  </clipPath>
  <clipPath id="pc7f6d76452">
   <rect x="614.38125" y="22.318125" width="522.88" height="363.16"/>
  </clipPath>
 </defs>
</svg>
