<?xml version="1.0" encoding="utf-8" standalone="no"?>
<!DOCTYPE svg PUBLIC "-//W3C//DTD SVG 1.1//EN"
  "http://www.w3.org/Graphics/SVG/1.1/DTD/svg11.dtd">
<svg xmlns:xlink="http://www.w3.org/1999/xlink" width="1144.37125pt" height="424.474375pt" viewBox="0 0 1144.37125 424.474375" xmlns="http://www.w3.org/2000/svg" version="1.1">
 <metadata>
  <rdf:RDF xmlns:dc="http://purl.org/dc/elements/1.1/" xmlns:cc="http://creativecommons.org/ns#" xmlns:rdf="http://www.w3.org/1999/02/22-rdf-syntax-ns#">
   <cc:Work>
    <dc:type rdf:resource="http://purl.org/dc/dcmitype/StillImage"/>
    <dc:date>2025-12-24T17:34:01.116754</dc:date>
    <dc:format>image/svg+xml</dc:format>
    <dc:creator>
     <cc:Agent>
      <dc:title>Matplotlib v3.7.1, https://matplotlib.org/</dc:title>
     </cc:Agent>
    </dc:creator>
   </cc:Work>
  </rdf:RDF>
 </metadata>
 <defs>
  <style type="text/css">*{stroke-linejoin: round; stroke-linecap: butt}</style>
 </defs>
 <g id="figure_1">
  <g id="patch_1">
   <path d="M 0 424.474375 
L 1144.37125 424.474375 
L 1144.37125 0 
L 0 0 
z
" style="fill: #ffffff"/>
  </g>
  <g id="axes_1">
   <g id="patch_2">
    <path d="M 43.78125 386.918125 
L 566.57125 386.918125 
L 566.57125 22.318125 
L 43.78125 22.318125 
z
" style="fill: #ffffff"/>
   </g>
   <g id="matplotlib.axis_1">
    <g id="xtick_1">
     <g id="line2d_1">
      <path d="M 62.743789 386.918125 
L 62.743789 22.318125 
" clip-path="url(#p45b373e6fc)" style="fill: none; stroke: #b0b0b0; stroke-opacity: 0.3; stroke-width: 0.8; stroke-linecap: square"/>
     </g>
     <g id="line2d_2">
      <defs>
       <path id="maf321f0fd6" d="M 0 0 
L 0 3.5 
" style="stroke: #000000; stroke-width: 0.8"/>
      </defs>
      <g>
       <use xlink:href="#maf321f0fd6" x="62.743789" y="386.918125" style="stroke: #000000; stroke-width: 0.8"/>
      </g>
     </g>
     <g id="text_1">
      <!-- 0 -->
      <g transform="translate(59.562539 401.516562) scale(0.1 -0.1)">
       <defs>
        <path id="DejaVuSans-30" d="M 2034 4250 
Q 1547 4250 1301 3770 
Q 1056 3291 1056 2328 
Q 1056 1369 1301 889 
Q 1547 409 2034 409 
Q 2525 409 2770 889 
Q 3016 1369 3016 2328 
Q 3016 3291 2770 3770 
Q 2525 4250 2034 4250 
z
M 2034 4750 
Q 2819 4750 3233 4129 
Q 3647 3509 3647 2328 
Q 3647 1150 3233 529 
Q 2819 -91 2034 -91 
Q 1250 -91 836 529 
Q 422 1150 422 2328 
Q 422 3509 836 4129 
Q 1250 4750 2034 4750 
z
" transform="scale(0.015625)"/>
       </defs>
       <use xlink:href="#DejaVuSans-30"/>
      </g>
     </g>
    </g>
    <g id="xtick_2">
     <g id="line2d_3">
      <path d="M 158.756645 386.918125 
L 158.756645 22.318125 
" clip-path="url(#p45b373e6fc)" style="fill: none; stroke: #b0b0b0; stroke-opacity: 0.3; stroke-width: 0.8; stroke-linecap: square"/>
     </g>
     <g id="line2d_4">
      <g>
       <use xlink:href="#maf321f0fd6" x="158.756645" y="386.918125" style="stroke: #000000; stroke-width: 0.8"/>
      </g>
     </g>
     <g id="text_2">
      <!-- 20 -->
      <g transform="translate(152.394145 401.516562) scale(0.1 -0.1)">
       <defs>
        <path id="DejaVuSans-32" d="M 1228 531 
L 3431 531 
L 3431 0 
L 469 0 
L 469 531 
Q 828 903 1448 1529 
Q 2069 2156 2228 2338 
Q 2531 2678 2651 2914 
Q 2772 3150 2772 3378 
Q 2772 3750 2511 3984 
Q 2250 4219 1831 4219 
Q 1534 4219 1204 4116 
Q 875 4013 500 3803 
L 500 4441 
Q 881 4594 1212 4672 
Q 1544 4750 1819 4750 
Q 2544 4750 2975 4387 
Q 3406 4025 3406 3419 
Q 3406 3131 3298 2873 
Q 3191 2616 2906 2266 
Q 2828 2175 2409 1742 
Q 1991 1309 1228 531 
z
" transform="scale(0.015625)"/>
       </defs>
       <use xlink:href="#DejaVuSans-32"/>
       <use xlink:href="#DejaVuSans-30" x="63.623047"/>
      </g>
     </g>
    </g>
    <g id="xtick_3">
     <g id="line2d_5">
      <path d="M 254.769501 386.918125 
L 254.769501 22.318125 
" clip-path="url(#p45b373e6fc)" style="fill: none; stroke: #b0b0b0; stroke-opacity: 0.3; stroke-width: 0.8; stroke-linecap: square"/>
     </g>
     <g id="line2d_6">
      <g>
       <use xlink:href="#maf321f0fd6" x="254.769501" y="386.918125" style="stroke: #000000; stroke-width: 0.8"/>
      </g>
     </g>
     <g id="text_3">
      <!-- 40 -->
      <g transform="translate(248.407001 401.516562) scale(0.1 -0.1)">
       <defs>
        <path id="DejaVuSans-34" d="M 2419 4116 
L 825 1625 
L 2419 1625 
L 2419 4116 
z
M 2253 4666 
L 3047 4666 
L 3047 1625 
L 3713 1625 
L 3713 1100 
L 3047 1100 
L 3047 0 
L 2419 0 
L 2419 1100 
L 313 1100 
L 313 1709 
L 2253 4666 
z
" transform="scale(0.015625)"/>
       </defs>
       <use xlink:href="#DejaVuSans-34"/>
       <use xlink:href="#DejaVuSans-30" x="63.623047"/>
      </g>
     </g>
    </g>
    <g id="xtick_4">
     <g id="line2d_7">
      <path d="M 350.782357 386.918125 
L 350.782357 22.318125 
" clip-path="url(#p45b373e6fc)" style="fill: none; stroke: #b0b0b0; stroke-opacity: 0.3; stroke-width: 0.8; stroke-linecap: square"/>
     </g>
     <g id="line2d_8">
      <g>
       <use xlink:href="#maf321f0fd6" x="350.782357" y="386.918125" style="stroke: #000000; stroke-width: 0.8"/>
      </g>
     </g>
     <g id="text_4">
      <!-- 60 -->
      <g transform="translate(344.419857 401.516562) scale(0.1 -0.1)">
       <defs>
        <path id="DejaVuSans-36" d="M 2113 2584 
Q 1688 2584 1439 2293 
Q 1191 2003 1191 1497 
Q 1191 994 1439 701 
Q 1688 409 2113 409 
Q 2538 409 2786 701 
Q 3034 994 3034 1497 
Q 3034 2003 2786 2293 
Q 2538 2584 2113 2584 
z
M 3366 4563 
L 3366 3988 
Q 3128 4100 2886 4159 
Q 2644 4219 2406 4219 
Q 1781 4219 1451 3797 
Q 1122 3375 1075 2522 
Q 1259 2794 1537 2939 
Q 1816 3084 2150 3084 
Q 2853 3084 3261 2657 
Q 3669 2231 3669 1497 
Q 3669 778 3244 343 
Q 2819 -91 2113 -91 
Q 1303 -91 875 529 
Q 447 1150 447 2328 
Q 447 3434 972 4092 
Q 1497 4750 2381 4750 
Q 2619 4750 2861 4703 
Q 3103 4656 3366 4563 
z
" transform="scale(0.015625)"/>
       </defs>
       <use xlink:href="#DejaVuSans-36"/>
       <use xlink:href="#DejaVuSans-30" x="63.623047"/>
      </g>
     </g>
    </g>
    <g id="xtick_5">
     <g id="line2d_9">
      <path d="M 446.795212 386.918125 
L 446.795212 22.318125 
" clip-path="url(#p45b373e6fc)" style="fill: none; stroke: #b0b0b0; stroke-opacity: 0.3; stroke-width: 0.8; stroke-linecap: square"/>
     </g>
     <g id="line2d_10">
      <g>
       <use xlink:href="#maf321f0fd6" x="446.795212" y="386.918125" style="stroke: #000000; stroke-width: 0.8"/>
      </g>
     </g>
     <g id="text_5">
      <!-- 80 -->
      <g transform="translate(440.432712 401.516562) scale(0.1 -0.1)">
       <defs>
        <path id="DejaVuSans-38" d="M 2034 2216 
Q 1584 2216 1326 1975 
Q 1069 1734 1069 1313 
Q 1069 891 1326 650 
Q 1584 409 2034 409 
Q 2484 409 2743 651 
Q 3003 894 3003 1313 
Q 3003 1734 2745 1975 
Q 2488 2216 2034 2216 
z
M 1403 2484 
Q 997 2584 770 2862 
Q 544 3141 544 3541 
Q 544 4100 942 4425 
Q 1341 4750 2034 4750 
Q 2731 4750 3128 4425 
Q 3525 4100 3525 3541 
Q 3525 3141 3298 2862 
Q 3072 2584 2669 2484 
Q 3125 2378 3379 2068 
Q 3634 1759 3634 1313 
Q 3634 634 3220 271 
Q 2806 -91 2034 -91 
Q 1263 -91 848 271 
Q 434 634 434 1313 
Q 434 1759 690 2068 
Q 947 2378 1403 2484 
z
M 1172 3481 
Q 1172 3119 1398 2916 
Q 1625 2713 2034 2713 
Q 2441 2713 2670 2916 
Q 2900 3119 2900 3481 
Q 2900 3844 2670 4047 
Q 2441 4250 2034 4250 
Q 1625 4250 1398 4047 
Q 1172 3844 1172 3481 
z
" transform="scale(0.015625)"/>
       </defs>
       <use xlink:href="#DejaVuSans-38"/>
       <use xlink:href="#DejaVuSans-30" x="63.623047"/>
      </g>
     </g>
    </g>
    <g id="xtick_6">
     <g id="line2d_11">
      <path d="M 542.808068 386.918125 
L 542.808068 22.318125 
" clip-path="url(#p45b373e6fc)" style="fill: none; stroke: #b0b0b0; stroke-opacity: 0.3; stroke-width: 0.8; stroke-linecap: square"/>
     </g>
     <g id="line2d_12">
      <g>
       <use xlink:href="#maf321f0fd6" x="542.808068" y="386.918125" style="stroke: #000000; stroke-width: 0.8"/>
      </g>
     </g>
     <g id="text_6">
      <!-- 100 -->
      <g transform="translate(533.264318 401.516562) scale(0.1 -0.1)">
       <defs>
        <path id="DejaVuSans-31" d="M 794 531 
L 1825 531 
L 1825 4091 
L 703 3866 
L 703 4441 
L 1819 4666 
L 2450 4666 
L 2450 531 
L 3481 531 
L 3481 0 
L 794 0 
L 794 531 
z
" transform="scale(0.015625)"/>
       </defs>
       <use xlink:href="#DejaVuSans-31"/>
       <use xlink:href="#DejaVuSans-30" x="63.623047"/>
       <use xlink:href="#DejaVuSans-30" x="127.246094"/>
      </g>
     </g>
    </g>
    <g id="text_7">
     <!-- Communication Rounds -->
     <g transform="translate(245.753594 415.194687) scale(0.1 -0.1)">
      <defs>
       <path id="DejaVuSans-43" d="M 4122 4306 
L 4122 3641 
Q 3803 3938 3442 4084 
Q 3081 4231 2675 4231 
Q 1875 4231 1450 3742 
Q 1025 3253 1025 2328 
Q 1025 1406 1450 917 
Q 1875 428 2675 428 
Q 3081 428 3442 575 
Q 3803 722 4122 1019 
L 4122 359 
Q 3791 134 3420 21 
Q 3050 -91 2638 -91 
Q 1578 -91 968 557 
Q 359 1206 359 2328 
Q 359 3453 968 4101 
Q 1578 4750 2638 4750 
Q 3056 4750 3426 4639 
Q 3797 4528 4122 4306 
z
" transform="scale(0.015625)"/>
       <path id="DejaVuSans-6f" d="M 1959 3097 
Q 1497 3097 1228 2736 
Q 959 2375 959 1747 
Q 959 1119 1226 758 
Q 1494 397 1959 397 
Q 2419 397 2687 759 
Q 2956 1122 2956 1747 
Q 2956 2369 2687 2733 
Q 2419 3097 1959 3097 
z
M 1959 3584 
Q 2709 3584 3137 3096 
Q 3566 2609 3566 1747 
Q 3566 888 3137 398 
Q 2709 -91 1959 -91 
Q 1206 -91 779 398 
Q 353 888 353 1747 
Q 353 2609 779 3096 
Q 1206 3584 1959 3584 
z
" transform="scale(0.015625)"/>
       <path id="DejaVuSans-6d" d="M 3328 2828 
Q 3544 3216 3844 3400 
Q 4144 3584 4550 3584 
Q 5097 3584 5394 3201 
Q 5691 2819 5691 2113 
L 5691 0 
L 5113 0 
L 5113 2094 
Q 5113 2597 4934 2840 
Q 4756 3084 4391 3084 
Q 3944 3084 3684 2787 
Q 3425 2491 3425 1978 
L 3425 0 
L 2847 0 
L 2847 2094 
Q 2847 2600 2669 2842 
Q 2491 3084 2119 3084 
Q 1678 3084 1418 2786 
Q 1159 2488 1159 1978 
L 1159 0 
L 581 0 
L 581 3500 
L 1159 3500 
L 1159 2956 
Q 1356 3278 1631 3431 
Q 1906 3584 2284 3584 
Q 2666 3584 2933 3390 
Q 3200 3197 3328 2828 
z
" transform="scale(0.015625)"/>
       <path id="DejaVuSans-75" d="M 544 1381 
L 544 3500 
L 1119 3500 
L 1119 1403 
Q 1119 906 1312 657 
Q 1506 409 1894 409 
Q 2359 409 2629 706 
Q 2900 1003 2900 1516 
L 2900 3500 
L 3475 3500 
L 3475 0 
L 2900 0 
L 2900 538 
Q 2691 219 2414 64 
Q 2138 -91 1772 -91 
Q 1169 -91 856 284 
Q 544 659 544 1381 
z
M 1991 3584 
L 1991 3584 
z
" transform="scale(0.015625)"/>
       <path id="DejaVuSans-6e" d="M 3513 2113 
L 3513 0 
L 2938 0 
L 2938 2094 
Q 2938 2591 2744 2837 
Q 2550 3084 2163 3084 
Q 1697 3084 1428 2787 
Q 1159 2491 1159 1978 
L 1159 0 
L 581 0 
L 581 3500 
L 1159 3500 
L 1159 2956 
Q 1366 3272 1645 3428 
Q 1925 3584 2291 3584 
Q 2894 3584 3203 3211 
Q 3513 2838 3513 2113 
z
" transform="scale(0.015625)"/>
       <path id="DejaVuSans-69" d="M 603 3500 
L 1178 3500 
L 1178 0 
L 603 0 
L 603 3500 
z
M 603 4863 
L 1178 4863 
L 1178 4134 
L 603 4134 
L 603 4863 
z
" transform="scale(0.015625)"/>
       <path id="DejaVuSans-63" d="M 3122 3366 
L 3122 2828 
Q 2878 2963 2633 3030 
Q 2388 3097 2138 3097 
Q 1578 3097 1268 2742 
Q 959 2388 959 1747 
Q 959 1106 1268 751 
Q 1578 397 2138 397 
Q 2388 397 2633 464 
Q 2878 531 3122 666 
L 3122 134 
Q 2881 22 2623 -34 
Q 2366 -91 2075 -91 
Q 1284 -91 818 406 
Q 353 903 353 1747 
Q 353 2603 823 3093 
Q 1294 3584 2113 3584 
Q 2378 3584 2631 3529 
Q 2884 3475 3122 3366 
z
" transform="scale(0.015625)"/>
       <path id="DejaVuSans-61" d="M 2194 1759 
Q 1497 1759 1228 1600 
Q 959 1441 959 1056 
Q 959 750 1161 570 
Q 1363 391 1709 391 
Q 2188 391 2477 730 
Q 2766 1069 2766 1631 
L 2766 1759 
L 2194 1759 
z
M 3341 1997 
L 3341 0 
L 2766 0 
L 2766 531 
Q 2569 213 2275 61 
Q 1981 -91 1556 -91 
Q 1019 -91 701 211 
Q 384 513 384 1019 
Q 384 1609 779 1909 
Q 1175 2209 1959 2209 
L 2766 2209 
L 2766 2266 
Q 2766 2663 2505 2880 
Q 2244 3097 1772 3097 
Q 1472 3097 1187 3025 
Q 903 2953 641 2809 
L 641 3341 
Q 956 3463 1253 3523 
Q 1550 3584 1831 3584 
Q 2591 3584 2966 3190 
Q 3341 2797 3341 1997 
z
" transform="scale(0.015625)"/>
       <path id="DejaVuSans-74" d="M 1172 4494 
L 1172 3500 
L 2356 3500 
L 2356 3053 
L 1172 3053 
L 1172 1153 
Q 1172 725 1289 603 
Q 1406 481 1766 481 
L 2356 481 
L 2356 0 
L 1766 0 
Q 1100 0 847 248 
Q 594 497 594 1153 
L 594 3053 
L 172 3053 
L 172 3500 
L 594 3500 
L 594 4494 
L 1172 4494 
z
" transform="scale(0.015625)"/>
       <path id="DejaVuSans-20" transform="scale(0.015625)"/>
       <path id="DejaVuSans-52" d="M 2841 2188 
Q 3044 2119 3236 1894 
Q 3428 1669 3622 1275 
L 4263 0 
L 3584 0 
L 2988 1197 
Q 2756 1666 2539 1819 
Q 2322 1972 1947 1972 
L 1259 1972 
L 1259 0 
L 628 0 
L 628 4666 
L 2053 4666 
Q 2853 4666 3247 4331 
Q 3641 3997 3641 3322 
Q 3641 2881 3436 2590 
Q 3231 2300 2841 2188 
z
M 1259 4147 
L 1259 2491 
L 2053 2491 
Q 2509 2491 2742 2702 
Q 2975 2913 2975 3322 
Q 2975 3731 2742 3939 
Q 2509 4147 2053 4147 
L 1259 4147 
z
" transform="scale(0.015625)"/>
       <path id="DejaVuSans-64" d="M 2906 2969 
L 2906 4863 
L 3481 4863 
L 3481 0 
L 2906 0 
L 2906 525 
Q 2725 213 2448 61 
Q 2172 -91 1784 -91 
Q 1150 -91 751 415 
Q 353 922 353 1747 
Q 353 2572 751 3078 
Q 1150 3584 1784 3584 
Q 2172 3584 2448 3432 
Q 2725 3281 2906 2969 
z
M 947 1747 
Q 947 1113 1208 752 
Q 1469 391 1925 391 
Q 2381 391 2643 752 
Q 2906 1113 2906 1747 
Q 2906 2381 2643 2742 
Q 2381 3103 1925 3103 
Q 1469 3103 1208 2742 
Q 947 2381 947 1747 
z
" transform="scale(0.015625)"/>
       <path id="DejaVuSans-73" d="M 2834 3397 
L 2834 2853 
Q 2591 2978 2328 3040 
Q 2066 3103 1784 3103 
Q 1356 3103 1142 2972 
Q 928 2841 928 2578 
Q 928 2378 1081 2264 
Q 1234 2150 1697 2047 
L 1894 2003 
Q 2506 1872 2764 1633 
Q 3022 1394 3022 966 
Q 3022 478 2636 193 
Q 2250 -91 1575 -91 
Q 1294 -91 989 -36 
Q 684 19 347 128 
L 347 722 
Q 666 556 975 473 
Q 1284 391 1588 391 
Q 1994 391 2212 530 
Q 2431 669 2431 922 
Q 2431 1156 2273 1281 
Q 2116 1406 1581 1522 
L 1381 1569 
Q 847 1681 609 1914 
Q 372 2147 372 2553 
Q 372 3047 722 3315 
Q 1072 3584 1716 3584 
Q 2034 3584 2315 3537 
Q 2597 3491 2834 3397 
z
" transform="scale(0.015625)"/>
      </defs>
      <use xlink:href="#DejaVuSans-43"/>
      <use xlink:href="#DejaVuSans-6f" x="69.824219"/>
      <use xlink:href="#DejaVuSans-6d" x="131.005859"/>
      <use xlink:href="#DejaVuSans-6d" x="228.417969"/>
      <use xlink:href="#DejaVuSans-75" x="325.830078"/>
      <use xlink:href="#DejaVuSans-6e" x="389.208984"/>
      <use xlink:href="#DejaVuSans-69" x="452.587891"/>
      <use xlink:href="#DejaVuSans-63" x="480.371094"/>
      <use xlink:href="#DejaVuSans-61" x="535.351562"/>
      <use xlink:href="#DejaVuSans-74" x="596.630859"/>
      <use xlink:href="#DejaVuSans-69" x="635.839844"/>
      <use xlink:href="#DejaVuSans-6f" x="663.623047"/>
      <use xlink:href="#DejaVuSans-6e" x="724.804688"/>
      <use xlink:href="#DejaVuSans-20" x="788.183594"/>
      <use xlink:href="#DejaVuSans-52" x="819.970703"/>
      <use xlink:href="#DejaVuSans-6f" x="884.953125"/>
      <use xlink:href="#DejaVuSans-75" x="946.134766"/>
      <use xlink:href="#DejaVuSans-6e" x="1009.513672"/>
      <use xlink:href="#DejaVuSans-64" x="1072.892578"/>
      <use xlink:href="#DejaVuSans-73" x="1136.369141"/>
     </g>
    </g>
   </g>
   <g id="matplotlib.axis_2">
    <g id="ytick_1">
     <g id="line2d_13">
      <path d="M 43.78125 374.854135 
L 566.57125 374.854135 
" clip-path="url(#p45b373e6fc)" style="fill: none; stroke: #b0b0b0; stroke-opacity: 0.3; stroke-width: 0.8; stroke-linecap: square"/>
     </g>
     <g id="line2d_14">
      <defs>
       <path id="mbe2805100b" d="M 0 0 
L -3.5 0 
" style="stroke: #000000; stroke-width: 0.8"/>
      </defs>
      <g>
       <use xlink:href="#mbe2805100b" x="43.78125" y="374.854135" style="stroke: #000000; stroke-width: 0.8"/>
      </g>
     </g>
     <g id="text_8">
      <!-- 0.0 -->
      <g transform="translate(20.878125 378.653354) scale(0.1 -0.1)">
       <defs>
        <path id="DejaVuSans-2e" d="M 684 794 
L 1344 794 
L 1344 0 
L 684 0 
L 684 794 
z
" transform="scale(0.015625)"/>
       </defs>
       <use xlink:href="#DejaVuSans-30"/>
       <use xlink:href="#DejaVuSans-2e" x="63.623047"/>
       <use xlink:href="#DejaVuSans-30" x="95.410156"/>
      </g>
     </g>
    </g>
    <g id="ytick_2">
     <g id="line2d_15">
      <path d="M 43.78125 332.653782 
L 566.57125 332.653782 
" clip-path="url(#p45b373e6fc)" style="fill: none; stroke: #b0b0b0; stroke-opacity: 0.3; stroke-width: 0.8; stroke-linecap: square"/>
     </g>
     <g id="line2d_16">
      <g>
       <use xlink:href="#mbe2805100b" x="43.78125" y="332.653782" style="stroke: #000000; stroke-width: 0.8"/>
      </g>
     </g>
     <g id="text_9">
      <!-- 0.1 -->
      <g transform="translate(20.878125 336.453001) scale(0.1 -0.1)">
       <use xlink:href="#DejaVuSans-30"/>
       <use xlink:href="#DejaVuSans-2e" x="63.623047"/>
       <use xlink:href="#DejaVuSans-31" x="95.410156"/>
      </g>
     </g>
    </g>
    <g id="ytick_3">
     <g id="line2d_17">
      <path d="M 43.78125 290.453429 
L 566.57125 290.453429 
" clip-path="url(#p45b373e6fc)" style="fill: none; stroke: #b0b0b0; stroke-opacity: 0.3; stroke-width: 0.8; stroke-linecap: square"/>
     </g>
     <g id="line2d_18">
      <g>
       <use xlink:href="#mbe2805100b" x="43.78125" y="290.453429" style="stroke: #000000; stroke-width: 0.8"/>
      </g>
     </g>
     <g id="text_10">
      <!-- 0.2 -->
      <g transform="translate(20.878125 294.252648) scale(0.1 -0.1)">
       <use xlink:href="#DejaVuSans-30"/>
       <use xlink:href="#DejaVuSans-2e" x="63.623047"/>
       <use xlink:href="#DejaVuSans-32" x="95.410156"/>
      </g>
     </g>
    </g>
    <g id="ytick_4">
     <g id="line2d_19">
      <path d="M 43.78125 248.253076 
L 566.57125 248.253076 
" clip-path="url(#p45b373e6fc)" style="fill: none; stroke: #b0b0b0; stroke-opacity: 0.3; stroke-width: 0.8; stroke-linecap: square"/>
     </g>
     <g id="line2d_20">
      <g>
       <use xlink:href="#mbe2805100b" x="43.78125" y="248.253076" style="stroke: #000000; stroke-width: 0.8"/>
      </g>
     </g>
     <g id="text_11">
      <!-- 0.3 -->
      <g transform="translate(20.878125 252.052295) scale(0.1 -0.1)">
       <defs>
        <path id="DejaVuSans-33" d="M 2597 2516 
Q 3050 2419 3304 2112 
Q 3559 1806 3559 1356 
Q 3559 666 3084 287 
Q 2609 -91 1734 -91 
Q 1441 -91 1130 -33 
Q 819 25 488 141 
L 488 750 
Q 750 597 1062 519 
Q 1375 441 1716 441 
Q 2309 441 2620 675 
Q 2931 909 2931 1356 
Q 2931 1769 2642 2001 
Q 2353 2234 1838 2234 
L 1294 2234 
L 1294 2753 
L 1863 2753 
Q 2328 2753 2575 2939 
Q 2822 3125 2822 3475 
Q 2822 3834 2567 4026 
Q 2313 4219 1838 4219 
Q 1578 4219 1281 4162 
Q 984 4106 628 3988 
L 628 4550 
Q 988 4650 1302 4700 
Q 1616 4750 1894 4750 
Q 2613 4750 3031 4423 
Q 3450 4097 3450 3541 
Q 3450 3153 3228 2886 
Q 3006 2619 2597 2516 
z
" transform="scale(0.015625)"/>
       </defs>
       <use xlink:href="#DejaVuSans-30"/>
       <use xlink:href="#DejaVuSans-2e" x="63.623047"/>
       <use xlink:href="#DejaVuSans-33" x="95.410156"/>
      </g>
     </g>
    </g>
    <g id="ytick_5">
     <g id="line2d_21">
      <path d="M 43.78125 206.052723 
L 566.57125 206.052723 
" clip-path="url(#p45b373e6fc)" style="fill: none; stroke: #b0b0b0; stroke-opacity: 0.3; stroke-width: 0.8; stroke-linecap: square"/>
     </g>
     <g id="line2d_22">
      <g>
       <use xlink:href="#mbe2805100b" x="43.78125" y="206.052723" style="stroke: #000000; stroke-width: 0.8"/>
      </g>
     </g>
     <g id="text_12">
      <!-- 0.4 -->
      <g transform="translate(20.878125 209.851942) scale(0.1 -0.1)">
       <use xlink:href="#DejaVuSans-30"/>
       <use xlink:href="#DejaVuSans-2e" x="63.623047"/>
       <use xlink:href="#DejaVuSans-34" x="95.410156"/>
      </g>
     </g>
    </g>
    <g id="ytick_6">
     <g id="line2d_23">
      <path d="M 43.78125 163.85237 
L 566.57125 163.85237 
" clip-path="url(#p45b373e6fc)" style="fill: none; stroke: #b0b0b0; stroke-opacity: 0.3; stroke-width: 0.8; stroke-linecap: square"/>
     </g>
     <g id="line2d_24">
      <g>
       <use xlink:href="#mbe2805100b" x="43.78125" y="163.85237" style="stroke: #000000; stroke-width: 0.8"/>
      </g>
     </g>
     <g id="text_13">
      <!-- 0.5 -->
      <g transform="translate(20.878125 167.651589) scale(0.1 -0.1)">
       <defs>
        <path id="DejaVuSans-35" d="M 691 4666 
L 3169 4666 
L 3169 4134 
L 1269 4134 
L 1269 2991 
Q 1406 3038 1543 3061 
Q 1681 3084 1819 3084 
Q 2600 3084 3056 2656 
Q 3513 2228 3513 1497 
Q 3513 744 3044 326 
Q 2575 -91 1722 -91 
Q 1428 -91 1123 -41 
Q 819 9 494 109 
L 494 744 
Q 775 591 1075 516 
Q 1375 441 1709 441 
Q 2250 441 2565 725 
Q 2881 1009 2881 1497 
Q 2881 1984 2565 2268 
Q 2250 2553 1709 2553 
Q 1456 2553 1204 2497 
Q 953 2441 691 2322 
L 691 4666 
z
" transform="scale(0.015625)"/>
       </defs>
       <use xlink:href="#DejaVuSans-30"/>
       <use xlink:href="#DejaVuSans-2e" x="63.623047"/>
       <use xlink:href="#DejaVuSans-35" x="95.410156"/>
      </g>
     </g>
    </g>
    <g id="ytick_7">
     <g id="line2d_25">
      <path d="M 43.78125 121.652017 
L 566.57125 121.652017 
" clip-path="url(#p45b373e6fc)" style="fill: none; stroke: #b0b0b0; stroke-opacity: 0.3; stroke-width: 0.8; stroke-linecap: square"/>
     </g>
     <g id="line2d_26">
      <g>
       <use xlink:href="#mbe2805100b" x="43.78125" y="121.652017" style="stroke: #000000; stroke-width: 0.8"/>
      </g>
     </g>
     <g id="text_14">
      <!-- 0.6 -->
      <g transform="translate(20.878125 125.451236) scale(0.1 -0.1)">
       <use xlink:href="#DejaVuSans-30"/>
       <use xlink:href="#DejaVuSans-2e" x="63.623047"/>
       <use xlink:href="#DejaVuSans-36" x="95.410156"/>
      </g>
     </g>
    </g>
    <g id="ytick_8">
     <g id="line2d_27">
      <path d="M 43.78125 79.451664 
L 566.57125 79.451664 
" clip-path="url(#p45b373e6fc)" style="fill: none; stroke: #b0b0b0; stroke-opacity: 0.3; stroke-width: 0.8; stroke-linecap: square"/>
     </g>
     <g id="line2d_28">
      <g>
       <use xlink:href="#mbe2805100b" x="43.78125" y="79.451664" style="stroke: #000000; stroke-width: 0.8"/>
      </g>
     </g>
     <g id="text_15">
      <!-- 0.7 -->
      <g transform="translate(20.878125 83.250883) scale(0.1 -0.1)">
       <defs>
        <path id="DejaVuSans-37" d="M 525 4666 
L 3525 4666 
L 3525 4397 
L 1831 0 
L 1172 0 
L 2766 4134 
L 525 4134 
L 525 4666 
z
" transform="scale(0.015625)"/>
       </defs>
       <use xlink:href="#DejaVuSans-30"/>
       <use xlink:href="#DejaVuSans-2e" x="63.623047"/>
       <use xlink:href="#DejaVuSans-37" x="95.410156"/>
      </g>
     </g>
    </g>
    <g id="ytick_9">
     <g id="line2d_29">
      <path d="M 43.78125 37.251312 
L 566.57125 37.251312 
" clip-path="url(#p45b373e6fc)" style="fill: none; stroke: #b0b0b0; stroke-opacity: 0.3; stroke-width: 0.8; stroke-linecap: square"/>
     </g>
     <g id="line2d_30">
      <g>
       <use xlink:href="#mbe2805100b" x="43.78125" y="37.251312" style="stroke: #000000; stroke-width: 0.8"/>
      </g>
     </g>
     <g id="text_16">
      <!-- 0.8 -->
      <g transform="translate(20.878125 41.05053) scale(0.1 -0.1)">
       <use xlink:href="#DejaVuSans-30"/>
       <use xlink:href="#DejaVuSans-2e" x="63.623047"/>
       <use xlink:href="#DejaVuSans-38" x="95.410156"/>
      </g>
     </g>
    </g>
    <g id="text_17">
     <!-- Global Accuracy -->
     <g transform="translate(14.798438 244.985312) rotate(-90) scale(0.1 -0.1)">
      <defs>
       <path id="DejaVuSans-47" d="M 3809 666 
L 3809 1919 
L 2778 1919 
L 2778 2438 
L 4434 2438 
L 4434 434 
Q 4069 175 3628 42 
Q 3188 -91 2688 -91 
Q 1594 -91 976 548 
Q 359 1188 359 2328 
Q 359 3472 976 4111 
Q 1594 4750 2688 4750 
Q 3144 4750 3555 4637 
Q 3966 4525 4313 4306 
L 4313 3634 
Q 3963 3931 3569 4081 
Q 3175 4231 2741 4231 
Q 1884 4231 1454 3753 
Q 1025 3275 1025 2328 
Q 1025 1384 1454 906 
Q 1884 428 2741 428 
Q 3075 428 3337 486 
Q 3600 544 3809 666 
z
" transform="scale(0.015625)"/>
       <path id="DejaVuSans-6c" d="M 603 4863 
L 1178 4863 
L 1178 0 
L 603 0 
L 603 4863 
z
" transform="scale(0.015625)"/>
       <path id="DejaVuSans-62" d="M 3116 1747 
Q 3116 2381 2855 2742 
Q 2594 3103 2138 3103 
Q 1681 3103 1420 2742 
Q 1159 2381 1159 1747 
Q 1159 1113 1420 752 
Q 1681 391 2138 391 
Q 2594 391 2855 752 
Q 3116 1113 3116 1747 
z
M 1159 2969 
Q 1341 3281 1617 3432 
Q 1894 3584 2278 3584 
Q 2916 3584 3314 3078 
Q 3713 2572 3713 1747 
Q 3713 922 3314 415 
Q 2916 -91 2278 -91 
Q 1894 -91 1617 61 
Q 1341 213 1159 525 
L 1159 0 
L 581 0 
L 581 4863 
L 1159 4863 
L 1159 2969 
z
" transform="scale(0.015625)"/>
       <path id="DejaVuSans-41" d="M 2188 4044 
L 1331 1722 
L 3047 1722 
L 2188 4044 
z
M 1831 4666 
L 2547 4666 
L 4325 0 
L 3669 0 
L 3244 1197 
L 1141 1197 
L 716 0 
L 50 0 
L 1831 4666 
z
" transform="scale(0.015625)"/>
       <path id="DejaVuSans-72" d="M 2631 2963 
Q 2534 3019 2420 3045 
Q 2306 3072 2169 3072 
Q 1681 3072 1420 2755 
Q 1159 2438 1159 1844 
L 1159 0 
L 581 0 
L 581 3500 
L 1159 3500 
L 1159 2956 
Q 1341 3275 1631 3429 
Q 1922 3584 2338 3584 
Q 2397 3584 2469 3576 
Q 2541 3569 2628 3553 
L 2631 2963 
z
" transform="scale(0.015625)"/>
       <path id="DejaVuSans-79" d="M 2059 -325 
Q 1816 -950 1584 -1140 
Q 1353 -1331 966 -1331 
L 506 -1331 
L 506 -850 
L 844 -850 
Q 1081 -850 1212 -737 
Q 1344 -625 1503 -206 
L 1606 56 
L 191 3500 
L 800 3500 
L 1894 763 
L 2988 3500 
L 3597 3500 
L 2059 -325 
z
" transform="scale(0.015625)"/>
      </defs>
      <use xlink:href="#DejaVuSans-47"/>
      <use xlink:href="#DejaVuSans-6c" x="77.490234"/>
      <use xlink:href="#DejaVuSans-6f" x="105.273438"/>
      <use xlink:href="#DejaVuSans-62" x="166.455078"/>
      <use xlink:href="#DejaVuSans-61" x="229.931641"/>
      <use xlink:href="#DejaVuSans-6c" x="291.210938"/>
      <use xlink:href="#DejaVuSans-20" x="318.994141"/>
      <use xlink:href="#DejaVuSans-41" x="350.78125"/>
      <use xlink:href="#DejaVuSans-63" x="417.439453"/>
      <use xlink:href="#DejaVuSans-63" x="472.419922"/>
      <use xlink:href="#DejaVuSans-75" x="527.400391"/>
      <use xlink:href="#DejaVuSans-72" x="590.779297"/>
      <use xlink:href="#DejaVuSans-61" x="631.892578"/>
      <use xlink:href="#DejaVuSans-63" x="693.171875"/>
      <use xlink:href="#DejaVuSans-79" x="748.152344"/>
     </g>
    </g>
   </g>
   <g id="line2d_31">
    <path d="M 67.544432 347.445291 
L 72.345075 342.786856 
L 77.145717 335.612084 
L 81.94636 329.485191 
L 86.747003 321.005914 
L 91.547646 309.54695 
L 96.348289 299.16438 
L 101.148931 285.566885 
L 105.949574 273.003013 
L 110.750217 260.00787 
L 115.55086 243.070702 
L 120.351503 233.055246 
L 125.152145 219.625269 
L 129.952788 206.583792 
L 134.753431 196.707341 
L 139.554074 185.39451 
L 144.354716 175.026197 
L 149.155359 163.139526 
L 153.956002 152.920911 
L 158.756645 145.892271 
L 163.557288 137.616154 
L 168.35793 130.109909 
L 173.158573 124.428544 
L 177.959216 118.14839 
L 182.759859 113.108584 
L 187.560502 106.628834 
L 192.361144 100.705102 
L 197.161787 95.134228 
L 201.96243 89.648895 
L 206.763073 85.272034 
L 211.563716 80.831017 
L 216.364358 76.536133 
L 221.165001 73.417442 
L 225.965644 70.423498 
L 230.766287 67.72182 
L 235.56693 65.626059 
L 240.367572 63.779794 
L 245.168215 62.35767 
L 249.968858 60.771593 
L 254.769501 59.5954 
L 259.570143 58.643754 
L 264.370786 57.674286 
L 269.171429 56.726204 
L 273.972072 55.542883 
L 278.772715 54.594801 
L 283.573357 53.682361 
L 288.374 52.891104 
L 293.174643 52.206774 
L 297.975286 51.522444 
L 302.775929 50.759702 
L 307.576571 50.0825 
L 312.377214 49.451633 
L 317.177857 48.802945 
L 321.9785 48.02951 
L 326.779143 47.191918 
L 331.579785 46.20463 
L 336.380428 45.238726 
L 341.181071 44.60786 
L 345.981714 44.155204 
L 350.782357 43.813039 
L 355.582999 43.524337 
L 360.383642 43.139401 
L 365.184285 42.932677 
L 369.984928 42.818622 
L 374.78557 42.672489 
L 379.586213 42.472892 
L 384.386856 42.305374 
L 389.187499 42.180626 
L 393.988142 41.966773 
L 398.788784 41.806383 
L 403.589427 41.663815 
L 408.39007 41.503425 
L 413.190713 41.360856 
L 417.991356 41.250365 
L 422.791998 41.082847 
L 427.592641 40.990177 
L 432.393284 40.886815 
L 437.193927 40.801274 
L 441.99457 40.751375 
L 446.795212 40.708604 
L 451.595855 40.644448 
L 456.396498 40.548214 
L 461.197141 40.509008 
L 465.997784 40.427031 
L 470.798426 40.348618 
L 475.599069 40.29159 
L 480.399712 40.24882 
L 485.200355 40.195356 
L 490.000997 40.149022 
L 494.80164 40.120508 
L 499.602283 40.084866 
L 504.402926 40.067045 
L 509.203569 40.024274 
L 514.004211 39.974375 
L 518.804854 39.95299 
L 523.605497 39.899526 
L 528.40614 39.863884 
L 533.206783 39.846063 
L 538.007425 39.831806 
L 542.808068 39.813985 
" clip-path="url(#p45b373e6fc)" style="fill: none; stroke: #808080; stroke-width: 2; stroke-linecap: square"/>
   </g>
   <g id="line2d_32">
    <path d="M 67.544432 367.975192 
L 72.345075 369.219105 
L 77.145717 369.657503 
L 81.94636 368.787834 
L 86.747003 368.680907 
L 91.547646 367.77916 
L 96.348289 366.692073 
L 101.148931 364.371767 
L 105.949574 360.280043 
L 110.750217 356.355838 
L 115.55086 355.086976 
L 120.351503 351.918386 
L 125.152145 350.988124 
L 129.952788 348.603662 
L 134.753431 344.020076 
L 139.554074 340.516449 
L 144.354716 336.260771 
L 149.155359 330.076852 
L 153.956002 327.585462 
L 158.756645 325.17605 
L 163.557288 321.487084 
L 168.35793 319.76913 
L 173.158573 317.880094 
L 177.959216 312.366247 
L 182.759859 307.119717 
L 187.560502 304.254085 
L 192.361144 304.671099 
L 197.161787 302.275943 
L 201.96243 298.098679 
L 206.763073 296.309441 
L 211.563716 284.60811 
L 216.364358 284.536825 
L 221.165001 278.969515 
L 225.965644 269.89145 
L 230.766287 276.798906 
L 235.56693 265.026291 
L 240.367572 265.863882 
L 245.168215 256.67889 
L 249.968858 252.305593 
L 254.769501 249.568273 
L 259.570143 236.084832 
L 264.370786 228.079597 
L 269.171429 224.575969 
L 273.972072 222.351897 
L 278.772715 198.963492 
L 283.573357 201.50478 
L 288.374 193.054016 
L 293.174643 184.207625 
L 297.975286 185.857858 
L 302.775929 169.248598 
L 307.576571 163.535155 
L 312.377214 155.18419 
L 317.177857 156.32474 
L 321.9785 149.196302 
L 326.779143 139.451727 
L 331.579785 134.818242 
L 336.380428 136.030077 
L 341.181071 121.559348 
L 345.981714 114.790896 
L 350.782357 117.193179 
L 355.582999 103.328367 
L 360.383642 104.112496 
L 365.184285 97.629181 
L 369.984928 91.03894 
L 374.78557 89.869877 
L 379.586213 82.687975 
L 384.386856 82.406402 
L 389.187499 81.173182 
L 393.988142 79.740366 
L 398.788784 73.178639 
L 403.589427 69.475415 
L 408.39007 68.413278 
L 413.190713 63.569505 
L 417.991356 63.352087 
L 422.791998 59.178387 
L 427.592641 60.386657 
L 432.393284 57.481819 
L 437.193927 54.961916 
L 441.99457 56.355525 
L 446.795212 57.239452 
L 451.595855 54.473618 
L 456.396498 54.780141 
L 461.197141 56.768975 
L 465.997784 58.034272 
L 470.798426 54.380948 
L 475.599069 51.850353 
L 480.399712 46.924602 
L 485.200355 45.784052 
L 490.000997 44.778942 
L 494.80164 44.686272 
L 499.602283 43.795218 
L 504.402926 44.258566 
L 509.203569 43.927094 
L 514.004211 42.651103 
L 518.804854 43.196429 
L 523.605497 42.551305 
L 528.40614 43.036039 
L 533.206783 43.025346 
L 538.007425 42.836443 
L 542.808068 42.319631 
" clip-path="url(#p45b373e6fc)" style="fill: none; stroke: #0000ff; stroke-width: 2; stroke-linecap: square"/>
   </g>
   <g id="line2d_33">
    <path d="M 67.544432 367.975192 
L 72.345075 369.219105 
L 77.145717 369.657503 
L 81.94636 368.787834 
L 86.747003 368.680907 
L 91.547646 367.77916 
L 96.348289 366.692073 
L 101.148931 364.371767 
L 105.949574 360.280043 
L 110.750217 356.355838 
L 115.55086 355.086976 
L 120.351503 351.918386 
L 125.152145 350.988124 
L 129.952788 348.603662 
L 134.753431 344.020076 
L 139.554074 340.516449 
L 144.354716 336.260771 
L 149.155359 330.076852 
L 153.956002 327.585462 
L 158.756645 325.033482 
L 163.557288 321.476391 
L 168.35793 319.79408 
L 173.158573 317.883658 
L 177.959216 312.359119 
L 182.759859 307.059125 
L 187.560502 303.986768 
L 192.361144 304.236264 
L 197.161787 301.823288 
L 201.96243 297.966803 
L 206.763073 296.419932 
L 211.563716 284.861169 
L 216.364358 284.437027 
L 221.165001 279.104956 
L 225.965644 270.750426 
L 230.766287 276.902268 
L 235.56693 265.418355 
L 240.367572 266.038529 
L 245.168215 256.133564 
L 249.968858 252.077483 
L 254.769501 252.572909 
L 259.570143 238.205543 
L 264.370786 234.45242 
L 269.171429 229.886656 
L 273.972072 228.988472 
L 278.772715 207.727906 
L 283.573357 204.388233 
L 288.374 197.773042 
L 293.174643 188.65577 
L 297.975286 192.540769 
L 302.775929 176.719201 
L 307.576571 172.231849 
L 312.377214 157.126689 
L 317.177857 151.359783 
L 321.9785 144.676872 
L 326.779143 135.213871 
L 331.579785 145.047551 
L 336.380428 139.455291 
L 341.181071 124.549727 
L 345.981714 125.2697 
L 350.782357 130.430689 
L 355.582999 114.851487 
L 360.383642 112.046447 
L 365.184285 105.12117 
L 369.984928 91.709014 
L 374.78557 88.921794 
L 379.586213 81.903847 
L 384.386856 82.595306 
L 389.187499 74.173056 
L 393.988142 75.548845 
L 398.788784 74.743331 
L 403.589427 71.695924 
L 408.39007 68.620003 
L 413.190713 65.50844 
L 417.991356 64.727876 
L 422.791998 62.874482 
L 427.592641 61.897886 
L 432.393284 59.16413 
L 437.193927 56.13098 
L 441.99457 53.211884 
L 446.795212 55.763865 
L 451.595855 50.841679 
L 456.396498 49.800927 
L 461.197141 47.626753 
L 465.997784 48.282569 
L 470.798426 48.172079 
L 475.599069 47.833478 
L 480.399712 46.293735 
L 485.200355 45.862465 
L 490.000997 45.452579 
L 494.80164 45.285061 
L 499.602283 44.58291 
L 504.402926 44.543704 
L 509.203569 44.19441 
L 514.004211 43.050296 
L 518.804854 43.599186 
L 523.605497 43.196429 
L 528.40614 43.12158 
L 533.206783 42.455071 
L 538.007425 42.747337 
L 542.808068 42.262603 
" clip-path="url(#p45b373e6fc)" style="fill: none; stroke: #00ffff; stroke-width: 2; stroke-linecap: square"/>
   </g>
   <g id="line2d_34">
    <path d="M 67.544432 364.756702 
L 72.345075 361.695038 
L 77.145717 357.311049 
L 81.94636 351.551271 
L 86.747003 345.192704 
L 91.547646 334.279066 
L 96.348289 323.037519 
L 101.148931 310.455826 
L 105.949574 295.774808 
L 110.750217 279.710873 
L 115.55086 263.433085 
L 120.351503 247.59726 
L 125.152145 232.413687 
L 129.952788 219.678732 
L 134.753431 208.005915 
L 139.554074 197.616217 
L 144.354716 190.095715 
L 149.155359 183.166873 
L 153.956002 176.74415 
L 158.756645 168.888612 
L 163.557288 162.105903 
L 168.35793 156.599185 
L 173.158573 151.791053 
L 177.959216 147.4035 
L 182.759859 143.949771 
L 187.560502 140.895236 
L 192.361144 138.20425 
L 197.161787 135.983742 
L 201.96243 133.969958 
L 206.763073 132.227055 
L 211.563716 130.847702 
L 216.364358 129.792694 
L 221.165001 128.669965 
L 225.965644 127.36546 
L 230.766287 126.128676 
L 235.56693 125.166337 
L 240.367572 123.883218 
L 245.168215 122.82821 
L 249.968858 121.773201 
L 254.769501 120.95343 
L 259.570143 119.894857 
L 264.370786 119.160628 
L 269.171429 118.700844 
L 273.972072 118.027207 
L 278.772715 117.399904 
L 283.573357 116.64429 
L 288.374 115.860161 
L 293.174643 115.229295 
L 297.975286 114.231313 
L 302.775929 113.415107 
L 307.576571 112.541874 
L 312.377214 111.57597 
L 317.177857 110.467498 
L 321.9785 109.220021 
L 326.779143 108.685389 
L 331.579785 108.328967 
L 336.380428 107.794334 
L 341.181071 107.088619 
L 345.981714 106.39716 
L 350.782357 105.926683 
L 355.582999 105.18889 
L 360.383642 104.586537 
L 365.184285 104.265757 
L 369.984928 103.642019 
L 374.78557 102.661859 
L 379.586213 102.027428 
L 384.386856 101.571208 
L 389.187499 101.118552 
L 393.988142 100.644511 
L 398.788784 100.149084 
L 403.589427 99.714249 
L 408.39007 99.307928 
L 413.190713 99.033484 
L 417.991356 98.723397 
L 422.791998 98.352718 
L 427.592641 97.832342 
L 432.393284 97.411764 
L 437.193927 97.005443 
L 441.99457 96.634764 
L 446.795212 96.232007 
L 451.595855 95.953998 
L 456.396498 95.672425 
L 461.197141 95.508471 
L 465.997784 95.230462 
L 470.798426 94.827705 
L 475.599069 94.496233 
L 480.399712 94.182582 
L 485.200355 93.829724 
L 490.000997 93.405582 
L 494.80164 92.910155 
L 499.602283 92.521655 
L 504.402926 92.168798 
L 509.203569 91.855147 
L 514.004211 91.512982 
L 518.804854 91.181509 
L 523.605497 90.953399 
L 528.40614 90.693211 
L 533.206783 90.429459 
L 538.007425 90.204913 
L 542.808068 90.040959 
" clip-path="url(#p45b373e6fc)" style="fill: none; stroke: #008000; stroke-width: 2; stroke-linecap: square"/>
   </g>
   <g id="line2d_35">
    <path d="M 67.544432 364.774523 
L 72.345075 362.525501 
L 77.145717 358.797328 
L 81.94636 353.718316 
L 86.747003 346.525722 
L 91.547646 338.139115 
L 96.348289 326.395013 
L 101.148931 316.629053 
L 105.949574 303.027994 
L 110.750217 290.068493 
L 115.55086 273.352306 
L 120.351503 256.946206 
L 125.152145 240.814551 
L 129.952788 229.530234 
L 134.753431 216.959233 
L 139.554074 207.809883 
L 144.354716 195.16047 
L 149.155359 185.864987 
L 153.956002 177.556792 
L 158.756645 169.840258 
L 163.557288 163.160912 
L 168.35793 158.662867 
L 173.158573 153.744245 
L 177.959216 149.142838 
L 182.759859 145.168734 
L 187.560502 142.0643 
L 192.361144 139.216489 
L 197.161787 136.938953 
L 201.96243 134.629339 
L 206.763073 132.63694 
L 211.563716 131.04017 
L 216.364358 129.418451 
L 221.165001 128.124639 
L 225.965644 126.627667 
L 230.766287 125.198415 
L 235.56693 123.676494 
L 240.367572 122.05121 
L 245.168215 120.971252 
L 249.968858 119.81288 
L 254.769501 118.458477 
L 259.570143 117.431982 
L 264.370786 116.615776 
L 269.171429 115.902932 
L 273.972072 115.357607 
L 278.772715 114.723176 
L 283.573357 114.013896 
L 288.374 113.233332 
L 293.174643 112.114167 
L 297.975286 110.581553 
L 302.775929 109.426746 
L 307.576571 107.281086 
L 312.377214 106.087073 
L 317.177857 105.548876 
L 321.9785 105.142555 
L 326.779143 104.604358 
L 331.579785 104.080418 
L 336.380428 103.388959 
L 341.181071 102.832941 
L 345.981714 101.749418 
L 350.782357 101.186272 
L 355.582999 100.612433 
L 360.383642 100.035029 
L 365.184285 99.507525 
L 369.984928 98.965763 
L 374.78557 98.609342 
L 379.586213 98.263612 
L 384.386856 97.860856 
L 389.187499 97.461663 
L 393.988142 97.101677 
L 398.788784 96.663278 
L 403.589427 96.264085 
L 408.39007 95.936177 
L 413.190713 95.576191 
L 417.991356 95.291054 
L 422.791998 95.112843 
L 427.592641 94.895425 
L 432.393284 94.332279 
L 437.193927 93.851109 
L 441.99457 93.530329 
L 446.795212 93.195293 
L 451.595855 92.682045 
L 456.396498 92.22939 
L 461.197141 91.730399 
L 465.997784 91.220716 
L 470.798426 90.778752 
L 475.599069 90.561335 
L 480.399712 90.351046 
L 485.200355 90.040959 
L 490.000997 89.716615 
L 494.80164 89.470684 
L 499.602283 89.217624 
L 504.402926 88.946744 
L 509.203569 88.693684 
L 514.004211 88.454882 
L 518.804854 88.041432 
L 523.605497 87.563827 
L 528.40614 87.039887 
L 533.206783 86.494561 
L 538.007425 86.034777 
L 542.808068 85.607071 
" clip-path="url(#p45b373e6fc)" style="fill: none; stroke: #ffa500; stroke-width: 2; stroke-linecap: square"/>
   </g>
   <g id="line2d_36">
    <path d="M 67.544432 334.995474 
L 72.345075 317.855145 
L 77.145717 297.599688 
L 81.94636 272.774903 
L 86.747003 250.712387 
L 91.547646 214.777931 
L 96.348289 175.575087 
L 101.148931 138.485824 
L 105.949574 96.827232 
L 110.750217 66.652554 
L 115.55086 51.372747 
L 120.351503 46.022854 
L 125.152145 43.360383 
L 129.952788 41.817076 
L 134.753431 40.683654 
L 139.554074 40.24882 
L 144.354716 39.785471 
L 149.155359 39.375586 
L 153.956002 39.126091 
L 158.756645 39.008471 
L 163.557288 38.940751 
L 168.35793 38.915802 
L 173.158573 38.908673 
L 177.959216 38.905109 
L 182.759859 38.890852 
L 187.560502 38.890852 
L 192.361144 38.890852 
L 197.161787 38.890852 
L 201.96243 38.890852 
L 206.763073 38.890852 
L 211.563716 38.890852 
L 216.364358 38.890852 
L 221.165001 38.890852 
L 225.965644 38.890852 
L 230.766287 38.890852 
L 235.56693 38.890852 
L 240.367572 38.890852 
L 245.168215 38.890852 
L 249.968858 38.890852 
L 254.769501 38.890852 
L 259.570143 38.890852 
L 264.370786 38.890852 
L 269.171429 38.890852 
L 273.972072 38.890852 
L 278.772715 38.890852 
L 283.573357 38.890852 
L 288.374 38.890852 
L 293.174643 38.890852 
L 297.975286 38.890852 
L 302.775929 38.890852 
L 307.576571 38.890852 
L 312.377214 38.890852 
L 317.177857 38.890852 
L 321.9785 38.890852 
L 326.779143 38.890852 
L 331.579785 38.890852 
L 336.380428 38.890852 
L 341.181071 38.890852 
L 345.981714 38.890852 
L 350.782357 38.890852 
L 355.582999 38.890852 
L 360.383642 38.890852 
L 365.184285 38.890852 
L 369.984928 38.890852 
L 374.78557 38.890852 
L 379.586213 38.890852 
L 384.386856 38.890852 
L 389.187499 38.890852 
L 393.988142 38.890852 
L 398.788784 38.890852 
L 403.589427 38.890852 
L 408.39007 38.890852 
L 413.190713 38.890852 
L 417.991356 38.890852 
L 422.791998 38.890852 
L 427.592641 38.890852 
L 432.393284 38.890852 
L 437.193927 38.890852 
L 441.99457 38.890852 
L 446.795212 38.890852 
L 451.595855 38.890852 
L 456.396498 38.890852 
L 461.197141 38.890852 
L 465.997784 38.890852 
L 470.798426 38.890852 
L 475.599069 38.890852 
L 480.399712 38.890852 
L 485.200355 38.890852 
L 490.000997 38.894416 
L 494.80164 38.908673 
L 499.602283 38.912238 
L 504.402926 38.915802 
L 509.203569 38.92293 
L 514.004211 38.930059 
L 518.804854 38.933623 
L 523.605497 38.944316 
L 528.40614 38.951444 
L 533.206783 38.965701 
L 538.007425 38.976394 
L 542.808068 38.979958 
" clip-path="url(#p45b373e6fc)" style="fill: none; stroke: #ff0000; stroke-width: 2; stroke-linecap: square"/>
   </g>
   <g id="line2d_37">
    <path d="M 67.544432 368.577545 
L 72.345075 369.454343 
L 77.145717 369.985412 
L 81.94636 369.571962 
L 86.747003 370.345398 
L 91.547646 369.607604 
L 96.348289 369.949769 
L 101.148931 369.825022 
L 105.949574 369.750173 
L 110.750217 369.397315 
L 115.55086 368.085683 
L 120.351503 367.957371 
L 125.152145 366.923747 
L 129.952788 365.063225 
L 134.753431 362.878359 
L 139.554074 359.855901 
L 144.354716 358.369622 
L 149.155359 354.299284 
L 153.956002 353.026858 
L 158.756645 349.719262 
L 163.557288 347.580731 
L 168.35793 343.314361 
L 173.158573 342.148861 
L 177.959216 337.415578 
L 182.759859 335.391102 
L 187.560502 335.344767 
L 192.361144 334.635488 
L 197.161787 334.058084 
L 201.96243 332.054993 
L 206.763073 330.17665 
L 211.563716 330.989292 
L 216.364358 331.196016 
L 221.165001 330.814645 
L 225.965644 325.896023 
L 230.766287 328.651164 
L 235.56693 326.612431 
L 240.367572 323.618487 
L 245.168215 323.472354 
L 249.968858 322.338932 
L 254.769501 325.956614 
L 259.570143 323.607794 
L 264.370786 317.627035 
L 269.171429 310.6875 
L 273.972072 312.886623 
L 278.772715 309.358047 
L 283.573357 310.274051 
L 288.374 311.225697 
L 293.174643 311.115206 
L 297.975286 309.15845 
L 302.775929 307.526038 
L 307.576571 305.565717 
L 312.377214 305.658387 
L 317.177857 303.017301 
L 321.9785 302.807012 
L 326.779143 305.733236 
L 331.579785 311.272032 
L 336.380428 303.437879 
L 341.181071 306.692011 
L 345.981714 303.081457 
L 350.782357 303.405801 
L 355.582999 302.097732 
L 360.383642 301.253013 
L 365.184285 298.087986 
L 369.984928 303.152741 
L 374.78557 299.292692 
L 379.586213 296.826253 
L 384.386856 296.705069 
L 389.187499 292.877098 
L 393.988142 290.456993 
L 398.788784 290.325117 
L 403.589427 287.348994 
L 408.39007 276.659901 
L 413.190713 271.887412 
L 417.991356 265.696364 
L 422.791998 259.972228 
L 427.592641 256.543449 
L 432.393284 247.026985 
L 437.193927 243.07783 
L 441.99457 239.036006 
L 446.795212 229.523105 
L 451.595855 222.277048 
L 456.396498 217.422582 
L 461.197141 202.192674 
L 465.997784 203.272632 
L 470.798426 208.023736 
L 475.599069 202.032284 
L 480.399712 196.896245 
L 485.200355 198.100951 
L 490.000997 196.076474 
L 494.80164 187.978569 
L 499.602283 191.581994 
L 504.402926 187.600761 
L 509.203569 190.616091 
L 514.004211 184.378707 
L 518.804854 180.183622 
L 523.605497 186.125175 
L 528.40614 176.501783 
L 533.206783 172.602528 
L 538.007425 168.450213 
L 542.808068 167.609057 
" clip-path="url(#p45b373e6fc)" style="fill: none; stroke: #ff00ff; stroke-width: 2; stroke-linecap: square"/>
   </g>
   <g id="patch_3">
    <path d="M 43.78125 386.918125 
L 43.78125 22.318125 
" style="fill: none; stroke: #000000; stroke-width: 0.8; stroke-linejoin: miter; stroke-linecap: square"/>
   </g>
   <g id="patch_4">
    <path d="M 566.57125 386.918125 
L 566.57125 22.318125 
" style="fill: none; stroke: #000000; stroke-width: 0.8; stroke-linejoin: miter; stroke-linecap: square"/>
   </g>
   <g id="patch_5">
    <path d="M 43.78125 386.918125 
L 566.57125 386.918125 
" style="fill: none; stroke: #000000; stroke-width: 0.8; stroke-linejoin: miter; stroke-linecap: square"/>
   </g>
   <g id="patch_6">
    <path d="M 43.78125 22.318125 
L 566.57125 22.318125 
" style="fill: none; stroke: #000000; stroke-width: 0.8; stroke-linejoin: miter; stroke-linecap: square"/>
   </g>
   <g id="text_18">
    <!-- Accuracy Comparison - opp -->
    <g transform="translate(222.68375 16.318125) scale(0.12 -0.12)">
     <defs>
      <path id="DejaVuSans-70" d="M 1159 525 
L 1159 -1331 
L 581 -1331 
L 581 3500 
L 1159 3500 
L 1159 2969 
Q 1341 3281 1617 3432 
Q 1894 3584 2278 3584 
Q 2916 3584 3314 3078 
Q 3713 2572 3713 1747 
Q 3713 922 3314 415 
Q 2916 -91 2278 -91 
Q 1894 -91 1617 61 
Q 1341 213 1159 525 
z
M 3116 1747 
Q 3116 2381 2855 2742 
Q 2594 3103 2138 3103 
Q 1681 3103 1420 2742 
Q 1159 2381 1159 1747 
Q 1159 1113 1420 752 
Q 1681 391 2138 391 
Q 2594 391 2855 752 
Q 3116 1113 3116 1747 
z
" transform="scale(0.015625)"/>
      <path id="DejaVuSans-2d" d="M 313 2009 
L 1997 2009 
L 1997 1497 
L 313 1497 
L 313 2009 
z
" transform="scale(0.015625)"/>
     </defs>
     <use xlink:href="#DejaVuSans-41"/>
     <use xlink:href="#DejaVuSans-63" x="66.658203"/>
     <use xlink:href="#DejaVuSans-63" x="121.638672"/>
     <use xlink:href="#DejaVuSans-75" x="176.619141"/>
     <use xlink:href="#DejaVuSans-72" x="239.998047"/>
     <use xlink:href="#DejaVuSans-61" x="281.111328"/>
     <use xlink:href="#DejaVuSans-63" x="342.390625"/>
     <use xlink:href="#DejaVuSans-79" x="397.371094"/>
     <use xlink:href="#DejaVuSans-20" x="456.550781"/>
     <use xlink:href="#DejaVuSans-43" x="488.337891"/>
     <use xlink:href="#DejaVuSans-6f" x="558.162109"/>
     <use xlink:href="#DejaVuSans-6d" x="619.34375"/>
     <use xlink:href="#DejaVuSans-70" x="716.755859"/>
     <use xlink:href="#DejaVuSans-61" x="780.232422"/>
     <use xlink:href="#DejaVuSans-72" x="841.511719"/>
     <use xlink:href="#DejaVuSans-69" x="882.625"/>
     <use xlink:href="#DejaVuSans-73" x="910.408203"/>
     <use xlink:href="#DejaVuSans-6f" x="962.507812"/>
     <use xlink:href="#DejaVuSans-6e" x="1023.689453"/>
     <use xlink:href="#DejaVuSans-20" x="1087.068359"/>
     <use xlink:href="#DejaVuSans-2d" x="1118.855469"/>
     <use xlink:href="#DejaVuSans-20" x="1154.939453"/>
     <use xlink:href="#DejaVuSans-6f" x="1186.726562"/>
     <use xlink:href="#DejaVuSans-70" x="1247.908203"/>
     <use xlink:href="#DejaVuSans-70" x="1311.384766"/>
    </g>
   </g>
   <g id="legend_1">
    <g id="patch_7">
     <path d="M 483.030625 381.918125 
L 559.57125 381.918125 
Q 561.57125 381.918125 561.57125 379.918125 
L 561.57125 278.17125 
Q 561.57125 276.17125 559.57125 276.17125 
L 483.030625 276.17125 
Q 481.030625 276.17125 481.030625 278.17125 
L 481.030625 379.918125 
Q 481.030625 381.918125 483.030625 381.918125 
z
" style="fill: #ffffff; opacity: 0.8; stroke: #cccccc; stroke-linejoin: miter"/>
    </g>
    <g id="line2d_38">
     <path d="M 485.030625 284.269687 
L 495.030625 284.269687 
L 505.030625 284.269687 
" style="fill: none; stroke: #808080; stroke-width: 2; stroke-linecap: square"/>
    </g>
    <g id="text_19">
     <!-- Single -->
     <g transform="translate(513.030625 287.769687) scale(0.1 -0.1)">
      <defs>
       <path id="DejaVuSans-53" d="M 3425 4513 
L 3425 3897 
Q 3066 4069 2747 4153 
Q 2428 4238 2131 4238 
Q 1616 4238 1336 4038 
Q 1056 3838 1056 3469 
Q 1056 3159 1242 3001 
Q 1428 2844 1947 2747 
L 2328 2669 
Q 3034 2534 3370 2195 
Q 3706 1856 3706 1288 
Q 3706 609 3251 259 
Q 2797 -91 1919 -91 
Q 1588 -91 1214 -16 
Q 841 59 441 206 
L 441 856 
Q 825 641 1194 531 
Q 1563 422 1919 422 
Q 2459 422 2753 634 
Q 3047 847 3047 1241 
Q 3047 1584 2836 1778 
Q 2625 1972 2144 2069 
L 1759 2144 
Q 1053 2284 737 2584 
Q 422 2884 422 3419 
Q 422 4038 858 4394 
Q 1294 4750 2059 4750 
Q 2388 4750 2728 4690 
Q 3069 4631 3425 4513 
z
" transform="scale(0.015625)"/>
       <path id="DejaVuSans-67" d="M 2906 1791 
Q 2906 2416 2648 2759 
Q 2391 3103 1925 3103 
Q 1463 3103 1205 2759 
Q 947 2416 947 1791 
Q 947 1169 1205 825 
Q 1463 481 1925 481 
Q 2391 481 2648 825 
Q 2906 1169 2906 1791 
z
M 3481 434 
Q 3481 -459 3084 -895 
Q 2688 -1331 1869 -1331 
Q 1566 -1331 1297 -1286 
Q 1028 -1241 775 -1147 
L 775 -588 
Q 1028 -725 1275 -790 
Q 1522 -856 1778 -856 
Q 2344 -856 2625 -561 
Q 2906 -266 2906 331 
L 2906 616 
Q 2728 306 2450 153 
Q 2172 0 1784 0 
Q 1141 0 747 490 
Q 353 981 353 1791 
Q 353 2603 747 3093 
Q 1141 3584 1784 3584 
Q 2172 3584 2450 3431 
Q 2728 3278 2906 2969 
L 2906 3500 
L 3481 3500 
L 3481 434 
z
" transform="scale(0.015625)"/>
       <path id="DejaVuSans-65" d="M 3597 1894 
L 3597 1613 
L 953 1613 
Q 991 1019 1311 708 
Q 1631 397 2203 397 
Q 2534 397 2845 478 
Q 3156 559 3463 722 
L 3463 178 
Q 3153 47 2828 -22 
Q 2503 -91 2169 -91 
Q 1331 -91 842 396 
Q 353 884 353 1716 
Q 353 2575 817 3079 
Q 1281 3584 2069 3584 
Q 2775 3584 3186 3129 
Q 3597 2675 3597 1894 
z
M 3022 2063 
Q 3016 2534 2758 2815 
Q 2500 3097 2075 3097 
Q 1594 3097 1305 2825 
Q 1016 2553 972 2059 
L 3022 2063 
z
" transform="scale(0.015625)"/>
      </defs>
      <use xlink:href="#DejaVuSans-53"/>
      <use xlink:href="#DejaVuSans-69" x="63.476562"/>
      <use xlink:href="#DejaVuSans-6e" x="91.259766"/>
      <use xlink:href="#DejaVuSans-67" x="154.638672"/>
      <use xlink:href="#DejaVuSans-6c" x="218.115234"/>
      <use xlink:href="#DejaVuSans-65" x="245.898438"/>
     </g>
    </g>
    <g id="line2d_39">
     <path d="M 485.030625 298.947812 
L 495.030625 298.947812 
L 505.030625 298.947812 
" style="fill: none; stroke: #0000ff; stroke-width: 2; stroke-linecap: square"/>
    </g>
    <g id="text_20">
     <!-- FedAvg -->
     <g transform="translate(513.030625 302.447812) scale(0.1 -0.1)">
      <defs>
       <path id="DejaVuSans-46" d="M 628 4666 
L 3309 4666 
L 3309 4134 
L 1259 4134 
L 1259 2759 
L 3109 2759 
L 3109 2228 
L 1259 2228 
L 1259 0 
L 628 0 
L 628 4666 
z
" transform="scale(0.015625)"/>
       <path id="DejaVuSans-76" d="M 191 3500 
L 800 3500 
L 1894 563 
L 2988 3500 
L 3597 3500 
L 2284 0 
L 1503 0 
L 191 3500 
z
" transform="scale(0.015625)"/>
      </defs>
      <use xlink:href="#DejaVuSans-46"/>
      <use xlink:href="#DejaVuSans-65" x="52.019531"/>
      <use xlink:href="#DejaVuSans-64" x="113.542969"/>
      <use xlink:href="#DejaVuSans-41" x="177.019531"/>
      <use xlink:href="#DejaVuSans-76" x="239.552734"/>
      <use xlink:href="#DejaVuSans-67" x="298.732422"/>
     </g>
    </g>
    <g id="line2d_40">
     <path d="M 485.030625 313.625937 
L 495.030625 313.625937 
L 505.030625 313.625937 
" style="fill: none; stroke: #00ffff; stroke-width: 2; stroke-linecap: square"/>
    </g>
    <g id="text_21">
     <!-- FedProx -->
     <g transform="translate(513.030625 317.125937) scale(0.1 -0.1)">
      <defs>
       <path id="DejaVuSans-50" d="M 1259 4147 
L 1259 2394 
L 2053 2394 
Q 2494 2394 2734 2622 
Q 2975 2850 2975 3272 
Q 2975 3691 2734 3919 
Q 2494 4147 2053 4147 
L 1259 4147 
z
M 628 4666 
L 2053 4666 
Q 2838 4666 3239 4311 
Q 3641 3956 3641 3272 
Q 3641 2581 3239 2228 
Q 2838 1875 2053 1875 
L 1259 1875 
L 1259 0 
L 628 0 
L 628 4666 
z
" transform="scale(0.015625)"/>
       <path id="DejaVuSans-78" d="M 3513 3500 
L 2247 1797 
L 3578 0 
L 2900 0 
L 1881 1375 
L 863 0 
L 184 0 
L 1544 1831 
L 300 3500 
L 978 3500 
L 1906 2253 
L 2834 3500 
L 3513 3500 
z
" transform="scale(0.015625)"/>
      </defs>
      <use xlink:href="#DejaVuSans-46"/>
      <use xlink:href="#DejaVuSans-65" x="52.019531"/>
      <use xlink:href="#DejaVuSans-64" x="113.542969"/>
      <use xlink:href="#DejaVuSans-50" x="177.019531"/>
      <use xlink:href="#DejaVuSans-72" x="235.572266"/>
      <use xlink:href="#DejaVuSans-6f" x="274.435547"/>
      <use xlink:href="#DejaVuSans-78" x="332.492188"/>
     </g>
    </g>
    <g id="line2d_41">
     <path d="M 485.030625 328.304062 
L 495.030625 328.304062 
L 505.030625 328.304062 
" style="fill: none; stroke: #008000; stroke-width: 2; stroke-linecap: square"/>
    </g>
    <g id="text_22">
     <!-- FedProto -->
     <g transform="translate(513.030625 331.804062) scale(0.1 -0.1)">
      <use xlink:href="#DejaVuSans-46"/>
      <use xlink:href="#DejaVuSans-65" x="52.019531"/>
      <use xlink:href="#DejaVuSans-64" x="113.542969"/>
      <use xlink:href="#DejaVuSans-50" x="177.019531"/>
      <use xlink:href="#DejaVuSans-72" x="235.572266"/>
      <use xlink:href="#DejaVuSans-6f" x="274.435547"/>
      <use xlink:href="#DejaVuSans-74" x="335.617188"/>
      <use xlink:href="#DejaVuSans-6f" x="374.826172"/>
     </g>
    </g>
    <g id="line2d_42">
     <path d="M 485.030625 342.982187 
L 495.030625 342.982187 
L 505.030625 342.982187 
" style="fill: none; stroke: #ffa500; stroke-width: 2; stroke-linecap: square"/>
    </g>
    <g id="text_23">
     <!-- FedMEKT -->
     <g transform="translate(513.030625 346.482187) scale(0.1 -0.1)">
      <defs>
       <path id="DejaVuSans-4d" d="M 628 4666 
L 1569 4666 
L 2759 1491 
L 3956 4666 
L 4897 4666 
L 4897 0 
L 4281 0 
L 4281 4097 
L 3078 897 
L 2444 897 
L 1241 4097 
L 1241 0 
L 628 0 
L 628 4666 
z
" transform="scale(0.015625)"/>
       <path id="DejaVuSans-45" d="M 628 4666 
L 3578 4666 
L 3578 4134 
L 1259 4134 
L 1259 2753 
L 3481 2753 
L 3481 2222 
L 1259 2222 
L 1259 531 
L 3634 531 
L 3634 0 
L 628 0 
L 628 4666 
z
" transform="scale(0.015625)"/>
       <path id="DejaVuSans-4b" d="M 628 4666 
L 1259 4666 
L 1259 2694 
L 3353 4666 
L 4166 4666 
L 1850 2491 
L 4331 0 
L 3500 0 
L 1259 2247 
L 1259 0 
L 628 0 
L 628 4666 
z
" transform="scale(0.015625)"/>
       <path id="DejaVuSans-54" d="M -19 4666 
L 3928 4666 
L 3928 4134 
L 2272 4134 
L 2272 0 
L 1638 0 
L 1638 4134 
L -19 4134 
L -19 4666 
z
" transform="scale(0.015625)"/>
      </defs>
      <use xlink:href="#DejaVuSans-46"/>
      <use xlink:href="#DejaVuSans-65" x="52.019531"/>
      <use xlink:href="#DejaVuSans-64" x="113.542969"/>
      <use xlink:href="#DejaVuSans-4d" x="177.019531"/>
      <use xlink:href="#DejaVuSans-45" x="263.298828"/>
      <use xlink:href="#DejaVuSans-4b" x="326.482422"/>
      <use xlink:href="#DejaVuSans-54" x="384.308594"/>
     </g>
    </g>
    <g id="line2d_43">
     <path d="M 485.030625 357.660312 
L 495.030625 357.660312 
L 505.030625 357.660312 
" style="fill: none; stroke: #ff0000; stroke-width: 2; stroke-linecap: square"/>
    </g>
    <g id="text_24">
     <!-- FedProp -->
     <g transform="translate(513.030625 361.160312) scale(0.1 -0.1)">
      <use xlink:href="#DejaVuSans-46"/>
      <use xlink:href="#DejaVuSans-65" x="52.019531"/>
      <use xlink:href="#DejaVuSans-64" x="113.542969"/>
      <use xlink:href="#DejaVuSans-50" x="177.019531"/>
      <use xlink:href="#DejaVuSans-72" x="235.572266"/>
      <use xlink:href="#DejaVuSans-6f" x="274.435547"/>
      <use xlink:href="#DejaVuSans-70" x="335.617188"/>
     </g>
    </g>
    <g id="line2d_44">
     <path d="M 485.030625 372.338437 
L 495.030625 372.338437 
L 505.030625 372.338437 
" style="fill: none; stroke: #ff00ff; stroke-width: 2; stroke-linecap: square"/>
    </g>
    <g id="text_25">
     <!-- FedDTG -->
     <g transform="translate(513.030625 375.838437) scale(0.1 -0.1)">
      <defs>
       <path id="DejaVuSans-44" d="M 1259 4147 
L 1259 519 
L 2022 519 
Q 2988 519 3436 956 
Q 3884 1394 3884 2338 
Q 3884 3275 3436 3711 
Q 2988 4147 2022 4147 
L 1259 4147 
z
M 628 4666 
L 1925 4666 
Q 3281 4666 3915 4102 
Q 4550 3538 4550 2338 
Q 4550 1131 3912 565 
Q 3275 0 1925 0 
L 628 0 
L 628 4666 
z
" transform="scale(0.015625)"/>
      </defs>
      <use xlink:href="#DejaVuSans-46"/>
      <use xlink:href="#DejaVuSans-65" x="52.019531"/>
      <use xlink:href="#DejaVuSans-64" x="113.542969"/>
      <use xlink:href="#DejaVuSans-44" x="177.019531"/>
      <use xlink:href="#DejaVuSans-54" x="254.021484"/>
      <use xlink:href="#DejaVuSans-47" x="315.105469"/>
     </g>
    </g>
   </g>
  </g>
  <g id="axes_2">
   <g id="patch_8">
    <path d="M 614.38125 386.918125 
L 1137.17125 386.918125 
L 1137.17125 22.318125 
L 614.38125 22.318125 
z
" style="fill: #ffffff"/>
   </g>
   <g id="matplotlib.axis_3">
    <g id="xtick_7">
     <g id="line2d_45">
      <path d="M 633.343789 386.918125 
L 633.343789 22.318125 
" clip-path="url(#p19366d54c2)" style="fill: none; stroke: #b0b0b0; stroke-opacity: 0.3; stroke-width: 0.8; stroke-linecap: square"/>
     </g>
     <g id="line2d_46">
      <g>
       <use xlink:href="#maf321f0fd6" x="633.343789" y="386.918125" style="stroke: #000000; stroke-width: 0.8"/>
      </g>
     </g>
     <g id="text_26">
      <!-- 0 -->
      <g transform="translate(630.162539 401.516562) scale(0.1 -0.1)">
       <use xlink:href="#DejaVuSans-30"/>
      </g>
     </g>
    </g>
    <g id="xtick_8">
     <g id="line2d_47">
      <path d="M 729.356645 386.918125 
L 729.356645 22.318125 
" clip-path="url(#p19366d54c2)" style="fill: none; stroke: #b0b0b0; stroke-opacity: 0.3; stroke-width: 0.8; stroke-linecap: square"/>
     </g>
     <g id="line2d_48">
      <g>
       <use xlink:href="#maf321f0fd6" x="729.356645" y="386.918125" style="stroke: #000000; stroke-width: 0.8"/>
      </g>
     </g>
     <g id="text_27">
      <!-- 20 -->
      <g transform="translate(722.994145 401.516562) scale(0.1 -0.1)">
       <use xlink:href="#DejaVuSans-32"/>
       <use xlink:href="#DejaVuSans-30" x="63.623047"/>
      </g>
     </g>
    </g>
    <g id="xtick_9">
     <g id="line2d_49">
      <path d="M 825.369501 386.918125 
L 825.369501 22.318125 
" clip-path="url(#p19366d54c2)" style="fill: none; stroke: #b0b0b0; stroke-opacity: 0.3; stroke-width: 0.8; stroke-linecap: square"/>
     </g>
     <g id="line2d_50">
      <g>
       <use xlink:href="#maf321f0fd6" x="825.369501" y="386.918125" style="stroke: #000000; stroke-width: 0.8"/>
      </g>
     </g>
     <g id="text_28">
      <!-- 40 -->
      <g transform="translate(819.007001 401.516562) scale(0.1 -0.1)">
       <use xlink:href="#DejaVuSans-34"/>
       <use xlink:href="#DejaVuSans-30" x="63.623047"/>
      </g>
     </g>
    </g>
    <g id="xtick_10">
     <g id="line2d_51">
      <path d="M 921.382357 386.918125 
L 921.382357 22.318125 
" clip-path="url(#p19366d54c2)" style="fill: none; stroke: #b0b0b0; stroke-opacity: 0.3; stroke-width: 0.8; stroke-linecap: square"/>
     </g>
     <g id="line2d_52">
      <g>
       <use xlink:href="#maf321f0fd6" x="921.382357" y="386.918125" style="stroke: #000000; stroke-width: 0.8"/>
      </g>
     </g>
     <g id="text_29">
      <!-- 60 -->
      <g transform="translate(915.019857 401.516562) scale(0.1 -0.1)">
       <use xlink:href="#DejaVuSans-36"/>
       <use xlink:href="#DejaVuSans-30" x="63.623047"/>
      </g>
     </g>
    </g>
    <g id="xtick_11">
     <g id="line2d_53">
      <path d="M 1017.395212 386.918125 
L 1017.395212 22.318125 
" clip-path="url(#p19366d54c2)" style="fill: none; stroke: #b0b0b0; stroke-opacity: 0.3; stroke-width: 0.8; stroke-linecap: square"/>
     </g>
     <g id="line2d_54">
      <g>
       <use xlink:href="#maf321f0fd6" x="1017.395212" y="386.918125" style="stroke: #000000; stroke-width: 0.8"/>
      </g>
     </g>
     <g id="text_30">
      <!-- 80 -->
      <g transform="translate(1011.032712 401.516562) scale(0.1 -0.1)">
       <use xlink:href="#DejaVuSans-38"/>
       <use xlink:href="#DejaVuSans-30" x="63.623047"/>
      </g>
     </g>
    </g>
    <g id="xtick_12">
     <g id="line2d_55">
      <path d="M 1113.408068 386.918125 
L 1113.408068 22.318125 
" clip-path="url(#p19366d54c2)" style="fill: none; stroke: #b0b0b0; stroke-opacity: 0.3; stroke-width: 0.8; stroke-linecap: square"/>
     </g>
     <g id="line2d_56">
      <g>
       <use xlink:href="#maf321f0fd6" x="1113.408068" y="386.918125" style="stroke: #000000; stroke-width: 0.8"/>
      </g>
     </g>
     <g id="text_31">
      <!-- 100 -->
      <g transform="translate(1103.864318 401.516562) scale(0.1 -0.1)">
       <use xlink:href="#DejaVuSans-31"/>
       <use xlink:href="#DejaVuSans-30" x="63.623047"/>
       <use xlink:href="#DejaVuSans-30" x="127.246094"/>
      </g>
     </g>
    </g>
    <g id="text_32">
     <!-- Communication Rounds -->
     <g transform="translate(816.353594 415.194687) scale(0.1 -0.1)">
      <use xlink:href="#DejaVuSans-43"/>
      <use xlink:href="#DejaVuSans-6f" x="69.824219"/>
      <use xlink:href="#DejaVuSans-6d" x="131.005859"/>
      <use xlink:href="#DejaVuSans-6d" x="228.417969"/>
      <use xlink:href="#DejaVuSans-75" x="325.830078"/>
      <use xlink:href="#DejaVuSans-6e" x="389.208984"/>
      <use xlink:href="#DejaVuSans-69" x="452.587891"/>
      <use xlink:href="#DejaVuSans-63" x="480.371094"/>
      <use xlink:href="#DejaVuSans-61" x="535.351562"/>
      <use xlink:href="#DejaVuSans-74" x="596.630859"/>
      <use xlink:href="#DejaVuSans-69" x="635.839844"/>
      <use xlink:href="#DejaVuSans-6f" x="663.623047"/>
      <use xlink:href="#DejaVuSans-6e" x="724.804688"/>
      <use xlink:href="#DejaVuSans-20" x="788.183594"/>
      <use xlink:href="#DejaVuSans-52" x="819.970703"/>
      <use xlink:href="#DejaVuSans-6f" x="884.953125"/>
      <use xlink:href="#DejaVuSans-75" x="946.134766"/>
      <use xlink:href="#DejaVuSans-6e" x="1009.513672"/>
      <use xlink:href="#DejaVuSans-64" x="1072.892578"/>
      <use xlink:href="#DejaVuSans-73" x="1136.369141"/>
     </g>
    </g>
   </g>
   <g id="matplotlib.axis_4">
    <g id="ytick_10">
     <g id="line2d_57">
      <path d="M 614.38125 375.691312 
L 1137.17125 375.691312 
" clip-path="url(#p19366d54c2)" style="fill: none; stroke: #b0b0b0; stroke-opacity: 0.3; stroke-width: 0.8; stroke-linecap: square"/>
     </g>
     <g id="line2d_58">
      <g>
       <use xlink:href="#mbe2805100b" x="614.38125" y="375.691312" style="stroke: #000000; stroke-width: 0.8"/>
      </g>
     </g>
     <g id="text_33">
      <!-- 0.0 -->
      <g transform="translate(591.478125 379.490531) scale(0.1 -0.1)">
       <use xlink:href="#DejaVuSans-30"/>
       <use xlink:href="#DejaVuSans-2e" x="63.623047"/>
       <use xlink:href="#DejaVuSans-30" x="95.410156"/>
      </g>
     </g>
    </g>
    <g id="ytick_11">
     <g id="line2d_59">
      <path d="M 614.38125 327.969188 
L 1137.17125 327.969188 
" clip-path="url(#p19366d54c2)" style="fill: none; stroke: #b0b0b0; stroke-opacity: 0.3; stroke-width: 0.8; stroke-linecap: square"/>
     </g>
     <g id="line2d_60">
      <g>
       <use xlink:href="#mbe2805100b" x="614.38125" y="327.969188" style="stroke: #000000; stroke-width: 0.8"/>
      </g>
     </g>
     <g id="text_34">
      <!-- 0.1 -->
      <g transform="translate(591.478125 331.768407) scale(0.1 -0.1)">
       <use xlink:href="#DejaVuSans-30"/>
       <use xlink:href="#DejaVuSans-2e" x="63.623047"/>
       <use xlink:href="#DejaVuSans-31" x="95.410156"/>
      </g>
     </g>
    </g>
    <g id="ytick_12">
     <g id="line2d_61">
      <path d="M 614.38125 280.247064 
L 1137.17125 280.247064 
" clip-path="url(#p19366d54c2)" style="fill: none; stroke: #b0b0b0; stroke-opacity: 0.3; stroke-width: 0.8; stroke-linecap: square"/>
     </g>
     <g id="line2d_62">
      <g>
       <use xlink:href="#mbe2805100b" x="614.38125" y="280.247064" style="stroke: #000000; stroke-width: 0.8"/>
      </g>
     </g>
     <g id="text_35">
      <!-- 0.2 -->
      <g transform="translate(591.478125 284.046283) scale(0.1 -0.1)">
       <use xlink:href="#DejaVuSans-30"/>
       <use xlink:href="#DejaVuSans-2e" x="63.623047"/>
       <use xlink:href="#DejaVuSans-32" x="95.410156"/>
      </g>
     </g>
    </g>
    <g id="ytick_13">
     <g id="line2d_63">
      <path d="M 614.38125 232.524939 
L 1137.17125 232.524939 
" clip-path="url(#p19366d54c2)" style="fill: none; stroke: #b0b0b0; stroke-opacity: 0.3; stroke-width: 0.8; stroke-linecap: square"/>
     </g>
     <g id="line2d_64">
      <g>
       <use xlink:href="#mbe2805100b" x="614.38125" y="232.524939" style="stroke: #000000; stroke-width: 0.8"/>
      </g>
     </g>
     <g id="text_36">
      <!-- 0.3 -->
      <g transform="translate(591.478125 236.324158) scale(0.1 -0.1)">
       <use xlink:href="#DejaVuSans-30"/>
       <use xlink:href="#DejaVuSans-2e" x="63.623047"/>
       <use xlink:href="#DejaVuSans-33" x="95.410156"/>
      </g>
     </g>
    </g>
    <g id="ytick_14">
     <g id="line2d_65">
      <path d="M 614.38125 184.802815 
L 1137.17125 184.802815 
" clip-path="url(#p19366d54c2)" style="fill: none; stroke: #b0b0b0; stroke-opacity: 0.3; stroke-width: 0.8; stroke-linecap: square"/>
     </g>
     <g id="line2d_66">
      <g>
       <use xlink:href="#mbe2805100b" x="614.38125" y="184.802815" style="stroke: #000000; stroke-width: 0.8"/>
      </g>
     </g>
     <g id="text_37">
      <!-- 0.4 -->
      <g transform="translate(591.478125 188.602034) scale(0.1 -0.1)">
       <use xlink:href="#DejaVuSans-30"/>
       <use xlink:href="#DejaVuSans-2e" x="63.623047"/>
       <use xlink:href="#DejaVuSans-34" x="95.410156"/>
      </g>
     </g>
    </g>
    <g id="ytick_15">
     <g id="line2d_67">
      <path d="M 614.38125 137.080691 
L 1137.17125 137.080691 
" clip-path="url(#p19366d54c2)" style="fill: none; stroke: #b0b0b0; stroke-opacity: 0.3; stroke-width: 0.8; stroke-linecap: square"/>
     </g>
     <g id="line2d_68">
      <g>
       <use xlink:href="#mbe2805100b" x="614.38125" y="137.080691" style="stroke: #000000; stroke-width: 0.8"/>
      </g>
     </g>
     <g id="text_38">
      <!-- 0.5 -->
      <g transform="translate(591.478125 140.87991) scale(0.1 -0.1)">
       <use xlink:href="#DejaVuSans-30"/>
       <use xlink:href="#DejaVuSans-2e" x="63.623047"/>
       <use xlink:href="#DejaVuSans-35" x="95.410156"/>
      </g>
     </g>
    </g>
    <g id="ytick_16">
     <g id="line2d_69">
      <path d="M 614.38125 89.358567 
L 1137.17125 89.358567 
" clip-path="url(#p19366d54c2)" style="fill: none; stroke: #b0b0b0; stroke-opacity: 0.3; stroke-width: 0.8; stroke-linecap: square"/>
     </g>
     <g id="line2d_70">
      <g>
       <use xlink:href="#mbe2805100b" x="614.38125" y="89.358567" style="stroke: #000000; stroke-width: 0.8"/>
      </g>
     </g>
     <g id="text_39">
      <!-- 0.6 -->
      <g transform="translate(591.478125 93.157785) scale(0.1 -0.1)">
       <use xlink:href="#DejaVuSans-30"/>
       <use xlink:href="#DejaVuSans-2e" x="63.623047"/>
       <use xlink:href="#DejaVuSans-36" x="95.410156"/>
      </g>
     </g>
    </g>
    <g id="ytick_17">
     <g id="line2d_71">
      <path d="M 614.38125 41.636442 
L 1137.17125 41.636442 
" clip-path="url(#p19366d54c2)" style="fill: none; stroke: #b0b0b0; stroke-opacity: 0.3; stroke-width: 0.8; stroke-linecap: square"/>
     </g>
     <g id="line2d_72">
      <g>
       <use xlink:href="#mbe2805100b" x="614.38125" y="41.636442" style="stroke: #000000; stroke-width: 0.8"/>
      </g>
     </g>
     <g id="text_40">
      <!-- 0.7 -->
      <g transform="translate(591.478125 45.435661) scale(0.1 -0.1)">
       <use xlink:href="#DejaVuSans-30"/>
       <use xlink:href="#DejaVuSans-2e" x="63.623047"/>
       <use xlink:href="#DejaVuSans-37" x="95.410156"/>
      </g>
     </g>
    </g>
    <g id="text_41">
     <!-- Global F1 Score -->
     <g transform="translate(585.398438 243.805625) rotate(-90) scale(0.1 -0.1)">
      <use xlink:href="#DejaVuSans-47"/>
      <use xlink:href="#DejaVuSans-6c" x="77.490234"/>
      <use xlink:href="#DejaVuSans-6f" x="105.273438"/>
      <use xlink:href="#DejaVuSans-62" x="166.455078"/>
      <use xlink:href="#DejaVuSans-61" x="229.931641"/>
      <use xlink:href="#DejaVuSans-6c" x="291.210938"/>
      <use xlink:href="#DejaVuSans-20" x="318.994141"/>
      <use xlink:href="#DejaVuSans-46" x="350.78125"/>
      <use xlink:href="#DejaVuSans-31" x="408.300781"/>
      <use xlink:href="#DejaVuSans-20" x="471.923828"/>
      <use xlink:href="#DejaVuSans-53" x="503.710938"/>
      <use xlink:href="#DejaVuSans-63" x="567.1875"/>
      <use xlink:href="#DejaVuSans-6f" x="622.167969"/>
      <use xlink:href="#DejaVuSans-72" x="683.349609"/>
      <use xlink:href="#DejaVuSans-65" x="722.212891"/>
     </g>
    </g>
   </g>
   <g id="line2d_73">
    <path d="M 638.144432 325.834682 
L 642.945075 317.117887 
L 647.745717 304.233418 
L 652.54636 293.797071 
L 657.347003 279.968777 
L 662.147646 262.249748 
L 666.948289 247.208928 
L 671.748931 228.901451 
L 676.549574 213.417712 
L 681.350217 198.518165 
L 686.15086 180.540022 
L 690.951503 170.568976 
L 695.752145 157.769298 
L 700.552788 146.277447 
L 705.353431 138.007869 
L 710.154074 128.942768 
L 714.954716 120.810892 
L 719.755359 111.845446 
L 724.556002 104.494235 
L 729.356645 99.832346 
L 734.157288 94.569459 
L 738.95793 89.939685 
L 743.758573 86.444713 
L 748.559216 82.630833 
L 753.359859 79.515811 
L 758.160502 75.553282 
L 762.961144 71.950569 
L 767.761787 68.63249 
L 772.56243 65.361146 
L 777.363073 62.858782 
L 782.163716 60.286005 
L 786.964358 57.840481 
L 791.765001 56.173944 
L 796.565644 54.588463 
L 801.366287 53.185706 
L 806.16693 52.085948 
L 810.967572 51.132242 
L 815.768215 50.414578 
L 820.568858 49.600953 
L 825.369501 49.066001 
L 830.170143 48.61815 
L 834.970786 48.116545 
L 839.771429 47.666567 
L 844.572072 47.08227 
L 849.372715 46.584963 
L 854.173357 46.160584 
L 858.974 45.795092 
L 863.774643 45.482555 
L 868.575286 45.137564 
L 873.375929 44.77949 
L 878.176571 44.44227 
L 882.977214 44.137491 
L 887.777857 43.811904 
L 892.5785 43.406742 
L 897.379143 42.986091 
L 902.179785 42.453914 
L 906.980428 41.92648 
L 911.781071 41.591355 
L 916.581714 41.371113 
L 921.382357 41.200885 
L 926.182999 41.060201 
L 930.983642 40.879596 
L 935.784285 40.77821 
L 940.584928 40.728155 
L 945.38557 40.667481 
L 950.186213 40.577022 
L 954.986856 40.498767 
L 959.787499 40.450372 
L 964.588142 40.362343 
L 969.388784 40.302505 
L 974.189427 40.242191 
L 978.99007 40.161312 
L 983.790713 40.095336 
L 988.591356 40.034849 
L 993.391998 39.948678 
L 998.192641 39.904552 
L 1002.993284 39.852861 
L 1007.793927 39.819091 
L 1012.59457 39.792682 
L 1017.395212 39.768692 
L 1022.195855 39.737457 
L 1026.996498 39.698716 
L 1031.797141 39.681489 
L 1036.597784 39.637124 
L 1041.398426 39.599519 
L 1046.199069 39.569151 
L 1050.999712 39.548358 
L 1055.800355 39.519995 
L 1060.600997 39.494045 
L 1065.40164 39.481245 
L 1070.202283 39.466039 
L 1075.002926 39.462396 
L 1079.803569 39.443202 
L 1084.604211 39.416852 
L 1089.404854 39.409634 
L 1094.205497 39.384462 
L 1099.00614 39.369268 
L 1103.806783 39.360879 
L 1108.607425 39.356069 
L 1113.408068 39.347682 
" clip-path="url(#p19366d54c2)" style="fill: none; stroke: #808080; stroke-width: 2; stroke-linecap: square"/>
   </g>
   <g id="line2d_74">
    <path d="M 638.144432 366.088248 
L 642.945075 368.891791 
L 647.745717 369.29057 
L 652.54636 367.360574 
L 657.347003 366.98694 
L 662.147646 364.702607 
L 666.948289 362.17142 
L 671.748931 357.018659 
L 676.549574 348.326258 
L 681.350217 340.371656 
L 686.15086 338.059255 
L 690.951503 331.971031 
L 695.752145 330.388214 
L 700.552788 325.844556 
L 705.353431 317.280074 
L 710.154074 310.916632 
L 714.954716 303.714071 
L 719.755359 293.487722 
L 724.556002 289.683637 
L 729.356645 285.776412 
L 734.157288 280.362351 
L 738.95793 277.789449 
L 743.758573 274.951357 
L 748.559216 266.530622 
L 753.359859 259.059894 
L 758.160502 254.755165 
L 762.961144 255.007386 
L 767.761787 251.738498 
L 772.56243 245.428467 
L 777.363073 242.781006 
L 782.163716 226.939208 
L 786.964358 226.551117 
L 791.765001 219.638918 
L 796.565644 208.146323 
L 801.366287 216.626643 
L 806.16693 202.303633 
L 810.967572 203.353037 
L 815.768215 193.084677 
L 820.568858 187.688499 
L 825.369501 184.442237 
L 830.170143 170.52576 
L 834.970786 162.562615 
L 839.771429 159.028148 
L 844.572072 157.33126 
L 849.372715 136.809512 
L 854.173357 138.707123 
L 858.974 131.412074 
L 863.774643 124.059951 
L 868.575286 124.359524 
L 873.375929 111.387746 
L 878.176571 106.570701 
L 882.977214 101.142572 
L 887.777857 101.822904 
L 892.5785 96.908499 
L 897.379143 90.117501 
L 902.179785 86.812668 
L 906.980428 87.019896 
L 911.781071 78.363167 
L 916.581714 75.035334 
L 921.382357 75.147513 
L 926.182999 67.436589 
L 930.983642 67.668667 
L 935.784285 64.416133 
L 940.584928 61.632239 
L 945.38557 61.535262 
L 950.186213 58.636169 
L 954.986856 58.630519 
L 959.787499 58.322166 
L 964.588142 57.680645 
L 969.388784 54.465563 
L 974.189427 52.668285 
L 978.99007 51.913694 
L 983.790713 49.674376 
L 988.591356 49.412905 
L 993.391998 47.653554 
L 998.192641 48.029383 
L 1002.993284 47.087615 
L 1007.793927 45.192109 
L 1012.59457 46.478044 
L 1017.395212 46.869211 
L 1022.195855 45.484717 
L 1026.996498 45.570292 
L 1031.797141 46.993119 
L 1036.597784 47.598637 
L 1041.398426 45.525141 
L 1046.199069 44.312417 
L 1050.999712 41.902509 
L 1055.800355 41.37143 
L 1060.600997 40.929767 
L 1065.40164 40.958018 
L 1070.202283 40.635962 
L 1075.002926 40.836317 
L 1079.803569 40.564486 
L 1084.604211 40.040697 
L 1089.404854 40.181871 
L 1094.205497 39.990322 
L 1099.00614 40.023748 
L 1103.806783 40.255688 
L 1108.607425 39.995592 
L 1113.408068 39.808072 
" clip-path="url(#p19366d54c2)" style="fill: none; stroke: #0000ff; stroke-width: 2; stroke-linecap: square"/>
   </g>
   <g id="line2d_75">
    <path d="M 638.144432 366.088248 
L 642.945075 368.891791 
L 647.745717 369.29057 
L 652.54636 367.360574 
L 657.347003 366.98694 
L 662.147646 364.702607 
L 666.948289 362.17142 
L 671.748931 357.018659 
L 676.549574 348.326258 
L 681.350217 340.371656 
L 686.15086 338.059255 
L 690.951503 331.971031 
L 695.752145 330.388214 
L 700.552788 325.844557 
L 705.353431 317.280074 
L 710.154074 310.916632 
L 714.954716 303.714071 
L 719.755359 293.487722 
L 724.556002 289.683637 
L 729.356645 285.532263 
L 734.157288 280.34411 
L 738.95793 277.831775 
L 743.758573 274.954693 
L 748.559216 266.513053 
L 753.359859 258.935502 
L 758.160502 254.360109 
L 762.961144 254.40191 
L 767.761787 251.132971 
L 772.56243 245.268947 
L 777.363073 242.87733 
L 782.163716 227.302623 
L 786.964358 226.443124 
L 791.765001 219.871745 
L 796.565644 209.312362 
L 801.366287 216.876209 
L 806.16693 202.855347 
L 810.967572 203.743583 
L 815.768215 192.504631 
L 820.568858 187.472546 
L 825.369501 187.970343 
L 830.170143 173.224335 
L 834.970786 169.694558 
L 839.771429 165.243029 
L 844.572072 164.666472 
L 849.372715 145.257608 
L 854.173357 141.574896 
L 858.974 135.811472 
L 863.774643 127.725823 
L 868.575286 130.379747 
L 873.375929 117.626218 
L 878.176571 113.973108 
L 882.977214 102.341467 
L 887.777857 97.808123 
L 892.5785 93.412786 
L 897.379143 87.081988 
L 902.179785 94.66085 
L 906.980428 89.861504 
L 911.781071 81.087384 
L 916.581714 82.879922 
L 921.382357 85.060258 
L 926.182999 75.535963 
L 930.983642 73.86838 
L 935.784285 69.84512 
L 940.584928 62.832849 
L 945.38557 61.988425 
L 950.186213 58.709598 
L 954.986856 59.513671 
L 959.787499 54.822901 
L 964.588142 55.932137 
L 969.388784 55.628108 
L 974.189427 54.341373 
L 978.99007 52.814711 
L 983.790713 51.450815 
L 988.591356 50.818914 
L 993.391998 49.970598 
L 998.192641 48.994862 
L 1002.993284 48.187939 
L 1007.793927 46.018818 
L 1012.59457 44.822858 
L 1017.395212 46.157005 
L 1022.195855 43.47097 
L 1026.996498 42.795793 
L 1031.797141 41.999171 
L 1036.597784 42.468916 
L 1041.398426 42.362109 
L 1046.199069 42.387739 
L 1050.999712 41.762506 
L 1055.800355 41.66155 
L 1060.600997 41.418669 
L 1065.40164 41.372485 
L 1070.202283 41.044877 
L 1075.002926 40.918091 
L 1079.803569 40.749406 
L 1084.604211 40.194655 
L 1089.404854 40.372215 
L 1094.205497 40.395955 
L 1099.00614 40.189511 
L 1103.806783 39.846477 
L 1108.607425 40.053076 
L 1113.408068 39.828276 
" clip-path="url(#p19366d54c2)" style="fill: none; stroke: #00ffff; stroke-width: 2; stroke-linecap: square"/>
   </g>
   <g id="line2d_76">
    <path d="M 638.144432 358.550537 
L 642.945075 352.176369 
L 647.745717 343.180997 
L 652.54636 331.765555 
L 657.347003 319.70349 
L 662.147646 300.104565 
L 666.948289 281.320469 
L 671.748931 261.950536 
L 676.549574 241.109708 
L 681.350217 220.135139 
L 686.15086 200.758993 
L 690.951503 183.475005 
L 695.752145 168.060986 
L 700.552788 156.168114 
L 705.353431 145.875818 
L 710.154074 137.169406 
L 714.954716 131.217427 
L 719.755359 125.898442 
L 724.556002 121.328081 
L 729.356645 115.757862 
L 734.157288 111.356847 
L 738.95793 107.958364 
L 743.758573 105.006632 
L 748.559216 102.364708 
L 753.359859 100.358397 
L 758.160502 98.652493 
L 762.961144 97.089902 
L 767.761787 95.827419 
L 772.56243 94.658728 
L 777.363073 93.638572 
L 782.163716 92.869122 
L 786.964358 92.289226 
L 791.765001 91.670086 
L 796.565644 90.939506 
L 801.366287 90.211307 
L 806.16693 89.652595 
L 810.967572 88.9015 
L 815.768215 88.278465 
L 820.568858 87.706358 
L 825.369501 87.236637 
L 830.170143 86.603704 
L 834.970786 86.188952 
L 839.771429 85.949464 
L 844.572072 85.546842 
L 849.372715 85.16721 
L 854.173357 84.732637 
L 858.974 84.262246 
L 863.774643 83.906323 
L 868.575286 83.295704 
L 873.375929 82.778849 
L 878.176571 82.242271 
L 882.977214 81.652791 
L 887.777857 80.934686 
L 892.5785 80.142755 
L 897.379143 79.814937 
L 902.179785 79.605431 
L 906.980428 79.292236 
L 911.781071 78.887852 
L 916.581714 78.458117 
L 921.382357 78.196266 
L 926.182999 77.768456 
L 930.983642 77.411609 
L 935.784285 77.228833 
L 940.584928 76.844794 
L 945.38557 76.225608 
L 950.186213 75.84462 
L 954.986856 75.567354 
L 959.787499 75.297653 
L 964.588142 75.006484 
L 969.388784 74.730873 
L 974.189427 74.461977 
L 978.99007 74.224673 
L 983.790713 74.073062 
L 988.591356 73.895077 
L 993.391998 73.663425 
L 998.192641 73.383157 
L 1002.993284 73.145702 
L 1007.793927 72.902443 
L 1012.59457 72.69671 
L 1017.395212 72.456309 
L 1022.195855 72.280118 
L 1026.996498 72.114824 
L 1031.797141 72.013994 
L 1036.597784 71.828932 
L 1041.398426 71.583471 
L 1046.199069 71.376958 
L 1050.999712 71.179145 
L 1055.800355 70.963799 
L 1060.600997 70.700888 
L 1065.40164 70.399893 
L 1070.202283 70.159228 
L 1075.002926 69.951189 
L 1079.803569 69.765598 
L 1084.604211 69.569546 
L 1089.404854 69.366663 
L 1094.205497 69.228995 
L 1099.00614 69.07854 
L 1103.806783 68.913503 
L 1108.607425 68.779989 
L 1113.408068 68.683944 
" clip-path="url(#p19366d54c2)" style="fill: none; stroke: #008000; stroke-width: 2; stroke-linecap: square"/>
   </g>
   <g id="line2d_77">
    <path d="M 638.144432 358.549847 
L 642.945075 353.861238 
L 647.745717 346.145884 
L 652.54636 335.961195 
L 657.347003 322.133006 
L 662.147646 306.82621 
L 666.948289 286.664086 
L 671.748931 271.191021 
L 676.549574 251.153178 
L 681.350217 233.400684 
L 686.15086 212.207696 
L 690.951503 193.292297 
L 695.752145 176.195237 
L 700.552788 165.126954 
L 705.353431 153.602152 
L 710.154074 145.603489 
L 714.954716 135.138334 
L 719.755359 127.970582 
L 724.556002 121.888377 
L 729.356645 116.453764 
L 734.157288 112.046954 
L 738.95793 109.187566 
L 743.758573 106.167147 
L 748.559216 103.341327 
L 753.359859 100.943733 
L 758.160502 99.209396 
L 762.961144 97.607297 
L 767.761787 96.358951 
L 772.56243 95.021628 
L 777.363073 93.836075 
L 782.163716 92.938132 
L 786.964358 92.014776 
L 791.765001 91.361862 
L 796.565644 90.467482 
L 801.366287 89.635603 
L 806.16693 88.728769 
L 810.967572 87.743177 
L 815.768215 87.140311 
L 820.568858 86.446778 
L 825.369501 85.63995 
L 830.170143 85.054224 
L 834.970786 84.613074 
L 839.771429 84.204853 
L 844.572072 83.890969 
L 849.372715 83.539267 
L 854.173357 83.106626 
L 858.974 82.643581 
L 863.774643 81.938093 
L 868.575286 80.975023 
L 873.375929 80.241206 
L 878.176571 78.832311 
L 882.977214 78.112914 
L 887.777857 77.813554 
L 892.5785 77.578673 
L 897.379143 77.253678 
L 902.179785 76.970066 
L 906.980428 76.571793 
L 911.781071 76.243476 
L 916.581714 75.55995 
L 921.382357 75.212038 
L 926.182999 74.862187 
L 930.983642 74.536593 
L 935.784285 74.220351 
L 940.584928 73.884362 
L 945.38557 73.663402 
L 950.186213 73.460491 
L 954.986856 73.221859 
L 959.787499 73.001367 
L 964.588142 72.806884 
L 969.388784 72.568969 
L 974.189427 72.343188 
L 978.99007 72.162813 
L 983.790713 71.949344 
L 988.591356 71.788101 
L 993.391998 71.684318 
L 998.192641 71.559682 
L 1002.993284 71.210086 
L 1007.793927 70.91902 
L 1012.59457 70.729866 
L 1017.395212 70.53581 
L 1022.195855 70.223472 
L 1026.996498 69.955456 
L 1031.797141 69.650155 
L 1036.597784 69.341533 
L 1041.398426 69.089411 
L 1046.199069 68.966558 
L 1050.999712 68.843721 
L 1055.800355 68.65374 
L 1060.600997 68.474974 
L 1065.40164 68.326505 
L 1070.202283 68.175132 
L 1075.002926 68.017126 
L 1079.803569 67.862894 
L 1084.604211 67.721004 
L 1089.404854 67.466087 
L 1094.205497 67.165894 
L 1099.00614 66.836602 
L 1103.806783 66.500427 
L 1108.607425 66.219113 
L 1113.408068 65.950752 
" clip-path="url(#p19366d54c2)" style="fill: none; stroke: #ffa500; stroke-width: 2; stroke-linecap: square"/>
   </g>
   <g id="line2d_78">
    <path d="M 638.144432 300.242234 
L 642.945075 271.046281 
L 647.745717 240.754435 
L 652.54636 208.945037 
L 657.347003 184.517463 
L 662.147646 149.523329 
L 666.948289 118.042251 
L 671.748931 92.680133 
L 676.549574 67.058813 
L 681.350217 50.937417 
L 686.15086 43.727462 
L 690.951503 41.383283 
L 695.752145 40.277528 
L 700.552788 39.771785 
L 705.353431 39.381565 
L 710.154074 39.287648 
L 714.954716 39.227162 
L 719.755359 39.077183 
L 724.556002 38.990069 
L 729.356645 38.938645 
L 734.157288 38.90559 
L 738.95793 38.893247 
L 743.758573 38.890852 
L 748.559216 38.893614 
L 753.359859 38.89516 
L 758.160502 38.89516 
L 762.961144 38.89516 
L 767.761787 38.89516 
L 772.56243 38.89516 
L 777.363073 38.89516 
L 782.163716 38.89516 
L 786.964358 38.89516 
L 791.765001 38.89516 
L 796.565644 38.89516 
L 801.366287 38.89516 
L 806.16693 38.89516 
L 810.967572 38.89516 
L 815.768215 38.89516 
L 820.568858 38.89516 
L 825.369501 38.89516 
L 830.170143 38.89516 
L 834.970786 38.89516 
L 839.771429 38.89516 
L 844.572072 38.89516 
L 849.372715 38.89516 
L 854.173357 38.89516 
L 858.974 38.89516 
L 863.774643 38.89516 
L 868.575286 38.89516 
L 873.375929 38.89516 
L 878.176571 38.89516 
L 882.977214 38.89516 
L 887.777857 38.89516 
L 892.5785 38.89516 
L 897.379143 38.89516 
L 902.179785 38.89516 
L 906.980428 38.89516 
L 911.781071 38.89516 
L 916.581714 38.89516 
L 921.382357 38.89516 
L 926.182999 38.89516 
L 930.983642 38.89516 
L 935.784285 38.89516 
L 940.584928 38.89516 
L 945.38557 38.89516 
L 950.186213 38.89516 
L 954.986856 38.89516 
L 959.787499 38.89516 
L 964.588142 38.89516 
L 969.388784 38.89516 
L 974.189427 38.89516 
L 978.99007 38.89516 
L 983.790713 38.89516 
L 988.591356 38.89516 
L 993.391998 38.89516 
L 998.192641 38.89516 
L 1002.993284 38.89516 
L 1007.793927 38.89516 
L 1012.59457 38.89516 
L 1017.395212 38.89516 
L 1022.195855 38.893576 
L 1026.996498 38.893576 
L 1031.797141 38.893576 
L 1036.597784 38.893576 
L 1041.398426 38.893576 
L 1046.199069 38.893576 
L 1050.999712 38.893576 
L 1055.800355 38.893576 
L 1060.600997 38.895565 
L 1065.40164 38.903523 
L 1070.202283 38.905512 
L 1075.002926 38.907502 
L 1079.803569 38.91148 
L 1084.604211 38.915459 
L 1089.404854 38.915865 
L 1094.205497 38.921834 
L 1099.00614 38.92423 
L 1103.806783 38.932188 
L 1108.607425 38.938158 
L 1113.408068 38.940147 
" clip-path="url(#p19366d54c2)" style="fill: none; stroke: #ff0000; stroke-width: 2; stroke-linecap: square"/>
   </g>
   <g id="line2d_79">
    <path d="M 638.144432 367.470774 
L 642.945075 369.90048 
L 647.745717 370.345398 
L 652.54636 368.989706 
L 657.347003 370.249968 
L 662.147646 368.524231 
L 666.948289 369.440962 
L 671.748931 368.76485 
L 676.549574 368.205154 
L 681.350217 367.263203 
L 686.15086 364.097993 
L 690.951503 363.790606 
L 695.752145 361.663849 
L 700.552788 357.740696 
L 705.353431 353.151703 
L 710.154074 346.577236 
L 714.954716 343.058797 
L 719.755359 334.894252 
L 724.556002 332.856164 
L 729.356645 326.098982 
L 734.157288 322.41578 
L 738.95793 314.778343 
L 743.758573 312.632974 
L 748.559216 304.393625 
L 753.359859 300.690254 
L 758.160502 300.596282 
L 762.961144 299.504296 
L 767.761787 298.726833 
L 772.56243 295.670307 
L 777.363073 292.564515 
L 782.163716 293.801539 
L 786.964358 294.356563 
L 791.765001 293.79693 
L 796.565644 286.049935 
L 801.366287 290.670137 
L 806.16693 287.472505 
L 810.967572 282.982918 
L 815.768215 283.151206 
L 820.568858 281.167965 
L 825.369501 287.082341 
L 830.170143 283.070355 
L 834.970786 274.262248 
L 839.771429 263.75374 
L 844.572072 267.320484 
L 849.372715 262.324122 
L 854.173357 263.729144 
L 858.974 264.979254 
L 863.774643 265.473814 
L 868.575286 262.645004 
L 873.375929 260.385859 
L 878.176571 258.222117 
L 882.977214 258.669422 
L 887.777857 254.827861 
L 892.5785 254.554203 
L 897.379143 257.860237 
L 902.179785 266.185035 
L 906.980428 255.474277 
L 911.781071 259.948946 
L 916.581714 254.872834 
L 921.382357 255.466932 
L 926.182999 253.726412 
L 930.983642 252.767472 
L 935.784285 248.324563 
L 940.584928 255.025347 
L 945.38557 249.968436 
L 950.186213 246.646055 
L 954.986856 246.733182 
L 959.787499 241.610949 
L 964.588142 238.604653 
L 969.388784 238.499542 
L 974.189427 234.716418 
L 978.99007 221.603322 
L 983.790713 215.876953 
L 988.591356 208.746232 
L 993.391998 201.747958 
L 998.192641 197.499558 
L 1002.993284 186.804138 
L 1007.793927 182.799567 
L 1012.59457 178.870578 
L 1017.395212 168.895452 
L 1022.195855 161.472532 
L 1026.996498 156.880718 
L 1031.797141 142.578362 
L 1036.597784 143.208029 
L 1041.398426 148.250443 
L 1046.199069 142.912002 
L 1050.999712 138.733978 
L 1055.800355 140.073781 
L 1060.600997 138.090141 
L 1065.40164 131.103095 
L 1070.202283 133.950294 
L 1075.002926 131.199166 
L 1079.803569 133.139152 
L 1084.604211 128.032965 
L 1089.404854 124.557915 
L 1094.205497 129.9378 
L 1099.00614 122.162439 
L 1103.806783 119.036253 
L 1108.607425 115.66122 
L 1113.408068 115.177124 
" clip-path="url(#p19366d54c2)" style="fill: none; stroke: #ff00ff; stroke-width: 2; stroke-linecap: square"/>
   </g>
   <g id="patch_9">
    <path d="M 614.38125 386.918125 
L 614.38125 22.318125 
" style="fill: none; stroke: #000000; stroke-width: 0.8; stroke-linejoin: miter; stroke-linecap: square"/>
   </g>
   <g id="patch_10">
    <path d="M 1137.17125 386.918125 
L 1137.17125 22.318125 
" style="fill: none; stroke: #000000; stroke-width: 0.8; stroke-linejoin: miter; stroke-linecap: square"/>
   </g>
   <g id="patch_11">
    <path d="M 614.38125 386.918125 
L 1137.17125 386.918125 
" style="fill: none; stroke: #000000; stroke-width: 0.8; stroke-linejoin: miter; stroke-linecap: square"/>
   </g>
   <g id="patch_12">
    <path d="M 614.38125 22.318125 
L 1137.17125 22.318125 
" style="fill: none; stroke: #000000; stroke-width: 0.8; stroke-linejoin: miter; stroke-linecap: square"/>
   </g>
   <g id="text_42">
    <!-- F1 Score Comparison - opp -->
    <g transform="translate(794.699375 16.318125) scale(0.12 -0.12)">
     <use xlink:href="#DejaVuSans-46"/>
     <use xlink:href="#DejaVuSans-31" x="57.519531"/>
     <use xlink:href="#DejaVuSans-20" x="121.142578"/>
     <use xlink:href="#DejaVuSans-53" x="152.929688"/>
     <use xlink:href="#DejaVuSans-63" x="216.40625"/>
     <use xlink:href="#DejaVuSans-6f" x="271.386719"/>
     <use xlink:href="#DejaVuSans-72" x="332.568359"/>
     <use xlink:href="#DejaVuSans-65" x="371.431641"/>
     <use xlink:href="#DejaVuSans-20" x="432.955078"/>
     <use xlink:href="#DejaVuSans-43" x="464.742188"/>
     <use xlink:href="#DejaVuSans-6f" x="534.566406"/>
     <use xlink:href="#DejaVuSans-6d" x="595.748047"/>
     <use xlink:href="#DejaVuSans-70" x="693.160156"/>
     <use xlink:href="#DejaVuSans-61" x="756.636719"/>
     <use xlink:href="#DejaVuSans-72" x="817.916016"/>
     <use xlink:href="#DejaVuSans-69" x="859.029297"/>
     <use xlink:href="#DejaVuSans-73" x="886.8125"/>
     <use xlink:href="#DejaVuSans-6f" x="938.912109"/>
     <use xlink:href="#DejaVuSans-6e" x="1000.09375"/>
     <use xlink:href="#DejaVuSans-20" x="1063.472656"/>
     <use xlink:href="#DejaVuSans-2d" x="1095.259766"/>
     <use xlink:href="#DejaVuSans-20" x="1131.34375"/>
     <use xlink:href="#DejaVuSans-6f" x="1163.130859"/>
     <use xlink:href="#DejaVuSans-70" x="1224.3125"/>
     <use xlink:href="#DejaVuSans-70" x="1287.789062"/>
    </g>
   </g>
   <g id="legend_2">
    <g id="patch_13">
     <path d="M 1053.630625 381.918125 
L 1130.17125 381.918125 
Q 1132.17125 381.918125 1132.17125 379.918125 
L 1132.17125 278.17125 
Q 1132.17125 276.17125 1130.17125 276.17125 
L 1053.630625 276.17125 
Q 1051.630625 276.17125 1051.630625 278.17125 
L 1051.630625 379.918125 
Q 1051.630625 381.918125 1053.630625 381.918125 
z
" style="fill: #ffffff; opacity: 0.8; stroke: #cccccc; stroke-linejoin: miter"/>
    </g>
    <g id="line2d_80">
     <path d="M 1055.630625 284.269687 
L 1065.630625 284.269687 
L 1075.630625 284.269687 
" style="fill: none; stroke: #808080; stroke-width: 2; stroke-linecap: square"/>
    </g>
    <g id="text_43">
     <!-- Single -->
     <g transform="translate(1083.630625 287.769687) scale(0.1 -0.1)">
      <use xlink:href="#DejaVuSans-53"/>
      <use xlink:href="#DejaVuSans-69" x="63.476562"/>
      <use xlink:href="#DejaVuSans-6e" x="91.259766"/>
      <use xlink:href="#DejaVuSans-67" x="154.638672"/>
      <use xlink:href="#DejaVuSans-6c" x="218.115234"/>
      <use xlink:href="#DejaVuSans-65" x="245.898438"/>
     </g>
    </g>
    <g id="line2d_81">
     <path d="M 1055.630625 298.947812 
L 1065.630625 298.947812 
L 1075.630625 298.947812 
" style="fill: none; stroke: #0000ff; stroke-width: 2; stroke-linecap: square"/>
    </g>
    <g id="text_44">
     <!-- FedAvg -->
     <g transform="translate(1083.630625 302.447812) scale(0.1 -0.1)">
      <use xlink:href="#DejaVuSans-46"/>
      <use xlink:href="#DejaVuSans-65" x="52.019531"/>
      <use xlink:href="#DejaVuSans-64" x="113.542969"/>
      <use xlink:href="#DejaVuSans-41" x="177.019531"/>
      <use xlink:href="#DejaVuSans-76" x="239.552734"/>
      <use xlink:href="#DejaVuSans-67" x="298.732422"/>
     </g>
    </g>
    <g id="line2d_82">
     <path d="M 1055.630625 313.625937 
L 1065.630625 313.625937 
L 1075.630625 313.625937 
" style="fill: none; stroke: #00ffff; stroke-width: 2; stroke-linecap: square"/>
    </g>
    <g id="text_45">
     <!-- FedProx -->
     <g transform="translate(1083.630625 317.125937) scale(0.1 -0.1)">
      <use xlink:href="#DejaVuSans-46"/>
      <use xlink:href="#DejaVuSans-65" x="52.019531"/>
      <use xlink:href="#DejaVuSans-64" x="113.542969"/>
      <use xlink:href="#DejaVuSans-50" x="177.019531"/>
      <use xlink:href="#DejaVuSans-72" x="235.572266"/>
      <use xlink:href="#DejaVuSans-6f" x="274.435547"/>
      <use xlink:href="#DejaVuSans-78" x="332.492188"/>
     </g>
    </g>
    <g id="line2d_83">
     <path d="M 1055.630625 328.304062 
L 1065.630625 328.304062 
L 1075.630625 328.304062 
" style="fill: none; stroke: #008000; stroke-width: 2; stroke-linecap: square"/>
    </g>
    <g id="text_46">
     <!-- FedProto -->
     <g transform="translate(1083.630625 331.804062) scale(0.1 -0.1)">
      <use xlink:href="#DejaVuSans-46"/>
      <use xlink:href="#DejaVuSans-65" x="52.019531"/>
      <use xlink:href="#DejaVuSans-64" x="113.542969"/>
      <use xlink:href="#DejaVuSans-50" x="177.019531"/>
      <use xlink:href="#DejaVuSans-72" x="235.572266"/>
      <use xlink:href="#DejaVuSans-6f" x="274.435547"/>
      <use xlink:href="#DejaVuSans-74" x="335.617188"/>
      <use xlink:href="#DejaVuSans-6f" x="374.826172"/>
     </g>
    </g>
    <g id="line2d_84">
     <path d="M 1055.630625 342.982187 
L 1065.630625 342.982187 
L 1075.630625 342.982187 
" style="fill: none; stroke: #ffa500; stroke-width: 2; stroke-linecap: square"/>
    </g>
    <g id="text_47">
     <!-- FedMEKT -->
     <g transform="translate(1083.630625 346.482187) scale(0.1 -0.1)">
      <use xlink:href="#DejaVuSans-46"/>
      <use xlink:href="#DejaVuSans-65" x="52.019531"/>
      <use xlink:href="#DejaVuSans-64" x="113.542969"/>
      <use xlink:href="#DejaVuSans-4d" x="177.019531"/>
      <use xlink:href="#DejaVuSans-45" x="263.298828"/>
      <use xlink:href="#DejaVuSans-4b" x="326.482422"/>
      <use xlink:href="#DejaVuSans-54" x="384.308594"/>
     </g>
    </g>
    <g id="line2d_85">
     <path d="M 1055.630625 357.660312 
L 1065.630625 357.660312 
L 1075.630625 357.660312 
" style="fill: none; stroke: #ff0000; stroke-width: 2; stroke-linecap: square"/>
    </g>
    <g id="text_48">
     <!-- FedProp -->
     <g transform="translate(1083.630625 361.160312) scale(0.1 -0.1)">
      <use xlink:href="#DejaVuSans-46"/>
      <use xlink:href="#DejaVuSans-65" x="52.019531"/>
      <use xlink:href="#DejaVuSans-64" x="113.542969"/>
      <use xlink:href="#DejaVuSans-50" x="177.019531"/>
      <use xlink:href="#DejaVuSans-72" x="235.572266"/>
      <use xlink:href="#DejaVuSans-6f" x="274.435547"/>
      <use xlink:href="#DejaVuSans-70" x="335.617188"/>
     </g>
    </g>
    <g id="line2d_86">
     <path d="M 1055.630625 372.338437 
L 1065.630625 372.338437 
L 1075.630625 372.338437 
" style="fill: none; stroke: #ff00ff; stroke-width: 2; stroke-linecap: square"/>
    </g>
    <g id="text_49">
     <!-- FedDTG -->
     <g transform="translate(1083.630625 375.838437) scale(0.1 -0.1)">
      <use xlink:href="#DejaVuSans-46"/>
      <use xlink:href="#DejaVuSans-65" x="52.019531"/>
      <use xlink:href="#DejaVuSans-64" x="113.542969"/>
      <use xlink:href="#DejaVuSans-44" x="177.019531"/>
      <use xlink:href="#DejaVuSans-54" x="254.021484"/>
      <use xlink:href="#DejaVuSans-47" x="315.105469"/>
     </g>
    </g>
   </g>
  </g>
 </g>
 <defs>
  <clipPath id="p45b373e6fc">
   <rect x="43.78125" y="22.318125" width="522.79" height="364.6"/>
  </clipPath>
  <clipPath id="p19366d54c2">
   <rect x="614.38125" y="22.318125" width="522.79" height="364.6"/>
  </clipPath>
 </defs>
</svg>
