<?xml version="1.0" encoding="utf-8" standalone="no"?>
<!DOCTYPE svg PUBLIC "-//W3C//DTD SVG 1.1//EN"
  "http://www.w3.org/Graphics/SVG/1.1/DTD/svg11.dtd">
<svg xmlns:xlink="http://www.w3.org/1999/xlink" width="1144.46125pt" height="423.034375pt" viewBox="0 0 1144.46125 423.034375" xmlns="http://www.w3.org/2000/svg" version="1.1">
 <metadata>
  <rdf:RDF xmlns:dc="http://purl.org/dc/elements/1.1/" xmlns:cc="http://creativecommons.org/ns#" xmlns:rdf="http://www.w3.org/1999/02/22-rdf-syntax-ns#">
   <cc:Work>
    <dc:type rdf:resource="http://purl.org/dc/dcmitype/StillImage"/>
    <dc:date>2025-10-22T18:01:03.053148</dc:date>
    <dc:format>image/svg+xml</dc:format>
    <dc:creator>
     <cc:Agent>
      <dc:title>Matplotlib v3.9.4, https://matplotlib.org/</dc:title>
     </cc:Agent>
    </dc:creator>
   </cc:Work>
  </rdf:RDF>
 </metadata>
 <defs>
  <style type="text/css">*{stroke-linejoin: round; stroke-linecap: butt}</style>
 </defs>
 <g id="figure_1">
  <g id="patch_1">
   <path d="M 0 423.034375 
L 1144.46125 423.034375 
L 1144.46125 0 
L 0 0 
z
" style="fill: #ffffff"/>
  </g>
  <g id="axes_1">
   <g id="patch_2">
    <path d="M 43.78125 385.478125 
L 566.66125 385.478125 
L 566.66125 22.318125 
L 43.78125 22.318125 
z
" style="fill: #ffffff"/>
   </g>
   <g id="matplotlib.axis_1">
    <g id="xtick_1">
     <g id="line2d_1">
      <path d="M 62.747053 385.478125 
L 62.747053 22.318125 
" clip-path="url(#pabe1145bf7)" style="fill: none; stroke: #b0b0b0; stroke-opacity: 0.3; stroke-width: 0.8; stroke-linecap: square"/>
     </g>
     <g id="line2d_2">
      <defs>
       <path id="m643f2a6f61" d="M 0 0 
L 0 3.5 
" style="stroke: #000000; stroke-width: 0.8"/>
      </defs>
      <g>
       <use xlink:href="#m643f2a6f61" x="62.747053" y="385.478125" style="stroke: #000000; stroke-width: 0.8"/>
      </g>
     </g>
     <g id="text_1">
      <!-- 0 -->
      <g transform="translate(59.565803 400.076562) scale(0.1 -0.1)">
       <defs>
        <path id="DejaVuSans-30" d="M 2034 4250 
Q 1547 4250 1301 3770 
Q 1056 3291 1056 2328 
Q 1056 1369 1301 889 
Q 1547 409 2034 409 
Q 2525 409 2770 889 
Q 3016 1369 3016 2328 
Q 3016 3291 2770 3770 
Q 2525 4250 2034 4250 
z
M 2034 4750 
Q 2819 4750 3233 4129 
Q 3647 3509 3647 2328 
Q 3647 1150 3233 529 
Q 2819 -91 2034 -91 
Q 1250 -91 836 529 
Q 422 1150 422 2328 
Q 422 3509 836 4129 
Q 1250 4750 2034 4750 
z
" transform="scale(0.015625)"/>
       </defs>
       <use xlink:href="#DejaVuSans-30"/>
      </g>
     </g>
    </g>
    <g id="xtick_2">
     <g id="line2d_3">
      <path d="M 158.776438 385.478125 
L 158.776438 22.318125 
" clip-path="url(#pabe1145bf7)" style="fill: none; stroke: #b0b0b0; stroke-opacity: 0.3; stroke-width: 0.8; stroke-linecap: square"/>
     </g>
     <g id="line2d_4">
      <g>
       <use xlink:href="#m643f2a6f61" x="158.776438" y="385.478125" style="stroke: #000000; stroke-width: 0.8"/>
      </g>
     </g>
     <g id="text_2">
      <!-- 20 -->
      <g transform="translate(152.413938 400.076562) scale(0.1 -0.1)">
       <defs>
        <path id="DejaVuSans-32" d="M 1228 531 
L 3431 531 
L 3431 0 
L 469 0 
L 469 531 
Q 828 903 1448 1529 
Q 2069 2156 2228 2338 
Q 2531 2678 2651 2914 
Q 2772 3150 2772 3378 
Q 2772 3750 2511 3984 
Q 2250 4219 1831 4219 
Q 1534 4219 1204 4116 
Q 875 4013 500 3803 
L 500 4441 
Q 881 4594 1212 4672 
Q 1544 4750 1819 4750 
Q 2544 4750 2975 4387 
Q 3406 4025 3406 3419 
Q 3406 3131 3298 2873 
Q 3191 2616 2906 2266 
Q 2828 2175 2409 1742 
Q 1991 1309 1228 531 
z
" transform="scale(0.015625)"/>
       </defs>
       <use xlink:href="#DejaVuSans-32"/>
       <use xlink:href="#DejaVuSans-30" x="63.623047"/>
      </g>
     </g>
    </g>
    <g id="xtick_3">
     <g id="line2d_5">
      <path d="M 254.805823 385.478125 
L 254.805823 22.318125 
" clip-path="url(#pabe1145bf7)" style="fill: none; stroke: #b0b0b0; stroke-opacity: 0.3; stroke-width: 0.8; stroke-linecap: square"/>
     </g>
     <g id="line2d_6">
      <g>
       <use xlink:href="#m643f2a6f61" x="254.805823" y="385.478125" style="stroke: #000000; stroke-width: 0.8"/>
      </g>
     </g>
     <g id="text_3">
      <!-- 40 -->
      <g transform="translate(248.443323 400.076562) scale(0.1 -0.1)">
       <defs>
        <path id="DejaVuSans-34" d="M 2419 4116 
L 825 1625 
L 2419 1625 
L 2419 4116 
z
M 2253 4666 
L 3047 4666 
L 3047 1625 
L 3713 1625 
L 3713 1100 
L 3047 1100 
L 3047 0 
L 2419 0 
L 2419 1100 
L 313 1100 
L 313 1709 
L 2253 4666 
z
" transform="scale(0.015625)"/>
       </defs>
       <use xlink:href="#DejaVuSans-34"/>
       <use xlink:href="#DejaVuSans-30" x="63.623047"/>
      </g>
     </g>
    </g>
    <g id="xtick_4">
     <g id="line2d_7">
      <path d="M 350.835208 385.478125 
L 350.835208 22.318125 
" clip-path="url(#pabe1145bf7)" style="fill: none; stroke: #b0b0b0; stroke-opacity: 0.3; stroke-width: 0.8; stroke-linecap: square"/>
     </g>
     <g id="line2d_8">
      <g>
       <use xlink:href="#m643f2a6f61" x="350.835208" y="385.478125" style="stroke: #000000; stroke-width: 0.8"/>
      </g>
     </g>
     <g id="text_4">
      <!-- 60 -->
      <g transform="translate(344.472708 400.076562) scale(0.1 -0.1)">
       <defs>
        <path id="DejaVuSans-36" d="M 2113 2584 
Q 1688 2584 1439 2293 
Q 1191 2003 1191 1497 
Q 1191 994 1439 701 
Q 1688 409 2113 409 
Q 2538 409 2786 701 
Q 3034 994 3034 1497 
Q 3034 2003 2786 2293 
Q 2538 2584 2113 2584 
z
M 3366 4563 
L 3366 3988 
Q 3128 4100 2886 4159 
Q 2644 4219 2406 4219 
Q 1781 4219 1451 3797 
Q 1122 3375 1075 2522 
Q 1259 2794 1537 2939 
Q 1816 3084 2150 3084 
Q 2853 3084 3261 2657 
Q 3669 2231 3669 1497 
Q 3669 778 3244 343 
Q 2819 -91 2113 -91 
Q 1303 -91 875 529 
Q 447 1150 447 2328 
Q 447 3434 972 4092 
Q 1497 4750 2381 4750 
Q 2619 4750 2861 4703 
Q 3103 4656 3366 4563 
z
" transform="scale(0.015625)"/>
       </defs>
       <use xlink:href="#DejaVuSans-36"/>
       <use xlink:href="#DejaVuSans-30" x="63.623047"/>
      </g>
     </g>
    </g>
    <g id="xtick_5">
     <g id="line2d_9">
      <path d="M 446.864593 385.478125 
L 446.864593 22.318125 
" clip-path="url(#pabe1145bf7)" style="fill: none; stroke: #b0b0b0; stroke-opacity: 0.3; stroke-width: 0.8; stroke-linecap: square"/>
     </g>
     <g id="line2d_10">
      <g>
       <use xlink:href="#m643f2a6f61" x="446.864593" y="385.478125" style="stroke: #000000; stroke-width: 0.8"/>
      </g>
     </g>
     <g id="text_5">
      <!-- 80 -->
      <g transform="translate(440.502093 400.076562) scale(0.1 -0.1)">
       <defs>
        <path id="DejaVuSans-38" d="M 2034 2216 
Q 1584 2216 1326 1975 
Q 1069 1734 1069 1313 
Q 1069 891 1326 650 
Q 1584 409 2034 409 
Q 2484 409 2743 651 
Q 3003 894 3003 1313 
Q 3003 1734 2745 1975 
Q 2488 2216 2034 2216 
z
M 1403 2484 
Q 997 2584 770 2862 
Q 544 3141 544 3541 
Q 544 4100 942 4425 
Q 1341 4750 2034 4750 
Q 2731 4750 3128 4425 
Q 3525 4100 3525 3541 
Q 3525 3141 3298 2862 
Q 3072 2584 2669 2484 
Q 3125 2378 3379 2068 
Q 3634 1759 3634 1313 
Q 3634 634 3220 271 
Q 2806 -91 2034 -91 
Q 1263 -91 848 271 
Q 434 634 434 1313 
Q 434 1759 690 2068 
Q 947 2378 1403 2484 
z
M 1172 3481 
Q 1172 3119 1398 2916 
Q 1625 2713 2034 2713 
Q 2441 2713 2670 2916 
Q 2900 3119 2900 3481 
Q 2900 3844 2670 4047 
Q 2441 4250 2034 4250 
Q 1625 4250 1398 4047 
Q 1172 3844 1172 3481 
z
" transform="scale(0.015625)"/>
       </defs>
       <use xlink:href="#DejaVuSans-38"/>
       <use xlink:href="#DejaVuSans-30" x="63.623047"/>
      </g>
     </g>
    </g>
    <g id="xtick_6">
     <g id="line2d_11">
      <path d="M 542.893977 385.478125 
L 542.893977 22.318125 
" clip-path="url(#pabe1145bf7)" style="fill: none; stroke: #b0b0b0; stroke-opacity: 0.3; stroke-width: 0.8; stroke-linecap: square"/>
     </g>
     <g id="line2d_12">
      <g>
       <use xlink:href="#m643f2a6f61" x="542.893977" y="385.478125" style="stroke: #000000; stroke-width: 0.8"/>
      </g>
     </g>
     <g id="text_6">
      <!-- 100 -->
      <g transform="translate(533.350227 400.076562) scale(0.1 -0.1)">
       <defs>
        <path id="DejaVuSans-31" d="M 794 531 
L 1825 531 
L 1825 4091 
L 703 3866 
L 703 4441 
L 1819 4666 
L 2450 4666 
L 2450 531 
L 3481 531 
L 3481 0 
L 794 0 
L 794 531 
z
" transform="scale(0.015625)"/>
       </defs>
       <use xlink:href="#DejaVuSans-31"/>
       <use xlink:href="#DejaVuSans-30" x="63.623047"/>
       <use xlink:href="#DejaVuSans-30" x="127.246094"/>
      </g>
     </g>
    </g>
    <g id="text_7">
     <!-- Communication Rounds -->
     <g transform="translate(245.798594 413.754687) scale(0.1 -0.1)">
      <defs>
       <path id="DejaVuSans-43" d="M 4122 4306 
L 4122 3641 
Q 3803 3938 3442 4084 
Q 3081 4231 2675 4231 
Q 1875 4231 1450 3742 
Q 1025 3253 1025 2328 
Q 1025 1406 1450 917 
Q 1875 428 2675 428 
Q 3081 428 3442 575 
Q 3803 722 4122 1019 
L 4122 359 
Q 3791 134 3420 21 
Q 3050 -91 2638 -91 
Q 1578 -91 968 557 
Q 359 1206 359 2328 
Q 359 3453 968 4101 
Q 1578 4750 2638 4750 
Q 3056 4750 3426 4639 
Q 3797 4528 4122 4306 
z
" transform="scale(0.015625)"/>
       <path id="DejaVuSans-6f" d="M 1959 3097 
Q 1497 3097 1228 2736 
Q 959 2375 959 1747 
Q 959 1119 1226 758 
Q 1494 397 1959 397 
Q 2419 397 2687 759 
Q 2956 1122 2956 1747 
Q 2956 2369 2687 2733 
Q 2419 3097 1959 3097 
z
M 1959 3584 
Q 2709 3584 3137 3096 
Q 3566 2609 3566 1747 
Q 3566 888 3137 398 
Q 2709 -91 1959 -91 
Q 1206 -91 779 398 
Q 353 888 353 1747 
Q 353 2609 779 3096 
Q 1206 3584 1959 3584 
z
" transform="scale(0.015625)"/>
       <path id="DejaVuSans-6d" d="M 3328 2828 
Q 3544 3216 3844 3400 
Q 4144 3584 4550 3584 
Q 5097 3584 5394 3201 
Q 5691 2819 5691 2113 
L 5691 0 
L 5113 0 
L 5113 2094 
Q 5113 2597 4934 2840 
Q 4756 3084 4391 3084 
Q 3944 3084 3684 2787 
Q 3425 2491 3425 1978 
L 3425 0 
L 2847 0 
L 2847 2094 
Q 2847 2600 2669 2842 
Q 2491 3084 2119 3084 
Q 1678 3084 1418 2786 
Q 1159 2488 1159 1978 
L 1159 0 
L 581 0 
L 581 3500 
L 1159 3500 
L 1159 2956 
Q 1356 3278 1631 3431 
Q 1906 3584 2284 3584 
Q 2666 3584 2933 3390 
Q 3200 3197 3328 2828 
z
" transform="scale(0.015625)"/>
       <path id="DejaVuSans-75" d="M 544 1381 
L 544 3500 
L 1119 3500 
L 1119 1403 
Q 1119 906 1312 657 
Q 1506 409 1894 409 
Q 2359 409 2629 706 
Q 2900 1003 2900 1516 
L 2900 3500 
L 3475 3500 
L 3475 0 
L 2900 0 
L 2900 538 
Q 2691 219 2414 64 
Q 2138 -91 1772 -91 
Q 1169 -91 856 284 
Q 544 659 544 1381 
z
M 1991 3584 
L 1991 3584 
z
" transform="scale(0.015625)"/>
       <path id="DejaVuSans-6e" d="M 3513 2113 
L 3513 0 
L 2938 0 
L 2938 2094 
Q 2938 2591 2744 2837 
Q 2550 3084 2163 3084 
Q 1697 3084 1428 2787 
Q 1159 2491 1159 1978 
L 1159 0 
L 581 0 
L 581 3500 
L 1159 3500 
L 1159 2956 
Q 1366 3272 1645 3428 
Q 1925 3584 2291 3584 
Q 2894 3584 3203 3211 
Q 3513 2838 3513 2113 
z
" transform="scale(0.015625)"/>
       <path id="DejaVuSans-69" d="M 603 3500 
L 1178 3500 
L 1178 0 
L 603 0 
L 603 3500 
z
M 603 4863 
L 1178 4863 
L 1178 4134 
L 603 4134 
L 603 4863 
z
" transform="scale(0.015625)"/>
       <path id="DejaVuSans-63" d="M 3122 3366 
L 3122 2828 
Q 2878 2963 2633 3030 
Q 2388 3097 2138 3097 
Q 1578 3097 1268 2742 
Q 959 2388 959 1747 
Q 959 1106 1268 751 
Q 1578 397 2138 397 
Q 2388 397 2633 464 
Q 2878 531 3122 666 
L 3122 134 
Q 2881 22 2623 -34 
Q 2366 -91 2075 -91 
Q 1284 -91 818 406 
Q 353 903 353 1747 
Q 353 2603 823 3093 
Q 1294 3584 2113 3584 
Q 2378 3584 2631 3529 
Q 2884 3475 3122 3366 
z
" transform="scale(0.015625)"/>
       <path id="DejaVuSans-61" d="M 2194 1759 
Q 1497 1759 1228 1600 
Q 959 1441 959 1056 
Q 959 750 1161 570 
Q 1363 391 1709 391 
Q 2188 391 2477 730 
Q 2766 1069 2766 1631 
L 2766 1759 
L 2194 1759 
z
M 3341 1997 
L 3341 0 
L 2766 0 
L 2766 531 
Q 2569 213 2275 61 
Q 1981 -91 1556 -91 
Q 1019 -91 701 211 
Q 384 513 384 1019 
Q 384 1609 779 1909 
Q 1175 2209 1959 2209 
L 2766 2209 
L 2766 2266 
Q 2766 2663 2505 2880 
Q 2244 3097 1772 3097 
Q 1472 3097 1187 3025 
Q 903 2953 641 2809 
L 641 3341 
Q 956 3463 1253 3523 
Q 1550 3584 1831 3584 
Q 2591 3584 2966 3190 
Q 3341 2797 3341 1997 
z
" transform="scale(0.015625)"/>
       <path id="DejaVuSans-74" d="M 1172 4494 
L 1172 3500 
L 2356 3500 
L 2356 3053 
L 1172 3053 
L 1172 1153 
Q 1172 725 1289 603 
Q 1406 481 1766 481 
L 2356 481 
L 2356 0 
L 1766 0 
Q 1100 0 847 248 
Q 594 497 594 1153 
L 594 3053 
L 172 3053 
L 172 3500 
L 594 3500 
L 594 4494 
L 1172 4494 
z
" transform="scale(0.015625)"/>
       <path id="DejaVuSans-20" transform="scale(0.015625)"/>
       <path id="DejaVuSans-52" d="M 2841 2188 
Q 3044 2119 3236 1894 
Q 3428 1669 3622 1275 
L 4263 0 
L 3584 0 
L 2988 1197 
Q 2756 1666 2539 1819 
Q 2322 1972 1947 1972 
L 1259 1972 
L 1259 0 
L 628 0 
L 628 4666 
L 2053 4666 
Q 2853 4666 3247 4331 
Q 3641 3997 3641 3322 
Q 3641 2881 3436 2590 
Q 3231 2300 2841 2188 
z
M 1259 4147 
L 1259 2491 
L 2053 2491 
Q 2509 2491 2742 2702 
Q 2975 2913 2975 3322 
Q 2975 3731 2742 3939 
Q 2509 4147 2053 4147 
L 1259 4147 
z
" transform="scale(0.015625)"/>
       <path id="DejaVuSans-64" d="M 2906 2969 
L 2906 4863 
L 3481 4863 
L 3481 0 
L 2906 0 
L 2906 525 
Q 2725 213 2448 61 
Q 2172 -91 1784 -91 
Q 1150 -91 751 415 
Q 353 922 353 1747 
Q 353 2572 751 3078 
Q 1150 3584 1784 3584 
Q 2172 3584 2448 3432 
Q 2725 3281 2906 2969 
z
M 947 1747 
Q 947 1113 1208 752 
Q 1469 391 1925 391 
Q 2381 391 2643 752 
Q 2906 1113 2906 1747 
Q 2906 2381 2643 2742 
Q 2381 3103 1925 3103 
Q 1469 3103 1208 2742 
Q 947 2381 947 1747 
z
" transform="scale(0.015625)"/>
       <path id="DejaVuSans-73" d="M 2834 3397 
L 2834 2853 
Q 2591 2978 2328 3040 
Q 2066 3103 1784 3103 
Q 1356 3103 1142 2972 
Q 928 2841 928 2578 
Q 928 2378 1081 2264 
Q 1234 2150 1697 2047 
L 1894 2003 
Q 2506 1872 2764 1633 
Q 3022 1394 3022 966 
Q 3022 478 2636 193 
Q 2250 -91 1575 -91 
Q 1294 -91 989 -36 
Q 684 19 347 128 
L 347 722 
Q 666 556 975 473 
Q 1284 391 1588 391 
Q 1994 391 2212 530 
Q 2431 669 2431 922 
Q 2431 1156 2273 1281 
Q 2116 1406 1581 1522 
L 1381 1569 
Q 847 1681 609 1914 
Q 372 2147 372 2553 
Q 372 3047 722 3315 
Q 1072 3584 1716 3584 
Q 2034 3584 2315 3537 
Q 2597 3491 2834 3397 
z
" transform="scale(0.015625)"/>
      </defs>
      <use xlink:href="#DejaVuSans-43"/>
      <use xlink:href="#DejaVuSans-6f" x="69.824219"/>
      <use xlink:href="#DejaVuSans-6d" x="131.005859"/>
      <use xlink:href="#DejaVuSans-6d" x="228.417969"/>
      <use xlink:href="#DejaVuSans-75" x="325.830078"/>
      <use xlink:href="#DejaVuSans-6e" x="389.208984"/>
      <use xlink:href="#DejaVuSans-69" x="452.587891"/>
      <use xlink:href="#DejaVuSans-63" x="480.371094"/>
      <use xlink:href="#DejaVuSans-61" x="535.351562"/>
      <use xlink:href="#DejaVuSans-74" x="596.630859"/>
      <use xlink:href="#DejaVuSans-69" x="635.839844"/>
      <use xlink:href="#DejaVuSans-6f" x="663.623047"/>
      <use xlink:href="#DejaVuSans-6e" x="724.804688"/>
      <use xlink:href="#DejaVuSans-20" x="788.183594"/>
      <use xlink:href="#DejaVuSans-52" x="819.970703"/>
      <use xlink:href="#DejaVuSans-6f" x="884.953125"/>
      <use xlink:href="#DejaVuSans-75" x="946.134766"/>
      <use xlink:href="#DejaVuSans-6e" x="1009.513672"/>
      <use xlink:href="#DejaVuSans-64" x="1072.892578"/>
      <use xlink:href="#DejaVuSans-73" x="1136.369141"/>
     </g>
    </g>
   </g>
   <g id="matplotlib.axis_2">
    <g id="ytick_1">
     <g id="line2d_13">
      <path d="M 43.78125 374.627361 
L 566.66125 374.627361 
" clip-path="url(#pabe1145bf7)" style="fill: none; stroke: #b0b0b0; stroke-opacity: 0.3; stroke-width: 0.8; stroke-linecap: square"/>
     </g>
     <g id="line2d_14">
      <defs>
       <path id="mc6285a4265" d="M 0 0 
L -3.5 0 
" style="stroke: #000000; stroke-width: 0.8"/>
      </defs>
      <g>
       <use xlink:href="#mc6285a4265" x="43.78125" y="374.627361" style="stroke: #000000; stroke-width: 0.8"/>
      </g>
     </g>
     <g id="text_8">
      <!-- 0.0 -->
      <g transform="translate(20.878125 378.426579) scale(0.1 -0.1)">
       <defs>
        <path id="DejaVuSans-2e" d="M 684 794 
L 1344 794 
L 1344 0 
L 684 0 
L 684 794 
z
" transform="scale(0.015625)"/>
       </defs>
       <use xlink:href="#DejaVuSans-30"/>
       <use xlink:href="#DejaVuSans-2e" x="63.623047"/>
       <use xlink:href="#DejaVuSans-30" x="95.410156"/>
      </g>
     </g>
    </g>
    <g id="ytick_2">
     <g id="line2d_15">
      <path d="M 43.78125 332.409272 
L 566.66125 332.409272 
" clip-path="url(#pabe1145bf7)" style="fill: none; stroke: #b0b0b0; stroke-opacity: 0.3; stroke-width: 0.8; stroke-linecap: square"/>
     </g>
     <g id="line2d_16">
      <g>
       <use xlink:href="#mc6285a4265" x="43.78125" y="332.409272" style="stroke: #000000; stroke-width: 0.8"/>
      </g>
     </g>
     <g id="text_9">
      <!-- 0.1 -->
      <g transform="translate(20.878125 336.208491) scale(0.1 -0.1)">
       <use xlink:href="#DejaVuSans-30"/>
       <use xlink:href="#DejaVuSans-2e" x="63.623047"/>
       <use xlink:href="#DejaVuSans-31" x="95.410156"/>
      </g>
     </g>
    </g>
    <g id="ytick_3">
     <g id="line2d_17">
      <path d="M 43.78125 290.191183 
L 566.66125 290.191183 
" clip-path="url(#pabe1145bf7)" style="fill: none; stroke: #b0b0b0; stroke-opacity: 0.3; stroke-width: 0.8; stroke-linecap: square"/>
     </g>
     <g id="line2d_18">
      <g>
       <use xlink:href="#mc6285a4265" x="43.78125" y="290.191183" style="stroke: #000000; stroke-width: 0.8"/>
      </g>
     </g>
     <g id="text_10">
      <!-- 0.2 -->
      <g transform="translate(20.878125 293.990402) scale(0.1 -0.1)">
       <use xlink:href="#DejaVuSans-30"/>
       <use xlink:href="#DejaVuSans-2e" x="63.623047"/>
       <use xlink:href="#DejaVuSans-32" x="95.410156"/>
      </g>
     </g>
    </g>
    <g id="ytick_4">
     <g id="line2d_19">
      <path d="M 43.78125 247.973094 
L 566.66125 247.973094 
" clip-path="url(#pabe1145bf7)" style="fill: none; stroke: #b0b0b0; stroke-opacity: 0.3; stroke-width: 0.8; stroke-linecap: square"/>
     </g>
     <g id="line2d_20">
      <g>
       <use xlink:href="#mc6285a4265" x="43.78125" y="247.973094" style="stroke: #000000; stroke-width: 0.8"/>
      </g>
     </g>
     <g id="text_11">
      <!-- 0.3 -->
      <g transform="translate(20.878125 251.772313) scale(0.1 -0.1)">
       <defs>
        <path id="DejaVuSans-33" d="M 2597 2516 
Q 3050 2419 3304 2112 
Q 3559 1806 3559 1356 
Q 3559 666 3084 287 
Q 2609 -91 1734 -91 
Q 1441 -91 1130 -33 
Q 819 25 488 141 
L 488 750 
Q 750 597 1062 519 
Q 1375 441 1716 441 
Q 2309 441 2620 675 
Q 2931 909 2931 1356 
Q 2931 1769 2642 2001 
Q 2353 2234 1838 2234 
L 1294 2234 
L 1294 2753 
L 1863 2753 
Q 2328 2753 2575 2939 
Q 2822 3125 2822 3475 
Q 2822 3834 2567 4026 
Q 2313 4219 1838 4219 
Q 1578 4219 1281 4162 
Q 984 4106 628 3988 
L 628 4550 
Q 988 4650 1302 4700 
Q 1616 4750 1894 4750 
Q 2613 4750 3031 4423 
Q 3450 4097 3450 3541 
Q 3450 3153 3228 2886 
Q 3006 2619 2597 2516 
z
" transform="scale(0.015625)"/>
       </defs>
       <use xlink:href="#DejaVuSans-30"/>
       <use xlink:href="#DejaVuSans-2e" x="63.623047"/>
       <use xlink:href="#DejaVuSans-33" x="95.410156"/>
      </g>
     </g>
    </g>
    <g id="ytick_5">
     <g id="line2d_21">
      <path d="M 43.78125 205.755005 
L 566.66125 205.755005 
" clip-path="url(#pabe1145bf7)" style="fill: none; stroke: #b0b0b0; stroke-opacity: 0.3; stroke-width: 0.8; stroke-linecap: square"/>
     </g>
     <g id="line2d_22">
      <g>
       <use xlink:href="#mc6285a4265" x="43.78125" y="205.755005" style="stroke: #000000; stroke-width: 0.8"/>
      </g>
     </g>
     <g id="text_12">
      <!-- 0.4 -->
      <g transform="translate(20.878125 209.554224) scale(0.1 -0.1)">
       <use xlink:href="#DejaVuSans-30"/>
       <use xlink:href="#DejaVuSans-2e" x="63.623047"/>
       <use xlink:href="#DejaVuSans-34" x="95.410156"/>
      </g>
     </g>
    </g>
    <g id="ytick_6">
     <g id="line2d_23">
      <path d="M 43.78125 163.536917 
L 566.66125 163.536917 
" clip-path="url(#pabe1145bf7)" style="fill: none; stroke: #b0b0b0; stroke-opacity: 0.3; stroke-width: 0.8; stroke-linecap: square"/>
     </g>
     <g id="line2d_24">
      <g>
       <use xlink:href="#mc6285a4265" x="43.78125" y="163.536917" style="stroke: #000000; stroke-width: 0.8"/>
      </g>
     </g>
     <g id="text_13">
      <!-- 0.5 -->
      <g transform="translate(20.878125 167.336135) scale(0.1 -0.1)">
       <defs>
        <path id="DejaVuSans-35" d="M 691 4666 
L 3169 4666 
L 3169 4134 
L 1269 4134 
L 1269 2991 
Q 1406 3038 1543 3061 
Q 1681 3084 1819 3084 
Q 2600 3084 3056 2656 
Q 3513 2228 3513 1497 
Q 3513 744 3044 326 
Q 2575 -91 1722 -91 
Q 1428 -91 1123 -41 
Q 819 9 494 109 
L 494 744 
Q 775 591 1075 516 
Q 1375 441 1709 441 
Q 2250 441 2565 725 
Q 2881 1009 2881 1497 
Q 2881 1984 2565 2268 
Q 2250 2553 1709 2553 
Q 1456 2553 1204 2497 
Q 953 2441 691 2322 
L 691 4666 
z
" transform="scale(0.015625)"/>
       </defs>
       <use xlink:href="#DejaVuSans-30"/>
       <use xlink:href="#DejaVuSans-2e" x="63.623047"/>
       <use xlink:href="#DejaVuSans-35" x="95.410156"/>
      </g>
     </g>
    </g>
    <g id="ytick_7">
     <g id="line2d_25">
      <path d="M 43.78125 121.318828 
L 566.66125 121.318828 
" clip-path="url(#pabe1145bf7)" style="fill: none; stroke: #b0b0b0; stroke-opacity: 0.3; stroke-width: 0.8; stroke-linecap: square"/>
     </g>
     <g id="line2d_26">
      <g>
       <use xlink:href="#mc6285a4265" x="43.78125" y="121.318828" style="stroke: #000000; stroke-width: 0.8"/>
      </g>
     </g>
     <g id="text_14">
      <!-- 0.6 -->
      <g transform="translate(20.878125 125.118046) scale(0.1 -0.1)">
       <use xlink:href="#DejaVuSans-30"/>
       <use xlink:href="#DejaVuSans-2e" x="63.623047"/>
       <use xlink:href="#DejaVuSans-36" x="95.410156"/>
      </g>
     </g>
    </g>
    <g id="ytick_8">
     <g id="line2d_27">
      <path d="M 43.78125 79.100739 
L 566.66125 79.100739 
" clip-path="url(#pabe1145bf7)" style="fill: none; stroke: #b0b0b0; stroke-opacity: 0.3; stroke-width: 0.8; stroke-linecap: square"/>
     </g>
     <g id="line2d_28">
      <g>
       <use xlink:href="#mc6285a4265" x="43.78125" y="79.100739" style="stroke: #000000; stroke-width: 0.8"/>
      </g>
     </g>
     <g id="text_15">
      <!-- 0.7 -->
      <g transform="translate(20.878125 82.899958) scale(0.1 -0.1)">
       <defs>
        <path id="DejaVuSans-37" d="M 525 4666 
L 3525 4666 
L 3525 4397 
L 1831 0 
L 1172 0 
L 2766 4134 
L 525 4134 
L 525 4666 
z
" transform="scale(0.015625)"/>
       </defs>
       <use xlink:href="#DejaVuSans-30"/>
       <use xlink:href="#DejaVuSans-2e" x="63.623047"/>
       <use xlink:href="#DejaVuSans-37" x="95.410156"/>
      </g>
     </g>
    </g>
    <g id="ytick_9">
     <g id="line2d_29">
      <path d="M 43.78125 36.88265 
L 566.66125 36.88265 
" clip-path="url(#pabe1145bf7)" style="fill: none; stroke: #b0b0b0; stroke-opacity: 0.3; stroke-width: 0.8; stroke-linecap: square"/>
     </g>
     <g id="line2d_30">
      <g>
       <use xlink:href="#mc6285a4265" x="43.78125" y="36.88265" style="stroke: #000000; stroke-width: 0.8"/>
      </g>
     </g>
     <g id="text_16">
      <!-- 0.8 -->
      <g transform="translate(20.878125 40.681869) scale(0.1 -0.1)">
       <use xlink:href="#DejaVuSans-30"/>
       <use xlink:href="#DejaVuSans-2e" x="63.623047"/>
       <use xlink:href="#DejaVuSans-38" x="95.410156"/>
      </g>
     </g>
    </g>
    <g id="text_17">
     <!-- Global Accuracy -->
     <g transform="translate(14.798438 244.265312) rotate(-90) scale(0.1 -0.1)">
      <defs>
       <path id="DejaVuSans-47" d="M 3809 666 
L 3809 1919 
L 2778 1919 
L 2778 2438 
L 4434 2438 
L 4434 434 
Q 4069 175 3628 42 
Q 3188 -91 2688 -91 
Q 1594 -91 976 548 
Q 359 1188 359 2328 
Q 359 3472 976 4111 
Q 1594 4750 2688 4750 
Q 3144 4750 3555 4637 
Q 3966 4525 4313 4306 
L 4313 3634 
Q 3963 3931 3569 4081 
Q 3175 4231 2741 4231 
Q 1884 4231 1454 3753 
Q 1025 3275 1025 2328 
Q 1025 1384 1454 906 
Q 1884 428 2741 428 
Q 3075 428 3337 486 
Q 3600 544 3809 666 
z
" transform="scale(0.015625)"/>
       <path id="DejaVuSans-6c" d="M 603 4863 
L 1178 4863 
L 1178 0 
L 603 0 
L 603 4863 
z
" transform="scale(0.015625)"/>
       <path id="DejaVuSans-62" d="M 3116 1747 
Q 3116 2381 2855 2742 
Q 2594 3103 2138 3103 
Q 1681 3103 1420 2742 
Q 1159 2381 1159 1747 
Q 1159 1113 1420 752 
Q 1681 391 2138 391 
Q 2594 391 2855 752 
Q 3116 1113 3116 1747 
z
M 1159 2969 
Q 1341 3281 1617 3432 
Q 1894 3584 2278 3584 
Q 2916 3584 3314 3078 
Q 3713 2572 3713 1747 
Q 3713 922 3314 415 
Q 2916 -91 2278 -91 
Q 1894 -91 1617 61 
Q 1341 213 1159 525 
L 1159 0 
L 581 0 
L 581 4863 
L 1159 4863 
L 1159 2969 
z
" transform="scale(0.015625)"/>
       <path id="DejaVuSans-41" d="M 2188 4044 
L 1331 1722 
L 3047 1722 
L 2188 4044 
z
M 1831 4666 
L 2547 4666 
L 4325 0 
L 3669 0 
L 3244 1197 
L 1141 1197 
L 716 0 
L 50 0 
L 1831 4666 
z
" transform="scale(0.015625)"/>
       <path id="DejaVuSans-72" d="M 2631 2963 
Q 2534 3019 2420 3045 
Q 2306 3072 2169 3072 
Q 1681 3072 1420 2755 
Q 1159 2438 1159 1844 
L 1159 0 
L 581 0 
L 581 3500 
L 1159 3500 
L 1159 2956 
Q 1341 3275 1631 3429 
Q 1922 3584 2338 3584 
Q 2397 3584 2469 3576 
Q 2541 3569 2628 3553 
L 2631 2963 
z
" transform="scale(0.015625)"/>
       <path id="DejaVuSans-79" d="M 2059 -325 
Q 1816 -950 1584 -1140 
Q 1353 -1331 966 -1331 
L 506 -1331 
L 506 -850 
L 844 -850 
Q 1081 -850 1212 -737 
Q 1344 -625 1503 -206 
L 1606 56 
L 191 3500 
L 800 3500 
L 1894 763 
L 2988 3500 
L 3597 3500 
L 2059 -325 
z
" transform="scale(0.015625)"/>
      </defs>
      <use xlink:href="#DejaVuSans-47"/>
      <use xlink:href="#DejaVuSans-6c" x="77.490234"/>
      <use xlink:href="#DejaVuSans-6f" x="105.273438"/>
      <use xlink:href="#DejaVuSans-62" x="166.455078"/>
      <use xlink:href="#DejaVuSans-61" x="229.931641"/>
      <use xlink:href="#DejaVuSans-6c" x="291.210938"/>
      <use xlink:href="#DejaVuSans-20" x="318.994141"/>
      <use xlink:href="#DejaVuSans-41" x="350.78125"/>
      <use xlink:href="#DejaVuSans-63" x="417.439453"/>
      <use xlink:href="#DejaVuSans-63" x="472.419922"/>
      <use xlink:href="#DejaVuSans-75" x="527.400391"/>
      <use xlink:href="#DejaVuSans-72" x="590.779297"/>
      <use xlink:href="#DejaVuSans-61" x="631.892578"/>
      <use xlink:href="#DejaVuSans-63" x="693.171875"/>
      <use xlink:href="#DejaVuSans-79" x="748.152344"/>
     </g>
    </g>
   </g>
   <g id="line2d_31">
    <path d="M 67.548523 350.083624 
L 72.349992 344.902964 
L 77.151461 338.516583 
L 81.95293 332.795675 
L 86.7544 323.897676 
L 91.555869 311.811853 
L 96.357338 299.933544 
L 101.158807 287.096382 
L 105.960277 274.327199 
L 110.761746 260.345141 
L 115.563215 246.377394 
L 120.364684 232.98925 
L 125.166154 217.876606 
L 129.967623 202.094912 
L 134.769092 184.681739 
L 139.570561 170.091454 
L 144.372031 157.082558 
L 149.1735 145.791008 
L 153.974969 136.832186 
L 158.776438 128.492325 
L 163.577907 118.374295 
L 168.379377 111.597934 
L 173.180846 102.692779 
L 177.982315 94.739321 
L 182.783784 87.698202 
L 187.585254 80.796618 
L 192.386723 75.394134 
L 197.188192 70.864634 
L 201.989661 67.329763 
L 206.791131 64.299363 
L 211.5926 61.680411 
L 216.394069 59.469328 
L 221.195538 57.751982 
L 225.997008 56.381683 
L 230.798477 54.700115 
L 235.599946 52.714433 
L 240.401415 51.222489 
L 245.202885 50.109792 
L 250.004354 48.882605 
L 254.805823 47.243971 
L 259.607292 45.455069 
L 264.408761 44.675107 
L 269.210231 44.059725 
L 274.0117 43.523055 
L 278.813169 42.954184 
L 283.614638 42.667959 
L 288.416108 42.331646 
L 293.217577 41.981021 
L 298.019046 41.73773 
L 302.820515 41.469395 
L 307.621985 41.215371 
L 312.423454 40.997125 
L 317.224923 40.811079 
L 322.026392 40.642922 
L 326.827862 40.381743 
L 331.629331 40.20643 
L 336.4308 40.095518 
L 341.232269 39.923784 
L 346.033739 39.827183 
L 350.835208 39.705538 
L 355.636677 39.61967 
L 360.438146 39.551692 
L 365.239615 39.505181 
L 370.041085 39.451513 
L 374.842554 39.397846 
L 379.644023 39.369224 
L 384.445492 39.311979 
L 389.246962 39.272623 
L 394.048431 39.193912 
L 398.8499 39.150978 
L 403.651369 39.111622 
L 408.452839 39.083 
L 413.254308 39.061533 
L 418.055777 39.047222 
L 422.857246 39.018599 
L 427.658716 39.011444 
L 432.460185 39.007866 
L 437.261654 39.004288 
L 442.063123 38.975666 
L 446.864593 38.950621 
L 451.666062 38.943465 
L 456.467531 38.932732 
L 461.269 38.929154 
L 466.070469 38.911265 
L 470.871939 38.907687 
L 475.673408 38.893376 
L 480.474877 38.88622 
L 485.276346 38.882643 
L 490.077816 38.875487 
L 494.879285 38.871909 
L 499.680754 38.864754 
L 504.482223 38.861176 
L 509.283693 38.85402 
L 514.085162 38.850442 
L 518.886631 38.843287 
L 523.6881 38.836131 
L 528.48957 38.836131 
L 533.291039 38.828976 
L 538.092508 38.825398 
L 542.893977 38.825398 
" clip-path="url(#pabe1145bf7)" style="fill: none; stroke: #1f77b4; stroke-width: 2; stroke-linecap: square"/>
   </g>
   <g id="line2d_32">
    <path d="M 67.548523 349.042483 
L 72.349992 344.788474 
L 77.151461 338.960231 
L 81.95293 332.18387 
L 86.7544 324.420035 
L 91.555869 316.94958 
L 96.357338 305.12136 
L 101.158807 295.346799 
L 105.960277 284.366518 
L 110.761746 274.60269 
L 115.563215 262.48109 
L 120.364684 252.488283 
L 125.166154 241.107288 
L 129.967623 229.987473 
L 134.769092 217.822939 
L 139.570561 208.670916 
L 144.372031 198.746087 
L 149.1735 182.581568 
L 153.974969 173.408078 
L 158.776438 162.685399 
L 163.577907 152.714059 
L 168.379377 144.291908 
L 173.180846 137.533436 
L 177.982315 131.011099 
L 182.783784 125.114878 
L 187.585254 116.331369 
L 192.386723 108.807247 
L 197.188192 102.882403 
L 201.989661 97.945033 
L 206.791131 92.946841 
L 211.5926 89.172258 
L 216.394069 85.043472 
L 221.195538 81.111465 
L 225.997008 76.539031 
L 230.798477 72.836004 
L 235.599946 69.329756 
L 240.401415 66.514024 
L 245.202885 63.977361 
L 250.004354 61.87719 
L 254.805823 59.959487 
L 259.607292 58.263608 
L 264.408761 57.208155 
L 269.210231 56.292238 
L 274.0117 54.950561 
L 278.813169 54.163444 
L 283.614638 53.236793 
L 288.416108 52.235008 
L 293.217577 51.458624 
L 298.019046 50.782419 
L 302.820515 49.909435 
L 307.621985 49.294053 
L 312.423454 48.721604 
L 317.224923 48.363824 
L 322.026392 47.891553 
L 326.827862 47.233237 
L 331.629331 46.667944 
L 336.4308 46.206408 
L 341.232269 45.812849 
L 346.033739 45.204623 
L 350.835208 44.578507 
L 355.636677 43.447921 
L 360.438146 42.625026 
L 365.239615 42.320912 
L 370.041085 42.052577 
L 374.842554 41.845064 
L 379.644023 41.648285 
L 384.445492 41.490862 
L 389.246962 41.304816 
L 394.048431 41.147393 
L 398.8499 41.043636 
L 403.651369 40.854013 
L 408.452839 40.682278 
L 413.254308 40.571366 
L 418.055777 40.431832 
L 422.857246 40.331653 
L 427.658716 40.23863 
L 432.460185 40.163496 
L 437.261654 40.095518 
L 442.063123 40.034696 
L 446.864593 39.927361 
L 451.666062 39.866539 
L 456.467531 39.784249 
L 461.269 39.705538 
L 466.070469 39.673337 
L 470.871939 39.616092 
L 475.673408 39.591048 
L 480.474877 39.544536 
L 485.276346 39.519492 
L 490.077816 39.501603 
L 494.879285 39.469402 
L 499.680754 39.444358 
L 504.482223 39.426469 
L 509.283693 39.383535 
L 514.085162 39.351335 
L 518.886631 39.32629 
L 523.6881 39.308401 
L 528.48957 39.286934 
L 533.291039 39.269045 
L 538.092508 39.244001 
L 542.893977 39.215378 
" clip-path="url(#pabe1145bf7)" style="fill: none; stroke: #ff7f0e; stroke-width: 2; stroke-linecap: square"/>
   </g>
   <g id="line2d_33">
    <path d="M 67.548523 367.804488 
L 72.349992 368.047779 
L 77.151461 368.884985 
L 81.95293 368.970852 
L 86.7544 367.825955 
L 91.555869 367.346529 
L 96.357338 366.065675 
L 101.158807 366.022742 
L 105.960277 363.325077 
L 110.761746 358.8242 
L 115.563215 352.716888 
L 120.364684 350.559472 
L 125.166154 345.242855 
L 129.967623 341.103336 
L 134.769092 338.910142 
L 139.570561 334.738422 
L 144.372031 330.94595 
L 149.1735 325.629333 
L 153.974969 319.389643 
L 158.776438 311.500584 
L 163.577907 303.618682 
L 168.379377 302.720653 
L 173.180846 297.096345 
L 177.982315 294.259146 
L 182.783784 291.071323 
L 187.585254 289.135731 
L 192.386723 287.997989 
L 197.188192 286.180465 
L 201.989661 286.613379 
L 206.791131 283.59729 
L 211.5926 280.520378 
L 216.394069 280.989071 
L 221.195538 264.602728 
L 225.997008 262.846026 
L 230.798477 247.797782 
L 235.599946 239.958813 
L 240.401415 226.89625 
L 245.202885 232.545603 
L 250.004354 212.105608 
L 254.805823 211.644071 
L 259.607292 214.54567 
L 264.408761 223.1002 
L 269.210231 214.352469 
L 274.0117 194.975081 
L 278.813169 214.381091 
L 283.614638 191.722858 
L 288.416108 186.34184 
L 293.217577 188.152209 
L 298.019046 169.096824 
L 302.820515 172.184469 
L 307.621985 153.529798 
L 312.423454 148.413538 
L 317.224923 144.789223 
L 322.026392 149.272211 
L 326.827862 134.216812 
L 331.629331 134.091588 
L 336.4308 131.680148 
L 341.232269 125.758883 
L 346.033739 124.885898 
L 350.835208 118.470896 
L 355.636677 114.478066 
L 360.438146 109.633719 
L 365.239615 102.835892 
L 370.041085 110.771461 
L 374.842554 108.936048 
L 379.644023 88.10965 
L 384.445492 97.67312 
L 389.246962 94.946833 
L 394.048431 93.862759 
L 398.8499 86.739351 
L 403.651369 85.894989 
L 408.452839 85.311807 
L 413.254308 76.839567 
L 418.055777 73.52652 
L 422.857246 70.664277 
L 427.658716 67.344075 
L 432.460185 69.326178 
L 437.261654 64.975568 
L 442.063123 62.535506 
L 446.864593 68.29577 
L 451.666062 62.549817 
L 456.467531 57.326223 
L 461.269 56.828908 
L 466.070469 56.818175 
L 470.871939 53.920153 
L 475.673408 51.880805 
L 480.474877 53.655396 
L 485.276346 53.569529 
L 490.077816 52.836079 
L 494.879285 51.555225 
L 499.680754 49.741278 
L 504.482223 47.583862 
L 509.283693 50.431794 
L 514.085162 47.014991 
L 518.886631 45.716248 
L 523.6881 46.574921 
L 528.48957 46.353098 
L 533.291039 46.335209 
L 538.092508 46.142007 
L 542.893977 42.285134 
" clip-path="url(#pabe1145bf7)" style="fill: none; stroke: #2ca02c; stroke-width: 2; stroke-linecap: square"/>
   </g>
   <g id="patch_3">
    <path d="M 43.78125 385.478125 
L 43.78125 22.318125 
" style="fill: none; stroke: #000000; stroke-width: 0.8; stroke-linejoin: miter; stroke-linecap: square"/>
   </g>
   <g id="patch_4">
    <path d="M 566.66125 385.478125 
L 566.66125 22.318125 
" style="fill: none; stroke: #000000; stroke-width: 0.8; stroke-linejoin: miter; stroke-linecap: square"/>
   </g>
   <g id="patch_5">
    <path d="M 43.78125 385.478125 
L 566.66125 385.478125 
" style="fill: none; stroke: #000000; stroke-width: 0.8; stroke-linejoin: miter; stroke-linecap: square"/>
   </g>
   <g id="patch_6">
    <path d="M 43.78125 22.318125 
L 566.66125 22.318125 
" style="fill: none; stroke: #000000; stroke-width: 0.8; stroke-linejoin: miter; stroke-linecap: square"/>
   </g>
   <g id="text_18">
    <!-- Accuracy Comparison - opp -->
    <g transform="translate(222.72875 16.318125) scale(0.12 -0.12)">
     <defs>
      <path id="DejaVuSans-70" d="M 1159 525 
L 1159 -1331 
L 581 -1331 
L 581 3500 
L 1159 3500 
L 1159 2969 
Q 1341 3281 1617 3432 
Q 1894 3584 2278 3584 
Q 2916 3584 3314 3078 
Q 3713 2572 3713 1747 
Q 3713 922 3314 415 
Q 2916 -91 2278 -91 
Q 1894 -91 1617 61 
Q 1341 213 1159 525 
z
M 3116 1747 
Q 3116 2381 2855 2742 
Q 2594 3103 2138 3103 
Q 1681 3103 1420 2742 
Q 1159 2381 1159 1747 
Q 1159 1113 1420 752 
Q 1681 391 2138 391 
Q 2594 391 2855 752 
Q 3116 1113 3116 1747 
z
" transform="scale(0.015625)"/>
      <path id="DejaVuSans-2d" d="M 313 2009 
L 1997 2009 
L 1997 1497 
L 313 1497 
L 313 2009 
z
" transform="scale(0.015625)"/>
     </defs>
     <use xlink:href="#DejaVuSans-41"/>
     <use xlink:href="#DejaVuSans-63" x="66.658203"/>
     <use xlink:href="#DejaVuSans-63" x="121.638672"/>
     <use xlink:href="#DejaVuSans-75" x="176.619141"/>
     <use xlink:href="#DejaVuSans-72" x="239.998047"/>
     <use xlink:href="#DejaVuSans-61" x="281.111328"/>
     <use xlink:href="#DejaVuSans-63" x="342.390625"/>
     <use xlink:href="#DejaVuSans-79" x="397.371094"/>
     <use xlink:href="#DejaVuSans-20" x="456.550781"/>
     <use xlink:href="#DejaVuSans-43" x="488.337891"/>
     <use xlink:href="#DejaVuSans-6f" x="558.162109"/>
     <use xlink:href="#DejaVuSans-6d" x="619.34375"/>
     <use xlink:href="#DejaVuSans-70" x="716.755859"/>
     <use xlink:href="#DejaVuSans-61" x="780.232422"/>
     <use xlink:href="#DejaVuSans-72" x="841.511719"/>
     <use xlink:href="#DejaVuSans-69" x="882.625"/>
     <use xlink:href="#DejaVuSans-73" x="910.408203"/>
     <use xlink:href="#DejaVuSans-6f" x="962.507812"/>
     <use xlink:href="#DejaVuSans-6e" x="1023.689453"/>
     <use xlink:href="#DejaVuSans-20" x="1087.068359"/>
     <use xlink:href="#DejaVuSans-2d" x="1118.855469"/>
     <use xlink:href="#DejaVuSans-20" x="1154.939453"/>
     <use xlink:href="#DejaVuSans-6f" x="1186.726562"/>
     <use xlink:href="#DejaVuSans-70" x="1247.908203"/>
     <use xlink:href="#DejaVuSans-70" x="1311.384766"/>
    </g>
   </g>
   <g id="legend_1">
    <g id="patch_7">
     <path d="M 50.78125 74.3525 
L 121.504688 74.3525 
Q 123.504688 74.3525 123.504688 72.3525 
L 123.504688 29.318125 
Q 123.504688 27.318125 121.504688 27.318125 
L 50.78125 27.318125 
Q 48.78125 27.318125 48.78125 29.318125 
L 48.78125 72.3525 
Q 48.78125 74.3525 50.78125 74.3525 
z
" style="fill: #ffffff; opacity: 0.8; stroke: #cccccc; stroke-linejoin: miter"/>
    </g>
    <g id="line2d_34">
     <path d="M 52.78125 35.416562 
L 62.78125 35.416562 
L 72.78125 35.416562 
" style="fill: none; stroke: #1f77b4; stroke-width: 2; stroke-linecap: square"/>
    </g>
    <g id="text_19">
     <!-- fedprop -->
     <g transform="translate(80.78125 38.916562) scale(0.1 -0.1)">
      <defs>
       <path id="DejaVuSans-66" d="M 2375 4863 
L 2375 4384 
L 1825 4384 
Q 1516 4384 1395 4259 
Q 1275 4134 1275 3809 
L 1275 3500 
L 2222 3500 
L 2222 3053 
L 1275 3053 
L 1275 0 
L 697 0 
L 697 3053 
L 147 3053 
L 147 3500 
L 697 3500 
L 697 3744 
Q 697 4328 969 4595 
Q 1241 4863 1831 4863 
L 2375 4863 
z
" transform="scale(0.015625)"/>
       <path id="DejaVuSans-65" d="M 3597 1894 
L 3597 1613 
L 953 1613 
Q 991 1019 1311 708 
Q 1631 397 2203 397 
Q 2534 397 2845 478 
Q 3156 559 3463 722 
L 3463 178 
Q 3153 47 2828 -22 
Q 2503 -91 2169 -91 
Q 1331 -91 842 396 
Q 353 884 353 1716 
Q 353 2575 817 3079 
Q 1281 3584 2069 3584 
Q 2775 3584 3186 3129 
Q 3597 2675 3597 1894 
z
M 3022 2063 
Q 3016 2534 2758 2815 
Q 2500 3097 2075 3097 
Q 1594 3097 1305 2825 
Q 1016 2553 972 2059 
L 3022 2063 
z
" transform="scale(0.015625)"/>
      </defs>
      <use xlink:href="#DejaVuSans-66"/>
      <use xlink:href="#DejaVuSans-65" x="35.205078"/>
      <use xlink:href="#DejaVuSans-64" x="96.728516"/>
      <use xlink:href="#DejaVuSans-70" x="160.205078"/>
      <use xlink:href="#DejaVuSans-72" x="223.681641"/>
      <use xlink:href="#DejaVuSans-6f" x="262.544922"/>
      <use xlink:href="#DejaVuSans-70" x="323.726562"/>
     </g>
    </g>
    <g id="line2d_35">
     <path d="M 52.78125 50.094687 
L 62.78125 50.094687 
L 72.78125 50.094687 
" style="fill: none; stroke: #ff7f0e; stroke-width: 2; stroke-linecap: square"/>
    </g>
    <g id="text_20">
     <!-- fedcent -->
     <g transform="translate(80.78125 53.594687) scale(0.1 -0.1)">
      <use xlink:href="#DejaVuSans-66"/>
      <use xlink:href="#DejaVuSans-65" x="35.205078"/>
      <use xlink:href="#DejaVuSans-64" x="96.728516"/>
      <use xlink:href="#DejaVuSans-63" x="160.205078"/>
      <use xlink:href="#DejaVuSans-65" x="215.185547"/>
      <use xlink:href="#DejaVuSans-6e" x="276.708984"/>
      <use xlink:href="#DejaVuSans-74" x="340.087891"/>
     </g>
    </g>
    <g id="line2d_36">
     <path d="M 52.78125 64.772812 
L 62.78125 64.772812 
L 72.78125 64.772812 
" style="fill: none; stroke: #2ca02c; stroke-width: 2; stroke-linecap: square"/>
    </g>
    <g id="text_21">
     <!-- fedprox -->
     <g transform="translate(80.78125 68.272812) scale(0.1 -0.1)">
      <defs>
       <path id="DejaVuSans-78" d="M 3513 3500 
L 2247 1797 
L 3578 0 
L 2900 0 
L 1881 1375 
L 863 0 
L 184 0 
L 1544 1831 
L 300 3500 
L 978 3500 
L 1906 2253 
L 2834 3500 
L 3513 3500 
z
" transform="scale(0.015625)"/>
      </defs>
      <use xlink:href="#DejaVuSans-66"/>
      <use xlink:href="#DejaVuSans-65" x="35.205078"/>
      <use xlink:href="#DejaVuSans-64" x="96.728516"/>
      <use xlink:href="#DejaVuSans-70" x="160.205078"/>
      <use xlink:href="#DejaVuSans-72" x="223.681641"/>
      <use xlink:href="#DejaVuSans-6f" x="262.544922"/>
      <use xlink:href="#DejaVuSans-78" x="320.601562"/>
     </g>
    </g>
   </g>
  </g>
  <g id="axes_2">
   <g id="patch_8">
    <path d="M 614.38125 385.478125 
L 1137.26125 385.478125 
L 1137.26125 22.318125 
L 614.38125 22.318125 
z
" style="fill: #ffffff"/>
   </g>
   <g id="matplotlib.axis_3">
    <g id="xtick_7">
     <g id="line2d_37">
      <path d="M 633.347053 385.478125 
L 633.347053 22.318125 
" clip-path="url(#pf01beb63fa)" style="fill: none; stroke: #b0b0b0; stroke-opacity: 0.3; stroke-width: 0.8; stroke-linecap: square"/>
     </g>
     <g id="line2d_38">
      <g>
       <use xlink:href="#m643f2a6f61" x="633.347053" y="385.478125" style="stroke: #000000; stroke-width: 0.8"/>
      </g>
     </g>
     <g id="text_22">
      <!-- 0 -->
      <g transform="translate(630.165803 400.076562) scale(0.1 -0.1)">
       <use xlink:href="#DejaVuSans-30"/>
      </g>
     </g>
    </g>
    <g id="xtick_8">
     <g id="line2d_39">
      <path d="M 729.376438 385.478125 
L 729.376438 22.318125 
" clip-path="url(#pf01beb63fa)" style="fill: none; stroke: #b0b0b0; stroke-opacity: 0.3; stroke-width: 0.8; stroke-linecap: square"/>
     </g>
     <g id="line2d_40">
      <g>
       <use xlink:href="#m643f2a6f61" x="729.376438" y="385.478125" style="stroke: #000000; stroke-width: 0.8"/>
      </g>
     </g>
     <g id="text_23">
      <!-- 20 -->
      <g transform="translate(723.013938 400.076562) scale(0.1 -0.1)">
       <use xlink:href="#DejaVuSans-32"/>
       <use xlink:href="#DejaVuSans-30" x="63.623047"/>
      </g>
     </g>
    </g>
    <g id="xtick_9">
     <g id="line2d_41">
      <path d="M 825.405823 385.478125 
L 825.405823 22.318125 
" clip-path="url(#pf01beb63fa)" style="fill: none; stroke: #b0b0b0; stroke-opacity: 0.3; stroke-width: 0.8; stroke-linecap: square"/>
     </g>
     <g id="line2d_42">
      <g>
       <use xlink:href="#m643f2a6f61" x="825.405823" y="385.478125" style="stroke: #000000; stroke-width: 0.8"/>
      </g>
     </g>
     <g id="text_24">
      <!-- 40 -->
      <g transform="translate(819.043323 400.076562) scale(0.1 -0.1)">
       <use xlink:href="#DejaVuSans-34"/>
       <use xlink:href="#DejaVuSans-30" x="63.623047"/>
      </g>
     </g>
    </g>
    <g id="xtick_10">
     <g id="line2d_43">
      <path d="M 921.435208 385.478125 
L 921.435208 22.318125 
" clip-path="url(#pf01beb63fa)" style="fill: none; stroke: #b0b0b0; stroke-opacity: 0.3; stroke-width: 0.8; stroke-linecap: square"/>
     </g>
     <g id="line2d_44">
      <g>
       <use xlink:href="#m643f2a6f61" x="921.435208" y="385.478125" style="stroke: #000000; stroke-width: 0.8"/>
      </g>
     </g>
     <g id="text_25">
      <!-- 60 -->
      <g transform="translate(915.072708 400.076562) scale(0.1 -0.1)">
       <use xlink:href="#DejaVuSans-36"/>
       <use xlink:href="#DejaVuSans-30" x="63.623047"/>
      </g>
     </g>
    </g>
    <g id="xtick_11">
     <g id="line2d_45">
      <path d="M 1017.464593 385.478125 
L 1017.464593 22.318125 
" clip-path="url(#pf01beb63fa)" style="fill: none; stroke: #b0b0b0; stroke-opacity: 0.3; stroke-width: 0.8; stroke-linecap: square"/>
     </g>
     <g id="line2d_46">
      <g>
       <use xlink:href="#m643f2a6f61" x="1017.464593" y="385.478125" style="stroke: #000000; stroke-width: 0.8"/>
      </g>
     </g>
     <g id="text_26">
      <!-- 80 -->
      <g transform="translate(1011.102093 400.076562) scale(0.1 -0.1)">
       <use xlink:href="#DejaVuSans-38"/>
       <use xlink:href="#DejaVuSans-30" x="63.623047"/>
      </g>
     </g>
    </g>
    <g id="xtick_12">
     <g id="line2d_47">
      <path d="M 1113.493977 385.478125 
L 1113.493977 22.318125 
" clip-path="url(#pf01beb63fa)" style="fill: none; stroke: #b0b0b0; stroke-opacity: 0.3; stroke-width: 0.8; stroke-linecap: square"/>
     </g>
     <g id="line2d_48">
      <g>
       <use xlink:href="#m643f2a6f61" x="1113.493977" y="385.478125" style="stroke: #000000; stroke-width: 0.8"/>
      </g>
     </g>
     <g id="text_27">
      <!-- 100 -->
      <g transform="translate(1103.950227 400.076562) scale(0.1 -0.1)">
       <use xlink:href="#DejaVuSans-31"/>
       <use xlink:href="#DejaVuSans-30" x="63.623047"/>
       <use xlink:href="#DejaVuSans-30" x="127.246094"/>
      </g>
     </g>
    </g>
    <g id="text_28">
     <!-- Communication Rounds -->
     <g transform="translate(816.398594 413.754687) scale(0.1 -0.1)">
      <use xlink:href="#DejaVuSans-43"/>
      <use xlink:href="#DejaVuSans-6f" x="69.824219"/>
      <use xlink:href="#DejaVuSans-6d" x="131.005859"/>
      <use xlink:href="#DejaVuSans-6d" x="228.417969"/>
      <use xlink:href="#DejaVuSans-75" x="325.830078"/>
      <use xlink:href="#DejaVuSans-6e" x="389.208984"/>
      <use xlink:href="#DejaVuSans-69" x="452.587891"/>
      <use xlink:href="#DejaVuSans-63" x="480.371094"/>
      <use xlink:href="#DejaVuSans-61" x="535.351562"/>
      <use xlink:href="#DejaVuSans-74" x="596.630859"/>
      <use xlink:href="#DejaVuSans-69" x="635.839844"/>
      <use xlink:href="#DejaVuSans-6f" x="663.623047"/>
      <use xlink:href="#DejaVuSans-6e" x="724.804688"/>
      <use xlink:href="#DejaVuSans-20" x="788.183594"/>
      <use xlink:href="#DejaVuSans-52" x="819.970703"/>
      <use xlink:href="#DejaVuSans-6f" x="884.953125"/>
      <use xlink:href="#DejaVuSans-75" x="946.134766"/>
      <use xlink:href="#DejaVuSans-6e" x="1009.513672"/>
      <use xlink:href="#DejaVuSans-64" x="1072.892578"/>
      <use xlink:href="#DejaVuSans-73" x="1136.369141"/>
     </g>
    </g>
   </g>
   <g id="matplotlib.axis_4">
    <g id="ytick_10">
     <g id="line2d_49">
      <path d="M 614.38125 376.000189 
L 1137.26125 376.000189 
" clip-path="url(#pf01beb63fa)" style="fill: none; stroke: #b0b0b0; stroke-opacity: 0.3; stroke-width: 0.8; stroke-linecap: square"/>
     </g>
     <g id="line2d_50">
      <g>
       <use xlink:href="#mc6285a4265" x="614.38125" y="376.000189" style="stroke: #000000; stroke-width: 0.8"/>
      </g>
     </g>
     <g id="text_29">
      <!-- 0.0 -->
      <g transform="translate(591.478125 379.799408) scale(0.1 -0.1)">
       <use xlink:href="#DejaVuSans-30"/>
       <use xlink:href="#DejaVuSans-2e" x="63.623047"/>
       <use xlink:href="#DejaVuSans-30" x="95.410156"/>
      </g>
     </g>
    </g>
    <g id="ytick_11">
     <g id="line2d_51">
      <path d="M 614.38125 328.158918 
L 1137.26125 328.158918 
" clip-path="url(#pf01beb63fa)" style="fill: none; stroke: #b0b0b0; stroke-opacity: 0.3; stroke-width: 0.8; stroke-linecap: square"/>
     </g>
     <g id="line2d_52">
      <g>
       <use xlink:href="#mc6285a4265" x="614.38125" y="328.158918" style="stroke: #000000; stroke-width: 0.8"/>
      </g>
     </g>
     <g id="text_30">
      <!-- 0.1 -->
      <g transform="translate(591.478125 331.958137) scale(0.1 -0.1)">
       <use xlink:href="#DejaVuSans-30"/>
       <use xlink:href="#DejaVuSans-2e" x="63.623047"/>
       <use xlink:href="#DejaVuSans-31" x="95.410156"/>
      </g>
     </g>
    </g>
    <g id="ytick_12">
     <g id="line2d_53">
      <path d="M 614.38125 280.317647 
L 1137.26125 280.317647 
" clip-path="url(#pf01beb63fa)" style="fill: none; stroke: #b0b0b0; stroke-opacity: 0.3; stroke-width: 0.8; stroke-linecap: square"/>
     </g>
     <g id="line2d_54">
      <g>
       <use xlink:href="#mc6285a4265" x="614.38125" y="280.317647" style="stroke: #000000; stroke-width: 0.8"/>
      </g>
     </g>
     <g id="text_31">
      <!-- 0.2 -->
      <g transform="translate(591.478125 284.116866) scale(0.1 -0.1)">
       <use xlink:href="#DejaVuSans-30"/>
       <use xlink:href="#DejaVuSans-2e" x="63.623047"/>
       <use xlink:href="#DejaVuSans-32" x="95.410156"/>
      </g>
     </g>
    </g>
    <g id="ytick_13">
     <g id="line2d_55">
      <path d="M 614.38125 232.476376 
L 1137.26125 232.476376 
" clip-path="url(#pf01beb63fa)" style="fill: none; stroke: #b0b0b0; stroke-opacity: 0.3; stroke-width: 0.8; stroke-linecap: square"/>
     </g>
     <g id="line2d_56">
      <g>
       <use xlink:href="#mc6285a4265" x="614.38125" y="232.476376" style="stroke: #000000; stroke-width: 0.8"/>
      </g>
     </g>
     <g id="text_32">
      <!-- 0.3 -->
      <g transform="translate(591.478125 236.275595) scale(0.1 -0.1)">
       <use xlink:href="#DejaVuSans-30"/>
       <use xlink:href="#DejaVuSans-2e" x="63.623047"/>
       <use xlink:href="#DejaVuSans-33" x="95.410156"/>
      </g>
     </g>
    </g>
    <g id="ytick_14">
     <g id="line2d_57">
      <path d="M 614.38125 184.635105 
L 1137.26125 184.635105 
" clip-path="url(#pf01beb63fa)" style="fill: none; stroke: #b0b0b0; stroke-opacity: 0.3; stroke-width: 0.8; stroke-linecap: square"/>
     </g>
     <g id="line2d_58">
      <g>
       <use xlink:href="#mc6285a4265" x="614.38125" y="184.635105" style="stroke: #000000; stroke-width: 0.8"/>
      </g>
     </g>
     <g id="text_33">
      <!-- 0.4 -->
      <g transform="translate(591.478125 188.434324) scale(0.1 -0.1)">
       <use xlink:href="#DejaVuSans-30"/>
       <use xlink:href="#DejaVuSans-2e" x="63.623047"/>
       <use xlink:href="#DejaVuSans-34" x="95.410156"/>
      </g>
     </g>
    </g>
    <g id="ytick_15">
     <g id="line2d_59">
      <path d="M 614.38125 136.793834 
L 1137.26125 136.793834 
" clip-path="url(#pf01beb63fa)" style="fill: none; stroke: #b0b0b0; stroke-opacity: 0.3; stroke-width: 0.8; stroke-linecap: square"/>
     </g>
     <g id="line2d_60">
      <g>
       <use xlink:href="#mc6285a4265" x="614.38125" y="136.793834" style="stroke: #000000; stroke-width: 0.8"/>
      </g>
     </g>
     <g id="text_34">
      <!-- 0.5 -->
      <g transform="translate(591.478125 140.593053) scale(0.1 -0.1)">
       <use xlink:href="#DejaVuSans-30"/>
       <use xlink:href="#DejaVuSans-2e" x="63.623047"/>
       <use xlink:href="#DejaVuSans-35" x="95.410156"/>
      </g>
     </g>
    </g>
    <g id="ytick_16">
     <g id="line2d_61">
      <path d="M 614.38125 88.952563 
L 1137.26125 88.952563 
" clip-path="url(#pf01beb63fa)" style="fill: none; stroke: #b0b0b0; stroke-opacity: 0.3; stroke-width: 0.8; stroke-linecap: square"/>
     </g>
     <g id="line2d_62">
      <g>
       <use xlink:href="#mc6285a4265" x="614.38125" y="88.952563" style="stroke: #000000; stroke-width: 0.8"/>
      </g>
     </g>
     <g id="text_35">
      <!-- 0.6 -->
      <g transform="translate(591.478125 92.751782) scale(0.1 -0.1)">
       <use xlink:href="#DejaVuSans-30"/>
       <use xlink:href="#DejaVuSans-2e" x="63.623047"/>
       <use xlink:href="#DejaVuSans-36" x="95.410156"/>
      </g>
     </g>
    </g>
    <g id="ytick_17">
     <g id="line2d_63">
      <path d="M 614.38125 41.111292 
L 1137.26125 41.111292 
" clip-path="url(#pf01beb63fa)" style="fill: none; stroke: #b0b0b0; stroke-opacity: 0.3; stroke-width: 0.8; stroke-linecap: square"/>
     </g>
     <g id="line2d_64">
      <g>
       <use xlink:href="#mc6285a4265" x="614.38125" y="41.111292" style="stroke: #000000; stroke-width: 0.8"/>
      </g>
     </g>
     <g id="text_36">
      <!-- 0.7 -->
      <g transform="translate(591.478125 44.910511) scale(0.1 -0.1)">
       <use xlink:href="#DejaVuSans-30"/>
       <use xlink:href="#DejaVuSans-2e" x="63.623047"/>
       <use xlink:href="#DejaVuSans-37" x="95.410156"/>
      </g>
     </g>
    </g>
    <g id="text_37">
     <!-- Global F1 Score -->
     <g transform="translate(585.398438 243.085625) rotate(-90) scale(0.1 -0.1)">
      <defs>
       <path id="DejaVuSans-46" d="M 628 4666 
L 3309 4666 
L 3309 4134 
L 1259 4134 
L 1259 2759 
L 3109 2759 
L 3109 2228 
L 1259 2228 
L 1259 0 
L 628 0 
L 628 4666 
z
" transform="scale(0.015625)"/>
       <path id="DejaVuSans-53" d="M 3425 4513 
L 3425 3897 
Q 3066 4069 2747 4153 
Q 2428 4238 2131 4238 
Q 1616 4238 1336 4038 
Q 1056 3838 1056 3469 
Q 1056 3159 1242 3001 
Q 1428 2844 1947 2747 
L 2328 2669 
Q 3034 2534 3370 2195 
Q 3706 1856 3706 1288 
Q 3706 609 3251 259 
Q 2797 -91 1919 -91 
Q 1588 -91 1214 -16 
Q 841 59 441 206 
L 441 856 
Q 825 641 1194 531 
Q 1563 422 1919 422 
Q 2459 422 2753 634 
Q 3047 847 3047 1241 
Q 3047 1584 2836 1778 
Q 2625 1972 2144 2069 
L 1759 2144 
Q 1053 2284 737 2584 
Q 422 2884 422 3419 
Q 422 4038 858 4394 
Q 1294 4750 2059 4750 
Q 2388 4750 2728 4690 
Q 3069 4631 3425 4513 
z
" transform="scale(0.015625)"/>
      </defs>
      <use xlink:href="#DejaVuSans-47"/>
      <use xlink:href="#DejaVuSans-6c" x="77.490234"/>
      <use xlink:href="#DejaVuSans-6f" x="105.273438"/>
      <use xlink:href="#DejaVuSans-62" x="166.455078"/>
      <use xlink:href="#DejaVuSans-61" x="229.931641"/>
      <use xlink:href="#DejaVuSans-6c" x="291.210938"/>
      <use xlink:href="#DejaVuSans-20" x="318.994141"/>
      <use xlink:href="#DejaVuSans-46" x="350.78125"/>
      <use xlink:href="#DejaVuSans-31" x="408.300781"/>
      <use xlink:href="#DejaVuSans-20" x="471.923828"/>
      <use xlink:href="#DejaVuSans-53" x="503.710938"/>
      <use xlink:href="#DejaVuSans-63" x="567.1875"/>
      <use xlink:href="#DejaVuSans-6f" x="622.167969"/>
      <use xlink:href="#DejaVuSans-72" x="683.349609"/>
      <use xlink:href="#DejaVuSans-65" x="722.212891"/>
     </g>
    </g>
   </g>
   <g id="line2d_65">
    <path d="M 638.148523 331.863588 
L 642.949992 322.01986 
L 647.751461 310.363477 
L 652.55293 300.418765 
L 657.3544 285.524215 
L 662.155869 266.440708 
L 666.957338 249.065522 
L 671.758807 231.683542 
L 676.560277 215.736712 
L 681.361746 199.645717 
L 686.163215 184.694081 
L 690.964684 170.913071 
L 695.766154 156.488564 
L 700.567623 142.751447 
L 705.369092 128.200587 
L 710.170561 116.882751 
L 714.972031 107.507702 
L 719.7735 99.88032 
L 724.574969 93.929342 
L 729.376438 88.48424 
L 734.177907 82.241619 
L 738.979377 78.166897 
L 743.780846 72.844787 
L 748.582315 68.257533 
L 753.383784 64.179103 
L 758.185254 60.195256 
L 762.986723 57.258407 
L 767.788192 54.8777 
L 772.589661 53.024028 
L 777.391131 51.47896 
L 782.1926 50.174598 
L 786.994069 49.042466 
L 791.795538 48.199646 
L 796.597008 47.551966 
L 801.398477 46.737596 
L 806.199946 45.720925 
L 811.001415 44.982821 
L 815.802885 44.479737 
L 820.604354 43.852815 
L 825.405823 42.993287 
L 830.207292 42.051587 
L 835.008761 41.686845 
L 839.810231 41.396459 
L 844.6117 41.127184 
L 849.413169 40.872835 
L 854.214638 40.725363 
L 859.016108 40.565645 
L 863.817577 40.402501 
L 868.619046 40.279649 
L 873.420515 40.152039 
L 878.221985 40.02333 
L 883.023454 39.922532 
L 887.824923 39.829044 
L 892.626392 39.747253 
L 897.427862 39.616441 
L 902.229331 39.530742 
L 907.0308 39.474859 
L 911.832269 39.391243 
L 916.633739 39.340249 
L 921.435208 39.273639 
L 926.236677 39.227101 
L 931.038146 39.189006 
L 935.839615 39.162945 
L 940.641085 39.132879 
L 945.442554 39.104409 
L 950.244023 39.091561 
L 955.045492 39.064277 
L 959.846962 39.042239 
L 964.648431 39.002946 
L 969.4499 38.985279 
L 974.251369 38.966434 
L 979.052839 38.950415 
L 983.854308 38.941584 
L 988.655777 38.933576 
L 993.457246 38.91756 
L 998.258716 38.915147 
L 1003.060185 38.913145 
L 1007.861654 38.912735 
L 1012.663123 38.898312 
L 1017.464593 38.887484 
L 1022.266062 38.883481 
L 1027.067531 38.877476 
L 1031.869 38.877066 
L 1036.670469 38.868651 
L 1041.471939 38.866649 
L 1046.273408 38.858644 
L 1051.074877 38.854641 
L 1055.876346 38.855823 
L 1060.677816 38.851821 
L 1065.479285 38.851411 
L 1070.280754 38.847409 
L 1075.082223 38.845408 
L 1079.883693 38.841406 
L 1084.685162 38.839405 
L 1089.486631 38.835403 
L 1094.2881 38.831401 
L 1099.08957 38.831401 
L 1103.891039 38.827399 
L 1108.692508 38.825398 
L 1113.493977 38.825398 
" clip-path="url(#pf01beb63fa)" style="fill: none; stroke: #1f77b4; stroke-width: 2; stroke-linecap: square"/>
   </g>
   <g id="line2d_66">
    <path d="M 638.148523 329.597879 
L 642.949992 321.463719 
L 647.751461 310.730735 
L 652.55293 298.868935 
L 657.3544 285.964952 
L 662.155869 274.02679 
L 666.957338 256.143134 
L 671.758807 242.369296 
L 676.560277 227.995756 
L 681.361746 215.958318 
L 686.163215 202.070797 
L 690.964684 191.117139 
L 695.766154 179.064395 
L 700.567623 167.881392 
L 705.369092 156.369663 
L 710.170561 148.196166 
L 714.972031 139.723953 
L 719.7735 126.265971 
L 724.574969 119.242447 
L 729.376438 111.315549 
L 734.177907 104.422998 
L 738.979377 99.04619 
L 743.780846 94.754126 
L 748.582315 90.608464 
L 753.383784 86.866032 
L 758.185254 81.376321 
L 762.986723 76.668697 
L 767.788192 73.098721 
L 772.589661 70.20907 
L 777.391131 67.295943 
L 782.1926 65.151619 
L 786.994069 62.864467 
L 791.795538 60.630248 
L 796.597008 58.048491 
L 801.398477 56.013676 
L 806.199946 54.154355 
L 811.001415 52.667979 
L 815.802885 51.337446 
L 820.604354 50.271202 
L 825.405823 49.328563 
L 830.207292 48.466298 
L 835.008761 47.978048 
L 839.810231 47.55292 
L 844.6117 46.934343 
L 849.413169 46.539745 
L 854.214638 46.091372 
L 859.016108 45.600752 
L 863.817577 45.224444 
L 868.619046 44.871915 
L 873.420515 44.44391 
L 878.221985 44.149187 
L 883.023454 43.90109 
L 887.824923 43.742804 
L 892.626392 43.5123 
L 897.427862 43.176833 
L 902.229331 42.887341 
L 907.0308 42.653292 
L 911.832269 42.466087 
L 916.633739 42.151527 
L 921.435208 41.822268 
L 926.236677 41.195242 
L 931.038146 40.739256 
L 935.839615 40.583364 
L 940.641085 40.443004 
L 945.442554 40.332288 
L 950.244023 40.230869 
L 955.045492 40.160664 
L 959.846962 40.06863 
L 964.648431 39.989571 
L 969.4499 39.939148 
L 974.251369 39.846818 
L 979.052839 39.759823 
L 983.854308 39.71341 
L 988.655777 39.642981 
L 993.457246 39.591496 
L 998.258716 39.545635 
L 1003.060185 39.506644 
L 1007.861654 39.471677 
L 1012.663123 39.445505 
L 1017.464593 39.390067 
L 1022.266062 39.357545 
L 1027.067531 39.312993 
L 1031.869 39.270456 
L 1036.670469 39.252406 
L 1041.471939 39.225096 
L 1046.273408 39.219018 
L 1051.074877 39.197728 
L 1055.876346 39.183696 
L 1060.677816 39.173673 
L 1065.479285 39.158816 
L 1070.280754 39.146377 
L 1075.082223 39.137948 
L 1079.883693 39.115491 
L 1084.685162 39.099048 
L 1089.486631 39.088206 
L 1094.2881 39.07978 
L 1099.08957 39.067759 
L 1103.891039 39.059334 
L 1108.692508 39.045311 
L 1113.493977 39.029287 
" clip-path="url(#pf01beb63fa)" style="fill: none; stroke: #ff7f0e; stroke-width: 2; stroke-linecap: square"/>
   </g>
   <g id="line2d_67">
    <path d="M 638.148523 366.125766 
L 642.949992 367.229312 
L 647.751461 368.81887 
L 652.55293 368.970852 
L 657.3544 366.461435 
L 662.155869 365.305891 
L 666.957338 362.590262 
L 671.758807 362.403385 
L 676.560277 356.373985 
L 681.361746 346.51938 
L 686.163215 333.956783 
L 690.964684 329.852328 
L 695.766154 319.858298 
L 700.567623 312.345489 
L 705.369092 308.553607 
L 710.170561 301.719611 
L 714.972031 295.446205 
L 719.7735 287.012408 
L 724.574969 277.162788 
L 729.376438 265.54792 
L 734.177907 254.766672 
L 738.979377 253.509689 
L 743.780846 245.925346 
L 748.582315 242.274287 
L 753.383784 238.318697 
L 758.185254 235.855136 
L 762.986723 234.59212 
L 767.788192 232.254298 
L 772.589661 232.659056 
L 777.391131 228.526389 
L 782.1926 224.772273 
L 786.994069 225.380606 
L 791.795538 205.53539 
L 796.597008 203.626277 
L 801.398477 186.449575 
L 806.199946 177.648174 
L 811.001415 164.561489 
L 815.802885 170.116364 
L 820.604354 150.970307 
L 825.405823 150.641637 
L 830.207292 153.067473 
L 835.008761 160.866427 
L 839.810231 153.057239 
L 844.6117 135.946389 
L 849.413169 153.271748 
L 854.214638 133.749387 
L 859.016108 129.38662 
L 863.817577 130.96701 
L 868.619046 115.401258 
L 873.420515 118.211581 
L 878.221985 103.834678 
L 883.023454 99.991457 
L 887.824923 97.860611 
L 892.626392 101.188919 
L 897.427862 90.872323 
L 902.229331 91.103088 
L 907.0308 89.512308 
L 911.832269 85.623242 
L 916.633739 85.266131 
L 921.435208 81.259196 
L 926.236677 78.815909 
L 931.038146 75.704438 
L 935.839615 71.172816 
L 940.641085 76.180593 
L 945.442554 75.195565 
L 950.244023 63.346954 
L 955.045492 69.087323 
L 959.846962 67.691233 
L 964.648431 66.781437 
L 969.4499 62.963686 
L 974.251369 62.143545 
L 979.052839 61.747125 
L 983.854308 57.103374 
L 988.655777 55.202044 
L 993.457246 53.776311 
L 998.258716 52.032686 
L 1003.060185 52.666884 
L 1007.861654 50.810707 
L 1012.663123 49.476782 
L 1017.464593 52.311324 
L 1022.266062 49.427716 
L 1027.067531 47.004438 
L 1031.869 46.929823 
L 1036.670469 47.084206 
L 1041.471939 45.760473 
L 1046.273408 44.949689 
L 1051.074877 45.786152 
L 1055.876346 45.641185 
L 1060.677816 45.415128 
L 1065.479285 44.847911 
L 1070.280754 43.933512 
L 1075.082223 43.246605 
L 1079.883693 44.544485 
L 1084.685162 42.948251 
L 1089.486631 42.27762 
L 1094.2881 42.73924 
L 1099.08957 42.698792 
L 1103.891039 42.757333 
L 1108.692508 42.666626 
L 1113.493977 40.525319 
" clip-path="url(#pf01beb63fa)" style="fill: none; stroke: #2ca02c; stroke-width: 2; stroke-linecap: square"/>
   </g>
   <g id="patch_9">
    <path d="M 614.38125 385.478125 
L 614.38125 22.318125 
" style="fill: none; stroke: #000000; stroke-width: 0.8; stroke-linejoin: miter; stroke-linecap: square"/>
   </g>
   <g id="patch_10">
    <path d="M 1137.26125 385.478125 
L 1137.26125 22.318125 
" style="fill: none; stroke: #000000; stroke-width: 0.8; stroke-linejoin: miter; stroke-linecap: square"/>
   </g>
   <g id="patch_11">
    <path d="M 614.38125 385.478125 
L 1137.26125 385.478125 
" style="fill: none; stroke: #000000; stroke-width: 0.8; stroke-linejoin: miter; stroke-linecap: square"/>
   </g>
   <g id="patch_12">
    <path d="M 614.38125 22.318125 
L 1137.26125 22.318125 
" style="fill: none; stroke: #000000; stroke-width: 0.8; stroke-linejoin: miter; stroke-linecap: square"/>
   </g>
   <g id="text_38">
    <!-- F1 Score Comparison - opp -->
    <g transform="translate(794.744375 16.318125) scale(0.12 -0.12)">
     <use xlink:href="#DejaVuSans-46"/>
     <use xlink:href="#DejaVuSans-31" x="57.519531"/>
     <use xlink:href="#DejaVuSans-20" x="121.142578"/>
     <use xlink:href="#DejaVuSans-53" x="152.929688"/>
     <use xlink:href="#DejaVuSans-63" x="216.40625"/>
     <use xlink:href="#DejaVuSans-6f" x="271.386719"/>
     <use xlink:href="#DejaVuSans-72" x="332.568359"/>
     <use xlink:href="#DejaVuSans-65" x="371.431641"/>
     <use xlink:href="#DejaVuSans-20" x="432.955078"/>
     <use xlink:href="#DejaVuSans-43" x="464.742188"/>
     <use xlink:href="#DejaVuSans-6f" x="534.566406"/>
     <use xlink:href="#DejaVuSans-6d" x="595.748047"/>
     <use xlink:href="#DejaVuSans-70" x="693.160156"/>
     <use xlink:href="#DejaVuSans-61" x="756.636719"/>
     <use xlink:href="#DejaVuSans-72" x="817.916016"/>
     <use xlink:href="#DejaVuSans-69" x="859.029297"/>
     <use xlink:href="#DejaVuSans-73" x="886.8125"/>
     <use xlink:href="#DejaVuSans-6f" x="938.912109"/>
     <use xlink:href="#DejaVuSans-6e" x="1000.09375"/>
     <use xlink:href="#DejaVuSans-20" x="1063.472656"/>
     <use xlink:href="#DejaVuSans-2d" x="1095.259766"/>
     <use xlink:href="#DejaVuSans-20" x="1131.34375"/>
     <use xlink:href="#DejaVuSans-6f" x="1163.130859"/>
     <use xlink:href="#DejaVuSans-70" x="1224.3125"/>
     <use xlink:href="#DejaVuSans-70" x="1287.789062"/>
    </g>
   </g>
   <g id="legend_2">
    <g id="patch_13">
     <path d="M 621.38125 74.3525 
L 692.104688 74.3525 
Q 694.104688 74.3525 694.104688 72.3525 
L 694.104688 29.318125 
Q 694.104688 27.318125 692.104688 27.318125 
L 621.38125 27.318125 
Q 619.38125 27.318125 619.38125 29.318125 
L 619.38125 72.3525 
Q 619.38125 74.3525 621.38125 74.3525 
z
" style="fill: #ffffff; opacity: 0.8; stroke: #cccccc; stroke-linejoin: miter"/>
    </g>
    <g id="line2d_68">
     <path d="M 623.38125 35.416562 
L 633.38125 35.416562 
L 643.38125 35.416562 
" style="fill: none; stroke: #1f77b4; stroke-width: 2; stroke-linecap: square"/>
    </g>
    <g id="text_39">
     <!-- fedprop -->
     <g transform="translate(651.38125 38.916562) scale(0.1 -0.1)">
      <use xlink:href="#DejaVuSans-66"/>
      <use xlink:href="#DejaVuSans-65" x="35.205078"/>
      <use xlink:href="#DejaVuSans-64" x="96.728516"/>
      <use xlink:href="#DejaVuSans-70" x="160.205078"/>
      <use xlink:href="#DejaVuSans-72" x="223.681641"/>
      <use xlink:href="#DejaVuSans-6f" x="262.544922"/>
      <use xlink:href="#DejaVuSans-70" x="323.726562"/>
     </g>
    </g>
    <g id="line2d_69">
     <path d="M 623.38125 50.094687 
L 633.38125 50.094687 
L 643.38125 50.094687 
" style="fill: none; stroke: #ff7f0e; stroke-width: 2; stroke-linecap: square"/>
    </g>
    <g id="text_40">
     <!-- fedcent -->
     <g transform="translate(651.38125 53.594687) scale(0.1 -0.1)">
      <use xlink:href="#DejaVuSans-66"/>
      <use xlink:href="#DejaVuSans-65" x="35.205078"/>
      <use xlink:href="#DejaVuSans-64" x="96.728516"/>
      <use xlink:href="#DejaVuSans-63" x="160.205078"/>
      <use xlink:href="#DejaVuSans-65" x="215.185547"/>
      <use xlink:href="#DejaVuSans-6e" x="276.708984"/>
      <use xlink:href="#DejaVuSans-74" x="340.087891"/>
     </g>
    </g>
    <g id="line2d_70">
     <path d="M 623.38125 64.772812 
L 633.38125 64.772812 
L 643.38125 64.772812 
" style="fill: none; stroke: #2ca02c; stroke-width: 2; stroke-linecap: square"/>
    </g>
    <g id="text_41">
     <!-- fedprox -->
     <g transform="translate(651.38125 68.272812) scale(0.1 -0.1)">
      <use xlink:href="#DejaVuSans-66"/>
      <use xlink:href="#DejaVuSans-65" x="35.205078"/>
      <use xlink:href="#DejaVuSans-64" x="96.728516"/>
      <use xlink:href="#DejaVuSans-70" x="160.205078"/>
      <use xlink:href="#DejaVuSans-72" x="223.681641"/>
      <use xlink:href="#DejaVuSans-6f" x="262.544922"/>
      <use xlink:href="#DejaVuSans-78" x="320.601562"/>
     </g>
    </g>
   </g>
  </g>
 </g>
 <defs>
  <clipPath id="pabe1145bf7">
   <rect x="43.78125" y="22.318125" width="522.88" height="363.16"/>
  </clipPath>
  <clipPath id="pf01beb63fa">
   <rect x="614.38125" y="22.318125" width="522.88" height="363.16"/>
  </clipPath>
 </defs>
</svg>
