<?xml version="1.0" encoding="utf-8" standalone="no"?>
<!DOCTYPE svg PUBLIC "-//W3C//DTD SVG 1.1//EN"
  "http://www.w3.org/Graphics/SVG/1.1/DTD/svg11.dtd">
<svg xmlns:xlink="http://www.w3.org/1999/xlink" width="1144.46125pt" height="423.034375pt" viewBox="0 0 1144.46125 423.034375" xmlns="http://www.w3.org/2000/svg" version="1.1">
 <metadata>
  <rdf:RDF xmlns:dc="http://purl.org/dc/elements/1.1/" xmlns:cc="http://creativecommons.org/ns#" xmlns:rdf="http://www.w3.org/1999/02/22-rdf-syntax-ns#">
   <cc:Work>
    <dc:type rdf:resource="http://purl.org/dc/dcmitype/StillImage"/>
    <dc:date>2025-11-21T19:53:15.632133</dc:date>
    <dc:format>image/svg+xml</dc:format>
    <dc:creator>
     <cc:Agent>
      <dc:title>Matplotlib v3.9.4, https://matplotlib.org/</dc:title>
     </cc:Agent>
    </dc:creator>
   </cc:Work>
  </rdf:RDF>
 </metadata>
 <defs>
  <style type="text/css">*{stroke-linejoin: round; stroke-linecap: butt}</style>
 </defs>
 <g id="figure_1">
  <g id="patch_1">
   <path d="M 0 423.034375 
L 1144.46125 423.034375 
L 1144.46125 0 
L 0 0 
z
" style="fill: #ffffff"/>
  </g>
  <g id="axes_1">
   <g id="patch_2">
    <path d="M 43.78125 385.478125 
L 566.66125 385.478125 
L 566.66125 22.318125 
L 43.78125 22.318125 
z
" style="fill: #ffffff"/>
   </g>
   <g id="matplotlib.axis_1">
    <g id="xtick_1">
     <g id="line2d_1">
      <path d="M 62.747053 385.478125 
L 62.747053 22.318125 
" clip-path="url(#p8d202ac7ca)" style="fill: none; stroke: #b0b0b0; stroke-opacity: 0.3; stroke-width: 0.8; stroke-linecap: square"/>
     </g>
     <g id="line2d_2">
      <defs>
       <path id="mabf4a36101" d="M 0 0 
L 0 3.5 
" style="stroke: #000000; stroke-width: 0.8"/>
      </defs>
      <g>
       <use xlink:href="#mabf4a36101" x="62.747053" y="385.478125" style="stroke: #000000; stroke-width: 0.8"/>
      </g>
     </g>
     <g id="text_1">
      <!-- 0 -->
      <g transform="translate(59.565803 400.076562) scale(0.1 -0.1)">
       <defs>
        <path id="DejaVuSans-30" d="M 2034 4250 
Q 1547 4250 1301 3770 
Q 1056 3291 1056 2328 
Q 1056 1369 1301 889 
Q 1547 409 2034 409 
Q 2525 409 2770 889 
Q 3016 1369 3016 2328 
Q 3016 3291 2770 3770 
Q 2525 4250 2034 4250 
z
M 2034 4750 
Q 2819 4750 3233 4129 
Q 3647 3509 3647 2328 
Q 3647 1150 3233 529 
Q 2819 -91 2034 -91 
Q 1250 -91 836 529 
Q 422 1150 422 2328 
Q 422 3509 836 4129 
Q 1250 4750 2034 4750 
z
" transform="scale(0.015625)"/>
       </defs>
       <use xlink:href="#DejaVuSans-30"/>
      </g>
     </g>
    </g>
    <g id="xtick_2">
     <g id="line2d_3">
      <path d="M 158.776438 385.478125 
L 158.776438 22.318125 
" clip-path="url(#p8d202ac7ca)" style="fill: none; stroke: #b0b0b0; stroke-opacity: 0.3; stroke-width: 0.8; stroke-linecap: square"/>
     </g>
     <g id="line2d_4">
      <g>
       <use xlink:href="#mabf4a36101" x="158.776438" y="385.478125" style="stroke: #000000; stroke-width: 0.8"/>
      </g>
     </g>
     <g id="text_2">
      <!-- 20 -->
      <g transform="translate(152.413938 400.076562) scale(0.1 -0.1)">
       <defs>
        <path id="DejaVuSans-32" d="M 1228 531 
L 3431 531 
L 3431 0 
L 469 0 
L 469 531 
Q 828 903 1448 1529 
Q 2069 2156 2228 2338 
Q 2531 2678 2651 2914 
Q 2772 3150 2772 3378 
Q 2772 3750 2511 3984 
Q 2250 4219 1831 4219 
Q 1534 4219 1204 4116 
Q 875 4013 500 3803 
L 500 4441 
Q 881 4594 1212 4672 
Q 1544 4750 1819 4750 
Q 2544 4750 2975 4387 
Q 3406 4025 3406 3419 
Q 3406 3131 3298 2873 
Q 3191 2616 2906 2266 
Q 2828 2175 2409 1742 
Q 1991 1309 1228 531 
z
" transform="scale(0.015625)"/>
       </defs>
       <use xlink:href="#DejaVuSans-32"/>
       <use xlink:href="#DejaVuSans-30" x="63.623047"/>
      </g>
     </g>
    </g>
    <g id="xtick_3">
     <g id="line2d_5">
      <path d="M 254.805823 385.478125 
L 254.805823 22.318125 
" clip-path="url(#p8d202ac7ca)" style="fill: none; stroke: #b0b0b0; stroke-opacity: 0.3; stroke-width: 0.8; stroke-linecap: square"/>
     </g>
     <g id="line2d_6">
      <g>
       <use xlink:href="#mabf4a36101" x="254.805823" y="385.478125" style="stroke: #000000; stroke-width: 0.8"/>
      </g>
     </g>
     <g id="text_3">
      <!-- 40 -->
      <g transform="translate(248.443323 400.076562) scale(0.1 -0.1)">
       <defs>
        <path id="DejaVuSans-34" d="M 2419 4116 
L 825 1625 
L 2419 1625 
L 2419 4116 
z
M 2253 4666 
L 3047 4666 
L 3047 1625 
L 3713 1625 
L 3713 1100 
L 3047 1100 
L 3047 0 
L 2419 0 
L 2419 1100 
L 313 1100 
L 313 1709 
L 2253 4666 
z
" transform="scale(0.015625)"/>
       </defs>
       <use xlink:href="#DejaVuSans-34"/>
       <use xlink:href="#DejaVuSans-30" x="63.623047"/>
      </g>
     </g>
    </g>
    <g id="xtick_4">
     <g id="line2d_7">
      <path d="M 350.835208 385.478125 
L 350.835208 22.318125 
" clip-path="url(#p8d202ac7ca)" style="fill: none; stroke: #b0b0b0; stroke-opacity: 0.3; stroke-width: 0.8; stroke-linecap: square"/>
     </g>
     <g id="line2d_8">
      <g>
       <use xlink:href="#mabf4a36101" x="350.835208" y="385.478125" style="stroke: #000000; stroke-width: 0.8"/>
      </g>
     </g>
     <g id="text_4">
      <!-- 60 -->
      <g transform="translate(344.472708 400.076562) scale(0.1 -0.1)">
       <defs>
        <path id="DejaVuSans-36" d="M 2113 2584 
Q 1688 2584 1439 2293 
Q 1191 2003 1191 1497 
Q 1191 994 1439 701 
Q 1688 409 2113 409 
Q 2538 409 2786 701 
Q 3034 994 3034 1497 
Q 3034 2003 2786 2293 
Q 2538 2584 2113 2584 
z
M 3366 4563 
L 3366 3988 
Q 3128 4100 2886 4159 
Q 2644 4219 2406 4219 
Q 1781 4219 1451 3797 
Q 1122 3375 1075 2522 
Q 1259 2794 1537 2939 
Q 1816 3084 2150 3084 
Q 2853 3084 3261 2657 
Q 3669 2231 3669 1497 
Q 3669 778 3244 343 
Q 2819 -91 2113 -91 
Q 1303 -91 875 529 
Q 447 1150 447 2328 
Q 447 3434 972 4092 
Q 1497 4750 2381 4750 
Q 2619 4750 2861 4703 
Q 3103 4656 3366 4563 
z
" transform="scale(0.015625)"/>
       </defs>
       <use xlink:href="#DejaVuSans-36"/>
       <use xlink:href="#DejaVuSans-30" x="63.623047"/>
      </g>
     </g>
    </g>
    <g id="xtick_5">
     <g id="line2d_9">
      <path d="M 446.864593 385.478125 
L 446.864593 22.318125 
" clip-path="url(#p8d202ac7ca)" style="fill: none; stroke: #b0b0b0; stroke-opacity: 0.3; stroke-width: 0.8; stroke-linecap: square"/>
     </g>
     <g id="line2d_10">
      <g>
       <use xlink:href="#mabf4a36101" x="446.864593" y="385.478125" style="stroke: #000000; stroke-width: 0.8"/>
      </g>
     </g>
     <g id="text_5">
      <!-- 80 -->
      <g transform="translate(440.502093 400.076562) scale(0.1 -0.1)">
       <defs>
        <path id="DejaVuSans-38" d="M 2034 2216 
Q 1584 2216 1326 1975 
Q 1069 1734 1069 1313 
Q 1069 891 1326 650 
Q 1584 409 2034 409 
Q 2484 409 2743 651 
Q 3003 894 3003 1313 
Q 3003 1734 2745 1975 
Q 2488 2216 2034 2216 
z
M 1403 2484 
Q 997 2584 770 2862 
Q 544 3141 544 3541 
Q 544 4100 942 4425 
Q 1341 4750 2034 4750 
Q 2731 4750 3128 4425 
Q 3525 4100 3525 3541 
Q 3525 3141 3298 2862 
Q 3072 2584 2669 2484 
Q 3125 2378 3379 2068 
Q 3634 1759 3634 1313 
Q 3634 634 3220 271 
Q 2806 -91 2034 -91 
Q 1263 -91 848 271 
Q 434 634 434 1313 
Q 434 1759 690 2068 
Q 947 2378 1403 2484 
z
M 1172 3481 
Q 1172 3119 1398 2916 
Q 1625 2713 2034 2713 
Q 2441 2713 2670 2916 
Q 2900 3119 2900 3481 
Q 2900 3844 2670 4047 
Q 2441 4250 2034 4250 
Q 1625 4250 1398 4047 
Q 1172 3844 1172 3481 
z
" transform="scale(0.015625)"/>
       </defs>
       <use xlink:href="#DejaVuSans-38"/>
       <use xlink:href="#DejaVuSans-30" x="63.623047"/>
      </g>
     </g>
    </g>
    <g id="xtick_6">
     <g id="line2d_11">
      <path d="M 542.893977 385.478125 
L 542.893977 22.318125 
" clip-path="url(#p8d202ac7ca)" style="fill: none; stroke: #b0b0b0; stroke-opacity: 0.3; stroke-width: 0.8; stroke-linecap: square"/>
     </g>
     <g id="line2d_12">
      <g>
       <use xlink:href="#mabf4a36101" x="542.893977" y="385.478125" style="stroke: #000000; stroke-width: 0.8"/>
      </g>
     </g>
     <g id="text_6">
      <!-- 100 -->
      <g transform="translate(533.350227 400.076562) scale(0.1 -0.1)">
       <defs>
        <path id="DejaVuSans-31" d="M 794 531 
L 1825 531 
L 1825 4091 
L 703 3866 
L 703 4441 
L 1819 4666 
L 2450 4666 
L 2450 531 
L 3481 531 
L 3481 0 
L 794 0 
L 794 531 
z
" transform="scale(0.015625)"/>
       </defs>
       <use xlink:href="#DejaVuSans-31"/>
       <use xlink:href="#DejaVuSans-30" x="63.623047"/>
       <use xlink:href="#DejaVuSans-30" x="127.246094"/>
      </g>
     </g>
    </g>
    <g id="text_7">
     <!-- Communication Rounds -->
     <g transform="translate(245.798594 413.754687) scale(0.1 -0.1)">
      <defs>
       <path id="DejaVuSans-43" d="M 4122 4306 
L 4122 3641 
Q 3803 3938 3442 4084 
Q 3081 4231 2675 4231 
Q 1875 4231 1450 3742 
Q 1025 3253 1025 2328 
Q 1025 1406 1450 917 
Q 1875 428 2675 428 
Q 3081 428 3442 575 
Q 3803 722 4122 1019 
L 4122 359 
Q 3791 134 3420 21 
Q 3050 -91 2638 -91 
Q 1578 -91 968 557 
Q 359 1206 359 2328 
Q 359 3453 968 4101 
Q 1578 4750 2638 4750 
Q 3056 4750 3426 4639 
Q 3797 4528 4122 4306 
z
" transform="scale(0.015625)"/>
       <path id="DejaVuSans-6f" d="M 1959 3097 
Q 1497 3097 1228 2736 
Q 959 2375 959 1747 
Q 959 1119 1226 758 
Q 1494 397 1959 397 
Q 2419 397 2687 759 
Q 2956 1122 2956 1747 
Q 2956 2369 2687 2733 
Q 2419 3097 1959 3097 
z
M 1959 3584 
Q 2709 3584 3137 3096 
Q 3566 2609 3566 1747 
Q 3566 888 3137 398 
Q 2709 -91 1959 -91 
Q 1206 -91 779 398 
Q 353 888 353 1747 
Q 353 2609 779 3096 
Q 1206 3584 1959 3584 
z
" transform="scale(0.015625)"/>
       <path id="DejaVuSans-6d" d="M 3328 2828 
Q 3544 3216 3844 3400 
Q 4144 3584 4550 3584 
Q 5097 3584 5394 3201 
Q 5691 2819 5691 2113 
L 5691 0 
L 5113 0 
L 5113 2094 
Q 5113 2597 4934 2840 
Q 4756 3084 4391 3084 
Q 3944 3084 3684 2787 
Q 3425 2491 3425 1978 
L 3425 0 
L 2847 0 
L 2847 2094 
Q 2847 2600 2669 2842 
Q 2491 3084 2119 3084 
Q 1678 3084 1418 2786 
Q 1159 2488 1159 1978 
L 1159 0 
L 581 0 
L 581 3500 
L 1159 3500 
L 1159 2956 
Q 1356 3278 1631 3431 
Q 1906 3584 2284 3584 
Q 2666 3584 2933 3390 
Q 3200 3197 3328 2828 
z
" transform="scale(0.015625)"/>
       <path id="DejaVuSans-75" d="M 544 1381 
L 544 3500 
L 1119 3500 
L 1119 1403 
Q 1119 906 1312 657 
Q 1506 409 1894 409 
Q 2359 409 2629 706 
Q 2900 1003 2900 1516 
L 2900 3500 
L 3475 3500 
L 3475 0 
L 2900 0 
L 2900 538 
Q 2691 219 2414 64 
Q 2138 -91 1772 -91 
Q 1169 -91 856 284 
Q 544 659 544 1381 
z
M 1991 3584 
L 1991 3584 
z
" transform="scale(0.015625)"/>
       <path id="DejaVuSans-6e" d="M 3513 2113 
L 3513 0 
L 2938 0 
L 2938 2094 
Q 2938 2591 2744 2837 
Q 2550 3084 2163 3084 
Q 1697 3084 1428 2787 
Q 1159 2491 1159 1978 
L 1159 0 
L 581 0 
L 581 3500 
L 1159 3500 
L 1159 2956 
Q 1366 3272 1645 3428 
Q 1925 3584 2291 3584 
Q 2894 3584 3203 3211 
Q 3513 2838 3513 2113 
z
" transform="scale(0.015625)"/>
       <path id="DejaVuSans-69" d="M 603 3500 
L 1178 3500 
L 1178 0 
L 603 0 
L 603 3500 
z
M 603 4863 
L 1178 4863 
L 1178 4134 
L 603 4134 
L 603 4863 
z
" transform="scale(0.015625)"/>
       <path id="DejaVuSans-63" d="M 3122 3366 
L 3122 2828 
Q 2878 2963 2633 3030 
Q 2388 3097 2138 3097 
Q 1578 3097 1268 2742 
Q 959 2388 959 1747 
Q 959 1106 1268 751 
Q 1578 397 2138 397 
Q 2388 397 2633 464 
Q 2878 531 3122 666 
L 3122 134 
Q 2881 22 2623 -34 
Q 2366 -91 2075 -91 
Q 1284 -91 818 406 
Q 353 903 353 1747 
Q 353 2603 823 3093 
Q 1294 3584 2113 3584 
Q 2378 3584 2631 3529 
Q 2884 3475 3122 3366 
z
" transform="scale(0.015625)"/>
       <path id="DejaVuSans-61" d="M 2194 1759 
Q 1497 1759 1228 1600 
Q 959 1441 959 1056 
Q 959 750 1161 570 
Q 1363 391 1709 391 
Q 2188 391 2477 730 
Q 2766 1069 2766 1631 
L 2766 1759 
L 2194 1759 
z
M 3341 1997 
L 3341 0 
L 2766 0 
L 2766 531 
Q 2569 213 2275 61 
Q 1981 -91 1556 -91 
Q 1019 -91 701 211 
Q 384 513 384 1019 
Q 384 1609 779 1909 
Q 1175 2209 1959 2209 
L 2766 2209 
L 2766 2266 
Q 2766 2663 2505 2880 
Q 2244 3097 1772 3097 
Q 1472 3097 1187 3025 
Q 903 2953 641 2809 
L 641 3341 
Q 956 3463 1253 3523 
Q 1550 3584 1831 3584 
Q 2591 3584 2966 3190 
Q 3341 2797 3341 1997 
z
" transform="scale(0.015625)"/>
       <path id="DejaVuSans-74" d="M 1172 4494 
L 1172 3500 
L 2356 3500 
L 2356 3053 
L 1172 3053 
L 1172 1153 
Q 1172 725 1289 603 
Q 1406 481 1766 481 
L 2356 481 
L 2356 0 
L 1766 0 
Q 1100 0 847 248 
Q 594 497 594 1153 
L 594 3053 
L 172 3053 
L 172 3500 
L 594 3500 
L 594 4494 
L 1172 4494 
z
" transform="scale(0.015625)"/>
       <path id="DejaVuSans-20" transform="scale(0.015625)"/>
       <path id="DejaVuSans-52" d="M 2841 2188 
Q 3044 2119 3236 1894 
Q 3428 1669 3622 1275 
L 4263 0 
L 3584 0 
L 2988 1197 
Q 2756 1666 2539 1819 
Q 2322 1972 1947 1972 
L 1259 1972 
L 1259 0 
L 628 0 
L 628 4666 
L 2053 4666 
Q 2853 4666 3247 4331 
Q 3641 3997 3641 3322 
Q 3641 2881 3436 2590 
Q 3231 2300 2841 2188 
z
M 1259 4147 
L 1259 2491 
L 2053 2491 
Q 2509 2491 2742 2702 
Q 2975 2913 2975 3322 
Q 2975 3731 2742 3939 
Q 2509 4147 2053 4147 
L 1259 4147 
z
" transform="scale(0.015625)"/>
       <path id="DejaVuSans-64" d="M 2906 2969 
L 2906 4863 
L 3481 4863 
L 3481 0 
L 2906 0 
L 2906 525 
Q 2725 213 2448 61 
Q 2172 -91 1784 -91 
Q 1150 -91 751 415 
Q 353 922 353 1747 
Q 353 2572 751 3078 
Q 1150 3584 1784 3584 
Q 2172 3584 2448 3432 
Q 2725 3281 2906 2969 
z
M 947 1747 
Q 947 1113 1208 752 
Q 1469 391 1925 391 
Q 2381 391 2643 752 
Q 2906 1113 2906 1747 
Q 2906 2381 2643 2742 
Q 2381 3103 1925 3103 
Q 1469 3103 1208 2742 
Q 947 2381 947 1747 
z
" transform="scale(0.015625)"/>
       <path id="DejaVuSans-73" d="M 2834 3397 
L 2834 2853 
Q 2591 2978 2328 3040 
Q 2066 3103 1784 3103 
Q 1356 3103 1142 2972 
Q 928 2841 928 2578 
Q 928 2378 1081 2264 
Q 1234 2150 1697 2047 
L 1894 2003 
Q 2506 1872 2764 1633 
Q 3022 1394 3022 966 
Q 3022 478 2636 193 
Q 2250 -91 1575 -91 
Q 1294 -91 989 -36 
Q 684 19 347 128 
L 347 722 
Q 666 556 975 473 
Q 1284 391 1588 391 
Q 1994 391 2212 530 
Q 2431 669 2431 922 
Q 2431 1156 2273 1281 
Q 2116 1406 1581 1522 
L 1381 1569 
Q 847 1681 609 1914 
Q 372 2147 372 2553 
Q 372 3047 722 3315 
Q 1072 3584 1716 3584 
Q 2034 3584 2315 3537 
Q 2597 3491 2834 3397 
z
" transform="scale(0.015625)"/>
      </defs>
      <use xlink:href="#DejaVuSans-43"/>
      <use xlink:href="#DejaVuSans-6f" x="69.824219"/>
      <use xlink:href="#DejaVuSans-6d" x="131.005859"/>
      <use xlink:href="#DejaVuSans-6d" x="228.417969"/>
      <use xlink:href="#DejaVuSans-75" x="325.830078"/>
      <use xlink:href="#DejaVuSans-6e" x="389.208984"/>
      <use xlink:href="#DejaVuSans-69" x="452.587891"/>
      <use xlink:href="#DejaVuSans-63" x="480.371094"/>
      <use xlink:href="#DejaVuSans-61" x="535.351562"/>
      <use xlink:href="#DejaVuSans-74" x="596.630859"/>
      <use xlink:href="#DejaVuSans-69" x="635.839844"/>
      <use xlink:href="#DejaVuSans-6f" x="663.623047"/>
      <use xlink:href="#DejaVuSans-6e" x="724.804688"/>
      <use xlink:href="#DejaVuSans-20" x="788.183594"/>
      <use xlink:href="#DejaVuSans-52" x="819.970703"/>
      <use xlink:href="#DejaVuSans-6f" x="884.953125"/>
      <use xlink:href="#DejaVuSans-75" x="946.134766"/>
      <use xlink:href="#DejaVuSans-6e" x="1009.513672"/>
      <use xlink:href="#DejaVuSans-64" x="1072.892578"/>
      <use xlink:href="#DejaVuSans-73" x="1136.369141"/>
     </g>
    </g>
   </g>
   <g id="matplotlib.axis_2">
    <g id="ytick_1">
     <g id="line2d_13">
      <path d="M 43.78125 374.71149 
L 566.66125 374.71149 
" clip-path="url(#p8d202ac7ca)" style="fill: none; stroke: #b0b0b0; stroke-opacity: 0.3; stroke-width: 0.8; stroke-linecap: square"/>
     </g>
     <g id="line2d_14">
      <defs>
       <path id="m028ed488f3" d="M 0 0 
L -3.5 0 
" style="stroke: #000000; stroke-width: 0.8"/>
      </defs>
      <g>
       <use xlink:href="#m028ed488f3" x="43.78125" y="374.71149" style="stroke: #000000; stroke-width: 0.8"/>
      </g>
     </g>
     <g id="text_8">
      <!-- 0.0 -->
      <g transform="translate(20.878125 378.510709) scale(0.1 -0.1)">
       <defs>
        <path id="DejaVuSans-2e" d="M 684 794 
L 1344 794 
L 1344 0 
L 684 0 
L 684 794 
z
" transform="scale(0.015625)"/>
       </defs>
       <use xlink:href="#DejaVuSans-30"/>
       <use xlink:href="#DejaVuSans-2e" x="63.623047"/>
       <use xlink:href="#DejaVuSans-30" x="95.410156"/>
      </g>
     </g>
    </g>
    <g id="ytick_2">
     <g id="line2d_15">
      <path d="M 43.78125 332.520833 
L 566.66125 332.520833 
" clip-path="url(#p8d202ac7ca)" style="fill: none; stroke: #b0b0b0; stroke-opacity: 0.3; stroke-width: 0.8; stroke-linecap: square"/>
     </g>
     <g id="line2d_16">
      <g>
       <use xlink:href="#m028ed488f3" x="43.78125" y="332.520833" style="stroke: #000000; stroke-width: 0.8"/>
      </g>
     </g>
     <g id="text_9">
      <!-- 0.1 -->
      <g transform="translate(20.878125 336.320052) scale(0.1 -0.1)">
       <use xlink:href="#DejaVuSans-30"/>
       <use xlink:href="#DejaVuSans-2e" x="63.623047"/>
       <use xlink:href="#DejaVuSans-31" x="95.410156"/>
      </g>
     </g>
    </g>
    <g id="ytick_3">
     <g id="line2d_17">
      <path d="M 43.78125 290.330176 
L 566.66125 290.330176 
" clip-path="url(#p8d202ac7ca)" style="fill: none; stroke: #b0b0b0; stroke-opacity: 0.3; stroke-width: 0.8; stroke-linecap: square"/>
     </g>
     <g id="line2d_18">
      <g>
       <use xlink:href="#m028ed488f3" x="43.78125" y="290.330176" style="stroke: #000000; stroke-width: 0.8"/>
      </g>
     </g>
     <g id="text_10">
      <!-- 0.2 -->
      <g transform="translate(20.878125 294.129395) scale(0.1 -0.1)">
       <use xlink:href="#DejaVuSans-30"/>
       <use xlink:href="#DejaVuSans-2e" x="63.623047"/>
       <use xlink:href="#DejaVuSans-32" x="95.410156"/>
      </g>
     </g>
    </g>
    <g id="ytick_4">
     <g id="line2d_19">
      <path d="M 43.78125 248.139519 
L 566.66125 248.139519 
" clip-path="url(#p8d202ac7ca)" style="fill: none; stroke: #b0b0b0; stroke-opacity: 0.3; stroke-width: 0.8; stroke-linecap: square"/>
     </g>
     <g id="line2d_20">
      <g>
       <use xlink:href="#m028ed488f3" x="43.78125" y="248.139519" style="stroke: #000000; stroke-width: 0.8"/>
      </g>
     </g>
     <g id="text_11">
      <!-- 0.3 -->
      <g transform="translate(20.878125 251.938738) scale(0.1 -0.1)">
       <defs>
        <path id="DejaVuSans-33" d="M 2597 2516 
Q 3050 2419 3304 2112 
Q 3559 1806 3559 1356 
Q 3559 666 3084 287 
Q 2609 -91 1734 -91 
Q 1441 -91 1130 -33 
Q 819 25 488 141 
L 488 750 
Q 750 597 1062 519 
Q 1375 441 1716 441 
Q 2309 441 2620 675 
Q 2931 909 2931 1356 
Q 2931 1769 2642 2001 
Q 2353 2234 1838 2234 
L 1294 2234 
L 1294 2753 
L 1863 2753 
Q 2328 2753 2575 2939 
Q 2822 3125 2822 3475 
Q 2822 3834 2567 4026 
Q 2313 4219 1838 4219 
Q 1578 4219 1281 4162 
Q 984 4106 628 3988 
L 628 4550 
Q 988 4650 1302 4700 
Q 1616 4750 1894 4750 
Q 2613 4750 3031 4423 
Q 3450 4097 3450 3541 
Q 3450 3153 3228 2886 
Q 3006 2619 2597 2516 
z
" transform="scale(0.015625)"/>
       </defs>
       <use xlink:href="#DejaVuSans-30"/>
       <use xlink:href="#DejaVuSans-2e" x="63.623047"/>
       <use xlink:href="#DejaVuSans-33" x="95.410156"/>
      </g>
     </g>
    </g>
    <g id="ytick_5">
     <g id="line2d_21">
      <path d="M 43.78125 205.948862 
L 566.66125 205.948862 
" clip-path="url(#p8d202ac7ca)" style="fill: none; stroke: #b0b0b0; stroke-opacity: 0.3; stroke-width: 0.8; stroke-linecap: square"/>
     </g>
     <g id="line2d_22">
      <g>
       <use xlink:href="#m028ed488f3" x="43.78125" y="205.948862" style="stroke: #000000; stroke-width: 0.8"/>
      </g>
     </g>
     <g id="text_12">
      <!-- 0.4 -->
      <g transform="translate(20.878125 209.74808) scale(0.1 -0.1)">
       <use xlink:href="#DejaVuSans-30"/>
       <use xlink:href="#DejaVuSans-2e" x="63.623047"/>
       <use xlink:href="#DejaVuSans-34" x="95.410156"/>
      </g>
     </g>
    </g>
    <g id="ytick_6">
     <g id="line2d_23">
      <path d="M 43.78125 163.758205 
L 566.66125 163.758205 
" clip-path="url(#p8d202ac7ca)" style="fill: none; stroke: #b0b0b0; stroke-opacity: 0.3; stroke-width: 0.8; stroke-linecap: square"/>
     </g>
     <g id="line2d_24">
      <g>
       <use xlink:href="#m028ed488f3" x="43.78125" y="163.758205" style="stroke: #000000; stroke-width: 0.8"/>
      </g>
     </g>
     <g id="text_13">
      <!-- 0.5 -->
      <g transform="translate(20.878125 167.557423) scale(0.1 -0.1)">
       <defs>
        <path id="DejaVuSans-35" d="M 691 4666 
L 3169 4666 
L 3169 4134 
L 1269 4134 
L 1269 2991 
Q 1406 3038 1543 3061 
Q 1681 3084 1819 3084 
Q 2600 3084 3056 2656 
Q 3513 2228 3513 1497 
Q 3513 744 3044 326 
Q 2575 -91 1722 -91 
Q 1428 -91 1123 -41 
Q 819 9 494 109 
L 494 744 
Q 775 591 1075 516 
Q 1375 441 1709 441 
Q 2250 441 2565 725 
Q 2881 1009 2881 1497 
Q 2881 1984 2565 2268 
Q 2250 2553 1709 2553 
Q 1456 2553 1204 2497 
Q 953 2441 691 2322 
L 691 4666 
z
" transform="scale(0.015625)"/>
       </defs>
       <use xlink:href="#DejaVuSans-30"/>
       <use xlink:href="#DejaVuSans-2e" x="63.623047"/>
       <use xlink:href="#DejaVuSans-35" x="95.410156"/>
      </g>
     </g>
    </g>
    <g id="ytick_7">
     <g id="line2d_25">
      <path d="M 43.78125 121.567548 
L 566.66125 121.567548 
" clip-path="url(#p8d202ac7ca)" style="fill: none; stroke: #b0b0b0; stroke-opacity: 0.3; stroke-width: 0.8; stroke-linecap: square"/>
     </g>
     <g id="line2d_26">
      <g>
       <use xlink:href="#m028ed488f3" x="43.78125" y="121.567548" style="stroke: #000000; stroke-width: 0.8"/>
      </g>
     </g>
     <g id="text_14">
      <!-- 0.6 -->
      <g transform="translate(20.878125 125.366766) scale(0.1 -0.1)">
       <use xlink:href="#DejaVuSans-30"/>
       <use xlink:href="#DejaVuSans-2e" x="63.623047"/>
       <use xlink:href="#DejaVuSans-36" x="95.410156"/>
      </g>
     </g>
    </g>
    <g id="ytick_8">
     <g id="line2d_27">
      <path d="M 43.78125 79.376891 
L 566.66125 79.376891 
" clip-path="url(#p8d202ac7ca)" style="fill: none; stroke: #b0b0b0; stroke-opacity: 0.3; stroke-width: 0.8; stroke-linecap: square"/>
     </g>
     <g id="line2d_28">
      <g>
       <use xlink:href="#m028ed488f3" x="43.78125" y="79.376891" style="stroke: #000000; stroke-width: 0.8"/>
      </g>
     </g>
     <g id="text_15">
      <!-- 0.7 -->
      <g transform="translate(20.878125 83.176109) scale(0.1 -0.1)">
       <defs>
        <path id="DejaVuSans-37" d="M 525 4666 
L 3525 4666 
L 3525 4397 
L 1831 0 
L 1172 0 
L 2766 4134 
L 525 4134 
L 525 4666 
z
" transform="scale(0.015625)"/>
       </defs>
       <use xlink:href="#DejaVuSans-30"/>
       <use xlink:href="#DejaVuSans-2e" x="63.623047"/>
       <use xlink:href="#DejaVuSans-37" x="95.410156"/>
      </g>
     </g>
    </g>
    <g id="ytick_9">
     <g id="line2d_29">
      <path d="M 43.78125 37.186234 
L 566.66125 37.186234 
" clip-path="url(#p8d202ac7ca)" style="fill: none; stroke: #b0b0b0; stroke-opacity: 0.3; stroke-width: 0.8; stroke-linecap: square"/>
     </g>
     <g id="line2d_30">
      <g>
       <use xlink:href="#m028ed488f3" x="43.78125" y="37.186234" style="stroke: #000000; stroke-width: 0.8"/>
      </g>
     </g>
     <g id="text_16">
      <!-- 0.8 -->
      <g transform="translate(20.878125 40.985452) scale(0.1 -0.1)">
       <use xlink:href="#DejaVuSans-30"/>
       <use xlink:href="#DejaVuSans-2e" x="63.623047"/>
       <use xlink:href="#DejaVuSans-38" x="95.410156"/>
      </g>
     </g>
    </g>
    <g id="text_17">
     <!-- Global Accuracy -->
     <g transform="translate(14.798438 244.265312) rotate(-90) scale(0.1 -0.1)">
      <defs>
       <path id="DejaVuSans-47" d="M 3809 666 
L 3809 1919 
L 2778 1919 
L 2778 2438 
L 4434 2438 
L 4434 434 
Q 4069 175 3628 42 
Q 3188 -91 2688 -91 
Q 1594 -91 976 548 
Q 359 1188 359 2328 
Q 359 3472 976 4111 
Q 1594 4750 2688 4750 
Q 3144 4750 3555 4637 
Q 3966 4525 4313 4306 
L 4313 3634 
Q 3963 3931 3569 4081 
Q 3175 4231 2741 4231 
Q 1884 4231 1454 3753 
Q 1025 3275 1025 2328 
Q 1025 1384 1454 906 
Q 1884 428 2741 428 
Q 3075 428 3337 486 
Q 3600 544 3809 666 
z
" transform="scale(0.015625)"/>
       <path id="DejaVuSans-6c" d="M 603 4863 
L 1178 4863 
L 1178 0 
L 603 0 
L 603 4863 
z
" transform="scale(0.015625)"/>
       <path id="DejaVuSans-62" d="M 3116 1747 
Q 3116 2381 2855 2742 
Q 2594 3103 2138 3103 
Q 1681 3103 1420 2742 
Q 1159 2381 1159 1747 
Q 1159 1113 1420 752 
Q 1681 391 2138 391 
Q 2594 391 2855 752 
Q 3116 1113 3116 1747 
z
M 1159 2969 
Q 1341 3281 1617 3432 
Q 1894 3584 2278 3584 
Q 2916 3584 3314 3078 
Q 3713 2572 3713 1747 
Q 3713 922 3314 415 
Q 2916 -91 2278 -91 
Q 1894 -91 1617 61 
Q 1341 213 1159 525 
L 1159 0 
L 581 0 
L 581 4863 
L 1159 4863 
L 1159 2969 
z
" transform="scale(0.015625)"/>
       <path id="DejaVuSans-41" d="M 2188 4044 
L 1331 1722 
L 3047 1722 
L 2188 4044 
z
M 1831 4666 
L 2547 4666 
L 4325 0 
L 3669 0 
L 3244 1197 
L 1141 1197 
L 716 0 
L 50 0 
L 1831 4666 
z
" transform="scale(0.015625)"/>
       <path id="DejaVuSans-72" d="M 2631 2963 
Q 2534 3019 2420 3045 
Q 2306 3072 2169 3072 
Q 1681 3072 1420 2755 
Q 1159 2438 1159 1844 
L 1159 0 
L 581 0 
L 581 3500 
L 1159 3500 
L 1159 2956 
Q 1341 3275 1631 3429 
Q 1922 3584 2338 3584 
Q 2397 3584 2469 3576 
Q 2541 3569 2628 3553 
L 2631 2963 
z
" transform="scale(0.015625)"/>
       <path id="DejaVuSans-79" d="M 2059 -325 
Q 1816 -950 1584 -1140 
Q 1353 -1331 966 -1331 
L 506 -1331 
L 506 -850 
L 844 -850 
Q 1081 -850 1212 -737 
Q 1344 -625 1503 -206 
L 1606 56 
L 191 3500 
L 800 3500 
L 1894 763 
L 2988 3500 
L 3597 3500 
L 2059 -325 
z
" transform="scale(0.015625)"/>
      </defs>
      <use xlink:href="#DejaVuSans-47"/>
      <use xlink:href="#DejaVuSans-6c" x="77.490234"/>
      <use xlink:href="#DejaVuSans-6f" x="105.273438"/>
      <use xlink:href="#DejaVuSans-62" x="166.455078"/>
      <use xlink:href="#DejaVuSans-61" x="229.931641"/>
      <use xlink:href="#DejaVuSans-6c" x="291.210938"/>
      <use xlink:href="#DejaVuSans-20" x="318.994141"/>
      <use xlink:href="#DejaVuSans-41" x="350.78125"/>
      <use xlink:href="#DejaVuSans-63" x="417.439453"/>
      <use xlink:href="#DejaVuSans-63" x="472.419922"/>
      <use xlink:href="#DejaVuSans-75" x="527.400391"/>
      <use xlink:href="#DejaVuSans-72" x="590.779297"/>
      <use xlink:href="#DejaVuSans-61" x="631.892578"/>
      <use xlink:href="#DejaVuSans-63" x="693.171875"/>
      <use xlink:href="#DejaVuSans-79" x="748.152344"/>
     </g>
    </g>
   </g>
   <g id="line2d_31">
    <path d="M 67.548523 368.051495 
L 72.349992 368.48623 
L 77.151461 368.970852 
L 81.95293 367.95172 
L 86.7544 367.41721 
L 91.555869 366.643952 
L 96.357338 365.239972 
L 101.158807 363.037791 
L 105.960277 360.493523 
L 110.761746 356.741263 
L 115.563215 354.257573 
L 120.364684 350.074142 
L 125.166154 345.413214 
L 129.967623 342.117069 
L 134.769092 339.184391 
L 139.570561 334.16356 
L 144.372031 329.955185 
L 149.1735 323.975799 
L 153.974969 322.532622 
L 158.776438 320.366075 
L 163.577907 317.828934 
L 168.379377 317.052113 
L 173.180846 318.427585 
L 177.982315 316.154136 
L 182.783784 315.619626 
L 187.585254 314.454394 
L 192.386723 313.470896 
L 197.188192 314.632564 
L 201.989661 313.488713 
L 206.791131 311.874493 
L 211.5926 307.879921 
L 216.394069 307.345411 
L 221.195538 302.905415 
L 225.997008 299.876525 
L 230.798477 298.094825 
L 235.599946 289.727961 
L 240.401415 288.886999 
L 245.202885 283.876858 
L 250.004354 279.076958 
L 254.805823 279.725497 
L 259.607292 277.9046 
L 264.408761 271.793369 
L 269.210231 269.591187 
L 274.0117 257.600346 
L 278.813169 262.403809 
L 283.614638 246.218846 
L 288.416108 247.369824 
L 293.217577 241.394002 
L 298.019046 233.390606 
L 302.820515 224.966728 
L 307.621985 207.62366 
L 312.423454 198.544116 
L 317.224923 186.471317 
L 322.026392 180.025126 
L 326.827862 174.986478 
L 331.629331 166.252585 
L 336.4308 159.033136 
L 341.232269 154.532562 
L 346.033739 148.948714 
L 350.835208 137.453185 
L 355.636677 131.235052 
L 360.438146 130.497428 
L 365.239615 122.102058 
L 370.041085 120.163568 
L 374.842554 112.744569 
L 379.644023 113.87773 
L 384.445492 109.737059 
L 389.246962 98.327052 
L 394.048431 95.700826 
L 398.8499 93.658998 
L 403.651369 89.429242 
L 408.452839 87.187864 
L 413.254308 85.21374 
L 418.055777 81.012491 
L 422.857246 81.67172 
L 427.658716 76.405015 
L 432.460185 76.130633 
L 437.261654 76.832623 
L 442.063123 75.952463 
L 446.864593 72.777474 
L 451.666062 72.367683 
L 456.467531 69.581104 
L 461.269 69.812725 
L 466.070469 67.425247 
L 470.871939 66.912117 
L 475.673408 66.484509 
L 480.474877 66.242198 
L 485.276346 67.364669 
L 490.077816 67.182936 
L 494.879285 66.16024 
L 499.680754 64.927303 
L 504.482223 61.085958 
L 509.283693 60.704674 
L 514.085162 59.820951 
L 518.886631 59.7675 
L 523.6881 60.024065 
L 528.48957 58.734114 
L 533.291039 56.859766 
L 538.092508 57.290937 
L 542.893977 57.241049 
" clip-path="url(#p8d202ac7ca)" style="fill: none; stroke: #1f77b4; stroke-width: 2; stroke-linecap: square"/>
   </g>
   <g id="line2d_32">
    <path d="M 67.548523 364.288545 
L 72.349992 361.056541 
L 77.151461 356.762644 
L 81.95293 352.575648 
L 86.7544 345.217227 
L 91.555869 335.343046 
L 96.357338 324.756184 
L 101.158807 313.249965 
L 105.960277 299.149591 
L 110.761746 284.4862 
L 115.563215 269.847752 
L 120.364684 252.037878 
L 125.166154 240.278658 
L 129.967623 226.748428 
L 134.769092 217.715209 
L 139.570561 209.180866 
L 144.372031 199.43853 
L 149.1735 191.068103 
L 153.974969 185.056647 
L 158.776438 178.061693 
L 163.577907 170.325551 
L 168.379377 163.797402 
L 173.180846 158.398851 
L 177.982315 153.698726 
L 182.783784 149.668521 
L 187.585254 145.481526 
L 192.386723 142.527467 
L 197.188192 140.21482 
L 201.989661 138.276331 
L 206.791131 135.789077 
L 211.5926 133.996687 
L 216.394069 132.674666 
L 221.195538 131.185165 
L 225.997008 129.752678 
L 230.798477 128.640897 
L 235.599946 127.261861 
L 240.401415 125.822247 
L 245.202885 124.774608 
L 250.004354 123.612939 
L 254.805823 122.301608 
L 259.607292 121.179137 
L 264.408761 120.598303 
L 269.210231 119.789411 
L 274.0117 119.016153 
L 278.813169 117.95426 
L 283.614638 117.113298 
L 288.416108 116.222448 
L 293.217577 115.684374 
L 298.019046 115.007328 
L 302.820515 114.066591 
L 307.621985 112.997571 
L 312.423454 111.989128 
L 317.224923 110.335711 
L 322.026392 109.370029 
L 326.827862 108.707237 
L 331.629331 108.119276 
L 336.4308 107.29613 
L 341.232269 106.661845 
L 346.033739 105.942038 
L 350.835208 105.33626 
L 355.636677 104.876582 
L 360.438146 104.438284 
L 365.239615 104.09976 
L 370.041085 103.846759 
L 374.842554 103.568814 
L 379.644023 103.130516 
L 384.445492 102.478413 
L 389.246962 101.947467 
L 394.048431 101.473535 
L 398.8499 100.996039 
L 403.651369 100.372444 
L 408.452839 99.556425 
L 413.254308 98.751097 
L 418.055777 97.885191 
L 422.857246 97.126187 
L 427.658716 96.313731 
L 432.460185 95.397937 
L 437.261654 94.703074 
L 442.063123 94.3111 
L 446.864593 93.780154 
L 451.666062 93.505772 
L 456.467531 93.238517 
L 461.269 92.796655 
L 466.070469 92.440315 
L 470.871939 92.041215 
L 475.673408 91.510268 
L 480.474877 91.196689 
L 485.276346 90.90449 
L 490.077816 90.598038 
L 494.879285 90.3486 
L 499.680754 90.106288 
L 504.482223 89.85685 
L 509.283693 89.48982 
L 514.085162 89.151297 
L 518.886631 88.784267 
L 523.6881 88.549083 
L 528.48957 88.335279 
L 533.291039 87.872037 
L 538.092508 87.3304 
L 542.893977 86.913482 
" clip-path="url(#p8d202ac7ca)" style="fill: none; stroke: #ff7f0e; stroke-width: 2; stroke-linecap: square"/>
   </g>
   <g id="line2d_33">
    <path d="M 67.548523 364.737533 
L 72.349992 361.854742 
L 77.151461 357.653494 
L 81.95293 352.344027 
L 86.7544 346.161528 
L 91.555869 335.866865 
L 96.357338 324.891593 
L 101.158807 312.658441 
L 105.960277 298.985675 
L 110.761746 284.414932 
L 115.563215 270.111444 
L 120.364684 255.451616 
L 125.166154 241.105367 
L 129.967623 227.585827 
L 134.769092 216.133059 
L 139.570561 205.346647 
L 144.372031 197.671083 
L 149.1735 190.807975 
L 153.974969 184.162234 
L 158.776438 176.49736 
L 163.577907 169.705519 
L 168.379377 163.515894 
L 173.180846 157.96768 
L 177.982315 153.641712 
L 182.783784 149.586563 
L 187.585254 145.606245 
L 192.386723 142.345734 
L 197.188192 139.594789 
L 201.989661 137.214437 
L 206.791131 134.990876 
L 211.5926 132.849272 
L 216.394069 131.427476 
L 221.195538 130.133962 
L 225.997008 128.747799 
L 230.798477 127.215537 
L 235.599946 126.132263 
L 240.401415 124.760354 
L 245.202885 123.48822 
L 250.004354 122.24103 
L 254.805823 121.104306 
L 259.607292 119.696763 
L 264.408761 118.756025 
L 269.210231 118.057599 
L 274.0117 117.077664 
L 278.813169 116.347167 
L 283.614638 115.381485 
L 288.416108 114.273268 
L 293.217577 113.275516 
L 298.019046 112.024762 
L 302.820515 111.002066 
L 307.621985 110.296513 
L 312.423454 109.131281 
L 317.224923 108.283192 
L 322.026392 107.231989 
L 326.827862 106.793691 
L 331.629331 106.3839 
L 336.4308 105.806629 
L 341.232269 105.275683 
L 346.033739 104.833821 
L 350.835208 104.523805 
L 355.636677 104.064126 
L 360.438146 103.704223 
L 365.239615 103.497546 
L 370.041085 103.159023 
L 374.842554 102.727851 
L 379.644023 102.382202 
L 384.445492 101.94034 
L 389.246962 101.516295 
L 394.048431 101.110068 
L 398.8499 100.71453 
L 403.651369 100.379571 
L 408.452839 99.870005 
L 413.254308 99.285607 
L 418.055777 98.822365 
L 422.857246 98.409011 
L 427.658716 97.888754 
L 432.460185 97.454019 
L 437.261654 96.919509 
L 442.063123 96.342239 
L 446.864593 95.804165 
L 451.666062 95.216204 
L 456.467531 94.856301 
L 461.269 94.752962 
L 466.070469 94.585482 
L 470.871939 94.407312 
L 475.673408 94.360988 
L 480.474877 94.407312 
L 485.276346 94.346734 
L 490.077816 93.919126 
L 494.879285 93.413124 
L 499.680754 93.152995 
L 504.482223 92.782402 
L 509.283693 92.208694 
L 514.085162 91.681311 
L 518.886631 91.100477 
L 523.6881 90.508953 
L 528.48957 89.888921 
L 533.291039 89.325904 
L 538.092508 88.926803 
L 542.893977 88.830591 
" clip-path="url(#p8d202ac7ca)" style="fill: none; stroke: #2ca02c; stroke-width: 2; stroke-linecap: square"/>
   </g>
   <g id="line2d_34">
    <path d="M 67.548523 353.405921 
L 72.349992 356.156866 
L 77.151461 356.253077 
L 81.95293 351.909293 
L 86.7544 336.611616 
L 91.555869 308.613982 
L 96.357338 277.305948 
L 101.158807 245.741351 
L 105.960277 208.785328 
L 110.761746 175.335692 
L 115.563215 148.456965 
L 120.364684 129.075632 
L 125.166154 109.270254 
L 129.967623 91.542339 
L 134.769092 73.169448 
L 139.570561 60.116713 
L 144.372031 53.944904 
L 149.1735 48.304042 
L 153.974969 44.159808 
L 158.776438 40.738944 
L 163.577907 39.926488 
L 168.379377 39.538078 
L 173.180846 39.210245 
L 177.982315 39.053455 
L 182.783784 38.96437 
L 187.585254 38.885976 
L 192.386723 38.861032 
L 197.188192 38.853905 
L 201.989661 38.853905 
L 206.791131 38.853905 
L 211.5926 38.843215 
L 216.394069 38.839651 
L 221.195538 38.832525 
L 225.997008 38.832525 
L 230.798477 38.832525 
L 235.599946 38.832525 
L 240.401415 38.832525 
L 245.202885 38.825398 
L 250.004354 38.825398 
L 254.805823 38.825398 
L 259.607292 38.825398 
L 264.408761 38.825398 
L 269.210231 38.825398 
L 274.0117 38.832525 
L 278.813169 38.832525 
L 283.614638 38.839651 
L 288.416108 38.843215 
L 293.217577 38.850342 
L 298.019046 38.850342 
L 302.820515 38.853905 
L 307.621985 38.853905 
L 312.423454 38.853905 
L 317.224923 38.853905 
L 322.026392 38.853905 
L 326.827862 38.853905 
L 331.629331 38.857468 
L 336.4308 38.861032 
L 341.232269 38.868159 
L 346.033739 38.871722 
L 350.835208 38.882412 
L 355.636677 38.878849 
L 360.438146 38.885976 
L 365.239615 38.882412 
L 370.041085 38.878849 
L 374.842554 38.885976 
L 379.644023 38.900229 
L 384.445492 38.903793 
L 389.246962 38.900229 
L 394.048431 38.893102 
L 398.8499 38.896666 
L 403.651369 38.896666 
L 408.452839 38.896666 
L 413.254308 38.896666 
L 418.055777 38.896666 
L 422.857246 38.893102 
L 427.658716 38.889539 
L 432.460185 38.903793 
L 437.261654 38.92161 
L 442.063123 38.946553 
L 446.864593 38.967934 
L 451.666062 38.985751 
L 456.467531 39.017821 
L 461.269 39.085526 
L 466.070469 39.089089 
L 470.871939 39.064146 
L 475.673408 39.049892 
L 480.474877 39.12116 
L 485.276346 39.12116 
L 490.077816 39.11047 
L 494.879285 39.149667 
L 499.680754 39.242316 
L 504.482223 39.367035 
L 509.283693 39.324274 
L 514.085162 39.260133 
L 518.886631 39.29933 
L 523.6881 39.402669 
L 528.48957 39.48819 
L 533.291039 39.438303 
L 538.092508 39.367035 
L 542.893977 39.267259 
" clip-path="url(#p8d202ac7ca)" style="fill: none; stroke: #d62728; stroke-width: 2; stroke-linecap: square"/>
   </g>
   <g id="line2d_35">
    <path d="M 67.548523 347.32676 
L 72.349992 342.615945 
L 77.151461 335.849048 
L 81.95293 329.780578 
L 86.7544 320.975417 
L 91.555869 309.925313 
L 96.357338 300.104582 
L 101.158807 287.034031 
L 105.960277 275.139401 
L 110.761746 261.591354 
L 115.563215 246.133325 
L 120.364684 235.981198 
L 125.166154 223.662524 
L 129.967623 210.078842 
L 134.769092 199.755672 
L 139.570561 188.320722 
L 144.372031 178.948979 
L 149.1735 165.358171 
L 153.974969 154.0907 
L 158.776438 145.620498 
L 163.577907 136.97569 
L 168.379377 129.407028 
L 173.180846 123.751912 
L 177.982315 117.013522 
L 182.783784 112.313398 
L 187.585254 106.768747 
L 192.386723 101.370196 
L 197.188192 95.444262 
L 201.989661 90.769081 
L 206.791131 86.607029 
L 211.5926 82.309569 
L 216.394069 78.949283 
L 221.195538 74.641132 
L 225.997008 70.528968 
L 230.798477 67.471571 
L 235.599946 65.194558 
L 240.401415 63.195491 
L 245.202885 61.474369 
L 250.004354 59.738993 
L 254.805823 58.395591 
L 259.607292 57.497614 
L 264.408761 56.681596 
L 269.210231 55.723041 
L 274.0117 54.472288 
L 278.813169 53.727537 
L 283.614638 52.729785 
L 288.416108 51.78192 
L 293.217577 51.190396 
L 298.019046 50.52404 
L 302.820515 49.743656 
L 307.621985 49.048793 
L 312.423454 48.621185 
L 317.224923 48.086675 
L 322.026392 47.577108 
L 326.827862 46.828794 
L 331.629331 46.133931 
L 336.4308 45.570914 
L 341.232269 45.086292 
L 346.033739 44.077849 
L 350.835208 43.094351 
L 355.636677 42.524207 
L 360.438146 42.178557 
L 365.239615 41.97188 
L 370.041085 41.775893 
L 374.842554 41.644047 
L 379.644023 41.444497 
L 384.445492 41.284144 
L 389.246962 41.173678 
L 394.048431 41.05965 
L 398.8499 40.909987 
L 403.651369 40.795958 
L 408.452839 40.674802 
L 413.254308 40.564337 
L 418.055777 40.468125 
L 422.857246 40.361223 
L 427.658716 40.215124 
L 432.460185 40.154546 
L 437.261654 40.069024 
L 442.063123 40.00132 
L 446.864593 39.933615 
L 451.666062 39.883728 
L 456.467531 39.82315 
L 461.269 39.759009 
L 466.070469 39.691304 
L 470.871939 39.637853 
L 475.673408 39.602219 
L 480.474877 39.566585 
L 485.276346 39.527388 
L 490.077816 39.491754 
L 494.879285 39.459683 
L 499.680754 39.448993 
L 504.482223 39.416922 
L 509.283693 39.388415 
L 514.085162 39.349218 
L 518.886631 39.324274 
L 523.6881 39.302893 
L 528.48957 39.274386 
L 533.291039 39.249442 
L 538.092508 39.220935 
L 542.893977 39.206682 
" clip-path="url(#p8d202ac7ca)" style="fill: none; stroke: #9467bd; stroke-width: 2; stroke-linecap: square"/>
   </g>
   <g id="line2d_36">
    <path d="M 67.548523 368.051495 
L 72.349992 368.48623 
L 77.151461 368.970852 
L 81.95293 367.95172 
L 86.7544 367.41721 
L 91.555869 366.643952 
L 96.357338 365.239972 
L 101.158807 363.037791 
L 105.960277 360.493523 
L 110.761746 356.741263 
L 115.563215 354.257573 
L 120.364684 350.074142 
L 125.166154 345.413214 
L 129.967623 342.117069 
L 134.769092 339.184391 
L 139.570561 334.16356 
L 144.372031 329.955185 
L 149.1735 323.975799 
L 153.974969 322.532622 
L 158.776438 320.366075 
L 163.577907 317.828934 
L 168.379377 317.052113 
L 173.180846 318.427585 
L 177.982315 316.154136 
L 182.783784 315.619626 
L 187.585254 314.454394 
L 192.386723 313.470896 
L 197.188192 314.632564 
L 201.989661 313.488713 
L 206.791131 311.874493 
L 211.5926 307.879921 
L 216.394069 307.345411 
L 221.195538 302.905415 
L 225.997008 299.876525 
L 230.798477 298.094825 
L 235.599946 289.727961 
L 240.401415 288.886999 
L 245.202885 283.876858 
L 250.004354 279.076958 
L 254.805823 279.725497 
L 259.607292 277.9046 
L 264.408761 271.793369 
L 269.210231 269.591187 
L 274.0117 257.600346 
L 278.813169 262.403809 
L 283.614638 246.218846 
L 288.416108 247.369824 
L 293.217577 241.394002 
L 298.019046 233.390606 
L 302.820515 224.966728 
L 307.621985 207.62366 
L 312.423454 198.544116 
L 317.224923 186.471317 
L 322.026392 180.025126 
L 326.827862 174.986478 
L 331.629331 166.252585 
L 336.4308 159.033136 
L 341.232269 154.532562 
L 346.033739 148.948714 
L 350.835208 137.453185 
L 355.636677 131.235052 
L 360.438146 130.497428 
L 365.239615 122.102058 
L 370.041085 120.163568 
L 374.842554 112.744569 
L 379.644023 113.87773 
L 384.445492 109.737059 
L 389.246962 98.327052 
L 394.048431 95.700826 
L 398.8499 93.658998 
L 403.651369 89.429242 
L 408.452839 87.187864 
L 413.254308 85.21374 
L 418.055777 81.012491 
L 422.857246 81.67172 
L 427.658716 76.405015 
L 432.460185 76.130633 
L 437.261654 76.832623 
L 442.063123 75.952463 
L 446.864593 72.777474 
L 451.666062 72.367683 
L 456.467531 69.581104 
L 461.269 69.812725 
L 466.070469 67.425247 
L 470.871939 66.912117 
L 475.673408 66.484509 
L 480.474877 66.242198 
L 485.276346 67.364669 
L 490.077816 67.182936 
L 494.879285 66.16024 
L 499.680754 64.927303 
L 504.482223 61.085958 
L 509.283693 60.704674 
L 514.085162 59.820951 
L 518.886631 59.7675 
L 523.6881 60.024065 
L 528.48957 58.734114 
L 533.291039 56.859766 
L 538.092508 57.290937 
L 542.893977 57.241049 
" clip-path="url(#p8d202ac7ca)" style="fill: none; stroke: #8c564b; stroke-width: 2; stroke-linecap: square"/>
   </g>
   <g id="patch_3">
    <path d="M 43.78125 385.478125 
L 43.78125 22.318125 
" style="fill: none; stroke: #000000; stroke-width: 0.8; stroke-linejoin: miter; stroke-linecap: square"/>
   </g>
   <g id="patch_4">
    <path d="M 566.66125 385.478125 
L 566.66125 22.318125 
" style="fill: none; stroke: #000000; stroke-width: 0.8; stroke-linejoin: miter; stroke-linecap: square"/>
   </g>
   <g id="patch_5">
    <path d="M 43.78125 385.478125 
L 566.66125 385.478125 
" style="fill: none; stroke: #000000; stroke-width: 0.8; stroke-linejoin: miter; stroke-linecap: square"/>
   </g>
   <g id="patch_6">
    <path d="M 43.78125 22.318125 
L 566.66125 22.318125 
" style="fill: none; stroke: #000000; stroke-width: 0.8; stroke-linejoin: miter; stroke-linecap: square"/>
   </g>
   <g id="text_18">
    <!-- Accuracy Comparison - opp -->
    <g transform="translate(222.72875 16.318125) scale(0.12 -0.12)">
     <defs>
      <path id="DejaVuSans-70" d="M 1159 525 
L 1159 -1331 
L 581 -1331 
L 581 3500 
L 1159 3500 
L 1159 2969 
Q 1341 3281 1617 3432 
Q 1894 3584 2278 3584 
Q 2916 3584 3314 3078 
Q 3713 2572 3713 1747 
Q 3713 922 3314 415 
Q 2916 -91 2278 -91 
Q 1894 -91 1617 61 
Q 1341 213 1159 525 
z
M 3116 1747 
Q 3116 2381 2855 2742 
Q 2594 3103 2138 3103 
Q 1681 3103 1420 2742 
Q 1159 2381 1159 1747 
Q 1159 1113 1420 752 
Q 1681 391 2138 391 
Q 2594 391 2855 752 
Q 3116 1113 3116 1747 
z
" transform="scale(0.015625)"/>
      <path id="DejaVuSans-2d" d="M 313 2009 
L 1997 2009 
L 1997 1497 
L 313 1497 
L 313 2009 
z
" transform="scale(0.015625)"/>
     </defs>
     <use xlink:href="#DejaVuSans-41"/>
     <use xlink:href="#DejaVuSans-63" x="66.658203"/>
     <use xlink:href="#DejaVuSans-63" x="121.638672"/>
     <use xlink:href="#DejaVuSans-75" x="176.619141"/>
     <use xlink:href="#DejaVuSans-72" x="239.998047"/>
     <use xlink:href="#DejaVuSans-61" x="281.111328"/>
     <use xlink:href="#DejaVuSans-63" x="342.390625"/>
     <use xlink:href="#DejaVuSans-79" x="397.371094"/>
     <use xlink:href="#DejaVuSans-20" x="456.550781"/>
     <use xlink:href="#DejaVuSans-43" x="488.337891"/>
     <use xlink:href="#DejaVuSans-6f" x="558.162109"/>
     <use xlink:href="#DejaVuSans-6d" x="619.34375"/>
     <use xlink:href="#DejaVuSans-70" x="716.755859"/>
     <use xlink:href="#DejaVuSans-61" x="780.232422"/>
     <use xlink:href="#DejaVuSans-72" x="841.511719"/>
     <use xlink:href="#DejaVuSans-69" x="882.625"/>
     <use xlink:href="#DejaVuSans-73" x="910.408203"/>
     <use xlink:href="#DejaVuSans-6f" x="962.507812"/>
     <use xlink:href="#DejaVuSans-6e" x="1023.689453"/>
     <use xlink:href="#DejaVuSans-20" x="1087.068359"/>
     <use xlink:href="#DejaVuSans-2d" x="1118.855469"/>
     <use xlink:href="#DejaVuSans-20" x="1154.939453"/>
     <use xlink:href="#DejaVuSans-6f" x="1186.726562"/>
     <use xlink:href="#DejaVuSans-70" x="1247.908203"/>
     <use xlink:href="#DejaVuSans-70" x="1311.384766"/>
    </g>
   </g>
   <g id="legend_1">
    <g id="patch_7">
     <path d="M 485.247187 380.478125 
L 559.66125 380.478125 
Q 561.66125 380.478125 561.66125 378.478125 
L 561.66125 291.409375 
Q 561.66125 289.409375 559.66125 289.409375 
L 485.247187 289.409375 
Q 483.247187 289.409375 483.247187 291.409375 
L 483.247187 378.478125 
Q 483.247187 380.478125 485.247187 380.478125 
z
" style="fill: #ffffff; opacity: 0.8; stroke: #cccccc; stroke-linejoin: miter"/>
    </g>
    <g id="line2d_37">
     <path d="M 487.247187 297.507812 
L 497.247187 297.507812 
L 507.247187 297.507812 
" style="fill: none; stroke: #1f77b4; stroke-width: 2; stroke-linecap: square"/>
    </g>
    <g id="text_19">
     <!-- fedavg -->
     <g transform="translate(515.247187 301.007812) scale(0.1 -0.1)">
      <defs>
       <path id="DejaVuSans-66" d="M 2375 4863 
L 2375 4384 
L 1825 4384 
Q 1516 4384 1395 4259 
Q 1275 4134 1275 3809 
L 1275 3500 
L 2222 3500 
L 2222 3053 
L 1275 3053 
L 1275 0 
L 697 0 
L 697 3053 
L 147 3053 
L 147 3500 
L 697 3500 
L 697 3744 
Q 697 4328 969 4595 
Q 1241 4863 1831 4863 
L 2375 4863 
z
" transform="scale(0.015625)"/>
       <path id="DejaVuSans-65" d="M 3597 1894 
L 3597 1613 
L 953 1613 
Q 991 1019 1311 708 
Q 1631 397 2203 397 
Q 2534 397 2845 478 
Q 3156 559 3463 722 
L 3463 178 
Q 3153 47 2828 -22 
Q 2503 -91 2169 -91 
Q 1331 -91 842 396 
Q 353 884 353 1716 
Q 353 2575 817 3079 
Q 1281 3584 2069 3584 
Q 2775 3584 3186 3129 
Q 3597 2675 3597 1894 
z
M 3022 2063 
Q 3016 2534 2758 2815 
Q 2500 3097 2075 3097 
Q 1594 3097 1305 2825 
Q 1016 2553 972 2059 
L 3022 2063 
z
" transform="scale(0.015625)"/>
       <path id="DejaVuSans-76" d="M 191 3500 
L 800 3500 
L 1894 563 
L 2988 3500 
L 3597 3500 
L 2284 0 
L 1503 0 
L 191 3500 
z
" transform="scale(0.015625)"/>
       <path id="DejaVuSans-67" d="M 2906 1791 
Q 2906 2416 2648 2759 
Q 2391 3103 1925 3103 
Q 1463 3103 1205 2759 
Q 947 2416 947 1791 
Q 947 1169 1205 825 
Q 1463 481 1925 481 
Q 2391 481 2648 825 
Q 2906 1169 2906 1791 
z
M 3481 434 
Q 3481 -459 3084 -895 
Q 2688 -1331 1869 -1331 
Q 1566 -1331 1297 -1286 
Q 1028 -1241 775 -1147 
L 775 -588 
Q 1028 -725 1275 -790 
Q 1522 -856 1778 -856 
Q 2344 -856 2625 -561 
Q 2906 -266 2906 331 
L 2906 616 
Q 2728 306 2450 153 
Q 2172 0 1784 0 
Q 1141 0 747 490 
Q 353 981 353 1791 
Q 353 2603 747 3093 
Q 1141 3584 1784 3584 
Q 2172 3584 2450 3431 
Q 2728 3278 2906 2969 
L 2906 3500 
L 3481 3500 
L 3481 434 
z
" transform="scale(0.015625)"/>
      </defs>
      <use xlink:href="#DejaVuSans-66"/>
      <use xlink:href="#DejaVuSans-65" x="35.205078"/>
      <use xlink:href="#DejaVuSans-64" x="96.728516"/>
      <use xlink:href="#DejaVuSans-61" x="160.205078"/>
      <use xlink:href="#DejaVuSans-76" x="221.484375"/>
      <use xlink:href="#DejaVuSans-67" x="280.664062"/>
     </g>
    </g>
    <g id="line2d_38">
     <path d="M 487.247187 312.185937 
L 497.247187 312.185937 
L 507.247187 312.185937 
" style="fill: none; stroke: #ff7f0e; stroke-width: 2; stroke-linecap: square"/>
    </g>
    <g id="text_20">
     <!-- fedmekt -->
     <g transform="translate(515.247187 315.685937) scale(0.1 -0.1)">
      <defs>
       <path id="DejaVuSans-6b" d="M 581 4863 
L 1159 4863 
L 1159 1991 
L 2875 3500 
L 3609 3500 
L 1753 1863 
L 3688 0 
L 2938 0 
L 1159 1709 
L 1159 0 
L 581 0 
L 581 4863 
z
" transform="scale(0.015625)"/>
      </defs>
      <use xlink:href="#DejaVuSans-66"/>
      <use xlink:href="#DejaVuSans-65" x="35.205078"/>
      <use xlink:href="#DejaVuSans-64" x="96.728516"/>
      <use xlink:href="#DejaVuSans-6d" x="160.205078"/>
      <use xlink:href="#DejaVuSans-65" x="257.617188"/>
      <use xlink:href="#DejaVuSans-6b" x="319.140625"/>
      <use xlink:href="#DejaVuSans-74" x="377.050781"/>
     </g>
    </g>
    <g id="line2d_39">
     <path d="M 487.247187 326.864062 
L 497.247187 326.864062 
L 507.247187 326.864062 
" style="fill: none; stroke: #2ca02c; stroke-width: 2; stroke-linecap: square"/>
    </g>
    <g id="text_21">
     <!-- fedproto -->
     <g transform="translate(515.247187 330.364062) scale(0.1 -0.1)">
      <use xlink:href="#DejaVuSans-66"/>
      <use xlink:href="#DejaVuSans-65" x="35.205078"/>
      <use xlink:href="#DejaVuSans-64" x="96.728516"/>
      <use xlink:href="#DejaVuSans-70" x="160.205078"/>
      <use xlink:href="#DejaVuSans-72" x="223.681641"/>
      <use xlink:href="#DejaVuSans-6f" x="262.544922"/>
      <use xlink:href="#DejaVuSans-74" x="323.726562"/>
      <use xlink:href="#DejaVuSans-6f" x="362.935547"/>
     </g>
    </g>
    <g id="line2d_40">
     <path d="M 487.247187 341.542187 
L 497.247187 341.542187 
L 507.247187 341.542187 
" style="fill: none; stroke: #d62728; stroke-width: 2; stroke-linecap: square"/>
    </g>
    <g id="text_22">
     <!-- fedprop -->
     <g transform="translate(515.247187 345.042187) scale(0.1 -0.1)">
      <use xlink:href="#DejaVuSans-66"/>
      <use xlink:href="#DejaVuSans-65" x="35.205078"/>
      <use xlink:href="#DejaVuSans-64" x="96.728516"/>
      <use xlink:href="#DejaVuSans-70" x="160.205078"/>
      <use xlink:href="#DejaVuSans-72" x="223.681641"/>
      <use xlink:href="#DejaVuSans-6f" x="262.544922"/>
      <use xlink:href="#DejaVuSans-70" x="323.726562"/>
     </g>
    </g>
    <g id="line2d_41">
     <path d="M 487.247187 356.220312 
L 497.247187 356.220312 
L 507.247187 356.220312 
" style="fill: none; stroke: #9467bd; stroke-width: 2; stroke-linecap: square"/>
    </g>
    <g id="text_23">
     <!-- fedcent -->
     <g transform="translate(515.247187 359.720312) scale(0.1 -0.1)">
      <use xlink:href="#DejaVuSans-66"/>
      <use xlink:href="#DejaVuSans-65" x="35.205078"/>
      <use xlink:href="#DejaVuSans-64" x="96.728516"/>
      <use xlink:href="#DejaVuSans-63" x="160.205078"/>
      <use xlink:href="#DejaVuSans-65" x="215.185547"/>
      <use xlink:href="#DejaVuSans-6e" x="276.708984"/>
      <use xlink:href="#DejaVuSans-74" x="340.087891"/>
     </g>
    </g>
    <g id="line2d_42">
     <path d="M 487.247187 370.898437 
L 497.247187 370.898437 
L 507.247187 370.898437 
" style="fill: none; stroke: #8c564b; stroke-width: 2; stroke-linecap: square"/>
    </g>
    <g id="text_24">
     <!-- fedprox -->
     <g transform="translate(515.247187 374.398437) scale(0.1 -0.1)">
      <defs>
       <path id="DejaVuSans-78" d="M 3513 3500 
L 2247 1797 
L 3578 0 
L 2900 0 
L 1881 1375 
L 863 0 
L 184 0 
L 1544 1831 
L 300 3500 
L 978 3500 
L 1906 2253 
L 2834 3500 
L 3513 3500 
z
" transform="scale(0.015625)"/>
      </defs>
      <use xlink:href="#DejaVuSans-66"/>
      <use xlink:href="#DejaVuSans-65" x="35.205078"/>
      <use xlink:href="#DejaVuSans-64" x="96.728516"/>
      <use xlink:href="#DejaVuSans-70" x="160.205078"/>
      <use xlink:href="#DejaVuSans-72" x="223.681641"/>
      <use xlink:href="#DejaVuSans-6f" x="262.544922"/>
      <use xlink:href="#DejaVuSans-78" x="320.601562"/>
     </g>
    </g>
   </g>
  </g>
  <g id="axes_2">
   <g id="patch_8">
    <path d="M 614.38125 385.478125 
L 1137.26125 385.478125 
L 1137.26125 22.318125 
L 614.38125 22.318125 
z
" style="fill: #ffffff"/>
   </g>
   <g id="matplotlib.axis_3">
    <g id="xtick_7">
     <g id="line2d_43">
      <path d="M 633.347053 385.478125 
L 633.347053 22.318125 
" clip-path="url(#pbd824a68ea)" style="fill: none; stroke: #b0b0b0; stroke-opacity: 0.3; stroke-width: 0.8; stroke-linecap: square"/>
     </g>
     <g id="line2d_44">
      <g>
       <use xlink:href="#mabf4a36101" x="633.347053" y="385.478125" style="stroke: #000000; stroke-width: 0.8"/>
      </g>
     </g>
     <g id="text_25">
      <!-- 0 -->
      <g transform="translate(630.165803 400.076562) scale(0.1 -0.1)">
       <use xlink:href="#DejaVuSans-30"/>
      </g>
     </g>
    </g>
    <g id="xtick_8">
     <g id="line2d_45">
      <path d="M 729.376438 385.478125 
L 729.376438 22.318125 
" clip-path="url(#pbd824a68ea)" style="fill: none; stroke: #b0b0b0; stroke-opacity: 0.3; stroke-width: 0.8; stroke-linecap: square"/>
     </g>
     <g id="line2d_46">
      <g>
       <use xlink:href="#mabf4a36101" x="729.376438" y="385.478125" style="stroke: #000000; stroke-width: 0.8"/>
      </g>
     </g>
     <g id="text_26">
      <!-- 20 -->
      <g transform="translate(723.013938 400.076562) scale(0.1 -0.1)">
       <use xlink:href="#DejaVuSans-32"/>
       <use xlink:href="#DejaVuSans-30" x="63.623047"/>
      </g>
     </g>
    </g>
    <g id="xtick_9">
     <g id="line2d_47">
      <path d="M 825.405823 385.478125 
L 825.405823 22.318125 
" clip-path="url(#pbd824a68ea)" style="fill: none; stroke: #b0b0b0; stroke-opacity: 0.3; stroke-width: 0.8; stroke-linecap: square"/>
     </g>
     <g id="line2d_48">
      <g>
       <use xlink:href="#mabf4a36101" x="825.405823" y="385.478125" style="stroke: #000000; stroke-width: 0.8"/>
      </g>
     </g>
     <g id="text_27">
      <!-- 40 -->
      <g transform="translate(819.043323 400.076562) scale(0.1 -0.1)">
       <use xlink:href="#DejaVuSans-34"/>
       <use xlink:href="#DejaVuSans-30" x="63.623047"/>
      </g>
     </g>
    </g>
    <g id="xtick_10">
     <g id="line2d_49">
      <path d="M 921.435208 385.478125 
L 921.435208 22.318125 
" clip-path="url(#pbd824a68ea)" style="fill: none; stroke: #b0b0b0; stroke-opacity: 0.3; stroke-width: 0.8; stroke-linecap: square"/>
     </g>
     <g id="line2d_50">
      <g>
       <use xlink:href="#mabf4a36101" x="921.435208" y="385.478125" style="stroke: #000000; stroke-width: 0.8"/>
      </g>
     </g>
     <g id="text_28">
      <!-- 60 -->
      <g transform="translate(915.072708 400.076562) scale(0.1 -0.1)">
       <use xlink:href="#DejaVuSans-36"/>
       <use xlink:href="#DejaVuSans-30" x="63.623047"/>
      </g>
     </g>
    </g>
    <g id="xtick_11">
     <g id="line2d_51">
      <path d="M 1017.464593 385.478125 
L 1017.464593 22.318125 
" clip-path="url(#pbd824a68ea)" style="fill: none; stroke: #b0b0b0; stroke-opacity: 0.3; stroke-width: 0.8; stroke-linecap: square"/>
     </g>
     <g id="line2d_52">
      <g>
       <use xlink:href="#mabf4a36101" x="1017.464593" y="385.478125" style="stroke: #000000; stroke-width: 0.8"/>
      </g>
     </g>
     <g id="text_29">
      <!-- 80 -->
      <g transform="translate(1011.102093 400.076562) scale(0.1 -0.1)">
       <use xlink:href="#DejaVuSans-38"/>
       <use xlink:href="#DejaVuSans-30" x="63.623047"/>
      </g>
     </g>
    </g>
    <g id="xtick_12">
     <g id="line2d_53">
      <path d="M 1113.493977 385.478125 
L 1113.493977 22.318125 
" clip-path="url(#pbd824a68ea)" style="fill: none; stroke: #b0b0b0; stroke-opacity: 0.3; stroke-width: 0.8; stroke-linecap: square"/>
     </g>
     <g id="line2d_54">
      <g>
       <use xlink:href="#mabf4a36101" x="1113.493977" y="385.478125" style="stroke: #000000; stroke-width: 0.8"/>
      </g>
     </g>
     <g id="text_30">
      <!-- 100 -->
      <g transform="translate(1103.950227 400.076562) scale(0.1 -0.1)">
       <use xlink:href="#DejaVuSans-31"/>
       <use xlink:href="#DejaVuSans-30" x="63.623047"/>
       <use xlink:href="#DejaVuSans-30" x="127.246094"/>
      </g>
     </g>
    </g>
    <g id="text_31">
     <!-- Communication Rounds -->
     <g transform="translate(816.398594 413.754687) scale(0.1 -0.1)">
      <use xlink:href="#DejaVuSans-43"/>
      <use xlink:href="#DejaVuSans-6f" x="69.824219"/>
      <use xlink:href="#DejaVuSans-6d" x="131.005859"/>
      <use xlink:href="#DejaVuSans-6d" x="228.417969"/>
      <use xlink:href="#DejaVuSans-75" x="325.830078"/>
      <use xlink:href="#DejaVuSans-6e" x="389.208984"/>
      <use xlink:href="#DejaVuSans-69" x="452.587891"/>
      <use xlink:href="#DejaVuSans-63" x="480.371094"/>
      <use xlink:href="#DejaVuSans-61" x="535.351562"/>
      <use xlink:href="#DejaVuSans-74" x="596.630859"/>
      <use xlink:href="#DejaVuSans-69" x="635.839844"/>
      <use xlink:href="#DejaVuSans-6f" x="663.623047"/>
      <use xlink:href="#DejaVuSans-6e" x="724.804688"/>
      <use xlink:href="#DejaVuSans-20" x="788.183594"/>
      <use xlink:href="#DejaVuSans-52" x="819.970703"/>
      <use xlink:href="#DejaVuSans-6f" x="884.953125"/>
      <use xlink:href="#DejaVuSans-75" x="946.134766"/>
      <use xlink:href="#DejaVuSans-6e" x="1009.513672"/>
      <use xlink:href="#DejaVuSans-64" x="1072.892578"/>
      <use xlink:href="#DejaVuSans-73" x="1136.369141"/>
     </g>
    </g>
   </g>
   <g id="matplotlib.axis_4">
    <g id="ytick_10">
     <g id="line2d_55">
      <path d="M 614.38125 376.679062 
L 1137.26125 376.679062 
" clip-path="url(#pbd824a68ea)" style="fill: none; stroke: #b0b0b0; stroke-opacity: 0.3; stroke-width: 0.8; stroke-linecap: square"/>
     </g>
     <g id="line2d_56">
      <g>
       <use xlink:href="#m028ed488f3" x="614.38125" y="376.679062" style="stroke: #000000; stroke-width: 0.8"/>
      </g>
     </g>
     <g id="text_32">
      <!-- 0.0 -->
      <g transform="translate(591.478125 380.478281) scale(0.1 -0.1)">
       <use xlink:href="#DejaVuSans-30"/>
       <use xlink:href="#DejaVuSans-2e" x="63.623047"/>
       <use xlink:href="#DejaVuSans-30" x="95.410156"/>
      </g>
     </g>
    </g>
    <g id="ytick_11">
     <g id="line2d_57">
      <path d="M 614.38125 328.809111 
L 1137.26125 328.809111 
" clip-path="url(#pbd824a68ea)" style="fill: none; stroke: #b0b0b0; stroke-opacity: 0.3; stroke-width: 0.8; stroke-linecap: square"/>
     </g>
     <g id="line2d_58">
      <g>
       <use xlink:href="#m028ed488f3" x="614.38125" y="328.809111" style="stroke: #000000; stroke-width: 0.8"/>
      </g>
     </g>
     <g id="text_33">
      <!-- 0.1 -->
      <g transform="translate(591.478125 332.60833) scale(0.1 -0.1)">
       <use xlink:href="#DejaVuSans-30"/>
       <use xlink:href="#DejaVuSans-2e" x="63.623047"/>
       <use xlink:href="#DejaVuSans-31" x="95.410156"/>
      </g>
     </g>
    </g>
    <g id="ytick_12">
     <g id="line2d_59">
      <path d="M 614.38125 280.939161 
L 1137.26125 280.939161 
" clip-path="url(#pbd824a68ea)" style="fill: none; stroke: #b0b0b0; stroke-opacity: 0.3; stroke-width: 0.8; stroke-linecap: square"/>
     </g>
     <g id="line2d_60">
      <g>
       <use xlink:href="#m028ed488f3" x="614.38125" y="280.939161" style="stroke: #000000; stroke-width: 0.8"/>
      </g>
     </g>
     <g id="text_34">
      <!-- 0.2 -->
      <g transform="translate(591.478125 284.738379) scale(0.1 -0.1)">
       <use xlink:href="#DejaVuSans-30"/>
       <use xlink:href="#DejaVuSans-2e" x="63.623047"/>
       <use xlink:href="#DejaVuSans-32" x="95.410156"/>
      </g>
     </g>
    </g>
    <g id="ytick_13">
     <g id="line2d_61">
      <path d="M 614.38125 233.06921 
L 1137.26125 233.06921 
" clip-path="url(#pbd824a68ea)" style="fill: none; stroke: #b0b0b0; stroke-opacity: 0.3; stroke-width: 0.8; stroke-linecap: square"/>
     </g>
     <g id="line2d_62">
      <g>
       <use xlink:href="#m028ed488f3" x="614.38125" y="233.06921" style="stroke: #000000; stroke-width: 0.8"/>
      </g>
     </g>
     <g id="text_35">
      <!-- 0.3 -->
      <g transform="translate(591.478125 236.868429) scale(0.1 -0.1)">
       <use xlink:href="#DejaVuSans-30"/>
       <use xlink:href="#DejaVuSans-2e" x="63.623047"/>
       <use xlink:href="#DejaVuSans-33" x="95.410156"/>
      </g>
     </g>
    </g>
    <g id="ytick_14">
     <g id="line2d_63">
      <path d="M 614.38125 185.19926 
L 1137.26125 185.19926 
" clip-path="url(#pbd824a68ea)" style="fill: none; stroke: #b0b0b0; stroke-opacity: 0.3; stroke-width: 0.8; stroke-linecap: square"/>
     </g>
     <g id="line2d_64">
      <g>
       <use xlink:href="#m028ed488f3" x="614.38125" y="185.19926" style="stroke: #000000; stroke-width: 0.8"/>
      </g>
     </g>
     <g id="text_36">
      <!-- 0.4 -->
      <g transform="translate(591.478125 188.998478) scale(0.1 -0.1)">
       <use xlink:href="#DejaVuSans-30"/>
       <use xlink:href="#DejaVuSans-2e" x="63.623047"/>
       <use xlink:href="#DejaVuSans-34" x="95.410156"/>
      </g>
     </g>
    </g>
    <g id="ytick_15">
     <g id="line2d_65">
      <path d="M 614.38125 137.329309 
L 1137.26125 137.329309 
" clip-path="url(#pbd824a68ea)" style="fill: none; stroke: #b0b0b0; stroke-opacity: 0.3; stroke-width: 0.8; stroke-linecap: square"/>
     </g>
     <g id="line2d_66">
      <g>
       <use xlink:href="#m028ed488f3" x="614.38125" y="137.329309" style="stroke: #000000; stroke-width: 0.8"/>
      </g>
     </g>
     <g id="text_37">
      <!-- 0.5 -->
      <g transform="translate(591.478125 141.128528) scale(0.1 -0.1)">
       <use xlink:href="#DejaVuSans-30"/>
       <use xlink:href="#DejaVuSans-2e" x="63.623047"/>
       <use xlink:href="#DejaVuSans-35" x="95.410156"/>
      </g>
     </g>
    </g>
    <g id="ytick_16">
     <g id="line2d_67">
      <path d="M 614.38125 89.459359 
L 1137.26125 89.459359 
" clip-path="url(#pbd824a68ea)" style="fill: none; stroke: #b0b0b0; stroke-opacity: 0.3; stroke-width: 0.8; stroke-linecap: square"/>
     </g>
     <g id="line2d_68">
      <g>
       <use xlink:href="#m028ed488f3" x="614.38125" y="89.459359" style="stroke: #000000; stroke-width: 0.8"/>
      </g>
     </g>
     <g id="text_38">
      <!-- 0.6 -->
      <g transform="translate(591.478125 93.258577) scale(0.1 -0.1)">
       <use xlink:href="#DejaVuSans-30"/>
       <use xlink:href="#DejaVuSans-2e" x="63.623047"/>
       <use xlink:href="#DejaVuSans-36" x="95.410156"/>
      </g>
     </g>
    </g>
    <g id="ytick_17">
     <g id="line2d_69">
      <path d="M 614.38125 41.589408 
L 1137.26125 41.589408 
" clip-path="url(#pbd824a68ea)" style="fill: none; stroke: #b0b0b0; stroke-opacity: 0.3; stroke-width: 0.8; stroke-linecap: square"/>
     </g>
     <g id="line2d_70">
      <g>
       <use xlink:href="#m028ed488f3" x="614.38125" y="41.589408" style="stroke: #000000; stroke-width: 0.8"/>
      </g>
     </g>
     <g id="text_39">
      <!-- 0.7 -->
      <g transform="translate(591.478125 45.388627) scale(0.1 -0.1)">
       <use xlink:href="#DejaVuSans-30"/>
       <use xlink:href="#DejaVuSans-2e" x="63.623047"/>
       <use xlink:href="#DejaVuSans-37" x="95.410156"/>
      </g>
     </g>
    </g>
    <g id="text_40">
     <!-- Global F1 Score -->
     <g transform="translate(585.398438 243.085625) rotate(-90) scale(0.1 -0.1)">
      <defs>
       <path id="DejaVuSans-46" d="M 628 4666 
L 3309 4666 
L 3309 4134 
L 1259 4134 
L 1259 2759 
L 3109 2759 
L 3109 2228 
L 1259 2228 
L 1259 0 
L 628 0 
L 628 4666 
z
" transform="scale(0.015625)"/>
       <path id="DejaVuSans-53" d="M 3425 4513 
L 3425 3897 
Q 3066 4069 2747 4153 
Q 2428 4238 2131 4238 
Q 1616 4238 1336 4038 
Q 1056 3838 1056 3469 
Q 1056 3159 1242 3001 
Q 1428 2844 1947 2747 
L 2328 2669 
Q 3034 2534 3370 2195 
Q 3706 1856 3706 1288 
Q 3706 609 3251 259 
Q 2797 -91 1919 -91 
Q 1588 -91 1214 -16 
Q 841 59 441 206 
L 441 856 
Q 825 641 1194 531 
Q 1563 422 1919 422 
Q 2459 422 2753 634 
Q 3047 847 3047 1241 
Q 3047 1584 2836 1778 
Q 2625 1972 2144 2069 
L 1759 2144 
Q 1053 2284 737 2584 
Q 422 2884 422 3419 
Q 422 4038 858 4394 
Q 1294 4750 2059 4750 
Q 2388 4750 2728 4690 
Q 3069 4631 3425 4513 
z
" transform="scale(0.015625)"/>
      </defs>
      <use xlink:href="#DejaVuSans-47"/>
      <use xlink:href="#DejaVuSans-6c" x="77.490234"/>
      <use xlink:href="#DejaVuSans-6f" x="105.273438"/>
      <use xlink:href="#DejaVuSans-62" x="166.455078"/>
      <use xlink:href="#DejaVuSans-61" x="229.931641"/>
      <use xlink:href="#DejaVuSans-6c" x="291.210938"/>
      <use xlink:href="#DejaVuSans-20" x="318.994141"/>
      <use xlink:href="#DejaVuSans-46" x="350.78125"/>
      <use xlink:href="#DejaVuSans-31" x="408.300781"/>
      <use xlink:href="#DejaVuSans-20" x="471.923828"/>
      <use xlink:href="#DejaVuSans-53" x="503.710938"/>
      <use xlink:href="#DejaVuSans-63" x="567.1875"/>
      <use xlink:href="#DejaVuSans-6f" x="622.167969"/>
      <use xlink:href="#DejaVuSans-72" x="683.349609"/>
      <use xlink:href="#DejaVuSans-65" x="722.212891"/>
     </g>
    </g>
   </g>
   <g id="line2d_71">
    <path d="M 638.148523 366.751241 
L 642.949992 368.174562 
L 647.751461 368.970852 
L 652.55293 366.983778 
L 657.3544 365.903801 
L 662.155869 364.12373 
L 666.957338 360.924582 
L 671.758807 356.078996 
L 676.560277 350.597347 
L 681.361746 342.758801 
L 686.163215 337.687634 
L 690.964684 329.718748 
L 695.766154 320.938909 
L 700.567623 314.898108 
L 705.369092 309.712568 
L 710.170561 301.203655 
L 714.972031 294.212137 
L 719.7735 284.918754 
L 724.574969 282.763193 
L 729.376438 279.481299 
L 734.177907 275.651935 
L 738.979377 274.60291 
L 743.780846 276.699132 
L 748.582315 273.397485 
L 753.383784 272.573827 
L 758.185254 271.086826 
L 762.986723 269.622894 
L 767.788192 271.368954 
L 772.589661 269.640201 
L 777.391131 267.302307 
L 782.1926 261.542289 
L 786.994069 260.910522 
L 791.795538 254.544429 
L 796.597008 250.108057 
L 801.398477 247.690815 
L 806.199946 236.626841 
L 811.001415 235.542178 
L 815.802885 229.222264 
L 820.604354 223.192549 
L 825.405823 224.169704 
L 830.207292 221.963225 
L 835.008761 214.637954 
L 839.810231 212.259514 
L 844.6117 198.44425 
L 849.413169 203.941454 
L 854.214638 186.485853 
L 859.016108 187.53271 
L 863.817577 181.558523 
L 868.619046 173.841469 
L 873.420515 165.460861 
L 878.221985 149.590096 
L 883.023454 141.565677 
L 887.824923 131.241054 
L 892.626392 126.12837 
L 897.427862 121.938418 
L 902.229331 115.187898 
L 907.0308 109.667658 
L 911.832269 106.325095 
L 916.633739 102.309754 
L 921.435208 94.067647 
L 926.236677 89.825808 
L 931.038146 89.057328 
L 935.839615 83.737784 
L 940.641085 82.233641 
L 945.442554 77.586893 
L 950.244023 78.218218 
L 955.045492 75.668811 
L 959.846962 68.871211 
L 964.648431 66.940908 
L 969.4499 65.661579 
L 974.251369 63.2354 
L 979.052839 62.035633 
L 983.854308 60.655261 
L 988.655777 58.755019 
L 993.457246 58.837772 
L 998.258716 56.727217 
L 1003.060185 56.670092 
L 1007.861654 56.871289 
L 1012.663123 56.679318 
L 1017.464593 54.997027 
L 1022.266062 54.618399 
L 1027.067531 53.189302 
L 1031.869 53.316967 
L 1036.670469 52.401701 
L 1041.471939 51.996109 
L 1046.273408 51.897495 
L 1051.074877 51.74252 
L 1055.876346 52.164824 
L 1060.677816 52.107441 
L 1065.479285 52.04199 
L 1070.280754 51.534528 
L 1075.082223 49.821783 
L 1079.883693 49.420414 
L 1084.685162 48.927179 
L 1089.486631 49.040433 
L 1094.2881 49.245527 
L 1099.08957 48.534235 
L 1103.891039 47.459412 
L 1108.692508 47.481265 
L 1113.493977 47.738822 
" clip-path="url(#pbd824a68ea)" style="fill: none; stroke: #1f77b4; stroke-width: 2; stroke-linecap: square"/>
   </g>
   <g id="line2d_72">
    <path d="M 638.148523 358.659677 
L 642.949992 351.825648 
L 647.751461 342.995109 
L 652.55293 334.657267 
L 657.3544 320.596158 
L 662.155869 302.784121 
L 666.957338 284.901397 
L 671.758807 266.928567 
L 676.560277 246.391086 
L 681.361746 226.748413 
L 686.163215 208.690652 
L 690.964684 188.696441 
L 695.766154 176.37365 
L 700.567623 163.150124 
L 705.369092 154.917587 
L 710.170561 147.422699 
L 714.972031 139.219125 
L 719.7735 132.550075 
L 724.574969 128.001836 
L 729.376438 122.887872 
L 734.177907 117.473294 
L 738.979377 113.171391 
L 743.780846 109.609411 
L 748.582315 106.658647 
L 753.383784 104.216293 
L 758.185254 101.663649 
L 762.986723 99.974759 
L 767.788192 98.621016 
L 772.589661 97.5483 
L 777.391131 96.051257 
L 782.1926 94.962519 
L 786.994069 94.202064 
L 791.795538 93.334699 
L 796.597008 92.496917 
L 801.398477 91.859308 
L 806.199946 91.066338 
L 811.001415 90.194803 
L 815.802885 89.554297 
L 820.604354 88.905096 
L 825.405823 88.102273 
L 830.207292 87.424363 
L 835.008761 87.10879 
L 839.810231 86.643084 
L 844.6117 86.202188 
L 849.413169 85.590133 
L 854.214638 85.115578 
L 859.016108 84.628915 
L 863.817577 84.293457 
L 868.619046 83.870325 
L 873.420515 83.260996 
L 878.221985 82.590863 
L 883.023454 81.960616 
L 887.824923 80.897169 
L 892.626392 80.308438 
L 897.427862 79.914743 
L 902.229331 79.56866 
L 907.0308 79.088397 
L 911.832269 78.692414 
L 916.633739 78.257571 
L 921.435208 77.908374 
L 926.236677 77.643084 
L 931.038146 77.387943 
L 935.839615 77.214668 
L 940.641085 77.066301 
L 945.442554 76.88745 
L 950.244023 76.605979 
L 955.045492 76.203938 
L 959.846962 75.880111 
L 964.648431 75.587272 
L 969.4499 75.298629 
L 974.251369 74.911815 
L 979.052839 74.413625 
L 983.854308 73.931598 
L 988.655777 73.439466 
L 993.457246 72.99362 
L 998.258716 72.530822 
L 1003.060185 71.975288 
L 1007.861654 71.559452 
L 1012.663123 71.334452 
L 1017.464593 71.008226 
L 1022.266062 70.854414 
L 1027.067531 70.696 
L 1031.869 70.435116 
L 1036.670469 70.214561 
L 1041.471939 69.968072 
L 1046.273408 69.638061 
L 1051.074877 69.450696 
L 1055.876346 69.275777 
L 1060.677816 69.087145 
L 1065.479285 68.930804 
L 1070.280754 68.783845 
L 1075.082223 68.641748 
L 1079.883693 68.417836 
L 1084.685162 68.224968 
L 1089.486631 67.989077 
L 1094.2881 67.847401 
L 1099.08957 67.71487 
L 1103.891039 67.431904 
L 1108.692508 67.086705 
L 1113.493977 66.824833 
" clip-path="url(#pbd824a68ea)" style="fill: none; stroke: #ff7f0e; stroke-width: 2; stroke-linecap: square"/>
   </g>
   <g id="line2d_73">
    <path d="M 638.148523 359.769242 
L 642.949992 353.721491 
L 647.751461 345.038587 
L 652.55293 334.451211 
L 657.3544 322.605753 
L 662.155869 303.863373 
L 666.957338 285.262314 
L 671.758807 266.157035 
L 676.560277 246.362696 
L 681.361746 226.828769 
L 686.163215 209.241585 
L 690.964684 192.560061 
L 695.766154 177.330732 
L 700.567623 163.987332 
L 705.369092 153.463413 
L 710.170561 143.987778 
L 714.972031 137.566574 
L 719.7735 132.10817 
L 724.574969 126.990645 
L 729.376438 121.405483 
L 734.177907 116.750924 
L 738.979377 112.593761 
L 743.780846 109.002904 
L 748.582315 106.326081 
L 753.383784 103.899041 
L 758.185254 101.4497 
L 762.986723 99.538776 
L 767.788192 98.003483 
L 772.589661 96.663818 
L 777.391131 95.393123 
L 782.1926 94.140487 
L 786.994069 93.303527 
L 791.795538 92.548957 
L 796.597008 91.771309 
L 801.398477 90.925452 
L 806.199946 90.294539 
L 811.001415 89.460045 
L 815.802885 88.718686 
L 820.604354 87.99512 
L 825.405823 87.355433 
L 830.207292 86.533106 
L 835.008761 86.025337 
L 839.810231 85.648939 
L 844.6117 85.084197 
L 849.413169 84.708493 
L 854.214638 84.149356 
L 859.016108 83.455875 
L 863.817577 82.831901 
L 868.619046 82.076009 
L 873.420515 81.448638 
L 878.221985 81.018971 
L 883.023454 80.297788 
L 887.824923 79.770573 
L 892.626392 79.102957 
L 897.427862 78.836671 
L 902.229331 78.582383 
L 907.0308 78.223253 
L 911.832269 77.897251 
L 916.633739 77.640981 
L 921.435208 77.457522 
L 926.236677 77.18093 
L 931.038146 76.974823 
L 935.839615 76.856785 
L 940.641085 76.669974 
L 945.442554 76.418353 
L 950.244023 76.230407 
L 955.045492 75.963044 
L 959.846962 75.714157 
L 964.648431 75.492917 
L 969.4499 75.292949 
L 974.251369 75.10425 
L 979.052839 74.809146 
L 983.854308 74.483482 
L 988.655777 74.249311 
L 993.457246 74.013549 
L 998.258716 73.691889 
L 1003.060185 73.428616 
L 1007.861654 73.093874 
L 1012.663123 72.73319 
L 1017.464593 72.395695 
L 1022.266062 72.024593 
L 1027.067531 71.79701 
L 1031.869 71.732607 
L 1036.670469 71.626341 
L 1041.471939 71.513113 
L 1046.273408 71.484435 
L 1051.074877 71.514695 
L 1055.876346 71.483478 
L 1060.677816 71.216982 
L 1065.479285 70.901352 
L 1070.280754 70.738305 
L 1075.082223 70.508263 
L 1079.883693 70.14824 
L 1084.685162 69.832835 
L 1089.486631 69.472502 
L 1094.2881 69.101231 
L 1099.08957 68.712239 
L 1103.891039 68.366864 
L 1108.692508 68.116484 
L 1113.493977 68.060897 
" clip-path="url(#pbd824a68ea)" style="fill: none; stroke: #2ca02c; stroke-width: 2; stroke-linecap: square"/>
   </g>
   <g id="line2d_74">
    <path d="M 638.148523 338.800539 
L 642.949992 343.765805 
L 647.751461 343.220907 
L 652.55293 333.68406 
L 657.3544 305.493589 
L 662.155869 260.750233 
L 666.957338 218.128455 
L 671.758807 181.895763 
L 676.560277 146.377358 
L 681.361746 120.052613 
L 686.163215 102.696102 
L 690.964684 90.452425 
L 695.766154 78.597776 
L 700.567623 68.477374 
L 705.369092 57.687752 
L 710.170561 50.360134 
L 714.972031 47.113369 
L 719.7735 44.035869 
L 724.574969 41.741782 
L 729.376438 39.850407 
L 734.177907 39.409488 
L 738.979377 39.199396 
L 743.780846 39.023484 
L 748.582315 38.940376 
L 753.383784 38.904763 
L 758.185254 38.862439 
L 762.986723 38.850058 
L 767.788192 38.850832 
L 772.589661 38.850832 
L 777.391131 38.850832 
L 782.1926 38.844845 
L 786.994069 38.84285 
L 791.795538 38.838859 
L 796.597008 38.840447 
L 801.398477 38.838859 
L 806.199946 38.83727 
L 811.001415 38.83727 
L 815.802885 38.836456 
L 820.604354 38.838045 
L 825.405823 38.838045 
L 830.207292 38.836456 
L 835.008761 38.836456 
L 839.810231 38.836456 
L 844.6117 38.840447 
L 849.413169 38.838859 
L 854.214638 38.84285 
L 859.016108 38.844845 
L 863.817577 38.848837 
L 868.619046 38.848837 
L 873.420515 38.850832 
L 878.221985 38.852421 
L 883.023454 38.852421 
L 887.824923 38.852421 
L 892.626392 38.852421 
L 897.427862 38.852421 
L 902.229331 38.854417 
L 907.0308 38.854824 
L 911.832269 38.858815 
L 916.633739 38.860811 
L 921.435208 38.866798 
L 926.236677 38.864802 
L 931.038146 38.865616 
L 935.839615 38.863621 
L 940.641085 38.861625 
L 945.442554 38.862439 
L 950.244023 38.868834 
L 955.045492 38.867652 
L 959.846962 38.865656 
L 964.648431 38.863253 
L 969.4499 38.862072 
L 974.251369 38.862072 
L 979.052839 38.862072 
L 983.854308 38.860483 
L 988.655777 38.860483 
L 993.457246 38.850823 
L 998.258716 38.83958 
L 1003.060185 38.832264 
L 1007.861654 38.825398 
L 1012.663123 38.838148 
L 1017.464593 38.840609 
L 1022.266062 38.849008 
L 1027.067531 38.844767 
L 1031.869 38.871303 
L 1036.670469 38.865344 
L 1041.471939 38.860897 
L 1046.273408 38.852909 
L 1051.074877 38.884556 
L 1055.876346 38.882967 
L 1060.677816 38.876975 
L 1065.479285 38.898945 
L 1070.280754 38.928627 
L 1075.082223 38.963586 
L 1079.883693 38.955505 
L 1084.685162 38.924308 
L 1089.486631 38.939927 
L 1094.2881 38.974032 
L 1099.08957 38.979658 
L 1103.891039 38.933993 
L 1108.692508 38.923037 
L 1113.493977 38.879485 
" clip-path="url(#pbd824a68ea)" style="fill: none; stroke: #d62728; stroke-width: 2; stroke-linecap: square"/>
   </g>
   <g id="line2d_75">
    <path d="M 638.148523 326.837864 
L 642.949992 318.012124 
L 647.751461 305.843186 
L 652.55293 295.451523 
L 657.3544 281.011581 
L 662.155869 263.913744 
L 666.957338 249.624153 
L 671.758807 231.914796 
L 676.560277 217.073508 
L 681.361746 201.171531 
L 686.163215 184.61728 
L 690.964684 174.306542 
L 695.766154 162.417792 
L 700.567623 150.012427 
L 705.369092 141.253883 
L 710.170561 132.004919 
L 714.972031 124.739672 
L 719.7735 114.363268 
L 724.574969 106.331993 
L 729.376438 100.494758 
L 734.177907 94.811052 
L 738.979377 89.959075 
L 743.780846 86.401234 
L 748.582315 82.284244 
L 753.383784 79.413466 
L 758.185254 76.075532 
L 762.986723 72.777751 
L 767.788192 69.192944 
L 772.589661 66.421794 
L 777.391131 64.034762 
L 782.1926 61.539433 
L 786.994069 59.698614 
L 791.795538 57.291464 
L 796.597008 54.986796 
L 801.398477 53.361015 
L 806.199946 52.138047 
L 811.001415 51.09909 
L 815.802885 50.232833 
L 820.604354 49.373174 
L 825.405823 48.720526 
L 830.207292 48.281185 
L 835.008761 47.869752 
L 839.810231 47.394608 
L 844.6117 46.771173 
L 849.413169 46.422542 
L 854.214638 45.931748 
L 859.016108 45.45825 
L 863.817577 45.177767 
L 868.619046 44.859341 
L 873.420515 44.481459 
L 878.221985 44.130591 
L 883.023454 43.908116 
L 887.824923 43.649012 
L 892.626392 43.389714 
L 897.427862 43.01764 
L 902.229331 42.656659 
L 907.0308 42.364266 
L 911.832269 42.119153 
L 916.633739 41.562965 
L 921.435208 41.020906 
L 926.236677 40.710854 
L 931.038146 40.526481 
L 935.839615 40.424137 
L 940.641085 40.316608 
L 945.442554 40.243784 
L 950.244023 40.139144 
L 955.045492 40.059847 
L 959.846962 40.011868 
L 964.648431 39.957138 
L 969.4499 39.882343 
L 974.251369 39.831671 
L 979.052839 39.768243 
L 983.854308 39.715617 
L 988.655777 39.671026 
L 993.457246 39.614083 
L 998.258716 39.53989 
L 1003.060185 39.515375 
L 1007.861654 39.475261 
L 1012.663123 39.440401 
L 1017.464593 39.408726 
L 1022.266062 39.387062 
L 1027.067531 39.353045 
L 1031.869 39.318623 
L 1036.670469 39.282206 
L 1041.471939 39.255383 
L 1046.273408 39.235386 
L 1051.074877 39.221745 
L 1055.876346 39.202929 
L 1060.677816 39.184527 
L 1065.479285 39.171302 
L 1070.280754 39.165305 
L 1075.082223 39.148905 
L 1079.883693 39.134505 
L 1084.685162 39.114112 
L 1089.486631 39.103301 
L 1094.2881 39.092901 
L 1099.08957 39.076918 
L 1103.891039 39.062933 
L 1108.692508 39.046952 
L 1113.493977 39.038962 
" clip-path="url(#pbd824a68ea)" style="fill: none; stroke: #9467bd; stroke-width: 2; stroke-linecap: square"/>
   </g>
   <g id="line2d_76">
    <path d="M 638.148523 366.751241 
L 642.949992 368.174562 
L 647.751461 368.970852 
L 652.55293 366.983778 
L 657.3544 365.903801 
L 662.155869 364.12373 
L 666.957338 360.924582 
L 671.758807 356.078996 
L 676.560277 350.597347 
L 681.361746 342.758801 
L 686.163215 337.687634 
L 690.964684 329.718748 
L 695.766154 320.938909 
L 700.567623 314.898108 
L 705.369092 309.712568 
L 710.170561 301.203655 
L 714.972031 294.212137 
L 719.7735 284.918754 
L 724.574969 282.763193 
L 729.376438 279.481299 
L 734.177907 275.651935 
L 738.979377 274.60291 
L 743.780846 276.699132 
L 748.582315 273.397485 
L 753.383784 272.573827 
L 758.185254 271.086826 
L 762.986723 269.622894 
L 767.788192 271.368954 
L 772.589661 269.640201 
L 777.391131 267.302307 
L 782.1926 261.542289 
L 786.994069 260.910522 
L 791.795538 254.544429 
L 796.597008 250.108057 
L 801.398477 247.690815 
L 806.199946 236.626841 
L 811.001415 235.542178 
L 815.802885 229.222264 
L 820.604354 223.192549 
L 825.405823 224.169704 
L 830.207292 221.963225 
L 835.008761 214.637954 
L 839.810231 212.259514 
L 844.6117 198.44425 
L 849.413169 203.941454 
L 854.214638 186.485853 
L 859.016108 187.53271 
L 863.817577 181.558523 
L 868.619046 173.841469 
L 873.420515 165.460861 
L 878.221985 149.590096 
L 883.023454 141.565677 
L 887.824923 131.241054 
L 892.626392 126.12837 
L 897.427862 121.938418 
L 902.229331 115.187898 
L 907.0308 109.667658 
L 911.832269 106.325095 
L 916.633739 102.309754 
L 921.435208 94.067647 
L 926.236677 89.825808 
L 931.038146 89.057328 
L 935.839615 83.737784 
L 940.641085 82.233641 
L 945.442554 77.586893 
L 950.244023 78.218218 
L 955.045492 75.668811 
L 959.846962 68.871211 
L 964.648431 66.940908 
L 969.4499 65.661579 
L 974.251369 63.2354 
L 979.052839 62.035633 
L 983.854308 60.655261 
L 988.655777 58.755019 
L 993.457246 58.837772 
L 998.258716 56.727217 
L 1003.060185 56.670092 
L 1007.861654 56.871289 
L 1012.663123 56.679318 
L 1017.464593 54.997027 
L 1022.266062 54.618399 
L 1027.067531 53.189302 
L 1031.869 53.316967 
L 1036.670469 52.401701 
L 1041.471939 51.996109 
L 1046.273408 51.897495 
L 1051.074877 51.74252 
L 1055.876346 52.164824 
L 1060.677816 52.107441 
L 1065.479285 52.04199 
L 1070.280754 51.534528 
L 1075.082223 49.821783 
L 1079.883693 49.420414 
L 1084.685162 48.927179 
L 1089.486631 49.040433 
L 1094.2881 49.245527 
L 1099.08957 48.534235 
L 1103.891039 47.459412 
L 1108.692508 47.481265 
L 1113.493977 47.738822 
" clip-path="url(#pbd824a68ea)" style="fill: none; stroke: #8c564b; stroke-width: 2; stroke-linecap: square"/>
   </g>
   <g id="patch_9">
    <path d="M 614.38125 385.478125 
L 614.38125 22.318125 
" style="fill: none; stroke: #000000; stroke-width: 0.8; stroke-linejoin: miter; stroke-linecap: square"/>
   </g>
   <g id="patch_10">
    <path d="M 1137.26125 385.478125 
L 1137.26125 22.318125 
" style="fill: none; stroke: #000000; stroke-width: 0.8; stroke-linejoin: miter; stroke-linecap: square"/>
   </g>
   <g id="patch_11">
    <path d="M 614.38125 385.478125 
L 1137.26125 385.478125 
" style="fill: none; stroke: #000000; stroke-width: 0.8; stroke-linejoin: miter; stroke-linecap: square"/>
   </g>
   <g id="patch_12">
    <path d="M 614.38125 22.318125 
L 1137.26125 22.318125 
" style="fill: none; stroke: #000000; stroke-width: 0.8; stroke-linejoin: miter; stroke-linecap: square"/>
   </g>
   <g id="text_41">
    <!-- F1 Score Comparison - opp -->
    <g transform="translate(794.744375 16.318125) scale(0.12 -0.12)">
     <use xlink:href="#DejaVuSans-46"/>
     <use xlink:href="#DejaVuSans-31" x="57.519531"/>
     <use xlink:href="#DejaVuSans-20" x="121.142578"/>
     <use xlink:href="#DejaVuSans-53" x="152.929688"/>
     <use xlink:href="#DejaVuSans-63" x="216.40625"/>
     <use xlink:href="#DejaVuSans-6f" x="271.386719"/>
     <use xlink:href="#DejaVuSans-72" x="332.568359"/>
     <use xlink:href="#DejaVuSans-65" x="371.431641"/>
     <use xlink:href="#DejaVuSans-20" x="432.955078"/>
     <use xlink:href="#DejaVuSans-43" x="464.742188"/>
     <use xlink:href="#DejaVuSans-6f" x="534.566406"/>
     <use xlink:href="#DejaVuSans-6d" x="595.748047"/>
     <use xlink:href="#DejaVuSans-70" x="693.160156"/>
     <use xlink:href="#DejaVuSans-61" x="756.636719"/>
     <use xlink:href="#DejaVuSans-72" x="817.916016"/>
     <use xlink:href="#DejaVuSans-69" x="859.029297"/>
     <use xlink:href="#DejaVuSans-73" x="886.8125"/>
     <use xlink:href="#DejaVuSans-6f" x="938.912109"/>
     <use xlink:href="#DejaVuSans-6e" x="1000.09375"/>
     <use xlink:href="#DejaVuSans-20" x="1063.472656"/>
     <use xlink:href="#DejaVuSans-2d" x="1095.259766"/>
     <use xlink:href="#DejaVuSans-20" x="1131.34375"/>
     <use xlink:href="#DejaVuSans-6f" x="1163.130859"/>
     <use xlink:href="#DejaVuSans-70" x="1224.3125"/>
     <use xlink:href="#DejaVuSans-70" x="1287.789062"/>
    </g>
   </g>
   <g id="legend_2">
    <g id="patch_13">
     <path d="M 1055.847188 380.478125 
L 1130.26125 380.478125 
Q 1132.26125 380.478125 1132.26125 378.478125 
L 1132.26125 291.409375 
Q 1132.26125 289.409375 1130.26125 289.409375 
L 1055.847188 289.409375 
Q 1053.847188 289.409375 1053.847188 291.409375 
L 1053.847188 378.478125 
Q 1053.847188 380.478125 1055.847188 380.478125 
z
" style="fill: #ffffff; opacity: 0.8; stroke: #cccccc; stroke-linejoin: miter"/>
    </g>
    <g id="line2d_77">
     <path d="M 1057.847188 297.507812 
L 1067.847188 297.507812 
L 1077.847188 297.507812 
" style="fill: none; stroke: #1f77b4; stroke-width: 2; stroke-linecap: square"/>
    </g>
    <g id="text_42">
     <!-- fedavg -->
     <g transform="translate(1085.847188 301.007812) scale(0.1 -0.1)">
      <use xlink:href="#DejaVuSans-66"/>
      <use xlink:href="#DejaVuSans-65" x="35.205078"/>
      <use xlink:href="#DejaVuSans-64" x="96.728516"/>
      <use xlink:href="#DejaVuSans-61" x="160.205078"/>
      <use xlink:href="#DejaVuSans-76" x="221.484375"/>
      <use xlink:href="#DejaVuSans-67" x="280.664062"/>
     </g>
    </g>
    <g id="line2d_78">
     <path d="M 1057.847188 312.185937 
L 1067.847188 312.185937 
L 1077.847188 312.185937 
" style="fill: none; stroke: #ff7f0e; stroke-width: 2; stroke-linecap: square"/>
    </g>
    <g id="text_43">
     <!-- fedmekt -->
     <g transform="translate(1085.847188 315.685937) scale(0.1 -0.1)">
      <use xlink:href="#DejaVuSans-66"/>
      <use xlink:href="#DejaVuSans-65" x="35.205078"/>
      <use xlink:href="#DejaVuSans-64" x="96.728516"/>
      <use xlink:href="#DejaVuSans-6d" x="160.205078"/>
      <use xlink:href="#DejaVuSans-65" x="257.617188"/>
      <use xlink:href="#DejaVuSans-6b" x="319.140625"/>
      <use xlink:href="#DejaVuSans-74" x="377.050781"/>
     </g>
    </g>
    <g id="line2d_79">
     <path d="M 1057.847188 326.864062 
L 1067.847188 326.864062 
L 1077.847188 326.864062 
" style="fill: none; stroke: #2ca02c; stroke-width: 2; stroke-linecap: square"/>
    </g>
    <g id="text_44">
     <!-- fedproto -->
     <g transform="translate(1085.847188 330.364062) scale(0.1 -0.1)">
      <use xlink:href="#DejaVuSans-66"/>
      <use xlink:href="#DejaVuSans-65" x="35.205078"/>
      <use xlink:href="#DejaVuSans-64" x="96.728516"/>
      <use xlink:href="#DejaVuSans-70" x="160.205078"/>
      <use xlink:href="#DejaVuSans-72" x="223.681641"/>
      <use xlink:href="#DejaVuSans-6f" x="262.544922"/>
      <use xlink:href="#DejaVuSans-74" x="323.726562"/>
      <use xlink:href="#DejaVuSans-6f" x="362.935547"/>
     </g>
    </g>
    <g id="line2d_80">
     <path d="M 1057.847188 341.542187 
L 1067.847188 341.542187 
L 1077.847188 341.542187 
" style="fill: none; stroke: #d62728; stroke-width: 2; stroke-linecap: square"/>
    </g>
    <g id="text_45">
     <!-- fedprop -->
     <g transform="translate(1085.847188 345.042187) scale(0.1 -0.1)">
      <use xlink:href="#DejaVuSans-66"/>
      <use xlink:href="#DejaVuSans-65" x="35.205078"/>
      <use xlink:href="#DejaVuSans-64" x="96.728516"/>
      <use xlink:href="#DejaVuSans-70" x="160.205078"/>
      <use xlink:href="#DejaVuSans-72" x="223.681641"/>
      <use xlink:href="#DejaVuSans-6f" x="262.544922"/>
      <use xlink:href="#DejaVuSans-70" x="323.726562"/>
     </g>
    </g>
    <g id="line2d_81">
     <path d="M 1057.847188 356.220312 
L 1067.847188 356.220312 
L 1077.847188 356.220312 
" style="fill: none; stroke: #9467bd; stroke-width: 2; stroke-linecap: square"/>
    </g>
    <g id="text_46">
     <!-- fedcent -->
     <g transform="translate(1085.847188 359.720312) scale(0.1 -0.1)">
      <use xlink:href="#DejaVuSans-66"/>
      <use xlink:href="#DejaVuSans-65" x="35.205078"/>
      <use xlink:href="#DejaVuSans-64" x="96.728516"/>
      <use xlink:href="#DejaVuSans-63" x="160.205078"/>
      <use xlink:href="#DejaVuSans-65" x="215.185547"/>
      <use xlink:href="#DejaVuSans-6e" x="276.708984"/>
      <use xlink:href="#DejaVuSans-74" x="340.087891"/>
     </g>
    </g>
    <g id="line2d_82">
     <path d="M 1057.847188 370.898437 
L 1067.847188 370.898437 
L 1077.847188 370.898437 
" style="fill: none; stroke: #8c564b; stroke-width: 2; stroke-linecap: square"/>
    </g>
    <g id="text_47">
     <!-- fedprox -->
     <g transform="translate(1085.847188 374.398437) scale(0.1 -0.1)">
      <use xlink:href="#DejaVuSans-66"/>
      <use xlink:href="#DejaVuSans-65" x="35.205078"/>
      <use xlink:href="#DejaVuSans-64" x="96.728516"/>
      <use xlink:href="#DejaVuSans-70" x="160.205078"/>
      <use xlink:href="#DejaVuSans-72" x="223.681641"/>
      <use xlink:href="#DejaVuSans-6f" x="262.544922"/>
      <use xlink:href="#DejaVuSans-78" x="320.601562"/>
     </g>
    </g>
   </g>
  </g>
 </g>
 <defs>
  <clipPath id="p8d202ac7ca">
   <rect x="43.78125" y="22.318125" width="522.88" height="363.16"/>
  </clipPath>
  <clipPath id="pbd824a68ea">
   <rect x="614.38125" y="22.318125" width="522.88" height="363.16"/>
  </clipPath>
 </defs>
</svg>
